M48
; DRILL file {KiCad 9.0.7} date 2026-09-18T16:32:41-0700
; FORMAT={-:-/ absolute / metric / decimal}
; #@! TF.CreationDate,2026-09-18T16:32:41-07:00
; #@! TF.GenerationSoftware,Kicad,Pcbnew,9.0.7
; #@! TF.FileFunction,Plated,1,4,PTH
FMAT,2
METRIC
; #@! TA.AperFunction,Plated,PTH,ViaDrill
T1C0.300
; #@! TA.AperFunction,Plated,PTH,ViaDrill
T2C0.600
; #@! TA.AperFunction,Plated,PTH,ComponentDrill
T3C0.610
; #@! TA.AperFunction,Plated,PTH,ComponentDrill
T4C1.090
%
G90
G05
T1
X80.9Y-103.5
X82.0Y-89.4
X82.1Y-85.3
X84.35Y-90.4
X85.0Y-94.2
X85.0Y-99.8
X86.3Y-107.7
X86.3Y-109.1
X87.3Y-89.5
X87.6Y-93.2
X89.05Y-91.65
X90.28Y-97.0
X90.3Y-103.2
X90.95Y-105.2
X90.95Y-106.4
X91.6Y-99.8
X91.8Y-94.7
X93.0Y-97.0
X93.4Y-98.9
X93.4Y-99.8
X93.55Y-95.65
X93.9Y-109.1
X93.923Y-98.168
X96.3Y-96.675
X96.3Y-97.7
X97.2Y-103.9
X97.2Y-104.8
X97.2Y-105.7
X97.4Y-98.8
X97.4Y-100.25
X97.4Y-101.7
X98.85Y-98.8
X98.85Y-100.25
X98.85Y-101.7
X100.3Y-98.8
X100.3Y-100.25
X100.3Y-101.7
X102.4Y-101.0
X103.0Y-86.6
X103.0Y-90.6
X103.39Y-93.077
X103.65Y-97.3
X104.9Y-92.5
X105.459Y-90.191
X106.9Y-103.55
X106.9Y-104.45
X107.3Y-86.0
X107.85Y-103.55
X108.551Y-100.4
X110.15Y-84.7
X111.65Y-84.7
X112.1Y-90.855
X112.48Y-87.17
X114.0Y-100.6
X114.46Y-86.01
X115.0Y-107.56
X115.6Y-85.2
X116.0Y-100.6
X116.5Y-88.1
X116.5Y-89.0
X116.5Y-89.9
X118.025Y-88.821
X121.0Y-89.95
X121.0Y-91.4
X121.9Y-85.05
X121.9Y-86.05
X122.4Y-90.0
X123.2Y-91.4
X123.2Y-93.8
X123.702Y-96.176
X123.702Y-96.976
X123.702Y-97.776
X124.6Y-99.5
X127.2Y-99.0
X128.6Y-93.4
X128.6Y-100.6
T2
X81.8Y-108.6
X85.6Y-103.2
X87.6Y-94.575
X87.641Y-99.476
X91.05Y-91.15
X91.6Y-101.8
X94.5Y-103.2
X99.6Y-103.9
X99.6Y-105.2
X102.2Y-103.9
X102.2Y-105.2
X107.3Y-87.25
X126.4Y-89.6
X127.2Y-104.8
X128.2Y-85.8
T4
X97.12Y-108.705
X99.66Y-108.705
X102.2Y-108.705
X104.74Y-108.705
X107.28Y-108.705
T3
X82.325Y-92.68G85X81.131Y-92.68
G05
X82.325Y-101.32G85X81.131Y-101.32
G05
X86.122Y-92.68G85X85.334Y-92.68
G05
X86.122Y-101.32G85X85.334Y-101.32
G05
M30
