%TF.GenerationSoftware,KiCad,Pcbnew,9.0.7*%
%TF.CreationDate,2026-07-29T13:07:00-07:00*%
%TF.ProjectId,HR_Sp02_Sensor,48525f53-7030-4325-9f53-656e736f722e,rev?*%
%TF.SameCoordinates,Original*%
%TF.FileFunction,Paste,Top*%
%TF.FilePolarity,Positive*%
%FSLAX46Y46*%
G04 Gerber Fmt 4.6, Leading zero omitted, Abs format (unit mm)*
G04 Created by KiCad (PCBNEW 9.0.7) date 2026-07-29 13:07:00*
%MOMM*%
%LPD*%
G01*
G04 APERTURE LIST*
G04 Aperture macros list*
%AMRoundRect*
0 Rectangle with rounded corners*
0 $1 Rounding radius*
0 $2 $3 $4 $5 $6 $7 $8 $9 X,Y pos of 4 corners*
0 Add a 4 corners polygon primitive as box body*
4,1,4,$2,$3,$4,$5,$6,$7,$8,$9,$2,$3,0*
0 Add four circle primitives for the rounded corners*
1,1,$1+$1,$2,$3*
1,1,$1+$1,$4,$5*
1,1,$1+$1,$6,$7*
1,1,$1+$1,$8,$9*
0 Add four rect primitives between the rounded corners*
20,1,$1+$1,$2,$3,$4,$5,0*
20,1,$1+$1,$4,$5,$6,$7,0*
20,1,$1+$1,$6,$7,$8,$9,0*
20,1,$1+$1,$8,$9,$2,$3,0*%
G04 Aperture macros list end*
%ADD10C,0.304800*%
%ADD11RoundRect,0.250000X0.475000X-0.250000X0.475000X0.250000X-0.475000X0.250000X-0.475000X-0.250000X0*%
%ADD12RoundRect,0.250000X-0.475000X0.250000X-0.475000X-0.250000X0.475000X-0.250000X0.475000X0.250000X0*%
%ADD13R,1.900000X0.400000*%
%ADD14R,0.600000X0.500000*%
%ADD15R,1.050000X0.850000*%
%ADD16R,0.450000X0.350000*%
%ADD17R,0.500000X0.780000*%
%ADD18R,0.480000X0.350000*%
%ADD19R,0.580000X0.850000*%
%ADD20RoundRect,0.250000X-0.250000X-0.475000X0.250000X-0.475000X0.250000X0.475000X-0.250000X0.475000X0*%
%ADD21R,1.200000X0.600000*%
G04 APERTURE END LIST*
D10*
%TO.C,U1*%
X97250000Y-60600000D03*
X96850000Y-60600000D03*
X96450000Y-60600000D03*
X96050000Y-60600000D03*
X95650000Y-60600000D03*
X97250000Y-60200000D03*
X96850000Y-60200000D03*
X96450000Y-60200000D03*
X96050000Y-60200000D03*
X95650000Y-60200000D03*
X97250000Y-59800000D03*
X96850000Y-59800000D03*
X96450000Y-59800000D03*
X96050000Y-59800000D03*
X95650000Y-59800000D03*
X97250000Y-59400000D03*
X96850000Y-59400000D03*
X96450000Y-59400000D03*
X96050000Y-59400000D03*
X95650000Y-59400000D03*
%TD*%
D11*
%TO.C,C2*%
X99605000Y-69555000D03*
X99605000Y-71455000D03*
%TD*%
D12*
%TO.C,C1*%
X92493000Y-69555000D03*
X92493000Y-71455000D03*
%TD*%
D13*
%TO.C,D1*%
X103854000Y-54857000D03*
X103854000Y-56257000D03*
%TD*%
D14*
%TO.C,LED1*%
X102604000Y-60000000D03*
X105204000Y-60000000D03*
D15*
X104379000Y-60000000D03*
D16*
X104754000Y-59100000D03*
D17*
X103904000Y-58790000D03*
D18*
X103089000Y-59100000D03*
D19*
X103194000Y-60000000D03*
D18*
X103089000Y-60900000D03*
D17*
X103904000Y-61210000D03*
D16*
X104754000Y-60900000D03*
%TD*%
D13*
%TO.C,D2*%
X103854000Y-63697000D03*
X103854000Y-65097000D03*
%TD*%
D11*
%TO.C,C4*%
X92747000Y-64900000D03*
X92747000Y-63000000D03*
%TD*%
%TO.C,C6*%
X96049000Y-64900000D03*
X96049000Y-63000000D03*
%TD*%
D12*
%TO.C,C5*%
X98200000Y-53700000D03*
X98200000Y-55600000D03*
%TD*%
D20*
%TO.C,C3*%
X91300000Y-58200000D03*
X93200000Y-58200000D03*
%TD*%
D21*
%TO.C,IC1*%
X94799000Y-69555000D03*
X94799000Y-70505000D03*
X94799000Y-71455000D03*
X97299000Y-71455000D03*
X97299000Y-69555000D03*
%TD*%
M02*
