%TF.GenerationSoftware,KiCad,Pcbnew,9.0.7*%
%TF.CreationDate,2026-07-29T13:07:00-07:00*%
%TF.ProjectId,HR_Sp02_Sensor,48525f53-7030-4325-9f53-656e736f722e,rev?*%
%TF.SameCoordinates,Original*%
%TF.FileFunction,Legend,Bot*%
%TF.FilePolarity,Positive*%
%FSLAX46Y46*%
G04 Gerber Fmt 4.6, Leading zero omitted, Abs format (unit mm)*
G04 Created by KiCad (PCBNEW 9.0.7) date 2026-07-29 13:07:00*
%MOMM*%
%LPD*%
G01*
G04 APERTURE LIST*
%ADD10C,0.150000*%
%ADD11C,0.120000*%
G04 APERTURE END LIST*
D10*
G36*
X99782898Y-59845000D02*
G01*
X100032942Y-59845000D01*
X100297274Y-59098715D01*
X100297274Y-58954002D01*
X100061610Y-58954002D01*
X100061610Y-58444023D01*
X100363860Y-58444023D01*
X100363860Y-59845000D01*
X100603646Y-59845000D01*
X100603646Y-58238859D01*
X99967363Y-58238859D01*
X99900034Y-58248060D01*
X99857451Y-58271977D01*
X99832140Y-58309598D01*
X99822832Y-58365895D01*
X99822832Y-58985234D01*
X99831238Y-59039151D01*
X99853968Y-59075481D01*
X99891525Y-59098990D01*
X99938562Y-59107970D01*
X100047322Y-59112271D01*
X99782898Y-59845000D01*
G37*
G36*
X99636444Y-59845000D02*
G01*
X98996039Y-59845000D01*
X98927597Y-59835741D01*
X98884433Y-59811734D01*
X98858870Y-59774103D01*
X98849494Y-59717963D01*
X98849494Y-59228225D01*
X98854623Y-59184903D01*
X99090286Y-59184903D01*
X99090286Y-59645697D01*
X99396659Y-59645697D01*
X99396659Y-59106409D01*
X99208164Y-59106409D01*
X99090286Y-59184903D01*
X98854623Y-59184903D01*
X98856063Y-59172736D01*
X98874587Y-59128013D01*
X98904815Y-59091571D01*
X99033958Y-59006758D01*
X98908936Y-58925334D01*
X98881148Y-58891208D01*
X98863911Y-58848360D01*
X98861838Y-58830170D01*
X99096515Y-58830170D01*
X99212286Y-58912969D01*
X99396659Y-58912969D01*
X99396659Y-58438161D01*
X99096515Y-58438161D01*
X99096515Y-58830170D01*
X98861838Y-58830170D01*
X98857737Y-58794175D01*
X98857737Y-58365895D01*
X98866973Y-58309432D01*
X98892019Y-58271821D01*
X98933995Y-58248001D01*
X99000161Y-58238859D01*
X99636444Y-58238859D01*
X99636444Y-59845000D01*
G37*
G36*
X97839702Y-59845000D02*
G01*
X98089746Y-59845000D01*
X98354077Y-59098715D01*
X98354077Y-58954002D01*
X98118414Y-58954002D01*
X98118414Y-58444023D01*
X98420664Y-58444023D01*
X98420664Y-59845000D01*
X98660450Y-59845000D01*
X98660450Y-58238859D01*
X98024166Y-58238859D01*
X97956838Y-58248060D01*
X97914255Y-58271977D01*
X97888944Y-58309598D01*
X97879636Y-58365895D01*
X97879636Y-58985234D01*
X97888042Y-59039151D01*
X97910772Y-59075481D01*
X97948329Y-59098990D01*
X97995366Y-59107970D01*
X98104125Y-59112271D01*
X97839702Y-59845000D01*
G37*
G36*
X97693248Y-59845000D02*
G01*
X97453463Y-59845000D01*
X97453463Y-59264678D01*
X97065116Y-59264678D01*
X96996725Y-59255423D01*
X96953587Y-59231420D01*
X96928036Y-59193789D01*
X96918662Y-59137642D01*
X96918662Y-59059515D01*
X97160463Y-59059515D01*
X97453463Y-59059515D01*
X97453463Y-58444023D01*
X97160463Y-58444023D01*
X97160463Y-59059515D01*
X96918662Y-59059515D01*
X96918662Y-58365895D01*
X96928036Y-58309748D01*
X96953587Y-58272117D01*
X96996725Y-58248114D01*
X97065116Y-58238859D01*
X97693248Y-58238859D01*
X97693248Y-59845000D01*
G37*
G36*
X95959063Y-59717963D02*
G01*
X95968439Y-59774103D01*
X95994002Y-59811734D01*
X96037166Y-59835741D01*
X96105608Y-59845000D01*
X96605604Y-59845000D01*
X96671770Y-59835857D01*
X96713746Y-59812037D01*
X96738792Y-59774426D01*
X96748028Y-59717963D01*
X96748028Y-58365895D01*
X96738792Y-58309432D01*
X96713746Y-58271821D01*
X96671770Y-58248001D01*
X96605604Y-58238859D01*
X96105608Y-58238859D01*
X96037166Y-58248117D01*
X95994002Y-58272124D01*
X95968439Y-58309755D01*
X95959063Y-58365895D01*
X95959063Y-58766423D01*
X96197841Y-58766423D01*
X96197841Y-58444023D01*
X96508243Y-58444023D01*
X96508243Y-59639836D01*
X96197841Y-59639836D01*
X96197841Y-59305711D01*
X95959063Y-59305711D01*
X95959063Y-59717963D01*
G37*
G36*
X95770568Y-59845000D02*
G01*
X95130163Y-59845000D01*
X95061721Y-59835741D01*
X95018557Y-59811734D01*
X94992995Y-59774103D01*
X94983618Y-59717963D01*
X94983618Y-59228225D01*
X94988747Y-59184903D01*
X95224411Y-59184903D01*
X95224411Y-59645697D01*
X95530783Y-59645697D01*
X95530783Y-59106409D01*
X95342288Y-59106409D01*
X95224411Y-59184903D01*
X94988747Y-59184903D01*
X94990187Y-59172736D01*
X95008711Y-59128013D01*
X95038939Y-59091571D01*
X95168082Y-59006758D01*
X95043060Y-58925334D01*
X95015272Y-58891208D01*
X94998036Y-58848360D01*
X94995963Y-58830170D01*
X95230639Y-58830170D01*
X95346410Y-58912969D01*
X95530783Y-58912969D01*
X95530783Y-58438161D01*
X95230639Y-58438161D01*
X95230639Y-58830170D01*
X94995963Y-58830170D01*
X94991861Y-58794175D01*
X94991861Y-58365895D01*
X95001097Y-58309432D01*
X95026144Y-58271821D01*
X95068119Y-58248001D01*
X95134285Y-58238859D01*
X95770568Y-58238859D01*
X95770568Y-59845000D01*
G37*
X99645364Y-69469819D02*
X100216792Y-69469819D01*
X99931078Y-69469819D02*
X99931078Y-68469819D01*
X99931078Y-68469819D02*
X100026316Y-68612676D01*
X100026316Y-68612676D02*
X100121554Y-68707914D01*
X100121554Y-68707914D02*
X100216792Y-68755533D01*
X99359649Y-68469819D02*
X99026316Y-69469819D01*
X99026316Y-69469819D02*
X98692983Y-68469819D01*
X98216792Y-68898390D02*
X98312030Y-68850771D01*
X98312030Y-68850771D02*
X98359649Y-68803152D01*
X98359649Y-68803152D02*
X98407268Y-68707914D01*
X98407268Y-68707914D02*
X98407268Y-68660295D01*
X98407268Y-68660295D02*
X98359649Y-68565057D01*
X98359649Y-68565057D02*
X98312030Y-68517438D01*
X98312030Y-68517438D02*
X98216792Y-68469819D01*
X98216792Y-68469819D02*
X98026316Y-68469819D01*
X98026316Y-68469819D02*
X97931078Y-68517438D01*
X97931078Y-68517438D02*
X97883459Y-68565057D01*
X97883459Y-68565057D02*
X97835840Y-68660295D01*
X97835840Y-68660295D02*
X97835840Y-68707914D01*
X97835840Y-68707914D02*
X97883459Y-68803152D01*
X97883459Y-68803152D02*
X97931078Y-68850771D01*
X97931078Y-68850771D02*
X98026316Y-68898390D01*
X98026316Y-68898390D02*
X98216792Y-68898390D01*
X98216792Y-68898390D02*
X98312030Y-68946009D01*
X98312030Y-68946009D02*
X98359649Y-68993628D01*
X98359649Y-68993628D02*
X98407268Y-69088866D01*
X98407268Y-69088866D02*
X98407268Y-69279342D01*
X98407268Y-69279342D02*
X98359649Y-69374580D01*
X98359649Y-69374580D02*
X98312030Y-69422200D01*
X98312030Y-69422200D02*
X98216792Y-69469819D01*
X98216792Y-69469819D02*
X98026316Y-69469819D01*
X98026316Y-69469819D02*
X97931078Y-69422200D01*
X97931078Y-69422200D02*
X97883459Y-69374580D01*
X97883459Y-69374580D02*
X97835840Y-69279342D01*
X97835840Y-69279342D02*
X97835840Y-69088866D01*
X97835840Y-69088866D02*
X97883459Y-68993628D01*
X97883459Y-68993628D02*
X97931078Y-68946009D01*
X97931078Y-68946009D02*
X98026316Y-68898390D01*
X95288221Y-68517438D02*
X95383459Y-68469819D01*
X95383459Y-68469819D02*
X95526316Y-68469819D01*
X95526316Y-68469819D02*
X95669173Y-68517438D01*
X95669173Y-68517438D02*
X95764411Y-68612676D01*
X95764411Y-68612676D02*
X95812030Y-68707914D01*
X95812030Y-68707914D02*
X95859649Y-68898390D01*
X95859649Y-68898390D02*
X95859649Y-69041247D01*
X95859649Y-69041247D02*
X95812030Y-69231723D01*
X95812030Y-69231723D02*
X95764411Y-69326961D01*
X95764411Y-69326961D02*
X95669173Y-69422200D01*
X95669173Y-69422200D02*
X95526316Y-69469819D01*
X95526316Y-69469819D02*
X95431078Y-69469819D01*
X95431078Y-69469819D02*
X95288221Y-69422200D01*
X95288221Y-69422200D02*
X95240602Y-69374580D01*
X95240602Y-69374580D02*
X95240602Y-69041247D01*
X95240602Y-69041247D02*
X95431078Y-69041247D01*
X94812030Y-69469819D02*
X94812030Y-68469819D01*
X94812030Y-68469819D02*
X94240602Y-69469819D01*
X94240602Y-69469819D02*
X94240602Y-68469819D01*
X93764411Y-69469819D02*
X93764411Y-68469819D01*
X93764411Y-68469819D02*
X93526316Y-68469819D01*
X93526316Y-68469819D02*
X93383459Y-68517438D01*
X93383459Y-68517438D02*
X93288221Y-68612676D01*
X93288221Y-68612676D02*
X93240602Y-68707914D01*
X93240602Y-68707914D02*
X93192983Y-68898390D01*
X93192983Y-68898390D02*
X93192983Y-69041247D01*
X93192983Y-69041247D02*
X93240602Y-69231723D01*
X93240602Y-69231723D02*
X93288221Y-69326961D01*
X93288221Y-69326961D02*
X93383459Y-69422200D01*
X93383459Y-69422200D02*
X93526316Y-69469819D01*
X93526316Y-69469819D02*
X93764411Y-69469819D01*
D11*
%TO.C,TP3*%
X99700000Y-67250000D02*
G75*
G02*
X98300000Y-67250000I-700000J0D01*
G01*
X98300000Y-67250000D02*
G75*
G02*
X99700000Y-67250000I700000J0D01*
G01*
%TO.C,TP4*%
X95200000Y-67250000D02*
G75*
G02*
X93800000Y-67250000I-700000J0D01*
G01*
X93800000Y-67250000D02*
G75*
G02*
X95200000Y-67250000I700000J0D01*
G01*
%TD*%
M02*
