%TF.GenerationSoftware,KiCad,Pcbnew,9.0.7*%
%TF.CreationDate,2026-07-29T13:06:59-07:00*%
%TF.ProjectId,HR_Sp02_Sensor,48525f53-7030-4325-9f53-656e736f722e,rev?*%
%TF.SameCoordinates,Original*%
%TF.FileFunction,Copper,L1,Top*%
%TF.FilePolarity,Positive*%
%FSLAX46Y46*%
G04 Gerber Fmt 4.6, Leading zero omitted, Abs format (unit mm)*
G04 Created by KiCad (PCBNEW 9.0.7) date 2026-07-29 13:06:59*
%MOMM*%
%LPD*%
G01*
G04 APERTURE LIST*
G04 Aperture macros list*
%AMRoundRect*
0 Rectangle with rounded corners*
0 $1 Rounding radius*
0 $2 $3 $4 $5 $6 $7 $8 $9 X,Y pos of 4 corners*
0 Add a 4 corners polygon primitive as box body*
4,1,4,$2,$3,$4,$5,$6,$7,$8,$9,$2,$3,0*
0 Add four circle primitives for the rounded corners*
1,1,$1+$1,$2,$3*
1,1,$1+$1,$4,$5*
1,1,$1+$1,$6,$7*
1,1,$1+$1,$8,$9*
0 Add four rect primitives between the rounded corners*
20,1,$1+$1,$2,$3,$4,$5,0*
20,1,$1+$1,$4,$5,$6,$7,0*
20,1,$1+$1,$6,$7,$8,$9,0*
20,1,$1+$1,$8,$9,$2,$3,0*%
G04 Aperture macros list end*
%TA.AperFunction,SMDPad,CuDef*%
%ADD10C,0.304800*%
%TD*%
%TA.AperFunction,SMDPad,CuDef*%
%ADD11RoundRect,0.250000X0.475000X-0.250000X0.475000X0.250000X-0.475000X0.250000X-0.475000X-0.250000X0*%
%TD*%
%TA.AperFunction,SMDPad,CuDef*%
%ADD12RoundRect,0.250000X-0.475000X0.250000X-0.475000X-0.250000X0.475000X-0.250000X0.475000X0.250000X0*%
%TD*%
%TA.AperFunction,ComponentPad*%
%ADD13R,1.700000X1.700000*%
%TD*%
%TA.AperFunction,ComponentPad*%
%ADD14C,1.700000*%
%TD*%
%TA.AperFunction,SMDPad,CuDef*%
%ADD15R,1.900000X0.400000*%
%TD*%
%TA.AperFunction,SMDPad,CuDef*%
%ADD16R,0.600000X0.500000*%
%TD*%
%TA.AperFunction,SMDPad,CuDef*%
%ADD17R,1.050000X0.850000*%
%TD*%
%TA.AperFunction,SMDPad,CuDef*%
%ADD18R,0.450000X0.350000*%
%TD*%
%TA.AperFunction,SMDPad,CuDef*%
%ADD19R,0.500000X0.780000*%
%TD*%
%TA.AperFunction,SMDPad,CuDef*%
%ADD20R,0.480000X0.350000*%
%TD*%
%TA.AperFunction,SMDPad,CuDef*%
%ADD21R,0.580000X0.850000*%
%TD*%
%TA.AperFunction,SMDPad,CuDef*%
%ADD22RoundRect,0.250000X-0.250000X-0.475000X0.250000X-0.475000X0.250000X0.475000X-0.250000X0.475000X0*%
%TD*%
%TA.AperFunction,SMDPad,CuDef*%
%ADD23C,1.000000*%
%TD*%
%TA.AperFunction,SMDPad,CuDef*%
%ADD24R,1.200000X0.600000*%
%TD*%
%TA.AperFunction,ViaPad*%
%ADD25C,0.700000*%
%TD*%
%TA.AperFunction,Conductor*%
%ADD26C,0.200000*%
%TD*%
%TA.AperFunction,Conductor*%
%ADD27C,0.400000*%
%TD*%
G04 APERTURE END LIST*
D10*
%TO.P,U1,D5,PD1_IN*%
%TO.N,/PD1*%
X97250000Y-60600000D03*
%TO.P,U1,D4,PD2_IN*%
%TO.N,/PD2*%
X96850000Y-60600000D03*
%TO.P,U1,D3,PGND*%
%TO.N,GND*%
X96450000Y-60600000D03*
%TO.P,U1,D2,VDD_ANA*%
%TO.N,+1V8*%
X96050000Y-60600000D03*
%TO.P,U1,D1,LED1_DRV*%
%TO.N,/K_RED*%
X95650000Y-60600000D03*
%TO.P,U1,C5,PD_GND*%
%TO.N,GND*%
X97250000Y-60200000D03*
%TO.P,U1,C4,GND_ANA*%
X96850000Y-60200000D03*
%TO.P,U1,C3,GND_DIG*%
X96450000Y-60200000D03*
%TO.P,U1,C2,VDD_DIG*%
%TO.N,+1V8*%
X96050000Y-60200000D03*
%TO.P,U1,C1,LED2_DRV*%
%TO.N,/K_IR*%
X95650000Y-60200000D03*
%TO.P,U1,B5,VREF*%
%TO.N,/VREF*%
X97250000Y-59800000D03*
%TO.P,U1,B4,GPIO2*%
%TO.N,unconnected-(U1-GPIO2-PadB4)*%
X96850000Y-59800000D03*
%TO.P,U1,B3,GPIO1*%
%TO.N,unconnected-(U1-GPIO1-PadB3)*%
X96450000Y-59800000D03*
%TO.P,U1,B2,\u002AINT*%
%TO.N,unconnected-(U1-\u002AINT-PadB2)*%
X96050000Y-59800000D03*
%TO.P,U1,B1,LED3_DRV*%
%TO.N,/K_GRN*%
X95650000Y-59800000D03*
%TO.P,U1,A5,CSB*%
%TO.N,CSB*%
X97250000Y-59400000D03*
%TO.P,U1,A4,SDI*%
%TO.N,SDI*%
X96850000Y-59400000D03*
%TO.P,U1,A3,SDO*%
%TO.N,SDO*%
X96450000Y-59400000D03*
%TO.P,U1,A2,SCLK*%
%TO.N,SCLK*%
X96050000Y-59400000D03*
%TO.P,U1,A1,VLED*%
%TO.N,+3V3*%
X95650000Y-59400000D03*
%TD*%
D11*
%TO.P,C2,2*%
%TO.N,+1V8*%
X99605000Y-69555000D03*
%TO.P,C2,1*%
%TO.N,GND*%
X99605000Y-71455000D03*
%TD*%
D12*
%TO.P,C1,1*%
%TO.N,+3V3*%
X92493000Y-69555000D03*
%TO.P,C1,2*%
%TO.N,GND*%
X92493000Y-71455000D03*
%TD*%
D13*
%TO.P,J1,1,Pin_1*%
%TO.N,CSB*%
X86750000Y-48595000D03*
D14*
%TO.P,J1,2,Pin_2*%
%TO.N,SDI*%
X86750000Y-51135000D03*
%TO.P,J1,3,Pin_3*%
%TO.N,SDO*%
X86750000Y-53675000D03*
%TO.P,J1,4,Pin_4*%
%TO.N,SCLK*%
X86750000Y-56215000D03*
%TO.P,J1,5,Pin_5*%
%TO.N,unconnected-(J1-Pin_5-Pad5)*%
X86750000Y-58755000D03*
%TO.P,J1,6,Pin_6*%
%TO.N,unconnected-(J1-Pin_6-Pad6)*%
X86750000Y-61295000D03*
%TO.P,J1,7,Pin_7*%
%TO.N,unconnected-(J1-Pin_7-Pad7)*%
X86750000Y-63835000D03*
%TO.P,J1,8,Pin_8*%
%TO.N,unconnected-(J1-Pin_8-Pad8)*%
X86750000Y-66375000D03*
%TO.P,J1,9,Pin_9*%
%TO.N,GND*%
X86750000Y-68915000D03*
%TO.P,J1,10,Pin_10*%
%TO.N,+3V3*%
X86750000Y-71455000D03*
%TD*%
D15*
%TO.P,D1,2,A*%
%TO.N,GND*%
X103854000Y-54857000D03*
%TO.P,D1,1,K*%
%TO.N,/PD1*%
X103854000Y-56257000D03*
%TD*%
D16*
%TO.P,LED1,10,ANODE_IR_&_RED_3*%
%TO.N,unconnected-(LED1-ANODE_IR_&_RED_3-Pad10)*%
X102604000Y-60000000D03*
%TO.P,LED1,9,K_GREEN_3*%
%TO.N,unconnected-(LED1-K_GREEN_3-Pad9)*%
X105204000Y-60000000D03*
D17*
%TO.P,LED1,8,K_GREEN_3*%
%TO.N,unconnected-(LED1-K_GREEN_3-Pad8)*%
X104379000Y-60000000D03*
D18*
%TO.P,LED1,7,K_GREEN_2*%
%TO.N,unconnected-(LED1-K_GREEN_2-Pad7)*%
X104754000Y-59100000D03*
D19*
%TO.P,LED1,6,A_GREEN*%
%TO.N,+3V3*%
X103904000Y-58790000D03*
D20*
%TO.P,LED1,5,K_RED*%
%TO.N,/K_RED*%
X103089000Y-59100000D03*
D21*
%TO.P,LED1,4,ANODE_IR_&_RED_2*%
%TO.N,unconnected-(LED1-ANODE_IR_&_RED_2-Pad4)*%
X103194000Y-60000000D03*
D20*
%TO.P,LED1,3,K_IR*%
%TO.N,/K_IR*%
X103089000Y-60900000D03*
D19*
%TO.P,LED1,2,ANODE_IR_&_RED_1*%
%TO.N,+3V3*%
X103904000Y-61210000D03*
D18*
%TO.P,LED1,1,K_GREEN_1*%
%TO.N,/K_GRN*%
X104754000Y-60900000D03*
%TD*%
D15*
%TO.P,D2,1,K*%
%TO.N,/PD2*%
X103854000Y-63697000D03*
%TO.P,D2,2,A*%
%TO.N,GND*%
X103854000Y-65097000D03*
%TD*%
D11*
%TO.P,C4,1*%
%TO.N,GND*%
X92747000Y-64900000D03*
%TO.P,C4,2*%
%TO.N,+1V8*%
X92747000Y-63000000D03*
%TD*%
%TO.P,C6,1*%
%TO.N,GND*%
X96049000Y-64900000D03*
%TO.P,C6,2*%
%TO.N,+1V8*%
X96049000Y-63000000D03*
%TD*%
D12*
%TO.P,C5,1*%
%TO.N,GND*%
X98200000Y-53700000D03*
%TO.P,C5,2*%
%TO.N,/VREF*%
X98200000Y-55600000D03*
%TD*%
D22*
%TO.P,C3,1*%
%TO.N,GND*%
X91300000Y-58200000D03*
%TO.P,C3,2*%
%TO.N,+3V3*%
X93200000Y-58200000D03*
%TD*%
D23*
%TO.P,REF\u002A\u002A,*%
%TO.N,*%
X111000000Y-71000000D03*
%TD*%
D24*
%TO.P,IC1,1,IN*%
%TO.N,+3V3*%
X94799000Y-69555000D03*
%TO.P,IC1,2,GND*%
%TO.N,GND*%
X94799000Y-70505000D03*
%TO.P,IC1,3,EN*%
%TO.N,+3V3*%
X94799000Y-71455000D03*
%TO.P,IC1,4,N/C*%
%TO.N,unconnected-(IC1-N{slash}C-Pad4)*%
X97299000Y-71455000D03*
%TO.P,IC1,5,OUT*%
%TO.N,+1V8*%
X97299000Y-69555000D03*
%TD*%
D23*
%TO.P,REF\u002A\u002A,*%
%TO.N,*%
X111000000Y-49000000D03*
%TD*%
%TO.P,REF\u002A\u002A,*%
%TO.N,*%
X93000000Y-49000000D03*
%TD*%
D25*
%TO.N,GND*%
X99102789Y-60783551D03*
%TO.N,+1V8*%
X99000000Y-65500000D03*
%TO.N,GND*%
X98200000Y-52250000D03*
X89300000Y-57500000D03*
X96049000Y-72800000D03*
X92500000Y-72800000D03*
X99605000Y-72800000D03*
X96049000Y-66300000D03*
X92747000Y-66300000D03*
%TO.N,/K_GRN*%
X106000000Y-60900000D03*
%TO.N,GND*%
X97400000Y-61800000D03*
X96450000Y-61800000D03*
%TO.N,/K_RED*%
X94400000Y-61000000D03*
%TO.N,/K_GRN*%
X94400000Y-59400000D03*
%TO.N,/K_IR*%
X93600000Y-60200000D03*
%TO.N,/K_RED*%
X102600000Y-58200000D03*
%TO.N,/K_IR*%
X102600000Y-62000000D03*
%TD*%
D26*
%TO.N,GND*%
X99102790Y-60783550D02*
X99102789Y-60783551D01*
X99102790Y-60431410D02*
X99102790Y-60783550D01*
X99102790Y-60783552D02*
X99102789Y-60783551D01*
X99102790Y-61135690D02*
X99102790Y-60783552D01*
D27*
X90000000Y-58200000D02*
X89300000Y-57500000D01*
D26*
X99102790Y-61135690D02*
X101263100Y-63296000D01*
X102542100Y-56992100D02*
X99102790Y-60431410D01*
X101263100Y-63296000D02*
X102304000Y-63296000D01*
D27*
X98200000Y-53700000D02*
X98200000Y-52250000D01*
X91300000Y-58200000D02*
X90000000Y-58200000D01*
D26*
%TO.N,+1V8*%
X95799000Y-62750000D02*
X96049000Y-63000000D01*
X96050000Y-60950000D02*
X95799000Y-61201000D01*
X95799000Y-61201000D02*
X95799000Y-62750000D01*
X96050000Y-60600000D02*
X96050000Y-60950000D01*
X96050000Y-60200000D02*
X96050000Y-60600000D01*
D27*
%TO.N,GND*%
X99605000Y-72800000D02*
X99605000Y-71455000D01*
X96049000Y-70755000D02*
X96049000Y-72800000D01*
X95799000Y-70505000D02*
X96049000Y-70755000D01*
X94799000Y-70505000D02*
X95799000Y-70505000D01*
X92493000Y-72793000D02*
X92500000Y-72800000D01*
X92493000Y-71455000D02*
X92493000Y-72793000D01*
X96049000Y-64900000D02*
X96049000Y-66300000D01*
X92747000Y-64900000D02*
X92747000Y-66300000D01*
D26*
%TO.N,/K_GRN*%
X104754000Y-60900000D02*
X106000000Y-60900000D01*
%TO.N,GND*%
X98800000Y-59600000D02*
X102350000Y-56050000D01*
X100932900Y-64100000D02*
X102300000Y-64100000D01*
X98516450Y-61683550D02*
X100932900Y-64100000D01*
X98235900Y-61403000D02*
X98516450Y-61683550D01*
X97797000Y-61403000D02*
X98235900Y-61403000D01*
X97400000Y-61800000D02*
X97797000Y-61403000D01*
X96450000Y-60600000D02*
X96450000Y-61800000D01*
X96450000Y-60200000D02*
X96450000Y-60600000D01*
X96850000Y-60200000D02*
X96450000Y-60200000D01*
%TO.N,/PD2*%
X101097000Y-63697000D02*
X103854000Y-63697000D01*
X97036474Y-61002000D02*
X98402000Y-61002000D01*
X96850000Y-60815526D02*
X97036474Y-61002000D01*
X98402000Y-61002000D02*
X101097000Y-63697000D01*
X96850000Y-60600000D02*
X96850000Y-60815526D01*
%TO.N,/PD1*%
X102710100Y-56257000D02*
X103854000Y-56257000D01*
X98366100Y-60601000D02*
X102710100Y-56257000D01*
X97251000Y-60601000D02*
X98366100Y-60601000D01*
X97250000Y-60600000D02*
X97251000Y-60601000D01*
%TO.N,+3V3*%
X94450000Y-58200000D02*
X93200000Y-58200000D01*
%TO.N,/VREF*%
X98200000Y-59600000D02*
X98200000Y-55600000D01*
X98000000Y-59800000D02*
X98200000Y-59600000D01*
X97250000Y-59800000D02*
X98000000Y-59800000D01*
%TO.N,CSB*%
X87145141Y-48595000D02*
X97250000Y-58699859D01*
X97250000Y-58699859D02*
X97250000Y-59400000D01*
X86750000Y-48595000D02*
X87145141Y-48595000D01*
%TO.N,SDI*%
X96850000Y-58866959D02*
X96850000Y-59400000D01*
X89118041Y-51135000D02*
X96850000Y-58866959D01*
X86750000Y-51135000D02*
X89118041Y-51135000D01*
%TO.N,SDO*%
X96450000Y-59034059D02*
X96450000Y-59400000D01*
X86750000Y-53675000D02*
X91090941Y-53675000D01*
X91090941Y-53675000D02*
X96450000Y-59034059D01*
%TO.N,SCLK*%
X96050000Y-59201159D02*
X96050000Y-59400000D01*
X93063841Y-56215000D02*
X96050000Y-59201159D01*
X86750000Y-56215000D02*
X93063841Y-56215000D01*
%TO.N,+3V3*%
X94450000Y-58200000D02*
X95650000Y-59400000D01*
%TO.N,/K_RED*%
X94800000Y-60600000D02*
X94400000Y-61000000D01*
X95650000Y-60600000D02*
X94800000Y-60600000D01*
%TO.N,/K_GRN*%
X94800000Y-59800000D02*
X94400000Y-59400000D01*
X95650000Y-59800000D02*
X94800000Y-59800000D01*
%TO.N,/K_IR*%
X95650000Y-60200000D02*
X93600000Y-60200000D01*
%TO.N,/K_RED*%
X103089000Y-58689000D02*
X102600000Y-58200000D01*
X103089000Y-59100000D02*
X103089000Y-58689000D01*
%TO.N,/K_IR*%
X103089000Y-61511000D02*
X102600000Y-62000000D01*
X103089000Y-60900000D02*
X103089000Y-61511000D01*
%TO.N,GND*%
X97250000Y-60200000D02*
X98200000Y-60200000D01*
X98200000Y-60200000D02*
X98800000Y-59600000D01*
%TD*%
%TA.AperFunction,Conductor*%
%TO.N,+3V3*%
G36*
X113504853Y-45300881D02*
G01*
X113677919Y-45314502D01*
X113697128Y-45317545D01*
X113861183Y-45356931D01*
X113879675Y-45362940D01*
X114005347Y-45414994D01*
X114035547Y-45427504D01*
X114052884Y-45436338D01*
X114196725Y-45524484D01*
X114212466Y-45535920D01*
X114340753Y-45645486D01*
X114354513Y-45659246D01*
X114464079Y-45787533D01*
X114475515Y-45803274D01*
X114563661Y-45947115D01*
X114572495Y-45964452D01*
X114637057Y-46120317D01*
X114643070Y-46138823D01*
X114682453Y-46302866D01*
X114685497Y-46322084D01*
X114699118Y-46495146D01*
X114699500Y-46504875D01*
X114699500Y-73495124D01*
X114699118Y-73504853D01*
X114685497Y-73677915D01*
X114682453Y-73697133D01*
X114643070Y-73861176D01*
X114637057Y-73879682D01*
X114572495Y-74035547D01*
X114563661Y-74052884D01*
X114475515Y-74196725D01*
X114464079Y-74212466D01*
X114354513Y-74340753D01*
X114340753Y-74354513D01*
X114212466Y-74464079D01*
X114196725Y-74475515D01*
X114052884Y-74563661D01*
X114035547Y-74572495D01*
X113879682Y-74637057D01*
X113861176Y-74643070D01*
X113697133Y-74682453D01*
X113677915Y-74685497D01*
X113504854Y-74699118D01*
X113495125Y-74699500D01*
X86504875Y-74699500D01*
X86495146Y-74699118D01*
X86322084Y-74685497D01*
X86302866Y-74682453D01*
X86138823Y-74643070D01*
X86120317Y-74637057D01*
X85964452Y-74572495D01*
X85947115Y-74563661D01*
X85803274Y-74475515D01*
X85787533Y-74464079D01*
X85659246Y-74354513D01*
X85645486Y-74340753D01*
X85535920Y-74212466D01*
X85524484Y-74196725D01*
X85436338Y-74052884D01*
X85427504Y-74035547D01*
X85414994Y-74005347D01*
X85362940Y-73879675D01*
X85356931Y-73861183D01*
X85317545Y-73697128D01*
X85314502Y-73677915D01*
X85300882Y-73504853D01*
X85300500Y-73495124D01*
X85300500Y-72100323D01*
X85320185Y-72033284D01*
X85372989Y-71987529D01*
X85442147Y-71977585D01*
X85505703Y-72006610D01*
X85534985Y-72044028D01*
X85595375Y-72162550D01*
X85634728Y-72216716D01*
X86267037Y-71584408D01*
X86284075Y-71647993D01*
X86349901Y-71762007D01*
X86442993Y-71855099D01*
X86557007Y-71920925D01*
X86620590Y-71937962D01*
X85988282Y-72570269D01*
X85988282Y-72570270D01*
X86042449Y-72609624D01*
X86231782Y-72706095D01*
X86433870Y-72771757D01*
X86643754Y-72805000D01*
X86856246Y-72805000D01*
X87066127Y-72771757D01*
X87066130Y-72771757D01*
X87268217Y-72706095D01*
X87457554Y-72609622D01*
X87511716Y-72570270D01*
X87511717Y-72570270D01*
X86879408Y-71937962D01*
X86942993Y-71920925D01*
X87057007Y-71855099D01*
X87150099Y-71762007D01*
X87215925Y-71647993D01*
X87232962Y-71584408D01*
X87865270Y-72216717D01*
X87865270Y-72216716D01*
X87904622Y-72162554D01*
X88001095Y-71973217D01*
X88066757Y-71771130D01*
X88066757Y-71771127D01*
X88100000Y-71561246D01*
X88100000Y-71348753D01*
X88066757Y-71138872D01*
X88066757Y-71138869D01*
X88001095Y-70936782D01*
X87904624Y-70747449D01*
X87865270Y-70693282D01*
X87865269Y-70693282D01*
X87232962Y-71325590D01*
X87215925Y-71262007D01*
X87150099Y-71147993D01*
X87057007Y-71054901D01*
X86942993Y-70989075D01*
X86879409Y-70972037D01*
X87511716Y-70339728D01*
X87457550Y-70300375D01*
X87268216Y-70203904D01*
X87092026Y-70146656D01*
X87034350Y-70107218D01*
X87007152Y-70042860D01*
X87019067Y-69974013D01*
X87066311Y-69922538D01*
X87082882Y-69914168D01*
X87225761Y-69854986D01*
X91268001Y-69854986D01*
X91278494Y-69957697D01*
X91333641Y-70124119D01*
X91333643Y-70124124D01*
X91425684Y-70273345D01*
X91549654Y-70397315D01*
X91698875Y-70489356D01*
X91698882Y-70489359D01*
X91867081Y-70545094D01*
X91924526Y-70584866D01*
X91951350Y-70649382D01*
X91939035Y-70718158D01*
X91891493Y-70769358D01*
X91869035Y-70779841D01*
X91827422Y-70794402D01*
X91805118Y-70802207D01*
X91805117Y-70802207D01*
X91805116Y-70802208D01*
X91695850Y-70882850D01*
X91615207Y-70992117D01*
X91615206Y-70992119D01*
X91570353Y-71120298D01*
X91570353Y-71120300D01*
X91567500Y-71150730D01*
X91567500Y-71759269D01*
X91570353Y-71789699D01*
X91570353Y-71789701D01*
X91608793Y-71899552D01*
X91615207Y-71917882D01*
X91695850Y-72027150D01*
X91805118Y-72107793D01*
X91847845Y-72122744D01*
X91933299Y-72152646D01*
X91963730Y-72155500D01*
X91963734Y-72155500D01*
X91968500Y-72155500D01*
X91977185Y-72158050D01*
X91986147Y-72156762D01*
X92010187Y-72167740D01*
X92035539Y-72175185D01*
X92041466Y-72182025D01*
X92049703Y-72185787D01*
X92063992Y-72208021D01*
X92081294Y-72227989D01*
X92083581Y-72238503D01*
X92087477Y-72244565D01*
X92092500Y-72279500D01*
X92092500Y-72377614D01*
X92072815Y-72444653D01*
X92064193Y-72455351D01*
X92064438Y-72455539D01*
X92059488Y-72461988D01*
X91987017Y-72587511D01*
X91987016Y-72587515D01*
X91949500Y-72727525D01*
X91949500Y-72872475D01*
X91987016Y-73012485D01*
X91987017Y-73012488D01*
X92059488Y-73138011D01*
X92059490Y-73138013D01*
X92059491Y-73138015D01*
X92161985Y-73240509D01*
X92161986Y-73240510D01*
X92161988Y-73240511D01*
X92287511Y-73312982D01*
X92287512Y-73312982D01*
X92287515Y-73312984D01*
X92427525Y-73350500D01*
X92427528Y-73350500D01*
X92572472Y-73350500D01*
X92572475Y-73350500D01*
X92712485Y-73312984D01*
X92838015Y-73240509D01*
X92940509Y-73138015D01*
X93012984Y-73012485D01*
X93050500Y-72872475D01*
X93050500Y-72727525D01*
X93012984Y-72587515D01*
X92997727Y-72561090D01*
X92940511Y-72461988D01*
X92940506Y-72461982D01*
X92929819Y-72451295D01*
X92915115Y-72424367D01*
X92898523Y-72398549D01*
X92897631Y-72392348D01*
X92896334Y-72389972D01*
X92893500Y-72363614D01*
X92893500Y-72279500D01*
X92913185Y-72212461D01*
X92965989Y-72166706D01*
X93017500Y-72155500D01*
X93022270Y-72155500D01*
X93052699Y-72152646D01*
X93052701Y-72152646D01*
X93116790Y-72130219D01*
X93180882Y-72107793D01*
X93290150Y-72027150D01*
X93370793Y-71917882D01*
X93400414Y-71833229D01*
X93411047Y-71802844D01*
X93699000Y-71802844D01*
X93705401Y-71862372D01*
X93705403Y-71862379D01*
X93755645Y-71997086D01*
X93755649Y-71997093D01*
X93841809Y-72112187D01*
X93841812Y-72112190D01*
X93956906Y-72198350D01*
X93956913Y-72198354D01*
X94091620Y-72248596D01*
X94091627Y-72248598D01*
X94151155Y-72254999D01*
X94151172Y-72255000D01*
X94549000Y-72255000D01*
X94549000Y-71705000D01*
X93699000Y-71705000D01*
X93699000Y-71802844D01*
X93411047Y-71802844D01*
X93415646Y-71789701D01*
X93415646Y-71789699D01*
X93418500Y-71759269D01*
X93418500Y-71150730D01*
X93415646Y-71120300D01*
X93415646Y-71120298D01*
X93377207Y-71010448D01*
X93370793Y-70992118D01*
X93290150Y-70882850D01*
X93180882Y-70802207D01*
X93180880Y-70802206D01*
X93116967Y-70779842D01*
X93060191Y-70739120D01*
X93034444Y-70674168D01*
X93047901Y-70605606D01*
X93096288Y-70555203D01*
X93118918Y-70545095D01*
X93287119Y-70489358D01*
X93287124Y-70489356D01*
X93436345Y-70397315D01*
X93560317Y-70273343D01*
X93612524Y-70188702D01*
X93664472Y-70141977D01*
X93733434Y-70130754D01*
X93797516Y-70158597D01*
X93800012Y-70160737D01*
X93956449Y-70298495D01*
X93972580Y-70324042D01*
X93990682Y-70348223D01*
X93991815Y-70354504D01*
X93993753Y-70357573D01*
X93993694Y-70364918D01*
X93998500Y-70391556D01*
X93998500Y-70618443D01*
X93978815Y-70685482D01*
X93948812Y-70717709D01*
X93841809Y-70797812D01*
X93755649Y-70912906D01*
X93755645Y-70912913D01*
X93705403Y-71047620D01*
X93705401Y-71047627D01*
X93699000Y-71107155D01*
X93699000Y-71205000D01*
X94675000Y-71205000D01*
X94742039Y-71224685D01*
X94787794Y-71277489D01*
X94799000Y-71329000D01*
X94799000Y-71455000D01*
X94925000Y-71455000D01*
X94992039Y-71474685D01*
X95037794Y-71527489D01*
X95049000Y-71579000D01*
X95049000Y-72255000D01*
X95446828Y-72255000D01*
X95446842Y-72254999D01*
X95510402Y-72248165D01*
X95579162Y-72260569D01*
X95630300Y-72308179D01*
X95647580Y-72375878D01*
X95625516Y-72442173D01*
X95611345Y-72459130D01*
X95608496Y-72461979D01*
X95608488Y-72461988D01*
X95536017Y-72587511D01*
X95536016Y-72587515D01*
X95498500Y-72727525D01*
X95498500Y-72872475D01*
X95536016Y-73012485D01*
X95536017Y-73012488D01*
X95608488Y-73138011D01*
X95608490Y-73138013D01*
X95608491Y-73138015D01*
X95710985Y-73240509D01*
X95710986Y-73240510D01*
X95710988Y-73240511D01*
X95836511Y-73312982D01*
X95836512Y-73312982D01*
X95836515Y-73312984D01*
X95976525Y-73350500D01*
X95976528Y-73350500D01*
X96121472Y-73350500D01*
X96121475Y-73350500D01*
X96261485Y-73312984D01*
X96387015Y-73240509D01*
X96489509Y-73138015D01*
X96561984Y-73012485D01*
X96599500Y-72872475D01*
X96599500Y-72727525D01*
X96561984Y-72587515D01*
X96546727Y-72561090D01*
X96489511Y-72461988D01*
X96489506Y-72461982D01*
X96485819Y-72458295D01*
X96452334Y-72396972D01*
X96449500Y-72370614D01*
X96449500Y-72058504D01*
X96469185Y-71991465D01*
X96521989Y-71945710D01*
X96591147Y-71935766D01*
X96620432Y-71943800D01*
X96679247Y-71955499D01*
X96679250Y-71955500D01*
X96679252Y-71955500D01*
X97918750Y-71955500D01*
X97918751Y-71955499D01*
X97933568Y-71952552D01*
X97977229Y-71943868D01*
X97977229Y-71943867D01*
X97977231Y-71943867D01*
X98043552Y-71899552D01*
X98087867Y-71833231D01*
X98087867Y-71833229D01*
X98087868Y-71833229D01*
X98099499Y-71774752D01*
X98099500Y-71774750D01*
X98099500Y-71150730D01*
X98679500Y-71150730D01*
X98679500Y-71759269D01*
X98682353Y-71789699D01*
X98682353Y-71789701D01*
X98720793Y-71899552D01*
X98727207Y-71917882D01*
X98807850Y-72027150D01*
X98917118Y-72107793D01*
X98959845Y-72122744D01*
X99045299Y-72152646D01*
X99075730Y-72155500D01*
X99075734Y-72155500D01*
X99080500Y-72155500D01*
X99089185Y-72158050D01*
X99098147Y-72156762D01*
X99122187Y-72167740D01*
X99147539Y-72175185D01*
X99153466Y-72182025D01*
X99161703Y-72185787D01*
X99175992Y-72208021D01*
X99193294Y-72227989D01*
X99195581Y-72238503D01*
X99199477Y-72244565D01*
X99204500Y-72279500D01*
X99204500Y-72370614D01*
X99184815Y-72437653D01*
X99168181Y-72458295D01*
X99164493Y-72461982D01*
X99164488Y-72461988D01*
X99092017Y-72587511D01*
X99092016Y-72587515D01*
X99054500Y-72727525D01*
X99054500Y-72872475D01*
X99092016Y-73012485D01*
X99092017Y-73012488D01*
X99164488Y-73138011D01*
X99164490Y-73138013D01*
X99164491Y-73138015D01*
X99266985Y-73240509D01*
X99266986Y-73240510D01*
X99266988Y-73240511D01*
X99392511Y-73312982D01*
X99392512Y-73312982D01*
X99392515Y-73312984D01*
X99532525Y-73350500D01*
X99532528Y-73350500D01*
X99677472Y-73350500D01*
X99677475Y-73350500D01*
X99817485Y-73312984D01*
X99943015Y-73240509D01*
X100045509Y-73138015D01*
X100117984Y-73012485D01*
X100155500Y-72872475D01*
X100155500Y-72727525D01*
X100117984Y-72587515D01*
X100102727Y-72561090D01*
X100045511Y-72461988D01*
X100045506Y-72461982D01*
X100041819Y-72458295D01*
X100027115Y-72431367D01*
X100010523Y-72405549D01*
X100009631Y-72399348D01*
X100008334Y-72396972D01*
X100005500Y-72370614D01*
X100005500Y-72279500D01*
X100025185Y-72212461D01*
X100077989Y-72166706D01*
X100129500Y-72155500D01*
X100134270Y-72155500D01*
X100164699Y-72152646D01*
X100164701Y-72152646D01*
X100228790Y-72130219D01*
X100292882Y-72107793D01*
X100402150Y-72027150D01*
X100482793Y-71917882D01*
X100512414Y-71833229D01*
X100527646Y-71789701D01*
X100527646Y-71789699D01*
X100530500Y-71759269D01*
X100530500Y-71150730D01*
X100527646Y-71120300D01*
X100527646Y-71120298D01*
X100489207Y-71010448D01*
X100482793Y-70992118D01*
X100402150Y-70882850D01*
X100390210Y-70874038D01*
X109399500Y-70874038D01*
X109399500Y-71125962D01*
X109415136Y-71224685D01*
X109438910Y-71374785D01*
X109516760Y-71614383D01*
X109631132Y-71838848D01*
X109779201Y-72042649D01*
X109779205Y-72042654D01*
X109957345Y-72220794D01*
X109957350Y-72220798D01*
X110038147Y-72279500D01*
X110161155Y-72368870D01*
X110304184Y-72441747D01*
X110385616Y-72483239D01*
X110385618Y-72483239D01*
X110385621Y-72483241D01*
X110625215Y-72561090D01*
X110874038Y-72600500D01*
X110874039Y-72600500D01*
X111125961Y-72600500D01*
X111125962Y-72600500D01*
X111374785Y-72561090D01*
X111614379Y-72483241D01*
X111838845Y-72368870D01*
X112042656Y-72220793D01*
X112220793Y-72042656D01*
X112368870Y-71838845D01*
X112483241Y-71614379D01*
X112561090Y-71374785D01*
X112600500Y-71125962D01*
X112600500Y-70874038D01*
X112561090Y-70625215D01*
X112483241Y-70385621D01*
X112483239Y-70385618D01*
X112483239Y-70385616D01*
X112432605Y-70286242D01*
X112368870Y-70161155D01*
X112343208Y-70125834D01*
X112220798Y-69957350D01*
X112220794Y-69957345D01*
X112042654Y-69779205D01*
X112042649Y-69779201D01*
X111838848Y-69631132D01*
X111838847Y-69631131D01*
X111838845Y-69631130D01*
X111768747Y-69595413D01*
X111614383Y-69516760D01*
X111374785Y-69438910D01*
X111125962Y-69399500D01*
X110874038Y-69399500D01*
X110791354Y-69412596D01*
X110625214Y-69438910D01*
X110385616Y-69516760D01*
X110161151Y-69631132D01*
X109957350Y-69779201D01*
X109957345Y-69779205D01*
X109779205Y-69957345D01*
X109779201Y-69957350D01*
X109631132Y-70161151D01*
X109516760Y-70385616D01*
X109438910Y-70625214D01*
X109428129Y-70693282D01*
X109399500Y-70874038D01*
X100390210Y-70874038D01*
X100292882Y-70802207D01*
X100292880Y-70802206D01*
X100164700Y-70757353D01*
X100134270Y-70754500D01*
X100134266Y-70754500D01*
X99075734Y-70754500D01*
X99075730Y-70754500D01*
X99045300Y-70757353D01*
X99045298Y-70757353D01*
X98917119Y-70802206D01*
X98917114Y-70802209D01*
X98877220Y-70831651D01*
X98877218Y-70831654D01*
X98859602Y-70844655D01*
X98859601Y-70844654D01*
X98807850Y-70882849D01*
X98727207Y-70992117D01*
X98727206Y-70992119D01*
X98682353Y-71120298D01*
X98682353Y-71120300D01*
X98679500Y-71150730D01*
X98099500Y-71150730D01*
X98099500Y-71135249D01*
X98099499Y-71135247D01*
X98087868Y-71076770D01*
X98087867Y-71076769D01*
X98043552Y-71010447D01*
X97977230Y-70966132D01*
X97977229Y-70966131D01*
X97918752Y-70954500D01*
X97918748Y-70954500D01*
X96679252Y-70954500D01*
X96679247Y-70954500D01*
X96608790Y-70968515D01*
X96608565Y-70967388D01*
X96551480Y-70973524D01*
X96489002Y-70942248D01*
X96453351Y-70882158D01*
X96449500Y-70851495D01*
X96449500Y-70702275D01*
X96449500Y-70702273D01*
X96422207Y-70600413D01*
X96369480Y-70509087D01*
X96294913Y-70434520D01*
X96044913Y-70184520D01*
X95953588Y-70131793D01*
X95953587Y-70131792D01*
X95946549Y-70127729D01*
X95947642Y-70125834D01*
X95902164Y-70089185D01*
X95880100Y-70022891D01*
X95887841Y-69975127D01*
X95892597Y-69962375D01*
X95892598Y-69962372D01*
X95898999Y-69902844D01*
X95899000Y-69902827D01*
X95899000Y-69805000D01*
X91268001Y-69805000D01*
X91268001Y-69854986D01*
X87225761Y-69854986D01*
X87247598Y-69845941D01*
X87419655Y-69730977D01*
X87419658Y-69730974D01*
X87484676Y-69665957D01*
X87565974Y-69584658D01*
X87565975Y-69584657D01*
X87565977Y-69584655D01*
X87680941Y-69412598D01*
X87760130Y-69221420D01*
X87800500Y-69018465D01*
X87800500Y-68811535D01*
X87760130Y-68608580D01*
X87680941Y-68417402D01*
X87565977Y-68245345D01*
X87565975Y-68245342D01*
X87419657Y-68099024D01*
X87333626Y-68041541D01*
X87247598Y-67984059D01*
X87056420Y-67904870D01*
X87056412Y-67904868D01*
X86853469Y-67864500D01*
X86853465Y-67864500D01*
X86646535Y-67864500D01*
X86646530Y-67864500D01*
X86443587Y-67904868D01*
X86443579Y-67904870D01*
X86252403Y-67984058D01*
X86080342Y-68099024D01*
X85934024Y-68245342D01*
X85819058Y-68417403D01*
X85739870Y-68608579D01*
X85739868Y-68608587D01*
X85699500Y-68811530D01*
X85699500Y-69018469D01*
X85739868Y-69221412D01*
X85739870Y-69221420D01*
X85817040Y-69407725D01*
X85819059Y-69412598D01*
X85836640Y-69438910D01*
X85934024Y-69584657D01*
X86080342Y-69730975D01*
X86252405Y-69845943D01*
X86321957Y-69874752D01*
X86417108Y-69914164D01*
X86471511Y-69958005D01*
X86493576Y-70024299D01*
X86476297Y-70091998D01*
X86425160Y-70139609D01*
X86407974Y-70146656D01*
X86231781Y-70203905D01*
X86042439Y-70300380D01*
X85988282Y-70339727D01*
X85988282Y-70339728D01*
X86620591Y-70972037D01*
X86557007Y-70989075D01*
X86442993Y-71054901D01*
X86349901Y-71147993D01*
X86284075Y-71262007D01*
X86267037Y-71325591D01*
X85634728Y-70693282D01*
X85634727Y-70693282D01*
X85595380Y-70747440D01*
X85595378Y-70747443D01*
X85534984Y-70865972D01*
X85487010Y-70916767D01*
X85419189Y-70933562D01*
X85353054Y-70911024D01*
X85309603Y-70856309D01*
X85300500Y-70809676D01*
X85300500Y-66271530D01*
X85699500Y-66271530D01*
X85699500Y-66478469D01*
X85739868Y-66681412D01*
X85739870Y-66681420D01*
X85819058Y-66872596D01*
X85934024Y-67044657D01*
X86080342Y-67190975D01*
X86080345Y-67190977D01*
X86252402Y-67305941D01*
X86443580Y-67385130D01*
X86646530Y-67425499D01*
X86646534Y-67425500D01*
X86646535Y-67425500D01*
X86853466Y-67425500D01*
X86853467Y-67425499D01*
X87056420Y-67385130D01*
X87247598Y-67305941D01*
X87419655Y-67190977D01*
X87565977Y-67044655D01*
X87680941Y-66872598D01*
X87760130Y-66681420D01*
X87800500Y-66478465D01*
X87800500Y-66271535D01*
X87760130Y-66068580D01*
X87680941Y-65877402D01*
X87565977Y-65705345D01*
X87565975Y-65705342D01*
X87419657Y-65559024D01*
X87333626Y-65501541D01*
X87247598Y-65444059D01*
X87056420Y-65364870D01*
X87056412Y-65364868D01*
X86853469Y-65324500D01*
X86853465Y-65324500D01*
X86646535Y-65324500D01*
X86646530Y-65324500D01*
X86443587Y-65364868D01*
X86443579Y-65364870D01*
X86252403Y-65444058D01*
X86080342Y-65559024D01*
X85934024Y-65705342D01*
X85819058Y-65877403D01*
X85739870Y-66068579D01*
X85739868Y-66068587D01*
X85699500Y-66271530D01*
X85300500Y-66271530D01*
X85300500Y-63731530D01*
X85699500Y-63731530D01*
X85699500Y-63938469D01*
X85739868Y-64141412D01*
X85739870Y-64141420D01*
X85819058Y-64332596D01*
X85934024Y-64504657D01*
X86080342Y-64650975D01*
X86080345Y-64650977D01*
X86252402Y-64765941D01*
X86443580Y-64845130D01*
X86646530Y-64885499D01*
X86646534Y-64885500D01*
X86646535Y-64885500D01*
X86853466Y-64885500D01*
X86853467Y-64885499D01*
X87056420Y-64845130D01*
X87247598Y-64765941D01*
X87419655Y-64650977D01*
X87565977Y-64504655D01*
X87680941Y-64332598D01*
X87760130Y-64141420D01*
X87800500Y-63938465D01*
X87800500Y-63731535D01*
X87760130Y-63528580D01*
X87680941Y-63337402D01*
X87565977Y-63165345D01*
X87565975Y-63165342D01*
X87419657Y-63019024D01*
X87277430Y-62923992D01*
X87247598Y-62904059D01*
X87190270Y-62880313D01*
X87056420Y-62824870D01*
X87056412Y-62824868D01*
X86853469Y-62784500D01*
X86853465Y-62784500D01*
X86646535Y-62784500D01*
X86646530Y-62784500D01*
X86443587Y-62824868D01*
X86443579Y-62824870D01*
X86252403Y-62904058D01*
X86080342Y-63019024D01*
X85934024Y-63165342D01*
X85819058Y-63337403D01*
X85739870Y-63528579D01*
X85739868Y-63528587D01*
X85699500Y-63731530D01*
X85300500Y-63731530D01*
X85300500Y-61191530D01*
X85699500Y-61191530D01*
X85699500Y-61398469D01*
X85739868Y-61601412D01*
X85739870Y-61601420D01*
X85816953Y-61787515D01*
X85819059Y-61792598D01*
X85852126Y-61842086D01*
X85934024Y-61964657D01*
X86080342Y-62110975D01*
X86080345Y-62110977D01*
X86252402Y-62225941D01*
X86443580Y-62305130D01*
X86646530Y-62345499D01*
X86646534Y-62345500D01*
X86646535Y-62345500D01*
X86853466Y-62345500D01*
X86853467Y-62345499D01*
X87056420Y-62305130D01*
X87247598Y-62225941D01*
X87419655Y-62110977D01*
X87565977Y-61964655D01*
X87680941Y-61792598D01*
X87760130Y-61601420D01*
X87800500Y-61398465D01*
X87800500Y-61191535D01*
X87760130Y-60988580D01*
X87680941Y-60797402D01*
X87565977Y-60625345D01*
X87565975Y-60625342D01*
X87419657Y-60479024D01*
X87281956Y-60387016D01*
X87247598Y-60364059D01*
X87056420Y-60284870D01*
X87056412Y-60284868D01*
X86853469Y-60244500D01*
X86853465Y-60244500D01*
X86646535Y-60244500D01*
X86646530Y-60244500D01*
X86443587Y-60284868D01*
X86443579Y-60284870D01*
X86252403Y-60364058D01*
X86080342Y-60479024D01*
X85934024Y-60625342D01*
X85819058Y-60797403D01*
X85739870Y-60988579D01*
X85739868Y-60988587D01*
X85699500Y-61191530D01*
X85300500Y-61191530D01*
X85300500Y-58651530D01*
X85699500Y-58651530D01*
X85699500Y-58858469D01*
X85739868Y-59061412D01*
X85739870Y-59061420D01*
X85807786Y-59225384D01*
X85819059Y-59252598D01*
X85847223Y-59294748D01*
X85934024Y-59424657D01*
X86080342Y-59570975D01*
X86080345Y-59570977D01*
X86252402Y-59685941D01*
X86443580Y-59765130D01*
X86646530Y-59805499D01*
X86646534Y-59805500D01*
X86646535Y-59805500D01*
X86853466Y-59805500D01*
X86853467Y-59805499D01*
X87056420Y-59765130D01*
X87247598Y-59685941D01*
X87419655Y-59570977D01*
X87565977Y-59424655D01*
X87680941Y-59252598D01*
X87760130Y-59061420D01*
X87800500Y-58858465D01*
X87800500Y-58651535D01*
X87760130Y-58448580D01*
X87680941Y-58257402D01*
X87565977Y-58085345D01*
X87565975Y-58085342D01*
X87419657Y-57939024D01*
X87304363Y-57861988D01*
X87247598Y-57824059D01*
X87056420Y-57744870D01*
X87056412Y-57744868D01*
X86853469Y-57704500D01*
X86853465Y-57704500D01*
X86646535Y-57704500D01*
X86646530Y-57704500D01*
X86443587Y-57744868D01*
X86443579Y-57744870D01*
X86252403Y-57824058D01*
X86080342Y-57939024D01*
X85934024Y-58085342D01*
X85819058Y-58257403D01*
X85739870Y-58448579D01*
X85739868Y-58448587D01*
X85699500Y-58651530D01*
X85300500Y-58651530D01*
X85300500Y-57427525D01*
X88749500Y-57427525D01*
X88749500Y-57572475D01*
X88787016Y-57712485D01*
X88787017Y-57712488D01*
X88859488Y-57838011D01*
X88859490Y-57838013D01*
X88859491Y-57838015D01*
X88961985Y-57940509D01*
X88961986Y-57940510D01*
X88961988Y-57940511D01*
X89087511Y-58012982D01*
X89087512Y-58012982D01*
X89087515Y-58012984D01*
X89227525Y-58050500D01*
X89232745Y-58050500D01*
X89299784Y-58070185D01*
X89320426Y-58086819D01*
X89679519Y-58445912D01*
X89679520Y-58445913D01*
X89754087Y-58520480D01*
X89845413Y-58573207D01*
X89947273Y-58600500D01*
X90475500Y-58600500D01*
X90542539Y-58620185D01*
X90588294Y-58672989D01*
X90599500Y-58724500D01*
X90599500Y-58729269D01*
X90602353Y-58759699D01*
X90602353Y-58759701D01*
X90646904Y-58887016D01*
X90647207Y-58887882D01*
X90727850Y-58997150D01*
X90837118Y-59077793D01*
X90874150Y-59090751D01*
X90965299Y-59122646D01*
X90995730Y-59125500D01*
X90995734Y-59125500D01*
X91604270Y-59125500D01*
X91634699Y-59122646D01*
X91634701Y-59122646D01*
X91698790Y-59100219D01*
X91762882Y-59077793D01*
X91872150Y-58997150D01*
X91952793Y-58887882D01*
X91975158Y-58823964D01*
X92015877Y-58767192D01*
X92080830Y-58741444D01*
X92149392Y-58754900D01*
X92199795Y-58803287D01*
X92209904Y-58825917D01*
X92265642Y-58994121D01*
X92265643Y-58994124D01*
X92357684Y-59143345D01*
X92481654Y-59267315D01*
X92630875Y-59359356D01*
X92630880Y-59359358D01*
X92797302Y-59414505D01*
X92797309Y-59414506D01*
X92900019Y-59424999D01*
X92949999Y-59424998D01*
X92950000Y-59424998D01*
X92950000Y-56975000D01*
X92949999Y-56974999D01*
X92900029Y-56975000D01*
X92900011Y-56975001D01*
X92797302Y-56985494D01*
X92630880Y-57040641D01*
X92630875Y-57040643D01*
X92481654Y-57132684D01*
X92357684Y-57256654D01*
X92265643Y-57405875D01*
X92265641Y-57405880D01*
X92209905Y-57574082D01*
X92170132Y-57631527D01*
X92105617Y-57658350D01*
X92036841Y-57646035D01*
X91985641Y-57598492D01*
X91975158Y-57576033D01*
X91952793Y-57512119D01*
X91952792Y-57512117D01*
X91890362Y-57427527D01*
X91872150Y-57402850D01*
X91762882Y-57322207D01*
X91762880Y-57322206D01*
X91634700Y-57277353D01*
X91604270Y-57274500D01*
X91604266Y-57274500D01*
X90995734Y-57274500D01*
X90995730Y-57274500D01*
X90965300Y-57277353D01*
X90965298Y-57277353D01*
X90837119Y-57322206D01*
X90837117Y-57322207D01*
X90727850Y-57402850D01*
X90647207Y-57512117D01*
X90647206Y-57512119D01*
X90602353Y-57640298D01*
X90602353Y-57640300D01*
X90599500Y-57670730D01*
X90599500Y-57675500D01*
X90579815Y-57742539D01*
X90527011Y-57788294D01*
X90475500Y-57799500D01*
X90217255Y-57799500D01*
X90150216Y-57779815D01*
X90129574Y-57763181D01*
X89886819Y-57520426D01*
X89853334Y-57459103D01*
X89850500Y-57432745D01*
X89850500Y-57427527D01*
X89850500Y-57427525D01*
X89812984Y-57287515D01*
X89809082Y-57280757D01*
X89740511Y-57161988D01*
X89740506Y-57161982D01*
X89638017Y-57059493D01*
X89638011Y-57059488D01*
X89512488Y-56987017D01*
X89512489Y-56987017D01*
X89501006Y-56983940D01*
X89372475Y-56949500D01*
X89227525Y-56949500D01*
X89098993Y-56983940D01*
X89087511Y-56987017D01*
X88961988Y-57059488D01*
X88961982Y-57059493D01*
X88859493Y-57161982D01*
X88859488Y-57161988D01*
X88787017Y-57287511D01*
X88787016Y-57287515D01*
X88749500Y-57427525D01*
X85300500Y-57427525D01*
X85300500Y-47725247D01*
X85699500Y-47725247D01*
X85699500Y-49464752D01*
X85711131Y-49523229D01*
X85711132Y-49523230D01*
X85755447Y-49589552D01*
X85821769Y-49633867D01*
X85821770Y-49633868D01*
X85880247Y-49645499D01*
X85880250Y-49645500D01*
X85880252Y-49645500D01*
X87619750Y-49645500D01*
X87680624Y-49633391D01*
X87750216Y-49639618D01*
X87792497Y-49667327D01*
X88747989Y-50622819D01*
X88781474Y-50684142D01*
X88776490Y-50753834D01*
X88734618Y-50809767D01*
X88669154Y-50834184D01*
X88660308Y-50834500D01*
X87845436Y-50834500D01*
X87778397Y-50814815D01*
X87732642Y-50762011D01*
X87730875Y-50757953D01*
X87680941Y-50637403D01*
X87680941Y-50637402D01*
X87565977Y-50465345D01*
X87565975Y-50465342D01*
X87419657Y-50319024D01*
X87272642Y-50220793D01*
X87247598Y-50204059D01*
X87056420Y-50124870D01*
X87056412Y-50124868D01*
X86853469Y-50084500D01*
X86853465Y-50084500D01*
X86646535Y-50084500D01*
X86646530Y-50084500D01*
X86443587Y-50124868D01*
X86443579Y-50124870D01*
X86252403Y-50204058D01*
X86080342Y-50319024D01*
X85934024Y-50465342D01*
X85819058Y-50637403D01*
X85739870Y-50828579D01*
X85739868Y-50828587D01*
X85699500Y-51031530D01*
X85699500Y-51238469D01*
X85739868Y-51441412D01*
X85739870Y-51441420D01*
X85819058Y-51632596D01*
X85934024Y-51804657D01*
X86080342Y-51950975D01*
X86080345Y-51950977D01*
X86252402Y-52065941D01*
X86443580Y-52145130D01*
X86606442Y-52177525D01*
X86646530Y-52185499D01*
X86646534Y-52185500D01*
X86646535Y-52185500D01*
X86853466Y-52185500D01*
X86853467Y-52185499D01*
X87056420Y-52145130D01*
X87247598Y-52065941D01*
X87419655Y-51950977D01*
X87565977Y-51804655D01*
X87680941Y-51632598D01*
X87730875Y-51512046D01*
X87774716Y-51457644D01*
X87841010Y-51435579D01*
X87845436Y-51435500D01*
X88942208Y-51435500D01*
X89009247Y-51455185D01*
X89029889Y-51471819D01*
X90720889Y-53162819D01*
X90754374Y-53224142D01*
X90749390Y-53293834D01*
X90707518Y-53349767D01*
X90642054Y-53374184D01*
X90633208Y-53374500D01*
X87845436Y-53374500D01*
X87778397Y-53354815D01*
X87732642Y-53302011D01*
X87730875Y-53297953D01*
X87729169Y-53293834D01*
X87680941Y-53177402D01*
X87565977Y-53005345D01*
X87565975Y-53005342D01*
X87419657Y-52859024D01*
X87333626Y-52801541D01*
X87247598Y-52744059D01*
X87056420Y-52664870D01*
X87056412Y-52664868D01*
X86853469Y-52624500D01*
X86853465Y-52624500D01*
X86646535Y-52624500D01*
X86646530Y-52624500D01*
X86443587Y-52664868D01*
X86443579Y-52664870D01*
X86252403Y-52744058D01*
X86080342Y-52859024D01*
X85934024Y-53005342D01*
X85819058Y-53177403D01*
X85739870Y-53368579D01*
X85739868Y-53368587D01*
X85699500Y-53571530D01*
X85699500Y-53778469D01*
X85739868Y-53981412D01*
X85739870Y-53981420D01*
X85819058Y-54172596D01*
X85934024Y-54344657D01*
X86080342Y-54490975D01*
X86080345Y-54490977D01*
X86252402Y-54605941D01*
X86443580Y-54685130D01*
X86646530Y-54725499D01*
X86646534Y-54725500D01*
X86646535Y-54725500D01*
X86853466Y-54725500D01*
X86853467Y-54725499D01*
X87056420Y-54685130D01*
X87247598Y-54605941D01*
X87419655Y-54490977D01*
X87565977Y-54344655D01*
X87680941Y-54172598D01*
X87730875Y-54052046D01*
X87774716Y-53997644D01*
X87841010Y-53975579D01*
X87845436Y-53975500D01*
X90915108Y-53975500D01*
X90982147Y-53995185D01*
X91002789Y-54011819D01*
X92693789Y-55702819D01*
X92727274Y-55764142D01*
X92722290Y-55833834D01*
X92680418Y-55889767D01*
X92614954Y-55914184D01*
X92606108Y-55914500D01*
X87845436Y-55914500D01*
X87778397Y-55894815D01*
X87732642Y-55842011D01*
X87730875Y-55837953D01*
X87680941Y-55717403D01*
X87680941Y-55717402D01*
X87565977Y-55545345D01*
X87565975Y-55545342D01*
X87419657Y-55399024D01*
X87333626Y-55341541D01*
X87247598Y-55284059D01*
X87202312Y-55265301D01*
X87056420Y-55204870D01*
X87056412Y-55204868D01*
X86853469Y-55164500D01*
X86853465Y-55164500D01*
X86646535Y-55164500D01*
X86646530Y-55164500D01*
X86443587Y-55204868D01*
X86443579Y-55204870D01*
X86252403Y-55284058D01*
X86080342Y-55399024D01*
X85934024Y-55545342D01*
X85819058Y-55717403D01*
X85739870Y-55908579D01*
X85739868Y-55908587D01*
X85699500Y-56111530D01*
X85699500Y-56318469D01*
X85739868Y-56521412D01*
X85739870Y-56521420D01*
X85819058Y-56712596D01*
X85934024Y-56884657D01*
X86080342Y-57030975D01*
X86080345Y-57030977D01*
X86252402Y-57145941D01*
X86443580Y-57225130D01*
X86602063Y-57256654D01*
X86646530Y-57265499D01*
X86646534Y-57265500D01*
X86646535Y-57265500D01*
X86853466Y-57265500D01*
X86853467Y-57265499D01*
X87056420Y-57225130D01*
X87247598Y-57145941D01*
X87419655Y-57030977D01*
X87565977Y-56884655D01*
X87680941Y-56712598D01*
X87730875Y-56592046D01*
X87774716Y-56537644D01*
X87841010Y-56515579D01*
X87845436Y-56515500D01*
X92888008Y-56515500D01*
X92955047Y-56535185D01*
X92975689Y-56551819D01*
X93413681Y-56989811D01*
X93447166Y-57051134D01*
X93450000Y-57077492D01*
X93450000Y-57950000D01*
X94200618Y-57950000D01*
X94260574Y-57917260D01*
X94330266Y-57922244D01*
X94374615Y-57950745D01*
X95649254Y-59225384D01*
X95653592Y-59233329D01*
X95660840Y-59238755D01*
X95670074Y-59263514D01*
X95682739Y-59286707D01*
X95682093Y-59295736D01*
X95685257Y-59304219D01*
X95679640Y-59330039D01*
X95677755Y-59356399D01*
X95671936Y-59365452D01*
X95670405Y-59372492D01*
X95649254Y-59400746D01*
X95629918Y-59420082D01*
X95568595Y-59453567D01*
X95498903Y-59448583D01*
X95454556Y-59420082D01*
X95093317Y-59058843D01*
X95068465Y-59096038D01*
X95066496Y-59094722D01*
X95024842Y-59137082D01*
X94956696Y-59152506D01*
X94891029Y-59128639D01*
X94857119Y-59090754D01*
X94840509Y-59061985D01*
X94738015Y-58959491D01*
X94738013Y-58959490D01*
X94738011Y-58959488D01*
X94612488Y-58887017D01*
X94612489Y-58887017D01*
X94601006Y-58883940D01*
X94472475Y-58849500D01*
X94327525Y-58849500D01*
X94324000Y-58849500D01*
X94256961Y-58829815D01*
X94211206Y-58777011D01*
X94200000Y-58725500D01*
X94200000Y-58450000D01*
X93450000Y-58450000D01*
X93450000Y-59424999D01*
X93461014Y-59436013D01*
X93490542Y-59444684D01*
X93536297Y-59497488D01*
X93546241Y-59566646D01*
X93517216Y-59630202D01*
X93458438Y-59667976D01*
X93455653Y-59668758D01*
X93393625Y-59685378D01*
X93387511Y-59687017D01*
X93261988Y-59759488D01*
X93261982Y-59759493D01*
X93159493Y-59861982D01*
X93159488Y-59861988D01*
X93087017Y-59987511D01*
X93087016Y-59987515D01*
X93049500Y-60127525D01*
X93049500Y-60272475D01*
X93080192Y-60387016D01*
X93087017Y-60412488D01*
X93159488Y-60538011D01*
X93159490Y-60538013D01*
X93159491Y-60538015D01*
X93261985Y-60640509D01*
X93261986Y-60640510D01*
X93261988Y-60640511D01*
X93387511Y-60712982D01*
X93387512Y-60712982D01*
X93387515Y-60712984D01*
X93527525Y-60750500D01*
X93527528Y-60750500D01*
X93672473Y-60750500D01*
X93672475Y-60750500D01*
X93706839Y-60741292D01*
X93776688Y-60742953D01*
X93834551Y-60782115D01*
X93862056Y-60846343D01*
X93858708Y-60893158D01*
X93849500Y-60927523D01*
X93849500Y-60927525D01*
X93849500Y-61072475D01*
X93871139Y-61153231D01*
X93887017Y-61212489D01*
X93890128Y-61219999D01*
X93887742Y-61220986D01*
X93901188Y-61276390D01*
X93878342Y-61342418D01*
X93823424Y-61385614D01*
X93777328Y-61394500D01*
X91098994Y-61394500D01*
X91066861Y-61397029D01*
X91036222Y-61401881D01*
X91031717Y-61402646D01*
X91031714Y-61402647D01*
X90947617Y-61438592D01*
X90898115Y-61474557D01*
X90870371Y-61498797D01*
X90823464Y-61577305D01*
X90804557Y-61635494D01*
X90804557Y-61635497D01*
X90794500Y-61698995D01*
X90794500Y-68651005D01*
X90797029Y-68683138D01*
X90801881Y-68713777D01*
X90802646Y-68718282D01*
X90802647Y-68718285D01*
X90802648Y-68718287D01*
X90838592Y-68802383D01*
X90874556Y-68851883D01*
X90879336Y-68857354D01*
X90898797Y-68879628D01*
X90936587Y-68902207D01*
X90977307Y-68926536D01*
X91035498Y-68945443D01*
X91064268Y-68949999D01*
X91098996Y-68955500D01*
X91099000Y-68955500D01*
X91171989Y-68955500D01*
X91239028Y-68975185D01*
X91284783Y-69027989D01*
X91294727Y-69097147D01*
X91289695Y-69118505D01*
X91278494Y-69152305D01*
X91278493Y-69152309D01*
X91268000Y-69255013D01*
X91268000Y-69305000D01*
X95814075Y-69305000D01*
X95881114Y-69324685D01*
X95900470Y-69340052D01*
X95928620Y-69367394D01*
X95928623Y-69367396D01*
X96010708Y-69407725D01*
X96070250Y-69421809D01*
X96106713Y-69427041D01*
X96106713Y-69427040D01*
X96106714Y-69427041D01*
X96196827Y-69411421D01*
X96253277Y-69387818D01*
X96285862Y-69370612D01*
X96285865Y-69370608D01*
X96293673Y-69364761D01*
X96294505Y-69365872D01*
X96346369Y-69336559D01*
X96416126Y-69340522D01*
X96472667Y-69381568D01*
X96498041Y-69446668D01*
X96498500Y-69457326D01*
X96498500Y-69874752D01*
X96510131Y-69933229D01*
X96510132Y-69933230D01*
X96554447Y-69999552D01*
X96620769Y-70043867D01*
X96620770Y-70043868D01*
X96679247Y-70055499D01*
X96679250Y-70055500D01*
X97776662Y-70055500D01*
X97843701Y-70075185D01*
X97889456Y-70127989D01*
X97899400Y-70197147D01*
X97876981Y-70252384D01*
X97875357Y-70254618D01*
X97856463Y-70286242D01*
X97836113Y-70375400D01*
X97836112Y-70375407D01*
X97836112Y-70436593D01*
X97839415Y-70473287D01*
X97852829Y-70504672D01*
X97875357Y-70557380D01*
X97875358Y-70557381D01*
X97875359Y-70557383D01*
X97911323Y-70606883D01*
X97935564Y-70634628D01*
X98014074Y-70681536D01*
X98072265Y-70700443D01*
X98099915Y-70704822D01*
X98135763Y-70710500D01*
X98135767Y-70710500D01*
X98530335Y-70710500D01*
X98530336Y-70710499D01*
X98578304Y-70704822D01*
X98623249Y-70694032D01*
X98643149Y-70688178D01*
X98720587Y-70639520D01*
X98763852Y-70596255D01*
X98787464Y-70567973D01*
X98821512Y-70483091D01*
X98828877Y-70436588D01*
X98831080Y-70422680D01*
X98831080Y-70422671D01*
X98831083Y-70422659D01*
X98833561Y-70385904D01*
X98832565Y-70381951D01*
X98832757Y-70376983D01*
X98832686Y-70376188D01*
X98832788Y-70376178D01*
X98835271Y-70312136D01*
X98875294Y-70254865D01*
X98939927Y-70228324D01*
X98993761Y-70234612D01*
X99045299Y-70252646D01*
X99075730Y-70255500D01*
X99075734Y-70255500D01*
X100134270Y-70255500D01*
X100164699Y-70252646D01*
X100164701Y-70252646D01*
X100228790Y-70230219D01*
X100292882Y-70207793D01*
X100402150Y-70127150D01*
X100482793Y-70017882D01*
X100512414Y-69933229D01*
X100527646Y-69889701D01*
X100527646Y-69889699D01*
X100530500Y-69859269D01*
X100530500Y-69250730D01*
X100527646Y-69220301D01*
X100522148Y-69204588D01*
X100499526Y-69139940D01*
X100495964Y-69070164D01*
X100530693Y-69009536D01*
X100592686Y-68977309D01*
X100616568Y-68974987D01*
X100681588Y-68974987D01*
X100681593Y-68974987D01*
X100718287Y-68971684D01*
X100802383Y-68935740D01*
X100851883Y-68899776D01*
X100879628Y-68875535D01*
X100926536Y-68797025D01*
X100945443Y-68738834D01*
X100954264Y-68683138D01*
X100955500Y-68675336D01*
X100955500Y-64790998D01*
X100954867Y-64774898D01*
X100953647Y-64759398D01*
X100953647Y-64759396D01*
X100931884Y-64682228D01*
X100904107Y-64627711D01*
X100890055Y-64608370D01*
X100882075Y-64597386D01*
X100858594Y-64531580D01*
X100874419Y-64463526D01*
X100924524Y-64414831D01*
X100982392Y-64400500D01*
X101770500Y-64400500D01*
X101837539Y-64420185D01*
X101883294Y-64472989D01*
X101894500Y-64524500D01*
X101894500Y-65976007D01*
X101899197Y-66019686D01*
X101910397Y-66071174D01*
X101912890Y-66081372D01*
X101912891Y-66081375D01*
X101955899Y-66162083D01*
X101955901Y-66162086D01*
X102001660Y-66214895D01*
X102019242Y-66232839D01*
X102019246Y-66232843D01*
X102019247Y-66232844D01*
X102019249Y-66232845D01*
X102088408Y-66271530D01*
X102099063Y-66277490D01*
X102166102Y-66297175D01*
X102224000Y-66305500D01*
X102224004Y-66305500D01*
X105475991Y-66305500D01*
X105476000Y-66305500D01*
X105519684Y-66300803D01*
X105548875Y-66294452D01*
X105571174Y-66289602D01*
X105571190Y-66289598D01*
X105571195Y-66289597D01*
X105581373Y-66287110D01*
X105662085Y-66244100D01*
X105714889Y-66198345D01*
X105732843Y-66180754D01*
X105777490Y-66100937D01*
X105797175Y-66033898D01*
X105805500Y-65976000D01*
X105805500Y-62924000D01*
X105800803Y-62880316D01*
X105796897Y-62862364D01*
X105789602Y-62828825D01*
X105788635Y-62824868D01*
X105787110Y-62818627D01*
X105744100Y-62737915D01*
X105698345Y-62685111D01*
X105698339Y-62685104D01*
X105680757Y-62667160D01*
X105680756Y-62667159D01*
X105680754Y-62667157D01*
X105680752Y-62667156D01*
X105680750Y-62667154D01*
X105600940Y-62622511D01*
X105600935Y-62622509D01*
X105533903Y-62602826D01*
X105533899Y-62602825D01*
X105533898Y-62602825D01*
X105476000Y-62594500D01*
X103083386Y-62594500D01*
X103016347Y-62574815D01*
X102970592Y-62522011D01*
X102960648Y-62452853D01*
X102989673Y-62389297D01*
X102995705Y-62382819D01*
X103015882Y-62362642D01*
X103040509Y-62338015D01*
X103112984Y-62212485D01*
X103150500Y-62072475D01*
X103150500Y-62072472D01*
X103152603Y-62064624D01*
X103155329Y-62065354D01*
X103178042Y-62013990D01*
X103236360Y-61975509D01*
X103306224Y-61974666D01*
X103347040Y-61994790D01*
X103411910Y-62043352D01*
X103411913Y-62043354D01*
X103546620Y-62093596D01*
X103546627Y-62093598D01*
X103606155Y-62099999D01*
X103606172Y-62100000D01*
X103654000Y-62100000D01*
X103654000Y-61334000D01*
X103673685Y-61266961D01*
X103726489Y-61221206D01*
X103778000Y-61210000D01*
X104030000Y-61210000D01*
X104097039Y-61229685D01*
X104142794Y-61282489D01*
X104154000Y-61334000D01*
X104154000Y-62100000D01*
X104201828Y-62100000D01*
X104201844Y-62099999D01*
X104261372Y-62093598D01*
X104261379Y-62093596D01*
X104396086Y-62043354D01*
X104396093Y-62043350D01*
X104511187Y-61957190D01*
X104511190Y-61957187D01*
X104597350Y-61842093D01*
X104597354Y-61842086D01*
X104647596Y-61707379D01*
X104647598Y-61707372D01*
X104653999Y-61647844D01*
X104654000Y-61647827D01*
X104654000Y-61399500D01*
X104673685Y-61332461D01*
X104726489Y-61286706D01*
X104778000Y-61275500D01*
X104998750Y-61275500D01*
X104998751Y-61275499D01*
X105013568Y-61272552D01*
X105057229Y-61263868D01*
X105057229Y-61263867D01*
X105057231Y-61263867D01*
X105097711Y-61236819D01*
X105120790Y-61221398D01*
X105187467Y-61200520D01*
X105189681Y-61200500D01*
X105470614Y-61200500D01*
X105537653Y-61220185D01*
X105558295Y-61236819D01*
X105559491Y-61238015D01*
X105661985Y-61340509D01*
X105661986Y-61340510D01*
X105661988Y-61340511D01*
X105787511Y-61412982D01*
X105787512Y-61412982D01*
X105787515Y-61412984D01*
X105927525Y-61450500D01*
X105927528Y-61450500D01*
X106072472Y-61450500D01*
X106072475Y-61450500D01*
X106212485Y-61412984D01*
X106338015Y-61340509D01*
X106440509Y-61238015D01*
X106512984Y-61112485D01*
X106550500Y-60972475D01*
X106550500Y-60827525D01*
X106512984Y-60687515D01*
X106498244Y-60661985D01*
X106440511Y-60561988D01*
X106440506Y-60561982D01*
X106338017Y-60459493D01*
X106338011Y-60459488D01*
X106212488Y-60387017D01*
X106212489Y-60387017D01*
X106201006Y-60383940D01*
X106072475Y-60349500D01*
X105927525Y-60349500D01*
X105927523Y-60349500D01*
X105860592Y-60367434D01*
X105790743Y-60365771D01*
X105732880Y-60326608D01*
X105705377Y-60262379D01*
X105704500Y-60247659D01*
X105704500Y-59730249D01*
X105704499Y-59730247D01*
X105692868Y-59671770D01*
X105692867Y-59671769D01*
X105648552Y-59605447D01*
X105582230Y-59561132D01*
X105582229Y-59561131D01*
X105523752Y-59549500D01*
X105523748Y-59549500D01*
X105268712Y-59549500D01*
X105201673Y-59529815D01*
X105155918Y-59477011D01*
X105145974Y-59407853D01*
X105165609Y-59356609D01*
X105167867Y-59353231D01*
X105179500Y-59294748D01*
X105179500Y-58905252D01*
X105179500Y-58905249D01*
X105179499Y-58905247D01*
X105167868Y-58846770D01*
X105167867Y-58846769D01*
X105123552Y-58780447D01*
X105057230Y-58736132D01*
X105057229Y-58736131D01*
X104998752Y-58724500D01*
X104998748Y-58724500D01*
X104778000Y-58724500D01*
X104710961Y-58704815D01*
X104665206Y-58652011D01*
X104654000Y-58600500D01*
X104654000Y-58352172D01*
X104653999Y-58352155D01*
X104647598Y-58292627D01*
X104647596Y-58292620D01*
X104597354Y-58157913D01*
X104597350Y-58157906D01*
X104511190Y-58042812D01*
X104511187Y-58042809D01*
X104396093Y-57956649D01*
X104396086Y-57956645D01*
X104261379Y-57906403D01*
X104261372Y-57906401D01*
X104201844Y-57900000D01*
X104154000Y-57900000D01*
X104154000Y-58666000D01*
X104134315Y-58733039D01*
X104081511Y-58778794D01*
X104030000Y-58790000D01*
X103778000Y-58790000D01*
X103710961Y-58770315D01*
X103665206Y-58717511D01*
X103654000Y-58666000D01*
X103654000Y-57900000D01*
X103606155Y-57900000D01*
X103546627Y-57906401D01*
X103546620Y-57906403D01*
X103411913Y-57956645D01*
X103411911Y-57956646D01*
X103301763Y-58039104D01*
X103236299Y-58063521D01*
X103168026Y-58048670D01*
X103118620Y-57999265D01*
X103113066Y-57987656D01*
X103040511Y-57861988D01*
X103040506Y-57861982D01*
X102938017Y-57759493D01*
X102938011Y-57759488D01*
X102812488Y-57687017D01*
X102812489Y-57687017D01*
X102751720Y-57670734D01*
X102672475Y-57649500D01*
X102672473Y-57649500D01*
X102671633Y-57649275D01*
X102611973Y-57612910D01*
X102581444Y-57550063D01*
X102589739Y-57480687D01*
X102634224Y-57426809D01*
X102700776Y-57405535D01*
X102703727Y-57405500D01*
X105475991Y-57405500D01*
X105476000Y-57405500D01*
X105519684Y-57400803D01*
X105548875Y-57394452D01*
X105571174Y-57389602D01*
X105571190Y-57389598D01*
X105571195Y-57389597D01*
X105581373Y-57387110D01*
X105662085Y-57344100D01*
X105714889Y-57298345D01*
X105732843Y-57280754D01*
X105777490Y-57200937D01*
X105797175Y-57133898D01*
X105805500Y-57076000D01*
X105805500Y-54024000D01*
X105800803Y-53980316D01*
X105796897Y-53962364D01*
X105789602Y-53928825D01*
X105789348Y-53927789D01*
X105787110Y-53918627D01*
X105744100Y-53837915D01*
X105698345Y-53785111D01*
X105698339Y-53785104D01*
X105680757Y-53767160D01*
X105680756Y-53767159D01*
X105680754Y-53767157D01*
X105680752Y-53767156D01*
X105680750Y-53767154D01*
X105600940Y-53722511D01*
X105600935Y-53722509D01*
X105533903Y-53702826D01*
X105533899Y-53702825D01*
X105533898Y-53702825D01*
X105476000Y-53694500D01*
X102224000Y-53694500D01*
X102223992Y-53694500D01*
X102180313Y-53699197D01*
X102128825Y-53710397D01*
X102118627Y-53712890D01*
X102118624Y-53712891D01*
X102037916Y-53755899D01*
X102037913Y-53755901D01*
X101985104Y-53801660D01*
X101967160Y-53819242D01*
X101967154Y-53819249D01*
X101922511Y-53899059D01*
X101922509Y-53899064D01*
X101902826Y-53966096D01*
X101902825Y-53966101D01*
X101902825Y-53966102D01*
X101894502Y-54023992D01*
X101894500Y-54024003D01*
X101894500Y-56029167D01*
X101874815Y-56096206D01*
X101858181Y-56116848D01*
X98712181Y-59262848D01*
X98650858Y-59296333D01*
X98581166Y-59291349D01*
X98525233Y-59249477D01*
X98500816Y-59184013D01*
X98500500Y-59175167D01*
X98500500Y-56424500D01*
X98520185Y-56357461D01*
X98572989Y-56311706D01*
X98624500Y-56300500D01*
X98729270Y-56300500D01*
X98759699Y-56297646D01*
X98759701Y-56297646D01*
X98823790Y-56275219D01*
X98887882Y-56252793D01*
X98997150Y-56172150D01*
X99077793Y-56062882D01*
X99100219Y-55998790D01*
X99122646Y-55934701D01*
X99122646Y-55934699D01*
X99125500Y-55904269D01*
X99125500Y-55295730D01*
X99122646Y-55265300D01*
X99122646Y-55265298D01*
X99077793Y-55137119D01*
X99077792Y-55137117D01*
X98997150Y-55027850D01*
X98887882Y-54947207D01*
X98887880Y-54947206D01*
X98759700Y-54902353D01*
X98729270Y-54899500D01*
X98729266Y-54899500D01*
X97670734Y-54899500D01*
X97670730Y-54899500D01*
X97640300Y-54902353D01*
X97640298Y-54902353D01*
X97512119Y-54947206D01*
X97512117Y-54947207D01*
X97402850Y-55027850D01*
X97322207Y-55137117D01*
X97322206Y-55137119D01*
X97277353Y-55265298D01*
X97277353Y-55265300D01*
X97274500Y-55295730D01*
X97274500Y-55904269D01*
X97277353Y-55934699D01*
X97277353Y-55934701D01*
X97322206Y-56062880D01*
X97322207Y-56062882D01*
X97402850Y-56172150D01*
X97512118Y-56252793D01*
X97554845Y-56267744D01*
X97640299Y-56297646D01*
X97670730Y-56300500D01*
X97670734Y-56300500D01*
X97775500Y-56300500D01*
X97842539Y-56320185D01*
X97888294Y-56372989D01*
X97899500Y-56424500D01*
X97899500Y-59375500D01*
X97896949Y-59384185D01*
X97898238Y-59393147D01*
X97887259Y-59417187D01*
X97879815Y-59442539D01*
X97872974Y-59448466D01*
X97869213Y-59456703D01*
X97846978Y-59470992D01*
X97827011Y-59488294D01*
X97816496Y-59490581D01*
X97810435Y-59494477D01*
X97775500Y-59499500D01*
X97674500Y-59499500D01*
X97607461Y-59479815D01*
X97561706Y-59427011D01*
X97550500Y-59375500D01*
X97550500Y-58660299D01*
X97550499Y-58660295D01*
X97548279Y-58652011D01*
X97541444Y-58626499D01*
X97530022Y-58583871D01*
X97490460Y-58515348D01*
X92370842Y-53395730D01*
X97274500Y-53395730D01*
X97274500Y-54004269D01*
X97277353Y-54034699D01*
X97277353Y-54034701D01*
X97322206Y-54162880D01*
X97322207Y-54162882D01*
X97402850Y-54272150D01*
X97512118Y-54352793D01*
X97539859Y-54362500D01*
X97640299Y-54397646D01*
X97670730Y-54400500D01*
X97670734Y-54400500D01*
X98729270Y-54400500D01*
X98759699Y-54397646D01*
X98759701Y-54397646D01*
X98823790Y-54375219D01*
X98887882Y-54352793D01*
X98997150Y-54272150D01*
X99077793Y-54162882D01*
X99116576Y-54052047D01*
X99122646Y-54034701D01*
X99122646Y-54034699D01*
X99125500Y-54004269D01*
X99125500Y-53395730D01*
X99122646Y-53365300D01*
X99122646Y-53365298D01*
X99077793Y-53237119D01*
X99077792Y-53237117D01*
X99068216Y-53224142D01*
X98997150Y-53127850D01*
X98887882Y-53047207D01*
X98887880Y-53047206D01*
X98759700Y-53002353D01*
X98729270Y-52999500D01*
X98729266Y-52999500D01*
X98724500Y-52999500D01*
X98715814Y-52996949D01*
X98706853Y-52998238D01*
X98682812Y-52987259D01*
X98657461Y-52979815D01*
X98651533Y-52972974D01*
X98643297Y-52969213D01*
X98629007Y-52946978D01*
X98611706Y-52927011D01*
X98609418Y-52916496D01*
X98605523Y-52910435D01*
X98600500Y-52875500D01*
X98600500Y-52679386D01*
X98620185Y-52612347D01*
X98636819Y-52591705D01*
X98640509Y-52588015D01*
X98712984Y-52462485D01*
X98750500Y-52322475D01*
X98750500Y-52177525D01*
X98712984Y-52037515D01*
X98640509Y-51911985D01*
X98538015Y-51809491D01*
X98538013Y-51809490D01*
X98538011Y-51809488D01*
X98412488Y-51737017D01*
X98412489Y-51737017D01*
X98401006Y-51733940D01*
X98272475Y-51699500D01*
X98127525Y-51699500D01*
X97998993Y-51733940D01*
X97987511Y-51737017D01*
X97861988Y-51809488D01*
X97861982Y-51809493D01*
X97759493Y-51911982D01*
X97759488Y-51911988D01*
X97687017Y-52037511D01*
X97687016Y-52037515D01*
X97649500Y-52177525D01*
X97649500Y-52322475D01*
X97687016Y-52462485D01*
X97687017Y-52462488D01*
X97759488Y-52588011D01*
X97759493Y-52588017D01*
X97763181Y-52591705D01*
X97777884Y-52618632D01*
X97794477Y-52644451D01*
X97795368Y-52650651D01*
X97796666Y-52653028D01*
X97799500Y-52679386D01*
X97799500Y-52875500D01*
X97779815Y-52942539D01*
X97727011Y-52988294D01*
X97675500Y-52999500D01*
X97670730Y-52999500D01*
X97640300Y-53002353D01*
X97640298Y-53002353D01*
X97512119Y-53047206D01*
X97512117Y-53047207D01*
X97402850Y-53127850D01*
X97322207Y-53237117D01*
X97322206Y-53237119D01*
X97277353Y-53365298D01*
X97277353Y-53365300D01*
X97274500Y-53395730D01*
X92370842Y-53395730D01*
X87849150Y-48874038D01*
X91399500Y-48874038D01*
X91399500Y-49125961D01*
X91438910Y-49374785D01*
X91516760Y-49614383D01*
X91631132Y-49838848D01*
X91779201Y-50042649D01*
X91779205Y-50042654D01*
X91957345Y-50220794D01*
X91957350Y-50220798D01*
X92135117Y-50349952D01*
X92161155Y-50368870D01*
X92304184Y-50441747D01*
X92385616Y-50483239D01*
X92385618Y-50483239D01*
X92385621Y-50483241D01*
X92625215Y-50561090D01*
X92874038Y-50600500D01*
X92874039Y-50600500D01*
X93125961Y-50600500D01*
X93125962Y-50600500D01*
X93374785Y-50561090D01*
X93614379Y-50483241D01*
X93838845Y-50368870D01*
X94042656Y-50220793D01*
X94220793Y-50042656D01*
X94368870Y-49838845D01*
X94483241Y-49614379D01*
X94561090Y-49374785D01*
X94600500Y-49125962D01*
X94600500Y-48874038D01*
X109399500Y-48874038D01*
X109399500Y-49125961D01*
X109438910Y-49374785D01*
X109516760Y-49614383D01*
X109631132Y-49838848D01*
X109779201Y-50042649D01*
X109779205Y-50042654D01*
X109957345Y-50220794D01*
X109957350Y-50220798D01*
X110135117Y-50349952D01*
X110161155Y-50368870D01*
X110304184Y-50441747D01*
X110385616Y-50483239D01*
X110385618Y-50483239D01*
X110385621Y-50483241D01*
X110625215Y-50561090D01*
X110874038Y-50600500D01*
X110874039Y-50600500D01*
X111125961Y-50600500D01*
X111125962Y-50600500D01*
X111374785Y-50561090D01*
X111614379Y-50483241D01*
X111838845Y-50368870D01*
X112042656Y-50220793D01*
X112220793Y-50042656D01*
X112368870Y-49838845D01*
X112483241Y-49614379D01*
X112561090Y-49374785D01*
X112600500Y-49125962D01*
X112600500Y-48874038D01*
X112561090Y-48625215D01*
X112483241Y-48385621D01*
X112483239Y-48385618D01*
X112483239Y-48385616D01*
X112441747Y-48304184D01*
X112368870Y-48161155D01*
X112349952Y-48135117D01*
X112220798Y-47957350D01*
X112220794Y-47957345D01*
X112042654Y-47779205D01*
X112042649Y-47779201D01*
X111838848Y-47631132D01*
X111838847Y-47631131D01*
X111838845Y-47631130D01*
X111768747Y-47595413D01*
X111614383Y-47516760D01*
X111374785Y-47438910D01*
X111125962Y-47399500D01*
X110874038Y-47399500D01*
X110749626Y-47419205D01*
X110625214Y-47438910D01*
X110385616Y-47516760D01*
X110161151Y-47631132D01*
X109957350Y-47779201D01*
X109957345Y-47779205D01*
X109779205Y-47957345D01*
X109779201Y-47957350D01*
X109631132Y-48161151D01*
X109516760Y-48385616D01*
X109438910Y-48625214D01*
X109399500Y-48874038D01*
X94600500Y-48874038D01*
X94561090Y-48625215D01*
X94483241Y-48385621D01*
X94483239Y-48385618D01*
X94483239Y-48385616D01*
X94441747Y-48304184D01*
X94368870Y-48161155D01*
X94349952Y-48135117D01*
X94220798Y-47957350D01*
X94220794Y-47957345D01*
X94042654Y-47779205D01*
X94042649Y-47779201D01*
X93838848Y-47631132D01*
X93838847Y-47631131D01*
X93838845Y-47631130D01*
X93768747Y-47595413D01*
X93614383Y-47516760D01*
X93374785Y-47438910D01*
X93125962Y-47399500D01*
X92874038Y-47399500D01*
X92749626Y-47419205D01*
X92625214Y-47438910D01*
X92385616Y-47516760D01*
X92161151Y-47631132D01*
X91957350Y-47779201D01*
X91957345Y-47779205D01*
X91779205Y-47957345D01*
X91779201Y-47957350D01*
X91631132Y-48161151D01*
X91516760Y-48385616D01*
X91438910Y-48625214D01*
X91399500Y-48874038D01*
X87849150Y-48874038D01*
X87836819Y-48861707D01*
X87803334Y-48800384D01*
X87800500Y-48774026D01*
X87800500Y-47725249D01*
X87800499Y-47725247D01*
X87788868Y-47666770D01*
X87788867Y-47666769D01*
X87744552Y-47600447D01*
X87678230Y-47556132D01*
X87678229Y-47556131D01*
X87619752Y-47544500D01*
X87619748Y-47544500D01*
X85880252Y-47544500D01*
X85880247Y-47544500D01*
X85821770Y-47556131D01*
X85821769Y-47556132D01*
X85755447Y-47600447D01*
X85711132Y-47666769D01*
X85711131Y-47666770D01*
X85699500Y-47725247D01*
X85300500Y-47725247D01*
X85300500Y-46504875D01*
X85300882Y-46495146D01*
X85303614Y-46460438D01*
X85314502Y-46322078D01*
X85317544Y-46302873D01*
X85356932Y-46138812D01*
X85362938Y-46120327D01*
X85427505Y-45964449D01*
X85436338Y-45947115D01*
X85524484Y-45803274D01*
X85535920Y-45787533D01*
X85645492Y-45659239D01*
X85659239Y-45645492D01*
X85787535Y-45535917D01*
X85803274Y-45524484D01*
X85947118Y-45436336D01*
X85964449Y-45427505D01*
X86120327Y-45362938D01*
X86138812Y-45356932D01*
X86302873Y-45317544D01*
X86322078Y-45314502D01*
X86495146Y-45300881D01*
X86504875Y-45300500D01*
X86547595Y-45300500D01*
X113452405Y-45300500D01*
X113495125Y-45300500D01*
X113504853Y-45300881D01*
G37*
%TD.AperFunction*%
%TD*%
%TA.AperFunction,Conductor*%
%TO.N,+1V8*%
G36*
X95770066Y-60898500D02*
G01*
X95817618Y-60937004D01*
X95833456Y-60996104D01*
X95811531Y-61053226D01*
X95804595Y-61060929D01*
X95708843Y-61156681D01*
X95740967Y-61178147D01*
X95740976Y-61178151D01*
X95859701Y-61227328D01*
X95985742Y-61252399D01*
X95989838Y-61252803D01*
X96045897Y-61277319D01*
X96076839Y-61330104D01*
X96070846Y-61390995D01*
X96050145Y-61421330D01*
X96009491Y-61461983D01*
X96009487Y-61461989D01*
X95937017Y-61587510D01*
X95899500Y-61727525D01*
X95899500Y-61872474D01*
X95900278Y-61875378D01*
X95900165Y-61877527D01*
X95900347Y-61878907D01*
X95900091Y-61878940D01*
X95897075Y-61936479D01*
X95858569Y-61984029D01*
X95804651Y-62000000D01*
X95524013Y-62000000D01*
X95421312Y-62010492D01*
X95421300Y-62010495D01*
X95254875Y-62065643D01*
X95105659Y-62157680D01*
X94981680Y-62281659D01*
X94889643Y-62430875D01*
X94834493Y-62597306D01*
X94824000Y-62700012D01*
X94824000Y-62749999D01*
X94824001Y-62750000D01*
X97273998Y-62750000D01*
X97273999Y-62749999D01*
X97273999Y-62700014D01*
X97264707Y-62609062D01*
X97277602Y-62549251D01*
X97323190Y-62508442D01*
X97363194Y-62500000D01*
X98458992Y-62500000D01*
X98517183Y-62518907D01*
X98528996Y-62528996D01*
X100721004Y-64721004D01*
X100748781Y-64775521D01*
X100750000Y-64791008D01*
X100750000Y-68675332D01*
X100731093Y-68733523D01*
X100681593Y-68769487D01*
X100620407Y-68769487D01*
X100580996Y-68745336D01*
X100548340Y-68712680D01*
X100399124Y-68620643D01*
X100232693Y-68565493D01*
X100129987Y-68555000D01*
X99855001Y-68555000D01*
X99855000Y-68555001D01*
X99855000Y-69456000D01*
X99836093Y-69514191D01*
X99786593Y-69550155D01*
X99756000Y-69555000D01*
X99605001Y-69555000D01*
X99605000Y-69555001D01*
X99605000Y-69706000D01*
X99586093Y-69764191D01*
X99536593Y-69800155D01*
X99506000Y-69805000D01*
X97398000Y-69805000D01*
X97339809Y-69786093D01*
X97303845Y-69736593D01*
X97299000Y-69706000D01*
X97299000Y-69555001D01*
X97298999Y-69555000D01*
X97148000Y-69555000D01*
X97089809Y-69536093D01*
X97053845Y-69486593D01*
X97049000Y-69456000D01*
X97049000Y-68755001D01*
X97549000Y-68755001D01*
X97549000Y-69304999D01*
X97549001Y-69305000D01*
X99354999Y-69305000D01*
X99355000Y-69304999D01*
X99355000Y-68555001D01*
X99354999Y-68555000D01*
X99080013Y-68555000D01*
X98977312Y-68565492D01*
X98977300Y-68565495D01*
X98810875Y-68620643D01*
X98661659Y-68712680D01*
X98537682Y-68836657D01*
X98466194Y-68952558D01*
X98419552Y-68992159D01*
X98358542Y-68996782D01*
X98306466Y-68964661D01*
X98302680Y-68959914D01*
X98256192Y-68897815D01*
X98256184Y-68897807D01*
X98141090Y-68811647D01*
X98141088Y-68811646D01*
X98006381Y-68761403D01*
X98006370Y-68761401D01*
X97946824Y-68755000D01*
X97549001Y-68755000D01*
X97549000Y-68755001D01*
X97049000Y-68755001D01*
X97048999Y-68755000D01*
X96651176Y-68755000D01*
X96591629Y-68761401D01*
X96591618Y-68761403D01*
X96456911Y-68811646D01*
X96456909Y-68811647D01*
X96341815Y-68897807D01*
X96341807Y-68897815D01*
X96255647Y-69012909D01*
X96255646Y-69012911D01*
X96203238Y-69153426D01*
X96201616Y-69152821D01*
X96174003Y-69198224D01*
X96117553Y-69221827D01*
X96058011Y-69207743D01*
X96018119Y-69161350D01*
X96010495Y-69125926D01*
X96000000Y-68750000D01*
X91099000Y-68750000D01*
X91040809Y-68731093D01*
X91004845Y-68681593D01*
X91000000Y-68651000D01*
X91000000Y-64595725D01*
X91821500Y-64595725D01*
X91821500Y-65204274D01*
X91824353Y-65234694D01*
X91824355Y-65234703D01*
X91869207Y-65362883D01*
X91949845Y-65472144D01*
X91949847Y-65472146D01*
X91949850Y-65472150D01*
X91949853Y-65472152D01*
X91949855Y-65472154D01*
X92059116Y-65552792D01*
X92059117Y-65552792D01*
X92059118Y-65552793D01*
X92187301Y-65597646D01*
X92217725Y-65600499D01*
X92217727Y-65600500D01*
X92217734Y-65600500D01*
X92247500Y-65600500D01*
X92262412Y-65605345D01*
X92278093Y-65605345D01*
X92290778Y-65614561D01*
X92305691Y-65619407D01*
X92314907Y-65632092D01*
X92327593Y-65641309D01*
X92332438Y-65656221D01*
X92341655Y-65668907D01*
X92346500Y-65699500D01*
X92346500Y-65880968D01*
X92327593Y-65939159D01*
X92317506Y-65950969D01*
X92306492Y-65961983D01*
X92306487Y-65961989D01*
X92234017Y-66087510D01*
X92196500Y-66227525D01*
X92196500Y-66372474D01*
X92234017Y-66512489D01*
X92306487Y-66638010D01*
X92306489Y-66638012D01*
X92306491Y-66638015D01*
X92408985Y-66740509D01*
X92408987Y-66740510D01*
X92408989Y-66740512D01*
X92534511Y-66812982D01*
X92534512Y-66812982D01*
X92534515Y-66812984D01*
X92674525Y-66850500D01*
X92674526Y-66850500D01*
X92819474Y-66850500D01*
X92819475Y-66850500D01*
X92959485Y-66812984D01*
X92959487Y-66812982D01*
X92959489Y-66812982D01*
X93085010Y-66740512D01*
X93085010Y-66740511D01*
X93085015Y-66740509D01*
X93187509Y-66638015D01*
X93259984Y-66512485D01*
X93297500Y-66372475D01*
X93297500Y-66227525D01*
X93259984Y-66087515D01*
X93259982Y-66087512D01*
X93259982Y-66087510D01*
X93187512Y-65961989D01*
X93187507Y-65961983D01*
X93176494Y-65950969D01*
X93172868Y-65943853D01*
X93166407Y-65939159D01*
X93159242Y-65917109D01*
X93148718Y-65896452D01*
X93147500Y-65880968D01*
X93147500Y-65699500D01*
X93166407Y-65641309D01*
X93215907Y-65605345D01*
X93246500Y-65600500D01*
X93276273Y-65600500D01*
X93276273Y-65600499D01*
X93306699Y-65597646D01*
X93434882Y-65552793D01*
X93544150Y-65472150D01*
X93624793Y-65362882D01*
X93669646Y-65234699D01*
X93672499Y-65204273D01*
X93672500Y-65204273D01*
X93672500Y-64595727D01*
X93672499Y-64595725D01*
X95123500Y-64595725D01*
X95123500Y-65204274D01*
X95126353Y-65234694D01*
X95126355Y-65234703D01*
X95171207Y-65362883D01*
X95251845Y-65472144D01*
X95251847Y-65472146D01*
X95251850Y-65472150D01*
X95251853Y-65472152D01*
X95251855Y-65472154D01*
X95361116Y-65552792D01*
X95361117Y-65552792D01*
X95361118Y-65552793D01*
X95489301Y-65597646D01*
X95519725Y-65600499D01*
X95519727Y-65600500D01*
X95519734Y-65600500D01*
X95549500Y-65600500D01*
X95564412Y-65605345D01*
X95580093Y-65605345D01*
X95592778Y-65614561D01*
X95607691Y-65619407D01*
X95616907Y-65632092D01*
X95629593Y-65641309D01*
X95634438Y-65656221D01*
X95643655Y-65668907D01*
X95648500Y-65699500D01*
X95648500Y-65880968D01*
X95629593Y-65939159D01*
X95619506Y-65950969D01*
X95608492Y-65961983D01*
X95608487Y-65961989D01*
X95536017Y-66087510D01*
X95498500Y-66227525D01*
X95498500Y-66372474D01*
X95536017Y-66512489D01*
X95608487Y-66638010D01*
X95608489Y-66638012D01*
X95608491Y-66638015D01*
X95710985Y-66740509D01*
X95710987Y-66740510D01*
X95710989Y-66740512D01*
X95836511Y-66812982D01*
X95836512Y-66812982D01*
X95836515Y-66812984D01*
X95976525Y-66850500D01*
X95976526Y-66850500D01*
X96121474Y-66850500D01*
X96121475Y-66850500D01*
X96261485Y-66812984D01*
X96261487Y-66812982D01*
X96261489Y-66812982D01*
X96387010Y-66740512D01*
X96387010Y-66740511D01*
X96387015Y-66740509D01*
X96489509Y-66638015D01*
X96561984Y-66512485D01*
X96599500Y-66372475D01*
X96599500Y-66227525D01*
X96561984Y-66087515D01*
X96561982Y-66087512D01*
X96561982Y-66087510D01*
X96489512Y-65961989D01*
X96489507Y-65961983D01*
X96478494Y-65950969D01*
X96474868Y-65943853D01*
X96468407Y-65939159D01*
X96461242Y-65917109D01*
X96450718Y-65896452D01*
X96449500Y-65880968D01*
X96449500Y-65699500D01*
X96468407Y-65641309D01*
X96517907Y-65605345D01*
X96548500Y-65600500D01*
X96578273Y-65600500D01*
X96578273Y-65600499D01*
X96608699Y-65597646D01*
X96736882Y-65552793D01*
X96846150Y-65472150D01*
X96926793Y-65362882D01*
X96971646Y-65234699D01*
X96974499Y-65204273D01*
X96974500Y-65204273D01*
X96974500Y-64595727D01*
X96974499Y-64595725D01*
X96971646Y-64565305D01*
X96971646Y-64565301D01*
X96926793Y-64437118D01*
X96846150Y-64327850D01*
X96846146Y-64327847D01*
X96846144Y-64327845D01*
X96736883Y-64247207D01*
X96608703Y-64202355D01*
X96608694Y-64202353D01*
X96578274Y-64199500D01*
X96578266Y-64199500D01*
X95519734Y-64199500D01*
X95519725Y-64199500D01*
X95489305Y-64202353D01*
X95489296Y-64202355D01*
X95361116Y-64247207D01*
X95251855Y-64327845D01*
X95251845Y-64327855D01*
X95171207Y-64437116D01*
X95126355Y-64565296D01*
X95126353Y-64565305D01*
X95123500Y-64595725D01*
X93672499Y-64595725D01*
X93669646Y-64565305D01*
X93669646Y-64565301D01*
X93624793Y-64437118D01*
X93544150Y-64327850D01*
X93544146Y-64327847D01*
X93544144Y-64327845D01*
X93434883Y-64247207D01*
X93306703Y-64202355D01*
X93306694Y-64202353D01*
X93276274Y-64199500D01*
X93276266Y-64199500D01*
X92217734Y-64199500D01*
X92217725Y-64199500D01*
X92187305Y-64202353D01*
X92187296Y-64202355D01*
X92059116Y-64247207D01*
X91949855Y-64327845D01*
X91949845Y-64327855D01*
X91869207Y-64437116D01*
X91824355Y-64565296D01*
X91824353Y-64565305D01*
X91821500Y-64595725D01*
X91000000Y-64595725D01*
X91000000Y-63250001D01*
X91522001Y-63250001D01*
X91522001Y-63299986D01*
X91532492Y-63402687D01*
X91532495Y-63402699D01*
X91587643Y-63569124D01*
X91679680Y-63718340D01*
X91803659Y-63842319D01*
X91952875Y-63934356D01*
X92119306Y-63989506D01*
X92222013Y-63999999D01*
X92496998Y-63999999D01*
X92497000Y-63999998D01*
X92497000Y-63250001D01*
X92997000Y-63250001D01*
X92997000Y-63999998D01*
X92997001Y-63999999D01*
X93271986Y-63999999D01*
X93374687Y-63989507D01*
X93374699Y-63989504D01*
X93541124Y-63934356D01*
X93690340Y-63842319D01*
X93814319Y-63718340D01*
X93906356Y-63569124D01*
X93961506Y-63402693D01*
X93972000Y-63299987D01*
X93972000Y-63250001D01*
X94824001Y-63250001D01*
X94824001Y-63299986D01*
X94834492Y-63402687D01*
X94834495Y-63402699D01*
X94889643Y-63569124D01*
X94981680Y-63718340D01*
X95105659Y-63842319D01*
X95254875Y-63934356D01*
X95421306Y-63989506D01*
X95524013Y-63999999D01*
X95798998Y-63999999D01*
X95799000Y-63999998D01*
X95799000Y-63250001D01*
X96299000Y-63250001D01*
X96299000Y-63999998D01*
X96299001Y-63999999D01*
X96573986Y-63999999D01*
X96676687Y-63989507D01*
X96676699Y-63989504D01*
X96843124Y-63934356D01*
X96992340Y-63842319D01*
X97116319Y-63718340D01*
X97208356Y-63569124D01*
X97263506Y-63402693D01*
X97274000Y-63299987D01*
X97274000Y-63250001D01*
X97273999Y-63250000D01*
X96299001Y-63250000D01*
X96299000Y-63250001D01*
X95799000Y-63250001D01*
X95798999Y-63250000D01*
X94824002Y-63250000D01*
X94824001Y-63250001D01*
X93972000Y-63250001D01*
X93971999Y-63250000D01*
X92997001Y-63250000D01*
X92997000Y-63250001D01*
X92497000Y-63250001D01*
X92496999Y-63250000D01*
X91522002Y-63250000D01*
X91522001Y-63250001D01*
X91000000Y-63250001D01*
X91000000Y-62700012D01*
X91522000Y-62700012D01*
X91522000Y-62749999D01*
X91522001Y-62750000D01*
X92496999Y-62750000D01*
X92497000Y-62749999D01*
X92497000Y-62000001D01*
X92997000Y-62000001D01*
X92997000Y-62749999D01*
X92997001Y-62750000D01*
X93971998Y-62750000D01*
X93971999Y-62749999D01*
X93971999Y-62700013D01*
X93961507Y-62597312D01*
X93961504Y-62597300D01*
X93906356Y-62430875D01*
X93814319Y-62281659D01*
X93690340Y-62157680D01*
X93541124Y-62065643D01*
X93374693Y-62010493D01*
X93271987Y-62000000D01*
X92997001Y-62000000D01*
X92997000Y-62000001D01*
X92497000Y-62000001D01*
X92496999Y-62000000D01*
X92222013Y-62000000D01*
X92119312Y-62010492D01*
X92119300Y-62010495D01*
X91952875Y-62065643D01*
X91803659Y-62157680D01*
X91679680Y-62281659D01*
X91587643Y-62430875D01*
X91532493Y-62597306D01*
X91522000Y-62700012D01*
X91000000Y-62700012D01*
X91000000Y-61699000D01*
X91018907Y-61640809D01*
X91068407Y-61604845D01*
X91099000Y-61600000D01*
X94999999Y-61600000D01*
X95000000Y-61600000D01*
X95000000Y-60999500D01*
X95018907Y-60941309D01*
X95068407Y-60905345D01*
X95099000Y-60900500D01*
X95689561Y-60900500D01*
X95689562Y-60900500D01*
X95708967Y-60895300D01*
X95770066Y-60898500D01*
G37*
%TD.AperFunction*%
%TD*%
%TA.AperFunction,Conductor*%
%TO.N,GND*%
G36*
X105543039Y-62819685D02*
G01*
X105588794Y-62872489D01*
X105600000Y-62924000D01*
X105600000Y-65976000D01*
X105580315Y-66043039D01*
X105527511Y-66088794D01*
X105476000Y-66100000D01*
X102224000Y-66100000D01*
X102156961Y-66080315D01*
X102111206Y-66027511D01*
X102100000Y-65976000D01*
X102100000Y-65344844D01*
X102404000Y-65344844D01*
X102410401Y-65404372D01*
X102410403Y-65404379D01*
X102460645Y-65539086D01*
X102460649Y-65539093D01*
X102546809Y-65654187D01*
X102546812Y-65654190D01*
X102661906Y-65740350D01*
X102661913Y-65740354D01*
X102796620Y-65790596D01*
X102796627Y-65790598D01*
X102856155Y-65796999D01*
X102856172Y-65797000D01*
X103654000Y-65797000D01*
X104054000Y-65797000D01*
X104851828Y-65797000D01*
X104851844Y-65796999D01*
X104911372Y-65790598D01*
X104911379Y-65790596D01*
X105046086Y-65740354D01*
X105046093Y-65740350D01*
X105161187Y-65654190D01*
X105161190Y-65654187D01*
X105247350Y-65539093D01*
X105247354Y-65539086D01*
X105297596Y-65404379D01*
X105297598Y-65404372D01*
X105303999Y-65344844D01*
X105304000Y-65344827D01*
X105304000Y-65297000D01*
X104054000Y-65297000D01*
X104054000Y-65797000D01*
X103654000Y-65797000D01*
X103654000Y-65297000D01*
X102404000Y-65297000D01*
X102404000Y-65344844D01*
X102100000Y-65344844D01*
X102100000Y-64849155D01*
X102404000Y-64849155D01*
X102404000Y-64897000D01*
X103654000Y-64897000D01*
X104054000Y-64897000D01*
X105304000Y-64897000D01*
X105304000Y-64849172D01*
X105303999Y-64849155D01*
X105297598Y-64789627D01*
X105297596Y-64789620D01*
X105247354Y-64654913D01*
X105247350Y-64654906D01*
X105161190Y-64539812D01*
X105161187Y-64539809D01*
X105046093Y-64453649D01*
X105046086Y-64453645D01*
X104911379Y-64403403D01*
X104911372Y-64403401D01*
X104851844Y-64397000D01*
X104054000Y-64397000D01*
X104054000Y-64897000D01*
X103654000Y-64897000D01*
X103654000Y-64397000D01*
X102856155Y-64397000D01*
X102796627Y-64403401D01*
X102796620Y-64403403D01*
X102661913Y-64453645D01*
X102661906Y-64453649D01*
X102546812Y-64539809D01*
X102546809Y-64539812D01*
X102460649Y-64654906D01*
X102460645Y-64654913D01*
X102410403Y-64789620D01*
X102410401Y-64789627D01*
X102404000Y-64849155D01*
X102100000Y-64849155D01*
X102100000Y-64121500D01*
X102119685Y-64054461D01*
X102172489Y-64008706D01*
X102224000Y-63997500D01*
X102664033Y-63997500D01*
X102731072Y-64017185D01*
X102751714Y-64033819D01*
X102759446Y-64041551D01*
X102825769Y-64085867D01*
X102825770Y-64085868D01*
X102884247Y-64097499D01*
X102884250Y-64097500D01*
X102884252Y-64097500D01*
X104823750Y-64097500D01*
X104823751Y-64097499D01*
X104838568Y-64094552D01*
X104882229Y-64085868D01*
X104882229Y-64085867D01*
X104882231Y-64085867D01*
X104948552Y-64041552D01*
X104992867Y-63975231D01*
X104992867Y-63975229D01*
X104992868Y-63975229D01*
X105004499Y-63916752D01*
X105004500Y-63916750D01*
X105004500Y-63477249D01*
X105004499Y-63477247D01*
X104992868Y-63418770D01*
X104992867Y-63418769D01*
X104948552Y-63352447D01*
X104882230Y-63308132D01*
X104882229Y-63308131D01*
X104823752Y-63296500D01*
X104823748Y-63296500D01*
X102884252Y-63296500D01*
X102884247Y-63296500D01*
X102825770Y-63308131D01*
X102825769Y-63308132D01*
X102759446Y-63352448D01*
X102751714Y-63360181D01*
X102690391Y-63393666D01*
X102664033Y-63396500D01*
X102224000Y-63396500D01*
X102156961Y-63376815D01*
X102111206Y-63324011D01*
X102100000Y-63272500D01*
X102100000Y-62924000D01*
X102119685Y-62856961D01*
X102172489Y-62811206D01*
X102224000Y-62800000D01*
X105476000Y-62800000D01*
X105543039Y-62819685D01*
G37*
%TD.AperFunction*%
%TD*%
%TA.AperFunction,Conductor*%
%TO.N,GND*%
G36*
X105543039Y-53919685D02*
G01*
X105588794Y-53972489D01*
X105600000Y-54024000D01*
X105600000Y-57076000D01*
X105580315Y-57143039D01*
X105527511Y-57188794D01*
X105476000Y-57200000D01*
X102491432Y-57200000D01*
X102424393Y-57180315D01*
X102378638Y-57127511D01*
X102368694Y-57058353D01*
X102397719Y-56994797D01*
X102403751Y-56988319D01*
X102712538Y-56679531D01*
X102773859Y-56646048D01*
X102824408Y-56645597D01*
X102884247Y-56657499D01*
X102884250Y-56657500D01*
X102884252Y-56657500D01*
X104823750Y-56657500D01*
X104823751Y-56657499D01*
X104838568Y-56654552D01*
X104882229Y-56645868D01*
X104882229Y-56645867D01*
X104882231Y-56645867D01*
X104948552Y-56601552D01*
X104992867Y-56535231D01*
X104992867Y-56535229D01*
X104992868Y-56535229D01*
X105004499Y-56476752D01*
X105004500Y-56476750D01*
X105004500Y-56037249D01*
X105004499Y-56037247D01*
X104992868Y-55978770D01*
X104992867Y-55978769D01*
X104948552Y-55912447D01*
X104882230Y-55868132D01*
X104882229Y-55868131D01*
X104823752Y-55856500D01*
X104823748Y-55856500D01*
X102884252Y-55856500D01*
X102884247Y-55856500D01*
X102825770Y-55868131D01*
X102825769Y-55868132D01*
X102759446Y-55912448D01*
X102751714Y-55920181D01*
X102690391Y-55953666D01*
X102678532Y-55954941D01*
X102678598Y-55955439D01*
X102670538Y-55956500D01*
X102594110Y-55976978D01*
X102525589Y-56016540D01*
X102525586Y-56016542D01*
X102311681Y-56230448D01*
X102250358Y-56263933D01*
X102180666Y-56258949D01*
X102124733Y-56217077D01*
X102100316Y-56151613D01*
X102100000Y-56142767D01*
X102100000Y-55104844D01*
X102404000Y-55104844D01*
X102410401Y-55164372D01*
X102410403Y-55164379D01*
X102460645Y-55299086D01*
X102460649Y-55299093D01*
X102546809Y-55414187D01*
X102546812Y-55414190D01*
X102661906Y-55500350D01*
X102661913Y-55500354D01*
X102796620Y-55550596D01*
X102796627Y-55550598D01*
X102856155Y-55556999D01*
X102856172Y-55557000D01*
X103654000Y-55557000D01*
X104054000Y-55557000D01*
X104851828Y-55557000D01*
X104851844Y-55556999D01*
X104911372Y-55550598D01*
X104911379Y-55550596D01*
X105046086Y-55500354D01*
X105046093Y-55500350D01*
X105161187Y-55414190D01*
X105161190Y-55414187D01*
X105247350Y-55299093D01*
X105247354Y-55299086D01*
X105297596Y-55164379D01*
X105297598Y-55164372D01*
X105303999Y-55104844D01*
X105304000Y-55104827D01*
X105304000Y-55057000D01*
X104054000Y-55057000D01*
X104054000Y-55557000D01*
X103654000Y-55557000D01*
X103654000Y-55057000D01*
X102404000Y-55057000D01*
X102404000Y-55104844D01*
X102100000Y-55104844D01*
X102100000Y-54609155D01*
X102404000Y-54609155D01*
X102404000Y-54657000D01*
X103654000Y-54657000D01*
X104054000Y-54657000D01*
X105304000Y-54657000D01*
X105304000Y-54609172D01*
X105303999Y-54609155D01*
X105297598Y-54549627D01*
X105297596Y-54549620D01*
X105247354Y-54414913D01*
X105247350Y-54414906D01*
X105161190Y-54299812D01*
X105161187Y-54299809D01*
X105046093Y-54213649D01*
X105046086Y-54213645D01*
X104911379Y-54163403D01*
X104911372Y-54163401D01*
X104851844Y-54157000D01*
X104054000Y-54157000D01*
X104054000Y-54657000D01*
X103654000Y-54657000D01*
X103654000Y-54157000D01*
X102856155Y-54157000D01*
X102796627Y-54163401D01*
X102796620Y-54163403D01*
X102661913Y-54213645D01*
X102661906Y-54213649D01*
X102546812Y-54299809D01*
X102546809Y-54299812D01*
X102460649Y-54414906D01*
X102460645Y-54414913D01*
X102410403Y-54549620D01*
X102410401Y-54549627D01*
X102404000Y-54609155D01*
X102100000Y-54609155D01*
X102100000Y-54024000D01*
X102119685Y-53956961D01*
X102172489Y-53911206D01*
X102224000Y-53900000D01*
X105476000Y-53900000D01*
X105543039Y-53919685D01*
G37*
%TD.AperFunction*%
%TD*%
M02*
