%TF.GenerationSoftware,KiCad,Pcbnew,9.0.7*%
%TF.CreationDate,2026-07-29T13:07:00-07:00*%
%TF.ProjectId,HR_Sp02_Sensor,48525f53-7030-4325-9f53-656e736f722e,rev?*%
%TF.SameCoordinates,Original*%
%TF.FileFunction,Copper,L3,Inr*%
%TF.FilePolarity,Positive*%
%FSLAX46Y46*%
G04 Gerber Fmt 4.6, Leading zero omitted, Abs format (unit mm)*
G04 Created by KiCad (PCBNEW 9.0.7) date 2026-07-29 13:07:00*
%MOMM*%
%LPD*%
G01*
G04 APERTURE LIST*
%TA.AperFunction,ComponentPad*%
%ADD10R,1.700000X1.700000*%
%TD*%
%TA.AperFunction,ComponentPad*%
%ADD11C,1.700000*%
%TD*%
%TA.AperFunction,ViaPad*%
%ADD12C,0.700000*%
%TD*%
G04 APERTURE END LIST*
D10*
%TO.N,CSB*%
%TO.C,J1*%
X86750000Y-48595000D03*
D11*
%TO.N,SDI*%
X86750000Y-51135000D03*
%TO.N,SDO*%
X86750000Y-53675000D03*
%TO.N,SCLK*%
X86750000Y-56215000D03*
%TO.N,unconnected-(J1-Pin_5-Pad5)*%
X86750000Y-58755000D03*
%TO.N,unconnected-(J1-Pin_6-Pad6)*%
X86750000Y-61295000D03*
%TO.N,unconnected-(J1-Pin_7-Pad7)*%
X86750000Y-63835000D03*
%TO.N,unconnected-(J1-Pin_8-Pad8)*%
X86750000Y-66375000D03*
%TO.N,GND*%
X86750000Y-68915000D03*
%TO.N,+3V3*%
X86750000Y-71455000D03*
%TD*%
D12*
%TO.N,GND*%
X99102789Y-60783551D03*
%TO.N,+1V8*%
X99000000Y-65500000D03*
%TO.N,GND*%
X98200000Y-52250000D03*
X89300000Y-57500000D03*
X96049000Y-72800000D03*
X92500000Y-72800000D03*
X99605000Y-72800000D03*
X96049000Y-66300000D03*
X92747000Y-66300000D03*
%TO.N,/K_GRN*%
X106000000Y-60900000D03*
%TO.N,GND*%
X97400000Y-61800000D03*
X96450000Y-61800000D03*
%TO.N,/K_RED*%
X94400000Y-61000000D03*
%TO.N,/K_GRN*%
X94400000Y-59400000D03*
%TO.N,/K_IR*%
X93600000Y-60200000D03*
%TO.N,/K_RED*%
X102600000Y-58200000D03*
%TO.N,/K_IR*%
X102600000Y-62000000D03*
%TD*%
%TA.AperFunction,Conductor*%
%TO.N,GND*%
G36*
X113504853Y-45300881D02*
G01*
X113677919Y-45314502D01*
X113697128Y-45317545D01*
X113861183Y-45356931D01*
X113879675Y-45362940D01*
X114005347Y-45414994D01*
X114035547Y-45427504D01*
X114052884Y-45436338D01*
X114196725Y-45524484D01*
X114212466Y-45535920D01*
X114340753Y-45645486D01*
X114354513Y-45659246D01*
X114464079Y-45787533D01*
X114475515Y-45803274D01*
X114563661Y-45947115D01*
X114572495Y-45964452D01*
X114637057Y-46120317D01*
X114643070Y-46138823D01*
X114682453Y-46302866D01*
X114685497Y-46322084D01*
X114699118Y-46495146D01*
X114699500Y-46504875D01*
X114699500Y-73495124D01*
X114699118Y-73504853D01*
X114685497Y-73677915D01*
X114682453Y-73697133D01*
X114643070Y-73861176D01*
X114637057Y-73879682D01*
X114572495Y-74035547D01*
X114563661Y-74052884D01*
X114475515Y-74196725D01*
X114464079Y-74212466D01*
X114354513Y-74340753D01*
X114340753Y-74354513D01*
X114212466Y-74464079D01*
X114196725Y-74475515D01*
X114052884Y-74563661D01*
X114035547Y-74572495D01*
X113879682Y-74637057D01*
X113861176Y-74643070D01*
X113697133Y-74682453D01*
X113677915Y-74685497D01*
X113504854Y-74699118D01*
X113495125Y-74699500D01*
X86504875Y-74699500D01*
X86495146Y-74699118D01*
X86322084Y-74685497D01*
X86302866Y-74682453D01*
X86138823Y-74643070D01*
X86120317Y-74637057D01*
X85964452Y-74572495D01*
X85947115Y-74563661D01*
X85803274Y-74475515D01*
X85787533Y-74464079D01*
X85659246Y-74354513D01*
X85645486Y-74340753D01*
X85535920Y-74212466D01*
X85524484Y-74196725D01*
X85436338Y-74052884D01*
X85427504Y-74035547D01*
X85414994Y-74005347D01*
X85362940Y-73879675D01*
X85356931Y-73861183D01*
X85317545Y-73697128D01*
X85314502Y-73677915D01*
X85300882Y-73504853D01*
X85300500Y-73495124D01*
X85300500Y-69560323D01*
X85320185Y-69493284D01*
X85372989Y-69447529D01*
X85442147Y-69437585D01*
X85505703Y-69466610D01*
X85534985Y-69504028D01*
X85595375Y-69622550D01*
X85634728Y-69676716D01*
X86267037Y-69044408D01*
X86284075Y-69107993D01*
X86349901Y-69222007D01*
X86442993Y-69315099D01*
X86557007Y-69380925D01*
X86620590Y-69397962D01*
X85988282Y-70030269D01*
X85988282Y-70030270D01*
X86042449Y-70069624D01*
X86231782Y-70166095D01*
X86407973Y-70223343D01*
X86465648Y-70262780D01*
X86492847Y-70327139D01*
X86480932Y-70395985D01*
X86433688Y-70447461D01*
X86417108Y-70455835D01*
X86252403Y-70524057D01*
X86080342Y-70639024D01*
X85934024Y-70785342D01*
X85819058Y-70957403D01*
X85739870Y-71148579D01*
X85739868Y-71148587D01*
X85699500Y-71351530D01*
X85699500Y-71558469D01*
X85739868Y-71761412D01*
X85739870Y-71761420D01*
X85819058Y-71952596D01*
X85934024Y-72124657D01*
X86080342Y-72270975D01*
X86080345Y-72270977D01*
X86252402Y-72385941D01*
X86443580Y-72465130D01*
X86646530Y-72505499D01*
X86646534Y-72505500D01*
X86646535Y-72505500D01*
X86853466Y-72505500D01*
X86853467Y-72505499D01*
X87056420Y-72465130D01*
X87247598Y-72385941D01*
X87419655Y-72270977D01*
X87565977Y-72124655D01*
X87680941Y-71952598D01*
X87760130Y-71761420D01*
X87800500Y-71558465D01*
X87800500Y-71351535D01*
X87760130Y-71148580D01*
X87680941Y-70957402D01*
X87565977Y-70785345D01*
X87565975Y-70785342D01*
X87419657Y-70639024D01*
X87333626Y-70581541D01*
X87247598Y-70524059D01*
X87247593Y-70524057D01*
X87185891Y-70498499D01*
X87082890Y-70455834D01*
X87028488Y-70411994D01*
X87006423Y-70345700D01*
X87023702Y-70278001D01*
X87074839Y-70230390D01*
X87092026Y-70223343D01*
X87268217Y-70166095D01*
X87457554Y-70069622D01*
X87511716Y-70030270D01*
X87511717Y-70030270D01*
X86879408Y-69397962D01*
X86942993Y-69380925D01*
X87057007Y-69315099D01*
X87150099Y-69222007D01*
X87215925Y-69107993D01*
X87232962Y-69044408D01*
X87865270Y-69676717D01*
X87865270Y-69676716D01*
X87904622Y-69622554D01*
X88001095Y-69433217D01*
X88066757Y-69231130D01*
X88066757Y-69231127D01*
X88100000Y-69021246D01*
X88100000Y-68808753D01*
X88066757Y-68598872D01*
X88066757Y-68598869D01*
X88001095Y-68396782D01*
X87904624Y-68207449D01*
X87865270Y-68153282D01*
X87865269Y-68153282D01*
X87232962Y-68785590D01*
X87215925Y-68722007D01*
X87150099Y-68607993D01*
X87057007Y-68514901D01*
X86942993Y-68449075D01*
X86879409Y-68432037D01*
X87511716Y-67799728D01*
X87457550Y-67760375D01*
X87268216Y-67663904D01*
X87092026Y-67606656D01*
X87034350Y-67567218D01*
X87007152Y-67502860D01*
X87019067Y-67434013D01*
X87066311Y-67382538D01*
X87082882Y-67374168D01*
X87247598Y-67305941D01*
X87419655Y-67190977D01*
X87565977Y-67044655D01*
X87680941Y-66872598D01*
X87760130Y-66681420D01*
X87800500Y-66478465D01*
X87800500Y-66271535D01*
X87760130Y-66068580D01*
X87680941Y-65877402D01*
X87565977Y-65705345D01*
X87565975Y-65705342D01*
X87419657Y-65559024D01*
X87394219Y-65542027D01*
X87364994Y-65522500D01*
X87364993Y-65522498D01*
X87247599Y-65444059D01*
X87207682Y-65427525D01*
X98449500Y-65427525D01*
X98449500Y-65572475D01*
X98485102Y-65705342D01*
X98487017Y-65712488D01*
X98559488Y-65838011D01*
X98559490Y-65838013D01*
X98559491Y-65838015D01*
X98661985Y-65940509D01*
X98661986Y-65940510D01*
X98661988Y-65940511D01*
X98787511Y-66012982D01*
X98787512Y-66012982D01*
X98787515Y-66012984D01*
X98927525Y-66050500D01*
X98927528Y-66050500D01*
X99072472Y-66050500D01*
X99072475Y-66050500D01*
X99212485Y-66012984D01*
X99338015Y-65940509D01*
X99440509Y-65838015D01*
X99512984Y-65712485D01*
X99550500Y-65572475D01*
X99550500Y-65427525D01*
X99512984Y-65287515D01*
X99440509Y-65161985D01*
X99338015Y-65059491D01*
X99338013Y-65059490D01*
X99338011Y-65059488D01*
X99212488Y-64987017D01*
X99212489Y-64987017D01*
X99201006Y-64983940D01*
X99072475Y-64949500D01*
X98927525Y-64949500D01*
X98798993Y-64983940D01*
X98787511Y-64987017D01*
X98661988Y-65059488D01*
X98661982Y-65059493D01*
X98559493Y-65161982D01*
X98559488Y-65161988D01*
X98487017Y-65287511D01*
X98487016Y-65287515D01*
X98449500Y-65427525D01*
X87207682Y-65427525D01*
X87056420Y-65364870D01*
X87056412Y-65364868D01*
X86853469Y-65324500D01*
X86853465Y-65324500D01*
X86646535Y-65324500D01*
X86646530Y-65324500D01*
X86443587Y-65364868D01*
X86443579Y-65364870D01*
X86252403Y-65444058D01*
X86080342Y-65559024D01*
X85934024Y-65705342D01*
X85819058Y-65877403D01*
X85739870Y-66068579D01*
X85739868Y-66068587D01*
X85699500Y-66271530D01*
X85699500Y-66478469D01*
X85739868Y-66681412D01*
X85739870Y-66681420D01*
X85819058Y-66872596D01*
X85934024Y-67044657D01*
X86080342Y-67190975D01*
X86252405Y-67305943D01*
X86355043Y-67348456D01*
X86417108Y-67374164D01*
X86471511Y-67418005D01*
X86493576Y-67484299D01*
X86476297Y-67551998D01*
X86425160Y-67599609D01*
X86407974Y-67606656D01*
X86231781Y-67663905D01*
X86042439Y-67760380D01*
X85988282Y-67799727D01*
X85988282Y-67799728D01*
X86620591Y-68432037D01*
X86557007Y-68449075D01*
X86442993Y-68514901D01*
X86349901Y-68607993D01*
X86284075Y-68722007D01*
X86267037Y-68785591D01*
X85634728Y-68153282D01*
X85634727Y-68153282D01*
X85595380Y-68207440D01*
X85595378Y-68207443D01*
X85534984Y-68325972D01*
X85487010Y-68376767D01*
X85419189Y-68393562D01*
X85353054Y-68371024D01*
X85309603Y-68316309D01*
X85300500Y-68269676D01*
X85300500Y-63731530D01*
X85699500Y-63731530D01*
X85699500Y-63938469D01*
X85739868Y-64141412D01*
X85739870Y-64141420D01*
X85819058Y-64332596D01*
X85934024Y-64504657D01*
X86080342Y-64650975D01*
X86080345Y-64650977D01*
X86252402Y-64765941D01*
X86443580Y-64845130D01*
X86646530Y-64885499D01*
X86646534Y-64885500D01*
X86646535Y-64885500D01*
X86853466Y-64885500D01*
X86853467Y-64885499D01*
X87056420Y-64845130D01*
X87247598Y-64765941D01*
X87419655Y-64650977D01*
X87565977Y-64504655D01*
X87680941Y-64332598D01*
X87760130Y-64141420D01*
X87800500Y-63938465D01*
X87800500Y-63731535D01*
X87760130Y-63528580D01*
X87680941Y-63337402D01*
X87565977Y-63165345D01*
X87565975Y-63165342D01*
X87419657Y-63019024D01*
X87333626Y-62961541D01*
X87247598Y-62904059D01*
X87056420Y-62824870D01*
X87056412Y-62824868D01*
X86853469Y-62784500D01*
X86853465Y-62784500D01*
X86646535Y-62784500D01*
X86646530Y-62784500D01*
X86443587Y-62824868D01*
X86443579Y-62824870D01*
X86252403Y-62904058D01*
X86080342Y-63019024D01*
X85934024Y-63165342D01*
X85819058Y-63337403D01*
X85739870Y-63528579D01*
X85739868Y-63528587D01*
X85699500Y-63731530D01*
X85300500Y-63731530D01*
X85300500Y-61191530D01*
X85699500Y-61191530D01*
X85699500Y-61398469D01*
X85739868Y-61601412D01*
X85739870Y-61601420D01*
X85819058Y-61792596D01*
X85934024Y-61964657D01*
X86080342Y-62110975D01*
X86080345Y-62110977D01*
X86252402Y-62225941D01*
X86443580Y-62305130D01*
X86626345Y-62341484D01*
X86646530Y-62345499D01*
X86646534Y-62345500D01*
X86646535Y-62345500D01*
X86853466Y-62345500D01*
X86853467Y-62345499D01*
X87056420Y-62305130D01*
X87247598Y-62225941D01*
X87419655Y-62110977D01*
X87565977Y-61964655D01*
X87675995Y-61800000D01*
X96850251Y-61800000D01*
X96850753Y-61833239D01*
X96858766Y-61899231D01*
X96874675Y-61963776D01*
X96874677Y-61963783D01*
X96874679Y-61963789D01*
X96898245Y-62025926D01*
X96898248Y-62025933D01*
X96917180Y-62062007D01*
X96922674Y-62072475D01*
X96929141Y-62084796D01*
X96966905Y-62139505D01*
X97010987Y-62189264D01*
X97060746Y-62233346D01*
X97115455Y-62271110D01*
X97174318Y-62302003D01*
X97182566Y-62305131D01*
X97236461Y-62325571D01*
X97236467Y-62325573D01*
X97236475Y-62325576D01*
X97301020Y-62341485D01*
X97360563Y-62348715D01*
X97367011Y-62349498D01*
X97367012Y-62349498D01*
X97433491Y-62349498D01*
X97439364Y-62348784D01*
X97499482Y-62341485D01*
X97564027Y-62325576D01*
X97626184Y-62302003D01*
X97685047Y-62271110D01*
X97739756Y-62233346D01*
X97789515Y-62189264D01*
X97833597Y-62139505D01*
X97871361Y-62084796D01*
X97902254Y-62025933D01*
X97925827Y-61963776D01*
X97934762Y-61927525D01*
X102049500Y-61927525D01*
X102049500Y-62072475D01*
X102080794Y-62189263D01*
X102087017Y-62212488D01*
X102159488Y-62338011D01*
X102159490Y-62338013D01*
X102159491Y-62338015D01*
X102261985Y-62440509D01*
X102261986Y-62440510D01*
X102261988Y-62440511D01*
X102387511Y-62512982D01*
X102387512Y-62512982D01*
X102387515Y-62512984D01*
X102527525Y-62550500D01*
X102527528Y-62550500D01*
X102672472Y-62550500D01*
X102672475Y-62550500D01*
X102812485Y-62512984D01*
X102938015Y-62440509D01*
X103040509Y-62338015D01*
X103112984Y-62212485D01*
X103150500Y-62072475D01*
X103150500Y-61927525D01*
X103112984Y-61787515D01*
X103101000Y-61766759D01*
X103040511Y-61661988D01*
X103040506Y-61661982D01*
X102938017Y-61559493D01*
X102938011Y-61559488D01*
X102812488Y-61487017D01*
X102812489Y-61487017D01*
X102801006Y-61483940D01*
X102672475Y-61449500D01*
X102527525Y-61449500D01*
X102398993Y-61483940D01*
X102387511Y-61487017D01*
X102261988Y-61559488D01*
X102261982Y-61559493D01*
X102159493Y-61661982D01*
X102159488Y-61661988D01*
X102087017Y-61787511D01*
X102085654Y-61792598D01*
X102049500Y-61927525D01*
X97934762Y-61927525D01*
X97941736Y-61899231D01*
X97949749Y-61833239D01*
X97949749Y-61766761D01*
X97941736Y-61700769D01*
X97925827Y-61636224D01*
X97902254Y-61574067D01*
X97871361Y-61515204D01*
X97833597Y-61460495D01*
X97789515Y-61410736D01*
X97739756Y-61366654D01*
X97685047Y-61328890D01*
X97685046Y-61328889D01*
X97685044Y-61328888D01*
X97662258Y-61316929D01*
X97626184Y-61297997D01*
X97626179Y-61297995D01*
X97626177Y-61297994D01*
X97564040Y-61274428D01*
X97564034Y-61274426D01*
X97564029Y-61274424D01*
X97564027Y-61274424D01*
X97499482Y-61258515D01*
X97455487Y-61253173D01*
X97433491Y-61250502D01*
X97433490Y-61250502D01*
X97367012Y-61250502D01*
X97367011Y-61250502D01*
X97334016Y-61254508D01*
X97301020Y-61258515D01*
X97236475Y-61274424D01*
X97236467Y-61274426D01*
X97236461Y-61274428D01*
X97174324Y-61297994D01*
X97115457Y-61328888D01*
X97060743Y-61366656D01*
X97010987Y-61410736D01*
X96966907Y-61460492D01*
X96929139Y-61515206D01*
X96898245Y-61574073D01*
X96874679Y-61636210D01*
X96874677Y-61636216D01*
X96874675Y-61636223D01*
X96874675Y-61636224D01*
X96858766Y-61700769D01*
X96850753Y-61766761D01*
X96850251Y-61800000D01*
X87675995Y-61800000D01*
X87680941Y-61792598D01*
X87680942Y-61792596D01*
X87697531Y-61752547D01*
X87718977Y-61700771D01*
X87760130Y-61601420D01*
X87800500Y-61398465D01*
X87800500Y-61191535D01*
X87760130Y-60988580D01*
X87680941Y-60797402D01*
X87565977Y-60625345D01*
X87565975Y-60625342D01*
X87419657Y-60479024D01*
X87320073Y-60412485D01*
X87247598Y-60364059D01*
X87222473Y-60353652D01*
X87056420Y-60284870D01*
X87056412Y-60284868D01*
X86853469Y-60244500D01*
X86853465Y-60244500D01*
X86646535Y-60244500D01*
X86646530Y-60244500D01*
X86443587Y-60284868D01*
X86443579Y-60284870D01*
X86252403Y-60364058D01*
X86080342Y-60479024D01*
X85934024Y-60625342D01*
X85819058Y-60797403D01*
X85739870Y-60988579D01*
X85739868Y-60988587D01*
X85699500Y-61191530D01*
X85300500Y-61191530D01*
X85300500Y-60127525D01*
X93049500Y-60127525D01*
X93049500Y-60272475D01*
X93080192Y-60387016D01*
X93087017Y-60412488D01*
X93159488Y-60538011D01*
X93159490Y-60538013D01*
X93159491Y-60538015D01*
X93261985Y-60640509D01*
X93261986Y-60640510D01*
X93261988Y-60640511D01*
X93387511Y-60712982D01*
X93387512Y-60712982D01*
X93387515Y-60712984D01*
X93527525Y-60750500D01*
X93527528Y-60750500D01*
X93672473Y-60750500D01*
X93672475Y-60750500D01*
X93706839Y-60741292D01*
X93776688Y-60742953D01*
X93834551Y-60782115D01*
X93862056Y-60846343D01*
X93858708Y-60893158D01*
X93849500Y-60927523D01*
X93849500Y-60927525D01*
X93849500Y-61072475D01*
X93887016Y-61212485D01*
X93887017Y-61212488D01*
X93959488Y-61338011D01*
X93959490Y-61338013D01*
X93959491Y-61338015D01*
X94061985Y-61440509D01*
X94061986Y-61440510D01*
X94061988Y-61440511D01*
X94187511Y-61512982D01*
X94187512Y-61512982D01*
X94187515Y-61512984D01*
X94327525Y-61550500D01*
X94327528Y-61550500D01*
X94472472Y-61550500D01*
X94472475Y-61550500D01*
X94612485Y-61512984D01*
X94738015Y-61440509D01*
X94840509Y-61338015D01*
X94912984Y-61212485D01*
X94950500Y-61072475D01*
X94950500Y-60927525D01*
X94912984Y-60787515D01*
X94910695Y-60783551D01*
X98553040Y-60783551D01*
X98553542Y-60816790D01*
X98561555Y-60882782D01*
X98572584Y-60927527D01*
X98577466Y-60947334D01*
X98577468Y-60947340D01*
X98601034Y-61009477D01*
X98601037Y-61009484D01*
X98631930Y-61068347D01*
X98669694Y-61123056D01*
X98713776Y-61172815D01*
X98763535Y-61216897D01*
X98818244Y-61254661D01*
X98877107Y-61285554D01*
X98906376Y-61296654D01*
X98939250Y-61309122D01*
X98939256Y-61309124D01*
X98939264Y-61309127D01*
X99003809Y-61325036D01*
X99063352Y-61332266D01*
X99069800Y-61333049D01*
X99069801Y-61333049D01*
X99136280Y-61333049D01*
X99142153Y-61332335D01*
X99202271Y-61325036D01*
X99266816Y-61309127D01*
X99328973Y-61285554D01*
X99387836Y-61254661D01*
X99442545Y-61216897D01*
X99492304Y-61172815D01*
X99536386Y-61123056D01*
X99574150Y-61068347D01*
X99605043Y-61009484D01*
X99628616Y-60947327D01*
X99644525Y-60882782D01*
X99651235Y-60827525D01*
X105449500Y-60827525D01*
X105449500Y-60972475D01*
X105487016Y-61112485D01*
X105487017Y-61112488D01*
X105559488Y-61238011D01*
X105559490Y-61238013D01*
X105559491Y-61238015D01*
X105661985Y-61340509D01*
X105661986Y-61340510D01*
X105661988Y-61340511D01*
X105787511Y-61412982D01*
X105787512Y-61412982D01*
X105787515Y-61412984D01*
X105927525Y-61450500D01*
X105927528Y-61450500D01*
X106072472Y-61450500D01*
X106072475Y-61450500D01*
X106212485Y-61412984D01*
X106338015Y-61340509D01*
X106440509Y-61238015D01*
X106512984Y-61112485D01*
X106550500Y-60972475D01*
X106550500Y-60827525D01*
X106512984Y-60687515D01*
X106511139Y-60684320D01*
X106440511Y-60561988D01*
X106440506Y-60561982D01*
X106338017Y-60459493D01*
X106338011Y-60459488D01*
X106212488Y-60387017D01*
X106212489Y-60387017D01*
X106201006Y-60383940D01*
X106072475Y-60349500D01*
X105927525Y-60349500D01*
X105798993Y-60383940D01*
X105787511Y-60387017D01*
X105661988Y-60459488D01*
X105661982Y-60459493D01*
X105559493Y-60561982D01*
X105559488Y-60561988D01*
X105487017Y-60687511D01*
X105487016Y-60687515D01*
X105449500Y-60827525D01*
X99651235Y-60827525D01*
X99652538Y-60816790D01*
X99652538Y-60750312D01*
X99651644Y-60742953D01*
X99648005Y-60712982D01*
X99644525Y-60684320D01*
X99628616Y-60619775D01*
X99605043Y-60557618D01*
X99574150Y-60498755D01*
X99536386Y-60444046D01*
X99492304Y-60394287D01*
X99442545Y-60350205D01*
X99387836Y-60312441D01*
X99387835Y-60312440D01*
X99387833Y-60312439D01*
X99365047Y-60300480D01*
X99328973Y-60281548D01*
X99328968Y-60281546D01*
X99328966Y-60281545D01*
X99266829Y-60257979D01*
X99266823Y-60257977D01*
X99266818Y-60257975D01*
X99266816Y-60257975D01*
X99202271Y-60242066D01*
X99158276Y-60236724D01*
X99136280Y-60234053D01*
X99136279Y-60234053D01*
X99069801Y-60234053D01*
X99069800Y-60234053D01*
X99036805Y-60238059D01*
X99003809Y-60242066D01*
X98939264Y-60257975D01*
X98939256Y-60257977D01*
X98939250Y-60257979D01*
X98877113Y-60281545D01*
X98818246Y-60312439D01*
X98763532Y-60350207D01*
X98713776Y-60394287D01*
X98669696Y-60444043D01*
X98631928Y-60498757D01*
X98601034Y-60557624D01*
X98577468Y-60619761D01*
X98577466Y-60619767D01*
X98577464Y-60619774D01*
X98577464Y-60619775D01*
X98567060Y-60661988D01*
X98561555Y-60684322D01*
X98554436Y-60742953D01*
X98553542Y-60750312D01*
X98553040Y-60783551D01*
X94910695Y-60783551D01*
X94840511Y-60661988D01*
X94840506Y-60661982D01*
X94738017Y-60559493D01*
X94738011Y-60559488D01*
X94612488Y-60487017D01*
X94612489Y-60487017D01*
X94601006Y-60483940D01*
X94472475Y-60449500D01*
X94327525Y-60449500D01*
X94327523Y-60449500D01*
X94293158Y-60458708D01*
X94223308Y-60457044D01*
X94165446Y-60417881D01*
X94137943Y-60353652D01*
X94141292Y-60306838D01*
X94150500Y-60272475D01*
X94150500Y-60127525D01*
X94141291Y-60093157D01*
X94142954Y-60023310D01*
X94182116Y-59965448D01*
X94246344Y-59937943D01*
X94293155Y-59941290D01*
X94327525Y-59950500D01*
X94327528Y-59950500D01*
X94472472Y-59950500D01*
X94472475Y-59950500D01*
X94612485Y-59912984D01*
X94738015Y-59840509D01*
X94840509Y-59738015D01*
X94912984Y-59612485D01*
X94950500Y-59472475D01*
X94950500Y-59327525D01*
X94912984Y-59187515D01*
X94840509Y-59061985D01*
X94738015Y-58959491D01*
X94738013Y-58959490D01*
X94738011Y-58959488D01*
X94612488Y-58887017D01*
X94612489Y-58887017D01*
X94601006Y-58883940D01*
X94472475Y-58849500D01*
X94327525Y-58849500D01*
X94198993Y-58883940D01*
X94187511Y-58887017D01*
X94061988Y-58959488D01*
X94061982Y-58959493D01*
X93959493Y-59061982D01*
X93959488Y-59061988D01*
X93887017Y-59187511D01*
X93887016Y-59187515D01*
X93849500Y-59327525D01*
X93849500Y-59327527D01*
X93849500Y-59472476D01*
X93858708Y-59506841D01*
X93857045Y-59576691D01*
X93817882Y-59634553D01*
X93753653Y-59662056D01*
X93706841Y-59658708D01*
X93672476Y-59649500D01*
X93672475Y-59649500D01*
X93527525Y-59649500D01*
X93398993Y-59683940D01*
X93387511Y-59687017D01*
X93261988Y-59759488D01*
X93261982Y-59759493D01*
X93159493Y-59861982D01*
X93159488Y-59861988D01*
X93087017Y-59987511D01*
X93087016Y-59987515D01*
X93049500Y-60127525D01*
X85300500Y-60127525D01*
X85300500Y-58651530D01*
X85699500Y-58651530D01*
X85699500Y-58858469D01*
X85739868Y-59061412D01*
X85739870Y-59061420D01*
X85819058Y-59252596D01*
X85934024Y-59424657D01*
X86080342Y-59570975D01*
X86080345Y-59570977D01*
X86252402Y-59685941D01*
X86443580Y-59765130D01*
X86646530Y-59805499D01*
X86646534Y-59805500D01*
X86646535Y-59805500D01*
X86853466Y-59805500D01*
X86853467Y-59805499D01*
X87056420Y-59765130D01*
X87247598Y-59685941D01*
X87419655Y-59570977D01*
X87565977Y-59424655D01*
X87680941Y-59252598D01*
X87760130Y-59061420D01*
X87800500Y-58858465D01*
X87800500Y-58651535D01*
X87760130Y-58448580D01*
X87680941Y-58257402D01*
X87594161Y-58127525D01*
X102049500Y-58127525D01*
X102049500Y-58272475D01*
X102087016Y-58412485D01*
X102087017Y-58412488D01*
X102159488Y-58538011D01*
X102159490Y-58538013D01*
X102159491Y-58538015D01*
X102261985Y-58640509D01*
X102261986Y-58640510D01*
X102261988Y-58640511D01*
X102387511Y-58712982D01*
X102387512Y-58712982D01*
X102387515Y-58712984D01*
X102527525Y-58750500D01*
X102527528Y-58750500D01*
X102672472Y-58750500D01*
X102672475Y-58750500D01*
X102812485Y-58712984D01*
X102938015Y-58640509D01*
X103040509Y-58538015D01*
X103112984Y-58412485D01*
X103150500Y-58272475D01*
X103150500Y-58127525D01*
X103112984Y-57987515D01*
X103040509Y-57861985D01*
X102938015Y-57759491D01*
X102938013Y-57759490D01*
X102938011Y-57759488D01*
X102812488Y-57687017D01*
X102812489Y-57687017D01*
X102801006Y-57683940D01*
X102672475Y-57649500D01*
X102527525Y-57649500D01*
X102398993Y-57683940D01*
X102387511Y-57687017D01*
X102261988Y-57759488D01*
X102261982Y-57759493D01*
X102159493Y-57861982D01*
X102159488Y-57861988D01*
X102087017Y-57987511D01*
X102087016Y-57987515D01*
X102049500Y-58127525D01*
X87594161Y-58127525D01*
X87565977Y-58085344D01*
X87419657Y-57939024D01*
X87304363Y-57861988D01*
X87247598Y-57824059D01*
X87056420Y-57744870D01*
X87056412Y-57744868D01*
X86853469Y-57704500D01*
X86853465Y-57704500D01*
X86646535Y-57704500D01*
X86646530Y-57704500D01*
X86443587Y-57744868D01*
X86443579Y-57744870D01*
X86252403Y-57824058D01*
X86080342Y-57939024D01*
X85934024Y-58085342D01*
X85819058Y-58257403D01*
X85739870Y-58448579D01*
X85739868Y-58448587D01*
X85699500Y-58651530D01*
X85300500Y-58651530D01*
X85300500Y-56111530D01*
X85699500Y-56111530D01*
X85699500Y-56318469D01*
X85739868Y-56521412D01*
X85739870Y-56521420D01*
X85819058Y-56712596D01*
X85934024Y-56884657D01*
X86080342Y-57030975D01*
X86080345Y-57030977D01*
X86252402Y-57145941D01*
X86443580Y-57225130D01*
X86646530Y-57265499D01*
X86646534Y-57265500D01*
X86646535Y-57265500D01*
X86853466Y-57265500D01*
X86853467Y-57265499D01*
X87056420Y-57225130D01*
X87247598Y-57145941D01*
X87419655Y-57030977D01*
X87565977Y-56884655D01*
X87680941Y-56712598D01*
X87760130Y-56521420D01*
X87800500Y-56318465D01*
X87800500Y-56111535D01*
X87760130Y-55908580D01*
X87680941Y-55717402D01*
X87565977Y-55545345D01*
X87565975Y-55545342D01*
X87419657Y-55399024D01*
X87333626Y-55341541D01*
X87247598Y-55284059D01*
X87056420Y-55204870D01*
X87056412Y-55204868D01*
X86853469Y-55164500D01*
X86853465Y-55164500D01*
X86646535Y-55164500D01*
X86646530Y-55164500D01*
X86443587Y-55204868D01*
X86443579Y-55204870D01*
X86252403Y-55284058D01*
X86080342Y-55399024D01*
X85934024Y-55545342D01*
X85819058Y-55717403D01*
X85739870Y-55908579D01*
X85739868Y-55908587D01*
X85699500Y-56111530D01*
X85300500Y-56111530D01*
X85300500Y-53571530D01*
X85699500Y-53571530D01*
X85699500Y-53778469D01*
X85739868Y-53981412D01*
X85739870Y-53981420D01*
X85819058Y-54172596D01*
X85934024Y-54344657D01*
X86080342Y-54490975D01*
X86080345Y-54490977D01*
X86252402Y-54605941D01*
X86443580Y-54685130D01*
X86646530Y-54725499D01*
X86646534Y-54725500D01*
X86646535Y-54725500D01*
X86853466Y-54725500D01*
X86853467Y-54725499D01*
X87056420Y-54685130D01*
X87247598Y-54605941D01*
X87419655Y-54490977D01*
X87565977Y-54344655D01*
X87680941Y-54172598D01*
X87760130Y-53981420D01*
X87800500Y-53778465D01*
X87800500Y-53571535D01*
X87760130Y-53368580D01*
X87680941Y-53177402D01*
X87565977Y-53005345D01*
X87565975Y-53005342D01*
X87419657Y-52859024D01*
X87333626Y-52801541D01*
X87247598Y-52744059D01*
X87056420Y-52664870D01*
X87056412Y-52664868D01*
X86853469Y-52624500D01*
X86853465Y-52624500D01*
X86646535Y-52624500D01*
X86646530Y-52624500D01*
X86443587Y-52664868D01*
X86443579Y-52664870D01*
X86252403Y-52744058D01*
X86080342Y-52859024D01*
X85934024Y-53005342D01*
X85819058Y-53177403D01*
X85739870Y-53368579D01*
X85739868Y-53368587D01*
X85699500Y-53571530D01*
X85300500Y-53571530D01*
X85300500Y-51031530D01*
X85699500Y-51031530D01*
X85699500Y-51238469D01*
X85739868Y-51441412D01*
X85739870Y-51441420D01*
X85819058Y-51632596D01*
X85934024Y-51804657D01*
X86080342Y-51950975D01*
X86080345Y-51950977D01*
X86252402Y-52065941D01*
X86443580Y-52145130D01*
X86646530Y-52185499D01*
X86646534Y-52185500D01*
X86646535Y-52185500D01*
X86853466Y-52185500D01*
X86853467Y-52185499D01*
X87056420Y-52145130D01*
X87247598Y-52065941D01*
X87419655Y-51950977D01*
X87565977Y-51804655D01*
X87680941Y-51632598D01*
X87760130Y-51441420D01*
X87800500Y-51238465D01*
X87800500Y-51031535D01*
X87760130Y-50828580D01*
X87680941Y-50637402D01*
X87565977Y-50465345D01*
X87565975Y-50465342D01*
X87419657Y-50319024D01*
X87333626Y-50261541D01*
X87247598Y-50204059D01*
X87056420Y-50124870D01*
X87056412Y-50124868D01*
X86853469Y-50084500D01*
X86853465Y-50084500D01*
X86646535Y-50084500D01*
X86646530Y-50084500D01*
X86443587Y-50124868D01*
X86443579Y-50124870D01*
X86252403Y-50204058D01*
X86080342Y-50319024D01*
X85934024Y-50465342D01*
X85819058Y-50637403D01*
X85739870Y-50828579D01*
X85739868Y-50828587D01*
X85699500Y-51031530D01*
X85300500Y-51031530D01*
X85300500Y-47725247D01*
X85699500Y-47725247D01*
X85699500Y-49464752D01*
X85711131Y-49523229D01*
X85711132Y-49523230D01*
X85755447Y-49589552D01*
X85821769Y-49633867D01*
X85821770Y-49633868D01*
X85880247Y-49645499D01*
X85880250Y-49645500D01*
X85880252Y-49645500D01*
X87619750Y-49645500D01*
X87619751Y-49645499D01*
X87634568Y-49642552D01*
X87678229Y-49633868D01*
X87678229Y-49633867D01*
X87678231Y-49633867D01*
X87744552Y-49589552D01*
X87788867Y-49523231D01*
X87788867Y-49523229D01*
X87788868Y-49523229D01*
X87800499Y-49464752D01*
X87800500Y-49464750D01*
X87800500Y-47725249D01*
X87800499Y-47725247D01*
X87788868Y-47666770D01*
X87788867Y-47666769D01*
X87744552Y-47600447D01*
X87678230Y-47556132D01*
X87678229Y-47556131D01*
X87619752Y-47544500D01*
X87619748Y-47544500D01*
X85880252Y-47544500D01*
X85880247Y-47544500D01*
X85821770Y-47556131D01*
X85821769Y-47556132D01*
X85755447Y-47600447D01*
X85711132Y-47666769D01*
X85711131Y-47666770D01*
X85699500Y-47725247D01*
X85300500Y-47725247D01*
X85300500Y-46504875D01*
X85300882Y-46495146D01*
X85303614Y-46460438D01*
X85314502Y-46322078D01*
X85317544Y-46302873D01*
X85356932Y-46138812D01*
X85362938Y-46120327D01*
X85427505Y-45964449D01*
X85436338Y-45947115D01*
X85524484Y-45803274D01*
X85535920Y-45787533D01*
X85645492Y-45659239D01*
X85659239Y-45645492D01*
X85787535Y-45535917D01*
X85803274Y-45524484D01*
X85947118Y-45436336D01*
X85964449Y-45427505D01*
X86120327Y-45362938D01*
X86138812Y-45356932D01*
X86302873Y-45317544D01*
X86322078Y-45314502D01*
X86495146Y-45300881D01*
X86504875Y-45300500D01*
X86547595Y-45300500D01*
X113452405Y-45300500D01*
X113495125Y-45300500D01*
X113504853Y-45300881D01*
G37*
%TD.AperFunction*%
%TD*%
M02*
