%TF.GenerationSoftware,KiCad,Pcbnew,9.0.7*%
%TF.CreationDate,2026-07-23T20:17:37-07:00*%
%TF.ProjectId,13ContactFFCtoPins,3133436f-6e74-4616-9374-464643746f50,rev?*%
%TF.SameCoordinates,Original*%
%TF.FileFunction,Copper,L1,Top*%
%TF.FilePolarity,Positive*%
%FSLAX46Y46*%
G04 Gerber Fmt 4.6, Leading zero omitted, Abs format (unit mm)*
G04 Created by KiCad (PCBNEW 9.0.7) date 2026-07-23 20:17:37*
%MOMM*%
%LPD*%
G01*
G04 APERTURE LIST*
%TA.AperFunction,EtchedComponent*%
%ADD10C,0.025400*%
%TD*%
%TA.AperFunction,SMDPad,CuDef*%
%ADD11R,0.800000X0.300000*%
%TD*%
%TA.AperFunction,SMDPad,CuDef*%
%ADD12R,3.050000X1.300000*%
%TD*%
%TA.AperFunction,SMDPad,CuDef*%
%ADD13R,3.683000X1.270000*%
%TD*%
%TA.AperFunction,ViaPad*%
%ADD14C,0.600000*%
%TD*%
%TA.AperFunction,Conductor*%
%ADD15C,0.250000*%
%TD*%
%TA.AperFunction,Conductor*%
%ADD16C,0.500000*%
%TD*%
G04 APERTURE END LIST*
D10*
%TO.C,J3*%
X142965200Y-91990000D02*
X140765200Y-91990000D01*
X140765200Y-90890000D01*
X142965200Y-90890000D01*
X142965200Y-91990000D01*
%TA.AperFunction,EtchedComponent*%
G36*
X142965200Y-91990000D02*
G01*
X140765200Y-91990000D01*
X140765200Y-90890000D01*
X142965200Y-90890000D01*
X142965200Y-91990000D01*
G37*
%TD.AperFunction*%
X142965200Y-104190000D02*
X140765200Y-104190000D01*
X140765200Y-103090000D01*
X142965200Y-103090000D01*
X142965200Y-104190000D01*
%TA.AperFunction,EtchedComponent*%
G36*
X142965200Y-104190000D02*
G01*
X140765200Y-104190000D01*
X140765200Y-103090000D01*
X142965200Y-103090000D01*
X142965200Y-104190000D01*
G37*
%TD.AperFunction*%
%TD*%
D11*
%TO.P,J3,1,1*%
%TO.N,/Pos1*%
X140365200Y-100539990D03*
%TO.P,J3,2,2*%
%TO.N,/Pos2*%
X140365200Y-100039990D03*
%TO.P,J3,3,3*%
%TO.N,/Pos3*%
X140365200Y-99539990D03*
%TO.P,J3,4,4*%
%TO.N,/Pos4*%
X140365200Y-99039990D03*
%TO.P,J3,5,5*%
%TO.N,/Pos5*%
X140365200Y-98539994D03*
%TO.P,J3,6,6*%
%TO.N,/Pos6*%
X140365200Y-98039994D03*
%TO.P,J3,7,7*%
%TO.N,/Pos7*%
X140365200Y-97539994D03*
%TO.P,J3,8,8*%
%TO.N,/Pos8*%
X140365200Y-97039994D03*
%TO.P,J3,9,9*%
%TO.N,/Pos9*%
X140365200Y-96539990D03*
%TO.P,J3,10,10*%
%TO.N,/Pos10*%
X140365200Y-96039990D03*
%TO.P,J3,11,11*%
%TO.N,/Pos11*%
X140365200Y-95539990D03*
%TO.P,J3,12,12*%
%TO.N,/Pos12*%
X140365200Y-95039990D03*
%TO.P,J3,13,13*%
%TO.N,/Pos13*%
X140365200Y-94539990D03*
D12*
%TO.P,J3,P1,P1*%
%TO.N,SHLD*%
X142290200Y-102439990D03*
%TO.P,J3,P2,P2*%
X142290200Y-92640010D03*
%TD*%
D13*
%TO.P,J4,A1,A1*%
%TO.N,/Pos2*%
X128059998Y-105120000D03*
%TO.P,J4,A2,A2*%
%TO.N,/Pos4*%
X128059998Y-102580000D03*
%TO.P,J4,A3,A3*%
%TO.N,/Pos6*%
X128059998Y-100040000D03*
%TO.P,J4,A4,A4*%
%TO.N,/Pos8*%
X128059998Y-97500000D03*
%TO.P,J4,A5,A5*%
%TO.N,/Pos10*%
X128059998Y-94960000D03*
%TO.P,J4,A6,A6*%
%TO.N,/Pos12*%
X128059998Y-92420000D03*
%TO.P,J4,A7,A7*%
%TO.N,SHLD*%
X128059998Y-89880000D03*
%TO.P,J4,B1,B1*%
%TO.N,/Pos1*%
X132500000Y-105120000D03*
%TO.P,J4,B2,B2*%
%TO.N,/Pos3*%
X132500000Y-102580000D03*
%TO.P,J4,B3,B3*%
%TO.N,/Pos5*%
X132500000Y-100040000D03*
%TO.P,J4,B4,B4*%
%TO.N,/Pos7*%
X132500000Y-97500000D03*
%TO.P,J4,B5,B5*%
%TO.N,/Pos9*%
X132500000Y-94960000D03*
%TO.P,J4,B6,B6*%
%TO.N,/Pos11*%
X132500000Y-92420000D03*
%TO.P,J4,B7,B7*%
%TO.N,/Pos13*%
X132500000Y-89880000D03*
%TD*%
D14*
%TO.N,SHLD*%
X143478680Y-105328680D03*
X143478680Y-89628680D03*
X129000000Y-87500000D03*
%TD*%
D15*
%TO.N,/Pos3*%
X139167370Y-99539990D02*
X137878680Y-100828680D01*
X137037360Y-102620000D02*
X132750000Y-102620000D01*
X137878680Y-101778680D02*
X137037360Y-102620000D01*
X140365200Y-99539990D02*
X139167370Y-99539990D01*
X137878680Y-100828680D02*
X137878680Y-101778680D01*
%TO.N,/Pos7*%
X139317366Y-97539994D02*
X139317360Y-97540000D01*
X140365200Y-97539994D02*
X139317366Y-97539994D01*
X139317360Y-97540000D02*
X132750000Y-97540000D01*
%TO.N,/Pos11*%
X138939990Y-95539990D02*
X137678680Y-94278680D01*
X140365200Y-95539990D02*
X138939990Y-95539990D01*
X136560000Y-92460000D02*
X132750000Y-92460000D01*
X137678680Y-94278680D02*
X137678680Y-93578680D01*
X137678680Y-93578680D02*
X136560000Y-92460000D01*
%TO.N,/Pos13*%
X140365200Y-94539990D02*
X139539990Y-94539990D01*
X138878680Y-93878680D02*
X138878680Y-90878680D01*
X139539990Y-94539990D02*
X138878680Y-93878680D01*
X138878680Y-90878680D02*
X137920000Y-89920000D01*
X137920000Y-89920000D02*
X132750000Y-89920000D01*
%TO.N,/Pos9*%
X140365200Y-96539990D02*
X138339990Y-96539990D01*
X136800000Y-95000000D02*
X132750000Y-95000000D01*
X138339990Y-96539990D02*
X136800000Y-95000000D01*
%TO.N,/Pos5*%
X140365200Y-98539994D02*
X138717366Y-98539994D01*
X138717366Y-98539994D02*
X137177360Y-100080000D01*
X137177360Y-100080000D02*
X132750000Y-100080000D01*
%TO.N,/Pos1*%
X139078680Y-101128680D02*
X139078680Y-104278680D01*
X140365200Y-100539990D02*
X139667370Y-100539990D01*
X138197360Y-105160000D02*
X132750000Y-105160000D01*
X139667370Y-100539990D02*
X139078680Y-101128680D01*
X139078680Y-104278680D02*
X138197360Y-105160000D01*
%TO.N,/Pos2*%
X129737360Y-105120000D02*
X127270000Y-105120000D01*
X139425000Y-100039990D02*
X138478680Y-100986310D01*
X137378680Y-103878680D02*
X129301318Y-103878680D01*
X138478680Y-102778680D02*
X137378680Y-103878680D01*
X140365200Y-100039990D02*
X139425000Y-100039990D01*
X129301318Y-103878680D02*
X128059998Y-105120000D01*
X138478680Y-100986310D02*
X138478680Y-102778680D01*
%TO.N,/Pos4*%
X128471320Y-101378680D02*
X136628680Y-101378680D01*
X138967370Y-99039990D02*
X136628680Y-101378680D01*
X128471320Y-101378680D02*
X127270000Y-102580000D01*
X140365200Y-99039990D02*
X138967370Y-99039990D01*
%TO.N,/Pos8*%
X138039994Y-97039994D02*
X137278680Y-96278680D01*
X140365200Y-97039994D02*
X138039994Y-97039994D01*
X128491320Y-96278680D02*
X127270000Y-97500000D01*
X137278680Y-96278680D02*
X128491320Y-96278680D01*
%TO.N,/Pos10*%
X128451320Y-93778680D02*
X127270000Y-94960000D01*
X140365200Y-96039990D02*
X138639990Y-96039990D01*
X138639990Y-96039990D02*
X136378680Y-93778680D01*
X136378680Y-93778680D02*
X128451320Y-93778680D01*
D16*
%TO.N,SHLD*%
X142290200Y-92640010D02*
X142970961Y-92640010D01*
X128059998Y-89880000D02*
X128059998Y-87940002D01*
X128500000Y-87500000D02*
X129000000Y-87500000D01*
X143478680Y-92132291D02*
X143478680Y-89628680D01*
X128059998Y-87940002D02*
X128500000Y-87500000D01*
X142290200Y-102439990D02*
X142970961Y-102439990D01*
X142970961Y-92640010D02*
X143478680Y-92132291D01*
X142970961Y-102439990D02*
X143478680Y-102947709D01*
X143478680Y-102947709D02*
X143478680Y-105328680D01*
D15*
%TO.N,/Pos6*%
X128481320Y-98828680D02*
X127270000Y-100040000D01*
X138467366Y-98039994D02*
X137678680Y-98828680D01*
X137678680Y-98828680D02*
X128481320Y-98828680D01*
X140365200Y-98039994D02*
X138467366Y-98039994D01*
%TO.N,/Pos12*%
X138278680Y-92178680D02*
X137278680Y-91178680D01*
X138278680Y-94078680D02*
X138278680Y-92178680D01*
X139239990Y-95039990D02*
X138278680Y-94078680D01*
X137278680Y-91178680D02*
X128511320Y-91178680D01*
X128511320Y-91178680D02*
X127270000Y-92420000D01*
X140365200Y-95039990D02*
X139239990Y-95039990D01*
%TD*%
M02*
