%TF.GenerationSoftware,KiCad,Pcbnew,9.0.7*%
%TF.CreationDate,2026-07-23T20:17:37-07:00*%
%TF.ProjectId,13ContactFFCtoPins,3133436f-6e74-4616-9374-464643746f50,rev?*%
%TF.SameCoordinates,Original*%
%TF.FileFunction,Paste,Top*%
%TF.FilePolarity,Positive*%
%FSLAX46Y46*%
G04 Gerber Fmt 4.6, Leading zero omitted, Abs format (unit mm)*
G04 Created by KiCad (PCBNEW 9.0.7) date 2026-07-23 20:17:37*
%MOMM*%
%LPD*%
G01*
G04 APERTURE LIST*
%ADD10C,0.025400*%
%ADD11R,0.800000X0.300000*%
%ADD12R,3.050000X1.300000*%
%ADD13R,3.683000X1.270000*%
G04 APERTURE END LIST*
D10*
%TO.C,J3*%
X142965200Y-91990000D02*
X140765200Y-91990000D01*
X140765200Y-90890000D01*
X142965200Y-90890000D01*
X142965200Y-91990000D01*
G36*
X142965200Y-91990000D02*
G01*
X140765200Y-91990000D01*
X140765200Y-90890000D01*
X142965200Y-90890000D01*
X142965200Y-91990000D01*
G37*
X142965200Y-104190000D02*
X140765200Y-104190000D01*
X140765200Y-103090000D01*
X142965200Y-103090000D01*
X142965200Y-104190000D01*
G36*
X142965200Y-104190000D02*
G01*
X140765200Y-104190000D01*
X140765200Y-103090000D01*
X142965200Y-103090000D01*
X142965200Y-104190000D01*
G37*
%TD*%
D11*
%TO.C,J3*%
X140365200Y-100539990D03*
X140365200Y-100039990D03*
X140365200Y-99539990D03*
X140365200Y-99039990D03*
X140365200Y-98539994D03*
X140365200Y-98039994D03*
X140365200Y-97539994D03*
X140365200Y-97039994D03*
X140365200Y-96539990D03*
X140365200Y-96039990D03*
X140365200Y-95539990D03*
X140365200Y-95039990D03*
X140365200Y-94539990D03*
D12*
X142290200Y-102439990D03*
X142290200Y-92640010D03*
%TD*%
D13*
%TO.C,J4*%
X128059998Y-105120000D03*
X128059998Y-102580000D03*
X128059998Y-100040000D03*
X128059998Y-97500000D03*
X128059998Y-94960000D03*
X128059998Y-92420000D03*
X128059998Y-89880000D03*
X132500000Y-105120000D03*
X132500000Y-102580000D03*
X132500000Y-100040000D03*
X132500000Y-97500000D03*
X132500000Y-94960000D03*
X132500000Y-92420000D03*
X132500000Y-89880000D03*
%TD*%
M02*
