%TF.GenerationSoftware,KiCad,Pcbnew,9.0.7*%
%TF.CreationDate,2026-07-23T20:17:37-07:00*%
%TF.ProjectId,13ContactFFCtoPins,3133436f-6e74-4616-9374-464643746f50,rev?*%
%TF.SameCoordinates,Original*%
%TF.FileFunction,Legend,Top*%
%TF.FilePolarity,Positive*%
%FSLAX46Y46*%
G04 Gerber Fmt 4.6, Leading zero omitted, Abs format (unit mm)*
G04 Created by KiCad (PCBNEW 9.0.7) date 2026-07-23 20:17:37*
%MOMM*%
%LPD*%
G01*
G04 APERTURE LIST*
%ADD10C,0.150000*%
%ADD11C,0.152400*%
%ADD12C,0.508000*%
G04 APERTURE END LIST*
D10*
X137663220Y-104688430D02*
X137663220Y-105688430D01*
X137663220Y-105688430D02*
X137282268Y-105688430D01*
X137282268Y-105688430D02*
X137187030Y-105640811D01*
X137187030Y-105640811D02*
X137139411Y-105593192D01*
X137139411Y-105593192D02*
X137091792Y-105497954D01*
X137091792Y-105497954D02*
X137091792Y-105355097D01*
X137091792Y-105355097D02*
X137139411Y-105259859D01*
X137139411Y-105259859D02*
X137187030Y-105212240D01*
X137187030Y-105212240D02*
X137282268Y-105164621D01*
X137282268Y-105164621D02*
X137663220Y-105164621D01*
X136472744Y-105688430D02*
X136377506Y-105688430D01*
X136377506Y-105688430D02*
X136282268Y-105640811D01*
X136282268Y-105640811D02*
X136234649Y-105593192D01*
X136234649Y-105593192D02*
X136187030Y-105497954D01*
X136187030Y-105497954D02*
X136139411Y-105307478D01*
X136139411Y-105307478D02*
X136139411Y-105069383D01*
X136139411Y-105069383D02*
X136187030Y-104878907D01*
X136187030Y-104878907D02*
X136234649Y-104783669D01*
X136234649Y-104783669D02*
X136282268Y-104736050D01*
X136282268Y-104736050D02*
X136377506Y-104688430D01*
X136377506Y-104688430D02*
X136472744Y-104688430D01*
X136472744Y-104688430D02*
X136567982Y-104736050D01*
X136567982Y-104736050D02*
X136615601Y-104783669D01*
X136615601Y-104783669D02*
X136663220Y-104878907D01*
X136663220Y-104878907D02*
X136710839Y-105069383D01*
X136710839Y-105069383D02*
X136710839Y-105307478D01*
X136710839Y-105307478D02*
X136663220Y-105497954D01*
X136663220Y-105497954D02*
X136615601Y-105593192D01*
X136615601Y-105593192D02*
X136567982Y-105640811D01*
X136567982Y-105640811D02*
X136472744Y-105688430D01*
X135187030Y-104688430D02*
X135758458Y-104688430D01*
X135472744Y-104688430D02*
X135472744Y-105688430D01*
X135472744Y-105688430D02*
X135567982Y-105545573D01*
X135567982Y-105545573D02*
X135663220Y-105450335D01*
X135663220Y-105450335D02*
X135758458Y-105402716D01*
X125163220Y-97028430D02*
X125163220Y-98028430D01*
X125163220Y-98028430D02*
X124782268Y-98028430D01*
X124782268Y-98028430D02*
X124687030Y-97980811D01*
X124687030Y-97980811D02*
X124639411Y-97933192D01*
X124639411Y-97933192D02*
X124591792Y-97837954D01*
X124591792Y-97837954D02*
X124591792Y-97695097D01*
X124591792Y-97695097D02*
X124639411Y-97599859D01*
X124639411Y-97599859D02*
X124687030Y-97552240D01*
X124687030Y-97552240D02*
X124782268Y-97504621D01*
X124782268Y-97504621D02*
X125163220Y-97504621D01*
X123972744Y-98028430D02*
X123877506Y-98028430D01*
X123877506Y-98028430D02*
X123782268Y-97980811D01*
X123782268Y-97980811D02*
X123734649Y-97933192D01*
X123734649Y-97933192D02*
X123687030Y-97837954D01*
X123687030Y-97837954D02*
X123639411Y-97647478D01*
X123639411Y-97647478D02*
X123639411Y-97409383D01*
X123639411Y-97409383D02*
X123687030Y-97218907D01*
X123687030Y-97218907D02*
X123734649Y-97123669D01*
X123734649Y-97123669D02*
X123782268Y-97076050D01*
X123782268Y-97076050D02*
X123877506Y-97028430D01*
X123877506Y-97028430D02*
X123972744Y-97028430D01*
X123972744Y-97028430D02*
X124067982Y-97076050D01*
X124067982Y-97076050D02*
X124115601Y-97123669D01*
X124115601Y-97123669D02*
X124163220Y-97218907D01*
X124163220Y-97218907D02*
X124210839Y-97409383D01*
X124210839Y-97409383D02*
X124210839Y-97647478D01*
X124210839Y-97647478D02*
X124163220Y-97837954D01*
X124163220Y-97837954D02*
X124115601Y-97933192D01*
X124115601Y-97933192D02*
X124067982Y-97980811D01*
X124067982Y-97980811D02*
X123972744Y-98028430D01*
X123067982Y-97599859D02*
X123163220Y-97647478D01*
X123163220Y-97647478D02*
X123210839Y-97695097D01*
X123210839Y-97695097D02*
X123258458Y-97790335D01*
X123258458Y-97790335D02*
X123258458Y-97837954D01*
X123258458Y-97837954D02*
X123210839Y-97933192D01*
X123210839Y-97933192D02*
X123163220Y-97980811D01*
X123163220Y-97980811D02*
X123067982Y-98028430D01*
X123067982Y-98028430D02*
X122877506Y-98028430D01*
X122877506Y-98028430D02*
X122782268Y-97980811D01*
X122782268Y-97980811D02*
X122734649Y-97933192D01*
X122734649Y-97933192D02*
X122687030Y-97837954D01*
X122687030Y-97837954D02*
X122687030Y-97790335D01*
X122687030Y-97790335D02*
X122734649Y-97695097D01*
X122734649Y-97695097D02*
X122782268Y-97647478D01*
X122782268Y-97647478D02*
X122877506Y-97599859D01*
X122877506Y-97599859D02*
X123067982Y-97599859D01*
X123067982Y-97599859D02*
X123163220Y-97552240D01*
X123163220Y-97552240D02*
X123210839Y-97504621D01*
X123210839Y-97504621D02*
X123258458Y-97409383D01*
X123258458Y-97409383D02*
X123258458Y-97218907D01*
X123258458Y-97218907D02*
X123210839Y-97123669D01*
X123210839Y-97123669D02*
X123163220Y-97076050D01*
X123163220Y-97076050D02*
X123067982Y-97028430D01*
X123067982Y-97028430D02*
X122877506Y-97028430D01*
X122877506Y-97028430D02*
X122782268Y-97076050D01*
X122782268Y-97076050D02*
X122734649Y-97123669D01*
X122734649Y-97123669D02*
X122687030Y-97218907D01*
X122687030Y-97218907D02*
X122687030Y-97409383D01*
X122687030Y-97409383D02*
X122734649Y-97504621D01*
X122734649Y-97504621D02*
X122782268Y-97552240D01*
X122782268Y-97552240D02*
X122877506Y-97599859D01*
X125163220Y-94488430D02*
X125163220Y-95488430D01*
X125163220Y-95488430D02*
X124782268Y-95488430D01*
X124782268Y-95488430D02*
X124687030Y-95440811D01*
X124687030Y-95440811D02*
X124639411Y-95393192D01*
X124639411Y-95393192D02*
X124591792Y-95297954D01*
X124591792Y-95297954D02*
X124591792Y-95155097D01*
X124591792Y-95155097D02*
X124639411Y-95059859D01*
X124639411Y-95059859D02*
X124687030Y-95012240D01*
X124687030Y-95012240D02*
X124782268Y-94964621D01*
X124782268Y-94964621D02*
X125163220Y-94964621D01*
X123639411Y-94488430D02*
X124210839Y-94488430D01*
X123925125Y-94488430D02*
X123925125Y-95488430D01*
X123925125Y-95488430D02*
X124020363Y-95345573D01*
X124020363Y-95345573D02*
X124115601Y-95250335D01*
X124115601Y-95250335D02*
X124210839Y-95202716D01*
X123020363Y-95488430D02*
X122925125Y-95488430D01*
X122925125Y-95488430D02*
X122829887Y-95440811D01*
X122829887Y-95440811D02*
X122782268Y-95393192D01*
X122782268Y-95393192D02*
X122734649Y-95297954D01*
X122734649Y-95297954D02*
X122687030Y-95107478D01*
X122687030Y-95107478D02*
X122687030Y-94869383D01*
X122687030Y-94869383D02*
X122734649Y-94678907D01*
X122734649Y-94678907D02*
X122782268Y-94583669D01*
X122782268Y-94583669D02*
X122829887Y-94536050D01*
X122829887Y-94536050D02*
X122925125Y-94488430D01*
X122925125Y-94488430D02*
X123020363Y-94488430D01*
X123020363Y-94488430D02*
X123115601Y-94536050D01*
X123115601Y-94536050D02*
X123163220Y-94583669D01*
X123163220Y-94583669D02*
X123210839Y-94678907D01*
X123210839Y-94678907D02*
X123258458Y-94869383D01*
X123258458Y-94869383D02*
X123258458Y-95107478D01*
X123258458Y-95107478D02*
X123210839Y-95297954D01*
X123210839Y-95297954D02*
X123163220Y-95393192D01*
X123163220Y-95393192D02*
X123115601Y-95440811D01*
X123115601Y-95440811D02*
X123020363Y-95488430D01*
X139621555Y-108130180D02*
X140192983Y-108130180D01*
X139907269Y-108130180D02*
X139907269Y-109130180D01*
X139907269Y-109130180D02*
X140002507Y-108987323D01*
X140002507Y-108987323D02*
X140097745Y-108892085D01*
X140097745Y-108892085D02*
X140192983Y-108844466D01*
X139288221Y-109130180D02*
X138669174Y-109130180D01*
X138669174Y-109130180D02*
X139002507Y-108749228D01*
X139002507Y-108749228D02*
X138859650Y-108749228D01*
X138859650Y-108749228D02*
X138764412Y-108701609D01*
X138764412Y-108701609D02*
X138716793Y-108653990D01*
X138716793Y-108653990D02*
X138669174Y-108558752D01*
X138669174Y-108558752D02*
X138669174Y-108320657D01*
X138669174Y-108320657D02*
X138716793Y-108225419D01*
X138716793Y-108225419D02*
X138764412Y-108177800D01*
X138764412Y-108177800D02*
X138859650Y-108130180D01*
X138859650Y-108130180D02*
X139145364Y-108130180D01*
X139145364Y-108130180D02*
X139240602Y-108177800D01*
X139240602Y-108177800D02*
X139288221Y-108225419D01*
X138240602Y-108130180D02*
X138240602Y-109130180D01*
X138240602Y-109130180D02*
X137859650Y-109130180D01*
X137859650Y-109130180D02*
X137764412Y-109082561D01*
X137764412Y-109082561D02*
X137716793Y-109034942D01*
X137716793Y-109034942D02*
X137669174Y-108939704D01*
X137669174Y-108939704D02*
X137669174Y-108796847D01*
X137669174Y-108796847D02*
X137716793Y-108701609D01*
X137716793Y-108701609D02*
X137764412Y-108653990D01*
X137764412Y-108653990D02*
X137859650Y-108606371D01*
X137859650Y-108606371D02*
X138240602Y-108606371D01*
X136145364Y-108653990D02*
X136478697Y-108653990D01*
X136478697Y-108130180D02*
X136478697Y-109130180D01*
X136478697Y-109130180D02*
X136002507Y-109130180D01*
X135288221Y-108653990D02*
X135621554Y-108653990D01*
X135621554Y-108130180D02*
X135621554Y-109130180D01*
X135621554Y-109130180D02*
X135145364Y-109130180D01*
X134192983Y-108225419D02*
X134240602Y-108177800D01*
X134240602Y-108177800D02*
X134383459Y-108130180D01*
X134383459Y-108130180D02*
X134478697Y-108130180D01*
X134478697Y-108130180D02*
X134621554Y-108177800D01*
X134621554Y-108177800D02*
X134716792Y-108273038D01*
X134716792Y-108273038D02*
X134764411Y-108368276D01*
X134764411Y-108368276D02*
X134812030Y-108558752D01*
X134812030Y-108558752D02*
X134812030Y-108701609D01*
X134812030Y-108701609D02*
X134764411Y-108892085D01*
X134764411Y-108892085D02*
X134716792Y-108987323D01*
X134716792Y-108987323D02*
X134621554Y-109082561D01*
X134621554Y-109082561D02*
X134478697Y-109130180D01*
X134478697Y-109130180D02*
X134383459Y-109130180D01*
X134383459Y-109130180D02*
X134240602Y-109082561D01*
X134240602Y-109082561D02*
X134192983Y-109034942D01*
X132669173Y-108653990D02*
X132526316Y-108606371D01*
X132526316Y-108606371D02*
X132478697Y-108558752D01*
X132478697Y-108558752D02*
X132431078Y-108463514D01*
X132431078Y-108463514D02*
X132431078Y-108320657D01*
X132431078Y-108320657D02*
X132478697Y-108225419D01*
X132478697Y-108225419D02*
X132526316Y-108177800D01*
X132526316Y-108177800D02*
X132621554Y-108130180D01*
X132621554Y-108130180D02*
X133002506Y-108130180D01*
X133002506Y-108130180D02*
X133002506Y-109130180D01*
X133002506Y-109130180D02*
X132669173Y-109130180D01*
X132669173Y-109130180D02*
X132573935Y-109082561D01*
X132573935Y-109082561D02*
X132526316Y-109034942D01*
X132526316Y-109034942D02*
X132478697Y-108939704D01*
X132478697Y-108939704D02*
X132478697Y-108844466D01*
X132478697Y-108844466D02*
X132526316Y-108749228D01*
X132526316Y-108749228D02*
X132573935Y-108701609D01*
X132573935Y-108701609D02*
X132669173Y-108653990D01*
X132669173Y-108653990D02*
X133002506Y-108653990D01*
X132002506Y-108130180D02*
X132002506Y-108796847D01*
X132002506Y-108606371D02*
X131954887Y-108701609D01*
X131954887Y-108701609D02*
X131907268Y-108749228D01*
X131907268Y-108749228D02*
X131812030Y-108796847D01*
X131812030Y-108796847D02*
X131716792Y-108796847D01*
X131002506Y-108177800D02*
X131097744Y-108130180D01*
X131097744Y-108130180D02*
X131288220Y-108130180D01*
X131288220Y-108130180D02*
X131383458Y-108177800D01*
X131383458Y-108177800D02*
X131431077Y-108273038D01*
X131431077Y-108273038D02*
X131431077Y-108653990D01*
X131431077Y-108653990D02*
X131383458Y-108749228D01*
X131383458Y-108749228D02*
X131288220Y-108796847D01*
X131288220Y-108796847D02*
X131097744Y-108796847D01*
X131097744Y-108796847D02*
X131002506Y-108749228D01*
X131002506Y-108749228D02*
X130954887Y-108653990D01*
X130954887Y-108653990D02*
X130954887Y-108558752D01*
X130954887Y-108558752D02*
X131431077Y-108463514D01*
X130097744Y-108130180D02*
X130097744Y-108653990D01*
X130097744Y-108653990D02*
X130145363Y-108749228D01*
X130145363Y-108749228D02*
X130240601Y-108796847D01*
X130240601Y-108796847D02*
X130431077Y-108796847D01*
X130431077Y-108796847D02*
X130526315Y-108749228D01*
X130097744Y-108177800D02*
X130192982Y-108130180D01*
X130192982Y-108130180D02*
X130431077Y-108130180D01*
X130431077Y-108130180D02*
X130526315Y-108177800D01*
X130526315Y-108177800D02*
X130573934Y-108273038D01*
X130573934Y-108273038D02*
X130573934Y-108368276D01*
X130573934Y-108368276D02*
X130526315Y-108463514D01*
X130526315Y-108463514D02*
X130431077Y-108511133D01*
X130431077Y-108511133D02*
X130192982Y-108511133D01*
X130192982Y-108511133D02*
X130097744Y-108558752D01*
X129621553Y-108130180D02*
X129621553Y-109130180D01*
X129526315Y-108511133D02*
X129240601Y-108130180D01*
X129240601Y-108796847D02*
X129621553Y-108415895D01*
X128669172Y-108130180D02*
X128764410Y-108177800D01*
X128764410Y-108177800D02*
X128812029Y-108225419D01*
X128812029Y-108225419D02*
X128859648Y-108320657D01*
X128859648Y-108320657D02*
X128859648Y-108606371D01*
X128859648Y-108606371D02*
X128812029Y-108701609D01*
X128812029Y-108701609D02*
X128764410Y-108749228D01*
X128764410Y-108749228D02*
X128669172Y-108796847D01*
X128669172Y-108796847D02*
X128526315Y-108796847D01*
X128526315Y-108796847D02*
X128431077Y-108749228D01*
X128431077Y-108749228D02*
X128383458Y-108701609D01*
X128383458Y-108701609D02*
X128335839Y-108606371D01*
X128335839Y-108606371D02*
X128335839Y-108320657D01*
X128335839Y-108320657D02*
X128383458Y-108225419D01*
X128383458Y-108225419D02*
X128431077Y-108177800D01*
X128431077Y-108177800D02*
X128526315Y-108130180D01*
X128526315Y-108130180D02*
X128669172Y-108130180D01*
X127478696Y-108796847D02*
X127478696Y-108130180D01*
X127907267Y-108796847D02*
X127907267Y-108273038D01*
X127907267Y-108273038D02*
X127859648Y-108177800D01*
X127859648Y-108177800D02*
X127764410Y-108130180D01*
X127764410Y-108130180D02*
X127621553Y-108130180D01*
X127621553Y-108130180D02*
X127526315Y-108177800D01*
X127526315Y-108177800D02*
X127478696Y-108225419D01*
X127145362Y-108796847D02*
X126764410Y-108796847D01*
X127002505Y-109130180D02*
X127002505Y-108273038D01*
X127002505Y-108273038D02*
X126954886Y-108177800D01*
X126954886Y-108177800D02*
X126859648Y-108130180D01*
X126859648Y-108130180D02*
X126764410Y-108130180D01*
X125163220Y-91948430D02*
X125163220Y-92948430D01*
X125163220Y-92948430D02*
X124782268Y-92948430D01*
X124782268Y-92948430D02*
X124687030Y-92900811D01*
X124687030Y-92900811D02*
X124639411Y-92853192D01*
X124639411Y-92853192D02*
X124591792Y-92757954D01*
X124591792Y-92757954D02*
X124591792Y-92615097D01*
X124591792Y-92615097D02*
X124639411Y-92519859D01*
X124639411Y-92519859D02*
X124687030Y-92472240D01*
X124687030Y-92472240D02*
X124782268Y-92424621D01*
X124782268Y-92424621D02*
X125163220Y-92424621D01*
X123639411Y-91948430D02*
X124210839Y-91948430D01*
X123925125Y-91948430D02*
X123925125Y-92948430D01*
X123925125Y-92948430D02*
X124020363Y-92805573D01*
X124020363Y-92805573D02*
X124115601Y-92710335D01*
X124115601Y-92710335D02*
X124210839Y-92662716D01*
X123258458Y-92853192D02*
X123210839Y-92900811D01*
X123210839Y-92900811D02*
X123115601Y-92948430D01*
X123115601Y-92948430D02*
X122877506Y-92948430D01*
X122877506Y-92948430D02*
X122782268Y-92900811D01*
X122782268Y-92900811D02*
X122734649Y-92853192D01*
X122734649Y-92853192D02*
X122687030Y-92757954D01*
X122687030Y-92757954D02*
X122687030Y-92662716D01*
X122687030Y-92662716D02*
X122734649Y-92519859D01*
X122734649Y-92519859D02*
X123306077Y-91948430D01*
X123306077Y-91948430D02*
X122687030Y-91948430D01*
X125258458Y-89397800D02*
X125115601Y-89350180D01*
X125115601Y-89350180D02*
X124877506Y-89350180D01*
X124877506Y-89350180D02*
X124782268Y-89397800D01*
X124782268Y-89397800D02*
X124734649Y-89445419D01*
X124734649Y-89445419D02*
X124687030Y-89540657D01*
X124687030Y-89540657D02*
X124687030Y-89635895D01*
X124687030Y-89635895D02*
X124734649Y-89731133D01*
X124734649Y-89731133D02*
X124782268Y-89778752D01*
X124782268Y-89778752D02*
X124877506Y-89826371D01*
X124877506Y-89826371D02*
X125067982Y-89873990D01*
X125067982Y-89873990D02*
X125163220Y-89921609D01*
X125163220Y-89921609D02*
X125210839Y-89969228D01*
X125210839Y-89969228D02*
X125258458Y-90064466D01*
X125258458Y-90064466D02*
X125258458Y-90159704D01*
X125258458Y-90159704D02*
X125210839Y-90254942D01*
X125210839Y-90254942D02*
X125163220Y-90302561D01*
X125163220Y-90302561D02*
X125067982Y-90350180D01*
X125067982Y-90350180D02*
X124829887Y-90350180D01*
X124829887Y-90350180D02*
X124687030Y-90302561D01*
X124258458Y-89350180D02*
X124258458Y-90350180D01*
X124258458Y-89873990D02*
X123687030Y-89873990D01*
X123687030Y-89350180D02*
X123687030Y-90350180D01*
X123210839Y-89350180D02*
X123210839Y-90350180D01*
X123210839Y-90350180D02*
X122972744Y-90350180D01*
X122972744Y-90350180D02*
X122829887Y-90302561D01*
X122829887Y-90302561D02*
X122734649Y-90207323D01*
X122734649Y-90207323D02*
X122687030Y-90112085D01*
X122687030Y-90112085D02*
X122639411Y-89921609D01*
X122639411Y-89921609D02*
X122639411Y-89778752D01*
X122639411Y-89778752D02*
X122687030Y-89588276D01*
X122687030Y-89588276D02*
X122734649Y-89493038D01*
X122734649Y-89493038D02*
X122829887Y-89397800D01*
X122829887Y-89397800D02*
X122972744Y-89350180D01*
X122972744Y-89350180D02*
X123210839Y-89350180D01*
X137663220Y-89380180D02*
X137663220Y-90380180D01*
X137663220Y-90380180D02*
X137282268Y-90380180D01*
X137282268Y-90380180D02*
X137187030Y-90332561D01*
X137187030Y-90332561D02*
X137139411Y-90284942D01*
X137139411Y-90284942D02*
X137091792Y-90189704D01*
X137091792Y-90189704D02*
X137091792Y-90046847D01*
X137091792Y-90046847D02*
X137139411Y-89951609D01*
X137139411Y-89951609D02*
X137187030Y-89903990D01*
X137187030Y-89903990D02*
X137282268Y-89856371D01*
X137282268Y-89856371D02*
X137663220Y-89856371D01*
X136139411Y-89380180D02*
X136710839Y-89380180D01*
X136425125Y-89380180D02*
X136425125Y-90380180D01*
X136425125Y-90380180D02*
X136520363Y-90237323D01*
X136520363Y-90237323D02*
X136615601Y-90142085D01*
X136615601Y-90142085D02*
X136710839Y-90094466D01*
X135806077Y-90380180D02*
X135187030Y-90380180D01*
X135187030Y-90380180D02*
X135520363Y-89999228D01*
X135520363Y-89999228D02*
X135377506Y-89999228D01*
X135377506Y-89999228D02*
X135282268Y-89951609D01*
X135282268Y-89951609D02*
X135234649Y-89903990D01*
X135234649Y-89903990D02*
X135187030Y-89808752D01*
X135187030Y-89808752D02*
X135187030Y-89570657D01*
X135187030Y-89570657D02*
X135234649Y-89475419D01*
X135234649Y-89475419D02*
X135282268Y-89427800D01*
X135282268Y-89427800D02*
X135377506Y-89380180D01*
X135377506Y-89380180D02*
X135663220Y-89380180D01*
X135663220Y-89380180D02*
X135758458Y-89427800D01*
X135758458Y-89427800D02*
X135806077Y-89475419D01*
X137663220Y-99630180D02*
X137663220Y-100630180D01*
X137663220Y-100630180D02*
X137282268Y-100630180D01*
X137282268Y-100630180D02*
X137187030Y-100582561D01*
X137187030Y-100582561D02*
X137139411Y-100534942D01*
X137139411Y-100534942D02*
X137091792Y-100439704D01*
X137091792Y-100439704D02*
X137091792Y-100296847D01*
X137091792Y-100296847D02*
X137139411Y-100201609D01*
X137139411Y-100201609D02*
X137187030Y-100153990D01*
X137187030Y-100153990D02*
X137282268Y-100106371D01*
X137282268Y-100106371D02*
X137663220Y-100106371D01*
X136472744Y-100630180D02*
X136377506Y-100630180D01*
X136377506Y-100630180D02*
X136282268Y-100582561D01*
X136282268Y-100582561D02*
X136234649Y-100534942D01*
X136234649Y-100534942D02*
X136187030Y-100439704D01*
X136187030Y-100439704D02*
X136139411Y-100249228D01*
X136139411Y-100249228D02*
X136139411Y-100011133D01*
X136139411Y-100011133D02*
X136187030Y-99820657D01*
X136187030Y-99820657D02*
X136234649Y-99725419D01*
X136234649Y-99725419D02*
X136282268Y-99677800D01*
X136282268Y-99677800D02*
X136377506Y-99630180D01*
X136377506Y-99630180D02*
X136472744Y-99630180D01*
X136472744Y-99630180D02*
X136567982Y-99677800D01*
X136567982Y-99677800D02*
X136615601Y-99725419D01*
X136615601Y-99725419D02*
X136663220Y-99820657D01*
X136663220Y-99820657D02*
X136710839Y-100011133D01*
X136710839Y-100011133D02*
X136710839Y-100249228D01*
X136710839Y-100249228D02*
X136663220Y-100439704D01*
X136663220Y-100439704D02*
X136615601Y-100534942D01*
X136615601Y-100534942D02*
X136567982Y-100582561D01*
X136567982Y-100582561D02*
X136472744Y-100630180D01*
X135234649Y-100630180D02*
X135710839Y-100630180D01*
X135710839Y-100630180D02*
X135758458Y-100153990D01*
X135758458Y-100153990D02*
X135710839Y-100201609D01*
X135710839Y-100201609D02*
X135615601Y-100249228D01*
X135615601Y-100249228D02*
X135377506Y-100249228D01*
X135377506Y-100249228D02*
X135282268Y-100201609D01*
X135282268Y-100201609D02*
X135234649Y-100153990D01*
X135234649Y-100153990D02*
X135187030Y-100058752D01*
X135187030Y-100058752D02*
X135187030Y-99820657D01*
X135187030Y-99820657D02*
X135234649Y-99725419D01*
X135234649Y-99725419D02*
X135282268Y-99677800D01*
X135282268Y-99677800D02*
X135377506Y-99630180D01*
X135377506Y-99630180D02*
X135615601Y-99630180D01*
X135615601Y-99630180D02*
X135710839Y-99677800D01*
X135710839Y-99677800D02*
X135758458Y-99725419D01*
X137663220Y-102130180D02*
X137663220Y-103130180D01*
X137663220Y-103130180D02*
X137282268Y-103130180D01*
X137282268Y-103130180D02*
X137187030Y-103082561D01*
X137187030Y-103082561D02*
X137139411Y-103034942D01*
X137139411Y-103034942D02*
X137091792Y-102939704D01*
X137091792Y-102939704D02*
X137091792Y-102796847D01*
X137091792Y-102796847D02*
X137139411Y-102701609D01*
X137139411Y-102701609D02*
X137187030Y-102653990D01*
X137187030Y-102653990D02*
X137282268Y-102606371D01*
X137282268Y-102606371D02*
X137663220Y-102606371D01*
X136472744Y-103130180D02*
X136377506Y-103130180D01*
X136377506Y-103130180D02*
X136282268Y-103082561D01*
X136282268Y-103082561D02*
X136234649Y-103034942D01*
X136234649Y-103034942D02*
X136187030Y-102939704D01*
X136187030Y-102939704D02*
X136139411Y-102749228D01*
X136139411Y-102749228D02*
X136139411Y-102511133D01*
X136139411Y-102511133D02*
X136187030Y-102320657D01*
X136187030Y-102320657D02*
X136234649Y-102225419D01*
X136234649Y-102225419D02*
X136282268Y-102177800D01*
X136282268Y-102177800D02*
X136377506Y-102130180D01*
X136377506Y-102130180D02*
X136472744Y-102130180D01*
X136472744Y-102130180D02*
X136567982Y-102177800D01*
X136567982Y-102177800D02*
X136615601Y-102225419D01*
X136615601Y-102225419D02*
X136663220Y-102320657D01*
X136663220Y-102320657D02*
X136710839Y-102511133D01*
X136710839Y-102511133D02*
X136710839Y-102749228D01*
X136710839Y-102749228D02*
X136663220Y-102939704D01*
X136663220Y-102939704D02*
X136615601Y-103034942D01*
X136615601Y-103034942D02*
X136567982Y-103082561D01*
X136567982Y-103082561D02*
X136472744Y-103130180D01*
X135806077Y-103130180D02*
X135187030Y-103130180D01*
X135187030Y-103130180D02*
X135520363Y-102749228D01*
X135520363Y-102749228D02*
X135377506Y-102749228D01*
X135377506Y-102749228D02*
X135282268Y-102701609D01*
X135282268Y-102701609D02*
X135234649Y-102653990D01*
X135234649Y-102653990D02*
X135187030Y-102558752D01*
X135187030Y-102558752D02*
X135187030Y-102320657D01*
X135187030Y-102320657D02*
X135234649Y-102225419D01*
X135234649Y-102225419D02*
X135282268Y-102177800D01*
X135282268Y-102177800D02*
X135377506Y-102130180D01*
X135377506Y-102130180D02*
X135663220Y-102130180D01*
X135663220Y-102130180D02*
X135758458Y-102177800D01*
X135758458Y-102177800D02*
X135806077Y-102225419D01*
X137663220Y-94630180D02*
X137663220Y-95630180D01*
X137663220Y-95630180D02*
X137282268Y-95630180D01*
X137282268Y-95630180D02*
X137187030Y-95582561D01*
X137187030Y-95582561D02*
X137139411Y-95534942D01*
X137139411Y-95534942D02*
X137091792Y-95439704D01*
X137091792Y-95439704D02*
X137091792Y-95296847D01*
X137091792Y-95296847D02*
X137139411Y-95201609D01*
X137139411Y-95201609D02*
X137187030Y-95153990D01*
X137187030Y-95153990D02*
X137282268Y-95106371D01*
X137282268Y-95106371D02*
X137663220Y-95106371D01*
X136472744Y-95630180D02*
X136377506Y-95630180D01*
X136377506Y-95630180D02*
X136282268Y-95582561D01*
X136282268Y-95582561D02*
X136234649Y-95534942D01*
X136234649Y-95534942D02*
X136187030Y-95439704D01*
X136187030Y-95439704D02*
X136139411Y-95249228D01*
X136139411Y-95249228D02*
X136139411Y-95011133D01*
X136139411Y-95011133D02*
X136187030Y-94820657D01*
X136187030Y-94820657D02*
X136234649Y-94725419D01*
X136234649Y-94725419D02*
X136282268Y-94677800D01*
X136282268Y-94677800D02*
X136377506Y-94630180D01*
X136377506Y-94630180D02*
X136472744Y-94630180D01*
X136472744Y-94630180D02*
X136567982Y-94677800D01*
X136567982Y-94677800D02*
X136615601Y-94725419D01*
X136615601Y-94725419D02*
X136663220Y-94820657D01*
X136663220Y-94820657D02*
X136710839Y-95011133D01*
X136710839Y-95011133D02*
X136710839Y-95249228D01*
X136710839Y-95249228D02*
X136663220Y-95439704D01*
X136663220Y-95439704D02*
X136615601Y-95534942D01*
X136615601Y-95534942D02*
X136567982Y-95582561D01*
X136567982Y-95582561D02*
X136472744Y-95630180D01*
X135663220Y-94630180D02*
X135472744Y-94630180D01*
X135472744Y-94630180D02*
X135377506Y-94677800D01*
X135377506Y-94677800D02*
X135329887Y-94725419D01*
X135329887Y-94725419D02*
X135234649Y-94868276D01*
X135234649Y-94868276D02*
X135187030Y-95058752D01*
X135187030Y-95058752D02*
X135187030Y-95439704D01*
X135187030Y-95439704D02*
X135234649Y-95534942D01*
X135234649Y-95534942D02*
X135282268Y-95582561D01*
X135282268Y-95582561D02*
X135377506Y-95630180D01*
X135377506Y-95630180D02*
X135567982Y-95630180D01*
X135567982Y-95630180D02*
X135663220Y-95582561D01*
X135663220Y-95582561D02*
X135710839Y-95534942D01*
X135710839Y-95534942D02*
X135758458Y-95439704D01*
X135758458Y-95439704D02*
X135758458Y-95201609D01*
X135758458Y-95201609D02*
X135710839Y-95106371D01*
X135710839Y-95106371D02*
X135663220Y-95058752D01*
X135663220Y-95058752D02*
X135567982Y-95011133D01*
X135567982Y-95011133D02*
X135377506Y-95011133D01*
X135377506Y-95011133D02*
X135282268Y-95058752D01*
X135282268Y-95058752D02*
X135234649Y-95106371D01*
X135234649Y-95106371D02*
X135187030Y-95201609D01*
X125163220Y-99568430D02*
X125163220Y-100568430D01*
X125163220Y-100568430D02*
X124782268Y-100568430D01*
X124782268Y-100568430D02*
X124687030Y-100520811D01*
X124687030Y-100520811D02*
X124639411Y-100473192D01*
X124639411Y-100473192D02*
X124591792Y-100377954D01*
X124591792Y-100377954D02*
X124591792Y-100235097D01*
X124591792Y-100235097D02*
X124639411Y-100139859D01*
X124639411Y-100139859D02*
X124687030Y-100092240D01*
X124687030Y-100092240D02*
X124782268Y-100044621D01*
X124782268Y-100044621D02*
X125163220Y-100044621D01*
X123972744Y-100568430D02*
X123877506Y-100568430D01*
X123877506Y-100568430D02*
X123782268Y-100520811D01*
X123782268Y-100520811D02*
X123734649Y-100473192D01*
X123734649Y-100473192D02*
X123687030Y-100377954D01*
X123687030Y-100377954D02*
X123639411Y-100187478D01*
X123639411Y-100187478D02*
X123639411Y-99949383D01*
X123639411Y-99949383D02*
X123687030Y-99758907D01*
X123687030Y-99758907D02*
X123734649Y-99663669D01*
X123734649Y-99663669D02*
X123782268Y-99616050D01*
X123782268Y-99616050D02*
X123877506Y-99568430D01*
X123877506Y-99568430D02*
X123972744Y-99568430D01*
X123972744Y-99568430D02*
X124067982Y-99616050D01*
X124067982Y-99616050D02*
X124115601Y-99663669D01*
X124115601Y-99663669D02*
X124163220Y-99758907D01*
X124163220Y-99758907D02*
X124210839Y-99949383D01*
X124210839Y-99949383D02*
X124210839Y-100187478D01*
X124210839Y-100187478D02*
X124163220Y-100377954D01*
X124163220Y-100377954D02*
X124115601Y-100473192D01*
X124115601Y-100473192D02*
X124067982Y-100520811D01*
X124067982Y-100520811D02*
X123972744Y-100568430D01*
X122782268Y-100568430D02*
X122972744Y-100568430D01*
X122972744Y-100568430D02*
X123067982Y-100520811D01*
X123067982Y-100520811D02*
X123115601Y-100473192D01*
X123115601Y-100473192D02*
X123210839Y-100330335D01*
X123210839Y-100330335D02*
X123258458Y-100139859D01*
X123258458Y-100139859D02*
X123258458Y-99758907D01*
X123258458Y-99758907D02*
X123210839Y-99663669D01*
X123210839Y-99663669D02*
X123163220Y-99616050D01*
X123163220Y-99616050D02*
X123067982Y-99568430D01*
X123067982Y-99568430D02*
X122877506Y-99568430D01*
X122877506Y-99568430D02*
X122782268Y-99616050D01*
X122782268Y-99616050D02*
X122734649Y-99663669D01*
X122734649Y-99663669D02*
X122687030Y-99758907D01*
X122687030Y-99758907D02*
X122687030Y-99997002D01*
X122687030Y-99997002D02*
X122734649Y-100092240D01*
X122734649Y-100092240D02*
X122782268Y-100139859D01*
X122782268Y-100139859D02*
X122877506Y-100187478D01*
X122877506Y-100187478D02*
X123067982Y-100187478D01*
X123067982Y-100187478D02*
X123163220Y-100139859D01*
X123163220Y-100139859D02*
X123210839Y-100092240D01*
X123210839Y-100092240D02*
X123258458Y-99997002D01*
X137663220Y-96880180D02*
X137663220Y-97880180D01*
X137663220Y-97880180D02*
X137282268Y-97880180D01*
X137282268Y-97880180D02*
X137187030Y-97832561D01*
X137187030Y-97832561D02*
X137139411Y-97784942D01*
X137139411Y-97784942D02*
X137091792Y-97689704D01*
X137091792Y-97689704D02*
X137091792Y-97546847D01*
X137091792Y-97546847D02*
X137139411Y-97451609D01*
X137139411Y-97451609D02*
X137187030Y-97403990D01*
X137187030Y-97403990D02*
X137282268Y-97356371D01*
X137282268Y-97356371D02*
X137663220Y-97356371D01*
X136472744Y-97880180D02*
X136377506Y-97880180D01*
X136377506Y-97880180D02*
X136282268Y-97832561D01*
X136282268Y-97832561D02*
X136234649Y-97784942D01*
X136234649Y-97784942D02*
X136187030Y-97689704D01*
X136187030Y-97689704D02*
X136139411Y-97499228D01*
X136139411Y-97499228D02*
X136139411Y-97261133D01*
X136139411Y-97261133D02*
X136187030Y-97070657D01*
X136187030Y-97070657D02*
X136234649Y-96975419D01*
X136234649Y-96975419D02*
X136282268Y-96927800D01*
X136282268Y-96927800D02*
X136377506Y-96880180D01*
X136377506Y-96880180D02*
X136472744Y-96880180D01*
X136472744Y-96880180D02*
X136567982Y-96927800D01*
X136567982Y-96927800D02*
X136615601Y-96975419D01*
X136615601Y-96975419D02*
X136663220Y-97070657D01*
X136663220Y-97070657D02*
X136710839Y-97261133D01*
X136710839Y-97261133D02*
X136710839Y-97499228D01*
X136710839Y-97499228D02*
X136663220Y-97689704D01*
X136663220Y-97689704D02*
X136615601Y-97784942D01*
X136615601Y-97784942D02*
X136567982Y-97832561D01*
X136567982Y-97832561D02*
X136472744Y-97880180D01*
X135806077Y-97880180D02*
X135139411Y-97880180D01*
X135139411Y-97880180D02*
X135567982Y-96880180D01*
X125163220Y-102108430D02*
X125163220Y-103108430D01*
X125163220Y-103108430D02*
X124782268Y-103108430D01*
X124782268Y-103108430D02*
X124687030Y-103060811D01*
X124687030Y-103060811D02*
X124639411Y-103013192D01*
X124639411Y-103013192D02*
X124591792Y-102917954D01*
X124591792Y-102917954D02*
X124591792Y-102775097D01*
X124591792Y-102775097D02*
X124639411Y-102679859D01*
X124639411Y-102679859D02*
X124687030Y-102632240D01*
X124687030Y-102632240D02*
X124782268Y-102584621D01*
X124782268Y-102584621D02*
X125163220Y-102584621D01*
X123972744Y-103108430D02*
X123877506Y-103108430D01*
X123877506Y-103108430D02*
X123782268Y-103060811D01*
X123782268Y-103060811D02*
X123734649Y-103013192D01*
X123734649Y-103013192D02*
X123687030Y-102917954D01*
X123687030Y-102917954D02*
X123639411Y-102727478D01*
X123639411Y-102727478D02*
X123639411Y-102489383D01*
X123639411Y-102489383D02*
X123687030Y-102298907D01*
X123687030Y-102298907D02*
X123734649Y-102203669D01*
X123734649Y-102203669D02*
X123782268Y-102156050D01*
X123782268Y-102156050D02*
X123877506Y-102108430D01*
X123877506Y-102108430D02*
X123972744Y-102108430D01*
X123972744Y-102108430D02*
X124067982Y-102156050D01*
X124067982Y-102156050D02*
X124115601Y-102203669D01*
X124115601Y-102203669D02*
X124163220Y-102298907D01*
X124163220Y-102298907D02*
X124210839Y-102489383D01*
X124210839Y-102489383D02*
X124210839Y-102727478D01*
X124210839Y-102727478D02*
X124163220Y-102917954D01*
X124163220Y-102917954D02*
X124115601Y-103013192D01*
X124115601Y-103013192D02*
X124067982Y-103060811D01*
X124067982Y-103060811D02*
X123972744Y-103108430D01*
X122782268Y-102775097D02*
X122782268Y-102108430D01*
X123020363Y-103156050D02*
X123258458Y-102441764D01*
X123258458Y-102441764D02*
X122639411Y-102441764D01*
X137663220Y-91880180D02*
X137663220Y-92880180D01*
X137663220Y-92880180D02*
X137282268Y-92880180D01*
X137282268Y-92880180D02*
X137187030Y-92832561D01*
X137187030Y-92832561D02*
X137139411Y-92784942D01*
X137139411Y-92784942D02*
X137091792Y-92689704D01*
X137091792Y-92689704D02*
X137091792Y-92546847D01*
X137091792Y-92546847D02*
X137139411Y-92451609D01*
X137139411Y-92451609D02*
X137187030Y-92403990D01*
X137187030Y-92403990D02*
X137282268Y-92356371D01*
X137282268Y-92356371D02*
X137663220Y-92356371D01*
X136139411Y-91880180D02*
X136710839Y-91880180D01*
X136425125Y-91880180D02*
X136425125Y-92880180D01*
X136425125Y-92880180D02*
X136520363Y-92737323D01*
X136520363Y-92737323D02*
X136615601Y-92642085D01*
X136615601Y-92642085D02*
X136710839Y-92594466D01*
X135187030Y-91880180D02*
X135758458Y-91880180D01*
X135472744Y-91880180D02*
X135472744Y-92880180D01*
X135472744Y-92880180D02*
X135567982Y-92737323D01*
X135567982Y-92737323D02*
X135663220Y-92642085D01*
X135663220Y-92642085D02*
X135758458Y-92594466D01*
X125163220Y-104648430D02*
X125163220Y-105648430D01*
X125163220Y-105648430D02*
X124782268Y-105648430D01*
X124782268Y-105648430D02*
X124687030Y-105600811D01*
X124687030Y-105600811D02*
X124639411Y-105553192D01*
X124639411Y-105553192D02*
X124591792Y-105457954D01*
X124591792Y-105457954D02*
X124591792Y-105315097D01*
X124591792Y-105315097D02*
X124639411Y-105219859D01*
X124639411Y-105219859D02*
X124687030Y-105172240D01*
X124687030Y-105172240D02*
X124782268Y-105124621D01*
X124782268Y-105124621D02*
X125163220Y-105124621D01*
X123972744Y-105648430D02*
X123877506Y-105648430D01*
X123877506Y-105648430D02*
X123782268Y-105600811D01*
X123782268Y-105600811D02*
X123734649Y-105553192D01*
X123734649Y-105553192D02*
X123687030Y-105457954D01*
X123687030Y-105457954D02*
X123639411Y-105267478D01*
X123639411Y-105267478D02*
X123639411Y-105029383D01*
X123639411Y-105029383D02*
X123687030Y-104838907D01*
X123687030Y-104838907D02*
X123734649Y-104743669D01*
X123734649Y-104743669D02*
X123782268Y-104696050D01*
X123782268Y-104696050D02*
X123877506Y-104648430D01*
X123877506Y-104648430D02*
X123972744Y-104648430D01*
X123972744Y-104648430D02*
X124067982Y-104696050D01*
X124067982Y-104696050D02*
X124115601Y-104743669D01*
X124115601Y-104743669D02*
X124163220Y-104838907D01*
X124163220Y-104838907D02*
X124210839Y-105029383D01*
X124210839Y-105029383D02*
X124210839Y-105267478D01*
X124210839Y-105267478D02*
X124163220Y-105457954D01*
X124163220Y-105457954D02*
X124115601Y-105553192D01*
X124115601Y-105553192D02*
X124067982Y-105600811D01*
X124067982Y-105600811D02*
X123972744Y-105648430D01*
X123258458Y-105553192D02*
X123210839Y-105600811D01*
X123210839Y-105600811D02*
X123115601Y-105648430D01*
X123115601Y-105648430D02*
X122877506Y-105648430D01*
X122877506Y-105648430D02*
X122782268Y-105600811D01*
X122782268Y-105600811D02*
X122734649Y-105553192D01*
X122734649Y-105553192D02*
X122687030Y-105457954D01*
X122687030Y-105457954D02*
X122687030Y-105362716D01*
X122687030Y-105362716D02*
X122734649Y-105219859D01*
X122734649Y-105219859D02*
X123306077Y-104648430D01*
X123306077Y-104648430D02*
X122687030Y-104648430D01*
X138745019Y-103373333D02*
X139459304Y-103373333D01*
X139459304Y-103373333D02*
X139602161Y-103420952D01*
X139602161Y-103420952D02*
X139697400Y-103516190D01*
X139697400Y-103516190D02*
X139745019Y-103659047D01*
X139745019Y-103659047D02*
X139745019Y-103754285D01*
X138745019Y-102992380D02*
X138745019Y-102373333D01*
X138745019Y-102373333D02*
X139125971Y-102706666D01*
X139125971Y-102706666D02*
X139125971Y-102563809D01*
X139125971Y-102563809D02*
X139173590Y-102468571D01*
X139173590Y-102468571D02*
X139221209Y-102420952D01*
X139221209Y-102420952D02*
X139316447Y-102373333D01*
X139316447Y-102373333D02*
X139554542Y-102373333D01*
X139554542Y-102373333D02*
X139649780Y-102420952D01*
X139649780Y-102420952D02*
X139697400Y-102468571D01*
X139697400Y-102468571D02*
X139745019Y-102563809D01*
X139745019Y-102563809D02*
X139745019Y-102849523D01*
X139745019Y-102849523D02*
X139697400Y-102944761D01*
X139697400Y-102944761D02*
X139649780Y-102992380D01*
X125954819Y-107333333D02*
X126669104Y-107333333D01*
X126669104Y-107333333D02*
X126811961Y-107380952D01*
X126811961Y-107380952D02*
X126907200Y-107476190D01*
X126907200Y-107476190D02*
X126954819Y-107619047D01*
X126954819Y-107619047D02*
X126954819Y-107714285D01*
X126288152Y-106428571D02*
X126954819Y-106428571D01*
X125907200Y-106666666D02*
X126621485Y-106904761D01*
X126621485Y-106904761D02*
X126621485Y-106285714D01*
D11*
%TO.C,J3*%
X138345600Y-99521200D02*
X139539400Y-100537200D01*
X138345600Y-101553200D02*
X138345600Y-99521200D01*
X138345600Y-101553200D02*
X139539400Y-100537200D01*
X140276000Y-91240800D02*
X140276000Y-94060200D01*
X140276000Y-101019800D02*
X140276000Y-103839200D01*
X143273200Y-103839200D02*
X145254400Y-103839200D01*
X145254400Y-91240800D02*
X143273200Y-91240800D01*
X145254400Y-103839200D02*
X145254400Y-91240800D01*
%TO.C,J4*%
X127612999Y-88483000D02*
X127612999Y-88912260D01*
X127612999Y-90847740D02*
X127612999Y-91452260D01*
X127612999Y-93387740D02*
X127612999Y-93992260D01*
X127612999Y-95927740D02*
X127612999Y-96532260D01*
X127612999Y-98467740D02*
X127612999Y-99072260D01*
X127612999Y-101007740D02*
X127612999Y-101612260D01*
X127612999Y-103547740D02*
X127612999Y-104152260D01*
X127612999Y-106087740D02*
X127612999Y-106517000D01*
X127612999Y-106517000D02*
X132946999Y-106517000D01*
X132946999Y-88483000D02*
X127612999Y-88483000D01*
X132946999Y-88912260D02*
X132946999Y-88483000D01*
X132946999Y-91452260D02*
X132946999Y-90847740D01*
X132946999Y-93992260D02*
X132946999Y-93387740D01*
X132946999Y-96532260D02*
X132946999Y-95927740D01*
X132946999Y-99072260D02*
X132946999Y-98467740D01*
X132946999Y-101612260D02*
X132946999Y-101007740D01*
X132946999Y-104152260D02*
X132946999Y-103547740D01*
X132946999Y-106517000D02*
X132946999Y-106087740D01*
D12*
X128441000Y-107152000D02*
G75*
G02*
X127679000Y-107152000I-381000J0D01*
G01*
X127679000Y-107152000D02*
G75*
G02*
X128441000Y-107152000I381000J0D01*
G01*
%TD*%
M02*
