%TF.GenerationSoftware,KiCad,Pcbnew,9.0.7*%
%TF.CreationDate,2026-07-04T14:57:21-07:00*%
%TF.ProjectId,STM32_Microcontrollerx32,53544d33-325f-44d6-9963-726f636f6e74,rev?*%
%TF.SameCoordinates,Original*%
%TF.FileFunction,Soldermask,Bot*%
%TF.FilePolarity,Negative*%
%FSLAX46Y46*%
G04 Gerber Fmt 4.6, Leading zero omitted, Abs format (unit mm)*
G04 Created by KiCad (PCBNEW 9.0.7) date 2026-07-04 14:57:21*
%MOMM*%
%LPD*%
G01*
G04 APERTURE LIST*
G04 APERTURE END LIST*
G36*
X101716382Y-91866497D02*
G01*
X101847935Y-91892664D01*
X102002627Y-91956740D01*
X102141844Y-92049761D01*
X102260238Y-92168155D01*
X102353259Y-92307372D01*
X102353260Y-92307374D01*
X102417335Y-92462064D01*
X102450000Y-92626282D01*
X102450000Y-92793718D01*
X102417335Y-92957936D01*
X102353260Y-93112626D01*
X102260238Y-93251844D01*
X102141844Y-93370238D01*
X102002626Y-93463260D01*
X101847936Y-93527335D01*
X101683718Y-93560000D01*
X101683717Y-93560000D01*
X101516283Y-93560000D01*
X101516282Y-93560000D01*
X101352064Y-93527335D01*
X101197374Y-93463260D01*
X101197373Y-93463259D01*
X101197372Y-93463259D01*
X101058155Y-93370238D01*
X100939761Y-93251844D01*
X100846740Y-93112627D01*
X100782664Y-92957935D01*
X100750000Y-92793717D01*
X100750000Y-92626282D01*
X100782664Y-92462064D01*
X100846740Y-92307372D01*
X100939761Y-92168155D01*
X101058155Y-92049761D01*
X101197372Y-91956740D01*
X101352064Y-91892664D01*
X101489037Y-91865419D01*
X101516282Y-91860000D01*
X101683718Y-91860000D01*
X101716382Y-91866497D01*
G37*
G36*
X104256382Y-91866497D02*
G01*
X104387935Y-91892664D01*
X104542627Y-91956740D01*
X104681844Y-92049761D01*
X104800238Y-92168155D01*
X104893259Y-92307372D01*
X104893260Y-92307374D01*
X104957335Y-92462064D01*
X104990000Y-92626282D01*
X104990000Y-92793718D01*
X104957335Y-92957936D01*
X104893260Y-93112626D01*
X104800238Y-93251844D01*
X104681844Y-93370238D01*
X104542626Y-93463260D01*
X104387936Y-93527335D01*
X104223718Y-93560000D01*
X104223717Y-93560000D01*
X104056283Y-93560000D01*
X104056282Y-93560000D01*
X103892064Y-93527335D01*
X103737374Y-93463260D01*
X103737373Y-93463259D01*
X103737372Y-93463259D01*
X103598155Y-93370238D01*
X103479761Y-93251844D01*
X103386740Y-93112627D01*
X103322664Y-92957935D01*
X103290000Y-92793717D01*
X103290000Y-92626282D01*
X103322664Y-92462064D01*
X103386740Y-92307372D01*
X103479761Y-92168155D01*
X103598155Y-92049761D01*
X103737372Y-91956740D01*
X103892064Y-91892664D01*
X104029037Y-91865419D01*
X104056282Y-91860000D01*
X104223718Y-91860000D01*
X104256382Y-91866497D01*
G37*
G36*
X106796382Y-91866497D02*
G01*
X106927935Y-91892664D01*
X107082627Y-91956740D01*
X107221844Y-92049761D01*
X107340238Y-92168155D01*
X107433259Y-92307372D01*
X107433260Y-92307374D01*
X107497335Y-92462064D01*
X107530000Y-92626282D01*
X107530000Y-92793718D01*
X107497335Y-92957936D01*
X107433260Y-93112626D01*
X107340238Y-93251844D01*
X107221844Y-93370238D01*
X107082626Y-93463260D01*
X106927936Y-93527335D01*
X106763718Y-93560000D01*
X106763717Y-93560000D01*
X106596283Y-93560000D01*
X106596282Y-93560000D01*
X106432064Y-93527335D01*
X106277374Y-93463260D01*
X106277373Y-93463259D01*
X106277372Y-93463259D01*
X106138155Y-93370238D01*
X106019761Y-93251844D01*
X105926740Y-93112627D01*
X105862664Y-92957935D01*
X105830000Y-92793717D01*
X105830000Y-92626282D01*
X105862664Y-92462064D01*
X105926740Y-92307372D01*
X106019761Y-92168155D01*
X106138155Y-92049761D01*
X106277372Y-91956740D01*
X106432064Y-91892664D01*
X106569037Y-91865419D01*
X106596282Y-91860000D01*
X106763718Y-91860000D01*
X106796382Y-91866497D01*
G37*
G36*
X109336382Y-91866497D02*
G01*
X109467935Y-91892664D01*
X109622627Y-91956740D01*
X109761844Y-92049761D01*
X109880238Y-92168155D01*
X109973259Y-92307372D01*
X109973260Y-92307374D01*
X110037335Y-92462064D01*
X110070000Y-92626282D01*
X110070000Y-92793718D01*
X110037335Y-92957936D01*
X109973260Y-93112626D01*
X109880238Y-93251844D01*
X109761844Y-93370238D01*
X109622626Y-93463260D01*
X109467936Y-93527335D01*
X109303718Y-93560000D01*
X109303717Y-93560000D01*
X109136283Y-93560000D01*
X109136282Y-93560000D01*
X108972064Y-93527335D01*
X108817374Y-93463260D01*
X108817373Y-93463259D01*
X108817372Y-93463259D01*
X108678155Y-93370238D01*
X108559761Y-93251844D01*
X108466740Y-93112627D01*
X108402664Y-92957935D01*
X108370000Y-92793717D01*
X108370000Y-92626282D01*
X108402664Y-92462064D01*
X108466740Y-92307372D01*
X108559761Y-92168155D01*
X108678155Y-92049761D01*
X108817372Y-91956740D01*
X108972064Y-91892664D01*
X109109037Y-91865419D01*
X109136282Y-91860000D01*
X109303718Y-91860000D01*
X109336382Y-91866497D01*
G37*
G36*
X111876382Y-91866497D02*
G01*
X112007935Y-91892664D01*
X112162627Y-91956740D01*
X112301844Y-92049761D01*
X112420238Y-92168155D01*
X112513259Y-92307372D01*
X112513260Y-92307374D01*
X112577335Y-92462064D01*
X112610000Y-92626282D01*
X112610000Y-92793718D01*
X112577335Y-92957936D01*
X112513260Y-93112626D01*
X112420238Y-93251844D01*
X112301844Y-93370238D01*
X112162626Y-93463260D01*
X112007936Y-93527335D01*
X111843718Y-93560000D01*
X111843717Y-93560000D01*
X111676283Y-93560000D01*
X111676282Y-93560000D01*
X111512064Y-93527335D01*
X111357374Y-93463260D01*
X111357373Y-93463259D01*
X111357372Y-93463259D01*
X111218155Y-93370238D01*
X111099761Y-93251844D01*
X111006740Y-93112627D01*
X110942664Y-92957935D01*
X110910000Y-92793717D01*
X110910000Y-92626282D01*
X110942664Y-92462064D01*
X111006740Y-92307372D01*
X111099761Y-92168155D01*
X111218155Y-92049761D01*
X111357372Y-91956740D01*
X111512064Y-91892664D01*
X111649037Y-91865419D01*
X111676282Y-91860000D01*
X111843718Y-91860000D01*
X111876382Y-91866497D01*
G37*
G36*
X114416382Y-91866497D02*
G01*
X114547935Y-91892664D01*
X114702627Y-91956740D01*
X114841844Y-92049761D01*
X114960238Y-92168155D01*
X115053259Y-92307372D01*
X115053260Y-92307374D01*
X115117335Y-92462064D01*
X115150000Y-92626282D01*
X115150000Y-92793718D01*
X115117335Y-92957936D01*
X115053260Y-93112626D01*
X114960238Y-93251844D01*
X114841844Y-93370238D01*
X114702626Y-93463260D01*
X114547936Y-93527335D01*
X114383718Y-93560000D01*
X114383717Y-93560000D01*
X114216283Y-93560000D01*
X114216282Y-93560000D01*
X114052064Y-93527335D01*
X113897374Y-93463260D01*
X113897373Y-93463259D01*
X113897372Y-93463259D01*
X113758155Y-93370238D01*
X113639761Y-93251844D01*
X113546740Y-93112627D01*
X113482664Y-92957935D01*
X113450000Y-92793717D01*
X113450000Y-92626282D01*
X113482664Y-92462064D01*
X113546740Y-92307372D01*
X113639761Y-92168155D01*
X113758155Y-92049761D01*
X113897372Y-91956740D01*
X114052064Y-91892664D01*
X114189037Y-91865419D01*
X114216282Y-91860000D01*
X114383718Y-91860000D01*
X114416382Y-91866497D01*
G37*
G36*
X116956382Y-91866497D02*
G01*
X117087935Y-91892664D01*
X117242627Y-91956740D01*
X117381844Y-92049761D01*
X117500238Y-92168155D01*
X117593259Y-92307372D01*
X117593260Y-92307374D01*
X117657335Y-92462064D01*
X117690000Y-92626282D01*
X117690000Y-92793718D01*
X117657335Y-92957936D01*
X117593260Y-93112626D01*
X117500238Y-93251844D01*
X117381844Y-93370238D01*
X117242626Y-93463260D01*
X117087936Y-93527335D01*
X116923718Y-93560000D01*
X116923717Y-93560000D01*
X116756283Y-93560000D01*
X116756282Y-93560000D01*
X116592064Y-93527335D01*
X116437374Y-93463260D01*
X116437373Y-93463259D01*
X116437372Y-93463259D01*
X116298155Y-93370238D01*
X116179761Y-93251844D01*
X116086740Y-93112627D01*
X116022664Y-92957935D01*
X115990000Y-92793717D01*
X115990000Y-92626282D01*
X116022664Y-92462064D01*
X116086740Y-92307372D01*
X116179761Y-92168155D01*
X116298155Y-92049761D01*
X116437372Y-91956740D01*
X116592064Y-91892664D01*
X116729037Y-91865419D01*
X116756282Y-91860000D01*
X116923718Y-91860000D01*
X116956382Y-91866497D01*
G37*
G36*
X119496382Y-91866497D02*
G01*
X119627935Y-91892664D01*
X119782627Y-91956740D01*
X119921844Y-92049761D01*
X120040238Y-92168155D01*
X120133259Y-92307372D01*
X120133260Y-92307374D01*
X120197335Y-92462064D01*
X120230000Y-92626282D01*
X120230000Y-92793718D01*
X120197335Y-92957936D01*
X120133260Y-93112626D01*
X120040238Y-93251844D01*
X119921844Y-93370238D01*
X119782626Y-93463260D01*
X119627936Y-93527335D01*
X119463718Y-93560000D01*
X119463717Y-93560000D01*
X119296283Y-93560000D01*
X119296282Y-93560000D01*
X119132064Y-93527335D01*
X118977374Y-93463260D01*
X118977373Y-93463259D01*
X118977372Y-93463259D01*
X118838155Y-93370238D01*
X118719761Y-93251844D01*
X118626740Y-93112627D01*
X118562664Y-92957935D01*
X118530000Y-92793717D01*
X118530000Y-92626282D01*
X118562664Y-92462064D01*
X118626740Y-92307372D01*
X118719761Y-92168155D01*
X118838155Y-92049761D01*
X118977372Y-91956740D01*
X119132064Y-91892664D01*
X119269037Y-91865419D01*
X119296282Y-91860000D01*
X119463718Y-91860000D01*
X119496382Y-91866497D01*
G37*
G36*
X122036382Y-91866497D02*
G01*
X122167935Y-91892664D01*
X122322627Y-91956740D01*
X122461844Y-92049761D01*
X122580238Y-92168155D01*
X122673259Y-92307372D01*
X122673260Y-92307374D01*
X122737335Y-92462064D01*
X122770000Y-92626282D01*
X122770000Y-92793718D01*
X122737335Y-92957936D01*
X122673260Y-93112626D01*
X122580238Y-93251844D01*
X122461844Y-93370238D01*
X122322626Y-93463260D01*
X122167936Y-93527335D01*
X122003718Y-93560000D01*
X122003717Y-93560000D01*
X121836283Y-93560000D01*
X121836282Y-93560000D01*
X121672064Y-93527335D01*
X121517374Y-93463260D01*
X121517373Y-93463259D01*
X121517372Y-93463259D01*
X121378155Y-93370238D01*
X121259761Y-93251844D01*
X121166740Y-93112627D01*
X121102664Y-92957935D01*
X121070000Y-92793717D01*
X121070000Y-92626282D01*
X121102664Y-92462064D01*
X121166740Y-92307372D01*
X121259761Y-92168155D01*
X121378155Y-92049761D01*
X121517372Y-91956740D01*
X121672064Y-91892664D01*
X121809037Y-91865419D01*
X121836282Y-91860000D01*
X122003718Y-91860000D01*
X122036382Y-91866497D01*
G37*
G36*
X124576382Y-91866497D02*
G01*
X124707935Y-91892664D01*
X124862627Y-91956740D01*
X125001844Y-92049761D01*
X125120238Y-92168155D01*
X125213259Y-92307372D01*
X125213260Y-92307374D01*
X125277335Y-92462064D01*
X125310000Y-92626282D01*
X125310000Y-92793718D01*
X125277335Y-92957936D01*
X125213260Y-93112626D01*
X125120238Y-93251844D01*
X125001844Y-93370238D01*
X124862626Y-93463260D01*
X124707936Y-93527335D01*
X124543718Y-93560000D01*
X124543717Y-93560000D01*
X124376283Y-93560000D01*
X124376282Y-93560000D01*
X124212064Y-93527335D01*
X124057374Y-93463260D01*
X124057373Y-93463259D01*
X124057372Y-93463259D01*
X123918155Y-93370238D01*
X123799761Y-93251844D01*
X123706740Y-93112627D01*
X123642664Y-92957935D01*
X123610000Y-92793717D01*
X123610000Y-92626282D01*
X123642664Y-92462064D01*
X123706740Y-92307372D01*
X123799761Y-92168155D01*
X123918155Y-92049761D01*
X124057372Y-91956740D01*
X124212064Y-91892664D01*
X124349037Y-91865419D01*
X124376282Y-91860000D01*
X124543718Y-91860000D01*
X124576382Y-91866497D01*
G37*
G36*
X127116382Y-91866497D02*
G01*
X127247935Y-91892664D01*
X127402627Y-91956740D01*
X127541844Y-92049761D01*
X127660238Y-92168155D01*
X127753259Y-92307372D01*
X127753260Y-92307374D01*
X127817335Y-92462064D01*
X127850000Y-92626282D01*
X127850000Y-92793718D01*
X127817335Y-92957936D01*
X127753260Y-93112626D01*
X127660238Y-93251844D01*
X127541844Y-93370238D01*
X127402626Y-93463260D01*
X127247936Y-93527335D01*
X127083718Y-93560000D01*
X127083717Y-93560000D01*
X126916283Y-93560000D01*
X126916282Y-93560000D01*
X126752064Y-93527335D01*
X126597374Y-93463260D01*
X126597373Y-93463259D01*
X126597372Y-93463259D01*
X126458155Y-93370238D01*
X126339761Y-93251844D01*
X126246740Y-93112627D01*
X126182664Y-92957935D01*
X126150000Y-92793717D01*
X126150000Y-92626282D01*
X126182664Y-92462064D01*
X126246740Y-92307372D01*
X126339761Y-92168155D01*
X126458155Y-92049761D01*
X126597372Y-91956740D01*
X126752064Y-91892664D01*
X126889037Y-91865419D01*
X126916282Y-91860000D01*
X127083718Y-91860000D01*
X127116382Y-91866497D01*
G37*
G36*
X129656382Y-91866497D02*
G01*
X129787935Y-91892664D01*
X129942627Y-91956740D01*
X130081844Y-92049761D01*
X130200238Y-92168155D01*
X130293259Y-92307372D01*
X130293260Y-92307374D01*
X130357335Y-92462064D01*
X130390000Y-92626282D01*
X130390000Y-92793718D01*
X130357335Y-92957936D01*
X130293260Y-93112626D01*
X130200238Y-93251844D01*
X130081844Y-93370238D01*
X129942626Y-93463260D01*
X129787936Y-93527335D01*
X129623718Y-93560000D01*
X129623717Y-93560000D01*
X129456283Y-93560000D01*
X129456282Y-93560000D01*
X129292064Y-93527335D01*
X129137374Y-93463260D01*
X129137373Y-93463259D01*
X129137372Y-93463259D01*
X128998155Y-93370238D01*
X128879761Y-93251844D01*
X128786740Y-93112627D01*
X128722664Y-92957935D01*
X128690000Y-92793717D01*
X128690000Y-92626282D01*
X128722664Y-92462064D01*
X128786740Y-92307372D01*
X128879761Y-92168155D01*
X128998155Y-92049761D01*
X129137372Y-91956740D01*
X129292064Y-91892664D01*
X129429037Y-91865419D01*
X129456282Y-91860000D01*
X129623718Y-91860000D01*
X129656382Y-91866497D01*
G37*
G36*
X132196382Y-91866497D02*
G01*
X132327935Y-91892664D01*
X132482627Y-91956740D01*
X132621844Y-92049761D01*
X132740238Y-92168155D01*
X132833259Y-92307372D01*
X132833260Y-92307374D01*
X132897335Y-92462064D01*
X132930000Y-92626282D01*
X132930000Y-92793718D01*
X132897335Y-92957936D01*
X132833260Y-93112626D01*
X132740238Y-93251844D01*
X132621844Y-93370238D01*
X132482626Y-93463260D01*
X132327936Y-93527335D01*
X132163718Y-93560000D01*
X132163717Y-93560000D01*
X131996283Y-93560000D01*
X131996282Y-93560000D01*
X131832064Y-93527335D01*
X131677374Y-93463260D01*
X131677373Y-93463259D01*
X131677372Y-93463259D01*
X131538155Y-93370238D01*
X131419761Y-93251844D01*
X131326740Y-93112627D01*
X131262664Y-92957935D01*
X131230000Y-92793717D01*
X131230000Y-92626282D01*
X131262664Y-92462064D01*
X131326740Y-92307372D01*
X131419761Y-92168155D01*
X131538155Y-92049761D01*
X131677372Y-91956740D01*
X131832064Y-91892664D01*
X131969037Y-91865419D01*
X131996282Y-91860000D01*
X132163718Y-91860000D01*
X132196382Y-91866497D01*
G37*
G36*
X134736382Y-91866497D02*
G01*
X134867935Y-91892664D01*
X135022627Y-91956740D01*
X135161844Y-92049761D01*
X135280238Y-92168155D01*
X135373259Y-92307372D01*
X135373260Y-92307374D01*
X135437335Y-92462064D01*
X135470000Y-92626282D01*
X135470000Y-92793718D01*
X135437335Y-92957936D01*
X135373260Y-93112626D01*
X135280238Y-93251844D01*
X135161844Y-93370238D01*
X135022626Y-93463260D01*
X134867936Y-93527335D01*
X134703718Y-93560000D01*
X134703717Y-93560000D01*
X134536283Y-93560000D01*
X134536282Y-93560000D01*
X134372064Y-93527335D01*
X134217374Y-93463260D01*
X134217373Y-93463259D01*
X134217372Y-93463259D01*
X134078155Y-93370238D01*
X133959761Y-93251844D01*
X133866740Y-93112627D01*
X133802664Y-92957935D01*
X133770000Y-92793717D01*
X133770000Y-92626282D01*
X133802664Y-92462064D01*
X133866740Y-92307372D01*
X133959761Y-92168155D01*
X134078155Y-92049761D01*
X134217372Y-91956740D01*
X134372064Y-91892664D01*
X134509037Y-91865419D01*
X134536282Y-91860000D01*
X134703718Y-91860000D01*
X134736382Y-91866497D01*
G37*
G36*
X138010000Y-93560000D02*
G01*
X138009997Y-93560000D01*
X136310003Y-93560000D01*
X136310000Y-93560000D01*
X136310000Y-91860000D01*
X138010000Y-91860000D01*
X138010000Y-93560000D01*
G37*
G36*
X96556976Y-87678453D02*
G01*
X96669921Y-87743661D01*
X96762137Y-87835877D01*
X96762138Y-87835879D01*
X96827345Y-87948821D01*
X96827345Y-87948822D01*
X96861099Y-88074790D01*
X96861099Y-88205209D01*
X96844222Y-88268193D01*
X96827345Y-88331179D01*
X96762138Y-88444121D01*
X96669920Y-88536339D01*
X96556978Y-88601546D01*
X96493992Y-88618423D01*
X96431008Y-88635300D01*
X96431006Y-88635300D01*
X95081392Y-88635300D01*
X95081390Y-88635300D01*
X94997410Y-88612797D01*
X94955420Y-88601546D01*
X94842478Y-88536339D01*
X94842476Y-88536338D01*
X94750260Y-88444122D01*
X94685052Y-88331177D01*
X94651299Y-88205209D01*
X94651299Y-88074790D01*
X94685052Y-87948822D01*
X94750260Y-87835877D01*
X94842476Y-87743661D01*
X94955421Y-87678453D01*
X95081390Y-87644700D01*
X96431008Y-87644700D01*
X96556976Y-87678453D01*
G37*
G36*
X100353777Y-87678453D02*
G01*
X100466722Y-87743661D01*
X100558938Y-87835877D01*
X100558939Y-87835879D01*
X100624146Y-87948821D01*
X100624146Y-87948822D01*
X100657900Y-88074790D01*
X100657900Y-88205209D01*
X100641023Y-88268193D01*
X100624146Y-88331179D01*
X100558939Y-88444121D01*
X100466721Y-88536339D01*
X100353779Y-88601546D01*
X100290793Y-88618423D01*
X100227809Y-88635300D01*
X100227807Y-88635300D01*
X99284593Y-88635300D01*
X99284591Y-88635300D01*
X99200611Y-88612797D01*
X99158621Y-88601546D01*
X99045679Y-88536339D01*
X99045677Y-88536338D01*
X98953461Y-88444122D01*
X98888253Y-88331177D01*
X98854500Y-88205209D01*
X98854500Y-88074790D01*
X98888253Y-87948822D01*
X98953461Y-87835877D01*
X99045677Y-87743661D01*
X99158622Y-87678453D01*
X99284591Y-87644700D01*
X100227809Y-87644700D01*
X100353777Y-87678453D01*
G37*
G36*
X96556976Y-79038453D02*
G01*
X96669921Y-79103661D01*
X96762137Y-79195877D01*
X96762138Y-79195879D01*
X96827345Y-79308821D01*
X96827345Y-79308822D01*
X96861099Y-79434790D01*
X96861099Y-79565209D01*
X96844222Y-79628193D01*
X96827345Y-79691179D01*
X96762138Y-79804121D01*
X96669920Y-79896339D01*
X96556978Y-79961546D01*
X96493992Y-79978423D01*
X96431008Y-79995300D01*
X96431006Y-79995300D01*
X95081392Y-79995300D01*
X95081390Y-79995300D01*
X94997410Y-79972797D01*
X94955420Y-79961546D01*
X94842478Y-79896339D01*
X94842476Y-79896338D01*
X94750260Y-79804122D01*
X94685052Y-79691177D01*
X94651299Y-79565209D01*
X94651299Y-79434790D01*
X94685052Y-79308822D01*
X94750260Y-79195877D01*
X94842476Y-79103661D01*
X94955421Y-79038453D01*
X95081390Y-79004700D01*
X96431008Y-79004700D01*
X96556976Y-79038453D01*
G37*
G36*
X100353777Y-79038453D02*
G01*
X100466722Y-79103661D01*
X100558938Y-79195877D01*
X100558939Y-79195879D01*
X100624146Y-79308821D01*
X100624146Y-79308822D01*
X100657900Y-79434790D01*
X100657900Y-79565209D01*
X100641023Y-79628193D01*
X100624146Y-79691179D01*
X100558939Y-79804121D01*
X100466721Y-79896339D01*
X100353779Y-79961546D01*
X100290793Y-79978423D01*
X100227809Y-79995300D01*
X100227807Y-79995300D01*
X99284593Y-79995300D01*
X99284591Y-79995300D01*
X99200611Y-79972797D01*
X99158621Y-79961546D01*
X99045679Y-79896339D01*
X99045677Y-79896338D01*
X98953461Y-79804122D01*
X98888253Y-79691177D01*
X98854500Y-79565209D01*
X98854500Y-79434790D01*
X98888253Y-79308822D01*
X98953461Y-79195877D01*
X99045677Y-79103661D01*
X99158622Y-79038453D01*
X99284591Y-79004700D01*
X100227809Y-79004700D01*
X100353777Y-79038453D01*
G37*
G36*
X101716382Y-74086497D02*
G01*
X101847935Y-74112664D01*
X102002627Y-74176740D01*
X102141844Y-74269761D01*
X102260238Y-74388155D01*
X102353259Y-74527372D01*
X102353260Y-74527374D01*
X102417335Y-74682064D01*
X102450000Y-74846282D01*
X102450000Y-75013718D01*
X102417335Y-75177936D01*
X102353260Y-75332626D01*
X102260238Y-75471844D01*
X102141844Y-75590238D01*
X102002626Y-75683260D01*
X101847936Y-75747335D01*
X101683718Y-75780000D01*
X101683717Y-75780000D01*
X101516283Y-75780000D01*
X101516282Y-75780000D01*
X101352064Y-75747335D01*
X101197374Y-75683260D01*
X101197373Y-75683259D01*
X101197372Y-75683259D01*
X101058155Y-75590238D01*
X100939761Y-75471844D01*
X100846740Y-75332627D01*
X100782664Y-75177935D01*
X100750000Y-75013717D01*
X100750000Y-74846282D01*
X100782664Y-74682064D01*
X100846740Y-74527372D01*
X100939761Y-74388155D01*
X101058155Y-74269761D01*
X101197372Y-74176740D01*
X101352064Y-74112664D01*
X101489037Y-74085419D01*
X101516282Y-74080000D01*
X101683718Y-74080000D01*
X101716382Y-74086497D01*
G37*
G36*
X104256382Y-74086497D02*
G01*
X104387935Y-74112664D01*
X104542627Y-74176740D01*
X104681844Y-74269761D01*
X104800238Y-74388155D01*
X104893259Y-74527372D01*
X104893260Y-74527374D01*
X104957335Y-74682064D01*
X104990000Y-74846282D01*
X104990000Y-75013718D01*
X104957335Y-75177936D01*
X104893260Y-75332626D01*
X104800238Y-75471844D01*
X104681844Y-75590238D01*
X104542626Y-75683260D01*
X104387936Y-75747335D01*
X104223718Y-75780000D01*
X104223717Y-75780000D01*
X104056283Y-75780000D01*
X104056282Y-75780000D01*
X103892064Y-75747335D01*
X103737374Y-75683260D01*
X103737373Y-75683259D01*
X103737372Y-75683259D01*
X103598155Y-75590238D01*
X103479761Y-75471844D01*
X103386740Y-75332627D01*
X103322664Y-75177935D01*
X103290000Y-75013717D01*
X103290000Y-74846282D01*
X103322664Y-74682064D01*
X103386740Y-74527372D01*
X103479761Y-74388155D01*
X103598155Y-74269761D01*
X103737372Y-74176740D01*
X103892064Y-74112664D01*
X104029037Y-74085419D01*
X104056282Y-74080000D01*
X104223718Y-74080000D01*
X104256382Y-74086497D01*
G37*
G36*
X106796382Y-74086497D02*
G01*
X106927935Y-74112664D01*
X107082627Y-74176740D01*
X107221844Y-74269761D01*
X107340238Y-74388155D01*
X107433259Y-74527372D01*
X107433260Y-74527374D01*
X107497335Y-74682064D01*
X107530000Y-74846282D01*
X107530000Y-75013718D01*
X107497335Y-75177936D01*
X107433260Y-75332626D01*
X107340238Y-75471844D01*
X107221844Y-75590238D01*
X107082626Y-75683260D01*
X106927936Y-75747335D01*
X106763718Y-75780000D01*
X106763717Y-75780000D01*
X106596283Y-75780000D01*
X106596282Y-75780000D01*
X106432064Y-75747335D01*
X106277374Y-75683260D01*
X106277373Y-75683259D01*
X106277372Y-75683259D01*
X106138155Y-75590238D01*
X106019761Y-75471844D01*
X105926740Y-75332627D01*
X105862664Y-75177935D01*
X105830000Y-75013717D01*
X105830000Y-74846282D01*
X105862664Y-74682064D01*
X105926740Y-74527372D01*
X106019761Y-74388155D01*
X106138155Y-74269761D01*
X106277372Y-74176740D01*
X106432064Y-74112664D01*
X106569037Y-74085419D01*
X106596282Y-74080000D01*
X106763718Y-74080000D01*
X106796382Y-74086497D01*
G37*
G36*
X109336382Y-74086497D02*
G01*
X109467935Y-74112664D01*
X109622627Y-74176740D01*
X109761844Y-74269761D01*
X109880238Y-74388155D01*
X109973259Y-74527372D01*
X109973260Y-74527374D01*
X110037335Y-74682064D01*
X110070000Y-74846282D01*
X110070000Y-75013718D01*
X110037335Y-75177936D01*
X109973260Y-75332626D01*
X109880238Y-75471844D01*
X109761844Y-75590238D01*
X109622626Y-75683260D01*
X109467936Y-75747335D01*
X109303718Y-75780000D01*
X109303717Y-75780000D01*
X109136283Y-75780000D01*
X109136282Y-75780000D01*
X108972064Y-75747335D01*
X108817374Y-75683260D01*
X108817373Y-75683259D01*
X108817372Y-75683259D01*
X108678155Y-75590238D01*
X108559761Y-75471844D01*
X108466740Y-75332627D01*
X108402664Y-75177935D01*
X108370000Y-75013717D01*
X108370000Y-74846282D01*
X108402664Y-74682064D01*
X108466740Y-74527372D01*
X108559761Y-74388155D01*
X108678155Y-74269761D01*
X108817372Y-74176740D01*
X108972064Y-74112664D01*
X109109037Y-74085419D01*
X109136282Y-74080000D01*
X109303718Y-74080000D01*
X109336382Y-74086497D01*
G37*
G36*
X111876382Y-74086497D02*
G01*
X112007935Y-74112664D01*
X112162627Y-74176740D01*
X112301844Y-74269761D01*
X112420238Y-74388155D01*
X112513259Y-74527372D01*
X112513260Y-74527374D01*
X112577335Y-74682064D01*
X112610000Y-74846282D01*
X112610000Y-75013718D01*
X112577335Y-75177936D01*
X112513260Y-75332626D01*
X112420238Y-75471844D01*
X112301844Y-75590238D01*
X112162626Y-75683260D01*
X112007936Y-75747335D01*
X111843718Y-75780000D01*
X111843717Y-75780000D01*
X111676283Y-75780000D01*
X111676282Y-75780000D01*
X111512064Y-75747335D01*
X111357374Y-75683260D01*
X111357373Y-75683259D01*
X111357372Y-75683259D01*
X111218155Y-75590238D01*
X111099761Y-75471844D01*
X111006740Y-75332627D01*
X110942664Y-75177935D01*
X110910000Y-75013717D01*
X110910000Y-74846282D01*
X110942664Y-74682064D01*
X111006740Y-74527372D01*
X111099761Y-74388155D01*
X111218155Y-74269761D01*
X111357372Y-74176740D01*
X111512064Y-74112664D01*
X111649037Y-74085419D01*
X111676282Y-74080000D01*
X111843718Y-74080000D01*
X111876382Y-74086497D01*
G37*
G36*
X114416382Y-74086497D02*
G01*
X114547935Y-74112664D01*
X114702627Y-74176740D01*
X114841844Y-74269761D01*
X114960238Y-74388155D01*
X115053259Y-74527372D01*
X115053260Y-74527374D01*
X115117335Y-74682064D01*
X115150000Y-74846282D01*
X115150000Y-75013718D01*
X115117335Y-75177936D01*
X115053260Y-75332626D01*
X114960238Y-75471844D01*
X114841844Y-75590238D01*
X114702626Y-75683260D01*
X114547936Y-75747335D01*
X114383718Y-75780000D01*
X114383717Y-75780000D01*
X114216283Y-75780000D01*
X114216282Y-75780000D01*
X114052064Y-75747335D01*
X113897374Y-75683260D01*
X113897373Y-75683259D01*
X113897372Y-75683259D01*
X113758155Y-75590238D01*
X113639761Y-75471844D01*
X113546740Y-75332627D01*
X113482664Y-75177935D01*
X113450000Y-75013717D01*
X113450000Y-74846282D01*
X113482664Y-74682064D01*
X113546740Y-74527372D01*
X113639761Y-74388155D01*
X113758155Y-74269761D01*
X113897372Y-74176740D01*
X114052064Y-74112664D01*
X114189037Y-74085419D01*
X114216282Y-74080000D01*
X114383718Y-74080000D01*
X114416382Y-74086497D01*
G37*
G36*
X116956382Y-74086497D02*
G01*
X117087935Y-74112664D01*
X117242627Y-74176740D01*
X117381844Y-74269761D01*
X117500238Y-74388155D01*
X117593259Y-74527372D01*
X117593260Y-74527374D01*
X117657335Y-74682064D01*
X117690000Y-74846282D01*
X117690000Y-75013718D01*
X117657335Y-75177936D01*
X117593260Y-75332626D01*
X117500238Y-75471844D01*
X117381844Y-75590238D01*
X117242626Y-75683260D01*
X117087936Y-75747335D01*
X116923718Y-75780000D01*
X116923717Y-75780000D01*
X116756283Y-75780000D01*
X116756282Y-75780000D01*
X116592064Y-75747335D01*
X116437374Y-75683260D01*
X116437373Y-75683259D01*
X116437372Y-75683259D01*
X116298155Y-75590238D01*
X116179761Y-75471844D01*
X116086740Y-75332627D01*
X116022664Y-75177935D01*
X115990000Y-75013717D01*
X115990000Y-74846282D01*
X116022664Y-74682064D01*
X116086740Y-74527372D01*
X116179761Y-74388155D01*
X116298155Y-74269761D01*
X116437372Y-74176740D01*
X116592064Y-74112664D01*
X116729037Y-74085419D01*
X116756282Y-74080000D01*
X116923718Y-74080000D01*
X116956382Y-74086497D01*
G37*
G36*
X119496382Y-74086497D02*
G01*
X119627935Y-74112664D01*
X119782627Y-74176740D01*
X119921844Y-74269761D01*
X120040238Y-74388155D01*
X120133259Y-74527372D01*
X120133260Y-74527374D01*
X120197335Y-74682064D01*
X120230000Y-74846282D01*
X120230000Y-75013718D01*
X120197335Y-75177936D01*
X120133260Y-75332626D01*
X120040238Y-75471844D01*
X119921844Y-75590238D01*
X119782626Y-75683260D01*
X119627936Y-75747335D01*
X119463718Y-75780000D01*
X119463717Y-75780000D01*
X119296283Y-75780000D01*
X119296282Y-75780000D01*
X119132064Y-75747335D01*
X118977374Y-75683260D01*
X118977373Y-75683259D01*
X118977372Y-75683259D01*
X118838155Y-75590238D01*
X118719761Y-75471844D01*
X118626740Y-75332627D01*
X118562664Y-75177935D01*
X118530000Y-75013717D01*
X118530000Y-74846282D01*
X118562664Y-74682064D01*
X118626740Y-74527372D01*
X118719761Y-74388155D01*
X118838155Y-74269761D01*
X118977372Y-74176740D01*
X119132064Y-74112664D01*
X119269037Y-74085419D01*
X119296282Y-74080000D01*
X119463718Y-74080000D01*
X119496382Y-74086497D01*
G37*
G36*
X122036382Y-74086497D02*
G01*
X122167935Y-74112664D01*
X122322627Y-74176740D01*
X122461844Y-74269761D01*
X122580238Y-74388155D01*
X122673259Y-74527372D01*
X122673260Y-74527374D01*
X122737335Y-74682064D01*
X122770000Y-74846282D01*
X122770000Y-75013718D01*
X122737335Y-75177936D01*
X122673260Y-75332626D01*
X122580238Y-75471844D01*
X122461844Y-75590238D01*
X122322626Y-75683260D01*
X122167936Y-75747335D01*
X122003718Y-75780000D01*
X122003717Y-75780000D01*
X121836283Y-75780000D01*
X121836282Y-75780000D01*
X121672064Y-75747335D01*
X121517374Y-75683260D01*
X121517373Y-75683259D01*
X121517372Y-75683259D01*
X121378155Y-75590238D01*
X121259761Y-75471844D01*
X121166740Y-75332627D01*
X121102664Y-75177935D01*
X121070000Y-75013717D01*
X121070000Y-74846282D01*
X121102664Y-74682064D01*
X121166740Y-74527372D01*
X121259761Y-74388155D01*
X121378155Y-74269761D01*
X121517372Y-74176740D01*
X121672064Y-74112664D01*
X121809037Y-74085419D01*
X121836282Y-74080000D01*
X122003718Y-74080000D01*
X122036382Y-74086497D01*
G37*
G36*
X124576382Y-74086497D02*
G01*
X124707935Y-74112664D01*
X124862627Y-74176740D01*
X125001844Y-74269761D01*
X125120238Y-74388155D01*
X125213259Y-74527372D01*
X125213260Y-74527374D01*
X125277335Y-74682064D01*
X125310000Y-74846282D01*
X125310000Y-75013718D01*
X125277335Y-75177936D01*
X125213260Y-75332626D01*
X125120238Y-75471844D01*
X125001844Y-75590238D01*
X124862626Y-75683260D01*
X124707936Y-75747335D01*
X124543718Y-75780000D01*
X124543717Y-75780000D01*
X124376283Y-75780000D01*
X124376282Y-75780000D01*
X124212064Y-75747335D01*
X124057374Y-75683260D01*
X124057373Y-75683259D01*
X124057372Y-75683259D01*
X123918155Y-75590238D01*
X123799761Y-75471844D01*
X123706740Y-75332627D01*
X123642664Y-75177935D01*
X123610000Y-75013717D01*
X123610000Y-74846282D01*
X123642664Y-74682064D01*
X123706740Y-74527372D01*
X123799761Y-74388155D01*
X123918155Y-74269761D01*
X124057372Y-74176740D01*
X124212064Y-74112664D01*
X124349037Y-74085419D01*
X124376282Y-74080000D01*
X124543718Y-74080000D01*
X124576382Y-74086497D01*
G37*
G36*
X127116382Y-74086497D02*
G01*
X127247935Y-74112664D01*
X127402627Y-74176740D01*
X127541844Y-74269761D01*
X127660238Y-74388155D01*
X127753259Y-74527372D01*
X127753260Y-74527374D01*
X127817335Y-74682064D01*
X127850000Y-74846282D01*
X127850000Y-75013718D01*
X127817335Y-75177936D01*
X127753260Y-75332626D01*
X127660238Y-75471844D01*
X127541844Y-75590238D01*
X127402626Y-75683260D01*
X127247936Y-75747335D01*
X127083718Y-75780000D01*
X127083717Y-75780000D01*
X126916283Y-75780000D01*
X126916282Y-75780000D01*
X126752064Y-75747335D01*
X126597374Y-75683260D01*
X126597373Y-75683259D01*
X126597372Y-75683259D01*
X126458155Y-75590238D01*
X126339761Y-75471844D01*
X126246740Y-75332627D01*
X126182664Y-75177935D01*
X126150000Y-75013717D01*
X126150000Y-74846282D01*
X126182664Y-74682064D01*
X126246740Y-74527372D01*
X126339761Y-74388155D01*
X126458155Y-74269761D01*
X126597372Y-74176740D01*
X126752064Y-74112664D01*
X126889037Y-74085419D01*
X126916282Y-74080000D01*
X127083718Y-74080000D01*
X127116382Y-74086497D01*
G37*
G36*
X129656382Y-74086497D02*
G01*
X129787935Y-74112664D01*
X129942627Y-74176740D01*
X130081844Y-74269761D01*
X130200238Y-74388155D01*
X130293259Y-74527372D01*
X130293260Y-74527374D01*
X130357335Y-74682064D01*
X130390000Y-74846282D01*
X130390000Y-75013718D01*
X130357335Y-75177936D01*
X130293260Y-75332626D01*
X130200238Y-75471844D01*
X130081844Y-75590238D01*
X129942626Y-75683260D01*
X129787936Y-75747335D01*
X129623718Y-75780000D01*
X129623717Y-75780000D01*
X129456283Y-75780000D01*
X129456282Y-75780000D01*
X129292064Y-75747335D01*
X129137374Y-75683260D01*
X129137373Y-75683259D01*
X129137372Y-75683259D01*
X128998155Y-75590238D01*
X128879761Y-75471844D01*
X128786740Y-75332627D01*
X128722664Y-75177935D01*
X128690000Y-75013717D01*
X128690000Y-74846282D01*
X128722664Y-74682064D01*
X128786740Y-74527372D01*
X128879761Y-74388155D01*
X128998155Y-74269761D01*
X129137372Y-74176740D01*
X129292064Y-74112664D01*
X129429037Y-74085419D01*
X129456282Y-74080000D01*
X129623718Y-74080000D01*
X129656382Y-74086497D01*
G37*
G36*
X132196382Y-74086497D02*
G01*
X132327935Y-74112664D01*
X132482627Y-74176740D01*
X132621844Y-74269761D01*
X132740238Y-74388155D01*
X132833259Y-74527372D01*
X132833260Y-74527374D01*
X132897335Y-74682064D01*
X132930000Y-74846282D01*
X132930000Y-75013718D01*
X132897335Y-75177936D01*
X132833260Y-75332626D01*
X132740238Y-75471844D01*
X132621844Y-75590238D01*
X132482626Y-75683260D01*
X132327936Y-75747335D01*
X132163718Y-75780000D01*
X132163717Y-75780000D01*
X131996283Y-75780000D01*
X131996282Y-75780000D01*
X131832064Y-75747335D01*
X131677374Y-75683260D01*
X131677373Y-75683259D01*
X131677372Y-75683259D01*
X131538155Y-75590238D01*
X131419761Y-75471844D01*
X131326740Y-75332627D01*
X131262664Y-75177935D01*
X131230000Y-75013717D01*
X131230000Y-74846282D01*
X131262664Y-74682064D01*
X131326740Y-74527372D01*
X131419761Y-74388155D01*
X131538155Y-74269761D01*
X131677372Y-74176740D01*
X131832064Y-74112664D01*
X131969037Y-74085419D01*
X131996282Y-74080000D01*
X132163718Y-74080000D01*
X132196382Y-74086497D01*
G37*
G36*
X134736382Y-74086497D02*
G01*
X134867935Y-74112664D01*
X135022627Y-74176740D01*
X135161844Y-74269761D01*
X135280238Y-74388155D01*
X135373259Y-74527372D01*
X135373260Y-74527374D01*
X135437335Y-74682064D01*
X135470000Y-74846282D01*
X135470000Y-75013718D01*
X135437335Y-75177936D01*
X135373260Y-75332626D01*
X135280238Y-75471844D01*
X135161844Y-75590238D01*
X135022626Y-75683260D01*
X134867936Y-75747335D01*
X134703718Y-75780000D01*
X134703717Y-75780000D01*
X134536283Y-75780000D01*
X134536282Y-75780000D01*
X134372064Y-75747335D01*
X134217374Y-75683260D01*
X134217373Y-75683259D01*
X134217372Y-75683259D01*
X134078155Y-75590238D01*
X133959761Y-75471844D01*
X133866740Y-75332627D01*
X133802664Y-75177935D01*
X133770000Y-75013717D01*
X133770000Y-74846282D01*
X133802664Y-74682064D01*
X133866740Y-74527372D01*
X133959761Y-74388155D01*
X134078155Y-74269761D01*
X134217372Y-74176740D01*
X134372064Y-74112664D01*
X134509037Y-74085419D01*
X134536282Y-74080000D01*
X134703718Y-74080000D01*
X134736382Y-74086497D01*
G37*
G36*
X138010000Y-75780000D02*
G01*
X138009997Y-75780000D01*
X136310003Y-75780000D01*
X136310000Y-75780000D01*
X136310000Y-74080000D01*
X138010000Y-74080000D01*
X138010000Y-75780000D01*
G37*
M02*
