%TF.GenerationSoftware,KiCad,Pcbnew,9.0.7*%
%TF.CreationDate,2026-07-04T14:57:21-07:00*%
%TF.ProjectId,STM32_Microcontrollerx32,53544d33-325f-44d6-9963-726f636f6e74,rev?*%
%TF.SameCoordinates,Original*%
%TF.FileFunction,Copper,L2,Inr*%
%TF.FilePolarity,Positive*%
%FSLAX46Y46*%
G04 Gerber Fmt 4.6, Leading zero omitted, Abs format (unit mm)*
G04 Created by KiCad (PCBNEW 9.0.7) date 2026-07-04 14:57:21*
%MOMM*%
%LPD*%
G01*
G04 APERTURE LIST*
%TA.AperFunction,ComponentPad*%
%ADD10C,1.700000*%
%TD*%
%TA.AperFunction,ComponentPad*%
%ADD11R,1.700000X1.700000*%
%TD*%
%TA.AperFunction,ComponentPad*%
%ADD12O,2.209800X0.990600*%
%TD*%
%TA.AperFunction,ComponentPad*%
%ADD13O,1.803400X0.990600*%
%TD*%
%TA.AperFunction,ViaPad*%
%ADD14C,0.700000*%
%TD*%
%TA.AperFunction,ViaPad*%
%ADD15C,1.500000*%
%TD*%
%TA.AperFunction,Conductor*%
%ADD16C,0.300000*%
%TD*%
%TA.AperFunction,Conductor*%
%ADD17C,0.500000*%
%TD*%
G04 APERTURE END LIST*
D10*
%TO.N,+3V3*%
%TO.C,J1*%
X101600000Y-74930000D03*
%TO.N,PA10*%
X104140000Y-74930000D03*
%TO.N,PA9*%
X106680000Y-74930000D03*
%TO.N,PA8*%
X109220000Y-74930000D03*
%TO.N,PB1*%
X111760000Y-74930000D03*
%TO.N,PB0*%
X114300000Y-74930000D03*
%TO.N,PA7*%
X116840000Y-74930000D03*
%TO.N,PA6*%
X119380000Y-74930000D03*
%TO.N,PA5*%
X121920000Y-74930000D03*
%TO.N,PA4*%
X124460000Y-74930000D03*
%TO.N,PA3*%
X127000000Y-74930000D03*
%TO.N,PA2*%
X129540000Y-74930000D03*
%TO.N,PA1*%
X132080000Y-74930000D03*
%TO.N,PA0*%
X134620000Y-74930000D03*
D11*
%TO.N,GND*%
X137160000Y-74930000D03*
%TD*%
D12*
%TO.N,GND*%
%TO.C,J3*%
X95756199Y-79500000D03*
X95756199Y-88140000D03*
D13*
X99756200Y-79500000D03*
X99756200Y-88140000D03*
%TD*%
D10*
%TO.N,+3V3*%
%TO.C,J2*%
X101600000Y-92710000D03*
%TO.N,PA13{slash}SWDIO*%
X104140000Y-92710000D03*
%TO.N,PA14{slash}SWCLK*%
X106680000Y-92710000D03*
%TO.N,GND*%
X109220000Y-92710000D03*
%TO.N,PB4*%
X111760000Y-92710000D03*
%TO.N,PB3*%
X114300000Y-92710000D03*
%TO.N,PA15*%
X116840000Y-92710000D03*
%TO.N,PB5*%
X119380000Y-92710000D03*
%TO.N,PB6*%
X121920000Y-92710000D03*
%TO.N,PB7*%
X124460000Y-92710000D03*
%TO.N,BOOT0*%
X127000000Y-92710000D03*
%TO.N,PC14*%
X129540000Y-92710000D03*
%TO.N,PC15*%
X132080000Y-92710000D03*
%TO.N,NRST*%
X134620000Y-92710000D03*
D11*
%TO.N,GND*%
X137160000Y-92710000D03*
%TD*%
D14*
%TO.N,GND*%
X105283000Y-87884000D03*
X117856000Y-85293200D03*
X98094800Y-74676000D03*
X125730000Y-77749400D03*
%TO.N,PA2*%
X128270000Y-77876400D03*
%TO.N,5V_FILT*%
X135636000Y-77724000D03*
%TO.N,BOOT0*%
X117856000Y-86741000D03*
D15*
%TO.N,5V_FILT*%
X135128000Y-90030300D03*
D14*
%TO.N,+3V3*%
X110947200Y-77165200D03*
%TO.N,PA2*%
X117043200Y-77333000D03*
%TO.N,PA3*%
X115976400Y-78384400D03*
%TO.N,PA6*%
X113893600Y-76962000D03*
%TO.N,PA1*%
X118394983Y-77333000D03*
%TO.N,GND*%
X119888000Y-77333000D03*
D15*
%TO.N,+3V3*%
X104546400Y-77165200D03*
D14*
X102021000Y-80391000D03*
%TO.N,GND*%
X106172000Y-78486000D03*
X106172000Y-79629000D03*
%TO.N,+3V3*%
X121361200Y-79908400D03*
%TO.N,PB5*%
X111113997Y-86360000D03*
%TO.N,NRST*%
X126099997Y-86995000D03*
%TO.N,+BATT*%
X134382000Y-84820000D03*
X124764800Y-86995000D03*
%TO.N,GND*%
X115189000Y-88341200D03*
%TO.N,+3V3*%
X117983000Y-89839800D03*
%TO.N,5V_FILT*%
X128397000Y-84201000D03*
%TO.N,GND*%
X127000000Y-86995000D03*
X128397000Y-90170000D03*
X114579400Y-82448400D03*
X113309400Y-82448400D03*
X113309400Y-81063000D03*
X112090200Y-82448400D03*
X114579400Y-81063000D03*
X112090200Y-81063000D03*
X114579400Y-79756000D03*
X113309400Y-79756000D03*
X112090200Y-79756000D03*
X136825000Y-81026000D03*
X135382000Y-81026000D03*
X121920000Y-84089000D03*
%TO.N,PC15*%
X123063000Y-83820000D03*
%TO.N,PC14*%
X117326380Y-82147380D03*
%TO.N,GND*%
X110617000Y-78359000D03*
X115824000Y-83693000D03*
%TO.N,+3V3*%
X116967000Y-83693000D03*
%TO.N,PB7*%
X113538000Y-85344000D03*
%TO.N,PB6*%
X112014000Y-86360000D03*
%TO.N,PB3*%
X109982000Y-84328000D03*
%TO.N,PA15*%
X110744000Y-83693000D03*
%TO.N,PA10*%
X108005040Y-82203931D03*
%TO.N,PA9*%
X108444574Y-81389624D03*
%TO.N,PA8*%
X108427621Y-80489781D03*
%TO.N,GND*%
X130302000Y-87884000D03*
X132334000Y-87884000D03*
X132334000Y-86741000D03*
X130302000Y-86741000D03*
X136652000Y-87122000D03*
%TO.N,/VIN*%
X110540800Y-88798400D03*
X106807000Y-82270600D03*
%TO.N,GND*%
X105791000Y-86360000D03*
D15*
%TO.N,5V_FILT*%
X105410000Y-89916000D03*
D14*
%TO.N,/VBUS*%
X97967800Y-83820000D03*
X104089200Y-83820000D03*
%TO.N,GND*%
X95808800Y-91363800D03*
X99060000Y-86868000D03*
X104775000Y-86487000D03*
X106299000Y-83820000D03*
X99060000Y-80772000D03*
%TO.N,PB4*%
X109572575Y-85129481D03*
%TO.N,PA14{slash}SWCLK*%
X107971575Y-85111575D03*
%TO.N,PA13{slash}SWDIO*%
X106934000Y-85090000D03*
%TD*%
D16*
%TO.N,+3V3*%
X110083600Y-76301600D02*
X110947200Y-77165200D01*
X109677200Y-76301600D02*
X110083600Y-76301600D01*
X105410000Y-76301600D02*
X109677200Y-76301600D01*
X104546400Y-77165200D02*
X105410000Y-76301600D01*
D17*
%TO.N,5V_FILT*%
X106903000Y-91409000D02*
X133749300Y-91409000D01*
X133749300Y-91409000D02*
X135128000Y-90030300D01*
X105410000Y-89916000D02*
X106903000Y-91409000D01*
%TD*%
%TA.AperFunction,Conductor*%
%TO.N,GND*%
G36*
X100903052Y-73979407D02*
G01*
X100939016Y-74028907D01*
X100939016Y-74090093D01*
X100914866Y-74129501D01*
X100818660Y-74225708D01*
X100784020Y-74260348D01*
X100669058Y-74432402D01*
X100589869Y-74623581D01*
X100549500Y-74826532D01*
X100549500Y-75033467D01*
X100589869Y-75236418D01*
X100669058Y-75427597D01*
X100709906Y-75488731D01*
X100784023Y-75599655D01*
X100930345Y-75745977D01*
X101102402Y-75860941D01*
X101293580Y-75940130D01*
X101496535Y-75980500D01*
X101496536Y-75980500D01*
X101703464Y-75980500D01*
X101703465Y-75980500D01*
X101906420Y-75940130D01*
X102097598Y-75860941D01*
X102269655Y-75745977D01*
X102415977Y-75599655D01*
X102530941Y-75427598D01*
X102610130Y-75236420D01*
X102650500Y-75033465D01*
X102650500Y-74826535D01*
X102610130Y-74623580D01*
X102530941Y-74432402D01*
X102415977Y-74260345D01*
X102285133Y-74129501D01*
X102257358Y-74074987D01*
X102266929Y-74014555D01*
X102310194Y-73971290D01*
X102355139Y-73960500D01*
X103384861Y-73960500D01*
X103443052Y-73979407D01*
X103479016Y-74028907D01*
X103479016Y-74090093D01*
X103454866Y-74129501D01*
X103358660Y-74225708D01*
X103324020Y-74260348D01*
X103209058Y-74432402D01*
X103129869Y-74623581D01*
X103089500Y-74826532D01*
X103089500Y-75033467D01*
X103129869Y-75236418D01*
X103209058Y-75427597D01*
X103249906Y-75488731D01*
X103324023Y-75599655D01*
X103470345Y-75745977D01*
X103642402Y-75860941D01*
X103833580Y-75940130D01*
X104036535Y-75980500D01*
X104036536Y-75980500D01*
X104243464Y-75980500D01*
X104243465Y-75980500D01*
X104446420Y-75940130D01*
X104637598Y-75860941D01*
X104809655Y-75745977D01*
X104955977Y-75599655D01*
X105070941Y-75427598D01*
X105150130Y-75236420D01*
X105190500Y-75033465D01*
X105190500Y-74826535D01*
X105150130Y-74623580D01*
X105070941Y-74432402D01*
X104955977Y-74260345D01*
X104825133Y-74129501D01*
X104797358Y-74074987D01*
X104806929Y-74014555D01*
X104850194Y-73971290D01*
X104895139Y-73960500D01*
X105924861Y-73960500D01*
X105983052Y-73979407D01*
X106019016Y-74028907D01*
X106019016Y-74090093D01*
X105994866Y-74129501D01*
X105898660Y-74225708D01*
X105864020Y-74260348D01*
X105749058Y-74432402D01*
X105669869Y-74623581D01*
X105629500Y-74826532D01*
X105629500Y-75033467D01*
X105669869Y-75236418D01*
X105749058Y-75427597D01*
X105789906Y-75488731D01*
X105864023Y-75599655D01*
X106010345Y-75745977D01*
X106036230Y-75763273D01*
X106045975Y-75769784D01*
X106083855Y-75817834D01*
X106086257Y-75878972D01*
X106052265Y-75929846D01*
X105994861Y-75951024D01*
X105990974Y-75951100D01*
X105456144Y-75951100D01*
X105363856Y-75951100D01*
X105274712Y-75974986D01*
X105194785Y-76021132D01*
X104970155Y-76245762D01*
X104915639Y-76273539D01*
X104862267Y-76267222D01*
X104823651Y-76251227D01*
X104640018Y-76214700D01*
X104640016Y-76214700D01*
X104452784Y-76214700D01*
X104452781Y-76214700D01*
X104269150Y-76251226D01*
X104096170Y-76322877D01*
X104096161Y-76322881D01*
X103940492Y-76426898D01*
X103940488Y-76426901D01*
X103808101Y-76559288D01*
X103808098Y-76559292D01*
X103704081Y-76714961D01*
X103704077Y-76714970D01*
X103632426Y-76887950D01*
X103595900Y-77071581D01*
X103595900Y-77258818D01*
X103632426Y-77442449D01*
X103704077Y-77615429D01*
X103704081Y-77615438D01*
X103778465Y-77726759D01*
X103808098Y-77771108D01*
X103940492Y-77903502D01*
X104006863Y-77947849D01*
X104096161Y-78007518D01*
X104096167Y-78007520D01*
X104096169Y-78007522D01*
X104269149Y-78079173D01*
X104452784Y-78115700D01*
X104452785Y-78115700D01*
X104640015Y-78115700D01*
X104640016Y-78115700D01*
X104823651Y-78079173D01*
X104996631Y-78007522D01*
X104996634Y-78007519D01*
X104996638Y-78007518D01*
X105084402Y-77948875D01*
X105152308Y-77903502D01*
X105284702Y-77771108D01*
X105364605Y-77651525D01*
X105388718Y-77615438D01*
X105388719Y-77615434D01*
X105388722Y-77615431D01*
X105460373Y-77442451D01*
X105496900Y-77258816D01*
X105496900Y-77071584D01*
X105460373Y-76887949D01*
X105444377Y-76849331D01*
X105442266Y-76822517D01*
X105438060Y-76795957D01*
X105439892Y-76792360D01*
X105439576Y-76788335D01*
X105465837Y-76741444D01*
X105526187Y-76681095D01*
X105580704Y-76653319D01*
X105596189Y-76652100D01*
X109631056Y-76652100D01*
X109897410Y-76652100D01*
X109955601Y-76671007D01*
X109967414Y-76681096D01*
X110367704Y-77081386D01*
X110395481Y-77135903D01*
X110396700Y-77151390D01*
X110396700Y-77237675D01*
X110408977Y-77283491D01*
X110434217Y-77377689D01*
X110506687Y-77503210D01*
X110506689Y-77503212D01*
X110506691Y-77503215D01*
X110609185Y-77605709D01*
X110609187Y-77605710D01*
X110609189Y-77605712D01*
X110734711Y-77678182D01*
X110734712Y-77678182D01*
X110734715Y-77678184D01*
X110874725Y-77715700D01*
X110874726Y-77715700D01*
X111019674Y-77715700D01*
X111019675Y-77715700D01*
X111159685Y-77678184D01*
X111159687Y-77678182D01*
X111159689Y-77678182D01*
X111285210Y-77605712D01*
X111285210Y-77605711D01*
X111285215Y-77605709D01*
X111387709Y-77503215D01*
X111404008Y-77474984D01*
X111460182Y-77377689D01*
X111460182Y-77377687D01*
X111460184Y-77377685D01*
X111497700Y-77237675D01*
X111497700Y-77092725D01*
X111460184Y-76952715D01*
X111423701Y-76889525D01*
X113343100Y-76889525D01*
X113343100Y-77034475D01*
X113366153Y-77120510D01*
X113380617Y-77174489D01*
X113453087Y-77300010D01*
X113453089Y-77300012D01*
X113453091Y-77300015D01*
X113555585Y-77402509D01*
X113555587Y-77402510D01*
X113555589Y-77402512D01*
X113681111Y-77474982D01*
X113681112Y-77474982D01*
X113681115Y-77474984D01*
X113821125Y-77512500D01*
X113821126Y-77512500D01*
X113966074Y-77512500D01*
X113966075Y-77512500D01*
X114106085Y-77474984D01*
X114106087Y-77474982D01*
X114106089Y-77474982D01*
X114231610Y-77402512D01*
X114231610Y-77402511D01*
X114231615Y-77402509D01*
X114334109Y-77300015D01*
X114343652Y-77283487D01*
X114356909Y-77260525D01*
X116492700Y-77260525D01*
X116492700Y-77405474D01*
X116530217Y-77545489D01*
X116602687Y-77671010D01*
X116602689Y-77671012D01*
X116602691Y-77671015D01*
X116705185Y-77773509D01*
X116705187Y-77773510D01*
X116705189Y-77773512D01*
X116830711Y-77845982D01*
X116830712Y-77845982D01*
X116830715Y-77845984D01*
X116970725Y-77883500D01*
X116970726Y-77883500D01*
X117115674Y-77883500D01*
X117115675Y-77883500D01*
X117255685Y-77845984D01*
X117255687Y-77845982D01*
X117255689Y-77845982D01*
X117381210Y-77773512D01*
X117381210Y-77773511D01*
X117381215Y-77773509D01*
X117483709Y-77671015D01*
X117494962Y-77651525D01*
X117556182Y-77545489D01*
X117556182Y-77545487D01*
X117556184Y-77545485D01*
X117593700Y-77405475D01*
X117593700Y-77260525D01*
X117844483Y-77260525D01*
X117844483Y-77405474D01*
X117882000Y-77545489D01*
X117954470Y-77671010D01*
X117954472Y-77671012D01*
X117954474Y-77671015D01*
X118056968Y-77773509D01*
X118056970Y-77773510D01*
X118056972Y-77773512D01*
X118182494Y-77845982D01*
X118182495Y-77845982D01*
X118182498Y-77845984D01*
X118322508Y-77883500D01*
X118322509Y-77883500D01*
X118467457Y-77883500D01*
X118467458Y-77883500D01*
X118607468Y-77845984D01*
X118607470Y-77845982D01*
X118607472Y-77845982D01*
X118680316Y-77803925D01*
X127719500Y-77803925D01*
X127719500Y-77948874D01*
X127757017Y-78088889D01*
X127829487Y-78214410D01*
X127829489Y-78214412D01*
X127829491Y-78214415D01*
X127931985Y-78316909D01*
X127931987Y-78316910D01*
X127931989Y-78316912D01*
X128057511Y-78389382D01*
X128057512Y-78389382D01*
X128057515Y-78389384D01*
X128197525Y-78426900D01*
X128197526Y-78426900D01*
X128342474Y-78426900D01*
X128342475Y-78426900D01*
X128482485Y-78389384D01*
X128482487Y-78389382D01*
X128482489Y-78389382D01*
X128608010Y-78316912D01*
X128608010Y-78316911D01*
X128608015Y-78316909D01*
X128710509Y-78214415D01*
X128710512Y-78214410D01*
X128782982Y-78088889D01*
X128782982Y-78088887D01*
X128782984Y-78088885D01*
X128820500Y-77948875D01*
X128820500Y-77803925D01*
X128782984Y-77663915D01*
X128782983Y-77663914D01*
X128782983Y-77663912D01*
X128782982Y-77663911D01*
X128775831Y-77651525D01*
X135085500Y-77651525D01*
X135085500Y-77796474D01*
X135123017Y-77936489D01*
X135195487Y-78062010D01*
X135195489Y-78062012D01*
X135195491Y-78062015D01*
X135297985Y-78164509D01*
X135297987Y-78164510D01*
X135297989Y-78164512D01*
X135423511Y-78236982D01*
X135423512Y-78236982D01*
X135423515Y-78236984D01*
X135563525Y-78274500D01*
X135563526Y-78274500D01*
X135708474Y-78274500D01*
X135708475Y-78274500D01*
X135848485Y-78236984D01*
X135848487Y-78236982D01*
X135848489Y-78236982D01*
X135974010Y-78164512D01*
X135974010Y-78164511D01*
X135974015Y-78164509D01*
X136076509Y-78062015D01*
X136144708Y-77943891D01*
X136148982Y-77936489D01*
X136148982Y-77936487D01*
X136148984Y-77936485D01*
X136186500Y-77796475D01*
X136186500Y-77651525D01*
X136148984Y-77511515D01*
X136148982Y-77511512D01*
X136148982Y-77511510D01*
X136076512Y-77385989D01*
X136076510Y-77385987D01*
X136076509Y-77385985D01*
X135974015Y-77283491D01*
X135974012Y-77283489D01*
X135974010Y-77283487D01*
X135848488Y-77211017D01*
X135848489Y-77211017D01*
X135818896Y-77203087D01*
X135708475Y-77173500D01*
X135563525Y-77173500D01*
X135501790Y-77190041D01*
X135423510Y-77211017D01*
X135297989Y-77283487D01*
X135195487Y-77385989D01*
X135123017Y-77511510D01*
X135085500Y-77651525D01*
X128775831Y-77651525D01*
X128710512Y-77538389D01*
X128710510Y-77538387D01*
X128710509Y-77538385D01*
X128608015Y-77435891D01*
X128608012Y-77435889D01*
X128608010Y-77435887D01*
X128482488Y-77363417D01*
X128482489Y-77363417D01*
X128452896Y-77355487D01*
X128342475Y-77325900D01*
X128197525Y-77325900D01*
X128135790Y-77342441D01*
X128057510Y-77363417D01*
X127931989Y-77435887D01*
X127829487Y-77538389D01*
X127757017Y-77663910D01*
X127719500Y-77803925D01*
X118680316Y-77803925D01*
X118732993Y-77773512D01*
X118732993Y-77773511D01*
X118732998Y-77773509D01*
X118835492Y-77671015D01*
X118846745Y-77651525D01*
X118907965Y-77545489D01*
X118907965Y-77545487D01*
X118907967Y-77545485D01*
X118945483Y-77405475D01*
X118945483Y-77260525D01*
X118907967Y-77120515D01*
X118907965Y-77120512D01*
X118907965Y-77120510D01*
X118835495Y-76994989D01*
X118835493Y-76994987D01*
X118835492Y-76994985D01*
X118732998Y-76892491D01*
X118732995Y-76892489D01*
X118732993Y-76892487D01*
X118607471Y-76820017D01*
X118607472Y-76820017D01*
X118577879Y-76812087D01*
X118467458Y-76782500D01*
X118322508Y-76782500D01*
X118260773Y-76799041D01*
X118182493Y-76820017D01*
X118056972Y-76892487D01*
X117954470Y-76994989D01*
X117882000Y-77120510D01*
X117844483Y-77260525D01*
X117593700Y-77260525D01*
X117556184Y-77120515D01*
X117556182Y-77120512D01*
X117556182Y-77120510D01*
X117483712Y-76994989D01*
X117483710Y-76994987D01*
X117483709Y-76994985D01*
X117381215Y-76892491D01*
X117381212Y-76892489D01*
X117381210Y-76892487D01*
X117255688Y-76820017D01*
X117255689Y-76820017D01*
X117226096Y-76812087D01*
X117115675Y-76782500D01*
X116970725Y-76782500D01*
X116908990Y-76799041D01*
X116830710Y-76820017D01*
X116705189Y-76892487D01*
X116602687Y-76994989D01*
X116530217Y-77120510D01*
X116492700Y-77260525D01*
X114356909Y-77260525D01*
X114389230Y-77204543D01*
X114389234Y-77204536D01*
X114389467Y-77204130D01*
X114406584Y-77174485D01*
X114444100Y-77034475D01*
X114444100Y-76889525D01*
X114406584Y-76749515D01*
X114406582Y-76749512D01*
X114406582Y-76749510D01*
X114334112Y-76623989D01*
X114334110Y-76623987D01*
X114334109Y-76623985D01*
X114231615Y-76521491D01*
X114231612Y-76521489D01*
X114231610Y-76521487D01*
X114106088Y-76449017D01*
X114106089Y-76449017D01*
X114076496Y-76441087D01*
X113966075Y-76411500D01*
X113821125Y-76411500D01*
X113763660Y-76426898D01*
X113681110Y-76449017D01*
X113555589Y-76521487D01*
X113453087Y-76623989D01*
X113380617Y-76749510D01*
X113368172Y-76795957D01*
X113343100Y-76889525D01*
X111423701Y-76889525D01*
X111387709Y-76827185D01*
X111285215Y-76724691D01*
X111285212Y-76724689D01*
X111285210Y-76724687D01*
X111159688Y-76652217D01*
X111159689Y-76652217D01*
X111130096Y-76644287D01*
X111019675Y-76614700D01*
X111019674Y-76614700D01*
X110933390Y-76614700D01*
X110875199Y-76595793D01*
X110863386Y-76585704D01*
X110600559Y-76322877D01*
X110298812Y-76021130D01*
X110218888Y-75974986D01*
X110129744Y-75951100D01*
X110129742Y-75951100D01*
X109909026Y-75951100D01*
X109850835Y-75932193D01*
X109814871Y-75882693D01*
X109814871Y-75821507D01*
X109850835Y-75772007D01*
X109854025Y-75769784D01*
X109856078Y-75768412D01*
X109889655Y-75745977D01*
X110035977Y-75599655D01*
X110150941Y-75427598D01*
X110230130Y-75236420D01*
X110270500Y-75033465D01*
X110270500Y-74826535D01*
X110230130Y-74623580D01*
X110150941Y-74432402D01*
X110035977Y-74260345D01*
X109905133Y-74129501D01*
X109877358Y-74074987D01*
X109886929Y-74014555D01*
X109930194Y-73971290D01*
X109975139Y-73960500D01*
X111004861Y-73960500D01*
X111063052Y-73979407D01*
X111099016Y-74028907D01*
X111099016Y-74090093D01*
X111074866Y-74129501D01*
X110978660Y-74225708D01*
X110944020Y-74260348D01*
X110829058Y-74432402D01*
X110749869Y-74623581D01*
X110709500Y-74826532D01*
X110709500Y-75033467D01*
X110749869Y-75236418D01*
X110829058Y-75427597D01*
X110869906Y-75488731D01*
X110944023Y-75599655D01*
X111090345Y-75745977D01*
X111262402Y-75860941D01*
X111453580Y-75940130D01*
X111656535Y-75980500D01*
X111656536Y-75980500D01*
X111863464Y-75980500D01*
X111863465Y-75980500D01*
X112066420Y-75940130D01*
X112257598Y-75860941D01*
X112429655Y-75745977D01*
X112575977Y-75599655D01*
X112690941Y-75427598D01*
X112770130Y-75236420D01*
X112810500Y-75033465D01*
X112810500Y-74826535D01*
X112770130Y-74623580D01*
X112690941Y-74432402D01*
X112575977Y-74260345D01*
X112445133Y-74129501D01*
X112417358Y-74074987D01*
X112426929Y-74014555D01*
X112470194Y-73971290D01*
X112515139Y-73960500D01*
X113544861Y-73960500D01*
X113603052Y-73979407D01*
X113639016Y-74028907D01*
X113639016Y-74090093D01*
X113614866Y-74129501D01*
X113518660Y-74225708D01*
X113484020Y-74260348D01*
X113369058Y-74432402D01*
X113289869Y-74623581D01*
X113249500Y-74826532D01*
X113249500Y-75033467D01*
X113289869Y-75236418D01*
X113369058Y-75427597D01*
X113409906Y-75488731D01*
X113484023Y-75599655D01*
X113630345Y-75745977D01*
X113802402Y-75860941D01*
X113993580Y-75940130D01*
X114196535Y-75980500D01*
X114196536Y-75980500D01*
X114403464Y-75980500D01*
X114403465Y-75980500D01*
X114606420Y-75940130D01*
X114797598Y-75860941D01*
X114969655Y-75745977D01*
X115115977Y-75599655D01*
X115230941Y-75427598D01*
X115310130Y-75236420D01*
X115350500Y-75033465D01*
X115350500Y-74826535D01*
X115310130Y-74623580D01*
X115230941Y-74432402D01*
X115115977Y-74260345D01*
X114985133Y-74129501D01*
X114957358Y-74074987D01*
X114966929Y-74014555D01*
X115010194Y-73971290D01*
X115055139Y-73960500D01*
X116084861Y-73960500D01*
X116143052Y-73979407D01*
X116179016Y-74028907D01*
X116179016Y-74090093D01*
X116154866Y-74129501D01*
X116058660Y-74225708D01*
X116024020Y-74260348D01*
X115909058Y-74432402D01*
X115829869Y-74623581D01*
X115789500Y-74826532D01*
X115789500Y-75033467D01*
X115829869Y-75236418D01*
X115909058Y-75427597D01*
X115949906Y-75488731D01*
X116024023Y-75599655D01*
X116170345Y-75745977D01*
X116342402Y-75860941D01*
X116533580Y-75940130D01*
X116736535Y-75980500D01*
X116736536Y-75980500D01*
X116943464Y-75980500D01*
X116943465Y-75980500D01*
X117146420Y-75940130D01*
X117337598Y-75860941D01*
X117509655Y-75745977D01*
X117655977Y-75599655D01*
X117770941Y-75427598D01*
X117850130Y-75236420D01*
X117890500Y-75033465D01*
X117890500Y-74826535D01*
X117850130Y-74623580D01*
X117770941Y-74432402D01*
X117655977Y-74260345D01*
X117525133Y-74129501D01*
X117497358Y-74074987D01*
X117506929Y-74014555D01*
X117550194Y-73971290D01*
X117595139Y-73960500D01*
X118624861Y-73960500D01*
X118683052Y-73979407D01*
X118719016Y-74028907D01*
X118719016Y-74090093D01*
X118694866Y-74129501D01*
X118598660Y-74225708D01*
X118564020Y-74260348D01*
X118449058Y-74432402D01*
X118369869Y-74623581D01*
X118329500Y-74826532D01*
X118329500Y-75033467D01*
X118369869Y-75236418D01*
X118449058Y-75427597D01*
X118489906Y-75488731D01*
X118564023Y-75599655D01*
X118710345Y-75745977D01*
X118882402Y-75860941D01*
X119073580Y-75940130D01*
X119276535Y-75980500D01*
X119276536Y-75980500D01*
X119483464Y-75980500D01*
X119483465Y-75980500D01*
X119686420Y-75940130D01*
X119877598Y-75860941D01*
X120049655Y-75745977D01*
X120195977Y-75599655D01*
X120310941Y-75427598D01*
X120390130Y-75236420D01*
X120430500Y-75033465D01*
X120430500Y-74826535D01*
X120390130Y-74623580D01*
X120310941Y-74432402D01*
X120195977Y-74260345D01*
X120065133Y-74129501D01*
X120037358Y-74074987D01*
X120046929Y-74014555D01*
X120090194Y-73971290D01*
X120135139Y-73960500D01*
X121164861Y-73960500D01*
X121223052Y-73979407D01*
X121259016Y-74028907D01*
X121259016Y-74090093D01*
X121234866Y-74129501D01*
X121138660Y-74225708D01*
X121104020Y-74260348D01*
X120989058Y-74432402D01*
X120909869Y-74623581D01*
X120869500Y-74826532D01*
X120869500Y-75033467D01*
X120909869Y-75236418D01*
X120989058Y-75427597D01*
X121029906Y-75488731D01*
X121104023Y-75599655D01*
X121250345Y-75745977D01*
X121422402Y-75860941D01*
X121613580Y-75940130D01*
X121816535Y-75980500D01*
X121816536Y-75980500D01*
X122023464Y-75980500D01*
X122023465Y-75980500D01*
X122226420Y-75940130D01*
X122417598Y-75860941D01*
X122589655Y-75745977D01*
X122735977Y-75599655D01*
X122850941Y-75427598D01*
X122930130Y-75236420D01*
X122970500Y-75033465D01*
X122970500Y-74826535D01*
X122930130Y-74623580D01*
X122850941Y-74432402D01*
X122735977Y-74260345D01*
X122605133Y-74129501D01*
X122577358Y-74074987D01*
X122586929Y-74014555D01*
X122630194Y-73971290D01*
X122675139Y-73960500D01*
X123704861Y-73960500D01*
X123763052Y-73979407D01*
X123799016Y-74028907D01*
X123799016Y-74090093D01*
X123774866Y-74129501D01*
X123678660Y-74225708D01*
X123644020Y-74260348D01*
X123529058Y-74432402D01*
X123449869Y-74623581D01*
X123409500Y-74826532D01*
X123409500Y-75033467D01*
X123449869Y-75236418D01*
X123529058Y-75427597D01*
X123569906Y-75488731D01*
X123644023Y-75599655D01*
X123790345Y-75745977D01*
X123962402Y-75860941D01*
X124153580Y-75940130D01*
X124356535Y-75980500D01*
X124356536Y-75980500D01*
X124563464Y-75980500D01*
X124563465Y-75980500D01*
X124766420Y-75940130D01*
X124957598Y-75860941D01*
X125129655Y-75745977D01*
X125275977Y-75599655D01*
X125390941Y-75427598D01*
X125470130Y-75236420D01*
X125510500Y-75033465D01*
X125510500Y-74826535D01*
X125470130Y-74623580D01*
X125390941Y-74432402D01*
X125275977Y-74260345D01*
X125145133Y-74129501D01*
X125117358Y-74074987D01*
X125126929Y-74014555D01*
X125170194Y-73971290D01*
X125215139Y-73960500D01*
X126244861Y-73960500D01*
X126303052Y-73979407D01*
X126339016Y-74028907D01*
X126339016Y-74090093D01*
X126314866Y-74129501D01*
X126218660Y-74225708D01*
X126184020Y-74260348D01*
X126069058Y-74432402D01*
X125989869Y-74623581D01*
X125949500Y-74826532D01*
X125949500Y-75033467D01*
X125989869Y-75236418D01*
X126069058Y-75427597D01*
X126109906Y-75488731D01*
X126184023Y-75599655D01*
X126330345Y-75745977D01*
X126502402Y-75860941D01*
X126693580Y-75940130D01*
X126896535Y-75980500D01*
X126896536Y-75980500D01*
X127103464Y-75980500D01*
X127103465Y-75980500D01*
X127306420Y-75940130D01*
X127497598Y-75860941D01*
X127669655Y-75745977D01*
X127815977Y-75599655D01*
X127930941Y-75427598D01*
X128010130Y-75236420D01*
X128050500Y-75033465D01*
X128050500Y-74826535D01*
X128010130Y-74623580D01*
X127930941Y-74432402D01*
X127815977Y-74260345D01*
X127685133Y-74129501D01*
X127657358Y-74074987D01*
X127666929Y-74014555D01*
X127710194Y-73971290D01*
X127755139Y-73960500D01*
X128784861Y-73960500D01*
X128843052Y-73979407D01*
X128879016Y-74028907D01*
X128879016Y-74090093D01*
X128854866Y-74129501D01*
X128758660Y-74225708D01*
X128724020Y-74260348D01*
X128609058Y-74432402D01*
X128529869Y-74623581D01*
X128489500Y-74826532D01*
X128489500Y-75033467D01*
X128529869Y-75236418D01*
X128609058Y-75427597D01*
X128649906Y-75488731D01*
X128724023Y-75599655D01*
X128870345Y-75745977D01*
X129042402Y-75860941D01*
X129233580Y-75940130D01*
X129436535Y-75980500D01*
X129436536Y-75980500D01*
X129643464Y-75980500D01*
X129643465Y-75980500D01*
X129846420Y-75940130D01*
X130037598Y-75860941D01*
X130209655Y-75745977D01*
X130355977Y-75599655D01*
X130470941Y-75427598D01*
X130550130Y-75236420D01*
X130590500Y-75033465D01*
X130590500Y-74826535D01*
X130550130Y-74623580D01*
X130470941Y-74432402D01*
X130355977Y-74260345D01*
X130225133Y-74129501D01*
X130197358Y-74074987D01*
X130206929Y-74014555D01*
X130250194Y-73971290D01*
X130295139Y-73960500D01*
X131324861Y-73960500D01*
X131383052Y-73979407D01*
X131419016Y-74028907D01*
X131419016Y-74090093D01*
X131394866Y-74129501D01*
X131298660Y-74225708D01*
X131264020Y-74260348D01*
X131149058Y-74432402D01*
X131069869Y-74623581D01*
X131029500Y-74826532D01*
X131029500Y-75033467D01*
X131069869Y-75236418D01*
X131149058Y-75427597D01*
X131189906Y-75488731D01*
X131264023Y-75599655D01*
X131410345Y-75745977D01*
X131582402Y-75860941D01*
X131773580Y-75940130D01*
X131976535Y-75980500D01*
X131976536Y-75980500D01*
X132183464Y-75980500D01*
X132183465Y-75980500D01*
X132386420Y-75940130D01*
X132577598Y-75860941D01*
X132749655Y-75745977D01*
X132895977Y-75599655D01*
X133010941Y-75427598D01*
X133090130Y-75236420D01*
X133130500Y-75033465D01*
X133130500Y-74826535D01*
X133090130Y-74623580D01*
X133010941Y-74432402D01*
X132895977Y-74260345D01*
X132765133Y-74129501D01*
X132737358Y-74074987D01*
X132746929Y-74014555D01*
X132790194Y-73971290D01*
X132835139Y-73960500D01*
X133864861Y-73960500D01*
X133923052Y-73979407D01*
X133959016Y-74028907D01*
X133959016Y-74090093D01*
X133934866Y-74129501D01*
X133838660Y-74225708D01*
X133804020Y-74260348D01*
X133689058Y-74432402D01*
X133609869Y-74623581D01*
X133569500Y-74826532D01*
X133569500Y-75033467D01*
X133609869Y-75236418D01*
X133689058Y-75427597D01*
X133729906Y-75488731D01*
X133804023Y-75599655D01*
X133950345Y-75745977D01*
X134122402Y-75860941D01*
X134313580Y-75940130D01*
X134516535Y-75980500D01*
X134516536Y-75980500D01*
X134723464Y-75980500D01*
X134723465Y-75980500D01*
X134926420Y-75940130D01*
X135117598Y-75860941D01*
X135289655Y-75745977D01*
X135435977Y-75599655D01*
X135550941Y-75427598D01*
X135619536Y-75261994D01*
X135659273Y-75215470D01*
X135718767Y-75201186D01*
X135775295Y-75224601D01*
X135807265Y-75276770D01*
X135810000Y-75299881D01*
X135810000Y-75827824D01*
X135809999Y-75827824D01*
X135816401Y-75887370D01*
X135816403Y-75887381D01*
X135866646Y-76022088D01*
X135866647Y-76022090D01*
X135952807Y-76137184D01*
X135952815Y-76137192D01*
X136067909Y-76223352D01*
X136067911Y-76223353D01*
X136202618Y-76273596D01*
X136202629Y-76273598D01*
X136262176Y-76280000D01*
X136909999Y-76280000D01*
X136910000Y-76279999D01*
X136910000Y-75363012D01*
X136967007Y-75395925D01*
X137094174Y-75430000D01*
X137225826Y-75430000D01*
X137352993Y-75395925D01*
X137410000Y-75363012D01*
X137410000Y-76279999D01*
X137410001Y-76280000D01*
X138057824Y-76280000D01*
X138117370Y-76273598D01*
X138117381Y-76273596D01*
X138252088Y-76223353D01*
X138252090Y-76223352D01*
X138367184Y-76137192D01*
X138367192Y-76137184D01*
X138453352Y-76022090D01*
X138453353Y-76022088D01*
X138503596Y-75887381D01*
X138503598Y-75887370D01*
X138510000Y-75827824D01*
X138510000Y-75180001D01*
X138509999Y-75180000D01*
X137593012Y-75180000D01*
X137625925Y-75122993D01*
X137660000Y-74995826D01*
X137660000Y-74864174D01*
X137625925Y-74737007D01*
X137593012Y-74680000D01*
X138509999Y-74680000D01*
X138510000Y-74679999D01*
X138510000Y-74059500D01*
X138528907Y-74001309D01*
X138578407Y-73965345D01*
X138609000Y-73960500D01*
X141732405Y-73960500D01*
X141777227Y-73960500D01*
X141782777Y-73960655D01*
X142076701Y-73977162D01*
X142087724Y-73978404D01*
X142375224Y-74027252D01*
X142386018Y-74029715D01*
X142666251Y-74110449D01*
X142676722Y-74114113D01*
X142713878Y-74129504D01*
X142946134Y-74225708D01*
X142956136Y-74230525D01*
X143211354Y-74371578D01*
X143220755Y-74377485D01*
X143458575Y-74546228D01*
X143467254Y-74553149D01*
X143540169Y-74618309D01*
X143684697Y-74747467D01*
X143692532Y-74755302D01*
X143713710Y-74779000D01*
X143886850Y-74972745D01*
X143893771Y-74981424D01*
X144062514Y-75219244D01*
X144068421Y-75228645D01*
X144209474Y-75483863D01*
X144214291Y-75493865D01*
X144325884Y-75763273D01*
X144329551Y-75773752D01*
X144410280Y-76053966D01*
X144412750Y-76064790D01*
X144461594Y-76352270D01*
X144462837Y-76363302D01*
X144479344Y-76657222D01*
X144479500Y-76662773D01*
X144479500Y-90977226D01*
X144479344Y-90982777D01*
X144462837Y-91276697D01*
X144461594Y-91287729D01*
X144412750Y-91575209D01*
X144410280Y-91586033D01*
X144329551Y-91866247D01*
X144325884Y-91876726D01*
X144214291Y-92146134D01*
X144209474Y-92156136D01*
X144068421Y-92411354D01*
X144062514Y-92420755D01*
X143893771Y-92658575D01*
X143886850Y-92667254D01*
X143692540Y-92884689D01*
X143684689Y-92892540D01*
X143467254Y-93086850D01*
X143458575Y-93093771D01*
X143220755Y-93262514D01*
X143211354Y-93268421D01*
X142956136Y-93409474D01*
X142946134Y-93414291D01*
X142676726Y-93525884D01*
X142666247Y-93529551D01*
X142386033Y-93610280D01*
X142375209Y-93612750D01*
X142087729Y-93661594D01*
X142076697Y-93662837D01*
X141782778Y-93679344D01*
X141777227Y-93679500D01*
X138609000Y-93679500D01*
X138550809Y-93660593D01*
X138514845Y-93611093D01*
X138510000Y-93580500D01*
X138510000Y-92960001D01*
X138509999Y-92960000D01*
X137593012Y-92960000D01*
X137625925Y-92902993D01*
X137660000Y-92775826D01*
X137660000Y-92644174D01*
X137625925Y-92517007D01*
X137593012Y-92460000D01*
X138509999Y-92460000D01*
X138510000Y-92459999D01*
X138510000Y-91812175D01*
X138503598Y-91752629D01*
X138503596Y-91752618D01*
X138453353Y-91617911D01*
X138453352Y-91617909D01*
X138367192Y-91502815D01*
X138367184Y-91502807D01*
X138252090Y-91416647D01*
X138252088Y-91416646D01*
X138117381Y-91366403D01*
X138117370Y-91366401D01*
X138057824Y-91360000D01*
X137410001Y-91360000D01*
X137410000Y-91360001D01*
X137410000Y-92276988D01*
X137352993Y-92244075D01*
X137225826Y-92210000D01*
X137094174Y-92210000D01*
X136967007Y-92244075D01*
X136910000Y-92276988D01*
X136910000Y-91360001D01*
X136909999Y-91360000D01*
X136262176Y-91360000D01*
X136202629Y-91366401D01*
X136202618Y-91366403D01*
X136067911Y-91416646D01*
X136067909Y-91416647D01*
X135952815Y-91502807D01*
X135952807Y-91502815D01*
X135866647Y-91617909D01*
X135866646Y-91617911D01*
X135816403Y-91752618D01*
X135816401Y-91752629D01*
X135810000Y-91812175D01*
X135810000Y-92340118D01*
X135791093Y-92398309D01*
X135741593Y-92434273D01*
X135680407Y-92434273D01*
X135630907Y-92398309D01*
X135619536Y-92378004D01*
X135550941Y-92212402D01*
X135435979Y-92040348D01*
X135435977Y-92040345D01*
X135289655Y-91894023D01*
X135289651Y-91894020D01*
X135117597Y-91779058D01*
X134926418Y-91699869D01*
X134723467Y-91659500D01*
X134723465Y-91659500D01*
X134516535Y-91659500D01*
X134516531Y-91659500D01*
X134361479Y-91690342D01*
X134300717Y-91683150D01*
X134255788Y-91641617D01*
X134243851Y-91581608D01*
X134269467Y-91526043D01*
X134272118Y-91523283D01*
X134813650Y-90981751D01*
X134868165Y-90953976D01*
X134902963Y-90954658D01*
X135034384Y-90980800D01*
X135034385Y-90980800D01*
X135221615Y-90980800D01*
X135221616Y-90980800D01*
X135405251Y-90944273D01*
X135578231Y-90872622D01*
X135578234Y-90872619D01*
X135578238Y-90872618D01*
X135641965Y-90830036D01*
X135733908Y-90768602D01*
X135866302Y-90636208D01*
X135942675Y-90521908D01*
X135970318Y-90480538D01*
X135970319Y-90480534D01*
X135970322Y-90480531D01*
X136041973Y-90307551D01*
X136078500Y-90123916D01*
X136078500Y-89936684D01*
X136041973Y-89753049D01*
X135970322Y-89580069D01*
X135970320Y-89580067D01*
X135970318Y-89580061D01*
X135893949Y-89465769D01*
X135866302Y-89424392D01*
X135733908Y-89291998D01*
X135689559Y-89262365D01*
X135578238Y-89187981D01*
X135578229Y-89187977D01*
X135405249Y-89116326D01*
X135221618Y-89079800D01*
X135221616Y-89079800D01*
X135034384Y-89079800D01*
X135034381Y-89079800D01*
X134850750Y-89116326D01*
X134677770Y-89187977D01*
X134677761Y-89187981D01*
X134522092Y-89291998D01*
X134522088Y-89292001D01*
X134389701Y-89424388D01*
X134389698Y-89424392D01*
X134285681Y-89580061D01*
X134285677Y-89580070D01*
X134214026Y-89753050D01*
X134177500Y-89936681D01*
X134177500Y-90123920D01*
X134203639Y-90255333D01*
X134196447Y-90316094D01*
X134176545Y-90344649D01*
X133591693Y-90929503D01*
X133537176Y-90957281D01*
X133521689Y-90958500D01*
X107130612Y-90958500D01*
X107072421Y-90939593D01*
X107060608Y-90929504D01*
X106361453Y-90230349D01*
X106333676Y-90175832D01*
X106334358Y-90141035D01*
X106360500Y-90009616D01*
X106360500Y-89822384D01*
X106349548Y-89767325D01*
X117432500Y-89767325D01*
X117432500Y-89912275D01*
X117439041Y-89936685D01*
X117470017Y-90052289D01*
X117542487Y-90177810D01*
X117542489Y-90177812D01*
X117542491Y-90177815D01*
X117644985Y-90280309D01*
X117644987Y-90280310D01*
X117644989Y-90280312D01*
X117770511Y-90352782D01*
X117770512Y-90352782D01*
X117770515Y-90352784D01*
X117910525Y-90390300D01*
X117910526Y-90390300D01*
X118055474Y-90390300D01*
X118055475Y-90390300D01*
X118195485Y-90352784D01*
X118195487Y-90352782D01*
X118195489Y-90352782D01*
X118321010Y-90280312D01*
X118321010Y-90280311D01*
X118321015Y-90280309D01*
X118423509Y-90177815D01*
X118444747Y-90141030D01*
X118495982Y-90052289D01*
X118495982Y-90052287D01*
X118495984Y-90052285D01*
X118533500Y-89912275D01*
X118533500Y-89767325D01*
X118495984Y-89627315D01*
X118495982Y-89627312D01*
X118495982Y-89627310D01*
X118423512Y-89501789D01*
X118423510Y-89501787D01*
X118423509Y-89501785D01*
X118321015Y-89399291D01*
X118321012Y-89399289D01*
X118321010Y-89399287D01*
X118195488Y-89326817D01*
X118195489Y-89326817D01*
X118165896Y-89318887D01*
X118055475Y-89289300D01*
X117910525Y-89289300D01*
X117848790Y-89305841D01*
X117770510Y-89326817D01*
X117644989Y-89399287D01*
X117542487Y-89501789D01*
X117470017Y-89627310D01*
X117470016Y-89627315D01*
X117432500Y-89767325D01*
X106349548Y-89767325D01*
X106323973Y-89638749D01*
X106252322Y-89465769D01*
X106252320Y-89465767D01*
X106252318Y-89465761D01*
X106192649Y-89376463D01*
X106148302Y-89310092D01*
X106015908Y-89177698D01*
X105954124Y-89136415D01*
X105860238Y-89073681D01*
X105860229Y-89073677D01*
X105687249Y-89002026D01*
X105503618Y-88965500D01*
X105503616Y-88965500D01*
X105316384Y-88965500D01*
X105316381Y-88965500D01*
X105132750Y-89002026D01*
X104959770Y-89073677D01*
X104959761Y-89073681D01*
X104804092Y-89177698D01*
X104804088Y-89177701D01*
X104671701Y-89310088D01*
X104671698Y-89310092D01*
X104567681Y-89465761D01*
X104567677Y-89465770D01*
X104496026Y-89638750D01*
X104459500Y-89822381D01*
X104459500Y-90009618D01*
X104496026Y-90193249D01*
X104567677Y-90366229D01*
X104567681Y-90366238D01*
X104642065Y-90477559D01*
X104671698Y-90521908D01*
X104804092Y-90654302D01*
X104870463Y-90698649D01*
X104959761Y-90758318D01*
X104959767Y-90758320D01*
X104959769Y-90758322D01*
X105132749Y-90829973D01*
X105316384Y-90866500D01*
X105316385Y-90866500D01*
X105503615Y-90866500D01*
X105503616Y-90866500D01*
X105635033Y-90840359D01*
X105695792Y-90847550D01*
X105724349Y-90867453D01*
X106398344Y-91541448D01*
X106426121Y-91595965D01*
X106416550Y-91656397D01*
X106373285Y-91699662D01*
X106366226Y-91702916D01*
X106182402Y-91779058D01*
X106010348Y-91894020D01*
X105864020Y-92040348D01*
X105749058Y-92212402D01*
X105669869Y-92403581D01*
X105629500Y-92606532D01*
X105629500Y-92813467D01*
X105669869Y-93016418D01*
X105749058Y-93207597D01*
X105789699Y-93268421D01*
X105864023Y-93379655D01*
X105994866Y-93510498D01*
X106022642Y-93565013D01*
X106013071Y-93625445D01*
X105969806Y-93668710D01*
X105924861Y-93679500D01*
X104895139Y-93679500D01*
X104836948Y-93660593D01*
X104800984Y-93611093D01*
X104800984Y-93549907D01*
X104825133Y-93510498D01*
X104955977Y-93379655D01*
X105070941Y-93207598D01*
X105150130Y-93016420D01*
X105190500Y-92813465D01*
X105190500Y-92606535D01*
X105150130Y-92403580D01*
X105070941Y-92212402D01*
X104955977Y-92040345D01*
X104809655Y-91894023D01*
X104809651Y-91894020D01*
X104637597Y-91779058D01*
X104446418Y-91699869D01*
X104243467Y-91659500D01*
X104243465Y-91659500D01*
X104036535Y-91659500D01*
X104036532Y-91659500D01*
X103833581Y-91699869D01*
X103642402Y-91779058D01*
X103470348Y-91894020D01*
X103324020Y-92040348D01*
X103209058Y-92212402D01*
X103129869Y-92403581D01*
X103089500Y-92606532D01*
X103089500Y-92813467D01*
X103129869Y-93016418D01*
X103209058Y-93207597D01*
X103249699Y-93268421D01*
X103324023Y-93379655D01*
X103454866Y-93510498D01*
X103482642Y-93565013D01*
X103473071Y-93625445D01*
X103429806Y-93668710D01*
X103384861Y-93679500D01*
X102355139Y-93679500D01*
X102296948Y-93660593D01*
X102260984Y-93611093D01*
X102260984Y-93549907D01*
X102285133Y-93510498D01*
X102415977Y-93379655D01*
X102530941Y-93207598D01*
X102610130Y-93016420D01*
X102650500Y-92813465D01*
X102650500Y-92606535D01*
X102610130Y-92403580D01*
X102530941Y-92212402D01*
X102415977Y-92040345D01*
X102269655Y-91894023D01*
X102269651Y-91894020D01*
X102097597Y-91779058D01*
X101906418Y-91699869D01*
X101703467Y-91659500D01*
X101703465Y-91659500D01*
X101496535Y-91659500D01*
X101496532Y-91659500D01*
X101293581Y-91699869D01*
X101102402Y-91779058D01*
X100930348Y-91894020D01*
X100784020Y-92040348D01*
X100669058Y-92212402D01*
X100589869Y-92403581D01*
X100549500Y-92606532D01*
X100549500Y-92813467D01*
X100589869Y-93016418D01*
X100669058Y-93207597D01*
X100709699Y-93268421D01*
X100784023Y-93379655D01*
X100914866Y-93510498D01*
X100942642Y-93565013D01*
X100933071Y-93625445D01*
X100889806Y-93668710D01*
X100844861Y-93679500D01*
X96982773Y-93679500D01*
X96977222Y-93679344D01*
X96683302Y-93662837D01*
X96672270Y-93661594D01*
X96384790Y-93612750D01*
X96373966Y-93610280D01*
X96093752Y-93529551D01*
X96083273Y-93525884D01*
X95813865Y-93414291D01*
X95803863Y-93409474D01*
X95548645Y-93268421D01*
X95539244Y-93262514D01*
X95301424Y-93093771D01*
X95292745Y-93086850D01*
X95164029Y-92971823D01*
X95075302Y-92892532D01*
X95067467Y-92884697D01*
X94949745Y-92752966D01*
X94873149Y-92667254D01*
X94866228Y-92658575D01*
X94697485Y-92420755D01*
X94691578Y-92411354D01*
X94687281Y-92403580D01*
X94550525Y-92156136D01*
X94545708Y-92146134D01*
X94449370Y-91913555D01*
X94434113Y-91876722D01*
X94430448Y-91866247D01*
X94349715Y-91586018D01*
X94347252Y-91575224D01*
X94298404Y-91287724D01*
X94297162Y-91276697D01*
X94280656Y-90982777D01*
X94280500Y-90977226D01*
X94280500Y-88920476D01*
X94299407Y-88862285D01*
X94348907Y-88826321D01*
X94410093Y-88826321D01*
X94449504Y-88850472D01*
X94512128Y-88913096D01*
X94512132Y-88913099D01*
X94675140Y-89022020D01*
X94675152Y-89022026D01*
X94856280Y-89097050D01*
X95048567Y-89135299D01*
X95048571Y-89135300D01*
X95506198Y-89135300D01*
X95506199Y-89135299D01*
X95506199Y-88444800D01*
X96006199Y-88444800D01*
X96006199Y-89135299D01*
X96006200Y-89135300D01*
X96463827Y-89135300D01*
X96463830Y-89135299D01*
X96656116Y-89097050D01*
X96656118Y-89097050D01*
X96837245Y-89022026D01*
X96837257Y-89022020D01*
X97000265Y-88913099D01*
X97000269Y-88913096D01*
X97138895Y-88774470D01*
X97138898Y-88774466D01*
X97247819Y-88611458D01*
X97247825Y-88611446D01*
X97322849Y-88430319D01*
X97330870Y-88390000D01*
X96529687Y-88390000D01*
X96540251Y-88383901D01*
X96597000Y-88327152D01*
X96637127Y-88257648D01*
X96657899Y-88180128D01*
X96657899Y-88099872D01*
X96637127Y-88022352D01*
X96597000Y-87952848D01*
X96540251Y-87896099D01*
X96529687Y-87890000D01*
X97330870Y-87890000D01*
X98384729Y-87890000D01*
X99185912Y-87890000D01*
X99175348Y-87896099D01*
X99118599Y-87952848D01*
X99078472Y-88022352D01*
X99057700Y-88099872D01*
X99057700Y-88180128D01*
X99078472Y-88257648D01*
X99118599Y-88327152D01*
X99175348Y-88383901D01*
X99185912Y-88390000D01*
X98384729Y-88390000D01*
X98392749Y-88430319D01*
X98467773Y-88611446D01*
X98467779Y-88611458D01*
X98576700Y-88774466D01*
X98576703Y-88774470D01*
X98715329Y-88913096D01*
X98715333Y-88913099D01*
X98878341Y-89022020D01*
X98878353Y-89022026D01*
X99059481Y-89097050D01*
X99251768Y-89135299D01*
X99251772Y-89135300D01*
X99506199Y-89135300D01*
X99506200Y-89135299D01*
X99506200Y-88444800D01*
X100006200Y-88444800D01*
X100006200Y-89135299D01*
X100006201Y-89135300D01*
X100260628Y-89135300D01*
X100260631Y-89135299D01*
X100452917Y-89097050D01*
X100452919Y-89097050D01*
X100634046Y-89022026D01*
X100634058Y-89022020D01*
X100797066Y-88913099D01*
X100797070Y-88913096D01*
X100935696Y-88774470D01*
X100935699Y-88774466D01*
X100968134Y-88725925D01*
X109990300Y-88725925D01*
X109990300Y-88870874D01*
X110027817Y-89010889D01*
X110100287Y-89136410D01*
X110100289Y-89136412D01*
X110100291Y-89136415D01*
X110202785Y-89238909D01*
X110202787Y-89238910D01*
X110202789Y-89238912D01*
X110328311Y-89311382D01*
X110328312Y-89311382D01*
X110328315Y-89311384D01*
X110468325Y-89348900D01*
X110468326Y-89348900D01*
X110613274Y-89348900D01*
X110613275Y-89348900D01*
X110753285Y-89311384D01*
X110753287Y-89311382D01*
X110753289Y-89311382D01*
X110878810Y-89238912D01*
X110878810Y-89238911D01*
X110878815Y-89238909D01*
X110981309Y-89136415D01*
X110992907Y-89116327D01*
X111053782Y-89010889D01*
X111053782Y-89010887D01*
X111053784Y-89010885D01*
X111091300Y-88870875D01*
X111091300Y-88725925D01*
X111053784Y-88585915D01*
X111053782Y-88585912D01*
X111053782Y-88585910D01*
X110981312Y-88460389D01*
X110981310Y-88460387D01*
X110981309Y-88460385D01*
X110878815Y-88357891D01*
X110878812Y-88357889D01*
X110878810Y-88357887D01*
X110753288Y-88285417D01*
X110753289Y-88285417D01*
X110723696Y-88277487D01*
X110613275Y-88247900D01*
X110468325Y-88247900D01*
X110406590Y-88264441D01*
X110328310Y-88285417D01*
X110202789Y-88357887D01*
X110100287Y-88460389D01*
X110027817Y-88585910D01*
X109990300Y-88725925D01*
X100968134Y-88725925D01*
X101009222Y-88664434D01*
X101044620Y-88611457D01*
X101044626Y-88611446D01*
X101119650Y-88430319D01*
X101127671Y-88390000D01*
X100326488Y-88390000D01*
X100337052Y-88383901D01*
X100393801Y-88327152D01*
X100433928Y-88257648D01*
X100454700Y-88180128D01*
X100454700Y-88099872D01*
X100433928Y-88022352D01*
X100393801Y-87952848D01*
X100337052Y-87896099D01*
X100326488Y-87890000D01*
X101127671Y-87890000D01*
X101119650Y-87849680D01*
X101044626Y-87668553D01*
X101044620Y-87668541D01*
X100935699Y-87505533D01*
X100935696Y-87505529D01*
X100797070Y-87366903D01*
X100797066Y-87366900D01*
X100634058Y-87257979D01*
X100634046Y-87257973D01*
X100452918Y-87182949D01*
X100260631Y-87144700D01*
X100006201Y-87144700D01*
X100006200Y-87144701D01*
X100006200Y-87835200D01*
X99506200Y-87835200D01*
X99506200Y-87144701D01*
X99506199Y-87144700D01*
X99251768Y-87144700D01*
X99059482Y-87182949D01*
X99059480Y-87182949D01*
X98878353Y-87257973D01*
X98878341Y-87257979D01*
X98715333Y-87366900D01*
X98715329Y-87366903D01*
X98576703Y-87505529D01*
X98576700Y-87505533D01*
X98467779Y-87668541D01*
X98467773Y-87668553D01*
X98392749Y-87849680D01*
X98384729Y-87890000D01*
X97330870Y-87890000D01*
X97322849Y-87849680D01*
X97247825Y-87668553D01*
X97247819Y-87668541D01*
X97138898Y-87505533D01*
X97138895Y-87505529D01*
X97000269Y-87366903D01*
X97000265Y-87366900D01*
X96837257Y-87257979D01*
X96837245Y-87257973D01*
X96656117Y-87182949D01*
X96463830Y-87144700D01*
X96006200Y-87144700D01*
X96006199Y-87144701D01*
X96006199Y-87835200D01*
X95506199Y-87835200D01*
X95506199Y-87144701D01*
X95506198Y-87144700D01*
X95048567Y-87144700D01*
X94856281Y-87182949D01*
X94856279Y-87182949D01*
X94675152Y-87257973D01*
X94675140Y-87257979D01*
X94512132Y-87366900D01*
X94512128Y-87366903D01*
X94449504Y-87429528D01*
X94394987Y-87457305D01*
X94334555Y-87447734D01*
X94291290Y-87404469D01*
X94280500Y-87359524D01*
X94280500Y-86287525D01*
X110563497Y-86287525D01*
X110563497Y-86432474D01*
X110601014Y-86572489D01*
X110673484Y-86698010D01*
X110673486Y-86698012D01*
X110673488Y-86698015D01*
X110775982Y-86800509D01*
X110775984Y-86800510D01*
X110775986Y-86800512D01*
X110901508Y-86872982D01*
X110901509Y-86872982D01*
X110901512Y-86872984D01*
X111041522Y-86910500D01*
X111041523Y-86910500D01*
X111186471Y-86910500D01*
X111186472Y-86910500D01*
X111326482Y-86872984D01*
X111326484Y-86872982D01*
X111326486Y-86872982D01*
X111452007Y-86800512D01*
X111452007Y-86800511D01*
X111452012Y-86800509D01*
X111493996Y-86758524D01*
X111548510Y-86730748D01*
X111608942Y-86740319D01*
X111633998Y-86758522D01*
X111675985Y-86800509D01*
X111675987Y-86800510D01*
X111675989Y-86800512D01*
X111801511Y-86872982D01*
X111801512Y-86872982D01*
X111801515Y-86872984D01*
X111941525Y-86910500D01*
X111941526Y-86910500D01*
X112086474Y-86910500D01*
X112086475Y-86910500D01*
X112226485Y-86872984D01*
X112226487Y-86872982D01*
X112226489Y-86872982D01*
X112352010Y-86800512D01*
X112352010Y-86800511D01*
X112352015Y-86800509D01*
X112454509Y-86698015D01*
X112471535Y-86668525D01*
X117305500Y-86668525D01*
X117305500Y-86813475D01*
X117331498Y-86910500D01*
X117343017Y-86953489D01*
X117415487Y-87079010D01*
X117415489Y-87079012D01*
X117415491Y-87079015D01*
X117517985Y-87181509D01*
X117517987Y-87181510D01*
X117517989Y-87181512D01*
X117643511Y-87253982D01*
X117643512Y-87253982D01*
X117643515Y-87253984D01*
X117783525Y-87291500D01*
X117783526Y-87291500D01*
X117928474Y-87291500D01*
X117928475Y-87291500D01*
X118068485Y-87253984D01*
X118068487Y-87253982D01*
X118068489Y-87253982D01*
X118194010Y-87181512D01*
X118194010Y-87181511D01*
X118194015Y-87181509D01*
X118296509Y-87079015D01*
X118368984Y-86953485D01*
X118377280Y-86922525D01*
X124214300Y-86922525D01*
X124214300Y-87067474D01*
X124251817Y-87207489D01*
X124324287Y-87333010D01*
X124324289Y-87333012D01*
X124324291Y-87333015D01*
X124426785Y-87435509D01*
X124426787Y-87435510D01*
X124426789Y-87435512D01*
X124552311Y-87507982D01*
X124552312Y-87507982D01*
X124552315Y-87507984D01*
X124692325Y-87545500D01*
X124692326Y-87545500D01*
X124837274Y-87545500D01*
X124837275Y-87545500D01*
X124977285Y-87507984D01*
X124977287Y-87507982D01*
X124977289Y-87507982D01*
X125102810Y-87435512D01*
X125102810Y-87435511D01*
X125102815Y-87435509D01*
X125205309Y-87333015D01*
X125277784Y-87207485D01*
X125315300Y-87067475D01*
X125315300Y-86922525D01*
X125549497Y-86922525D01*
X125549497Y-87067474D01*
X125587014Y-87207489D01*
X125659484Y-87333010D01*
X125659486Y-87333012D01*
X125659488Y-87333015D01*
X125761982Y-87435509D01*
X125761984Y-87435510D01*
X125761986Y-87435512D01*
X125887508Y-87507982D01*
X125887509Y-87507982D01*
X125887512Y-87507984D01*
X126027522Y-87545500D01*
X126027523Y-87545500D01*
X126172471Y-87545500D01*
X126172472Y-87545500D01*
X126312482Y-87507984D01*
X126312484Y-87507982D01*
X126312486Y-87507982D01*
X126438007Y-87435512D01*
X126438007Y-87435511D01*
X126438012Y-87435509D01*
X126540506Y-87333015D01*
X126612981Y-87207485D01*
X126650497Y-87067475D01*
X126650497Y-86922525D01*
X126612981Y-86782515D01*
X126612979Y-86782512D01*
X126612979Y-86782510D01*
X126540509Y-86656989D01*
X126540507Y-86656987D01*
X126540506Y-86656985D01*
X126438012Y-86554491D01*
X126438009Y-86554489D01*
X126438007Y-86554487D01*
X126312485Y-86482017D01*
X126312486Y-86482017D01*
X126282893Y-86474087D01*
X126172472Y-86444500D01*
X126027522Y-86444500D01*
X125965787Y-86461041D01*
X125887507Y-86482017D01*
X125761986Y-86554487D01*
X125659484Y-86656989D01*
X125587014Y-86782510D01*
X125549497Y-86922525D01*
X125315300Y-86922525D01*
X125277784Y-86782515D01*
X125277782Y-86782512D01*
X125277782Y-86782510D01*
X125205312Y-86656989D01*
X125205310Y-86656987D01*
X125205309Y-86656985D01*
X125102815Y-86554491D01*
X125102812Y-86554489D01*
X125102810Y-86554487D01*
X124977288Y-86482017D01*
X124977289Y-86482017D01*
X124947696Y-86474087D01*
X124837275Y-86444500D01*
X124692325Y-86444500D01*
X124630590Y-86461041D01*
X124552310Y-86482017D01*
X124426789Y-86554487D01*
X124324287Y-86656989D01*
X124251817Y-86782510D01*
X124214300Y-86922525D01*
X118377280Y-86922525D01*
X118406500Y-86813475D01*
X118406500Y-86668525D01*
X118368984Y-86528515D01*
X118368982Y-86528512D01*
X118368982Y-86528510D01*
X118296512Y-86402989D01*
X118296510Y-86402987D01*
X118296509Y-86402985D01*
X118194015Y-86300491D01*
X118194012Y-86300489D01*
X118194010Y-86300487D01*
X118068488Y-86228017D01*
X118068489Y-86228017D01*
X118038896Y-86220087D01*
X117928475Y-86190500D01*
X117783525Y-86190500D01*
X117721790Y-86207041D01*
X117643510Y-86228017D01*
X117517989Y-86300487D01*
X117415487Y-86402989D01*
X117343017Y-86528510D01*
X117331233Y-86572489D01*
X117305500Y-86668525D01*
X112471535Y-86668525D01*
X112526984Y-86572485D01*
X112564500Y-86432475D01*
X112564500Y-86287525D01*
X112526984Y-86147515D01*
X112526982Y-86147512D01*
X112526982Y-86147510D01*
X112454512Y-86021989D01*
X112454510Y-86021987D01*
X112454509Y-86021985D01*
X112352015Y-85919491D01*
X112352012Y-85919489D01*
X112352010Y-85919487D01*
X112226488Y-85847017D01*
X112226489Y-85847017D01*
X112196896Y-85839087D01*
X112086475Y-85809500D01*
X111941525Y-85809500D01*
X111879790Y-85826041D01*
X111801510Y-85847017D01*
X111675989Y-85919487D01*
X111675983Y-85919491D01*
X111634001Y-85961474D01*
X111579484Y-85989251D01*
X111519052Y-85979679D01*
X111493997Y-85961476D01*
X111452012Y-85919491D01*
X111452009Y-85919489D01*
X111452007Y-85919487D01*
X111326485Y-85847017D01*
X111326486Y-85847017D01*
X111296893Y-85839087D01*
X111186472Y-85809500D01*
X111041522Y-85809500D01*
X110979787Y-85826041D01*
X110901507Y-85847017D01*
X110775986Y-85919487D01*
X110673484Y-86021989D01*
X110601014Y-86147510D01*
X110563497Y-86287525D01*
X94280500Y-86287525D01*
X94280500Y-85017525D01*
X106383500Y-85017525D01*
X106383500Y-85162474D01*
X106421017Y-85302489D01*
X106493487Y-85428010D01*
X106493489Y-85428012D01*
X106493491Y-85428015D01*
X106595985Y-85530509D01*
X106595987Y-85530510D01*
X106595989Y-85530512D01*
X106721511Y-85602982D01*
X106721512Y-85602982D01*
X106721515Y-85602984D01*
X106861525Y-85640500D01*
X106861526Y-85640500D01*
X107006474Y-85640500D01*
X107006475Y-85640500D01*
X107146485Y-85602984D01*
X107146487Y-85602982D01*
X107146489Y-85602982D01*
X107272010Y-85530512D01*
X107272010Y-85530511D01*
X107272015Y-85530509D01*
X107374509Y-85428015D01*
X107374510Y-85428012D01*
X107374634Y-85427889D01*
X107429151Y-85400111D01*
X107489583Y-85409682D01*
X107526614Y-85444825D01*
X107527115Y-85444441D01*
X107529541Y-85447603D01*
X107530376Y-85448395D01*
X107531066Y-85449590D01*
X107633560Y-85552084D01*
X107633562Y-85552085D01*
X107633564Y-85552087D01*
X107759086Y-85624557D01*
X107759087Y-85624557D01*
X107759090Y-85624559D01*
X107899100Y-85662075D01*
X107899101Y-85662075D01*
X108044049Y-85662075D01*
X108044050Y-85662075D01*
X108184060Y-85624559D01*
X108184062Y-85624557D01*
X108184064Y-85624557D01*
X108309585Y-85552087D01*
X108309585Y-85552086D01*
X108309590Y-85552084D01*
X108412084Y-85449590D01*
X108415057Y-85444441D01*
X108484557Y-85324064D01*
X108484557Y-85324062D01*
X108484559Y-85324060D01*
X108522075Y-85184050D01*
X108522075Y-85057006D01*
X109022075Y-85057006D01*
X109022075Y-85201956D01*
X109037765Y-85260512D01*
X109059592Y-85341970D01*
X109132062Y-85467491D01*
X109132064Y-85467493D01*
X109132066Y-85467496D01*
X109234560Y-85569990D01*
X109234562Y-85569991D01*
X109234564Y-85569993D01*
X109360086Y-85642463D01*
X109360087Y-85642463D01*
X109360090Y-85642465D01*
X109500100Y-85679981D01*
X109500101Y-85679981D01*
X109645049Y-85679981D01*
X109645050Y-85679981D01*
X109785060Y-85642465D01*
X109785062Y-85642463D01*
X109785064Y-85642463D01*
X109910585Y-85569993D01*
X109910585Y-85569992D01*
X109910590Y-85569990D01*
X110013084Y-85467496D01*
X110023425Y-85449585D01*
X110085557Y-85341970D01*
X110085557Y-85341968D01*
X110085559Y-85341966D01*
X110104434Y-85271525D01*
X112987500Y-85271525D01*
X112987500Y-85416475D01*
X112995841Y-85447603D01*
X113025017Y-85556489D01*
X113097487Y-85682010D01*
X113097489Y-85682012D01*
X113097491Y-85682015D01*
X113199985Y-85784509D01*
X113199987Y-85784510D01*
X113199989Y-85784512D01*
X113325511Y-85856982D01*
X113325512Y-85856982D01*
X113325515Y-85856984D01*
X113465525Y-85894500D01*
X113465526Y-85894500D01*
X113610474Y-85894500D01*
X113610475Y-85894500D01*
X113750485Y-85856984D01*
X113750487Y-85856982D01*
X113750489Y-85856982D01*
X113876010Y-85784512D01*
X113876010Y-85784511D01*
X113876015Y-85784509D01*
X113978509Y-85682015D01*
X113979683Y-85679981D01*
X114050982Y-85556489D01*
X114050982Y-85556487D01*
X114050984Y-85556485D01*
X114088500Y-85416475D01*
X114088500Y-85271525D01*
X114050984Y-85131515D01*
X114050982Y-85131512D01*
X114050982Y-85131510D01*
X113978512Y-85005989D01*
X113978510Y-85005987D01*
X113978509Y-85005985D01*
X113876015Y-84903491D01*
X113876012Y-84903489D01*
X113876010Y-84903487D01*
X113750488Y-84831017D01*
X113750489Y-84831017D01*
X113720896Y-84823087D01*
X113610475Y-84793500D01*
X113465525Y-84793500D01*
X113403790Y-84810041D01*
X113325510Y-84831017D01*
X113199989Y-84903487D01*
X113097487Y-85005989D01*
X113025017Y-85131510D01*
X113017915Y-85158015D01*
X112987500Y-85271525D01*
X110104434Y-85271525D01*
X110123075Y-85201956D01*
X110123075Y-85057006D01*
X110099476Y-84968934D01*
X110102677Y-84907832D01*
X110141182Y-84860282D01*
X110169476Y-84847684D01*
X110194485Y-84840984D01*
X110311260Y-84773564D01*
X110320010Y-84768512D01*
X110320010Y-84768511D01*
X110320015Y-84768509D01*
X110422509Y-84666015D01*
X110422512Y-84666010D01*
X110494982Y-84540489D01*
X110494982Y-84540487D01*
X110494984Y-84540485D01*
X110532500Y-84400475D01*
X110532500Y-84335267D01*
X110551407Y-84277076D01*
X110600907Y-84241112D01*
X110657123Y-84239641D01*
X110671525Y-84243500D01*
X110671526Y-84243500D01*
X110816474Y-84243500D01*
X110816475Y-84243500D01*
X110956485Y-84205984D01*
X110956487Y-84205982D01*
X110956489Y-84205982D01*
X111082010Y-84133512D01*
X111082010Y-84133511D01*
X111082015Y-84133509D01*
X111184509Y-84031015D01*
X111184512Y-84031010D01*
X111256982Y-83905489D01*
X111256982Y-83905487D01*
X111256984Y-83905485D01*
X111294500Y-83765475D01*
X111294500Y-83620525D01*
X116416500Y-83620525D01*
X116416500Y-83765474D01*
X116454017Y-83905489D01*
X116526487Y-84031010D01*
X116526489Y-84031012D01*
X116526491Y-84031015D01*
X116628985Y-84133509D01*
X116628987Y-84133510D01*
X116628989Y-84133512D01*
X116754511Y-84205982D01*
X116754512Y-84205982D01*
X116754515Y-84205984D01*
X116894525Y-84243500D01*
X116894526Y-84243500D01*
X117039474Y-84243500D01*
X117039475Y-84243500D01*
X117179485Y-84205984D01*
X117179487Y-84205982D01*
X117179489Y-84205982D01*
X117305010Y-84133512D01*
X117305010Y-84133511D01*
X117305015Y-84133509D01*
X117407509Y-84031015D01*
X117407512Y-84031010D01*
X117479982Y-83905489D01*
X117479982Y-83905487D01*
X117479984Y-83905485D01*
X117517500Y-83765475D01*
X117517500Y-83747525D01*
X122512500Y-83747525D01*
X122512500Y-83892474D01*
X122550017Y-84032489D01*
X122622487Y-84158010D01*
X122622489Y-84158012D01*
X122622491Y-84158015D01*
X122724985Y-84260509D01*
X122724987Y-84260510D01*
X122724989Y-84260512D01*
X122850511Y-84332982D01*
X122850512Y-84332982D01*
X122850515Y-84332984D01*
X122990525Y-84370500D01*
X122990526Y-84370500D01*
X123135474Y-84370500D01*
X123135475Y-84370500D01*
X123275485Y-84332984D01*
X123275487Y-84332982D01*
X123275489Y-84332982D01*
X123401010Y-84260512D01*
X123401010Y-84260511D01*
X123401015Y-84260509D01*
X123503509Y-84158015D01*
X123520535Y-84128525D01*
X127846500Y-84128525D01*
X127846500Y-84273475D01*
X127855488Y-84307017D01*
X127884017Y-84413489D01*
X127956487Y-84539010D01*
X127956489Y-84539012D01*
X127956491Y-84539015D01*
X128058985Y-84641509D01*
X128058987Y-84641510D01*
X128058989Y-84641512D01*
X128184511Y-84713982D01*
X128184512Y-84713982D01*
X128184515Y-84713984D01*
X128324525Y-84751500D01*
X128324526Y-84751500D01*
X128469474Y-84751500D01*
X128469475Y-84751500D01*
X128484310Y-84747525D01*
X133831500Y-84747525D01*
X133831500Y-84892475D01*
X133851987Y-84968934D01*
X133869017Y-85032489D01*
X133941487Y-85158010D01*
X133941489Y-85158012D01*
X133941491Y-85158015D01*
X134043985Y-85260509D01*
X134043987Y-85260510D01*
X134043989Y-85260512D01*
X134169511Y-85332982D01*
X134169512Y-85332982D01*
X134169515Y-85332984D01*
X134309525Y-85370500D01*
X134309526Y-85370500D01*
X134454474Y-85370500D01*
X134454475Y-85370500D01*
X134594485Y-85332984D01*
X134594487Y-85332982D01*
X134594489Y-85332982D01*
X134720010Y-85260512D01*
X134720010Y-85260511D01*
X134720015Y-85260509D01*
X134822509Y-85158015D01*
X134880827Y-85057006D01*
X134894982Y-85032489D01*
X134894982Y-85032487D01*
X134894984Y-85032485D01*
X134932500Y-84892475D01*
X134932500Y-84747525D01*
X134894984Y-84607515D01*
X134894982Y-84607512D01*
X134894982Y-84607510D01*
X134822512Y-84481989D01*
X134822510Y-84481987D01*
X134822509Y-84481985D01*
X134720015Y-84379491D01*
X134720012Y-84379489D01*
X134720010Y-84379487D01*
X134594488Y-84307017D01*
X134594489Y-84307017D01*
X134564896Y-84299087D01*
X134454475Y-84269500D01*
X134309525Y-84269500D01*
X134247790Y-84286041D01*
X134169510Y-84307017D01*
X134043989Y-84379487D01*
X133941487Y-84481989D01*
X133869017Y-84607510D01*
X133853342Y-84666010D01*
X133831500Y-84747525D01*
X128484310Y-84747525D01*
X128609485Y-84713984D01*
X128609487Y-84713982D01*
X128609489Y-84713982D01*
X128711120Y-84655305D01*
X128711129Y-84655300D01*
X128721197Y-84649487D01*
X128735015Y-84641509D01*
X128837509Y-84539015D01*
X128870433Y-84481989D01*
X128909982Y-84413489D01*
X128909982Y-84413487D01*
X128909984Y-84413485D01*
X128947500Y-84273475D01*
X128947500Y-84128525D01*
X128909984Y-83988515D01*
X128909982Y-83988512D01*
X128909982Y-83988510D01*
X128837512Y-83862989D01*
X128837510Y-83862987D01*
X128837509Y-83862985D01*
X128735015Y-83760491D01*
X128735012Y-83760489D01*
X128735010Y-83760487D01*
X128609488Y-83688017D01*
X128609489Y-83688017D01*
X128579896Y-83680087D01*
X128469475Y-83650500D01*
X128324525Y-83650500D01*
X128262790Y-83667041D01*
X128184510Y-83688017D01*
X128058989Y-83760487D01*
X127956487Y-83862989D01*
X127884017Y-83988510D01*
X127872233Y-84032489D01*
X127846500Y-84128525D01*
X123520535Y-84128525D01*
X123575984Y-84032485D01*
X123613500Y-83892475D01*
X123613500Y-83747525D01*
X123575984Y-83607515D01*
X123575982Y-83607512D01*
X123575982Y-83607510D01*
X123503512Y-83481989D01*
X123503510Y-83481987D01*
X123503509Y-83481985D01*
X123401015Y-83379491D01*
X123401012Y-83379489D01*
X123401010Y-83379487D01*
X123275488Y-83307017D01*
X123275489Y-83307017D01*
X123245896Y-83299087D01*
X123135475Y-83269500D01*
X122990525Y-83269500D01*
X122928790Y-83286041D01*
X122850510Y-83307017D01*
X122724989Y-83379487D01*
X122622487Y-83481989D01*
X122550017Y-83607510D01*
X122512500Y-83747525D01*
X117517500Y-83747525D01*
X117517500Y-83620525D01*
X117479984Y-83480515D01*
X117479982Y-83480512D01*
X117479982Y-83480510D01*
X117407512Y-83354989D01*
X117407510Y-83354987D01*
X117407509Y-83354985D01*
X117305015Y-83252491D01*
X117305012Y-83252489D01*
X117305010Y-83252487D01*
X117179488Y-83180017D01*
X117179489Y-83180017D01*
X117149896Y-83172087D01*
X117039475Y-83142500D01*
X116894525Y-83142500D01*
X116832790Y-83159041D01*
X116754510Y-83180017D01*
X116628989Y-83252487D01*
X116526487Y-83354989D01*
X116454017Y-83480510D01*
X116416500Y-83620525D01*
X111294500Y-83620525D01*
X111256984Y-83480515D01*
X111256982Y-83480512D01*
X111256982Y-83480510D01*
X111184512Y-83354989D01*
X111184510Y-83354987D01*
X111184509Y-83354985D01*
X111082015Y-83252491D01*
X111082012Y-83252489D01*
X111082010Y-83252487D01*
X110956488Y-83180017D01*
X110956489Y-83180017D01*
X110926896Y-83172087D01*
X110816475Y-83142500D01*
X110671525Y-83142500D01*
X110609790Y-83159041D01*
X110531510Y-83180017D01*
X110405989Y-83252487D01*
X110303487Y-83354989D01*
X110231017Y-83480510D01*
X110193500Y-83620525D01*
X110193500Y-83685732D01*
X110174593Y-83743923D01*
X110125093Y-83779887D01*
X110068878Y-83781359D01*
X110054475Y-83777500D01*
X109909525Y-83777500D01*
X109847790Y-83794041D01*
X109769510Y-83815017D01*
X109643989Y-83887487D01*
X109541487Y-83989989D01*
X109469017Y-84115510D01*
X109431500Y-84255525D01*
X109431500Y-84400474D01*
X109455099Y-84488547D01*
X109451896Y-84549648D01*
X109413391Y-84597198D01*
X109385096Y-84609796D01*
X109360090Y-84616496D01*
X109360086Y-84616498D01*
X109234564Y-84688968D01*
X109132062Y-84791470D01*
X109059592Y-84916991D01*
X109059591Y-84916996D01*
X109022075Y-85057006D01*
X108522075Y-85057006D01*
X108522075Y-85039100D01*
X108484559Y-84899090D01*
X108484557Y-84899087D01*
X108484557Y-84899085D01*
X108412087Y-84773564D01*
X108412085Y-84773562D01*
X108412084Y-84773560D01*
X108309590Y-84671066D01*
X108309587Y-84671064D01*
X108309585Y-84671062D01*
X108184063Y-84598592D01*
X108184064Y-84598592D01*
X108154471Y-84590662D01*
X108044050Y-84561075D01*
X107899100Y-84561075D01*
X107839608Y-84577016D01*
X107759085Y-84598592D01*
X107633564Y-84671062D01*
X107633559Y-84671066D01*
X107530939Y-84773686D01*
X107476423Y-84801463D01*
X107415991Y-84791891D01*
X107378961Y-84756748D01*
X107378460Y-84757134D01*
X107376027Y-84753964D01*
X107375195Y-84753174D01*
X107374511Y-84751989D01*
X107374509Y-84751985D01*
X107272015Y-84649491D01*
X107272012Y-84649489D01*
X107272010Y-84649487D01*
X107146488Y-84577017D01*
X107146489Y-84577017D01*
X107044347Y-84549648D01*
X107006475Y-84539500D01*
X106861525Y-84539500D01*
X106823653Y-84549648D01*
X106721510Y-84577017D01*
X106595989Y-84649487D01*
X106493487Y-84751989D01*
X106421017Y-84877510D01*
X106383500Y-85017525D01*
X94280500Y-85017525D01*
X94280500Y-83747525D01*
X97417300Y-83747525D01*
X97417300Y-83892474D01*
X97454817Y-84032489D01*
X97527287Y-84158010D01*
X97527289Y-84158012D01*
X97527291Y-84158015D01*
X97629785Y-84260509D01*
X97629787Y-84260510D01*
X97629789Y-84260512D01*
X97755311Y-84332982D01*
X97755312Y-84332982D01*
X97755315Y-84332984D01*
X97895325Y-84370500D01*
X97895326Y-84370500D01*
X98040274Y-84370500D01*
X98040275Y-84370500D01*
X98180285Y-84332984D01*
X98180287Y-84332982D01*
X98180289Y-84332982D01*
X98305810Y-84260512D01*
X98305810Y-84260511D01*
X98305815Y-84260509D01*
X98408309Y-84158015D01*
X98425335Y-84128525D01*
X98480782Y-84032489D01*
X98480782Y-84032487D01*
X98480784Y-84032485D01*
X98518300Y-83892475D01*
X98518300Y-83747525D01*
X103538700Y-83747525D01*
X103538700Y-83892474D01*
X103576217Y-84032489D01*
X103648687Y-84158010D01*
X103648689Y-84158012D01*
X103648691Y-84158015D01*
X103751185Y-84260509D01*
X103751187Y-84260510D01*
X103751189Y-84260512D01*
X103876711Y-84332982D01*
X103876712Y-84332982D01*
X103876715Y-84332984D01*
X104016725Y-84370500D01*
X104016726Y-84370500D01*
X104161674Y-84370500D01*
X104161675Y-84370500D01*
X104301685Y-84332984D01*
X104301687Y-84332982D01*
X104301689Y-84332982D01*
X104427210Y-84260512D01*
X104427210Y-84260511D01*
X104427215Y-84260509D01*
X104529709Y-84158015D01*
X104546735Y-84128525D01*
X104602182Y-84032489D01*
X104602182Y-84032487D01*
X104602184Y-84032485D01*
X104639700Y-83892475D01*
X104639700Y-83747525D01*
X104602184Y-83607515D01*
X104602182Y-83607512D01*
X104602182Y-83607510D01*
X104529712Y-83481989D01*
X104529710Y-83481987D01*
X104529709Y-83481985D01*
X104427215Y-83379491D01*
X104427212Y-83379489D01*
X104427210Y-83379487D01*
X104301688Y-83307017D01*
X104301689Y-83307017D01*
X104272096Y-83299087D01*
X104161675Y-83269500D01*
X104016725Y-83269500D01*
X103954990Y-83286041D01*
X103876710Y-83307017D01*
X103751189Y-83379487D01*
X103648687Y-83481989D01*
X103576217Y-83607510D01*
X103538700Y-83747525D01*
X98518300Y-83747525D01*
X98480784Y-83607515D01*
X98480782Y-83607512D01*
X98480782Y-83607510D01*
X98408312Y-83481989D01*
X98408310Y-83481987D01*
X98408309Y-83481985D01*
X98305815Y-83379491D01*
X98305812Y-83379489D01*
X98305810Y-83379487D01*
X98180288Y-83307017D01*
X98180289Y-83307017D01*
X98150696Y-83299087D01*
X98040275Y-83269500D01*
X97895325Y-83269500D01*
X97833590Y-83286041D01*
X97755310Y-83307017D01*
X97629789Y-83379487D01*
X97527287Y-83481989D01*
X97454817Y-83607510D01*
X97417300Y-83747525D01*
X94280500Y-83747525D01*
X94280500Y-82198125D01*
X106256500Y-82198125D01*
X106256500Y-82343075D01*
X106276152Y-82416416D01*
X106294017Y-82483089D01*
X106366487Y-82608610D01*
X106366489Y-82608612D01*
X106366491Y-82608615D01*
X106468985Y-82711109D01*
X106468987Y-82711110D01*
X106468989Y-82711112D01*
X106594511Y-82783582D01*
X106594512Y-82783582D01*
X106594515Y-82783584D01*
X106734525Y-82821100D01*
X106734526Y-82821100D01*
X106879474Y-82821100D01*
X106879475Y-82821100D01*
X107019485Y-82783584D01*
X107019487Y-82783582D01*
X107019489Y-82783582D01*
X107145010Y-82711112D01*
X107145010Y-82711111D01*
X107145015Y-82711109D01*
X107247509Y-82608615D01*
X107259474Y-82587892D01*
X107318653Y-82485390D01*
X107319984Y-82483085D01*
X107324869Y-82464850D01*
X107358191Y-82413537D01*
X107415312Y-82391608D01*
X107474413Y-82407442D01*
X107506232Y-82440971D01*
X107531878Y-82485390D01*
X107564531Y-82541946D01*
X107667025Y-82644440D01*
X107667027Y-82644441D01*
X107667029Y-82644443D01*
X107792551Y-82716913D01*
X107792552Y-82716913D01*
X107792555Y-82716915D01*
X107932565Y-82754431D01*
X107932566Y-82754431D01*
X108077514Y-82754431D01*
X108077515Y-82754431D01*
X108217525Y-82716915D01*
X108217527Y-82716913D01*
X108217529Y-82716913D01*
X108343050Y-82644443D01*
X108343050Y-82644442D01*
X108343055Y-82644440D01*
X108445549Y-82541946D01*
X108479533Y-82483085D01*
X108518022Y-82416420D01*
X108518022Y-82416418D01*
X108518024Y-82416416D01*
X108555540Y-82276406D01*
X108555540Y-82131456D01*
X108540387Y-82074905D01*
X116775880Y-82074905D01*
X116775880Y-82219854D01*
X116813397Y-82359869D01*
X116885867Y-82485390D01*
X116885869Y-82485392D01*
X116885871Y-82485395D01*
X116988365Y-82587889D01*
X116988367Y-82587890D01*
X116988369Y-82587892D01*
X117113891Y-82660362D01*
X117113892Y-82660362D01*
X117113895Y-82660364D01*
X117253905Y-82697880D01*
X117253906Y-82697880D01*
X117398854Y-82697880D01*
X117398855Y-82697880D01*
X117538865Y-82660364D01*
X117538867Y-82660362D01*
X117538869Y-82660362D01*
X117664390Y-82587892D01*
X117664390Y-82587891D01*
X117664395Y-82587889D01*
X117766889Y-82485395D01*
X117806714Y-82416416D01*
X117839362Y-82359869D01*
X117839362Y-82359867D01*
X117839364Y-82359865D01*
X117876880Y-82219855D01*
X117876880Y-82074905D01*
X117839364Y-81934895D01*
X117839362Y-81934892D01*
X117839362Y-81934890D01*
X117766892Y-81809369D01*
X117766890Y-81809367D01*
X117766889Y-81809365D01*
X117664395Y-81706871D01*
X117664392Y-81706869D01*
X117664390Y-81706867D01*
X117538868Y-81634397D01*
X117538869Y-81634397D01*
X117469132Y-81615711D01*
X117398855Y-81596880D01*
X117253905Y-81596880D01*
X117192170Y-81613421D01*
X117113890Y-81634397D01*
X116988369Y-81706867D01*
X116885867Y-81809369D01*
X116813397Y-81934890D01*
X116775880Y-82074905D01*
X108540387Y-82074905D01*
X108530750Y-82038940D01*
X108533952Y-81977843D01*
X108572457Y-81930293D01*
X108600748Y-81917696D01*
X108657059Y-81902608D01*
X108657061Y-81902606D01*
X108657063Y-81902606D01*
X108782584Y-81830136D01*
X108782584Y-81830135D01*
X108782589Y-81830133D01*
X108885083Y-81727639D01*
X108889436Y-81720100D01*
X108957556Y-81602113D01*
X108957556Y-81602111D01*
X108957558Y-81602109D01*
X108995074Y-81462099D01*
X108995074Y-81317149D01*
X108957558Y-81177139D01*
X108957556Y-81177136D01*
X108957556Y-81177134D01*
X108885086Y-81051613D01*
X108885084Y-81051611D01*
X108885083Y-81051609D01*
X108834701Y-81001227D01*
X108806926Y-80946713D01*
X108816497Y-80886281D01*
X108834700Y-80861225D01*
X108868130Y-80827796D01*
X108868133Y-80827791D01*
X108940603Y-80702270D01*
X108940603Y-80702268D01*
X108940605Y-80702266D01*
X108978121Y-80562256D01*
X108978121Y-80417306D01*
X108940605Y-80277296D01*
X108940603Y-80277293D01*
X108940603Y-80277291D01*
X108868133Y-80151770D01*
X108868131Y-80151768D01*
X108868130Y-80151766D01*
X108765636Y-80049272D01*
X108765633Y-80049270D01*
X108765631Y-80049268D01*
X108640109Y-79976798D01*
X108640110Y-79976798D01*
X108610517Y-79968868D01*
X108500096Y-79939281D01*
X108355146Y-79939281D01*
X108293411Y-79955822D01*
X108215131Y-79976798D01*
X108089610Y-80049268D01*
X107987108Y-80151770D01*
X107914638Y-80277291D01*
X107895448Y-80348909D01*
X107877121Y-80417306D01*
X107877121Y-80562256D01*
X107906708Y-80672677D01*
X107914638Y-80702270D01*
X107987108Y-80827791D01*
X107987110Y-80827793D01*
X107987112Y-80827796D01*
X108037493Y-80878177D01*
X108065269Y-80932692D01*
X108055698Y-80993124D01*
X108037494Y-81018179D01*
X108004065Y-81051609D01*
X108004062Y-81051612D01*
X108004061Y-81051613D01*
X107931591Y-81177134D01*
X107931590Y-81177139D01*
X107894074Y-81317149D01*
X107894074Y-81462099D01*
X107918862Y-81554611D01*
X107915661Y-81615711D01*
X107877156Y-81663261D01*
X107848860Y-81675859D01*
X107792555Y-81690946D01*
X107792551Y-81690948D01*
X107667029Y-81763418D01*
X107564527Y-81865920D01*
X107492057Y-81991442D01*
X107492056Y-81991444D01*
X107487169Y-82009683D01*
X107453844Y-82060996D01*
X107396723Y-82082922D01*
X107337622Y-82067085D01*
X107305807Y-82033558D01*
X107247512Y-81932589D01*
X107247510Y-81932587D01*
X107247509Y-81932585D01*
X107145015Y-81830091D01*
X107145012Y-81830089D01*
X107145010Y-81830087D01*
X107019488Y-81757617D01*
X107019489Y-81757617D01*
X106989896Y-81749687D01*
X106879475Y-81720100D01*
X106734525Y-81720100D01*
X106672790Y-81736641D01*
X106594510Y-81757617D01*
X106468989Y-81830087D01*
X106366487Y-81932589D01*
X106294017Y-82058110D01*
X106294016Y-82058115D01*
X106256500Y-82198125D01*
X94280500Y-82198125D01*
X94280500Y-80280476D01*
X94299407Y-80222285D01*
X94348907Y-80186321D01*
X94410093Y-80186321D01*
X94449504Y-80210472D01*
X94512128Y-80273096D01*
X94512132Y-80273099D01*
X94675140Y-80382020D01*
X94675152Y-80382026D01*
X94856280Y-80457050D01*
X95048567Y-80495299D01*
X95048571Y-80495300D01*
X95506198Y-80495300D01*
X95506199Y-80495299D01*
X95506199Y-79804800D01*
X96006199Y-79804800D01*
X96006199Y-80495299D01*
X96006200Y-80495300D01*
X96463827Y-80495300D01*
X96463830Y-80495299D01*
X96656116Y-80457050D01*
X96656118Y-80457050D01*
X96837245Y-80382026D01*
X96837257Y-80382020D01*
X97000265Y-80273099D01*
X97000269Y-80273096D01*
X97138895Y-80134470D01*
X97138898Y-80134466D01*
X97247819Y-79971458D01*
X97247825Y-79971446D01*
X97322849Y-79790319D01*
X97330870Y-79750000D01*
X96529687Y-79750000D01*
X96540251Y-79743901D01*
X96597000Y-79687152D01*
X96637127Y-79617648D01*
X96657899Y-79540128D01*
X96657899Y-79459872D01*
X96637127Y-79382352D01*
X96597000Y-79312848D01*
X96540251Y-79256099D01*
X96529687Y-79250000D01*
X97330870Y-79250000D01*
X98384729Y-79250000D01*
X99185912Y-79250000D01*
X99175348Y-79256099D01*
X99118599Y-79312848D01*
X99078472Y-79382352D01*
X99057700Y-79459872D01*
X99057700Y-79540128D01*
X99078472Y-79617648D01*
X99118599Y-79687152D01*
X99175348Y-79743901D01*
X99185912Y-79750000D01*
X98384729Y-79750000D01*
X98392749Y-79790319D01*
X98467773Y-79971446D01*
X98467779Y-79971458D01*
X98576700Y-80134466D01*
X98576703Y-80134470D01*
X98715329Y-80273096D01*
X98715333Y-80273099D01*
X98878341Y-80382020D01*
X98878353Y-80382026D01*
X99059481Y-80457050D01*
X99251768Y-80495299D01*
X99251772Y-80495300D01*
X99506199Y-80495300D01*
X99506200Y-80495299D01*
X99506200Y-79804800D01*
X100006200Y-79804800D01*
X100006200Y-80495299D01*
X100006201Y-80495300D01*
X100260628Y-80495300D01*
X100260631Y-80495299D01*
X100452917Y-80457050D01*
X100452919Y-80457050D01*
X100634046Y-80382026D01*
X100634058Y-80382020D01*
X100729083Y-80318525D01*
X101470500Y-80318525D01*
X101470500Y-80463475D01*
X101479028Y-80495300D01*
X101508017Y-80603489D01*
X101580487Y-80729010D01*
X101580489Y-80729012D01*
X101580491Y-80729015D01*
X101682985Y-80831509D01*
X101682987Y-80831510D01*
X101682989Y-80831512D01*
X101808511Y-80903982D01*
X101808512Y-80903982D01*
X101808515Y-80903984D01*
X101948525Y-80941500D01*
X101948526Y-80941500D01*
X102093474Y-80941500D01*
X102093475Y-80941500D01*
X102233485Y-80903984D01*
X102233487Y-80903982D01*
X102233489Y-80903982D01*
X102359010Y-80831512D01*
X102359010Y-80831511D01*
X102359015Y-80831509D01*
X102461509Y-80729015D01*
X102533984Y-80603485D01*
X102571500Y-80463475D01*
X102571500Y-80318525D01*
X102533984Y-80178515D01*
X102533982Y-80178512D01*
X102533982Y-80178510D01*
X102461512Y-80052989D01*
X102461510Y-80052987D01*
X102461509Y-80052985D01*
X102359015Y-79950491D01*
X102359012Y-79950489D01*
X102359010Y-79950487D01*
X102297842Y-79915172D01*
X102233488Y-79878017D01*
X102233489Y-79878017D01*
X102203896Y-79870087D01*
X102093475Y-79840500D01*
X101948525Y-79840500D01*
X101886790Y-79857041D01*
X101808510Y-79878017D01*
X101682989Y-79950487D01*
X101580487Y-80052989D01*
X101508017Y-80178510D01*
X101490996Y-80242032D01*
X101470500Y-80318525D01*
X100729083Y-80318525D01*
X100797066Y-80273099D01*
X100797070Y-80273096D01*
X100828135Y-80242032D01*
X100935696Y-80134470D01*
X100935699Y-80134466D01*
X101044620Y-79971458D01*
X101044626Y-79971446D01*
X101100760Y-79835925D01*
X120810700Y-79835925D01*
X120810700Y-79980874D01*
X120848217Y-80120889D01*
X120920687Y-80246410D01*
X120920689Y-80246412D01*
X120920691Y-80246415D01*
X121023185Y-80348909D01*
X121023187Y-80348910D01*
X121023189Y-80348912D01*
X121148711Y-80421382D01*
X121148712Y-80421382D01*
X121148715Y-80421384D01*
X121288725Y-80458900D01*
X121288726Y-80458900D01*
X121433674Y-80458900D01*
X121433675Y-80458900D01*
X121573685Y-80421384D01*
X121573687Y-80421382D01*
X121573689Y-80421382D01*
X121699210Y-80348912D01*
X121699210Y-80348911D01*
X121699215Y-80348909D01*
X121801709Y-80246415D01*
X121822461Y-80210472D01*
X121874182Y-80120889D01*
X121874182Y-80120887D01*
X121874184Y-80120885D01*
X121911700Y-79980875D01*
X121911700Y-79835925D01*
X121874184Y-79695915D01*
X121874182Y-79695912D01*
X121874182Y-79695910D01*
X121801712Y-79570389D01*
X121801710Y-79570387D01*
X121801709Y-79570385D01*
X121699215Y-79467891D01*
X121699212Y-79467889D01*
X121699210Y-79467887D01*
X121573688Y-79395417D01*
X121573689Y-79395417D01*
X121524930Y-79382352D01*
X121433675Y-79357900D01*
X121288725Y-79357900D01*
X121226990Y-79374441D01*
X121148710Y-79395417D01*
X121023189Y-79467887D01*
X120920687Y-79570389D01*
X120848217Y-79695910D01*
X120810700Y-79835925D01*
X101100760Y-79835925D01*
X101119650Y-79790319D01*
X101127671Y-79750000D01*
X100326488Y-79750000D01*
X100337052Y-79743901D01*
X100393801Y-79687152D01*
X100433928Y-79617648D01*
X100454700Y-79540128D01*
X100454700Y-79459872D01*
X100433928Y-79382352D01*
X100393801Y-79312848D01*
X100337052Y-79256099D01*
X100326488Y-79250000D01*
X101127671Y-79250000D01*
X101119650Y-79209680D01*
X101044626Y-79028553D01*
X101044620Y-79028541D01*
X100935699Y-78865533D01*
X100935696Y-78865529D01*
X100797070Y-78726903D01*
X100797066Y-78726900D01*
X100634058Y-78617979D01*
X100634046Y-78617973D01*
X100452918Y-78542949D01*
X100260631Y-78504700D01*
X100006201Y-78504700D01*
X100006200Y-78504701D01*
X100006200Y-79195200D01*
X99506200Y-79195200D01*
X99506200Y-78504701D01*
X99506199Y-78504700D01*
X99251768Y-78504700D01*
X99059482Y-78542949D01*
X99059480Y-78542949D01*
X98878353Y-78617973D01*
X98878341Y-78617979D01*
X98715333Y-78726900D01*
X98715329Y-78726903D01*
X98576703Y-78865529D01*
X98576700Y-78865533D01*
X98467779Y-79028541D01*
X98467773Y-79028553D01*
X98392749Y-79209680D01*
X98384729Y-79250000D01*
X97330870Y-79250000D01*
X97322849Y-79209680D01*
X97247825Y-79028553D01*
X97247819Y-79028541D01*
X97138898Y-78865533D01*
X97138895Y-78865529D01*
X97000269Y-78726903D01*
X97000265Y-78726900D01*
X96837257Y-78617979D01*
X96837245Y-78617973D01*
X96656117Y-78542949D01*
X96463830Y-78504700D01*
X96006200Y-78504700D01*
X96006199Y-78504701D01*
X96006199Y-79195200D01*
X95506199Y-79195200D01*
X95506199Y-78504701D01*
X95506198Y-78504700D01*
X95048567Y-78504700D01*
X94856281Y-78542949D01*
X94856279Y-78542949D01*
X94675152Y-78617973D01*
X94675140Y-78617979D01*
X94512132Y-78726900D01*
X94512128Y-78726903D01*
X94449504Y-78789528D01*
X94394987Y-78817305D01*
X94334555Y-78807734D01*
X94291290Y-78764469D01*
X94280500Y-78719524D01*
X94280500Y-78311925D01*
X115425900Y-78311925D01*
X115425900Y-78456874D01*
X115463417Y-78596889D01*
X115535887Y-78722410D01*
X115535889Y-78722412D01*
X115535891Y-78722415D01*
X115638385Y-78824909D01*
X115638387Y-78824910D01*
X115638389Y-78824912D01*
X115763911Y-78897382D01*
X115763912Y-78897382D01*
X115763915Y-78897384D01*
X115903925Y-78934900D01*
X115903926Y-78934900D01*
X116048874Y-78934900D01*
X116048875Y-78934900D01*
X116188885Y-78897384D01*
X116188887Y-78897382D01*
X116188889Y-78897382D01*
X116314410Y-78824912D01*
X116314410Y-78824911D01*
X116314415Y-78824909D01*
X116416909Y-78722415D01*
X116418578Y-78719524D01*
X116489382Y-78596889D01*
X116489382Y-78596887D01*
X116489384Y-78596885D01*
X116526900Y-78456875D01*
X116526900Y-78311925D01*
X116489384Y-78171915D01*
X116489382Y-78171912D01*
X116489382Y-78171910D01*
X116416912Y-78046389D01*
X116416910Y-78046387D01*
X116416909Y-78046385D01*
X116314415Y-77943891D01*
X116314412Y-77943889D01*
X116314410Y-77943887D01*
X116188888Y-77871417D01*
X116188889Y-77871417D01*
X116159296Y-77863487D01*
X116048875Y-77833900D01*
X115903925Y-77833900D01*
X115842190Y-77850441D01*
X115763910Y-77871417D01*
X115638389Y-77943887D01*
X115535887Y-78046389D01*
X115463417Y-78171910D01*
X115425900Y-78311925D01*
X94280500Y-78311925D01*
X94280500Y-76662773D01*
X94280656Y-76657222D01*
X94286156Y-76559288D01*
X94297162Y-76363296D01*
X94298405Y-76352270D01*
X94347253Y-76064771D01*
X94349714Y-76053985D01*
X94430451Y-75773742D01*
X94434111Y-75763283D01*
X94545711Y-75493858D01*
X94550525Y-75483863D01*
X94580294Y-75430000D01*
X94691583Y-75228636D01*
X94697479Y-75219253D01*
X94866230Y-74981421D01*
X94873149Y-74972745D01*
X94874879Y-74970809D01*
X95067475Y-74755293D01*
X95075293Y-74747475D01*
X95292748Y-74553146D01*
X95301424Y-74546228D01*
X95324435Y-74529901D01*
X95539253Y-74377479D01*
X95548636Y-74371583D01*
X95803869Y-74230522D01*
X95813858Y-74225711D01*
X96083283Y-74114111D01*
X96093742Y-74110451D01*
X96373985Y-74029714D01*
X96384771Y-74027253D01*
X96672277Y-73978404D01*
X96683296Y-73977162D01*
X96977222Y-73960655D01*
X96982773Y-73960500D01*
X97027595Y-73960500D01*
X100844861Y-73960500D01*
X100903052Y-73979407D01*
G37*
%TD.AperFunction*%
%TD*%
M02*
