%TF.GenerationSoftware,KiCad,Pcbnew,9.0.7*%
%TF.CreationDate,2026-07-04T14:57:21-07:00*%
%TF.ProjectId,STM32_Microcontrollerx32,53544d33-325f-44d6-9963-726f636f6e74,rev?*%
%TF.SameCoordinates,Original*%
%TF.FileFunction,Paste,Top*%
%TF.FilePolarity,Positive*%
%FSLAX46Y46*%
G04 Gerber Fmt 4.6, Leading zero omitted, Abs format (unit mm)*
G04 Created by KiCad (PCBNEW 9.0.7) date 2026-07-04 14:57:21*
%MOMM*%
%LPD*%
G01*
G04 APERTURE LIST*
G04 Aperture macros list*
%AMRoundRect*
0 Rectangle with rounded corners*
0 $1 Rounding radius*
0 $2 $3 $4 $5 $6 $7 $8 $9 X,Y pos of 4 corners*
0 Add a 4 corners polygon primitive as box body*
4,1,4,$2,$3,$4,$5,$6,$7,$8,$9,$2,$3,0*
0 Add four circle primitives for the rounded corners*
1,1,$1+$1,$2,$3*
1,1,$1+$1,$4,$5*
1,1,$1+$1,$6,$7*
1,1,$1+$1,$8,$9*
0 Add four rect primitives between the rounded corners*
20,1,$1+$1,$2,$3,$4,$5,0*
20,1,$1+$1,$4,$5,$6,$7,0*
20,1,$1+$1,$6,$7,$8,$9,0*
20,1,$1+$1,$8,$9,$2,$3,0*%
G04 Aperture macros list end*
%ADD10C,0.000000*%
%ADD11RoundRect,0.225000X0.250000X-0.225000X0.250000X0.225000X-0.250000X0.225000X-0.250000X-0.225000X0*%
%ADD12RoundRect,0.225000X-0.250000X0.225000X-0.250000X-0.225000X0.250000X-0.225000X0.250000X0.225000X0*%
%ADD13RoundRect,0.225000X0.225000X0.250000X-0.225000X0.250000X-0.225000X-0.250000X0.225000X-0.250000X0*%
%ADD14RoundRect,0.225000X-0.225000X-0.250000X0.225000X-0.250000X0.225000X0.250000X-0.225000X0.250000X0*%
%ADD15RoundRect,0.243750X0.243750X0.456250X-0.243750X0.456250X-0.243750X-0.456250X0.243750X-0.456250X0*%
%ADD16RoundRect,0.200000X-0.200000X-0.275000X0.200000X-0.275000X0.200000X0.275000X-0.200000X0.275000X0*%
%ADD17RoundRect,0.200000X-0.275000X0.200000X-0.275000X-0.200000X0.275000X-0.200000X0.275000X0.200000X0*%
%ADD18R,2.100000X1.400000*%
%ADD19R,0.812800X0.304800*%
%ADD20R,1.701800X2.108200*%
%ADD21RoundRect,0.218750X0.218750X0.381250X-0.218750X0.381250X-0.218750X-0.381250X0.218750X-0.381250X0*%
%ADD22R,1.420000X1.200000*%
%ADD23RoundRect,0.200000X0.275000X-0.200000X0.275000X0.200000X-0.275000X0.200000X-0.275000X-0.200000X0*%
%ADD24R,0.400000X0.900000*%
%ADD25R,0.850000X0.300000*%
%ADD26R,0.300000X0.850000*%
%ADD27R,3.700000X3.700000*%
%ADD28R,1.240000X1.120000*%
%ADD29R,1.143000X0.609600*%
%ADD30R,1.143000X0.304800*%
%ADD31RoundRect,0.200000X0.200000X0.275000X-0.200000X0.275000X-0.200000X-0.275000X0.200000X-0.275000X0*%
%ADD32R,0.558800X1.460500*%
%ADD33R,3.500000X1.000000*%
%ADD34R,3.400000X1.500000*%
%ADD35R,1.200000X0.600000*%
G04 APERTURE END LIST*
D10*
%TO.C,U1*%
G36*
X131218000Y-88387250D02*
G01*
X129792400Y-88387250D01*
X129792400Y-86225050D01*
X131218000Y-86225050D01*
X131218000Y-88387250D01*
G37*
G36*
X132843600Y-88387250D02*
G01*
X131418000Y-88387250D01*
X131418000Y-86225050D01*
X132843600Y-86225050D01*
X132843600Y-88387250D01*
G37*
%TD*%
D11*
%TO.C,C1*%
X135128000Y-87109000D03*
X135128000Y-88659000D03*
%TD*%
D12*
%TO.C,C2*%
X133604000Y-82563000D03*
X133604000Y-81013000D03*
%TD*%
D11*
%TO.C,C3*%
X118364000Y-82029000D03*
X118364000Y-83579000D03*
%TD*%
%TO.C,C4*%
X120015000Y-83566000D03*
X120015000Y-82016000D03*
%TD*%
%TO.C,C5*%
X118364000Y-79883000D03*
X118364000Y-78333000D03*
%TD*%
%TO.C,C6*%
X119888000Y-78346000D03*
X119888000Y-79896000D03*
%TD*%
%TO.C,C7*%
X109347000Y-78893000D03*
X109347000Y-77343000D03*
%TD*%
%TO.C,C9*%
X102108000Y-88392000D03*
X102108000Y-89942000D03*
%TD*%
D13*
%TO.C,C10*%
X95097000Y-89916000D03*
X96647000Y-89916000D03*
%TD*%
D12*
%TO.C,C11*%
X127000000Y-84061000D03*
X127000000Y-85611000D03*
%TD*%
D14*
%TO.C,C13*%
X102730000Y-81222000D03*
X104280000Y-81222000D03*
%TD*%
D13*
%TO.C,C12*%
X107442000Y-81222000D03*
X105892000Y-81222000D03*
%TD*%
D15*
%TO.C,D2*%
X140349500Y-89788000D03*
X142224500Y-89788000D03*
%TD*%
%TO.C,D1*%
X140349500Y-77724000D03*
X142224500Y-77724000D03*
%TD*%
D16*
%TO.C,R1*%
X136906000Y-77724000D03*
X138556000Y-77724000D03*
%TD*%
%TO.C,R2*%
X136906000Y-89788000D03*
X138556000Y-89788000D03*
%TD*%
D17*
%TO.C,R_P*%
X127000000Y-88520000D03*
X127000000Y-90170000D03*
%TD*%
D18*
%TO.C,SW1*%
X122174000Y-82260000D03*
X122174000Y-77760000D03*
X131274000Y-77760000D03*
X131274000Y-82260000D03*
%TD*%
%TO.C,SW2*%
X115614000Y-89844000D03*
X115614000Y-85344000D03*
X124714000Y-85344000D03*
X124714000Y-89844000D03*
%TD*%
D19*
%TO.C,U2*%
X104724200Y-78299000D03*
X104724200Y-78807000D03*
X104724200Y-79315000D03*
X104724200Y-79823000D03*
X107619800Y-79823000D03*
X107619800Y-79315000D03*
X107619800Y-78807000D03*
D20*
X106172000Y-79061000D03*
D19*
X107619800Y-78299000D03*
%TD*%
D21*
%TO.C,FB1*%
X100423000Y-89916000D03*
X98298000Y-89916000D03*
%TD*%
D22*
%TO.C,L1*%
X102743000Y-79317000D03*
X102743000Y-77597000D03*
%TD*%
D16*
%TO.C,R4*%
X98997000Y-77851000D03*
X100647000Y-77851000D03*
%TD*%
D23*
%TO.C,R7*%
X113284000Y-88328000D03*
X113284000Y-86678000D03*
%TD*%
D24*
%TO.C,Q1*%
X108593000Y-87921000D03*
X109593000Y-87921000D03*
X109093000Y-86321000D03*
%TD*%
D25*
%TO.C,IC1*%
X115762000Y-82813000D03*
X115762000Y-82313000D03*
X115762000Y-81813000D03*
X115762000Y-81313000D03*
X115762000Y-80813000D03*
X115762000Y-80313000D03*
X115762000Y-79813000D03*
X115762000Y-79313000D03*
D26*
X115062000Y-78613000D03*
X114562000Y-78613000D03*
X114062000Y-78613000D03*
X113562000Y-78613000D03*
X113062000Y-78613000D03*
X112562000Y-78613000D03*
X112062000Y-78613000D03*
X111562000Y-78613000D03*
D25*
X110862000Y-79313000D03*
X110862000Y-79813000D03*
X110862000Y-80313000D03*
X110862000Y-80813000D03*
X110862000Y-81313000D03*
X110862000Y-81813000D03*
X110862000Y-82313000D03*
X110862000Y-82813000D03*
D26*
X111562000Y-83513000D03*
X112062000Y-83513000D03*
X112562000Y-83513000D03*
X113062000Y-83513000D03*
X113562000Y-83513000D03*
X114062000Y-83513000D03*
X114562000Y-83513000D03*
X115062000Y-83513000D03*
D27*
X113312000Y-81063000D03*
%TD*%
D23*
%TO.C,R8*%
X107061000Y-88010000D03*
X107061000Y-86360000D03*
%TD*%
D16*
%TO.C,R9*%
X111760000Y-90043000D03*
X113410000Y-90043000D03*
%TD*%
D28*
%TO.C,D5*%
X107085000Y-89915000D03*
X110085000Y-89915000D03*
%TD*%
D29*
%TO.C,J3*%
X100331199Y-80619999D03*
X100331199Y-81420000D03*
D30*
X100331199Y-82570000D03*
X100331199Y-83570000D03*
X100331199Y-84070000D03*
X100331199Y-85070000D03*
D29*
X100331199Y-87019999D03*
X100331199Y-86220000D03*
D30*
X100331199Y-85570060D03*
X100331199Y-84570059D03*
X100331199Y-83070060D03*
X100331199Y-82070059D03*
%TD*%
D31*
%TO.C,R6*%
X97536000Y-77851000D03*
X95886000Y-77851000D03*
%TD*%
D15*
%TO.C,D4*%
X97122000Y-75819000D03*
X98997000Y-75819000D03*
%TD*%
D32*
%TO.C,U1*%
X129413000Y-90030300D03*
X130683000Y-90030300D03*
X131953000Y-90030300D03*
X133223000Y-90030300D03*
X133223000Y-84582000D03*
X131953000Y-84582000D03*
X130683000Y-84582000D03*
X129413000Y-84582000D03*
%TD*%
D33*
%TO.C,P1*%
X136825000Y-82820000D03*
X136825000Y-84820000D03*
D34*
X142575000Y-80470000D03*
X142575000Y-87170000D03*
%TD*%
D11*
%TO.C,C8*%
X103759000Y-89942000D03*
X103759000Y-88392000D03*
%TD*%
D31*
%TO.C,R5*%
X103695000Y-86487000D03*
X102045000Y-86487000D03*
%TD*%
D35*
%TO.C,D3*%
X105390000Y-84770000D03*
X105390000Y-83820000D03*
X105390000Y-82870000D03*
X102890000Y-82870000D03*
X102890000Y-83820000D03*
X102890000Y-84770000D03*
%TD*%
M02*
