M48
; DRILL file {KiCad 9.0.7} date 2026-07-04T14:57:40-0700
; FORMAT={-:-/ absolute / metric / decimal}
; #@! TF.CreationDate,2026-07-04T14:57:40-07:00
; #@! TF.GenerationSoftware,Kicad,Pcbnew,9.0.7
; #@! TF.FileFunction,Plated,1,4,PTH
FMAT,2
METRIC
; #@! TA.AperFunction,Plated,PTH,ViaDrill
T1C0.300
; #@! TA.AperFunction,Plated,PTH,ComponentDrill
T2C0.610
; #@! TA.AperFunction,Plated,PTH,ViaDrill
T3C1.000
; #@! TA.AperFunction,Plated,PTH,ComponentDrill
T4C1.000
%
G90
G05
T1
X95.809Y-91.364
X97.968Y-83.82
X98.095Y-74.676
X99.06Y-80.772
X99.06Y-86.868
X102.021Y-80.391
X104.089Y-83.82
X104.775Y-86.487
X105.283Y-87.884
X105.791Y-86.36
X106.172Y-78.486
X106.172Y-79.629
X106.299Y-83.82
X106.807Y-82.271
X106.934Y-85.09
X107.972Y-85.112
X108.005Y-82.204
X108.428Y-80.49
X108.445Y-81.39
X109.573Y-85.129
X109.982Y-84.328
X110.541Y-88.798
X110.617Y-78.359
X110.744Y-83.693
X110.947Y-77.165
X111.114Y-86.36
X112.014Y-86.36
X112.09Y-79.756
X112.09Y-81.063
X112.09Y-82.448
X113.309Y-79.756
X113.309Y-81.063
X113.309Y-82.448
X113.538Y-85.344
X113.894Y-76.962
X114.579Y-79.756
X114.579Y-81.063
X114.579Y-82.448
X115.189Y-88.341
X115.824Y-83.693
X115.976Y-78.384
X116.967Y-83.693
X117.043Y-77.333
X117.326Y-82.147
X117.856Y-85.293
X117.856Y-86.741
X117.983Y-89.84
X118.395Y-77.333
X119.888Y-77.333
X121.361Y-79.908
X121.92Y-84.089
X123.063Y-83.82
X124.765Y-86.995
X125.73Y-77.749
X126.1Y-86.995
X127.0Y-86.995
X128.27Y-77.876
X128.397Y-84.201
X128.397Y-90.17
X130.302Y-86.741
X130.302Y-87.884
X132.334Y-86.741
X132.334Y-87.884
X134.382Y-84.82
X135.382Y-81.026
X135.636Y-77.724
X136.652Y-87.122
X136.825Y-81.026
T3
X104.546Y-77.165
X105.41Y-89.916
X135.128Y-90.03
T4
X101.6Y-74.93
X101.6Y-92.71
X104.14Y-74.93
X104.14Y-92.71
X106.68Y-74.93
X106.68Y-92.71
X109.22Y-74.93
X109.22Y-92.71
X111.76Y-74.93
X111.76Y-92.71
X114.3Y-74.93
X114.3Y-92.71
X116.84Y-74.93
X116.84Y-92.71
X119.38Y-74.93
X119.38Y-92.71
X121.92Y-74.93
X121.92Y-92.71
X124.46Y-74.93
X124.46Y-92.71
X127.0Y-74.93
X127.0Y-92.71
X129.54Y-74.93
X129.54Y-92.71
X132.08Y-74.93
X132.08Y-92.71
X134.62Y-74.93
X134.62Y-92.71
X137.16Y-74.93
X137.16Y-92.71
T2
X96.353Y-79.5G85X95.159Y-79.5
G05
X96.353Y-88.14G85X95.159Y-88.14
G05
X100.15Y-79.5G85X99.362Y-79.5
G05
X100.15Y-88.14G85X99.362Y-88.14
G05
M30
