%TF.GenerationSoftware,KiCad,Pcbnew,9.0.7*%
%TF.CreationDate,2026-07-04T14:57:21-07:00*%
%TF.ProjectId,STM32_Microcontrollerx32,53544d33-325f-44d6-9963-726f636f6e74,rev?*%
%TF.SameCoordinates,Original*%
%TF.FileFunction,Copper,L4,Bot*%
%TF.FilePolarity,Positive*%
%FSLAX46Y46*%
G04 Gerber Fmt 4.6, Leading zero omitted, Abs format (unit mm)*
G04 Created by KiCad (PCBNEW 9.0.7) date 2026-07-04 14:57:21*
%MOMM*%
%LPD*%
G01*
G04 APERTURE LIST*
%TA.AperFunction,ComponentPad*%
%ADD10C,1.700000*%
%TD*%
%TA.AperFunction,ComponentPad*%
%ADD11R,1.700000X1.700000*%
%TD*%
%TA.AperFunction,ComponentPad*%
%ADD12O,2.209800X0.990600*%
%TD*%
%TA.AperFunction,ComponentPad*%
%ADD13O,1.803400X0.990600*%
%TD*%
%TA.AperFunction,ViaPad*%
%ADD14C,0.700000*%
%TD*%
%TA.AperFunction,ViaPad*%
%ADD15C,1.500000*%
%TD*%
%TA.AperFunction,Conductor*%
%ADD16C,0.300000*%
%TD*%
%TA.AperFunction,Conductor*%
%ADD17C,0.200000*%
%TD*%
%TA.AperFunction,Conductor*%
%ADD18C,0.500000*%
%TD*%
G04 APERTURE END LIST*
D10*
%TO.P,J1,15,Pin_15*%
%TO.N,+3V3*%
X101600000Y-74930000D03*
%TO.P,J1,14,Pin_14*%
%TO.N,PA10*%
X104140000Y-74930000D03*
%TO.P,J1,13,Pin_13*%
%TO.N,PA9*%
X106680000Y-74930000D03*
%TO.P,J1,12,Pin_12*%
%TO.N,PA8*%
X109220000Y-74930000D03*
%TO.P,J1,11,Pin_11*%
%TO.N,PB1*%
X111760000Y-74930000D03*
%TO.P,J1,10,Pin_10*%
%TO.N,PB0*%
X114300000Y-74930000D03*
%TO.P,J1,9,Pin_9*%
%TO.N,PA7*%
X116840000Y-74930000D03*
%TO.P,J1,8,Pin_8*%
%TO.N,PA6*%
X119380000Y-74930000D03*
%TO.P,J1,7,Pin_7*%
%TO.N,PA5*%
X121920000Y-74930000D03*
%TO.P,J1,6,Pin_6*%
%TO.N,PA4*%
X124460000Y-74930000D03*
%TO.P,J1,5,Pin_5*%
%TO.N,PA3*%
X127000000Y-74930000D03*
%TO.P,J1,4,Pin_4*%
%TO.N,PA2*%
X129540000Y-74930000D03*
%TO.P,J1,3,Pin_3*%
%TO.N,PA1*%
X132080000Y-74930000D03*
%TO.P,J1,2,Pin_2*%
%TO.N,PA0*%
X134620000Y-74930000D03*
D11*
%TO.P,J1,1,Pin_1*%
%TO.N,GND*%
X137160000Y-74930000D03*
%TD*%
D12*
%TO.P,J3,13,Shield_1*%
%TO.N,GND*%
X95756199Y-79500000D03*
%TO.P,J3,14,Shield_2*%
X95756199Y-88140000D03*
D13*
%TO.P,J3,15,Shield_3*%
X99756200Y-79500000D03*
%TO.P,J3,16,Shield_4*%
X99756200Y-88140000D03*
%TD*%
D10*
%TO.P,J2,15,Pin_15*%
%TO.N,+3V3*%
X101600000Y-92710000D03*
%TO.P,J2,14,Pin_14*%
%TO.N,PA13{slash}SWDIO*%
X104140000Y-92710000D03*
%TO.P,J2,13,Pin_13*%
%TO.N,PA14{slash}SWCLK*%
X106680000Y-92710000D03*
%TO.P,J2,12,Pin_12*%
%TO.N,GND*%
X109220000Y-92710000D03*
%TO.P,J2,11,Pin_11*%
%TO.N,PB4*%
X111760000Y-92710000D03*
%TO.P,J2,10,Pin_10*%
%TO.N,PB3*%
X114300000Y-92710000D03*
%TO.P,J2,9,Pin_9*%
%TO.N,PA15*%
X116840000Y-92710000D03*
%TO.P,J2,8,Pin_8*%
%TO.N,PB5*%
X119380000Y-92710000D03*
%TO.P,J2,7,Pin_7*%
%TO.N,PB6*%
X121920000Y-92710000D03*
%TO.P,J2,6,Pin_6*%
%TO.N,PB7*%
X124460000Y-92710000D03*
%TO.P,J2,5,Pin_5*%
%TO.N,BOOT0*%
X127000000Y-92710000D03*
%TO.P,J2,4,Pin_4*%
%TO.N,PC14*%
X129540000Y-92710000D03*
%TO.P,J2,3,Pin_3*%
%TO.N,PC15*%
X132080000Y-92710000D03*
%TO.P,J2,2,Pin_2*%
%TO.N,NRST*%
X134620000Y-92710000D03*
D11*
%TO.P,J2,1,Pin_1*%
%TO.N,GND*%
X137160000Y-92710000D03*
%TD*%
D14*
%TO.N,GND*%
X105283000Y-87884000D03*
X117856000Y-85293200D03*
X98094800Y-74676000D03*
X125730000Y-77749400D03*
%TO.N,PA2*%
X128270000Y-77876400D03*
%TO.N,5V_FILT*%
X135636000Y-77724000D03*
%TO.N,BOOT0*%
X117856000Y-86741000D03*
D15*
%TO.N,5V_FILT*%
X135128000Y-90030300D03*
D14*
%TO.N,+3V3*%
X110947200Y-77165200D03*
%TO.N,PA2*%
X117043200Y-77333000D03*
%TO.N,PA3*%
X115976400Y-78384400D03*
%TO.N,PA6*%
X113893600Y-76962000D03*
%TO.N,PA1*%
X118394983Y-77333000D03*
%TO.N,GND*%
X119888000Y-77333000D03*
D15*
%TO.N,+3V3*%
X104546400Y-77165200D03*
D14*
X102021000Y-80391000D03*
%TO.N,GND*%
X106172000Y-78486000D03*
X106172000Y-79629000D03*
%TO.N,+3V3*%
X121361200Y-79908400D03*
%TO.N,PB5*%
X111113997Y-86360000D03*
%TO.N,NRST*%
X126099997Y-86995000D03*
%TO.N,+BATT*%
X134382000Y-84820000D03*
X124764800Y-86995000D03*
%TO.N,GND*%
X115189000Y-88341200D03*
%TO.N,+3V3*%
X117983000Y-89839800D03*
%TO.N,5V_FILT*%
X128397000Y-84201000D03*
%TO.N,GND*%
X127000000Y-86995000D03*
X128397000Y-90170000D03*
X114579400Y-82448400D03*
X113309400Y-82448400D03*
X113309400Y-81063000D03*
X112090200Y-82448400D03*
X114579400Y-81063000D03*
X112090200Y-81063000D03*
X114579400Y-79756000D03*
X113309400Y-79756000D03*
X112090200Y-79756000D03*
X136825000Y-81026000D03*
X135382000Y-81026000D03*
X121920000Y-84089000D03*
%TO.N,PC15*%
X123063000Y-83820000D03*
%TO.N,PC14*%
X117326380Y-82147380D03*
%TO.N,GND*%
X110617000Y-78359000D03*
X115824000Y-83693000D03*
%TO.N,+3V3*%
X116967000Y-83693000D03*
%TO.N,PB7*%
X113538000Y-85344000D03*
%TO.N,PB6*%
X112014000Y-86360000D03*
%TO.N,PB3*%
X109982000Y-84328000D03*
%TO.N,PA15*%
X110744000Y-83693000D03*
%TO.N,PA10*%
X108005040Y-82203931D03*
%TO.N,PA9*%
X108444574Y-81389624D03*
%TO.N,PA8*%
X108427621Y-80489781D03*
%TO.N,GND*%
X130302000Y-87884000D03*
X132334000Y-87884000D03*
X132334000Y-86741000D03*
X130302000Y-86741000D03*
X136652000Y-87122000D03*
%TO.N,/VIN*%
X110540800Y-88798400D03*
X106807000Y-82270600D03*
%TO.N,GND*%
X105791000Y-86360000D03*
D15*
%TO.N,5V_FILT*%
X105410000Y-89916000D03*
D14*
%TO.N,/VBUS*%
X97967800Y-83820000D03*
X104089200Y-83820000D03*
%TO.N,GND*%
X95808800Y-91363800D03*
X99060000Y-86868000D03*
X104775000Y-86487000D03*
X106299000Y-83820000D03*
X99060000Y-80772000D03*
%TO.N,PB4*%
X109572575Y-85129481D03*
%TO.N,PA14{slash}SWCLK*%
X107971575Y-85111575D03*
%TO.N,PA13{slash}SWDIO*%
X106934000Y-85090000D03*
%TD*%
D16*
%TO.N,+BATT*%
X124764800Y-86563200D02*
X124764800Y-86995000D01*
D17*
%TO.N,PA2*%
X126542800Y-77876400D02*
X128270000Y-77876400D01*
%TO.N,PA1*%
X129937000Y-77073000D02*
X121068654Y-77073000D01*
X132080000Y-74930000D02*
X129937000Y-77073000D01*
D18*
%TO.N,5V_FILT*%
X134581000Y-78779000D02*
X135636000Y-77724000D01*
D17*
%TO.N,BOOT0*%
X117856000Y-86741000D02*
X121897146Y-86741000D01*
X125072146Y-89916000D02*
X121908573Y-86752427D01*
%TO.N,PA2*%
X125984000Y-78435200D02*
X126542800Y-77876400D01*
X118145400Y-78435200D02*
X125984000Y-78435200D01*
X117043200Y-77333000D02*
X118145400Y-78435200D01*
%TO.N,PA1*%
X120157654Y-77984000D02*
X119045983Y-77984000D01*
X121068654Y-77073000D02*
X120157654Y-77984000D01*
X119045983Y-77984000D02*
X118394983Y-77333000D01*
%TO.N,PA3*%
X115976400Y-76860400D02*
X116337400Y-76499400D01*
X115976400Y-78384400D02*
X115976400Y-76860400D01*
X116337400Y-76499400D02*
X125430600Y-76499400D01*
X125430600Y-76499400D02*
X127000000Y-74930000D01*
%TO.N,PA6*%
X114757200Y-76098400D02*
X118211600Y-76098400D01*
X118211600Y-76098400D02*
X119380000Y-74930000D01*
X113893600Y-76962000D02*
X114757200Y-76098400D01*
%TO.N,PA10*%
X107345800Y-78135800D02*
X104140000Y-74930000D01*
X107345800Y-81544691D02*
X107345800Y-78135800D01*
X108005040Y-82203931D02*
X107345800Y-81544691D01*
%TO.N,PA9*%
X106680000Y-76809600D02*
X106680000Y-74930000D01*
X107746800Y-80729614D02*
X107746800Y-77876400D01*
X108406810Y-81389624D02*
X107746800Y-80729614D01*
X108444574Y-81389624D02*
X108406810Y-81389624D01*
X107746800Y-77876400D02*
X106680000Y-76809600D01*
%TO.N,PA8*%
X109220000Y-79697402D02*
X109220000Y-74930000D01*
X108427621Y-80489781D02*
X109220000Y-79697402D01*
%TO.N,PA13{slash}SWDIO*%
X106934000Y-85090000D02*
X106934000Y-90678000D01*
%TO.N,PB6*%
X115747600Y-90443800D02*
X116382800Y-91079000D01*
X116382800Y-91079000D02*
X121666000Y-91079000D01*
X112877600Y-89041200D02*
X114280200Y-90443800D01*
X114280200Y-90443800D02*
X115747600Y-90443800D01*
X112877600Y-87223600D02*
X112877600Y-89041200D01*
X121920000Y-91333000D02*
X121920000Y-92710000D01*
X112014000Y-86360000D02*
X112877600Y-87223600D01*
X121666000Y-91079000D02*
X121920000Y-91333000D01*
%TO.N,PB5*%
X118150000Y-91480000D02*
X119380000Y-92710000D01*
X116177100Y-91480000D02*
X118150000Y-91480000D01*
X115634500Y-90937400D02*
X116177100Y-91480000D01*
X114206700Y-90937400D02*
X115634500Y-90937400D01*
X112394800Y-89125500D02*
X114206700Y-90937400D01*
X112394800Y-88002500D02*
X112394800Y-89125500D01*
X111113997Y-86721697D02*
X112394800Y-88002500D01*
X111113997Y-86360000D02*
X111113997Y-86721697D01*
%TO.N,PA15*%
X111993800Y-89291600D02*
X111993800Y-88168600D01*
X111993800Y-88168600D02*
X110891200Y-87066000D01*
X115468400Y-91338400D02*
X116840000Y-92710000D01*
X114040600Y-91338400D02*
X115468400Y-91338400D01*
X111993800Y-89291600D02*
X114040600Y-91338400D01*
X110462997Y-86942597D02*
X110586400Y-87066000D01*
X110586400Y-87066000D02*
X110891200Y-87066000D01*
X110462997Y-86090346D02*
X110462997Y-86942597D01*
X110744000Y-85809343D02*
X110462997Y-86090346D01*
X110744000Y-83693000D02*
X110744000Y-85809343D01*
%TO.N,PB3*%
X111592800Y-90002800D02*
X114300000Y-92710000D01*
X111592800Y-88362646D02*
X111592800Y-90002800D01*
X110976554Y-87746400D02*
X111592800Y-88362646D01*
X110503700Y-87737000D02*
X110513100Y-87746400D01*
X110513100Y-87746400D02*
X110976554Y-87746400D01*
X109973575Y-87545243D02*
X110165332Y-87737000D01*
X110223575Y-85399135D02*
X109973575Y-85649135D01*
X110223575Y-84569575D02*
X110223575Y-85399135D01*
X109973575Y-85649135D02*
X109973575Y-87545243D01*
X110165332Y-87737000D02*
X110503700Y-87737000D01*
X109982000Y-84328000D02*
X110223575Y-84569575D01*
%TO.N,PB4*%
X111191800Y-91125800D02*
X111191800Y-88528746D01*
X111760000Y-91694000D02*
X111191800Y-91125800D01*
X111760000Y-92710000D02*
X111760000Y-91694000D01*
X110810454Y-88147400D02*
X111191800Y-88528746D01*
X110347000Y-88147400D02*
X110810454Y-88147400D01*
X110337600Y-88138000D02*
X110347000Y-88147400D01*
X109999232Y-88138000D02*
X110337600Y-88138000D01*
X109572575Y-87711343D02*
X109999232Y-88138000D01*
X109572575Y-85129481D02*
X109572575Y-87711343D01*
D18*
%TO.N,/VIN*%
X109880400Y-88798400D02*
X108772575Y-87690575D01*
X110540800Y-88798400D02*
X109880400Y-88798400D01*
D17*
%TO.N,PB7*%
X116849400Y-88655400D02*
X113538000Y-85344000D01*
X116849400Y-90179400D02*
X116849400Y-88655400D01*
X123698000Y-90678000D02*
X117348000Y-90678000D01*
X124460000Y-91440000D02*
X123698000Y-90678000D01*
X124460000Y-92710000D02*
X124460000Y-91440000D01*
X117348000Y-90678000D02*
X116849400Y-90179400D01*
%TO.N,BOOT0*%
X126492000Y-89916000D02*
X125072146Y-89916000D01*
X127000000Y-90424000D02*
X126492000Y-89916000D01*
X127000000Y-92710000D02*
X127000000Y-90424000D01*
%TO.N,PC14*%
X117870626Y-82147380D02*
X122662000Y-86938754D01*
X117326380Y-82147380D02*
X117870626Y-82147380D01*
X125196646Y-89473400D02*
X122662000Y-86938754D01*
X128843400Y-89473400D02*
X125196646Y-89473400D01*
X129540000Y-90170000D02*
X128843400Y-89473400D01*
X129540000Y-92710000D02*
X129540000Y-90170000D01*
%TO.N,PC15*%
X123063000Y-86772654D02*
X123063000Y-83820000D01*
X125362746Y-89072400D02*
X123063000Y-86772654D01*
X130982400Y-89072400D02*
X125362746Y-89072400D01*
X132080000Y-92710000D02*
X132080000Y-90170000D01*
X132080000Y-90170000D02*
X130982400Y-89072400D01*
D16*
%TO.N,+BATT*%
X125577600Y-85750400D02*
X124764800Y-86563200D01*
X133451600Y-85750400D02*
X125577600Y-85750400D01*
X134382000Y-84820000D02*
X133451600Y-85750400D01*
D18*
%TO.N,5V_FILT*%
X135183000Y-83549786D02*
X134713786Y-84019000D01*
X135183000Y-81959786D02*
X135183000Y-83549786D01*
X134581000Y-81357786D02*
X134581000Y-78779000D01*
X135183000Y-89975300D02*
X135183000Y-81959786D01*
X135183000Y-81959786D02*
X134581000Y-81357786D01*
X135128000Y-90030300D02*
X135183000Y-89975300D01*
X135183000Y-84488214D02*
X134713786Y-84019000D01*
X128579000Y-84019000D02*
X128397000Y-84201000D01*
X135183000Y-89975300D02*
X135183000Y-84488214D01*
X134713786Y-84019000D02*
X128579000Y-84019000D01*
D17*
%TO.N,NRST*%
X127755746Y-88671400D02*
X126099997Y-87015651D01*
X133553200Y-89509600D02*
X132715000Y-88671400D01*
X126099997Y-87015651D02*
X126099997Y-86995000D01*
X133553200Y-91643200D02*
X133553200Y-89509600D01*
X134620000Y-92710000D02*
X133553200Y-91643200D01*
X132715000Y-88671400D02*
X127755746Y-88671400D01*
D18*
%TO.N,/VIN*%
X106715614Y-82270600D02*
X106807000Y-82270600D01*
%TO.N,/VBUS*%
X104089200Y-83820000D02*
X97967800Y-83820000D01*
%TO.N,/VIN*%
X108772575Y-87690575D02*
X108772575Y-84236175D01*
X108772575Y-84236175D02*
X106807000Y-82270600D01*
D17*
%TO.N,PA13{slash}SWDIO*%
X105791000Y-91059000D02*
X104140000Y-92710000D01*
%TO.N,PA14{slash}SWCLK*%
X107971575Y-85111575D02*
X107971575Y-91418425D01*
X107971575Y-91418425D02*
X106680000Y-92710000D01*
%TO.N,PA13{slash}SWDIO*%
X106934000Y-90678000D02*
X106553000Y-91059000D01*
X106553000Y-91059000D02*
X105791000Y-91059000D01*
%TD*%
%TA.AperFunction,Conductor*%
%TO.N,+3V3*%
G36*
X97944326Y-73979407D02*
G01*
X97980290Y-74028907D01*
X97980290Y-74090093D01*
X97944326Y-74139593D01*
X97911759Y-74155126D01*
X97882315Y-74163015D01*
X97882311Y-74163017D01*
X97756789Y-74235487D01*
X97654287Y-74337989D01*
X97581817Y-74463510D01*
X97557798Y-74553149D01*
X97544300Y-74603525D01*
X97544300Y-74748475D01*
X97556887Y-74795449D01*
X97581817Y-74888489D01*
X97654287Y-75014010D01*
X97654289Y-75014012D01*
X97654291Y-75014015D01*
X97756785Y-75116509D01*
X97756787Y-75116510D01*
X97756789Y-75116512D01*
X97882311Y-75188982D01*
X97882312Y-75188982D01*
X97882315Y-75188984D01*
X98022325Y-75226500D01*
X98022326Y-75226500D01*
X98167274Y-75226500D01*
X98167275Y-75226500D01*
X98307285Y-75188984D01*
X98307287Y-75188982D01*
X98307289Y-75188982D01*
X98432810Y-75116512D01*
X98432810Y-75116511D01*
X98432815Y-75116509D01*
X98535309Y-75014015D01*
X98535312Y-75014010D01*
X98607782Y-74888489D01*
X98607782Y-74888487D01*
X98607784Y-74888485D01*
X98645300Y-74748475D01*
X98645300Y-74603525D01*
X98607784Y-74463515D01*
X98607782Y-74463512D01*
X98607782Y-74463510D01*
X98535312Y-74337989D01*
X98535310Y-74337987D01*
X98535309Y-74337985D01*
X98432815Y-74235491D01*
X98432812Y-74235489D01*
X98432810Y-74235487D01*
X98307288Y-74163017D01*
X98307284Y-74163015D01*
X98277841Y-74155126D01*
X98226527Y-74121802D01*
X98204601Y-74064681D01*
X98220437Y-74005580D01*
X98267987Y-73967075D01*
X98303465Y-73960500D01*
X100441393Y-73960500D01*
X100499584Y-73979407D01*
X100535548Y-74028907D01*
X100535548Y-74090093D01*
X100521486Y-74117691D01*
X100445375Y-74222447D01*
X100348904Y-74411784D01*
X100283240Y-74613878D01*
X100250000Y-74823749D01*
X100250000Y-75036250D01*
X100283240Y-75246121D01*
X100348904Y-75448215D01*
X100445376Y-75637553D01*
X100445380Y-75637559D01*
X100484728Y-75691716D01*
X100484729Y-75691716D01*
X101117037Y-75059407D01*
X101134075Y-75122993D01*
X101199901Y-75237007D01*
X101292993Y-75330099D01*
X101407007Y-75395925D01*
X101470589Y-75412962D01*
X100838282Y-76045269D01*
X100838282Y-76045270D01*
X100892440Y-76084619D01*
X100892446Y-76084623D01*
X101081784Y-76181095D01*
X101283878Y-76246759D01*
X101493750Y-76280000D01*
X101706250Y-76280000D01*
X101916121Y-76246759D01*
X102118215Y-76181095D01*
X102307556Y-76084620D01*
X102361716Y-76045270D01*
X101729408Y-75412962D01*
X101792993Y-75395925D01*
X101907007Y-75330099D01*
X102000099Y-75237007D01*
X102065925Y-75122993D01*
X102082962Y-75059408D01*
X102715270Y-75691716D01*
X102754620Y-75637556D01*
X102851095Y-75448215D01*
X102916759Y-75246121D01*
X102925359Y-75191823D01*
X102953136Y-75137307D01*
X103007653Y-75109529D01*
X103068085Y-75119100D01*
X103111349Y-75162365D01*
X103120237Y-75187995D01*
X103120999Y-75191823D01*
X103129869Y-75236418D01*
X103209058Y-75427597D01*
X103249906Y-75488731D01*
X103324023Y-75599655D01*
X103470345Y-75745977D01*
X103642402Y-75860941D01*
X103833580Y-75940130D01*
X104036535Y-75980500D01*
X104036536Y-75980500D01*
X104243464Y-75980500D01*
X104243465Y-75980500D01*
X104446420Y-75940130D01*
X104582405Y-75883802D01*
X104643399Y-75879002D01*
X104690292Y-75905263D01*
X107016304Y-78231275D01*
X107044081Y-78285792D01*
X107045300Y-78301279D01*
X107045300Y-81584253D01*
X107050085Y-81602109D01*
X107052962Y-81612847D01*
X107049759Y-81673948D01*
X107011254Y-81721498D01*
X106952154Y-81737334D01*
X106931712Y-81734097D01*
X106927462Y-81732958D01*
X106879475Y-81720100D01*
X106734525Y-81720100D01*
X106682288Y-81734097D01*
X106594510Y-81757617D01*
X106468989Y-81830087D01*
X106366487Y-81932589D01*
X106294017Y-82058110D01*
X106274365Y-82131453D01*
X106256500Y-82198125D01*
X106256500Y-82343075D01*
X106269557Y-82391805D01*
X106294017Y-82483089D01*
X106366487Y-82608610D01*
X106366489Y-82608612D01*
X106366491Y-82608615D01*
X106468985Y-82711109D01*
X106468987Y-82711110D01*
X106468989Y-82711112D01*
X106594511Y-82783582D01*
X106594509Y-82783582D01*
X106594513Y-82783583D01*
X106594515Y-82783584D01*
X106689602Y-82809062D01*
X106733981Y-82834684D01*
X108293079Y-84393782D01*
X108296705Y-84400899D01*
X108303168Y-84405595D01*
X108310331Y-84427643D01*
X108320856Y-84448299D01*
X108322075Y-84463786D01*
X108322075Y-84507594D01*
X108303168Y-84565785D01*
X108253668Y-84601749D01*
X108192482Y-84601749D01*
X108185199Y-84599062D01*
X108184067Y-84598593D01*
X108178861Y-84597198D01*
X108044050Y-84561075D01*
X107899100Y-84561075D01*
X107848069Y-84574749D01*
X107759085Y-84598592D01*
X107633564Y-84671062D01*
X107633559Y-84671066D01*
X107530939Y-84773686D01*
X107476423Y-84801463D01*
X107415991Y-84791891D01*
X107378961Y-84756748D01*
X107378460Y-84757134D01*
X107376027Y-84753964D01*
X107375195Y-84753174D01*
X107374511Y-84751989D01*
X107374509Y-84751985D01*
X107272015Y-84649491D01*
X107272012Y-84649489D01*
X107272010Y-84649487D01*
X107146488Y-84577017D01*
X107146489Y-84577017D01*
X107044347Y-84549648D01*
X107006475Y-84539500D01*
X106861525Y-84539500D01*
X106823653Y-84549648D01*
X106721510Y-84577017D01*
X106595989Y-84649487D01*
X106493487Y-84751989D01*
X106421017Y-84877510D01*
X106383500Y-85017525D01*
X106383500Y-85162474D01*
X106421017Y-85302489D01*
X106493487Y-85428010D01*
X106493489Y-85428012D01*
X106493491Y-85428015D01*
X106595985Y-85530509D01*
X106595987Y-85530510D01*
X106600574Y-85535097D01*
X106599380Y-85536290D01*
X106629420Y-85579989D01*
X106633500Y-85608116D01*
X106633500Y-90512521D01*
X106614593Y-90570712D01*
X106604504Y-90582525D01*
X106457525Y-90729504D01*
X106403008Y-90757281D01*
X106387521Y-90758500D01*
X106150718Y-90758500D01*
X106092527Y-90739593D01*
X106056563Y-90690093D01*
X106056563Y-90628907D01*
X106080714Y-90589496D01*
X106103931Y-90566279D01*
X106148302Y-90521908D01*
X106231109Y-90397979D01*
X106252318Y-90366238D01*
X106252319Y-90366234D01*
X106252322Y-90366231D01*
X106323973Y-90193251D01*
X106360500Y-90009616D01*
X106360500Y-89822384D01*
X106323973Y-89638749D01*
X106252322Y-89465769D01*
X106252320Y-89465767D01*
X106252318Y-89465761D01*
X106190269Y-89372900D01*
X106148302Y-89310092D01*
X106015908Y-89177698D01*
X105960842Y-89140904D01*
X105860238Y-89073681D01*
X105860229Y-89073677D01*
X105687249Y-89002026D01*
X105503618Y-88965500D01*
X105503616Y-88965500D01*
X105316384Y-88965500D01*
X105316381Y-88965500D01*
X105132750Y-89002026D01*
X104959770Y-89073677D01*
X104959761Y-89073681D01*
X104804092Y-89177698D01*
X104804088Y-89177701D01*
X104671701Y-89310088D01*
X104671698Y-89310092D01*
X104567681Y-89465761D01*
X104567677Y-89465770D01*
X104496026Y-89638750D01*
X104459500Y-89822381D01*
X104459500Y-90009618D01*
X104496026Y-90193249D01*
X104567677Y-90366229D01*
X104567681Y-90366238D01*
X104615325Y-90437540D01*
X104671698Y-90521908D01*
X104804092Y-90654302D01*
X104847015Y-90682982D01*
X104959761Y-90758318D01*
X104959767Y-90758320D01*
X104959769Y-90758322D01*
X105132749Y-90829973D01*
X105316384Y-90866500D01*
X105316385Y-90866500D01*
X105319520Y-90866500D01*
X105320882Y-90866942D01*
X105321220Y-90866976D01*
X105321212Y-90867049D01*
X105377711Y-90885407D01*
X105413675Y-90934907D01*
X105413675Y-90996093D01*
X105389524Y-91035504D01*
X104690291Y-91734736D01*
X104635774Y-91762513D01*
X104582402Y-91756196D01*
X104446420Y-91699870D01*
X104446418Y-91699869D01*
X104243467Y-91659500D01*
X104243465Y-91659500D01*
X104036535Y-91659500D01*
X104036532Y-91659500D01*
X103833581Y-91699869D01*
X103642402Y-91779058D01*
X103470348Y-91894020D01*
X103324020Y-92040348D01*
X103209058Y-92212402D01*
X103129869Y-92403581D01*
X103120238Y-92452003D01*
X103090341Y-92505387D01*
X103034776Y-92531003D01*
X102974766Y-92519066D01*
X102933234Y-92474136D01*
X102925359Y-92448176D01*
X102916759Y-92393878D01*
X102851095Y-92191784D01*
X102754623Y-92002446D01*
X102754619Y-92002440D01*
X102715270Y-91948282D01*
X102715269Y-91948282D01*
X102082962Y-92580590D01*
X102065925Y-92517007D01*
X102000099Y-92402993D01*
X101907007Y-92309901D01*
X101792993Y-92244075D01*
X101729407Y-92227037D01*
X102361716Y-91594729D01*
X102361716Y-91594728D01*
X102307559Y-91555380D01*
X102307553Y-91555376D01*
X102118215Y-91458904D01*
X101916121Y-91393240D01*
X101706250Y-91360000D01*
X101493750Y-91360000D01*
X101283878Y-91393240D01*
X101081784Y-91458904D01*
X100892446Y-91555376D01*
X100892442Y-91555378D01*
X100838282Y-91594728D01*
X101470591Y-92227037D01*
X101407007Y-92244075D01*
X101292993Y-92309901D01*
X101199901Y-92402993D01*
X101134075Y-92517007D01*
X101117037Y-92580591D01*
X100484728Y-91948282D01*
X100445378Y-92002442D01*
X100445376Y-92002446D01*
X100348904Y-92191784D01*
X100283240Y-92393878D01*
X100250000Y-92603749D01*
X100250000Y-92816250D01*
X100283240Y-93026121D01*
X100348904Y-93228215D01*
X100445375Y-93417552D01*
X100521486Y-93522309D01*
X100540393Y-93580500D01*
X100521486Y-93638691D01*
X100471985Y-93674655D01*
X100441393Y-93679500D01*
X96982773Y-93679500D01*
X96977222Y-93679344D01*
X96683302Y-93662837D01*
X96672270Y-93661594D01*
X96384790Y-93612750D01*
X96373966Y-93610280D01*
X96093752Y-93529551D01*
X96083273Y-93525884D01*
X95813865Y-93414291D01*
X95803863Y-93409474D01*
X95548645Y-93268421D01*
X95539244Y-93262514D01*
X95301424Y-93093771D01*
X95292745Y-93086850D01*
X95103025Y-92917307D01*
X95075302Y-92892532D01*
X95067467Y-92884697D01*
X94911349Y-92710000D01*
X94873149Y-92667254D01*
X94866228Y-92658575D01*
X94697485Y-92420755D01*
X94691578Y-92411354D01*
X94687281Y-92403580D01*
X94552499Y-92159708D01*
X94550525Y-92156136D01*
X94545708Y-92146134D01*
X94441280Y-91894023D01*
X94434113Y-91876722D01*
X94430448Y-91866247D01*
X94349715Y-91586018D01*
X94347252Y-91575224D01*
X94299016Y-91291325D01*
X95258300Y-91291325D01*
X95258300Y-91436275D01*
X95265283Y-91462336D01*
X95295817Y-91576289D01*
X95368287Y-91701810D01*
X95368289Y-91701812D01*
X95368291Y-91701815D01*
X95470785Y-91804309D01*
X95470787Y-91804310D01*
X95470789Y-91804312D01*
X95596311Y-91876782D01*
X95596312Y-91876782D01*
X95596315Y-91876784D01*
X95736325Y-91914300D01*
X95736326Y-91914300D01*
X95881274Y-91914300D01*
X95881275Y-91914300D01*
X96021285Y-91876784D01*
X96021287Y-91876782D01*
X96021289Y-91876782D01*
X96146810Y-91804312D01*
X96146810Y-91804311D01*
X96146815Y-91804309D01*
X96249309Y-91701815D01*
X96251112Y-91698692D01*
X96317931Y-91582960D01*
X96321782Y-91576289D01*
X96321782Y-91576287D01*
X96321784Y-91576285D01*
X96359300Y-91436275D01*
X96359300Y-91291325D01*
X96321784Y-91151315D01*
X96321782Y-91151312D01*
X96321782Y-91151310D01*
X96249312Y-91025789D01*
X96249310Y-91025787D01*
X96249309Y-91025785D01*
X96146815Y-90923291D01*
X96146812Y-90923289D01*
X96146810Y-90923287D01*
X96021288Y-90850817D01*
X96021289Y-90850817D01*
X95987910Y-90841873D01*
X95881275Y-90813300D01*
X95736325Y-90813300D01*
X95674590Y-90829841D01*
X95596310Y-90850817D01*
X95470789Y-90923287D01*
X95368287Y-91025789D01*
X95295817Y-91151310D01*
X95271573Y-91241789D01*
X95258300Y-91291325D01*
X94299016Y-91291325D01*
X94298404Y-91287724D01*
X94297162Y-91276697D01*
X94295298Y-91243511D01*
X94280656Y-90982777D01*
X94280500Y-90977226D01*
X94280500Y-88076391D01*
X94500799Y-88076391D01*
X94500799Y-88203608D01*
X94525615Y-88328371D01*
X94574297Y-88445900D01*
X94644970Y-88551670D01*
X94644973Y-88551674D01*
X94734925Y-88641626D01*
X94840698Y-88712301D01*
X94958226Y-88760983D01*
X95082993Y-88785800D01*
X95082995Y-88785800D01*
X96429403Y-88785800D01*
X96429405Y-88785800D01*
X96554172Y-88760983D01*
X96671700Y-88712301D01*
X96777473Y-88641626D01*
X96867425Y-88551674D01*
X96938100Y-88445901D01*
X96986782Y-88328373D01*
X97011599Y-88203606D01*
X97011599Y-88076394D01*
X96986782Y-87951627D01*
X96938100Y-87834099D01*
X96867425Y-87728326D01*
X96777473Y-87638374D01*
X96777469Y-87638371D01*
X96671699Y-87567698D01*
X96554170Y-87519016D01*
X96429407Y-87494200D01*
X96429405Y-87494200D01*
X95082993Y-87494200D01*
X95082990Y-87494200D01*
X94958227Y-87519016D01*
X94840698Y-87567698D01*
X94734928Y-87638371D01*
X94644970Y-87728329D01*
X94574297Y-87834099D01*
X94525615Y-87951628D01*
X94500799Y-88076391D01*
X94280500Y-88076391D01*
X94280500Y-86795525D01*
X98509500Y-86795525D01*
X98509500Y-86940475D01*
X98518132Y-86972688D01*
X98547017Y-87080489D01*
X98619487Y-87206010D01*
X98619489Y-87206012D01*
X98619491Y-87206015D01*
X98721985Y-87308509D01*
X98721987Y-87308510D01*
X98721989Y-87308512D01*
X98847511Y-87380982D01*
X98847512Y-87380982D01*
X98847515Y-87380984D01*
X98976089Y-87415435D01*
X99027403Y-87448760D01*
X99049329Y-87505881D01*
X99033493Y-87564982D01*
X99005467Y-87593377D01*
X98938130Y-87638370D01*
X98848171Y-87728329D01*
X98777498Y-87834099D01*
X98728816Y-87951628D01*
X98704000Y-88076391D01*
X98704000Y-88203608D01*
X98728816Y-88328371D01*
X98777498Y-88445900D01*
X98848171Y-88551670D01*
X98848174Y-88551674D01*
X98938126Y-88641626D01*
X99043899Y-88712301D01*
X99161427Y-88760983D01*
X99286194Y-88785800D01*
X99286196Y-88785800D01*
X100226204Y-88785800D01*
X100226206Y-88785800D01*
X100350973Y-88760983D01*
X100468501Y-88712301D01*
X100574274Y-88641626D01*
X100664226Y-88551674D01*
X100734901Y-88445901D01*
X100783583Y-88328373D01*
X100808400Y-88203606D01*
X100808400Y-88076394D01*
X100783583Y-87951627D01*
X100775504Y-87932124D01*
X100738556Y-87842921D01*
X100734902Y-87834100D01*
X100719818Y-87811525D01*
X104732500Y-87811525D01*
X104732500Y-87956474D01*
X104770017Y-88096489D01*
X104842487Y-88222010D01*
X104842489Y-88222012D01*
X104842491Y-88222015D01*
X104944985Y-88324509D01*
X104944987Y-88324510D01*
X104944989Y-88324512D01*
X105070511Y-88396982D01*
X105070512Y-88396982D01*
X105070515Y-88396984D01*
X105210525Y-88434500D01*
X105210526Y-88434500D01*
X105355474Y-88434500D01*
X105355475Y-88434500D01*
X105495485Y-88396984D01*
X105495487Y-88396982D01*
X105495489Y-88396982D01*
X105621010Y-88324512D01*
X105621010Y-88324511D01*
X105621015Y-88324509D01*
X105723509Y-88222015D01*
X105734136Y-88203608D01*
X105795982Y-88096489D01*
X105795982Y-88096487D01*
X105795984Y-88096485D01*
X105833500Y-87956475D01*
X105833500Y-87811525D01*
X105795984Y-87671515D01*
X105795982Y-87671512D01*
X105795982Y-87671510D01*
X105723512Y-87545989D01*
X105723510Y-87545987D01*
X105723509Y-87545985D01*
X105621015Y-87443491D01*
X105621012Y-87443489D01*
X105621010Y-87443487D01*
X105495488Y-87371017D01*
X105495489Y-87371017D01*
X105465896Y-87363087D01*
X105355475Y-87333500D01*
X105210525Y-87333500D01*
X105163797Y-87346021D01*
X105070510Y-87371017D01*
X104944989Y-87443487D01*
X104842487Y-87545989D01*
X104770017Y-87671510D01*
X104732500Y-87811525D01*
X100719818Y-87811525D01*
X100664228Y-87728329D01*
X100664226Y-87728326D01*
X100574274Y-87638374D01*
X100574270Y-87638371D01*
X100468500Y-87567698D01*
X100350971Y-87519016D01*
X100226208Y-87494200D01*
X100226206Y-87494200D01*
X99445862Y-87494200D01*
X99387671Y-87475293D01*
X99351707Y-87425793D01*
X99351707Y-87364607D01*
X99387671Y-87315107D01*
X99396363Y-87309463D01*
X99396736Y-87309247D01*
X99398015Y-87308509D01*
X99500509Y-87206015D01*
X99507172Y-87194474D01*
X99572982Y-87080489D01*
X99572982Y-87080487D01*
X99572984Y-87080485D01*
X99610500Y-86940475D01*
X99610500Y-86795525D01*
X99572984Y-86655515D01*
X99572982Y-86655512D01*
X99572982Y-86655510D01*
X99500512Y-86529989D01*
X99500510Y-86529987D01*
X99500509Y-86529985D01*
X99398015Y-86427491D01*
X99398012Y-86427489D01*
X99398010Y-86427487D01*
X99375559Y-86414525D01*
X104224500Y-86414525D01*
X104224500Y-86559475D01*
X104248270Y-86648183D01*
X104262017Y-86699489D01*
X104334487Y-86825010D01*
X104334489Y-86825012D01*
X104334491Y-86825015D01*
X104436985Y-86927509D01*
X104436987Y-86927510D01*
X104436989Y-86927512D01*
X104562511Y-86999982D01*
X104562512Y-86999982D01*
X104562515Y-86999984D01*
X104702525Y-87037500D01*
X104702526Y-87037500D01*
X104847474Y-87037500D01*
X104847475Y-87037500D01*
X104987485Y-86999984D01*
X104987487Y-86999982D01*
X104987489Y-86999982D01*
X105113010Y-86927512D01*
X105113010Y-86927511D01*
X105113015Y-86927509D01*
X105215509Y-86825015D01*
X105246892Y-86770657D01*
X105292361Y-86729718D01*
X105353211Y-86723322D01*
X105402629Y-86750153D01*
X105452985Y-86800509D01*
X105452987Y-86800510D01*
X105452989Y-86800512D01*
X105578511Y-86872982D01*
X105578512Y-86872982D01*
X105578515Y-86872984D01*
X105718525Y-86910500D01*
X105718526Y-86910500D01*
X105863474Y-86910500D01*
X105863475Y-86910500D01*
X106003485Y-86872984D01*
X106003487Y-86872982D01*
X106003489Y-86872982D01*
X106129010Y-86800512D01*
X106129010Y-86800511D01*
X106129015Y-86800509D01*
X106231509Y-86698015D01*
X106241049Y-86681491D01*
X106303982Y-86572489D01*
X106303982Y-86572487D01*
X106303984Y-86572485D01*
X106341500Y-86432475D01*
X106341500Y-86287525D01*
X106303984Y-86147515D01*
X106303982Y-86147512D01*
X106303982Y-86147510D01*
X106231512Y-86021989D01*
X106231510Y-86021987D01*
X106231509Y-86021985D01*
X106129015Y-85919491D01*
X106129012Y-85919489D01*
X106129010Y-85919487D01*
X106003488Y-85847017D01*
X106003489Y-85847017D01*
X105973896Y-85839087D01*
X105863475Y-85809500D01*
X105718525Y-85809500D01*
X105656790Y-85826041D01*
X105578510Y-85847017D01*
X105452989Y-85919487D01*
X105350490Y-86021986D01*
X105319107Y-86076342D01*
X105273636Y-86117282D01*
X105212786Y-86123676D01*
X105163369Y-86096845D01*
X105113015Y-86046491D01*
X105113012Y-86046489D01*
X105113010Y-86046487D01*
X104987488Y-85974017D01*
X104987489Y-85974017D01*
X104940678Y-85961474D01*
X104847475Y-85936500D01*
X104702525Y-85936500D01*
X104640790Y-85953041D01*
X104562510Y-85974017D01*
X104436989Y-86046487D01*
X104334487Y-86148989D01*
X104262017Y-86274510D01*
X104240445Y-86355017D01*
X104224500Y-86414525D01*
X99375559Y-86414525D01*
X99272488Y-86355017D01*
X99272489Y-86355017D01*
X99242896Y-86347087D01*
X99132475Y-86317500D01*
X98987525Y-86317500D01*
X98925790Y-86334041D01*
X98847510Y-86355017D01*
X98721989Y-86427487D01*
X98619487Y-86529989D01*
X98547017Y-86655510D01*
X98535629Y-86698010D01*
X98509500Y-86795525D01*
X94280500Y-86795525D01*
X94280500Y-83747525D01*
X97417300Y-83747525D01*
X97417300Y-83892474D01*
X97454817Y-84032489D01*
X97527287Y-84158010D01*
X97527289Y-84158012D01*
X97527291Y-84158015D01*
X97629785Y-84260509D01*
X97629787Y-84260510D01*
X97629789Y-84260512D01*
X97755311Y-84332982D01*
X97755312Y-84332982D01*
X97755315Y-84332984D01*
X97895325Y-84370500D01*
X97895326Y-84370500D01*
X98040274Y-84370500D01*
X98040275Y-84370500D01*
X98180285Y-84332984D01*
X98265537Y-84283763D01*
X98315036Y-84270500D01*
X103741964Y-84270500D01*
X103791462Y-84283763D01*
X103876715Y-84332984D01*
X104016725Y-84370500D01*
X104016726Y-84370500D01*
X104161674Y-84370500D01*
X104161675Y-84370500D01*
X104301685Y-84332984D01*
X104301687Y-84332982D01*
X104301689Y-84332982D01*
X104427210Y-84260512D01*
X104427210Y-84260511D01*
X104427215Y-84260509D01*
X104529709Y-84158015D01*
X104546735Y-84128525D01*
X104602182Y-84032489D01*
X104602182Y-84032487D01*
X104602184Y-84032485D01*
X104639700Y-83892475D01*
X104639700Y-83747525D01*
X105748500Y-83747525D01*
X105748500Y-83892474D01*
X105786017Y-84032489D01*
X105858487Y-84158010D01*
X105858489Y-84158012D01*
X105858491Y-84158015D01*
X105960985Y-84260509D01*
X105960987Y-84260510D01*
X105960989Y-84260512D01*
X106086511Y-84332982D01*
X106086512Y-84332982D01*
X106086515Y-84332984D01*
X106226525Y-84370500D01*
X106226526Y-84370500D01*
X106371474Y-84370500D01*
X106371475Y-84370500D01*
X106511485Y-84332984D01*
X106511487Y-84332982D01*
X106511489Y-84332982D01*
X106637010Y-84260512D01*
X106637010Y-84260511D01*
X106637015Y-84260509D01*
X106739509Y-84158015D01*
X106756535Y-84128525D01*
X106811982Y-84032489D01*
X106811982Y-84032487D01*
X106811984Y-84032485D01*
X106849500Y-83892475D01*
X106849500Y-83747525D01*
X106811984Y-83607515D01*
X106811982Y-83607511D01*
X106811982Y-83607510D01*
X106739512Y-83481989D01*
X106739510Y-83481987D01*
X106739509Y-83481985D01*
X106637015Y-83379491D01*
X106637012Y-83379489D01*
X106637010Y-83379487D01*
X106511488Y-83307017D01*
X106511489Y-83307017D01*
X106481896Y-83299087D01*
X106371475Y-83269500D01*
X106226525Y-83269500D01*
X106164790Y-83286041D01*
X106086510Y-83307017D01*
X105960989Y-83379487D01*
X105858487Y-83481989D01*
X105786017Y-83607510D01*
X105748500Y-83747525D01*
X104639700Y-83747525D01*
X104602184Y-83607515D01*
X104602182Y-83607511D01*
X104602182Y-83607510D01*
X104529712Y-83481989D01*
X104529710Y-83481987D01*
X104529709Y-83481985D01*
X104427215Y-83379491D01*
X104427212Y-83379489D01*
X104427210Y-83379487D01*
X104301688Y-83307017D01*
X104301689Y-83307017D01*
X104272096Y-83299087D01*
X104161675Y-83269500D01*
X104016725Y-83269500D01*
X103876715Y-83307016D01*
X103876714Y-83307016D01*
X103876712Y-83307017D01*
X103832490Y-83332549D01*
X103791462Y-83356236D01*
X103741964Y-83369500D01*
X98315036Y-83369500D01*
X98265537Y-83356236D01*
X98180285Y-83307016D01*
X98040275Y-83269500D01*
X97895325Y-83269500D01*
X97833590Y-83286041D01*
X97755310Y-83307017D01*
X97629789Y-83379487D01*
X97527287Y-83481989D01*
X97454817Y-83607510D01*
X97417300Y-83747525D01*
X94280500Y-83747525D01*
X94280500Y-80699525D01*
X98509500Y-80699525D01*
X98509500Y-80844475D01*
X98514748Y-80864060D01*
X98547017Y-80984489D01*
X98619487Y-81110010D01*
X98619489Y-81110012D01*
X98619491Y-81110015D01*
X98721985Y-81212509D01*
X98721987Y-81212510D01*
X98721989Y-81212512D01*
X98847511Y-81284982D01*
X98847512Y-81284982D01*
X98847515Y-81284984D01*
X98987525Y-81322500D01*
X98987526Y-81322500D01*
X99132474Y-81322500D01*
X99132475Y-81322500D01*
X99272485Y-81284984D01*
X99272487Y-81284982D01*
X99272489Y-81284982D01*
X99398010Y-81212512D01*
X99398010Y-81212511D01*
X99398015Y-81212509D01*
X99500509Y-81110015D01*
X99500512Y-81110010D01*
X99572982Y-80984489D01*
X99572982Y-80984487D01*
X99572984Y-80984485D01*
X99610500Y-80844475D01*
X99610500Y-80699525D01*
X99572984Y-80559515D01*
X99572982Y-80559512D01*
X99572982Y-80559510D01*
X99500512Y-80433989D01*
X99500510Y-80433987D01*
X99500509Y-80433985D01*
X99398015Y-80331491D01*
X99398008Y-80331487D01*
X99396363Y-80330537D01*
X99395449Y-80329522D01*
X99392866Y-80327540D01*
X99393233Y-80327061D01*
X99355421Y-80285068D01*
X99349025Y-80224217D01*
X99379618Y-80171229D01*
X99435513Y-80146342D01*
X99445862Y-80145800D01*
X100226204Y-80145800D01*
X100226206Y-80145800D01*
X100350973Y-80120983D01*
X100468501Y-80072301D01*
X100574274Y-80001626D01*
X100664226Y-79911674D01*
X100734901Y-79805901D01*
X100783583Y-79688373D01*
X100808400Y-79563606D01*
X100808400Y-79436394D01*
X100783583Y-79311627D01*
X100734901Y-79194099D01*
X100664226Y-79088326D01*
X100574274Y-78998374D01*
X100574270Y-78998371D01*
X100468500Y-78927698D01*
X100350971Y-78879016D01*
X100226208Y-78854200D01*
X100226206Y-78854200D01*
X99286194Y-78854200D01*
X99286191Y-78854200D01*
X99161428Y-78879016D01*
X99043899Y-78927698D01*
X98938129Y-78998371D01*
X98848171Y-79088329D01*
X98777498Y-79194099D01*
X98728816Y-79311628D01*
X98704000Y-79436391D01*
X98704000Y-79563608D01*
X98728816Y-79688371D01*
X98777498Y-79805900D01*
X98848171Y-79911670D01*
X98848174Y-79911674D01*
X98938126Y-80001626D01*
X98938129Y-80001628D01*
X99005466Y-80046621D01*
X99043346Y-80094671D01*
X99045748Y-80155809D01*
X99011755Y-80206683D01*
X98976089Y-80224563D01*
X98847515Y-80259015D01*
X98847511Y-80259017D01*
X98721989Y-80331487D01*
X98619487Y-80433989D01*
X98547017Y-80559510D01*
X98530141Y-80622491D01*
X98509500Y-80699525D01*
X94280500Y-80699525D01*
X94280500Y-79436391D01*
X94500799Y-79436391D01*
X94500799Y-79563608D01*
X94525615Y-79688371D01*
X94574297Y-79805900D01*
X94644970Y-79911670D01*
X94644973Y-79911674D01*
X94734925Y-80001626D01*
X94840698Y-80072301D01*
X94958226Y-80120983D01*
X95082993Y-80145800D01*
X95082995Y-80145800D01*
X96429403Y-80145800D01*
X96429405Y-80145800D01*
X96554172Y-80120983D01*
X96671700Y-80072301D01*
X96777473Y-80001626D01*
X96867425Y-79911674D01*
X96938100Y-79805901D01*
X96986782Y-79688373D01*
X97011599Y-79563606D01*
X97011599Y-79436394D01*
X96986782Y-79311627D01*
X96938100Y-79194099D01*
X96867425Y-79088326D01*
X96777473Y-78998374D01*
X96777469Y-78998371D01*
X96671699Y-78927698D01*
X96554170Y-78879016D01*
X96429407Y-78854200D01*
X96429405Y-78854200D01*
X95082993Y-78854200D01*
X95082990Y-78854200D01*
X94958227Y-78879016D01*
X94840698Y-78927698D01*
X94734928Y-78998371D01*
X94644970Y-79088329D01*
X94574297Y-79194099D01*
X94525615Y-79311628D01*
X94500799Y-79436391D01*
X94280500Y-79436391D01*
X94280500Y-78413525D01*
X105621500Y-78413525D01*
X105621500Y-78558475D01*
X105633997Y-78605113D01*
X105659017Y-78698489D01*
X105731487Y-78824010D01*
X105731489Y-78824012D01*
X105731491Y-78824015D01*
X105833985Y-78926509D01*
X105833987Y-78926510D01*
X105833989Y-78926512D01*
X105912367Y-78971764D01*
X105953308Y-79017233D01*
X105959704Y-79078084D01*
X105929111Y-79131072D01*
X105912367Y-79143236D01*
X105833989Y-79188487D01*
X105731487Y-79290989D01*
X105659017Y-79416510D01*
X105659016Y-79416515D01*
X105621500Y-79556525D01*
X105621500Y-79701475D01*
X105631010Y-79736966D01*
X105659017Y-79841489D01*
X105731487Y-79967010D01*
X105731489Y-79967012D01*
X105731491Y-79967015D01*
X105833985Y-80069509D01*
X105833987Y-80069510D01*
X105833989Y-80069512D01*
X105959511Y-80141982D01*
X105959512Y-80141982D01*
X105959515Y-80141984D01*
X106099525Y-80179500D01*
X106099526Y-80179500D01*
X106244474Y-80179500D01*
X106244475Y-80179500D01*
X106384485Y-80141984D01*
X106384487Y-80141982D01*
X106384489Y-80141982D01*
X106510010Y-80069512D01*
X106510010Y-80069511D01*
X106510015Y-80069509D01*
X106612509Y-79967015D01*
X106612512Y-79967010D01*
X106684982Y-79841489D01*
X106684982Y-79841487D01*
X106684984Y-79841485D01*
X106722500Y-79701475D01*
X106722500Y-79556525D01*
X106684984Y-79416515D01*
X106684982Y-79416512D01*
X106684982Y-79416510D01*
X106612512Y-79290989D01*
X106612510Y-79290987D01*
X106612509Y-79290985D01*
X106510015Y-79188491D01*
X106431630Y-79143235D01*
X106390691Y-79097767D01*
X106384295Y-79036917D01*
X106414888Y-78983929D01*
X106431631Y-78971764D01*
X106510015Y-78926509D01*
X106612509Y-78824015D01*
X106663498Y-78735700D01*
X106684982Y-78698489D01*
X106684982Y-78698487D01*
X106684984Y-78698485D01*
X106722500Y-78558475D01*
X106722500Y-78413525D01*
X106684984Y-78273515D01*
X106684982Y-78273512D01*
X106684982Y-78273510D01*
X106612512Y-78147989D01*
X106612510Y-78147987D01*
X106612509Y-78147985D01*
X106510015Y-78045491D01*
X106510012Y-78045489D01*
X106510010Y-78045487D01*
X106384488Y-77973017D01*
X106384489Y-77973017D01*
X106342944Y-77961885D01*
X106244475Y-77935500D01*
X106099525Y-77935500D01*
X106037790Y-77952041D01*
X105959510Y-77973017D01*
X105833989Y-78045487D01*
X105731487Y-78147989D01*
X105659017Y-78273510D01*
X105627969Y-78389382D01*
X105621500Y-78413525D01*
X94280500Y-78413525D01*
X94280500Y-76662773D01*
X94280656Y-76657222D01*
X94287885Y-76528493D01*
X94297162Y-76363296D01*
X94298405Y-76352270D01*
X94347253Y-76064771D01*
X94349714Y-76053985D01*
X94430451Y-75773742D01*
X94434111Y-75763283D01*
X94545711Y-75493858D01*
X94550525Y-75483863D01*
X94552499Y-75480292D01*
X94691583Y-75228636D01*
X94697479Y-75219253D01*
X94866230Y-74981421D01*
X94873149Y-74972745D01*
X94911349Y-74929999D01*
X95067475Y-74755293D01*
X95075293Y-74747475D01*
X95292748Y-74553146D01*
X95301424Y-74546228D01*
X95324435Y-74529901D01*
X95539253Y-74377479D01*
X95548636Y-74371583D01*
X95803869Y-74230522D01*
X95813858Y-74225711D01*
X96083283Y-74114111D01*
X96093742Y-74110451D01*
X96373985Y-74029714D01*
X96384771Y-74027253D01*
X96672277Y-73978404D01*
X96683296Y-73977162D01*
X96977222Y-73960655D01*
X96982773Y-73960500D01*
X97027595Y-73960500D01*
X97886135Y-73960500D01*
X97944326Y-73979407D01*
G37*
%TD.AperFunction*%
%TA.AperFunction,Conductor*%
G36*
X111063052Y-73979407D02*
G01*
X111099016Y-74028907D01*
X111099016Y-74090093D01*
X111074866Y-74129501D01*
X110981921Y-74222447D01*
X110944020Y-74260348D01*
X110829058Y-74432402D01*
X110749869Y-74623581D01*
X110709500Y-74826532D01*
X110709500Y-75033467D01*
X110749869Y-75236418D01*
X110829058Y-75427597D01*
X110869906Y-75488731D01*
X110944023Y-75599655D01*
X111090345Y-75745977D01*
X111262402Y-75860941D01*
X111453580Y-75940130D01*
X111656535Y-75980500D01*
X111656536Y-75980500D01*
X111863464Y-75980500D01*
X111863465Y-75980500D01*
X112066420Y-75940130D01*
X112257598Y-75860941D01*
X112429655Y-75745977D01*
X112575977Y-75599655D01*
X112690941Y-75427598D01*
X112770130Y-75236420D01*
X112810500Y-75033465D01*
X112810500Y-74826535D01*
X112770130Y-74623580D01*
X112690941Y-74432402D01*
X112575977Y-74260345D01*
X112445133Y-74129501D01*
X112417358Y-74074987D01*
X112426929Y-74014555D01*
X112470194Y-73971290D01*
X112515139Y-73960500D01*
X113544861Y-73960500D01*
X113603052Y-73979407D01*
X113639016Y-74028907D01*
X113639016Y-74090093D01*
X113614866Y-74129501D01*
X113521921Y-74222447D01*
X113484020Y-74260348D01*
X113369058Y-74432402D01*
X113289869Y-74623581D01*
X113249500Y-74826532D01*
X113249500Y-75033467D01*
X113289869Y-75236418D01*
X113369058Y-75427597D01*
X113409906Y-75488731D01*
X113484023Y-75599655D01*
X113630345Y-75745977D01*
X113802402Y-75860941D01*
X113993580Y-75940130D01*
X114196535Y-75980500D01*
X114196536Y-75980500D01*
X114211120Y-75980500D01*
X114269311Y-75999407D01*
X114305275Y-76048907D01*
X114305275Y-76110093D01*
X114281123Y-76149504D01*
X114047476Y-76383150D01*
X113992960Y-76410927D01*
X113972564Y-76411194D01*
X113972564Y-76411500D01*
X113966075Y-76411500D01*
X113821125Y-76411500D01*
X113759935Y-76427896D01*
X113681110Y-76449017D01*
X113555589Y-76521487D01*
X113453087Y-76623989D01*
X113380617Y-76749510D01*
X113343100Y-76889525D01*
X113343100Y-77034474D01*
X113380617Y-77174489D01*
X113453087Y-77300010D01*
X113453089Y-77300012D01*
X113453091Y-77300015D01*
X113555585Y-77402509D01*
X113555587Y-77402510D01*
X113555589Y-77402512D01*
X113681111Y-77474982D01*
X113681112Y-77474982D01*
X113681115Y-77474984D01*
X113821125Y-77512500D01*
X113821126Y-77512500D01*
X113966074Y-77512500D01*
X113966075Y-77512500D01*
X114106085Y-77474984D01*
X114106087Y-77474982D01*
X114106089Y-77474982D01*
X114231610Y-77402512D01*
X114231610Y-77402511D01*
X114231615Y-77402509D01*
X114334109Y-77300015D01*
X114343649Y-77283491D01*
X114406582Y-77174489D01*
X114406582Y-77174487D01*
X114406584Y-77174485D01*
X114444100Y-77034475D01*
X114444100Y-76889525D01*
X114444100Y-76883036D01*
X114445785Y-76883036D01*
X114455448Y-76830888D01*
X114472446Y-76808123D01*
X114852675Y-76427896D01*
X114907191Y-76400119D01*
X114922678Y-76398900D01*
X115773921Y-76398900D01*
X115832112Y-76417807D01*
X115868076Y-76467307D01*
X115868076Y-76528493D01*
X115843925Y-76567904D01*
X115791889Y-76619940D01*
X115791888Y-76619939D01*
X115735939Y-76675889D01*
X115696380Y-76744407D01*
X115696378Y-76744411D01*
X115675900Y-76820835D01*
X115675900Y-77866282D01*
X115656993Y-77924473D01*
X115642757Y-77939086D01*
X115642973Y-77939302D01*
X115535891Y-78046384D01*
X115535887Y-78046389D01*
X115463417Y-78171910D01*
X115425900Y-78311925D01*
X115425900Y-78456874D01*
X115463417Y-78596889D01*
X115535887Y-78722410D01*
X115535889Y-78722412D01*
X115535891Y-78722415D01*
X115638385Y-78824909D01*
X115638387Y-78824910D01*
X115638389Y-78824912D01*
X115763911Y-78897382D01*
X115763912Y-78897382D01*
X115763915Y-78897384D01*
X115903925Y-78934900D01*
X115903926Y-78934900D01*
X116048874Y-78934900D01*
X116048875Y-78934900D01*
X116188885Y-78897384D01*
X116188887Y-78897382D01*
X116188889Y-78897382D01*
X116314410Y-78824912D01*
X116314410Y-78824911D01*
X116314415Y-78824909D01*
X116416909Y-78722415D01*
X116418482Y-78719691D01*
X116489382Y-78596889D01*
X116489382Y-78596887D01*
X116489384Y-78596885D01*
X116526900Y-78456875D01*
X116526900Y-78311925D01*
X116489384Y-78171915D01*
X116489382Y-78171912D01*
X116489382Y-78171910D01*
X116416912Y-78046389D01*
X116416908Y-78046384D01*
X116309827Y-77939302D01*
X116311017Y-77938111D01*
X116280974Y-77894390D01*
X116276900Y-77866282D01*
X116276900Y-77025879D01*
X116295807Y-76967688D01*
X116305896Y-76955875D01*
X116432875Y-76828896D01*
X116439992Y-76825269D01*
X116444688Y-76818807D01*
X116466736Y-76811643D01*
X116487392Y-76801119D01*
X116502879Y-76799900D01*
X116558769Y-76799900D01*
X116616960Y-76818807D01*
X116652924Y-76868307D01*
X116652924Y-76929493D01*
X116628774Y-76968901D01*
X116612805Y-76984871D01*
X116602688Y-76994988D01*
X116602687Y-76994989D01*
X116530217Y-77120510D01*
X116513864Y-77181540D01*
X116492700Y-77260525D01*
X116492700Y-77405475D01*
X116508285Y-77463639D01*
X116530217Y-77545489D01*
X116602687Y-77671010D01*
X116602689Y-77671012D01*
X116602691Y-77671015D01*
X116705185Y-77773509D01*
X116705187Y-77773510D01*
X116705189Y-77773512D01*
X116830711Y-77845982D01*
X116830712Y-77845982D01*
X116830715Y-77845984D01*
X116970725Y-77883500D01*
X116970726Y-77883500D01*
X117122164Y-77883500D01*
X117122164Y-77885187D01*
X117174303Y-77894845D01*
X117197078Y-77911849D01*
X117904940Y-78619711D01*
X117904939Y-78619711D01*
X117960889Y-78675660D01*
X118029407Y-78715219D01*
X118029411Y-78715221D01*
X118105835Y-78735699D01*
X118105837Y-78735700D01*
X118105838Y-78735700D01*
X126023563Y-78735700D01*
X126023563Y-78735699D01*
X126099989Y-78715221D01*
X126168511Y-78675660D01*
X126224460Y-78619711D01*
X126638275Y-78205896D01*
X126692792Y-78178119D01*
X126708279Y-78176900D01*
X127751884Y-78176900D01*
X127810075Y-78195807D01*
X127824686Y-78210042D01*
X127824903Y-78209826D01*
X127829489Y-78214412D01*
X127829491Y-78214415D01*
X127931985Y-78316909D01*
X127931987Y-78316910D01*
X127931989Y-78316912D01*
X128057511Y-78389382D01*
X128057512Y-78389382D01*
X128057515Y-78389384D01*
X128197525Y-78426900D01*
X128197526Y-78426900D01*
X128342474Y-78426900D01*
X128342475Y-78426900D01*
X128482485Y-78389384D01*
X128482487Y-78389382D01*
X128482489Y-78389382D01*
X128608010Y-78316912D01*
X128608010Y-78316911D01*
X128608015Y-78316909D01*
X128710509Y-78214415D01*
X128713034Y-78210042D01*
X128782982Y-78088889D01*
X128782982Y-78088887D01*
X128782984Y-78088885D01*
X128820500Y-77948875D01*
X128820500Y-77803925D01*
X128782984Y-77663915D01*
X128782982Y-77663912D01*
X128782982Y-77663910D01*
X128710512Y-77538389D01*
X128706560Y-77533239D01*
X128708965Y-77531392D01*
X128686850Y-77487987D01*
X128696421Y-77427555D01*
X128739686Y-77384290D01*
X128784631Y-77373500D01*
X129976563Y-77373500D01*
X129976563Y-77373499D01*
X130052989Y-77353021D01*
X130121511Y-77313460D01*
X130177460Y-77257511D01*
X131529708Y-75905261D01*
X131584223Y-75877486D01*
X131637595Y-75883802D01*
X131773580Y-75940130D01*
X131976535Y-75980500D01*
X131976536Y-75980500D01*
X132183464Y-75980500D01*
X132183465Y-75980500D01*
X132386420Y-75940130D01*
X132577598Y-75860941D01*
X132749655Y-75745977D01*
X132895977Y-75599655D01*
X133010941Y-75427598D01*
X133090130Y-75236420D01*
X133130500Y-75033465D01*
X133130500Y-74826535D01*
X133090130Y-74623580D01*
X133010941Y-74432402D01*
X132895977Y-74260345D01*
X132765133Y-74129501D01*
X132737358Y-74074987D01*
X132746929Y-74014555D01*
X132790194Y-73971290D01*
X132835139Y-73960500D01*
X133864861Y-73960500D01*
X133923052Y-73979407D01*
X133959016Y-74028907D01*
X133959016Y-74090093D01*
X133934866Y-74129501D01*
X133841921Y-74222447D01*
X133804020Y-74260348D01*
X133689058Y-74432402D01*
X133609869Y-74623581D01*
X133569500Y-74826532D01*
X133569500Y-75033467D01*
X133609869Y-75236418D01*
X133689058Y-75427597D01*
X133729906Y-75488731D01*
X133804023Y-75599655D01*
X133950345Y-75745977D01*
X134122402Y-75860941D01*
X134313580Y-75940130D01*
X134516535Y-75980500D01*
X134516536Y-75980500D01*
X134723464Y-75980500D01*
X134723465Y-75980500D01*
X134926420Y-75940130D01*
X135117598Y-75860941D01*
X135289655Y-75745977D01*
X135435977Y-75599655D01*
X135550941Y-75427598D01*
X135630130Y-75236420D01*
X135670500Y-75033465D01*
X135670500Y-74826535D01*
X135630130Y-74623580D01*
X135550941Y-74432402D01*
X135435977Y-74260345D01*
X135305133Y-74129501D01*
X135277358Y-74074987D01*
X135286929Y-74014555D01*
X135330194Y-73971290D01*
X135375139Y-73960500D01*
X136010500Y-73960500D01*
X136068691Y-73979407D01*
X136104655Y-74028907D01*
X136109500Y-74059500D01*
X136109500Y-75799746D01*
X136109501Y-75799758D01*
X136121132Y-75858227D01*
X136121134Y-75858233D01*
X136122944Y-75860942D01*
X136165448Y-75924552D01*
X136231769Y-75968867D01*
X136276231Y-75977711D01*
X136290241Y-75980498D01*
X136290246Y-75980498D01*
X136290252Y-75980500D01*
X136290253Y-75980500D01*
X138029747Y-75980500D01*
X138029748Y-75980500D01*
X138088231Y-75968867D01*
X138154552Y-75924552D01*
X138198867Y-75858231D01*
X138210500Y-75799748D01*
X138210500Y-74060252D01*
X138210500Y-74059500D01*
X138229407Y-74001309D01*
X138278907Y-73965345D01*
X138309500Y-73960500D01*
X141732405Y-73960500D01*
X141777227Y-73960500D01*
X141782777Y-73960655D01*
X142076701Y-73977162D01*
X142087724Y-73978404D01*
X142375224Y-74027252D01*
X142386018Y-74029715D01*
X142666251Y-74110449D01*
X142676722Y-74114113D01*
X142794780Y-74163015D01*
X142946134Y-74225708D01*
X142956136Y-74230525D01*
X143010092Y-74260345D01*
X143150571Y-74337985D01*
X143211354Y-74371578D01*
X143220755Y-74377485D01*
X143458575Y-74546228D01*
X143467254Y-74553149D01*
X143545410Y-74622993D01*
X143684697Y-74747467D01*
X143692532Y-74755302D01*
X143753700Y-74823749D01*
X143886850Y-74972745D01*
X143893771Y-74981424D01*
X144062514Y-75219244D01*
X144068421Y-75228645D01*
X144209474Y-75483863D01*
X144214291Y-75493865D01*
X144325884Y-75763273D01*
X144329551Y-75773752D01*
X144367439Y-75905263D01*
X144408822Y-76048907D01*
X144410280Y-76053966D01*
X144412750Y-76064790D01*
X144461594Y-76352270D01*
X144462837Y-76363302D01*
X144479344Y-76657222D01*
X144479500Y-76662773D01*
X144479500Y-90977226D01*
X144479344Y-90982777D01*
X144462837Y-91276697D01*
X144461594Y-91287729D01*
X144412750Y-91575209D01*
X144410280Y-91586033D01*
X144329551Y-91866247D01*
X144325884Y-91876726D01*
X144214291Y-92146134D01*
X144209474Y-92156136D01*
X144068421Y-92411354D01*
X144062514Y-92420755D01*
X143893771Y-92658575D01*
X143886850Y-92667254D01*
X143692540Y-92884689D01*
X143684689Y-92892540D01*
X143467254Y-93086850D01*
X143458575Y-93093771D01*
X143220755Y-93262514D01*
X143211354Y-93268421D01*
X142956136Y-93409474D01*
X142946134Y-93414291D01*
X142676726Y-93525884D01*
X142666247Y-93529551D01*
X142386033Y-93610280D01*
X142375209Y-93612750D01*
X142087729Y-93661594D01*
X142076697Y-93662837D01*
X141782778Y-93679344D01*
X141777227Y-93679500D01*
X138309500Y-93679500D01*
X138251309Y-93660593D01*
X138215345Y-93611093D01*
X138210500Y-93580500D01*
X138210500Y-91840253D01*
X138210498Y-91840241D01*
X138202375Y-91799407D01*
X138198867Y-91781769D01*
X138154552Y-91715448D01*
X138154548Y-91715445D01*
X138088233Y-91671134D01*
X138088231Y-91671133D01*
X138088228Y-91671132D01*
X138088227Y-91671132D01*
X138029758Y-91659501D01*
X138029748Y-91659500D01*
X136290252Y-91659500D01*
X136290251Y-91659500D01*
X136290241Y-91659501D01*
X136231772Y-91671132D01*
X136231766Y-91671134D01*
X136165451Y-91715445D01*
X136165445Y-91715451D01*
X136121134Y-91781766D01*
X136121132Y-91781772D01*
X136109501Y-91840241D01*
X136109500Y-91840253D01*
X136109500Y-93580500D01*
X136090593Y-93638691D01*
X136041093Y-93674655D01*
X136010500Y-93679500D01*
X135375139Y-93679500D01*
X135316948Y-93660593D01*
X135280984Y-93611093D01*
X135280984Y-93549907D01*
X135305133Y-93510498D01*
X135435977Y-93379655D01*
X135550941Y-93207598D01*
X135630130Y-93016420D01*
X135670500Y-92813465D01*
X135670500Y-92606535D01*
X135630130Y-92403580D01*
X135550941Y-92212402D01*
X135435977Y-92040345D01*
X135289655Y-91894023D01*
X135289651Y-91894020D01*
X135117597Y-91779058D01*
X134926418Y-91699869D01*
X134723467Y-91659500D01*
X134723465Y-91659500D01*
X134516535Y-91659500D01*
X134516532Y-91659500D01*
X134313580Y-91699870D01*
X134313578Y-91699870D01*
X134177596Y-91756196D01*
X134116600Y-91760997D01*
X134069707Y-91734736D01*
X133882696Y-91547725D01*
X133854919Y-91493208D01*
X133853700Y-91477721D01*
X133853700Y-89470037D01*
X133853699Y-89470035D01*
X133833221Y-89393611D01*
X133833219Y-89393607D01*
X133793660Y-89325089D01*
X133737711Y-89269139D01*
X133737711Y-89269140D01*
X132899511Y-88430940D01*
X132889557Y-88425193D01*
X132830989Y-88391379D01*
X132808987Y-88385483D01*
X132800161Y-88381109D01*
X132784987Y-88366268D01*
X132767185Y-88354707D01*
X132763589Y-88345340D01*
X132756419Y-88338327D01*
X132752866Y-88317402D01*
X132745260Y-88297586D01*
X132747856Y-88287896D01*
X132746177Y-88278005D01*
X132755603Y-88258985D01*
X132761097Y-88238485D01*
X132773127Y-88223629D01*
X132773348Y-88223184D01*
X132773591Y-88223056D01*
X132774118Y-88222405D01*
X132774509Y-88222015D01*
X132831930Y-88122559D01*
X132846982Y-88096489D01*
X132846982Y-88096487D01*
X132846984Y-88096485D01*
X132884500Y-87956475D01*
X132884500Y-87811525D01*
X132846984Y-87671515D01*
X132846982Y-87671512D01*
X132846982Y-87671510D01*
X132774512Y-87545989D01*
X132774510Y-87545987D01*
X132774509Y-87545985D01*
X132672015Y-87443491D01*
X132593630Y-87398235D01*
X132552691Y-87352767D01*
X132546295Y-87291917D01*
X132576888Y-87238929D01*
X132593631Y-87226764D01*
X132672015Y-87181509D01*
X132774509Y-87079015D01*
X132776470Y-87075619D01*
X132846982Y-86953489D01*
X132846982Y-86953487D01*
X132846984Y-86953485D01*
X132884500Y-86813475D01*
X132884500Y-86668525D01*
X132846984Y-86528515D01*
X132846982Y-86528512D01*
X132846982Y-86528510D01*
X132774512Y-86402989D01*
X132774510Y-86402987D01*
X132774509Y-86402985D01*
X132672015Y-86300491D01*
X132672012Y-86300489D01*
X132672010Y-86300487D01*
X132646287Y-86285636D01*
X132605346Y-86240166D01*
X132598950Y-86179316D01*
X132629543Y-86126328D01*
X132685439Y-86101442D01*
X132695787Y-86100900D01*
X133497742Y-86100900D01*
X133497744Y-86100900D01*
X133586888Y-86077014D01*
X133617223Y-86059500D01*
X133666812Y-86030870D01*
X134298185Y-85399495D01*
X134352702Y-85371719D01*
X134368189Y-85370500D01*
X134454474Y-85370500D01*
X134454475Y-85370500D01*
X134594485Y-85332984D01*
X134594487Y-85332982D01*
X134594489Y-85332982D01*
X134595613Y-85332517D01*
X134596481Y-85332448D01*
X134600753Y-85331304D01*
X134600965Y-85332095D01*
X134656609Y-85327715D01*
X134708779Y-85359683D01*
X134732195Y-85416211D01*
X134732500Y-85423980D01*
X134732500Y-89099384D01*
X134713593Y-89157575D01*
X134681808Y-89185269D01*
X134681813Y-89185276D01*
X134681765Y-89185307D01*
X134680185Y-89186685D01*
X134677777Y-89187972D01*
X134522092Y-89291998D01*
X134522088Y-89292001D01*
X134389701Y-89424388D01*
X134389698Y-89424392D01*
X134285681Y-89580061D01*
X134285677Y-89580070D01*
X134214026Y-89753050D01*
X134177500Y-89936681D01*
X134177500Y-90123918D01*
X134214026Y-90307549D01*
X134285677Y-90480529D01*
X134285681Y-90480538D01*
X134353828Y-90582525D01*
X134389698Y-90636208D01*
X134522092Y-90768602D01*
X134588463Y-90812949D01*
X134677761Y-90872618D01*
X134677767Y-90872620D01*
X134677769Y-90872622D01*
X134850749Y-90944273D01*
X135034384Y-90980800D01*
X135034385Y-90980800D01*
X135221615Y-90980800D01*
X135221616Y-90980800D01*
X135405251Y-90944273D01*
X135578231Y-90872622D01*
X135578234Y-90872619D01*
X135578238Y-90872618D01*
X135624250Y-90841873D01*
X135733908Y-90768602D01*
X135866302Y-90636208D01*
X135942675Y-90521908D01*
X135970318Y-90480538D01*
X135970319Y-90480534D01*
X135970322Y-90480531D01*
X136041973Y-90307551D01*
X136078500Y-90123916D01*
X136078500Y-89936684D01*
X136041973Y-89753049D01*
X135970322Y-89580069D01*
X135970320Y-89580067D01*
X135970318Y-89580061D01*
X135908394Y-89487387D01*
X135866302Y-89424392D01*
X135733908Y-89291998D01*
X135733907Y-89291997D01*
X135677498Y-89254305D01*
X135639619Y-89206255D01*
X135633500Y-89171990D01*
X135633500Y-87049525D01*
X136101500Y-87049525D01*
X136101500Y-87194475D01*
X136127498Y-87291500D01*
X136139017Y-87334489D01*
X136211487Y-87460010D01*
X136211489Y-87460012D01*
X136211491Y-87460015D01*
X136313985Y-87562509D01*
X136313987Y-87562510D01*
X136313989Y-87562512D01*
X136439511Y-87634982D01*
X136439512Y-87634982D01*
X136439515Y-87634984D01*
X136579525Y-87672500D01*
X136579526Y-87672500D01*
X136724474Y-87672500D01*
X136724475Y-87672500D01*
X136864485Y-87634984D01*
X136864487Y-87634982D01*
X136864489Y-87634982D01*
X136990010Y-87562512D01*
X136990010Y-87562511D01*
X136990015Y-87562509D01*
X137092509Y-87460015D01*
X137102050Y-87443490D01*
X137164982Y-87334489D01*
X137164982Y-87334487D01*
X137164984Y-87334485D01*
X137202500Y-87194475D01*
X137202500Y-87049525D01*
X137164984Y-86909515D01*
X137164982Y-86909512D01*
X137164982Y-86909510D01*
X137092512Y-86783989D01*
X137092510Y-86783987D01*
X137092509Y-86783985D01*
X136990015Y-86681491D01*
X136990012Y-86681489D01*
X136990010Y-86681487D01*
X136864488Y-86609017D01*
X136864489Y-86609017D01*
X136751681Y-86578790D01*
X136724475Y-86571500D01*
X136579525Y-86571500D01*
X136552319Y-86578790D01*
X136439510Y-86609017D01*
X136313989Y-86681487D01*
X136211487Y-86783989D01*
X136139017Y-86909510D01*
X136119288Y-86983139D01*
X136101500Y-87049525D01*
X135633500Y-87049525D01*
X135633500Y-81900478D01*
X135624625Y-81867357D01*
X135602799Y-81785900D01*
X135597998Y-81777585D01*
X135569162Y-81727639D01*
X135542594Y-81681620D01*
X135529873Y-81621772D01*
X135554760Y-81565876D01*
X135590450Y-81540655D01*
X135594478Y-81538985D01*
X135594485Y-81538984D01*
X135720015Y-81466509D01*
X135822509Y-81364015D01*
X135849567Y-81317149D01*
X135894982Y-81238489D01*
X135894982Y-81238487D01*
X135894984Y-81238485D01*
X135932500Y-81098475D01*
X135932500Y-80953525D01*
X136274500Y-80953525D01*
X136274500Y-81098474D01*
X136312017Y-81238489D01*
X136384487Y-81364010D01*
X136384489Y-81364012D01*
X136384491Y-81364015D01*
X136486985Y-81466509D01*
X136486987Y-81466510D01*
X136486989Y-81466512D01*
X136612511Y-81538982D01*
X136612512Y-81538982D01*
X136612515Y-81538984D01*
X136752525Y-81576500D01*
X136752526Y-81576500D01*
X136897474Y-81576500D01*
X136897475Y-81576500D01*
X137037485Y-81538984D01*
X137037487Y-81538982D01*
X137037489Y-81538982D01*
X137163010Y-81466512D01*
X137163010Y-81466511D01*
X137163015Y-81466509D01*
X137265509Y-81364015D01*
X137292567Y-81317149D01*
X137337982Y-81238489D01*
X137337982Y-81238487D01*
X137337984Y-81238485D01*
X137375500Y-81098475D01*
X137375500Y-80953525D01*
X137337984Y-80813515D01*
X137337982Y-80813512D01*
X137337982Y-80813510D01*
X137265512Y-80687989D01*
X137265510Y-80687987D01*
X137265509Y-80687985D01*
X137163015Y-80585491D01*
X137163012Y-80585489D01*
X137163010Y-80585487D01*
X137037488Y-80513017D01*
X137037489Y-80513017D01*
X137007896Y-80505087D01*
X136897475Y-80475500D01*
X136752525Y-80475500D01*
X136690790Y-80492041D01*
X136612510Y-80513017D01*
X136486989Y-80585487D01*
X136384487Y-80687989D01*
X136312017Y-80813510D01*
X136274500Y-80953525D01*
X135932500Y-80953525D01*
X135894984Y-80813515D01*
X135894982Y-80813512D01*
X135894982Y-80813510D01*
X135822512Y-80687989D01*
X135822510Y-80687987D01*
X135822509Y-80687985D01*
X135720015Y-80585491D01*
X135720012Y-80585489D01*
X135720010Y-80585487D01*
X135594488Y-80513017D01*
X135594489Y-80513017D01*
X135564896Y-80505087D01*
X135454475Y-80475500D01*
X135309525Y-80475500D01*
X135218366Y-80499926D01*
X135169507Y-80513018D01*
X135168376Y-80513487D01*
X135167502Y-80513555D01*
X135163247Y-80514696D01*
X135163035Y-80513906D01*
X135107379Y-80518281D01*
X135055213Y-80486307D01*
X135031804Y-80429776D01*
X135031500Y-80422019D01*
X135031500Y-79006610D01*
X135050407Y-78948419D01*
X135060490Y-78936612D01*
X135709018Y-78288083D01*
X135753395Y-78262462D01*
X135848485Y-78236984D01*
X135848487Y-78236982D01*
X135848489Y-78236982D01*
X135974010Y-78164512D01*
X135974010Y-78164511D01*
X135974015Y-78164509D01*
X136076509Y-78062015D01*
X136086049Y-78045491D01*
X136148982Y-77936489D01*
X136148982Y-77936487D01*
X136148984Y-77936485D01*
X136186500Y-77796475D01*
X136186500Y-77651525D01*
X136148984Y-77511515D01*
X136148982Y-77511511D01*
X136148982Y-77511510D01*
X136076512Y-77385989D01*
X136076510Y-77385987D01*
X136076509Y-77385985D01*
X135974015Y-77283491D01*
X135974012Y-77283489D01*
X135974010Y-77283487D01*
X135848488Y-77211017D01*
X135848489Y-77211017D01*
X135738480Y-77181540D01*
X135708475Y-77173500D01*
X135563525Y-77173500D01*
X135533520Y-77181540D01*
X135423510Y-77211017D01*
X135297989Y-77283487D01*
X135195487Y-77385989D01*
X135123017Y-77511511D01*
X135123015Y-77511515D01*
X135097537Y-77606600D01*
X135071915Y-77650979D01*
X134220511Y-78502385D01*
X134220507Y-78502390D01*
X134161200Y-78605112D01*
X134161200Y-78605113D01*
X134161201Y-78605114D01*
X134131699Y-78715219D01*
X134130500Y-78719692D01*
X134130500Y-81417097D01*
X134143740Y-81466506D01*
X134143740Y-81466508D01*
X134143741Y-81466508D01*
X134143741Y-81466509D01*
X134161201Y-81531673D01*
X134161202Y-81531675D01*
X134161203Y-81531678D01*
X134220507Y-81634395D01*
X134220509Y-81634397D01*
X134220511Y-81634400D01*
X134703505Y-82117394D01*
X134731281Y-82171909D01*
X134732500Y-82187396D01*
X134732500Y-83322175D01*
X134713593Y-83380366D01*
X134703504Y-83392178D01*
X134556180Y-83539503D01*
X134501663Y-83567281D01*
X134486176Y-83568500D01*
X128519691Y-83568500D01*
X128491641Y-83576016D01*
X128429325Y-83592713D01*
X128429324Y-83592712D01*
X128405115Y-83599200D01*
X128405111Y-83599201D01*
X128320389Y-83648115D01*
X128296514Y-83658004D01*
X128184517Y-83688014D01*
X128184511Y-83688017D01*
X128058989Y-83760487D01*
X127956487Y-83862989D01*
X127884017Y-83988510D01*
X127872629Y-84031010D01*
X127846500Y-84128525D01*
X127846500Y-84273475D01*
X127859561Y-84322217D01*
X127884017Y-84413489D01*
X127956487Y-84539010D01*
X127956489Y-84539012D01*
X127956491Y-84539015D01*
X128058985Y-84641509D01*
X128058987Y-84641510D01*
X128058989Y-84641512D01*
X128184511Y-84713982D01*
X128184512Y-84713982D01*
X128184515Y-84713984D01*
X128324525Y-84751500D01*
X128324526Y-84751500D01*
X128469474Y-84751500D01*
X128469475Y-84751500D01*
X128609485Y-84713984D01*
X128609487Y-84713982D01*
X128609489Y-84713982D01*
X128735010Y-84641512D01*
X128735010Y-84641511D01*
X128735015Y-84641509D01*
X128837509Y-84539015D01*
X128849064Y-84519000D01*
X128894533Y-84478059D01*
X128934801Y-84469500D01*
X133778020Y-84469500D01*
X133836211Y-84488407D01*
X133872175Y-84537907D01*
X133872175Y-84599093D01*
X133869483Y-84606387D01*
X133869017Y-84607510D01*
X133831500Y-84747525D01*
X133831500Y-84833810D01*
X133812593Y-84892001D01*
X133802504Y-84903814D01*
X133335414Y-85370904D01*
X133280897Y-85398681D01*
X133265410Y-85399900D01*
X125623744Y-85399900D01*
X125531456Y-85399900D01*
X125442312Y-85423786D01*
X125362388Y-85469930D01*
X124484330Y-86347988D01*
X124472896Y-86367793D01*
X124462127Y-86386445D01*
X124438187Y-86427909D01*
X124438186Y-86427911D01*
X124438186Y-86427912D01*
X124427062Y-86469430D01*
X124414300Y-86517057D01*
X124414300Y-86525968D01*
X124395393Y-86584159D01*
X124385304Y-86595971D01*
X124324291Y-86656984D01*
X124324287Y-86656989D01*
X124251817Y-86782510D01*
X124240428Y-86825015D01*
X124214300Y-86922525D01*
X124214300Y-87067475D01*
X124225055Y-87107611D01*
X124251817Y-87207489D01*
X124318747Y-87323414D01*
X124318748Y-87323415D01*
X124324291Y-87333015D01*
X124426785Y-87435509D01*
X124436384Y-87441051D01*
X124552311Y-87507982D01*
X124552312Y-87507982D01*
X124552315Y-87507984D01*
X124692325Y-87545500D01*
X124692326Y-87545500D01*
X124837274Y-87545500D01*
X124837275Y-87545500D01*
X124977285Y-87507984D01*
X124977287Y-87507982D01*
X124977289Y-87507982D01*
X125102810Y-87435512D01*
X125102810Y-87435511D01*
X125102815Y-87435509D01*
X125205309Y-87333015D01*
X125259630Y-87238929D01*
X125277782Y-87207489D01*
X125277782Y-87207487D01*
X125277784Y-87207485D01*
X125315300Y-87067475D01*
X125315300Y-86922525D01*
X125277784Y-86782515D01*
X125229158Y-86698293D01*
X125216437Y-86638446D01*
X125241323Y-86582551D01*
X125244892Y-86578790D01*
X125693787Y-86129896D01*
X125748303Y-86102119D01*
X125763790Y-86100900D01*
X129940213Y-86100900D01*
X129998404Y-86119807D01*
X130034368Y-86169307D01*
X130034368Y-86230493D01*
X129998404Y-86279993D01*
X129989713Y-86285636D01*
X129963989Y-86300487D01*
X129861487Y-86402989D01*
X129789017Y-86528510D01*
X129751500Y-86668525D01*
X129751500Y-86813474D01*
X129789017Y-86953489D01*
X129861487Y-87079010D01*
X129861489Y-87079012D01*
X129861491Y-87079015D01*
X129963985Y-87181509D01*
X129963987Y-87181510D01*
X129963989Y-87181512D01*
X130042367Y-87226764D01*
X130083308Y-87272233D01*
X130089704Y-87333084D01*
X130059111Y-87386072D01*
X130042367Y-87398236D01*
X129963989Y-87443487D01*
X129861487Y-87545989D01*
X129789017Y-87671510D01*
X129751500Y-87811525D01*
X129751500Y-87956474D01*
X129789017Y-88096489D01*
X129861713Y-88222400D01*
X129874435Y-88282248D01*
X129849549Y-88338144D01*
X129796561Y-88368737D01*
X129775977Y-88370900D01*
X127921225Y-88370900D01*
X127863034Y-88351993D01*
X127851221Y-88341904D01*
X127179237Y-87669920D01*
X127151460Y-87615403D01*
X127161031Y-87554971D01*
X127204296Y-87511706D01*
X127211358Y-87508451D01*
X127212479Y-87507985D01*
X127212485Y-87507984D01*
X127338015Y-87435509D01*
X127440509Y-87333015D01*
X127494830Y-87238929D01*
X127512982Y-87207489D01*
X127512982Y-87207487D01*
X127512984Y-87207485D01*
X127550500Y-87067475D01*
X127550500Y-86922525D01*
X127512984Y-86782515D01*
X127512982Y-86782512D01*
X127512982Y-86782510D01*
X127440512Y-86656989D01*
X127440510Y-86656987D01*
X127440509Y-86656985D01*
X127338015Y-86554491D01*
X127338012Y-86554489D01*
X127338010Y-86554487D01*
X127212488Y-86482017D01*
X127212489Y-86482017D01*
X127127936Y-86459361D01*
X127072475Y-86444500D01*
X126927525Y-86444500D01*
X126872064Y-86459361D01*
X126787510Y-86482017D01*
X126661989Y-86554487D01*
X126661983Y-86554491D01*
X126620001Y-86596474D01*
X126565484Y-86624251D01*
X126505052Y-86614679D01*
X126479997Y-86596476D01*
X126438012Y-86554491D01*
X126438009Y-86554489D01*
X126438007Y-86554487D01*
X126312485Y-86482017D01*
X126312486Y-86482017D01*
X126227933Y-86459361D01*
X126172472Y-86444500D01*
X126027522Y-86444500D01*
X125972061Y-86459361D01*
X125887507Y-86482017D01*
X125761986Y-86554487D01*
X125659484Y-86656989D01*
X125587014Y-86782510D01*
X125575625Y-86825015D01*
X125549497Y-86922525D01*
X125549497Y-87067475D01*
X125560252Y-87107611D01*
X125587014Y-87207489D01*
X125659484Y-87333010D01*
X125659486Y-87333012D01*
X125659488Y-87333015D01*
X125761982Y-87435509D01*
X125761984Y-87435510D01*
X125761986Y-87435512D01*
X125887508Y-87507982D01*
X125887509Y-87507982D01*
X125887512Y-87507984D01*
X126027522Y-87545500D01*
X126027523Y-87545500D01*
X126163867Y-87545500D01*
X126222058Y-87564407D01*
X126233871Y-87574496D01*
X127262271Y-88602896D01*
X127290048Y-88657413D01*
X127280477Y-88717845D01*
X127237212Y-88761110D01*
X127192267Y-88771900D01*
X125528225Y-88771900D01*
X125470034Y-88752993D01*
X125458221Y-88742904D01*
X123392496Y-86677179D01*
X123364719Y-86622662D01*
X123363500Y-86607175D01*
X123363500Y-84338116D01*
X123382407Y-84279925D01*
X123396642Y-84265313D01*
X123396426Y-84265097D01*
X123401012Y-84260510D01*
X123401015Y-84260509D01*
X123503509Y-84158015D01*
X123520535Y-84128525D01*
X123575982Y-84032489D01*
X123575982Y-84032487D01*
X123575984Y-84032485D01*
X123613500Y-83892475D01*
X123613500Y-83747525D01*
X123575984Y-83607515D01*
X123575982Y-83607511D01*
X123575982Y-83607510D01*
X123503512Y-83481989D01*
X123503510Y-83481987D01*
X123503509Y-83481985D01*
X123401015Y-83379491D01*
X123401012Y-83379489D01*
X123401010Y-83379487D01*
X123275488Y-83307017D01*
X123275489Y-83307017D01*
X123245896Y-83299087D01*
X123135475Y-83269500D01*
X122990525Y-83269500D01*
X122928790Y-83286041D01*
X122850510Y-83307017D01*
X122724989Y-83379487D01*
X122622487Y-83481989D01*
X122550017Y-83607511D01*
X122550015Y-83607515D01*
X122524029Y-83704496D01*
X122490705Y-83755810D01*
X122433584Y-83777736D01*
X122374483Y-83761900D01*
X122358404Y-83748880D01*
X122258015Y-83648491D01*
X122258012Y-83648489D01*
X122258010Y-83648487D01*
X122132488Y-83576017D01*
X122132489Y-83576017D01*
X122099886Y-83567281D01*
X121992475Y-83538500D01*
X121847525Y-83538500D01*
X121785790Y-83555041D01*
X121707510Y-83576017D01*
X121581989Y-83648487D01*
X121479487Y-83750989D01*
X121407017Y-83876510D01*
X121384763Y-83959563D01*
X121369500Y-84016525D01*
X121369500Y-84161475D01*
X121399087Y-84271896D01*
X121407017Y-84301489D01*
X121479487Y-84427010D01*
X121479489Y-84427012D01*
X121479491Y-84427015D01*
X121581985Y-84529509D01*
X121581987Y-84529510D01*
X121581989Y-84529512D01*
X121707511Y-84601982D01*
X121707512Y-84601982D01*
X121707515Y-84601984D01*
X121847525Y-84639500D01*
X121847526Y-84639500D01*
X121992474Y-84639500D01*
X121992475Y-84639500D01*
X122132485Y-84601984D01*
X122132487Y-84601982D01*
X122132489Y-84601982D01*
X122258010Y-84529512D01*
X122258010Y-84529511D01*
X122258015Y-84529509D01*
X122360509Y-84427015D01*
X122414799Y-84332982D01*
X122432982Y-84301489D01*
X122432982Y-84301487D01*
X122432984Y-84301485D01*
X122458971Y-84204500D01*
X122464618Y-84195804D01*
X122466198Y-84185554D01*
X122480911Y-84170715D01*
X122492293Y-84153190D01*
X122501975Y-84149473D01*
X122509279Y-84142108D01*
X122529906Y-84138751D01*
X122549414Y-84131263D01*
X122559431Y-84133947D01*
X122569670Y-84132281D01*
X122588123Y-84141634D01*
X122608515Y-84147098D01*
X122624304Y-84159829D01*
X122624423Y-84159947D01*
X122724985Y-84260509D01*
X122727024Y-84261686D01*
X122733208Y-84267818D01*
X122744475Y-84289704D01*
X122758420Y-84309989D01*
X122759793Y-84319455D01*
X122761215Y-84322217D01*
X122760688Y-84325631D01*
X122762500Y-84338116D01*
X122762500Y-86375275D01*
X122743593Y-86433466D01*
X122694093Y-86469430D01*
X122632907Y-86469430D01*
X122593496Y-86445279D01*
X120325083Y-84176866D01*
X118055137Y-81906920D01*
X118055134Y-81906918D01*
X118039513Y-81897899D01*
X118039513Y-81897898D01*
X117986616Y-81867359D01*
X117986611Y-81867357D01*
X117910190Y-81846880D01*
X117910188Y-81846880D01*
X117844496Y-81846880D01*
X117786305Y-81827973D01*
X117771693Y-81813737D01*
X117771477Y-81813954D01*
X117766890Y-81809367D01*
X117766889Y-81809365D01*
X117664395Y-81706871D01*
X117664392Y-81706869D01*
X117664390Y-81706867D01*
X117538868Y-81634397D01*
X117538869Y-81634397D01*
X117458444Y-81612847D01*
X117398855Y-81596880D01*
X117253905Y-81596880D01*
X117194316Y-81612847D01*
X117113890Y-81634397D01*
X116988369Y-81706867D01*
X116885867Y-81809369D01*
X116813397Y-81934890D01*
X116780380Y-82058110D01*
X116775880Y-82074905D01*
X116775880Y-82219855D01*
X116781173Y-82239609D01*
X116813397Y-82359869D01*
X116885867Y-82485390D01*
X116885869Y-82485392D01*
X116885871Y-82485395D01*
X116988365Y-82587889D01*
X116988367Y-82587890D01*
X116988369Y-82587892D01*
X117113891Y-82660362D01*
X117113892Y-82660362D01*
X117113895Y-82660364D01*
X117253905Y-82697880D01*
X117253906Y-82697880D01*
X117398854Y-82697880D01*
X117398855Y-82697880D01*
X117538865Y-82660364D01*
X117538867Y-82660362D01*
X117538869Y-82660362D01*
X117664390Y-82587892D01*
X117664390Y-82587891D01*
X117664395Y-82587889D01*
X117705277Y-82547006D01*
X117759792Y-82519231D01*
X117820224Y-82528802D01*
X117845283Y-82547008D01*
X121569771Y-86271496D01*
X121597548Y-86326013D01*
X121587977Y-86386445D01*
X121544712Y-86429710D01*
X121499767Y-86440500D01*
X118374116Y-86440500D01*
X118315925Y-86421593D01*
X118301313Y-86407357D01*
X118301097Y-86407574D01*
X118296510Y-86402987D01*
X118296509Y-86402985D01*
X118194015Y-86300491D01*
X118194012Y-86300489D01*
X118194010Y-86300487D01*
X118068488Y-86228017D01*
X118068489Y-86228017D01*
X117981958Y-86204831D01*
X117928475Y-86190500D01*
X117783525Y-86190500D01*
X117730042Y-86204831D01*
X117643510Y-86228017D01*
X117517989Y-86300487D01*
X117415487Y-86402989D01*
X117343017Y-86528510D01*
X117305500Y-86668525D01*
X117305500Y-86813474D01*
X117343017Y-86953489D01*
X117415487Y-87079010D01*
X117415489Y-87079012D01*
X117415491Y-87079015D01*
X117517985Y-87181509D01*
X117517987Y-87181510D01*
X117517989Y-87181512D01*
X117643511Y-87253982D01*
X117643512Y-87253982D01*
X117643515Y-87253984D01*
X117783525Y-87291500D01*
X117783526Y-87291500D01*
X117928474Y-87291500D01*
X117928475Y-87291500D01*
X118068485Y-87253984D01*
X118068487Y-87253982D01*
X118068489Y-87253982D01*
X118194010Y-87181512D01*
X118194010Y-87181511D01*
X118194015Y-87181509D01*
X118296509Y-87079015D01*
X118296510Y-87079012D01*
X118301097Y-87074426D01*
X118302290Y-87075619D01*
X118345989Y-87045580D01*
X118374116Y-87041500D01*
X121731667Y-87041500D01*
X121789858Y-87060407D01*
X121801671Y-87070496D01*
X124831686Y-90100511D01*
X124831685Y-90100511D01*
X124887635Y-90156460D01*
X124956153Y-90196019D01*
X124956157Y-90196021D01*
X125032581Y-90216499D01*
X125032583Y-90216500D01*
X125032584Y-90216500D01*
X126326521Y-90216500D01*
X126384712Y-90235407D01*
X126396525Y-90245496D01*
X126670504Y-90519475D01*
X126698281Y-90573992D01*
X126699500Y-90589479D01*
X126699500Y-91631267D01*
X126680593Y-91689458D01*
X126638387Y-91722731D01*
X126502401Y-91779059D01*
X126330348Y-91894020D01*
X126184020Y-92040348D01*
X126069058Y-92212402D01*
X125989869Y-92403581D01*
X125949500Y-92606532D01*
X125949500Y-92813467D01*
X125989869Y-93016418D01*
X126069058Y-93207597D01*
X126109699Y-93268421D01*
X126184023Y-93379655D01*
X126314866Y-93510498D01*
X126342642Y-93565013D01*
X126333071Y-93625445D01*
X126289806Y-93668710D01*
X126244861Y-93679500D01*
X125215139Y-93679500D01*
X125156948Y-93660593D01*
X125120984Y-93611093D01*
X125120984Y-93549907D01*
X125145133Y-93510498D01*
X125275977Y-93379655D01*
X125390941Y-93207598D01*
X125470130Y-93016420D01*
X125510500Y-92813465D01*
X125510500Y-92606535D01*
X125470130Y-92403580D01*
X125390941Y-92212402D01*
X125275977Y-92040345D01*
X125129655Y-91894023D01*
X125129649Y-91894019D01*
X124957598Y-91779059D01*
X124821613Y-91722731D01*
X124775088Y-91682994D01*
X124760500Y-91631267D01*
X124760500Y-91400439D01*
X124760499Y-91400435D01*
X124754719Y-91378862D01*
X124754719Y-91378863D01*
X124740022Y-91324012D01*
X124740020Y-91324009D01*
X124740020Y-91324007D01*
X124700463Y-91255493D01*
X124700461Y-91255491D01*
X124700460Y-91255489D01*
X123882511Y-90437540D01*
X123882508Y-90437538D01*
X123813992Y-90397980D01*
X123813988Y-90397978D01*
X123737564Y-90377500D01*
X123737562Y-90377500D01*
X117513479Y-90377500D01*
X117455288Y-90358593D01*
X117443475Y-90348504D01*
X117178896Y-90083925D01*
X117151119Y-90029408D01*
X117149900Y-90013921D01*
X117149900Y-88615839D01*
X117133246Y-88553685D01*
X117129422Y-88539412D01*
X117129420Y-88539409D01*
X117129420Y-88539407D01*
X117089863Y-88470893D01*
X117089862Y-88470892D01*
X117089861Y-88470891D01*
X117089860Y-88470889D01*
X114116849Y-85497878D01*
X114089072Y-85443361D01*
X114088806Y-85422964D01*
X114088500Y-85422964D01*
X114088500Y-85271525D01*
X114080015Y-85239859D01*
X114080015Y-85239856D01*
X114074889Y-85220725D01*
X117305500Y-85220725D01*
X117305500Y-85365675D01*
X117322203Y-85428010D01*
X117343017Y-85505689D01*
X117415487Y-85631210D01*
X117415489Y-85631212D01*
X117415491Y-85631215D01*
X117517985Y-85733709D01*
X117517987Y-85733710D01*
X117517989Y-85733712D01*
X117643511Y-85806182D01*
X117643512Y-85806182D01*
X117643515Y-85806184D01*
X117783525Y-85843700D01*
X117783526Y-85843700D01*
X117928474Y-85843700D01*
X117928475Y-85843700D01*
X118068485Y-85806184D01*
X118068487Y-85806182D01*
X118068489Y-85806182D01*
X118194010Y-85733712D01*
X118194010Y-85733711D01*
X118194015Y-85733709D01*
X118296509Y-85631215D01*
X118319353Y-85591649D01*
X118368982Y-85505689D01*
X118368982Y-85505687D01*
X118368984Y-85505685D01*
X118406500Y-85365675D01*
X118406500Y-85220725D01*
X118368984Y-85080715D01*
X118368982Y-85080712D01*
X118368982Y-85080710D01*
X118296512Y-84955189D01*
X118296510Y-84955187D01*
X118296509Y-84955185D01*
X118194015Y-84852691D01*
X118194012Y-84852689D01*
X118194010Y-84852687D01*
X118068488Y-84780217D01*
X118068489Y-84780217D01*
X118038896Y-84772287D01*
X117928475Y-84742700D01*
X117783525Y-84742700D01*
X117744436Y-84753174D01*
X117643510Y-84780217D01*
X117517989Y-84852687D01*
X117415487Y-84955189D01*
X117343017Y-85080710D01*
X117343016Y-85080715D01*
X117305500Y-85220725D01*
X114074889Y-85220725D01*
X114050984Y-85131515D01*
X114050982Y-85131511D01*
X113978512Y-85005989D01*
X113978510Y-85005987D01*
X113978509Y-85005985D01*
X113876015Y-84903491D01*
X113876012Y-84903489D01*
X113876010Y-84903487D01*
X113750488Y-84831017D01*
X113750489Y-84831017D01*
X113720896Y-84823087D01*
X113610475Y-84793500D01*
X113465525Y-84793500D01*
X113403790Y-84810041D01*
X113325510Y-84831017D01*
X113199989Y-84903487D01*
X113097487Y-85005989D01*
X113025017Y-85131510D01*
X113025016Y-85131515D01*
X112987500Y-85271525D01*
X112987500Y-85416475D01*
X113009312Y-85497878D01*
X113025017Y-85556489D01*
X113097487Y-85682010D01*
X113097489Y-85682012D01*
X113097491Y-85682015D01*
X113199985Y-85784509D01*
X113199987Y-85784510D01*
X113199989Y-85784512D01*
X113325511Y-85856982D01*
X113325512Y-85856982D01*
X113325515Y-85856984D01*
X113465525Y-85894500D01*
X113465526Y-85894500D01*
X113616964Y-85894500D01*
X113616964Y-85896187D01*
X113669103Y-85905845D01*
X113691878Y-85922849D01*
X115407640Y-87638611D01*
X115435417Y-87693128D01*
X115425846Y-87753560D01*
X115382581Y-87796825D01*
X115322149Y-87806396D01*
X115312017Y-87804242D01*
X115261475Y-87790700D01*
X115116525Y-87790700D01*
X115065986Y-87804242D01*
X114976510Y-87828217D01*
X114850989Y-87900687D01*
X114748487Y-88003189D01*
X114676017Y-88128710D01*
X114646603Y-88238485D01*
X114638500Y-88268725D01*
X114638500Y-88413675D01*
X114653832Y-88470893D01*
X114676017Y-88553689D01*
X114748487Y-88679210D01*
X114748489Y-88679212D01*
X114748491Y-88679215D01*
X114850985Y-88781709D01*
X114850987Y-88781710D01*
X114850989Y-88781712D01*
X114976511Y-88854182D01*
X114976512Y-88854182D01*
X114976515Y-88854184D01*
X115116525Y-88891700D01*
X115116526Y-88891700D01*
X115261474Y-88891700D01*
X115261475Y-88891700D01*
X115401485Y-88854184D01*
X115401487Y-88854182D01*
X115401489Y-88854182D01*
X115527010Y-88781712D01*
X115527010Y-88781711D01*
X115527015Y-88781709D01*
X115629509Y-88679215D01*
X115629512Y-88679210D01*
X115701982Y-88553689D01*
X115701982Y-88553687D01*
X115701984Y-88553685D01*
X115739500Y-88413675D01*
X115739500Y-88268725D01*
X115725958Y-88218186D01*
X115729159Y-88157086D01*
X115767664Y-88109535D01*
X115826764Y-88093699D01*
X115883886Y-88115625D01*
X115891588Y-88122559D01*
X116519904Y-88750875D01*
X116547681Y-88805392D01*
X116548900Y-88820879D01*
X116548900Y-90218964D01*
X116569378Y-90295388D01*
X116569379Y-90295389D01*
X116592704Y-90335789D01*
X116608939Y-90363910D01*
X116854525Y-90609497D01*
X116882302Y-90664013D01*
X116872731Y-90724445D01*
X116829466Y-90767710D01*
X116784521Y-90778500D01*
X116548279Y-90778500D01*
X116490088Y-90759593D01*
X116478275Y-90749504D01*
X116209300Y-90480529D01*
X115932111Y-90203340D01*
X115932108Y-90203338D01*
X115914636Y-90193250D01*
X115914636Y-90193251D01*
X115863589Y-90163779D01*
X115863588Y-90163778D01*
X115863587Y-90163778D01*
X115787164Y-90143300D01*
X115787162Y-90143300D01*
X114445679Y-90143300D01*
X114387488Y-90124393D01*
X114375675Y-90114304D01*
X113207096Y-88945725D01*
X113179319Y-88891208D01*
X113178100Y-88875721D01*
X113178100Y-87184037D01*
X113178099Y-87184035D01*
X113157621Y-87107611D01*
X113157619Y-87107607D01*
X113118060Y-87039089D01*
X113062111Y-86983139D01*
X113062111Y-86983140D01*
X112592849Y-86513878D01*
X112565072Y-86459361D01*
X112564806Y-86438964D01*
X112564500Y-86438964D01*
X112564500Y-86287525D01*
X112549218Y-86230493D01*
X112526984Y-86147515D01*
X112526982Y-86147512D01*
X112526982Y-86147510D01*
X112454512Y-86021989D01*
X112454510Y-86021987D01*
X112454509Y-86021985D01*
X112352015Y-85919491D01*
X112352012Y-85919489D01*
X112352010Y-85919487D01*
X112226488Y-85847017D01*
X112226489Y-85847017D01*
X112196896Y-85839087D01*
X112086475Y-85809500D01*
X111941525Y-85809500D01*
X111879790Y-85826041D01*
X111801510Y-85847017D01*
X111675989Y-85919487D01*
X111675983Y-85919491D01*
X111634001Y-85961474D01*
X111579484Y-85989251D01*
X111519052Y-85979679D01*
X111493997Y-85961476D01*
X111452012Y-85919491D01*
X111452009Y-85919489D01*
X111452007Y-85919487D01*
X111326485Y-85847017D01*
X111326486Y-85847017D01*
X111296893Y-85839087D01*
X111186472Y-85809500D01*
X111186471Y-85809500D01*
X111143500Y-85809500D01*
X111085309Y-85790593D01*
X111049345Y-85741093D01*
X111044500Y-85710500D01*
X111044500Y-84211116D01*
X111063407Y-84152925D01*
X111077642Y-84138313D01*
X111077426Y-84138097D01*
X111082012Y-84133510D01*
X111082015Y-84133509D01*
X111184509Y-84031015D01*
X111192875Y-84016525D01*
X111256982Y-83905489D01*
X111256982Y-83905487D01*
X111256984Y-83905485D01*
X111294500Y-83765475D01*
X111294500Y-83620525D01*
X115273500Y-83620525D01*
X115273500Y-83765475D01*
X115277362Y-83779887D01*
X115311017Y-83905489D01*
X115383487Y-84031010D01*
X115383489Y-84031012D01*
X115383491Y-84031015D01*
X115485985Y-84133509D01*
X115485987Y-84133510D01*
X115485989Y-84133512D01*
X115611511Y-84205982D01*
X115611512Y-84205982D01*
X115611515Y-84205984D01*
X115751525Y-84243500D01*
X115751526Y-84243500D01*
X115896474Y-84243500D01*
X115896475Y-84243500D01*
X116036485Y-84205984D01*
X116036487Y-84205982D01*
X116036489Y-84205982D01*
X116162010Y-84133512D01*
X116162010Y-84133511D01*
X116162015Y-84133509D01*
X116264509Y-84031015D01*
X116272875Y-84016525D01*
X116336982Y-83905489D01*
X116336982Y-83905487D01*
X116336984Y-83905485D01*
X116374500Y-83765475D01*
X116374500Y-83620525D01*
X116336984Y-83480515D01*
X116336982Y-83480512D01*
X116336982Y-83480510D01*
X116264512Y-83354989D01*
X116264510Y-83354987D01*
X116264509Y-83354985D01*
X116162015Y-83252491D01*
X116162012Y-83252489D01*
X116162010Y-83252487D01*
X116036488Y-83180017D01*
X116036489Y-83180017D01*
X116006896Y-83172087D01*
X115896475Y-83142500D01*
X115751525Y-83142500D01*
X115689790Y-83159041D01*
X115611510Y-83180017D01*
X115485989Y-83252487D01*
X115383487Y-83354989D01*
X115311017Y-83480510D01*
X115280952Y-83592713D01*
X115273500Y-83620525D01*
X111294500Y-83620525D01*
X111256984Y-83480515D01*
X111256982Y-83480512D01*
X111256982Y-83480510D01*
X111184512Y-83354989D01*
X111184510Y-83354987D01*
X111184509Y-83354985D01*
X111082015Y-83252491D01*
X111082012Y-83252489D01*
X111082010Y-83252487D01*
X110956488Y-83180017D01*
X110956489Y-83180017D01*
X110926896Y-83172087D01*
X110816475Y-83142500D01*
X110671525Y-83142500D01*
X110609790Y-83159041D01*
X110531510Y-83180017D01*
X110405989Y-83252487D01*
X110303487Y-83354989D01*
X110231017Y-83480510D01*
X110193500Y-83620525D01*
X110193500Y-83685732D01*
X110174593Y-83743923D01*
X110125093Y-83779887D01*
X110068878Y-83781359D01*
X110054475Y-83777500D01*
X109909525Y-83777500D01*
X109847790Y-83794041D01*
X109769510Y-83815017D01*
X109643989Y-83887487D01*
X109541487Y-83989989D01*
X109469017Y-84115510D01*
X109450249Y-84185554D01*
X109431500Y-84255525D01*
X109431500Y-84400475D01*
X109438780Y-84427643D01*
X109455099Y-84488547D01*
X109454334Y-84503133D01*
X109458427Y-84517155D01*
X109452772Y-84532922D01*
X109451896Y-84549648D01*
X109442705Y-84560997D01*
X109437774Y-84574749D01*
X109424322Y-84583698D01*
X109413391Y-84597198D01*
X109387212Y-84609204D01*
X109386148Y-84609514D01*
X109360090Y-84616497D01*
X109357904Y-84617758D01*
X109349815Y-84620120D01*
X109324354Y-84619351D01*
X109298955Y-84621349D01*
X109294213Y-84618442D01*
X109288657Y-84618275D01*
X109268512Y-84602690D01*
X109246789Y-84589375D01*
X109244661Y-84584237D01*
X109240264Y-84580835D01*
X109233127Y-84556384D01*
X109223379Y-84532845D01*
X109223075Y-84525086D01*
X109223075Y-84176867D01*
X109223075Y-84176866D01*
X109196667Y-84078309D01*
X109192374Y-84062288D01*
X109192373Y-84062287D01*
X109192373Y-84062285D01*
X109192372Y-84062284D01*
X109133066Y-83959563D01*
X109133065Y-83959561D01*
X108080793Y-82907290D01*
X108053017Y-82852774D01*
X108062588Y-82792342D01*
X108105853Y-82749077D01*
X108125171Y-82741661D01*
X108217525Y-82716915D01*
X108217527Y-82716913D01*
X108217529Y-82716913D01*
X108343050Y-82644443D01*
X108343050Y-82644442D01*
X108343055Y-82644440D01*
X108445549Y-82541946D01*
X108518024Y-82416416D01*
X108528874Y-82375925D01*
X111539700Y-82375925D01*
X111539700Y-82520875D01*
X111556601Y-82583951D01*
X111577217Y-82660889D01*
X111649687Y-82786410D01*
X111649689Y-82786412D01*
X111649691Y-82786415D01*
X111752185Y-82888909D01*
X111752187Y-82888910D01*
X111752189Y-82888912D01*
X111877711Y-82961382D01*
X111877712Y-82961382D01*
X111877715Y-82961384D01*
X112017725Y-82998900D01*
X112017726Y-82998900D01*
X112162674Y-82998900D01*
X112162675Y-82998900D01*
X112302685Y-82961384D01*
X112302687Y-82961382D01*
X112302689Y-82961382D01*
X112428210Y-82888912D01*
X112428210Y-82888911D01*
X112428215Y-82888909D01*
X112530709Y-82786415D01*
X112530712Y-82786410D01*
X112603182Y-82660889D01*
X112603182Y-82660887D01*
X112603184Y-82660885D01*
X112604173Y-82657190D01*
X112637497Y-82605878D01*
X112694618Y-82583951D01*
X112753719Y-82599786D01*
X112792224Y-82647336D01*
X112795423Y-82657182D01*
X112796276Y-82660362D01*
X112796417Y-82660889D01*
X112868887Y-82786410D01*
X112868889Y-82786412D01*
X112868891Y-82786415D01*
X112971385Y-82888909D01*
X112971387Y-82888910D01*
X112971389Y-82888912D01*
X113096911Y-82961382D01*
X113096912Y-82961382D01*
X113096915Y-82961384D01*
X113236925Y-82998900D01*
X113236926Y-82998900D01*
X113381874Y-82998900D01*
X113381875Y-82998900D01*
X113521885Y-82961384D01*
X113521887Y-82961382D01*
X113521889Y-82961382D01*
X113647410Y-82888912D01*
X113647410Y-82888911D01*
X113647415Y-82888909D01*
X113749909Y-82786415D01*
X113749912Y-82786410D01*
X113822382Y-82660889D01*
X113822382Y-82660887D01*
X113822384Y-82660885D01*
X113848773Y-82562397D01*
X113882097Y-82511084D01*
X113939219Y-82489158D01*
X113998319Y-82504994D01*
X114036825Y-82552544D01*
X114040023Y-82562389D01*
X114051677Y-82605878D01*
X114066417Y-82660889D01*
X114138887Y-82786410D01*
X114138889Y-82786412D01*
X114138891Y-82786415D01*
X114241385Y-82888909D01*
X114241387Y-82888910D01*
X114241389Y-82888912D01*
X114366911Y-82961382D01*
X114366912Y-82961382D01*
X114366915Y-82961384D01*
X114506925Y-82998900D01*
X114506926Y-82998900D01*
X114651874Y-82998900D01*
X114651875Y-82998900D01*
X114791885Y-82961384D01*
X114791887Y-82961382D01*
X114791889Y-82961382D01*
X114917410Y-82888912D01*
X114917410Y-82888911D01*
X114917415Y-82888909D01*
X115019909Y-82786415D01*
X115019912Y-82786410D01*
X115092382Y-82660889D01*
X115092382Y-82660887D01*
X115092384Y-82660885D01*
X115129900Y-82520875D01*
X115129900Y-82375925D01*
X115092384Y-82235915D01*
X115092382Y-82235911D01*
X115092382Y-82235910D01*
X115019912Y-82110389D01*
X115019910Y-82110387D01*
X115019909Y-82110385D01*
X114917415Y-82007891D01*
X114917412Y-82007889D01*
X114917410Y-82007887D01*
X114791888Y-81935417D01*
X114791889Y-81935417D01*
X114725746Y-81917694D01*
X114651875Y-81897900D01*
X114506925Y-81897900D01*
X114445190Y-81914441D01*
X114366910Y-81935417D01*
X114241389Y-82007887D01*
X114138887Y-82110389D01*
X114066418Y-82235909D01*
X114066416Y-82235913D01*
X114066416Y-82235915D01*
X114040026Y-82334402D01*
X114006702Y-82385715D01*
X113949581Y-82407641D01*
X113890480Y-82391805D01*
X113851975Y-82344255D01*
X113848776Y-82334410D01*
X113822384Y-82235915D01*
X113813112Y-82219855D01*
X113749912Y-82110389D01*
X113749910Y-82110387D01*
X113749909Y-82110385D01*
X113647415Y-82007891D01*
X113647412Y-82007889D01*
X113647410Y-82007887D01*
X113521888Y-81935417D01*
X113521889Y-81935417D01*
X113455746Y-81917694D01*
X113381875Y-81897900D01*
X113236925Y-81897900D01*
X113175190Y-81914441D01*
X113096910Y-81935417D01*
X112971389Y-82007887D01*
X112868887Y-82110389D01*
X112796417Y-82235911D01*
X112796416Y-82235914D01*
X112795426Y-82239609D01*
X112762101Y-82290923D01*
X112704979Y-82312848D01*
X112645879Y-82297011D01*
X112607375Y-82249460D01*
X112604174Y-82239609D01*
X112603974Y-82238866D01*
X112603184Y-82235915D01*
X112593912Y-82219855D01*
X112530712Y-82110389D01*
X112530710Y-82110387D01*
X112530709Y-82110385D01*
X112428215Y-82007891D01*
X112428212Y-82007889D01*
X112428210Y-82007887D01*
X112302688Y-81935417D01*
X112302689Y-81935417D01*
X112236546Y-81917694D01*
X112162675Y-81897900D01*
X112017725Y-81897900D01*
X111955990Y-81914441D01*
X111877710Y-81935417D01*
X111752189Y-82007887D01*
X111649687Y-82110389D01*
X111577217Y-82235910D01*
X111548502Y-82343075D01*
X111539700Y-82375925D01*
X108528874Y-82375925D01*
X108555540Y-82276406D01*
X108555540Y-82131456D01*
X108530751Y-82038943D01*
X108533952Y-81977844D01*
X108572457Y-81930293D01*
X108600748Y-81917696D01*
X108657059Y-81902608D01*
X108657061Y-81902606D01*
X108657063Y-81902606D01*
X108782584Y-81830136D01*
X108782584Y-81830135D01*
X108782589Y-81830133D01*
X108885083Y-81727639D01*
X108889436Y-81720100D01*
X108957556Y-81602113D01*
X108957556Y-81602111D01*
X108957558Y-81602109D01*
X108995074Y-81462099D01*
X108995074Y-81317149D01*
X108957558Y-81177139D01*
X108957556Y-81177136D01*
X108957556Y-81177134D01*
X108885086Y-81051613D01*
X108885084Y-81051611D01*
X108885083Y-81051609D01*
X108834701Y-81001227D01*
X108829248Y-80990525D01*
X111539700Y-80990525D01*
X111539700Y-81135475D01*
X111560342Y-81212512D01*
X111577217Y-81275489D01*
X111649687Y-81401010D01*
X111649689Y-81401012D01*
X111649691Y-81401015D01*
X111752185Y-81503509D01*
X111752187Y-81503510D01*
X111752189Y-81503512D01*
X111877711Y-81575982D01*
X111877712Y-81575982D01*
X111877715Y-81575984D01*
X112017725Y-81613500D01*
X112017726Y-81613500D01*
X112162674Y-81613500D01*
X112162675Y-81613500D01*
X112302685Y-81575984D01*
X112302687Y-81575982D01*
X112302689Y-81575982D01*
X112428210Y-81503512D01*
X112428210Y-81503511D01*
X112428215Y-81503509D01*
X112530709Y-81401015D01*
X112579129Y-81317149D01*
X112603182Y-81275489D01*
X112603182Y-81275487D01*
X112603184Y-81275485D01*
X112604173Y-81271790D01*
X112637497Y-81220478D01*
X112694618Y-81198551D01*
X112753719Y-81214386D01*
X112792224Y-81261936D01*
X112795423Y-81271782D01*
X112796302Y-81275060D01*
X112796417Y-81275489D01*
X112868887Y-81401010D01*
X112868889Y-81401012D01*
X112868891Y-81401015D01*
X112971385Y-81503509D01*
X112971387Y-81503510D01*
X112971389Y-81503512D01*
X113096911Y-81575982D01*
X113096912Y-81575982D01*
X113096915Y-81575984D01*
X113236925Y-81613500D01*
X113236926Y-81613500D01*
X113381874Y-81613500D01*
X113381875Y-81613500D01*
X113521885Y-81575984D01*
X113521887Y-81575982D01*
X113521889Y-81575982D01*
X113647410Y-81503512D01*
X113647410Y-81503511D01*
X113647415Y-81503509D01*
X113749909Y-81401015D01*
X113798329Y-81317149D01*
X113822382Y-81275489D01*
X113822382Y-81275487D01*
X113822384Y-81275485D01*
X113848773Y-81176997D01*
X113882097Y-81125684D01*
X113939219Y-81103758D01*
X113998319Y-81119594D01*
X114036825Y-81167144D01*
X114040023Y-81176989D01*
X114051677Y-81220478D01*
X114066417Y-81275489D01*
X114138887Y-81401010D01*
X114138889Y-81401012D01*
X114138891Y-81401015D01*
X114241385Y-81503509D01*
X114241387Y-81503510D01*
X114241389Y-81503512D01*
X114366911Y-81575982D01*
X114366912Y-81575982D01*
X114366915Y-81575984D01*
X114506925Y-81613500D01*
X114506926Y-81613500D01*
X114651874Y-81613500D01*
X114651875Y-81613500D01*
X114791885Y-81575984D01*
X114791887Y-81575982D01*
X114791889Y-81575982D01*
X114917410Y-81503512D01*
X114917410Y-81503511D01*
X114917415Y-81503509D01*
X115019909Y-81401015D01*
X115068329Y-81317149D01*
X115092382Y-81275489D01*
X115092382Y-81275487D01*
X115092384Y-81275485D01*
X115129900Y-81135475D01*
X115129900Y-80990525D01*
X115092384Y-80850515D01*
X115092382Y-80850511D01*
X115092382Y-80850510D01*
X115019912Y-80724989D01*
X115019910Y-80724987D01*
X115019909Y-80724985D01*
X114917415Y-80622491D01*
X114917412Y-80622489D01*
X114917410Y-80622487D01*
X114791888Y-80550017D01*
X114791889Y-80550017D01*
X114762296Y-80542087D01*
X114651875Y-80512500D01*
X114506925Y-80512500D01*
X114445190Y-80529041D01*
X114366910Y-80550017D01*
X114241389Y-80622487D01*
X114138887Y-80724989D01*
X114066418Y-80850509D01*
X114066416Y-80850513D01*
X114066416Y-80850515D01*
X114040026Y-80949002D01*
X114006702Y-81000315D01*
X113949581Y-81022241D01*
X113890480Y-81006405D01*
X113851975Y-80958855D01*
X113848776Y-80949010D01*
X113822384Y-80850515D01*
X113818897Y-80844475D01*
X113749912Y-80724989D01*
X113749910Y-80724987D01*
X113749909Y-80724985D01*
X113647415Y-80622491D01*
X113647412Y-80622489D01*
X113647410Y-80622487D01*
X113521888Y-80550017D01*
X113521889Y-80550017D01*
X113492296Y-80542087D01*
X113381875Y-80512500D01*
X113236925Y-80512500D01*
X113175190Y-80529041D01*
X113096910Y-80550017D01*
X112971389Y-80622487D01*
X112868887Y-80724989D01*
X112796417Y-80850511D01*
X112796416Y-80850514D01*
X112795426Y-80854209D01*
X112762101Y-80905523D01*
X112704979Y-80927448D01*
X112645879Y-80911611D01*
X112607375Y-80864060D01*
X112604174Y-80854209D01*
X112603974Y-80853466D01*
X112603184Y-80850515D01*
X112599697Y-80844475D01*
X112530712Y-80724989D01*
X112530710Y-80724987D01*
X112530709Y-80724985D01*
X112428215Y-80622491D01*
X112428212Y-80622489D01*
X112428210Y-80622487D01*
X112302688Y-80550017D01*
X112302689Y-80550017D01*
X112273096Y-80542087D01*
X112162675Y-80512500D01*
X112017725Y-80512500D01*
X111955990Y-80529041D01*
X111877710Y-80550017D01*
X111752189Y-80622487D01*
X111649687Y-80724989D01*
X111577217Y-80850510D01*
X111550826Y-80949001D01*
X111539700Y-80990525D01*
X108829248Y-80990525D01*
X108806926Y-80946713D01*
X108816497Y-80886281D01*
X108834700Y-80861225D01*
X108868130Y-80827796D01*
X108940605Y-80702266D01*
X108978121Y-80562256D01*
X108978121Y-80417306D01*
X108978121Y-80410817D01*
X108979807Y-80410817D01*
X108989468Y-80358672D01*
X109006471Y-80335901D01*
X109200390Y-80141982D01*
X109460460Y-79881913D01*
X109491312Y-79828475D01*
X109500021Y-79813391D01*
X109520500Y-79736964D01*
X109520500Y-79683525D01*
X111539700Y-79683525D01*
X111539700Y-79828475D01*
X111556601Y-79891551D01*
X111577217Y-79968489D01*
X111649687Y-80094010D01*
X111649689Y-80094012D01*
X111649691Y-80094015D01*
X111752185Y-80196509D01*
X111752187Y-80196510D01*
X111752189Y-80196512D01*
X111877711Y-80268982D01*
X111877712Y-80268982D01*
X111877715Y-80268984D01*
X112017725Y-80306500D01*
X112017726Y-80306500D01*
X112162674Y-80306500D01*
X112162675Y-80306500D01*
X112302685Y-80268984D01*
X112302687Y-80268982D01*
X112302689Y-80268982D01*
X112428210Y-80196512D01*
X112428210Y-80196511D01*
X112428215Y-80196509D01*
X112530709Y-80094015D01*
X112544858Y-80069509D01*
X112603182Y-79968489D01*
X112603182Y-79968487D01*
X112603184Y-79968485D01*
X112604173Y-79964790D01*
X112637497Y-79913478D01*
X112694618Y-79891551D01*
X112753719Y-79907386D01*
X112792224Y-79954936D01*
X112795423Y-79964782D01*
X112796021Y-79967010D01*
X112796417Y-79968489D01*
X112868887Y-80094010D01*
X112868889Y-80094012D01*
X112868891Y-80094015D01*
X112971385Y-80196509D01*
X112971387Y-80196510D01*
X112971389Y-80196512D01*
X113096911Y-80268982D01*
X113096912Y-80268982D01*
X113096915Y-80268984D01*
X113236925Y-80306500D01*
X113236926Y-80306500D01*
X113381874Y-80306500D01*
X113381875Y-80306500D01*
X113521885Y-80268984D01*
X113521887Y-80268982D01*
X113521889Y-80268982D01*
X113647410Y-80196512D01*
X113647410Y-80196511D01*
X113647415Y-80196509D01*
X113749909Y-80094015D01*
X113764058Y-80069509D01*
X113822382Y-79968489D01*
X113822382Y-79968487D01*
X113822384Y-79968485D01*
X113848773Y-79869997D01*
X113882097Y-79818684D01*
X113939219Y-79796758D01*
X113998319Y-79812594D01*
X114036825Y-79860144D01*
X114040023Y-79869989D01*
X114051677Y-79913478D01*
X114066417Y-79968489D01*
X114138887Y-80094010D01*
X114138889Y-80094012D01*
X114138891Y-80094015D01*
X114241385Y-80196509D01*
X114241387Y-80196510D01*
X114241389Y-80196512D01*
X114366911Y-80268982D01*
X114366912Y-80268982D01*
X114366915Y-80268984D01*
X114506925Y-80306500D01*
X114506926Y-80306500D01*
X114651874Y-80306500D01*
X114651875Y-80306500D01*
X114791885Y-80268984D01*
X114791887Y-80268982D01*
X114791889Y-80268982D01*
X114917410Y-80196512D01*
X114917410Y-80196511D01*
X114917415Y-80196509D01*
X115019909Y-80094015D01*
X115034058Y-80069509D01*
X115092382Y-79968489D01*
X115092382Y-79968487D01*
X115092384Y-79968485D01*
X115129900Y-79828475D01*
X115129900Y-79683525D01*
X115092384Y-79543515D01*
X115092382Y-79543511D01*
X115092382Y-79543510D01*
X115019912Y-79417989D01*
X115019910Y-79417987D01*
X115019909Y-79417985D01*
X114917415Y-79315491D01*
X114917412Y-79315489D01*
X114917410Y-79315487D01*
X114791888Y-79243017D01*
X114791889Y-79243017D01*
X114762296Y-79235087D01*
X114651875Y-79205500D01*
X114506925Y-79205500D01*
X114445190Y-79222041D01*
X114366910Y-79243017D01*
X114241389Y-79315487D01*
X114138887Y-79417989D01*
X114066418Y-79543509D01*
X114066416Y-79543513D01*
X114066416Y-79543515D01*
X114040026Y-79642002D01*
X114006702Y-79693315D01*
X113949581Y-79715241D01*
X113890480Y-79699405D01*
X113851975Y-79651855D01*
X113848776Y-79642010D01*
X113822384Y-79543515D01*
X113822381Y-79543509D01*
X113749912Y-79417989D01*
X113749910Y-79417987D01*
X113749909Y-79417985D01*
X113647415Y-79315491D01*
X113647412Y-79315489D01*
X113647410Y-79315487D01*
X113521888Y-79243017D01*
X113521889Y-79243017D01*
X113492296Y-79235087D01*
X113381875Y-79205500D01*
X113236925Y-79205500D01*
X113175190Y-79222041D01*
X113096910Y-79243017D01*
X112971389Y-79315487D01*
X112868887Y-79417989D01*
X112796417Y-79543511D01*
X112796416Y-79543514D01*
X112795426Y-79547209D01*
X112762101Y-79598523D01*
X112704979Y-79620448D01*
X112645879Y-79604611D01*
X112607375Y-79557060D01*
X112604174Y-79547209D01*
X112603974Y-79546466D01*
X112603184Y-79543515D01*
X112603181Y-79543509D01*
X112530712Y-79417989D01*
X112530710Y-79417987D01*
X112530709Y-79417985D01*
X112428215Y-79315491D01*
X112428212Y-79315489D01*
X112428210Y-79315487D01*
X112302688Y-79243017D01*
X112302689Y-79243017D01*
X112273096Y-79235087D01*
X112162675Y-79205500D01*
X112017725Y-79205500D01*
X111955990Y-79222041D01*
X111877710Y-79243017D01*
X111752189Y-79315487D01*
X111649687Y-79417989D01*
X111577217Y-79543510D01*
X111550826Y-79642001D01*
X111539700Y-79683525D01*
X109520500Y-79683525D01*
X109520500Y-78286525D01*
X110066500Y-78286525D01*
X110066500Y-78431475D01*
X110085501Y-78502386D01*
X110104017Y-78571489D01*
X110176487Y-78697010D01*
X110176489Y-78697012D01*
X110176491Y-78697015D01*
X110278985Y-78799509D01*
X110278987Y-78799510D01*
X110278989Y-78799512D01*
X110404511Y-78871982D01*
X110404512Y-78871982D01*
X110404515Y-78871984D01*
X110544525Y-78909500D01*
X110544526Y-78909500D01*
X110689474Y-78909500D01*
X110689475Y-78909500D01*
X110829485Y-78871984D01*
X110829487Y-78871982D01*
X110829489Y-78871982D01*
X110955010Y-78799512D01*
X110955010Y-78799511D01*
X110955015Y-78799509D01*
X111057509Y-78697015D01*
X111110569Y-78605113D01*
X111129982Y-78571489D01*
X111129982Y-78571487D01*
X111129984Y-78571485D01*
X111167500Y-78431475D01*
X111167500Y-78286525D01*
X111129984Y-78146515D01*
X111129982Y-78146512D01*
X111129982Y-78146510D01*
X111057512Y-78020989D01*
X111057510Y-78020987D01*
X111057509Y-78020985D01*
X110955015Y-77918491D01*
X110955012Y-77918489D01*
X110955010Y-77918487D01*
X110829488Y-77846017D01*
X110829489Y-77846017D01*
X110795221Y-77836835D01*
X110689475Y-77808500D01*
X110544525Y-77808500D01*
X110482790Y-77825041D01*
X110404510Y-77846017D01*
X110278989Y-77918487D01*
X110176487Y-78020989D01*
X110104017Y-78146510D01*
X110086994Y-78210042D01*
X110066500Y-78286525D01*
X109520500Y-78286525D01*
X109520500Y-76008731D01*
X109539407Y-75950540D01*
X109581614Y-75917267D01*
X109717598Y-75860941D01*
X109889655Y-75745977D01*
X110035977Y-75599655D01*
X110150941Y-75427598D01*
X110230130Y-75236420D01*
X110270500Y-75033465D01*
X110270500Y-74826535D01*
X110230130Y-74623580D01*
X110150941Y-74432402D01*
X110035977Y-74260345D01*
X109905133Y-74129501D01*
X109877358Y-74074987D01*
X109886929Y-74014555D01*
X109930194Y-73971290D01*
X109975139Y-73960500D01*
X111004861Y-73960500D01*
X111063052Y-73979407D01*
G37*
%TD.AperFunction*%
%TD*%
M02*
