%TF.GenerationSoftware,KiCad,Pcbnew,9.0.7*%
%TF.CreationDate,2026-07-04T14:57:21-07:00*%
%TF.ProjectId,STM32_Microcontrollerx32,53544d33-325f-44d6-9963-726f636f6e74,rev?*%
%TF.SameCoordinates,Original*%
%TF.FileFunction,Legend,Top*%
%TF.FilePolarity,Positive*%
%FSLAX46Y46*%
G04 Gerber Fmt 4.6, Leading zero omitted, Abs format (unit mm)*
G04 Created by KiCad (PCBNEW 9.0.7) date 2026-07-04 14:57:21*
%MOMM*%
%LPD*%
G01*
G04 APERTURE LIST*
%ADD10C,0.150000*%
%ADD11C,0.254000*%
%ADD12C,0.120000*%
%ADD13C,0.127000*%
%ADD14C,0.200000*%
%ADD15C,0.152400*%
%ADD16C,0.100000*%
%ADD17C,0.250000*%
G04 APERTURE END LIST*
D10*
X124418912Y-88195209D02*
X124561769Y-88242828D01*
X124561769Y-88242828D02*
X124609388Y-88290447D01*
X124609388Y-88290447D02*
X124657007Y-88385685D01*
X124657007Y-88385685D02*
X124657007Y-88528542D01*
X124657007Y-88528542D02*
X124609388Y-88623780D01*
X124609388Y-88623780D02*
X124561769Y-88671400D01*
X124561769Y-88671400D02*
X124466531Y-88719019D01*
X124466531Y-88719019D02*
X124085579Y-88719019D01*
X124085579Y-88719019D02*
X124085579Y-87719019D01*
X124085579Y-87719019D02*
X124418912Y-87719019D01*
X124418912Y-87719019D02*
X124514150Y-87766638D01*
X124514150Y-87766638D02*
X124561769Y-87814257D01*
X124561769Y-87814257D02*
X124609388Y-87909495D01*
X124609388Y-87909495D02*
X124609388Y-88004733D01*
X124609388Y-88004733D02*
X124561769Y-88099971D01*
X124561769Y-88099971D02*
X124514150Y-88147590D01*
X124514150Y-88147590D02*
X124418912Y-88195209D01*
X124418912Y-88195209D02*
X124085579Y-88195209D01*
X124942722Y-87719019D02*
X125514150Y-87719019D01*
X125228436Y-88719019D02*
X125228436Y-87719019D01*
X130702207Y-80481569D02*
X130368874Y-80005378D01*
X130130779Y-80481569D02*
X130130779Y-79481569D01*
X130130779Y-79481569D02*
X130511731Y-79481569D01*
X130511731Y-79481569D02*
X130606969Y-79529188D01*
X130606969Y-79529188D02*
X130654588Y-79576807D01*
X130654588Y-79576807D02*
X130702207Y-79672045D01*
X130702207Y-79672045D02*
X130702207Y-79814902D01*
X130702207Y-79814902D02*
X130654588Y-79910140D01*
X130654588Y-79910140D02*
X130606969Y-79957759D01*
X130606969Y-79957759D02*
X130511731Y-80005378D01*
X130511731Y-80005378D02*
X130130779Y-80005378D01*
X131083160Y-80433950D02*
X131226017Y-80481569D01*
X131226017Y-80481569D02*
X131464112Y-80481569D01*
X131464112Y-80481569D02*
X131559350Y-80433950D01*
X131559350Y-80433950D02*
X131606969Y-80386330D01*
X131606969Y-80386330D02*
X131654588Y-80291092D01*
X131654588Y-80291092D02*
X131654588Y-80195854D01*
X131654588Y-80195854D02*
X131606969Y-80100616D01*
X131606969Y-80100616D02*
X131559350Y-80052997D01*
X131559350Y-80052997D02*
X131464112Y-80005378D01*
X131464112Y-80005378D02*
X131273636Y-79957759D01*
X131273636Y-79957759D02*
X131178398Y-79910140D01*
X131178398Y-79910140D02*
X131130779Y-79862521D01*
X131130779Y-79862521D02*
X131083160Y-79767283D01*
X131083160Y-79767283D02*
X131083160Y-79672045D01*
X131083160Y-79672045D02*
X131130779Y-79576807D01*
X131130779Y-79576807D02*
X131178398Y-79529188D01*
X131178398Y-79529188D02*
X131273636Y-79481569D01*
X131273636Y-79481569D02*
X131511731Y-79481569D01*
X131511731Y-79481569D02*
X131654588Y-79529188D01*
X131940303Y-79481569D02*
X132511731Y-79481569D01*
X132226017Y-80481569D02*
X132226017Y-79481569D01*
X96380180Y-74504779D02*
X95570657Y-74504779D01*
X95570657Y-74504779D02*
X95475419Y-74552398D01*
X95475419Y-74552398D02*
X95427800Y-74600017D01*
X95427800Y-74600017D02*
X95380180Y-74695255D01*
X95380180Y-74695255D02*
X95380180Y-74885731D01*
X95380180Y-74885731D02*
X95427800Y-74980969D01*
X95427800Y-74980969D02*
X95475419Y-75028588D01*
X95475419Y-75028588D02*
X95570657Y-75076207D01*
X95570657Y-75076207D02*
X96380180Y-75076207D01*
X95427800Y-75504779D02*
X95380180Y-75647636D01*
X95380180Y-75647636D02*
X95380180Y-75885731D01*
X95380180Y-75885731D02*
X95427800Y-75980969D01*
X95427800Y-75980969D02*
X95475419Y-76028588D01*
X95475419Y-76028588D02*
X95570657Y-76076207D01*
X95570657Y-76076207D02*
X95665895Y-76076207D01*
X95665895Y-76076207D02*
X95761133Y-76028588D01*
X95761133Y-76028588D02*
X95808752Y-75980969D01*
X95808752Y-75980969D02*
X95856371Y-75885731D01*
X95856371Y-75885731D02*
X95903990Y-75695255D01*
X95903990Y-75695255D02*
X95951609Y-75600017D01*
X95951609Y-75600017D02*
X95999228Y-75552398D01*
X95999228Y-75552398D02*
X96094466Y-75504779D01*
X96094466Y-75504779D02*
X96189704Y-75504779D01*
X96189704Y-75504779D02*
X96284942Y-75552398D01*
X96284942Y-75552398D02*
X96332561Y-75600017D01*
X96332561Y-75600017D02*
X96380180Y-75695255D01*
X96380180Y-75695255D02*
X96380180Y-75933350D01*
X96380180Y-75933350D02*
X96332561Y-76076207D01*
X95903990Y-76838112D02*
X95856371Y-76980969D01*
X95856371Y-76980969D02*
X95808752Y-77028588D01*
X95808752Y-77028588D02*
X95713514Y-77076207D01*
X95713514Y-77076207D02*
X95570657Y-77076207D01*
X95570657Y-77076207D02*
X95475419Y-77028588D01*
X95475419Y-77028588D02*
X95427800Y-76980969D01*
X95427800Y-76980969D02*
X95380180Y-76885731D01*
X95380180Y-76885731D02*
X95380180Y-76504779D01*
X95380180Y-76504779D02*
X96380180Y-76504779D01*
X96380180Y-76504779D02*
X96380180Y-76838112D01*
X96380180Y-76838112D02*
X96332561Y-76933350D01*
X96332561Y-76933350D02*
X96284942Y-76980969D01*
X96284942Y-76980969D02*
X96189704Y-77028588D01*
X96189704Y-77028588D02*
X96094466Y-77028588D01*
X96094466Y-77028588D02*
X95999228Y-76980969D01*
X95999228Y-76980969D02*
X95951609Y-76933350D01*
X95951609Y-76933350D02*
X95903990Y-76838112D01*
X95903990Y-76838112D02*
X95903990Y-76504779D01*
X99237800Y-90840160D02*
X99190180Y-90983017D01*
X99190180Y-90983017D02*
X99190180Y-91221112D01*
X99190180Y-91221112D02*
X99237800Y-91316350D01*
X99237800Y-91316350D02*
X99285419Y-91363969D01*
X99285419Y-91363969D02*
X99380657Y-91411588D01*
X99380657Y-91411588D02*
X99475895Y-91411588D01*
X99475895Y-91411588D02*
X99571133Y-91363969D01*
X99571133Y-91363969D02*
X99618752Y-91316350D01*
X99618752Y-91316350D02*
X99666371Y-91221112D01*
X99666371Y-91221112D02*
X99713990Y-91030636D01*
X99713990Y-91030636D02*
X99761609Y-90935398D01*
X99761609Y-90935398D02*
X99809228Y-90887779D01*
X99809228Y-90887779D02*
X99904466Y-90840160D01*
X99904466Y-90840160D02*
X99999704Y-90840160D01*
X99999704Y-90840160D02*
X100094942Y-90887779D01*
X100094942Y-90887779D02*
X100142561Y-90935398D01*
X100142561Y-90935398D02*
X100190180Y-91030636D01*
X100190180Y-91030636D02*
X100190180Y-91268731D01*
X100190180Y-91268731D02*
X100142561Y-91411588D01*
X100190180Y-91744922D02*
X99190180Y-91983017D01*
X99190180Y-91983017D02*
X99904466Y-92173493D01*
X99904466Y-92173493D02*
X99190180Y-92363969D01*
X99190180Y-92363969D02*
X100190180Y-92602065D01*
X99190180Y-92983017D02*
X100190180Y-92983017D01*
X100190180Y-92983017D02*
X100190180Y-93221112D01*
X100190180Y-93221112D02*
X100142561Y-93363969D01*
X100142561Y-93363969D02*
X100047323Y-93459207D01*
X100047323Y-93459207D02*
X99952085Y-93506826D01*
X99952085Y-93506826D02*
X99761609Y-93554445D01*
X99761609Y-93554445D02*
X99618752Y-93554445D01*
X99618752Y-93554445D02*
X99428276Y-93506826D01*
X99428276Y-93506826D02*
X99333038Y-93459207D01*
X99333038Y-93459207D02*
X99237800Y-93363969D01*
X99237800Y-93363969D02*
X99190180Y-93221112D01*
X99190180Y-93221112D02*
X99190180Y-92983017D01*
X110363000Y-91567000D02*
X110363000Y-93980000D01*
X100457000Y-91567000D02*
X100457000Y-93980000D01*
X100457000Y-91567000D02*
X110363000Y-91567000D01*
X139385561Y-91538588D02*
X139433180Y-91443350D01*
X139433180Y-91443350D02*
X139433180Y-91300493D01*
X139433180Y-91300493D02*
X139385561Y-91157636D01*
X139385561Y-91157636D02*
X139290323Y-91062398D01*
X139290323Y-91062398D02*
X139195085Y-91014779D01*
X139195085Y-91014779D02*
X139004609Y-90967160D01*
X139004609Y-90967160D02*
X138861752Y-90967160D01*
X138861752Y-90967160D02*
X138671276Y-91014779D01*
X138671276Y-91014779D02*
X138576038Y-91062398D01*
X138576038Y-91062398D02*
X138480800Y-91157636D01*
X138480800Y-91157636D02*
X138433180Y-91300493D01*
X138433180Y-91300493D02*
X138433180Y-91395731D01*
X138433180Y-91395731D02*
X138480800Y-91538588D01*
X138480800Y-91538588D02*
X138528419Y-91586207D01*
X138528419Y-91586207D02*
X138861752Y-91586207D01*
X138861752Y-91586207D02*
X138861752Y-91395731D01*
X138433180Y-92014779D02*
X139433180Y-92014779D01*
X139433180Y-92014779D02*
X138433180Y-92586207D01*
X138433180Y-92586207D02*
X139433180Y-92586207D01*
X138433180Y-93062398D02*
X139433180Y-93062398D01*
X139433180Y-93062398D02*
X139433180Y-93300493D01*
X139433180Y-93300493D02*
X139385561Y-93443350D01*
X139385561Y-93443350D02*
X139290323Y-93538588D01*
X139290323Y-93538588D02*
X139195085Y-93586207D01*
X139195085Y-93586207D02*
X139004609Y-93633826D01*
X139004609Y-93633826D02*
X138861752Y-93633826D01*
X138861752Y-93633826D02*
X138671276Y-93586207D01*
X138671276Y-93586207D02*
X138576038Y-93538588D01*
X138576038Y-93538588D02*
X138480800Y-93443350D01*
X138480800Y-93443350D02*
X138433180Y-93300493D01*
X138433180Y-93300493D02*
X138433180Y-93062398D01*
X139385561Y-74647588D02*
X139433180Y-74552350D01*
X139433180Y-74552350D02*
X139433180Y-74409493D01*
X139433180Y-74409493D02*
X139385561Y-74266636D01*
X139385561Y-74266636D02*
X139290323Y-74171398D01*
X139290323Y-74171398D02*
X139195085Y-74123779D01*
X139195085Y-74123779D02*
X139004609Y-74076160D01*
X139004609Y-74076160D02*
X138861752Y-74076160D01*
X138861752Y-74076160D02*
X138671276Y-74123779D01*
X138671276Y-74123779D02*
X138576038Y-74171398D01*
X138576038Y-74171398D02*
X138480800Y-74266636D01*
X138480800Y-74266636D02*
X138433180Y-74409493D01*
X138433180Y-74409493D02*
X138433180Y-74504731D01*
X138433180Y-74504731D02*
X138480800Y-74647588D01*
X138480800Y-74647588D02*
X138528419Y-74695207D01*
X138528419Y-74695207D02*
X138861752Y-74695207D01*
X138861752Y-74695207D02*
X138861752Y-74504731D01*
X138433180Y-75123779D02*
X139433180Y-75123779D01*
X139433180Y-75123779D02*
X138433180Y-75695207D01*
X138433180Y-75695207D02*
X139433180Y-75695207D01*
X138433180Y-76171398D02*
X139433180Y-76171398D01*
X139433180Y-76171398D02*
X139433180Y-76409493D01*
X139433180Y-76409493D02*
X139385561Y-76552350D01*
X139385561Y-76552350D02*
X139290323Y-76647588D01*
X139290323Y-76647588D02*
X139195085Y-76695207D01*
X139195085Y-76695207D02*
X139004609Y-76742826D01*
X139004609Y-76742826D02*
X138861752Y-76742826D01*
X138861752Y-76742826D02*
X138671276Y-76695207D01*
X138671276Y-76695207D02*
X138576038Y-76647588D01*
X138576038Y-76647588D02*
X138480800Y-76552350D01*
X138480800Y-76552350D02*
X138433180Y-76409493D01*
X138433180Y-76409493D02*
X138433180Y-76171398D01*
X144119600Y-91582639D02*
X144167219Y-91439782D01*
X144167219Y-91439782D02*
X144167219Y-91201687D01*
X144167219Y-91201687D02*
X144119600Y-91106449D01*
X144119600Y-91106449D02*
X144071980Y-91058830D01*
X144071980Y-91058830D02*
X143976742Y-91011211D01*
X143976742Y-91011211D02*
X143881504Y-91011211D01*
X143881504Y-91011211D02*
X143786266Y-91058830D01*
X143786266Y-91058830D02*
X143738647Y-91106449D01*
X143738647Y-91106449D02*
X143691028Y-91201687D01*
X143691028Y-91201687D02*
X143643409Y-91392163D01*
X143643409Y-91392163D02*
X143595790Y-91487401D01*
X143595790Y-91487401D02*
X143548171Y-91535020D01*
X143548171Y-91535020D02*
X143452933Y-91582639D01*
X143452933Y-91582639D02*
X143357695Y-91582639D01*
X143357695Y-91582639D02*
X143262457Y-91535020D01*
X143262457Y-91535020D02*
X143214838Y-91487401D01*
X143214838Y-91487401D02*
X143167219Y-91392163D01*
X143167219Y-91392163D02*
X143167219Y-91154068D01*
X143167219Y-91154068D02*
X143214838Y-91011211D01*
X143167219Y-90725496D02*
X143167219Y-90154068D01*
X144167219Y-90439782D02*
X143167219Y-90439782D01*
X143643409Y-89487401D02*
X143691028Y-89344544D01*
X143691028Y-89344544D02*
X143738647Y-89296925D01*
X143738647Y-89296925D02*
X143833885Y-89249306D01*
X143833885Y-89249306D02*
X143976742Y-89249306D01*
X143976742Y-89249306D02*
X144071980Y-89296925D01*
X144071980Y-89296925D02*
X144119600Y-89344544D01*
X144119600Y-89344544D02*
X144167219Y-89439782D01*
X144167219Y-89439782D02*
X144167219Y-89820734D01*
X144167219Y-89820734D02*
X143167219Y-89820734D01*
X143167219Y-89820734D02*
X143167219Y-89487401D01*
X143167219Y-89487401D02*
X143214838Y-89392163D01*
X143214838Y-89392163D02*
X143262457Y-89344544D01*
X143262457Y-89344544D02*
X143357695Y-89296925D01*
X143357695Y-89296925D02*
X143452933Y-89296925D01*
X143452933Y-89296925D02*
X143548171Y-89344544D01*
X143548171Y-89344544D02*
X143595790Y-89392163D01*
X143595790Y-89392163D02*
X143643409Y-89487401D01*
X143643409Y-89487401D02*
X143643409Y-89820734D01*
X143691028Y-88630258D02*
X144167219Y-88630258D01*
X143167219Y-88963591D02*
X143691028Y-88630258D01*
X143691028Y-88630258D02*
X143167219Y-88296925D01*
X144071980Y-78796992D02*
X144119600Y-78844611D01*
X144119600Y-78844611D02*
X144167219Y-78987468D01*
X144167219Y-78987468D02*
X144167219Y-79082706D01*
X144167219Y-79082706D02*
X144119600Y-79225563D01*
X144119600Y-79225563D02*
X144024361Y-79320801D01*
X144024361Y-79320801D02*
X143929123Y-79368420D01*
X143929123Y-79368420D02*
X143738647Y-79416039D01*
X143738647Y-79416039D02*
X143595790Y-79416039D01*
X143595790Y-79416039D02*
X143405314Y-79368420D01*
X143405314Y-79368420D02*
X143310076Y-79320801D01*
X143310076Y-79320801D02*
X143214838Y-79225563D01*
X143214838Y-79225563D02*
X143167219Y-79082706D01*
X143167219Y-79082706D02*
X143167219Y-78987468D01*
X143167219Y-78987468D02*
X143214838Y-78844611D01*
X143214838Y-78844611D02*
X143262457Y-78796992D01*
X144167219Y-78368420D02*
X143167219Y-78368420D01*
X143643409Y-78368420D02*
X143643409Y-77796992D01*
X144167219Y-77796992D02*
X143167219Y-77796992D01*
X144167219Y-76749373D02*
X143691028Y-77082706D01*
X144167219Y-77320801D02*
X143167219Y-77320801D01*
X143167219Y-77320801D02*
X143167219Y-76939849D01*
X143167219Y-76939849D02*
X143214838Y-76844611D01*
X143214838Y-76844611D02*
X143262457Y-76796992D01*
X143262457Y-76796992D02*
X143357695Y-76749373D01*
X143357695Y-76749373D02*
X143500552Y-76749373D01*
X143500552Y-76749373D02*
X143595790Y-76796992D01*
X143595790Y-76796992D02*
X143643409Y-76844611D01*
X143643409Y-76844611D02*
X143691028Y-76939849D01*
X143691028Y-76939849D02*
X143691028Y-77320801D01*
X143214838Y-75796992D02*
X143167219Y-75892230D01*
X143167219Y-75892230D02*
X143167219Y-76035087D01*
X143167219Y-76035087D02*
X143214838Y-76177944D01*
X143214838Y-76177944D02*
X143310076Y-76273182D01*
X143310076Y-76273182D02*
X143405314Y-76320801D01*
X143405314Y-76320801D02*
X143595790Y-76368420D01*
X143595790Y-76368420D02*
X143738647Y-76368420D01*
X143738647Y-76368420D02*
X143929123Y-76320801D01*
X143929123Y-76320801D02*
X144024361Y-76273182D01*
X144024361Y-76273182D02*
X144119600Y-76177944D01*
X144119600Y-76177944D02*
X144167219Y-76035087D01*
X144167219Y-76035087D02*
X144167219Y-75939849D01*
X144167219Y-75939849D02*
X144119600Y-75796992D01*
X144119600Y-75796992D02*
X144071980Y-75749373D01*
X144071980Y-75749373D02*
X143738647Y-75749373D01*
X143738647Y-75749373D02*
X143738647Y-75939849D01*
X138072905Y-88973819D02*
X138072905Y-87973819D01*
X138072905Y-87973819D02*
X138311000Y-87973819D01*
X138311000Y-87973819D02*
X138453857Y-88021438D01*
X138453857Y-88021438D02*
X138549095Y-88116676D01*
X138549095Y-88116676D02*
X138596714Y-88211914D01*
X138596714Y-88211914D02*
X138644333Y-88402390D01*
X138644333Y-88402390D02*
X138644333Y-88545247D01*
X138644333Y-88545247D02*
X138596714Y-88735723D01*
X138596714Y-88735723D02*
X138549095Y-88830961D01*
X138549095Y-88830961D02*
X138453857Y-88926200D01*
X138453857Y-88926200D02*
X138311000Y-88973819D01*
X138311000Y-88973819D02*
X138072905Y-88973819D01*
X139025286Y-88069057D02*
X139072905Y-88021438D01*
X139072905Y-88021438D02*
X139168143Y-87973819D01*
X139168143Y-87973819D02*
X139406238Y-87973819D01*
X139406238Y-87973819D02*
X139501476Y-88021438D01*
X139501476Y-88021438D02*
X139549095Y-88069057D01*
X139549095Y-88069057D02*
X139596714Y-88164295D01*
X139596714Y-88164295D02*
X139596714Y-88259533D01*
X139596714Y-88259533D02*
X139549095Y-88402390D01*
X139549095Y-88402390D02*
X138977667Y-88973819D01*
X138977667Y-88973819D02*
X139596714Y-88973819D01*
X138072905Y-79575819D02*
X138072905Y-78575819D01*
X138072905Y-78575819D02*
X138311000Y-78575819D01*
X138311000Y-78575819D02*
X138453857Y-78623438D01*
X138453857Y-78623438D02*
X138549095Y-78718676D01*
X138549095Y-78718676D02*
X138596714Y-78813914D01*
X138596714Y-78813914D02*
X138644333Y-79004390D01*
X138644333Y-79004390D02*
X138644333Y-79147247D01*
X138644333Y-79147247D02*
X138596714Y-79337723D01*
X138596714Y-79337723D02*
X138549095Y-79432961D01*
X138549095Y-79432961D02*
X138453857Y-79528200D01*
X138453857Y-79528200D02*
X138311000Y-79575819D01*
X138311000Y-79575819D02*
X138072905Y-79575819D01*
X139596714Y-79575819D02*
X139025286Y-79575819D01*
X139311000Y-79575819D02*
X139311000Y-78575819D01*
X139311000Y-78575819D02*
X139215762Y-78718676D01*
X139215762Y-78718676D02*
X139120524Y-78813914D01*
X139120524Y-78813914D02*
X139025286Y-78861533D01*
X136739333Y-79575819D02*
X136406000Y-79099628D01*
X136167905Y-79575819D02*
X136167905Y-78575819D01*
X136167905Y-78575819D02*
X136548857Y-78575819D01*
X136548857Y-78575819D02*
X136644095Y-78623438D01*
X136644095Y-78623438D02*
X136691714Y-78671057D01*
X136691714Y-78671057D02*
X136739333Y-78766295D01*
X136739333Y-78766295D02*
X136739333Y-78909152D01*
X136739333Y-78909152D02*
X136691714Y-79004390D01*
X136691714Y-79004390D02*
X136644095Y-79052009D01*
X136644095Y-79052009D02*
X136548857Y-79099628D01*
X136548857Y-79099628D02*
X136167905Y-79099628D01*
X137691714Y-79575819D02*
X137120286Y-79575819D01*
X137406000Y-79575819D02*
X137406000Y-78575819D01*
X137406000Y-78575819D02*
X137310762Y-78718676D01*
X137310762Y-78718676D02*
X137215524Y-78813914D01*
X137215524Y-78813914D02*
X137120286Y-78861533D01*
X136739333Y-88973819D02*
X136406000Y-88497628D01*
X136167905Y-88973819D02*
X136167905Y-87973819D01*
X136167905Y-87973819D02*
X136548857Y-87973819D01*
X136548857Y-87973819D02*
X136644095Y-88021438D01*
X136644095Y-88021438D02*
X136691714Y-88069057D01*
X136691714Y-88069057D02*
X136739333Y-88164295D01*
X136739333Y-88164295D02*
X136739333Y-88307152D01*
X136739333Y-88307152D02*
X136691714Y-88402390D01*
X136691714Y-88402390D02*
X136644095Y-88450009D01*
X136644095Y-88450009D02*
X136548857Y-88497628D01*
X136548857Y-88497628D02*
X136167905Y-88497628D01*
X137120286Y-88069057D02*
X137167905Y-88021438D01*
X137167905Y-88021438D02*
X137263143Y-87973819D01*
X137263143Y-87973819D02*
X137501238Y-87973819D01*
X137501238Y-87973819D02*
X137596476Y-88021438D01*
X137596476Y-88021438D02*
X137644095Y-88069057D01*
X137644095Y-88069057D02*
X137691714Y-88164295D01*
X137691714Y-88164295D02*
X137691714Y-88259533D01*
X137691714Y-88259533D02*
X137644095Y-88402390D01*
X137644095Y-88402390D02*
X137072667Y-88973819D01*
X137072667Y-88973819D02*
X137691714Y-88973819D01*
X125390667Y-80417200D02*
X125533524Y-80464819D01*
X125533524Y-80464819D02*
X125771619Y-80464819D01*
X125771619Y-80464819D02*
X125866857Y-80417200D01*
X125866857Y-80417200D02*
X125914476Y-80369580D01*
X125914476Y-80369580D02*
X125962095Y-80274342D01*
X125962095Y-80274342D02*
X125962095Y-80179104D01*
X125962095Y-80179104D02*
X125914476Y-80083866D01*
X125914476Y-80083866D02*
X125866857Y-80036247D01*
X125866857Y-80036247D02*
X125771619Y-79988628D01*
X125771619Y-79988628D02*
X125581143Y-79941009D01*
X125581143Y-79941009D02*
X125485905Y-79893390D01*
X125485905Y-79893390D02*
X125438286Y-79845771D01*
X125438286Y-79845771D02*
X125390667Y-79750533D01*
X125390667Y-79750533D02*
X125390667Y-79655295D01*
X125390667Y-79655295D02*
X125438286Y-79560057D01*
X125438286Y-79560057D02*
X125485905Y-79512438D01*
X125485905Y-79512438D02*
X125581143Y-79464819D01*
X125581143Y-79464819D02*
X125819238Y-79464819D01*
X125819238Y-79464819D02*
X125962095Y-79512438D01*
X126295429Y-79464819D02*
X126533524Y-80464819D01*
X126533524Y-80464819D02*
X126724000Y-79750533D01*
X126724000Y-79750533D02*
X126914476Y-80464819D01*
X126914476Y-80464819D02*
X127152572Y-79464819D01*
X128057333Y-80464819D02*
X127485905Y-80464819D01*
X127771619Y-80464819D02*
X127771619Y-79464819D01*
X127771619Y-79464819D02*
X127676381Y-79607676D01*
X127676381Y-79607676D02*
X127581143Y-79702914D01*
X127581143Y-79702914D02*
X127485905Y-79750533D01*
X118543167Y-88001200D02*
X118686024Y-88048819D01*
X118686024Y-88048819D02*
X118924119Y-88048819D01*
X118924119Y-88048819D02*
X119019357Y-88001200D01*
X119019357Y-88001200D02*
X119066976Y-87953580D01*
X119066976Y-87953580D02*
X119114595Y-87858342D01*
X119114595Y-87858342D02*
X119114595Y-87763104D01*
X119114595Y-87763104D02*
X119066976Y-87667866D01*
X119066976Y-87667866D02*
X119019357Y-87620247D01*
X119019357Y-87620247D02*
X118924119Y-87572628D01*
X118924119Y-87572628D02*
X118733643Y-87525009D01*
X118733643Y-87525009D02*
X118638405Y-87477390D01*
X118638405Y-87477390D02*
X118590786Y-87429771D01*
X118590786Y-87429771D02*
X118543167Y-87334533D01*
X118543167Y-87334533D02*
X118543167Y-87239295D01*
X118543167Y-87239295D02*
X118590786Y-87144057D01*
X118590786Y-87144057D02*
X118638405Y-87096438D01*
X118638405Y-87096438D02*
X118733643Y-87048819D01*
X118733643Y-87048819D02*
X118971738Y-87048819D01*
X118971738Y-87048819D02*
X119114595Y-87096438D01*
X119447929Y-87048819D02*
X119686024Y-88048819D01*
X119686024Y-88048819D02*
X119876500Y-87334533D01*
X119876500Y-87334533D02*
X120066976Y-88048819D01*
X120066976Y-88048819D02*
X120305072Y-87048819D01*
X120638405Y-87144057D02*
X120686024Y-87096438D01*
X120686024Y-87096438D02*
X120781262Y-87048819D01*
X120781262Y-87048819D02*
X121019357Y-87048819D01*
X121019357Y-87048819D02*
X121114595Y-87096438D01*
X121114595Y-87096438D02*
X121162214Y-87144057D01*
X121162214Y-87144057D02*
X121209833Y-87239295D01*
X121209833Y-87239295D02*
X121209833Y-87334533D01*
X121209833Y-87334533D02*
X121162214Y-87477390D01*
X121162214Y-87477390D02*
X120590786Y-88048819D01*
X120590786Y-88048819D02*
X121209833Y-88048819D01*
X105410095Y-76289819D02*
X105410095Y-77099342D01*
X105410095Y-77099342D02*
X105457714Y-77194580D01*
X105457714Y-77194580D02*
X105505333Y-77242200D01*
X105505333Y-77242200D02*
X105600571Y-77289819D01*
X105600571Y-77289819D02*
X105791047Y-77289819D01*
X105791047Y-77289819D02*
X105886285Y-77242200D01*
X105886285Y-77242200D02*
X105933904Y-77194580D01*
X105933904Y-77194580D02*
X105981523Y-77099342D01*
X105981523Y-77099342D02*
X105981523Y-76289819D01*
X106410095Y-76385057D02*
X106457714Y-76337438D01*
X106457714Y-76337438D02*
X106552952Y-76289819D01*
X106552952Y-76289819D02*
X106791047Y-76289819D01*
X106791047Y-76289819D02*
X106886285Y-76337438D01*
X106886285Y-76337438D02*
X106933904Y-76385057D01*
X106933904Y-76385057D02*
X106981523Y-76480295D01*
X106981523Y-76480295D02*
X106981523Y-76575533D01*
X106981523Y-76575533D02*
X106933904Y-76718390D01*
X106933904Y-76718390D02*
X106362476Y-77289819D01*
X106362476Y-77289819D02*
X106981523Y-77289819D01*
D11*
X110647237Y-85664318D02*
X110647237Y-84394318D01*
X111977714Y-85543365D02*
X111917238Y-85603842D01*
X111917238Y-85603842D02*
X111735809Y-85664318D01*
X111735809Y-85664318D02*
X111614857Y-85664318D01*
X111614857Y-85664318D02*
X111433428Y-85603842D01*
X111433428Y-85603842D02*
X111312476Y-85482889D01*
X111312476Y-85482889D02*
X111251999Y-85361937D01*
X111251999Y-85361937D02*
X111191523Y-85120032D01*
X111191523Y-85120032D02*
X111191523Y-84938603D01*
X111191523Y-84938603D02*
X111251999Y-84696699D01*
X111251999Y-84696699D02*
X111312476Y-84575746D01*
X111312476Y-84575746D02*
X111433428Y-84454794D01*
X111433428Y-84454794D02*
X111614857Y-84394318D01*
X111614857Y-84394318D02*
X111735809Y-84394318D01*
X111735809Y-84394318D02*
X111917238Y-84454794D01*
X111917238Y-84454794D02*
X111977714Y-84515270D01*
X113187238Y-85664318D02*
X112461523Y-85664318D01*
X112824380Y-85664318D02*
X112824380Y-84394318D01*
X112824380Y-84394318D02*
X112703428Y-84575746D01*
X112703428Y-84575746D02*
X112582476Y-84696699D01*
X112582476Y-84696699D02*
X112461523Y-84757175D01*
D10*
X95795180Y-83486666D02*
X95080895Y-83486666D01*
X95080895Y-83486666D02*
X94938038Y-83439047D01*
X94938038Y-83439047D02*
X94842800Y-83343809D01*
X94842800Y-83343809D02*
X94795180Y-83200952D01*
X94795180Y-83200952D02*
X94795180Y-83105714D01*
X95795180Y-83867619D02*
X95795180Y-84486666D01*
X95795180Y-84486666D02*
X95414228Y-84153333D01*
X95414228Y-84153333D02*
X95414228Y-84296190D01*
X95414228Y-84296190D02*
X95366609Y-84391428D01*
X95366609Y-84391428D02*
X95318990Y-84439047D01*
X95318990Y-84439047D02*
X95223752Y-84486666D01*
X95223752Y-84486666D02*
X94985657Y-84486666D01*
X94985657Y-84486666D02*
X94890419Y-84439047D01*
X94890419Y-84439047D02*
X94842800Y-84391428D01*
X94842800Y-84391428D02*
X94795180Y-84296190D01*
X94795180Y-84296190D02*
X94795180Y-84010476D01*
X94795180Y-84010476D02*
X94842800Y-83915238D01*
X94842800Y-83915238D02*
X94890419Y-83867619D01*
X101473000Y-78702819D02*
X101473000Y-78940914D01*
X101234905Y-78845676D02*
X101473000Y-78940914D01*
X101473000Y-78940914D02*
X101711095Y-78845676D01*
X101330143Y-79131390D02*
X101473000Y-78940914D01*
X101473000Y-78940914D02*
X101615857Y-79131390D01*
X101472999Y-79793180D02*
X101472999Y-79555085D01*
X101711094Y-79650323D02*
X101472999Y-79555085D01*
X101472999Y-79555085D02*
X101234904Y-79650323D01*
X101615856Y-79364609D02*
X101472999Y-79555085D01*
X101472999Y-79555085D02*
X101330142Y-79364609D01*
X127394619Y-87731504D02*
X128204142Y-87731504D01*
X128204142Y-87731504D02*
X128299380Y-87683885D01*
X128299380Y-87683885D02*
X128347000Y-87636266D01*
X128347000Y-87636266D02*
X128394619Y-87541028D01*
X128394619Y-87541028D02*
X128394619Y-87350552D01*
X128394619Y-87350552D02*
X128347000Y-87255314D01*
X128347000Y-87255314D02*
X128299380Y-87207695D01*
X128299380Y-87207695D02*
X128204142Y-87160076D01*
X128204142Y-87160076D02*
X127394619Y-87160076D01*
X128394619Y-86160076D02*
X128394619Y-86731504D01*
X128394619Y-86445790D02*
X127394619Y-86445790D01*
X127394619Y-86445790D02*
X127537476Y-86541028D01*
X127537476Y-86541028D02*
X127632714Y-86636266D01*
X127632714Y-86636266D02*
X127680333Y-86731504D01*
X127851819Y-89280999D02*
X128089914Y-89280999D01*
X127994676Y-89519094D02*
X128089914Y-89280999D01*
X128089914Y-89280999D02*
X127994676Y-89042904D01*
X128280390Y-89423856D02*
X128089914Y-89280999D01*
X128089914Y-89280999D02*
X128280390Y-89138142D01*
X143711461Y-84432117D02*
X142710075Y-84432117D01*
X142710075Y-84432117D02*
X142710075Y-84050637D01*
X142710075Y-84050637D02*
X142757760Y-83955267D01*
X142757760Y-83955267D02*
X142805445Y-83907582D01*
X142805445Y-83907582D02*
X142900815Y-83859897D01*
X142900815Y-83859897D02*
X143043870Y-83859897D01*
X143043870Y-83859897D02*
X143139240Y-83907582D01*
X143139240Y-83907582D02*
X143186925Y-83955267D01*
X143186925Y-83955267D02*
X143234610Y-84050637D01*
X143234610Y-84050637D02*
X143234610Y-84432117D01*
X143711461Y-82906196D02*
X143711461Y-83478416D01*
X143711461Y-83192306D02*
X142710075Y-83192306D01*
X142710075Y-83192306D02*
X142853130Y-83287676D01*
X142853130Y-83287676D02*
X142948500Y-83383046D01*
X142948500Y-83383046D02*
X142996185Y-83478416D01*
D11*
X106871052Y-84252752D02*
X106871052Y-82982752D01*
X106871052Y-82982752D02*
X107173433Y-82982752D01*
X107173433Y-82982752D02*
X107354862Y-83043228D01*
X107354862Y-83043228D02*
X107475814Y-83164180D01*
X107475814Y-83164180D02*
X107536291Y-83285133D01*
X107536291Y-83285133D02*
X107596767Y-83527037D01*
X107596767Y-83527037D02*
X107596767Y-83708466D01*
X107596767Y-83708466D02*
X107536291Y-83950371D01*
X107536291Y-83950371D02*
X107475814Y-84071323D01*
X107475814Y-84071323D02*
X107354862Y-84192276D01*
X107354862Y-84192276D02*
X107173433Y-84252752D01*
X107173433Y-84252752D02*
X106871052Y-84252752D01*
X108020100Y-82982752D02*
X108806291Y-82982752D01*
X108806291Y-82982752D02*
X108382957Y-83466561D01*
X108382957Y-83466561D02*
X108564386Y-83466561D01*
X108564386Y-83466561D02*
X108685338Y-83527037D01*
X108685338Y-83527037D02*
X108745814Y-83587514D01*
X108745814Y-83587514D02*
X108806291Y-83708466D01*
X108806291Y-83708466D02*
X108806291Y-84010847D01*
X108806291Y-84010847D02*
X108745814Y-84131799D01*
X108745814Y-84131799D02*
X108685338Y-84192276D01*
X108685338Y-84192276D02*
X108564386Y-84252752D01*
X108564386Y-84252752D02*
X108201529Y-84252752D01*
X108201529Y-84252752D02*
X108080576Y-84192276D01*
X108080576Y-84192276D02*
X108020100Y-84131799D01*
D12*
%TO.C,C1*%
X135638000Y-88024580D02*
X135638000Y-87743420D01*
X134618000Y-88024580D02*
X134618000Y-87743420D01*
%TO.C,C2*%
X133094000Y-81647420D02*
X133094000Y-81928580D01*
X134114000Y-81647420D02*
X134114000Y-81928580D01*
%TO.C,C3*%
X118874000Y-82944580D02*
X118874000Y-82663420D01*
X117854000Y-82944580D02*
X117854000Y-82663420D01*
%TO.C,C4*%
X119505000Y-82931580D02*
X119505000Y-82650420D01*
X120525000Y-82931580D02*
X120525000Y-82650420D01*
%TO.C,C5*%
X117854000Y-79248580D02*
X117854000Y-78967420D01*
X118874000Y-79248580D02*
X118874000Y-78967420D01*
%TO.C,C6*%
X120398000Y-79261580D02*
X120398000Y-78980420D01*
X119378000Y-79261580D02*
X119378000Y-78980420D01*
%TO.C,C7*%
X108837000Y-78258580D02*
X108837000Y-77977420D01*
X109857000Y-78258580D02*
X109857000Y-77977420D01*
%TO.C,C9*%
X102618000Y-89307580D02*
X102618000Y-89026420D01*
X101598000Y-89307580D02*
X101598000Y-89026420D01*
%TO.C,C10*%
X96012580Y-89406000D02*
X95731420Y-89406000D01*
X96012580Y-90426000D02*
X95731420Y-90426000D01*
%TO.C,C11*%
X127510000Y-84695420D02*
X127510000Y-84976580D01*
X126490000Y-84695420D02*
X126490000Y-84976580D01*
%TO.C,C13*%
X103364420Y-80712000D02*
X103645580Y-80712000D01*
X103364420Y-81732000D02*
X103645580Y-81732000D01*
%TO.C,C12*%
X106807580Y-81732000D02*
X106526420Y-81732000D01*
X106807580Y-80712000D02*
X106526420Y-80712000D01*
%TO.C,D2*%
X140287000Y-90748000D02*
X142972000Y-90748000D01*
X142972000Y-88828000D02*
X140287000Y-88828000D01*
X142972000Y-90748000D02*
X142972000Y-88828000D01*
%TO.C,D1*%
X140287000Y-78684000D02*
X142972000Y-78684000D01*
X142972000Y-76764000D02*
X140287000Y-76764000D01*
X142972000Y-78684000D02*
X142972000Y-76764000D01*
%TO.C,R1*%
X137493742Y-77201500D02*
X137968258Y-77201500D01*
X137493742Y-78246500D02*
X137968258Y-78246500D01*
%TO.C,R2*%
X137493742Y-89265500D02*
X137968258Y-89265500D01*
X137493742Y-90310500D02*
X137968258Y-90310500D01*
%TO.C,R_P*%
X127522500Y-89107742D02*
X127522500Y-89582258D01*
X126477500Y-89107742D02*
X126477500Y-89582258D01*
D13*
%TO.C,SW1*%
X123724000Y-77010000D02*
X123724000Y-83010000D01*
X123724000Y-83010000D02*
X129724000Y-83010000D01*
X129724000Y-83010000D02*
X129724000Y-77010000D01*
X129724000Y-77010000D02*
X123724000Y-77010000D01*
D14*
X120574000Y-77760000D02*
G75*
G02*
X120374000Y-77760000I-100000J0D01*
G01*
X120374000Y-77760000D02*
G75*
G02*
X120574000Y-77760000I100000J0D01*
G01*
D13*
%TO.C,SW2*%
X117164000Y-84594000D02*
X117164000Y-90594000D01*
X117164000Y-90594000D02*
X123164000Y-90594000D01*
X123164000Y-90594000D02*
X123164000Y-84594000D01*
X123164000Y-84594000D02*
X117164000Y-84594000D01*
D14*
X114014000Y-85344000D02*
G75*
G02*
X113814000Y-85344000I-100000J0D01*
G01*
X113814000Y-85344000D02*
G75*
G02*
X114014000Y-85344000I100000J0D01*
G01*
D15*
%TO.C,U2*%
X107721400Y-77816400D02*
X107721400Y-77511600D01*
X104622600Y-80305600D02*
X104622600Y-80610400D01*
X105130600Y-77511600D02*
X104825800Y-77816400D01*
X104622600Y-80610400D02*
X107721400Y-80610400D01*
X107721400Y-80610400D02*
X107721400Y-80305600D01*
X107721400Y-77511600D02*
X104622600Y-77511600D01*
X104622600Y-77511600D02*
X104622600Y-77816400D01*
D16*
X103987601Y-78375200D02*
G75*
G02*
X103987600Y-78248200I-15833J63500D01*
G01*
D12*
%TO.C,FB1*%
X99760122Y-90476000D02*
X98960878Y-90476000D01*
X99760122Y-89356000D02*
X98960878Y-89356000D01*
%TO.C,R4*%
X99584742Y-77328500D02*
X100059258Y-77328500D01*
X99584742Y-78373500D02*
X100059258Y-78373500D01*
%TO.C,R7*%
X112761500Y-87740258D02*
X112761500Y-87265742D01*
X113806500Y-87740258D02*
X113806500Y-87265742D01*
D14*
%TO.C,Q1*%
X108143000Y-88371000D02*
X108143000Y-87471000D01*
D17*
%TO.C,IC1*%
X116312000Y-83563000D02*
G75*
G02*
X116062000Y-83563000I-125000J0D01*
G01*
X116062000Y-83563000D02*
G75*
G02*
X116312000Y-83563000I125000J0D01*
G01*
D12*
%TO.C,R8*%
X106538500Y-87422258D02*
X106538500Y-86947742D01*
X107583500Y-87422258D02*
X107583500Y-86947742D01*
%TO.C,R9*%
X112347742Y-89520500D02*
X112822258Y-89520500D01*
X112347742Y-90565500D02*
X112822258Y-90565500D01*
D14*
%TO.C,D5*%
X109935000Y-89090000D02*
X107235000Y-89090000D01*
X110705000Y-90740000D02*
X107235000Y-90740000D01*
D15*
%TO.C,J3*%
X98569608Y-79222600D02*
X97145991Y-79222600D01*
X94366407Y-79222600D02*
X93522800Y-79222600D01*
X93522800Y-79222600D02*
X93522800Y-88417400D01*
X97145991Y-88417400D02*
X98569608Y-88417400D01*
X93522800Y-88417400D02*
X94366407Y-88417400D01*
D12*
%TO.C,R6*%
X96948258Y-78373500D02*
X96473742Y-78373500D01*
X96948258Y-77328500D02*
X96473742Y-77328500D01*
%TO.C,D4*%
X97059500Y-76779000D02*
X99744500Y-76779000D01*
X99744500Y-74859000D02*
X97059500Y-74859000D01*
X99744500Y-76779000D02*
X99744500Y-74859000D01*
D15*
%TO.C,U1*%
X133997700Y-89427050D02*
X133997700Y-85185250D01*
X128638300Y-85185250D02*
X128638300Y-89427050D01*
%TO.C,P1*%
D13*
X135288500Y-85720000D02*
G75*
G02*
X135161500Y-85720000I-63500J0D01*
G01*
X135161500Y-85720000D02*
G75*
G02*
X135288500Y-85720000I63500J0D01*
G01*
D12*
%TO.C,C8*%
X103249000Y-89307580D02*
X103249000Y-89026420D01*
X104269000Y-89307580D02*
X104269000Y-89026420D01*
%TO.C,R5*%
X103107258Y-87009500D02*
X102632742Y-87009500D01*
X103107258Y-85964500D02*
X102632742Y-85964500D01*
D14*
%TO.C,D3*%
X104440000Y-85282000D02*
X103840000Y-85282000D01*
X103840000Y-85282000D02*
X103840000Y-82358000D01*
X103840000Y-82358000D02*
X104440000Y-82358000D01*
X104440000Y-82358000D02*
X104440000Y-85282000D01*
X105990000Y-85420000D02*
X104790000Y-85420000D01*
%TD*%
M02*
