%TF.GenerationSoftware,KiCad,Pcbnew,9.0.7*%
%TF.CreationDate,2026-07-04T14:57:21-07:00*%
%TF.ProjectId,STM32_Microcontrollerx32,53544d33-325f-44d6-9963-726f636f6e74,rev?*%
%TF.SameCoordinates,Original*%
%TF.FileFunction,Copper,L1,Top*%
%TF.FilePolarity,Positive*%
%FSLAX46Y46*%
G04 Gerber Fmt 4.6, Leading zero omitted, Abs format (unit mm)*
G04 Created by KiCad (PCBNEW 9.0.7) date 2026-07-04 14:57:21*
%MOMM*%
%LPD*%
G01*
G04 APERTURE LIST*
G04 Aperture macros list*
%AMRoundRect*
0 Rectangle with rounded corners*
0 $1 Rounding radius*
0 $2 $3 $4 $5 $6 $7 $8 $9 X,Y pos of 4 corners*
0 Add a 4 corners polygon primitive as box body*
4,1,4,$2,$3,$4,$5,$6,$7,$8,$9,$2,$3,0*
0 Add four circle primitives for the rounded corners*
1,1,$1+$1,$2,$3*
1,1,$1+$1,$4,$5*
1,1,$1+$1,$6,$7*
1,1,$1+$1,$8,$9*
0 Add four rect primitives between the rounded corners*
20,1,$1+$1,$2,$3,$4,$5,0*
20,1,$1+$1,$4,$5,$6,$7,0*
20,1,$1+$1,$6,$7,$8,$9,0*
20,1,$1+$1,$8,$9,$2,$3,0*%
G04 Aperture macros list end*
%TA.AperFunction,ComponentPad*%
%ADD10C,1.700000*%
%TD*%
%TA.AperFunction,ComponentPad*%
%ADD11R,1.700000X1.700000*%
%TD*%
%TA.AperFunction,SMDPad,CuDef*%
%ADD12RoundRect,0.225000X0.250000X-0.225000X0.250000X0.225000X-0.250000X0.225000X-0.250000X-0.225000X0*%
%TD*%
%TA.AperFunction,SMDPad,CuDef*%
%ADD13RoundRect,0.225000X-0.250000X0.225000X-0.250000X-0.225000X0.250000X-0.225000X0.250000X0.225000X0*%
%TD*%
%TA.AperFunction,SMDPad,CuDef*%
%ADD14RoundRect,0.225000X0.225000X0.250000X-0.225000X0.250000X-0.225000X-0.250000X0.225000X-0.250000X0*%
%TD*%
%TA.AperFunction,SMDPad,CuDef*%
%ADD15RoundRect,0.225000X-0.225000X-0.250000X0.225000X-0.250000X0.225000X0.250000X-0.225000X0.250000X0*%
%TD*%
%TA.AperFunction,SMDPad,CuDef*%
%ADD16RoundRect,0.243750X0.243750X0.456250X-0.243750X0.456250X-0.243750X-0.456250X0.243750X-0.456250X0*%
%TD*%
%TA.AperFunction,SMDPad,CuDef*%
%ADD17RoundRect,0.200000X-0.200000X-0.275000X0.200000X-0.275000X0.200000X0.275000X-0.200000X0.275000X0*%
%TD*%
%TA.AperFunction,SMDPad,CuDef*%
%ADD18RoundRect,0.200000X-0.275000X0.200000X-0.275000X-0.200000X0.275000X-0.200000X0.275000X0.200000X0*%
%TD*%
%TA.AperFunction,SMDPad,CuDef*%
%ADD19R,2.100000X1.400000*%
%TD*%
%TA.AperFunction,SMDPad,CuDef*%
%ADD20R,0.812800X0.304800*%
%TD*%
%TA.AperFunction,SMDPad,CuDef*%
%ADD21R,1.701800X2.108200*%
%TD*%
%TA.AperFunction,SMDPad,CuDef*%
%ADD22C,1.000000*%
%TD*%
%TA.AperFunction,SMDPad,CuDef*%
%ADD23RoundRect,0.218750X0.218750X0.381250X-0.218750X0.381250X-0.218750X-0.381250X0.218750X-0.381250X0*%
%TD*%
%TA.AperFunction,SMDPad,CuDef*%
%ADD24R,1.420000X1.200000*%
%TD*%
%TA.AperFunction,SMDPad,CuDef*%
%ADD25RoundRect,0.200000X0.275000X-0.200000X0.275000X0.200000X-0.275000X0.200000X-0.275000X-0.200000X0*%
%TD*%
%TA.AperFunction,SMDPad,CuDef*%
%ADD26R,0.400000X0.900000*%
%TD*%
%TA.AperFunction,SMDPad,CuDef*%
%ADD27R,0.850000X0.300000*%
%TD*%
%TA.AperFunction,SMDPad,CuDef*%
%ADD28R,0.300000X0.850000*%
%TD*%
%TA.AperFunction,SMDPad,CuDef*%
%ADD29R,3.700000X3.700000*%
%TD*%
%TA.AperFunction,SMDPad,CuDef*%
%ADD30R,1.240000X1.120000*%
%TD*%
%TA.AperFunction,ComponentPad*%
%ADD31O,2.209800X0.990600*%
%TD*%
%TA.AperFunction,ComponentPad*%
%ADD32O,1.803400X0.990600*%
%TD*%
%TA.AperFunction,SMDPad,CuDef*%
%ADD33R,1.143000X0.609600*%
%TD*%
%TA.AperFunction,SMDPad,CuDef*%
%ADD34R,1.143000X0.304800*%
%TD*%
%TA.AperFunction,SMDPad,CuDef*%
%ADD35RoundRect,0.200000X0.200000X0.275000X-0.200000X0.275000X-0.200000X-0.275000X0.200000X-0.275000X0*%
%TD*%
%TA.AperFunction,SMDPad,CuDef*%
%ADD36R,0.558800X1.460500*%
%TD*%
%TA.AperFunction,SMDPad,CuDef*%
%ADD37R,3.251200X2.362200*%
%TD*%
%TA.AperFunction,SMDPad,CuDef*%
%ADD38R,3.500000X1.000000*%
%TD*%
%TA.AperFunction,SMDPad,CuDef*%
%ADD39R,3.400000X1.500000*%
%TD*%
%TA.AperFunction,SMDPad,CuDef*%
%ADD40R,1.200000X0.600000*%
%TD*%
%TA.AperFunction,ViaPad*%
%ADD41C,0.700000*%
%TD*%
%TA.AperFunction,ViaPad*%
%ADD42C,1.500000*%
%TD*%
%TA.AperFunction,Conductor*%
%ADD43C,0.500000*%
%TD*%
%TA.AperFunction,Conductor*%
%ADD44C,0.300000*%
%TD*%
%TA.AperFunction,Conductor*%
%ADD45C,0.250000*%
%TD*%
%TA.AperFunction,Conductor*%
%ADD46C,0.200000*%
%TD*%
G04 APERTURE END LIST*
D10*
%TO.P,J1,15,Pin_15*%
%TO.N,+3V3*%
X101600000Y-74930000D03*
%TO.P,J1,14,Pin_14*%
%TO.N,PA10*%
X104140000Y-74930000D03*
%TO.P,J1,13,Pin_13*%
%TO.N,PA9*%
X106680000Y-74930000D03*
%TO.P,J1,12,Pin_12*%
%TO.N,PA8*%
X109220000Y-74930000D03*
%TO.P,J1,11,Pin_11*%
%TO.N,PB1*%
X111760000Y-74930000D03*
%TO.P,J1,10,Pin_10*%
%TO.N,PB0*%
X114300000Y-74930000D03*
%TO.P,J1,9,Pin_9*%
%TO.N,PA7*%
X116840000Y-74930000D03*
%TO.P,J1,8,Pin_8*%
%TO.N,PA6*%
X119380000Y-74930000D03*
%TO.P,J1,7,Pin_7*%
%TO.N,PA5*%
X121920000Y-74930000D03*
%TO.P,J1,6,Pin_6*%
%TO.N,PA4*%
X124460000Y-74930000D03*
%TO.P,J1,5,Pin_5*%
%TO.N,PA3*%
X127000000Y-74930000D03*
%TO.P,J1,4,Pin_4*%
%TO.N,PA2*%
X129540000Y-74930000D03*
%TO.P,J1,3,Pin_3*%
%TO.N,PA1*%
X132080000Y-74930000D03*
%TO.P,J1,2,Pin_2*%
%TO.N,PA0*%
X134620000Y-74930000D03*
D11*
%TO.P,J1,1,Pin_1*%
%TO.N,GND*%
X137160000Y-74930000D03*
%TD*%
D12*
%TO.P,C1,2*%
%TO.N,GND*%
X135128000Y-87109000D03*
%TO.P,C1,1*%
%TO.N,5V_FILT*%
X135128000Y-88659000D03*
%TD*%
D13*
%TO.P,C2,2*%
%TO.N,+BATT*%
X133604000Y-82563000D03*
%TO.P,C2,1*%
%TO.N,GND*%
X133604000Y-81013000D03*
%TD*%
D12*
%TO.P,C3,2*%
%TO.N,+3V3*%
X118364000Y-82029000D03*
%TO.P,C3,1*%
%TO.N,GND*%
X118364000Y-83579000D03*
%TD*%
%TO.P,C4,1*%
%TO.N,GND*%
X120015000Y-83566000D03*
%TO.P,C4,2*%
%TO.N,+3V3*%
X120015000Y-82016000D03*
%TD*%
%TO.P,C5,1*%
%TO.N,+3V3*%
X118364000Y-79883000D03*
%TO.P,C5,2*%
%TO.N,GND*%
X118364000Y-78333000D03*
%TD*%
%TO.P,C6,2*%
%TO.N,GND*%
X119888000Y-78346000D03*
%TO.P,C6,1*%
%TO.N,+3V3*%
X119888000Y-79896000D03*
%TD*%
%TO.P,C7,1*%
%TO.N,+3V3*%
X109347000Y-78893000D03*
%TO.P,C7,2*%
%TO.N,GND*%
X109347000Y-77343000D03*
%TD*%
%TO.P,C9,2*%
%TO.N,GND*%
X102108000Y-88392000D03*
%TO.P,C9,1*%
%TO.N,5V_FILT*%
X102108000Y-89942000D03*
%TD*%
D14*
%TO.P,C10,2*%
%TO.N,GND*%
X95097000Y-89916000D03*
%TO.P,C10,1*%
%TO.N,/VBUS*%
X96647000Y-89916000D03*
%TD*%
D13*
%TO.P,C11,1*%
%TO.N,NRST*%
X127000000Y-84061000D03*
%TO.P,C11,2*%
%TO.N,GND*%
X127000000Y-85611000D03*
%TD*%
D15*
%TO.P,C13,1*%
%TO.N,+3V3*%
X102730000Y-81222000D03*
%TO.P,C13,2*%
%TO.N,GND*%
X104280000Y-81222000D03*
%TD*%
D14*
%TO.P,C12,1*%
%TO.N,/VIN*%
X107442000Y-81222000D03*
%TO.P,C12,2*%
%TO.N,GND*%
X105892000Y-81222000D03*
%TD*%
D16*
%TO.P,D2,2,A*%
%TO.N,Net-(D2-A)*%
X140349500Y-89788000D03*
%TO.P,D2,1,K*%
%TO.N,/STBY*%
X142224500Y-89788000D03*
%TD*%
%TO.P,D1,2,A*%
%TO.N,Net-(D1-A)*%
X140349500Y-77724000D03*
%TO.P,D1,1,K*%
%TO.N,/CHRG*%
X142224500Y-77724000D03*
%TD*%
D17*
%TO.P,R1,1*%
%TO.N,5V_FILT*%
X136906000Y-77724000D03*
%TO.P,R1,2*%
%TO.N,Net-(D1-A)*%
X138556000Y-77724000D03*
%TD*%
%TO.P,R2,1*%
%TO.N,5V_FILT*%
X136906000Y-89788000D03*
%TO.P,R2,2*%
%TO.N,Net-(D2-A)*%
X138556000Y-89788000D03*
%TD*%
D18*
%TO.P,R_P,1*%
%TO.N,/PROG*%
X127000000Y-88520000D03*
%TO.P,R_P,2*%
%TO.N,GND*%
X127000000Y-90170000D03*
%TD*%
D19*
%TO.P,SW1,2,2*%
%TO.N,NRST*%
X122174000Y-82260000D03*
%TO.P,SW1,1,1*%
%TO.N,GND*%
X122174000Y-77760000D03*
%TO.P,SW1,3*%
%TO.N,N/C*%
X131274000Y-77760000D03*
%TO.P,SW1,4*%
X131274000Y-82260000D03*
%TD*%
%TO.P,SW2,2,2*%
%TO.N,+3V3*%
X115614000Y-89844000D03*
%TO.P,SW2,1,1*%
%TO.N,BOOT0*%
X115614000Y-85344000D03*
%TO.P,SW2,3*%
%TO.N,N/C*%
X124714000Y-85344000D03*
%TO.P,SW2,4*%
X124714000Y-89844000D03*
%TD*%
D20*
%TO.P,U2,1,PGND*%
%TO.N,GND*%
X104724200Y-78299000D03*
%TO.P,U2,2,SW*%
%TO.N,/SW*%
X104724200Y-78807000D03*
%TO.P,U2,3,MODE*%
%TO.N,GND*%
X104724200Y-79315000D03*
%TO.P,U2,4,FB*%
%TO.N,+3V3*%
X104724200Y-79823000D03*
%TO.P,U2,5,EN*%
%TO.N,/VIN*%
X107619800Y-79823000D03*
%TO.P,U2,6,NC*%
%TO.N,unconnected-(U2-NC-Pad6)*%
X107619800Y-79315000D03*
%TO.P,U2,7,SGND*%
%TO.N,GND*%
X107619800Y-78807000D03*
D21*
%TO.P,U2,9,ANY*%
X106172000Y-79061000D03*
D20*
%TO.P,U2,8,VIN*%
%TO.N,/VIN*%
X107619800Y-78299000D03*
%TD*%
D22*
%TO.P,REF\u002A\u002A,*%
%TO.N,*%
X141400000Y-75311000D03*
%TD*%
%TO.P,REF\u002A\u002A,*%
%TO.N,*%
X141400000Y-92200000D03*
%TD*%
%TO.P,REF\u002A\u002A,*%
%TO.N,*%
X97730000Y-92200000D03*
%TD*%
D23*
%TO.P,FB1,1*%
%TO.N,5V_FILT*%
X100423000Y-89916000D03*
%TO.P,FB1,2*%
%TO.N,/VBUS*%
X98298000Y-89916000D03*
%TD*%
D24*
%TO.P,L1,2*%
%TO.N,+3V3*%
X102743000Y-79317000D03*
%TO.P,L1,1*%
%TO.N,/SW*%
X102743000Y-77597000D03*
%TD*%
D17*
%TO.P,R4,1*%
%TO.N,GND*%
X98997000Y-77851000D03*
%TO.P,R4,2*%
%TO.N,/CC1*%
X100647000Y-77851000D03*
%TD*%
D25*
%TO.P,R7,1*%
%TO.N,GND*%
X113284000Y-88328000D03*
%TO.P,R7,2*%
%TO.N,BOOT0*%
X113284000Y-86678000D03*
%TD*%
D26*
%TO.P,Q1,1,G*%
%TO.N,5V_FILT*%
X108593000Y-87921000D03*
%TO.P,Q1,2,S*%
%TO.N,/VIN*%
X109593000Y-87921000D03*
%TO.P,Q1,3,D*%
%TO.N,+BATT*%
X109093000Y-86321000D03*
%TD*%
D27*
%TO.P,IC1,1,VDD*%
%TO.N,+3V3*%
X115762000Y-82813000D03*
%TO.P,IC1,2,PC14-OSC32_IN*%
%TO.N,PC14*%
X115762000Y-82313000D03*
%TO.P,IC1,3,PC15-OSC32_OUT*%
%TO.N,PC15*%
X115762000Y-81813000D03*
%TO.P,IC1,4,PF2-NRST*%
%TO.N,NRST*%
X115762000Y-81313000D03*
%TO.P,IC1,5,VDDA/VREF+*%
%TO.N,+3V3*%
X115762000Y-80813000D03*
%TO.P,IC1,6,PA0-CK_IN*%
%TO.N,PA0*%
X115762000Y-80313000D03*
%TO.P,IC1,7,PA1*%
%TO.N,PA1*%
X115762000Y-79813000D03*
%TO.P,IC1,8,PA2*%
%TO.N,PA2*%
X115762000Y-79313000D03*
D28*
%TO.P,IC1,9,PA3*%
%TO.N,PA3*%
X115062000Y-78613000D03*
%TO.P,IC1,10,PA4*%
%TO.N,PA4*%
X114562000Y-78613000D03*
%TO.P,IC1,11,PA5*%
%TO.N,PA5*%
X114062000Y-78613000D03*
%TO.P,IC1,12,PA6*%
%TO.N,PA6*%
X113562000Y-78613000D03*
%TO.P,IC1,13,PA7*%
%TO.N,PA7*%
X113062000Y-78613000D03*
%TO.P,IC1,14,PB0*%
%TO.N,PB0*%
X112562000Y-78613000D03*
%TO.P,IC1,15,PB1*%
%TO.N,PB1*%
X112062000Y-78613000D03*
%TO.P,IC1,16,VSS_1*%
%TO.N,GND*%
X111562000Y-78613000D03*
D27*
%TO.P,IC1,17,VDDUSB*%
%TO.N,+3V3*%
X110862000Y-79313000D03*
%TO.P,IC1,18,PA8*%
%TO.N,PA8*%
X110862000Y-79813000D03*
%TO.P,IC1,19,PA9*%
%TO.N,PA9*%
X110862000Y-80313000D03*
%TO.P,IC1,20,PA10*%
%TO.N,PA10*%
X110862000Y-80813000D03*
%TO.P,IC1,21,PA11_[PA9]*%
%TO.N,USB_D-*%
X110862000Y-81313000D03*
%TO.P,IC1,22,PA12_[PA10]*%
%TO.N,USB_D+*%
X110862000Y-81813000D03*
%TO.P,IC1,23,PA13*%
%TO.N,PA13{slash}SWDIO*%
X110862000Y-82313000D03*
%TO.P,IC1,24,PA14*%
%TO.N,PA14{slash}SWCLK*%
X110862000Y-82813000D03*
D28*
%TO.P,IC1,25,PA15*%
%TO.N,PA15*%
X111562000Y-83513000D03*
%TO.P,IC1,26,PB3*%
%TO.N,PB3*%
X112062000Y-83513000D03*
%TO.P,IC1,27,PB4*%
%TO.N,PB4*%
X112562000Y-83513000D03*
%TO.P,IC1,28,PB5*%
%TO.N,PB5*%
X113062000Y-83513000D03*
%TO.P,IC1,29,PB6*%
%TO.N,PB6*%
X113562000Y-83513000D03*
%TO.P,IC1,30,PB7*%
%TO.N,PB7*%
X114062000Y-83513000D03*
%TO.P,IC1,31,PF3-BOOT0*%
%TO.N,BOOT0*%
X114562000Y-83513000D03*
%TO.P,IC1,32,VSS_2*%
%TO.N,GND*%
X115062000Y-83513000D03*
D29*
%TO.P,IC1,33,EP*%
X113312000Y-81063000D03*
%TD*%
D25*
%TO.P,R8,1*%
%TO.N,5V_FILT*%
X107061000Y-88010000D03*
%TO.P,R8,2*%
%TO.N,GND*%
X107061000Y-86360000D03*
%TD*%
D17*
%TO.P,R9,1*%
%TO.N,/VIN*%
X111760000Y-90043000D03*
%TO.P,R9,2*%
%TO.N,GND*%
X113410000Y-90043000D03*
%TD*%
D30*
%TO.P,D5,2,A*%
%TO.N,5V_FILT*%
X107085000Y-89915000D03*
%TO.P,D5,1,K*%
%TO.N,/VIN*%
X110085000Y-89915000D03*
%TD*%
D31*
%TO.P,J3,13,Shield_1*%
%TO.N,GND*%
X95756199Y-79500000D03*
%TO.P,J3,14,Shield_2*%
X95756199Y-88140000D03*
D32*
%TO.P,J3,15,Shield_3*%
X99756200Y-79500000D03*
%TO.P,J3,16,Shield_4*%
X99756200Y-88140000D03*
D33*
%TO.P,J3,A1/B12,GND*%
X100331199Y-80619999D03*
%TO.P,J3,A4/B9,VBUS*%
%TO.N,/VBUS*%
X100331199Y-81420000D03*
D34*
%TO.P,J3,A5,CC1*%
%TO.N,/CC1*%
X100331199Y-82570000D03*
%TO.P,J3,A6,DP1*%
%TO.N,/DP+*%
X100331199Y-83570000D03*
%TO.P,J3,A7,DN1*%
%TO.N,/DN-*%
X100331199Y-84070000D03*
%TO.P,J3,A8,SBU1*%
%TO.N,unconnected-(J3-SBU1-PadA8)*%
X100331199Y-85070000D03*
D33*
%TO.P,J3,B1/A12,GND*%
%TO.N,GND*%
X100331199Y-87019999D03*
%TO.P,J3,B4/A9,VBUS*%
%TO.N,/VBUS*%
X100331199Y-86220000D03*
D34*
%TO.P,J3,B5,CC2*%
%TO.N,/CC2*%
X100331199Y-85570060D03*
%TO.P,J3,B6,DP2*%
%TO.N,/DP+*%
X100331199Y-84570059D03*
%TO.P,J3,B7,DN2*%
%TO.N,/DN-*%
X100331199Y-83070060D03*
%TO.P,J3,B8,SBU2*%
%TO.N,unconnected-(J3-SBU2-PadB8)*%
X100331199Y-82070059D03*
%TD*%
D35*
%TO.P,R6,1*%
%TO.N,/VBUS*%
X97536000Y-77851000D03*
%TO.P,R6,2*%
%TO.N,Net-(D4-A)*%
X95886000Y-77851000D03*
%TD*%
D16*
%TO.P,D4,2,A*%
%TO.N,Net-(D4-A)*%
X97122000Y-75819000D03*
%TO.P,D4,1,K*%
%TO.N,GND*%
X98997000Y-75819000D03*
%TD*%
D36*
%TO.P,U1,1,TEMP*%
%TO.N,GND*%
X129413000Y-90030300D03*
%TO.P,U1,2,PROG*%
%TO.N,/PROG*%
X130683000Y-90030300D03*
%TO.P,U1,3,GND*%
%TO.N,GND*%
X131953000Y-90030300D03*
%TO.P,U1,4,VIN*%
%TO.N,5V_FILT*%
X133223000Y-90030300D03*
%TO.P,U1,5,BAT*%
%TO.N,+BATT*%
X133223000Y-84582000D03*
%TO.P,U1,6,STBY*%
%TO.N,/STBY*%
X131953000Y-84582000D03*
%TO.P,U1,7,CHRG*%
%TO.N,/CHRG*%
X130683000Y-84582000D03*
%TO.P,U1,8,CE*%
%TO.N,5V_FILT*%
X129413000Y-84582000D03*
D37*
%TO.P,U1,9,GND*%
%TO.N,GND*%
X131318000Y-87306150D03*
%TD*%
D38*
%TO.P,P1,2,2-*%
%TO.N,GND*%
X136825000Y-82820000D03*
%TO.P,P1,1,1+*%
%TO.N,+BATT*%
X136825000Y-84820000D03*
D39*
%TO.P,P1,P2*%
%TO.N,unconnected-(P1-PadP2)*%
X142575000Y-80470000D03*
%TO.P,P1,P1*%
%TO.N,unconnected-(P1-PadP1)*%
X142575000Y-87170000D03*
%TD*%
D10*
%TO.P,J2,15,Pin_15*%
%TO.N,+3V3*%
X101600000Y-92710000D03*
%TO.P,J2,14,Pin_14*%
%TO.N,PA13{slash}SWDIO*%
X104140000Y-92710000D03*
%TO.P,J2,13,Pin_13*%
%TO.N,PA14{slash}SWCLK*%
X106680000Y-92710000D03*
%TO.P,J2,12,Pin_12*%
%TO.N,GND*%
X109220000Y-92710000D03*
%TO.P,J2,11,Pin_11*%
%TO.N,PB4*%
X111760000Y-92710000D03*
%TO.P,J2,10,Pin_10*%
%TO.N,PB3*%
X114300000Y-92710000D03*
%TO.P,J2,9,Pin_9*%
%TO.N,PA15*%
X116840000Y-92710000D03*
%TO.P,J2,8,Pin_8*%
%TO.N,PB5*%
X119380000Y-92710000D03*
%TO.P,J2,7,Pin_7*%
%TO.N,PB6*%
X121920000Y-92710000D03*
%TO.P,J2,6,Pin_6*%
%TO.N,PB7*%
X124460000Y-92710000D03*
%TO.P,J2,5,Pin_5*%
%TO.N,BOOT0*%
X127000000Y-92710000D03*
%TO.P,J2,4,Pin_4*%
%TO.N,PC14*%
X129540000Y-92710000D03*
%TO.P,J2,3,Pin_3*%
%TO.N,PC15*%
X132080000Y-92710000D03*
%TO.P,J2,2,Pin_2*%
%TO.N,NRST*%
X134620000Y-92710000D03*
D11*
%TO.P,J2,1,Pin_1*%
%TO.N,GND*%
X137160000Y-92710000D03*
%TD*%
D12*
%TO.P,C8,1*%
%TO.N,5V_FILT*%
X103759000Y-89942000D03*
%TO.P,C8,2*%
%TO.N,GND*%
X103759000Y-88392000D03*
%TD*%
D35*
%TO.P,R5,1*%
%TO.N,GND*%
X103695000Y-86487000D03*
%TO.P,R5,2*%
%TO.N,/CC2*%
X102045000Y-86487000D03*
%TD*%
D40*
%TO.P,D3,1,I/O1_1*%
%TO.N,USB_D+*%
X105390000Y-84770000D03*
%TO.P,D3,2,GND*%
%TO.N,GND*%
X105390000Y-83820000D03*
%TO.P,D3,3,I/O2_1*%
%TO.N,USB_D-*%
X105390000Y-82870000D03*
%TO.P,D3,4,I/O2_2*%
%TO.N,/DN-*%
X102890000Y-82870000D03*
%TO.P,D3,5,VBUS*%
%TO.N,/VBUS*%
X102890000Y-83820000D03*
%TO.P,D3,6,I/O1_2*%
%TO.N,/DP+*%
X102890000Y-84770000D03*
%TD*%
D41*
%TO.N,GND*%
X105283000Y-87884000D03*
X117856000Y-85293200D03*
X98094800Y-74676000D03*
X125730000Y-77749400D03*
%TO.N,PA2*%
X128270000Y-77876400D03*
%TO.N,5V_FILT*%
X135636000Y-77724000D03*
%TO.N,BOOT0*%
X117856000Y-86741000D03*
D42*
%TO.N,5V_FILT*%
X135128000Y-90030300D03*
D41*
%TO.N,+3V3*%
X110947200Y-77165200D03*
%TO.N,PA2*%
X117043200Y-77333000D03*
%TO.N,PA3*%
X115976400Y-78384400D03*
%TO.N,PA6*%
X113893600Y-76962000D03*
%TO.N,PA1*%
X118394983Y-77333000D03*
%TO.N,GND*%
X119888000Y-77333000D03*
D42*
%TO.N,+3V3*%
X104546400Y-77165200D03*
D41*
X102021000Y-80391000D03*
%TO.N,GND*%
X106172000Y-78486000D03*
X106172000Y-79629000D03*
%TO.N,+3V3*%
X121361200Y-79908400D03*
%TO.N,PB5*%
X111113997Y-86360000D03*
%TO.N,NRST*%
X126099997Y-86995000D03*
%TO.N,+BATT*%
X134382000Y-84820000D03*
X124764800Y-86995000D03*
%TO.N,GND*%
X115189000Y-88341200D03*
%TO.N,+3V3*%
X117983000Y-89839800D03*
%TO.N,5V_FILT*%
X128397000Y-84201000D03*
%TO.N,GND*%
X127000000Y-86995000D03*
X128397000Y-90170000D03*
X114579400Y-82448400D03*
X113309400Y-82448400D03*
X113309400Y-81063000D03*
X112090200Y-82448400D03*
X114579400Y-81063000D03*
X112090200Y-81063000D03*
X114579400Y-79756000D03*
X113309400Y-79756000D03*
X112090200Y-79756000D03*
X136825000Y-81026000D03*
X135382000Y-81026000D03*
X121920000Y-84089000D03*
%TO.N,PC15*%
X123063000Y-83820000D03*
%TO.N,PC14*%
X117326380Y-82147380D03*
%TO.N,GND*%
X110617000Y-78359000D03*
X115824000Y-83693000D03*
%TO.N,+3V3*%
X116967000Y-83693000D03*
%TO.N,PB7*%
X113538000Y-85344000D03*
%TO.N,PB6*%
X112014000Y-86360000D03*
%TO.N,PB3*%
X109982000Y-84328000D03*
%TO.N,PA15*%
X110744000Y-83693000D03*
%TO.N,PA10*%
X108005040Y-82203931D03*
%TO.N,PA9*%
X108444574Y-81389624D03*
%TO.N,PA8*%
X108427621Y-80489781D03*
%TO.N,GND*%
X130302000Y-87884000D03*
X132334000Y-87884000D03*
X132334000Y-86741000D03*
X130302000Y-86741000D03*
X136652000Y-87122000D03*
%TO.N,/VIN*%
X110540800Y-88798400D03*
X106807000Y-82270600D03*
%TO.N,GND*%
X105791000Y-86360000D03*
D42*
%TO.N,5V_FILT*%
X105410000Y-89916000D03*
D41*
%TO.N,/VBUS*%
X97967800Y-83820000D03*
X104089200Y-83820000D03*
%TO.N,GND*%
X95808800Y-91363800D03*
X99060000Y-86868000D03*
X104775000Y-86487000D03*
X106299000Y-83820000D03*
X99060000Y-80772000D03*
%TO.N,PB4*%
X109572575Y-85129481D03*
%TO.N,PA14{slash}SWCLK*%
X107971575Y-85111575D03*
%TO.N,PA13{slash}SWDIO*%
X106934000Y-85090000D03*
%TD*%
D43*
%TO.N,GND*%
X104775000Y-88392000D02*
X105283000Y-87884000D01*
X98997000Y-77851000D02*
X98997000Y-75819000D01*
X98997000Y-75578200D02*
X98094800Y-74676000D01*
X98997000Y-75819000D02*
X98997000Y-75578200D01*
D44*
%TO.N,+BATT*%
X124206000Y-87553800D02*
X124764800Y-86995000D01*
X111175800Y-87553800D02*
X124206000Y-87553800D01*
X109943000Y-86321000D02*
X111175800Y-87553800D01*
X109093000Y-86321000D02*
X109943000Y-86321000D01*
D43*
%TO.N,GND*%
X98997000Y-77851000D02*
X99034600Y-77851000D01*
%TO.N,Net-(D4-A)*%
X95886000Y-77055000D02*
X97122000Y-75819000D01*
X95886000Y-77851000D02*
X95886000Y-77055000D01*
D45*
%TO.N,GND*%
X125719400Y-77760000D02*
X125730000Y-77749400D01*
X122174000Y-77760000D02*
X125719400Y-77760000D01*
D46*
%TO.N,PA2*%
X129540000Y-76606400D02*
X129540000Y-74930000D01*
X128270000Y-77876400D02*
X129540000Y-76606400D01*
D43*
%TO.N,GND*%
X115175800Y-88328000D02*
X115189000Y-88341200D01*
X113284000Y-88328000D02*
X115175800Y-88328000D01*
D45*
%TO.N,+3V3*%
X117978800Y-89844000D02*
X117983000Y-89839800D01*
X115614000Y-89844000D02*
X117978800Y-89844000D01*
D46*
%TO.N,PA0*%
X134620000Y-77774800D02*
X134620000Y-74930000D01*
X133299200Y-79095600D02*
X134620000Y-77774800D01*
D43*
%TO.N,Net-(D1-A)*%
X138556000Y-77724000D02*
X140349500Y-77724000D01*
%TO.N,5V_FILT*%
X136906000Y-77724000D02*
X135636000Y-77724000D01*
D46*
%TO.N,BOOT0*%
X116205000Y-86741000D02*
X117856000Y-86741000D01*
X115614000Y-86277000D02*
X116078000Y-86741000D01*
X116078000Y-86741000D02*
X116205000Y-86741000D01*
X115614000Y-85344000D02*
X115614000Y-86277000D01*
%TO.N,/CHRG*%
X130429000Y-80137000D02*
X129413000Y-81153000D01*
X136779000Y-80137000D02*
X130429000Y-80137000D01*
X129413000Y-82861150D02*
X130683000Y-84131150D01*
X130683000Y-84131150D02*
X130683000Y-84582000D01*
X142224500Y-77724000D02*
X141081500Y-78867000D01*
X141081500Y-78867000D02*
X138049000Y-78867000D01*
X138049000Y-78867000D02*
X136779000Y-80137000D01*
X129413000Y-81153000D02*
X129413000Y-82861150D01*
D43*
%TO.N,GND*%
X113410000Y-88454000D02*
X113284000Y-88328000D01*
X113410000Y-90043000D02*
X113410000Y-88454000D01*
D46*
%TO.N,PA3*%
X115747800Y-78613000D02*
X115976400Y-78384400D01*
X115062000Y-78613000D02*
X115747800Y-78613000D01*
%TO.N,PA2*%
X116267000Y-79313000D02*
X117043200Y-78536800D01*
X115762000Y-79313000D02*
X116267000Y-79313000D01*
%TO.N,PB1*%
X111760000Y-76962000D02*
X111760000Y-74930000D01*
X112062000Y-77264000D02*
X111760000Y-76962000D01*
X112062000Y-78613000D02*
X112062000Y-77264000D01*
%TO.N,PB0*%
X112562000Y-76668000D02*
X114300000Y-74930000D01*
X112562000Y-78613000D02*
X112562000Y-76668000D01*
%TO.N,PA7*%
X115468400Y-76301600D02*
X116840000Y-74930000D01*
X113062000Y-76872946D02*
X113633346Y-76301600D01*
X113062000Y-78613000D02*
X113062000Y-76872946D01*
X113633346Y-76301600D02*
X115468400Y-76301600D01*
%TO.N,PA6*%
X113562000Y-77293600D02*
X113893600Y-76962000D01*
X113562000Y-78613000D02*
X113562000Y-77293600D01*
%TO.N,PA5*%
X120593800Y-76256200D02*
X121920000Y-74930000D01*
X116284600Y-76256200D02*
X120593800Y-76256200D01*
X115167000Y-77373800D02*
X116284600Y-76256200D01*
X114557100Y-77373800D02*
X115167000Y-77373800D01*
X114062000Y-77868900D02*
X114557100Y-77373800D01*
X114062000Y-78613000D02*
X114062000Y-77868900D01*
%TO.N,PA4*%
X114562000Y-77936000D02*
X114562000Y-78613000D01*
X116450700Y-76657200D02*
X115333100Y-77774800D01*
X124104400Y-76657200D02*
X116450700Y-76657200D01*
X124460000Y-76301600D02*
X124104400Y-76657200D01*
X114723200Y-77774800D02*
X114562000Y-77936000D01*
X124460000Y-74930000D02*
X124460000Y-76301600D01*
X115333100Y-77774800D02*
X114723200Y-77774800D01*
%TO.N,PA1*%
X118138890Y-77333000D02*
X118394983Y-77333000D01*
X117551200Y-78079600D02*
X117551200Y-77920690D01*
X117551200Y-78903590D02*
X117551200Y-78079600D01*
X117429795Y-79024995D02*
X117551200Y-78903590D01*
X116856100Y-79661000D02*
X117029500Y-79661000D01*
X116523900Y-79661000D02*
X116856100Y-79661000D01*
X117150200Y-79540300D02*
X117150200Y-79502000D01*
X117150200Y-79502000D02*
X117150200Y-79304590D01*
X116371900Y-79813000D02*
X116523900Y-79661000D01*
X115762000Y-79813000D02*
X116371900Y-79813000D01*
X117150200Y-79304590D02*
X117429795Y-79024995D01*
X117551200Y-77920690D02*
X118138890Y-77333000D01*
X117029500Y-79661000D02*
X117150200Y-79540300D01*
%TO.N,PA0*%
X117926290Y-79095600D02*
X133299200Y-79095600D01*
X117551200Y-79470690D02*
X117926290Y-79095600D01*
X117551200Y-79706400D02*
X117551200Y-79470690D01*
X117195600Y-80062000D02*
X117551200Y-79706400D01*
X116690000Y-80062000D02*
X117195600Y-80062000D01*
X116439000Y-80313000D02*
X116690000Y-80062000D01*
X115762000Y-80313000D02*
X116439000Y-80313000D01*
%TO.N,+3V3*%
X107791254Y-77165200D02*
X104546400Y-77165200D01*
X109347000Y-78720946D02*
X107791254Y-77165200D01*
X109347000Y-78893000D02*
X109347000Y-78720946D01*
X109347000Y-78893000D02*
X109347000Y-78720945D01*
D45*
%TO.N,GND*%
X104724200Y-78299000D02*
X105410000Y-78299000D01*
X105410000Y-78299000D02*
X106172000Y-79061000D01*
D43*
%TO.N,/VIN*%
X107442000Y-81222000D02*
X107442000Y-81635600D01*
X107442000Y-80645000D02*
X107619800Y-80467200D01*
X107619800Y-80467200D02*
X107619800Y-79918400D01*
X107442000Y-81222000D02*
X107442000Y-80645000D01*
D45*
%TO.N,+3V3*%
X103249000Y-79823000D02*
X102743000Y-79317000D01*
X104724200Y-79823000D02*
X103249000Y-79823000D01*
D43*
X102021000Y-80513000D02*
X102730000Y-81222000D01*
X102021000Y-80391000D02*
X102021000Y-80513000D01*
D45*
%TO.N,GND*%
X106172000Y-79061000D02*
X106172000Y-78486000D01*
%TO.N,/SW*%
X104724200Y-78807000D02*
X104021400Y-78807000D01*
X104021400Y-78807000D02*
X102811400Y-77597000D01*
X102811400Y-77597000D02*
X102743000Y-77597000D01*
%TO.N,GND*%
X106426000Y-78807000D02*
X106172000Y-79061000D01*
X107619800Y-78807000D02*
X106426000Y-78807000D01*
D43*
X105892000Y-79341000D02*
X106172000Y-79061000D01*
X104280000Y-81222000D02*
X105892000Y-81222000D01*
%TO.N,+3V3*%
X102743000Y-79317000D02*
X102743000Y-79669000D01*
D45*
X102730000Y-79330000D02*
X102743000Y-79317000D01*
D43*
X102743000Y-81209000D02*
X102730000Y-81222000D01*
X102743000Y-79317000D02*
X102743000Y-81209000D01*
%TO.N,GND*%
X105892000Y-81222000D02*
X105892000Y-79341000D01*
%TO.N,+3V3*%
X102743000Y-79669000D02*
X102021000Y-80391000D01*
D45*
%TO.N,GND*%
X104724200Y-79315000D02*
X105918000Y-79315000D01*
%TO.N,+3V3*%
X102730000Y-81222000D02*
X104129000Y-79823000D01*
%TO.N,GND*%
X105918000Y-79315000D02*
X106172000Y-79061000D01*
%TO.N,+3V3*%
X104129000Y-79823000D02*
X104724200Y-79823000D01*
D46*
X109347000Y-78893000D02*
X109347000Y-78663800D01*
X121348800Y-79896000D02*
X121361200Y-79908400D01*
X119888000Y-79896000D02*
X121348800Y-79896000D01*
%TO.N,PB5*%
X111113997Y-85990003D02*
X111113997Y-86360000D01*
X111760000Y-85344000D02*
X111113997Y-85990003D01*
X112042200Y-85344000D02*
X111760000Y-85344000D01*
X113062000Y-84324200D02*
X112042200Y-85344000D01*
X113062000Y-83513000D02*
X113062000Y-84324200D01*
%TO.N,PB6*%
X113562000Y-84391300D02*
X113562000Y-83513000D01*
X112014000Y-85939300D02*
X113562000Y-84391300D01*
X112014000Y-86106000D02*
X112014000Y-85939300D01*
%TO.N,NRST*%
X126111000Y-86983997D02*
X126099997Y-86995000D01*
X126111000Y-84389000D02*
X126111000Y-86983997D01*
X125923000Y-84201000D02*
X126111000Y-84389000D01*
X126063000Y-84061000D02*
X127000000Y-84061000D01*
X125923000Y-84201000D02*
X126063000Y-84061000D01*
D43*
%TO.N,5V_FILT*%
X128778000Y-84582000D02*
X128397000Y-84201000D01*
X129413000Y-84582000D02*
X128778000Y-84582000D01*
%TO.N,GND*%
X127000000Y-85611000D02*
X127000000Y-86995000D01*
D45*
%TO.N,/PROG*%
X128777000Y-88520000D02*
X127000000Y-88520000D01*
D43*
%TO.N,GND*%
X129273300Y-90170000D02*
X129413000Y-90030300D01*
X128397000Y-90170000D02*
X129273300Y-90170000D01*
X127000000Y-90170000D02*
X128397000Y-90170000D01*
D46*
%TO.N,NRST*%
X124460000Y-84201000D02*
X125923000Y-84201000D01*
X123698000Y-83439000D02*
X124460000Y-84201000D01*
X123698000Y-83434000D02*
X123698000Y-83439000D01*
X122524000Y-82260000D02*
X123698000Y-83434000D01*
X122174000Y-82260000D02*
X122524000Y-82260000D01*
%TO.N,/STBY*%
X139446000Y-88519000D02*
X136721850Y-85794850D01*
X140955500Y-88519000D02*
X139446000Y-88519000D01*
X136721850Y-85794850D02*
X132715000Y-85794850D01*
X132715000Y-85794850D02*
X131953000Y-85032850D01*
X142224500Y-89788000D02*
X140955500Y-88519000D01*
X131953000Y-85032850D02*
X131953000Y-84582000D01*
D45*
%TO.N,/PROG*%
X128778000Y-88519000D02*
X128777000Y-88520000D01*
X130683000Y-90030300D02*
X130683000Y-89579450D01*
X130683000Y-89579450D02*
X130003550Y-88900000D01*
X130003550Y-88900000D02*
X129159000Y-88900000D01*
X129159000Y-88900000D02*
X128778000Y-88519000D01*
D43*
%TO.N,GND*%
X136825000Y-81072000D02*
X136779000Y-81026000D01*
X136825000Y-82820000D02*
X136825000Y-81072000D01*
X135369000Y-81013000D02*
X135382000Y-81026000D01*
X133604000Y-81013000D02*
X135369000Y-81013000D01*
X136825000Y-82820000D02*
X136825000Y-82469000D01*
%TO.N,+BATT*%
X133604000Y-84042000D02*
X134382000Y-84820000D01*
X133604000Y-83439000D02*
X133604000Y-84042000D01*
X133604000Y-83439000D02*
X133604000Y-82563000D01*
X134366000Y-84836000D02*
X134382000Y-84820000D01*
X134382000Y-84820000D02*
X136825000Y-84820000D01*
X134112000Y-84582000D02*
X134366000Y-84836000D01*
X133223000Y-84582000D02*
X134112000Y-84582000D01*
X133223000Y-83820000D02*
X133604000Y-83439000D01*
X133223000Y-84582000D02*
X133223000Y-83820000D01*
D46*
%TO.N,GND*%
X119875000Y-78333000D02*
X119888000Y-78346000D01*
X118364000Y-78333000D02*
X119875000Y-78333000D01*
%TO.N,+3V3*%
X117784000Y-80463000D02*
X118364000Y-79883000D01*
X116955906Y-80463000D02*
X117784000Y-80463000D01*
X116605906Y-80813000D02*
X116955906Y-80463000D01*
X115762000Y-80813000D02*
X116605906Y-80813000D01*
%TO.N,NRST*%
X120778000Y-80864000D02*
X122174000Y-82260000D01*
X117122006Y-80864000D02*
X120778000Y-80864000D01*
X116673006Y-81313000D02*
X117122006Y-80864000D01*
X115762000Y-81313000D02*
X116673006Y-81313000D01*
D45*
%TO.N,GND*%
X120538000Y-84089000D02*
X121920000Y-84089000D01*
X120015000Y-83566000D02*
X120538000Y-84089000D01*
D46*
%TO.N,PC15*%
X120823000Y-83261000D02*
X121001000Y-83439000D01*
X120823000Y-81598890D02*
X120823000Y-83261000D01*
X121001000Y-83439000D02*
X121285000Y-83439000D01*
X120489110Y-81265000D02*
X120823000Y-81598890D01*
X121285000Y-83439000D02*
X122682000Y-83439000D01*
X116740106Y-81813000D02*
X117288106Y-81265000D01*
X117288106Y-81265000D02*
X120489110Y-81265000D01*
X122682000Y-83439000D02*
X123063000Y-83820000D01*
X115762000Y-81813000D02*
X116740106Y-81813000D01*
%TO.N,PC14*%
X117160760Y-82313000D02*
X117326380Y-82147380D01*
X115762000Y-82313000D02*
X117160760Y-82313000D01*
%TO.N,GND*%
X110871000Y-78613000D02*
X110617000Y-78359000D01*
X111562000Y-78613000D02*
X110871000Y-78613000D01*
X109601000Y-77343000D02*
X110617000Y-78359000D01*
X109347000Y-77343000D02*
X109601000Y-77343000D01*
%TO.N,+3V3*%
X109767000Y-79313000D02*
X109347000Y-78893000D01*
X110862000Y-79313000D02*
X109767000Y-79313000D01*
%TO.N,GND*%
X115644000Y-83513000D02*
X115824000Y-83693000D01*
X115062000Y-83513000D02*
X115644000Y-83513000D01*
%TO.N,+3V3*%
X116840000Y-83553000D02*
X118364000Y-82029000D01*
X116840000Y-83566000D02*
X116840000Y-83553000D01*
X116967000Y-83693000D02*
X116840000Y-83566000D01*
X117580000Y-82813000D02*
X118364000Y-82029000D01*
X115762000Y-82813000D02*
X117580000Y-82813000D01*
X115762000Y-82813000D02*
X116087000Y-82813000D01*
X116087000Y-82813000D02*
X116967000Y-83693000D01*
%TO.N,GND*%
X111588000Y-78639000D02*
X111588000Y-79339000D01*
X111562000Y-78613000D02*
X111588000Y-78639000D01*
X115013000Y-83464000D02*
X115013000Y-82764000D01*
X115062000Y-83513000D02*
X115013000Y-83464000D01*
%TO.N,BOOT0*%
X114280000Y-86678000D02*
X113284000Y-86678000D01*
X115614000Y-85344000D02*
X114280000Y-86678000D01*
X114562000Y-84292000D02*
X115614000Y-85344000D01*
X114562000Y-83513000D02*
X114562000Y-84292000D01*
%TO.N,PB7*%
X114062000Y-84820000D02*
X113538000Y-85344000D01*
X114062000Y-83513000D02*
X114062000Y-84820000D01*
%TO.N,PB4*%
X110613519Y-85129481D02*
X109572575Y-85129481D01*
X110998000Y-84745000D02*
X110613519Y-85129481D01*
X111741900Y-84745000D02*
X110998000Y-84745000D01*
X112074100Y-84745000D02*
X111741900Y-84745000D01*
X112562000Y-84257100D02*
X112074100Y-84745000D01*
X112562000Y-83513000D02*
X112562000Y-84257100D01*
%TO.N,PB3*%
X112062000Y-84190000D02*
X111908000Y-84344000D01*
X109998000Y-84344000D02*
X109982000Y-84328000D01*
X111908000Y-84344000D02*
X109998000Y-84344000D01*
X112062000Y-83513000D02*
X112062000Y-84190000D01*
%TO.N,PA15*%
X110924000Y-83513000D02*
X110744000Y-83693000D01*
X111562000Y-83513000D02*
X110924000Y-83513000D01*
%TO.N,PA14{slash}SWCLK*%
X110358699Y-82813000D02*
X109285849Y-83885850D01*
X110862000Y-82813000D02*
X110358699Y-82813000D01*
%TO.N,USB_D-*%
X110224499Y-81313000D02*
X110862000Y-81313000D01*
X110199499Y-81338000D02*
X110224499Y-81313000D01*
X108467021Y-82854931D02*
X109983952Y-81338000D01*
X109983952Y-81338000D02*
X110199499Y-81338000D01*
X107995542Y-82854931D02*
X108467021Y-82854931D01*
X106290001Y-82870000D02*
X107015001Y-83595000D01*
X107255473Y-83595000D02*
X107995542Y-82854931D01*
X107015001Y-83595000D02*
X107255473Y-83595000D01*
X105390000Y-82870000D02*
X106290001Y-82870000D01*
%TO.N,USB_D+*%
X106290001Y-84770000D02*
X105390000Y-84770000D01*
X107441868Y-84045000D02*
X107015001Y-84045000D01*
X107808434Y-83678434D02*
X107784621Y-83702248D01*
X108181958Y-83304911D02*
X107808434Y-83678434D01*
X107784621Y-83702248D02*
X107441868Y-84045000D01*
X108732588Y-83304911D02*
X108181958Y-83304911D01*
X107015001Y-84045000D02*
X106290001Y-84770000D01*
X110224499Y-81813000D02*
X108732588Y-83304911D01*
X110862000Y-81813000D02*
X110224499Y-81813000D01*
%TO.N,PA10*%
X108550921Y-82203931D02*
X108005040Y-82203931D01*
X109941852Y-80813000D02*
X108550921Y-82203931D01*
X110862000Y-80813000D02*
X109941852Y-80813000D01*
%TO.N,PA9*%
X108475376Y-81389624D02*
X108444574Y-81389624D01*
X109552000Y-80313000D02*
X108475376Y-81389624D01*
X110862000Y-80313000D02*
X109552000Y-80313000D01*
%TO.N,PA8*%
X109104402Y-79813000D02*
X108427621Y-80489781D01*
X110862000Y-79813000D02*
X109104402Y-79813000D01*
D43*
%TO.N,GND*%
X130879850Y-87306150D02*
X130302000Y-87884000D01*
X131318000Y-87306150D02*
X130879850Y-87306150D01*
X131756150Y-87306150D02*
X132334000Y-87884000D01*
X131318000Y-87306150D02*
X131756150Y-87306150D01*
X131768850Y-87306150D02*
X132334000Y-86741000D01*
X131318000Y-87306150D02*
X131768850Y-87306150D01*
X130867150Y-87306150D02*
X130302000Y-86741000D01*
X131318000Y-87306150D02*
X130867150Y-87306150D01*
X131953000Y-90030300D02*
X131953000Y-87941150D01*
X131953000Y-87941150D02*
X131318000Y-87306150D01*
%TO.N,Net-(D2-A)*%
X138556000Y-89788000D02*
X140349500Y-89788000D01*
%TO.N,GND*%
X136639000Y-87109000D02*
X136652000Y-87122000D01*
X135128000Y-87109000D02*
X136639000Y-87109000D01*
%TO.N,5V_FILT*%
X135128000Y-90030300D02*
X135128000Y-88659000D01*
X135128000Y-88659000D02*
X134594300Y-88659000D01*
X134594300Y-88659000D02*
X133223000Y-90030300D01*
X135777000Y-88659000D02*
X136906000Y-89788000D01*
X135128000Y-88659000D02*
X135777000Y-88659000D01*
X136663700Y-90030300D02*
X136906000Y-89788000D01*
X133223000Y-90030300D02*
X136663700Y-90030300D01*
D46*
%TO.N,+3V3*%
X119875000Y-79883000D02*
X119888000Y-79896000D01*
X118364000Y-79883000D02*
X119875000Y-79883000D01*
D45*
%TO.N,GND*%
X118377000Y-83566000D02*
X118364000Y-83579000D01*
X120015000Y-83566000D02*
X118377000Y-83566000D01*
%TO.N,+3V3*%
X120002000Y-82029000D02*
X120015000Y-82016000D01*
X118364000Y-82029000D02*
X120002000Y-82029000D01*
D43*
%TO.N,/VIN*%
X110273000Y-87921000D02*
X110871000Y-88519000D01*
X109593000Y-87921000D02*
X110273000Y-87921000D01*
X110085000Y-89305000D02*
X110871000Y-88519000D01*
X110085000Y-89915000D02*
X110085000Y-89305000D01*
X111760000Y-89408000D02*
X110871000Y-88519000D01*
X111760000Y-90043000D02*
X111760000Y-89408000D01*
X110213000Y-90043000D02*
X110085000Y-89915000D01*
X111760000Y-90043000D02*
X110213000Y-90043000D01*
X109593000Y-89423000D02*
X110085000Y-89915000D01*
X109593000Y-87921000D02*
X109593000Y-89423000D01*
X107442000Y-81635600D02*
X106807000Y-82270600D01*
D46*
%TO.N,+3V3*%
X109358000Y-79018000D02*
X109347000Y-79007000D01*
D45*
%TO.N,/VIN*%
X108458000Y-79687600D02*
X108458000Y-78434400D01*
X108322600Y-79823000D02*
X108458000Y-79687600D01*
X108322600Y-78299000D02*
X107619800Y-78299000D01*
X107619800Y-79823000D02*
X108322600Y-79823000D01*
X108458000Y-78434400D02*
X108322600Y-78299000D01*
%TO.N,/CC1*%
X101346000Y-79502000D02*
X100647000Y-78803000D01*
X100647000Y-78803000D02*
X100647000Y-77851000D01*
X101346000Y-82296000D02*
X101346000Y-79502000D01*
X101072000Y-82570000D02*
X101346000Y-82296000D01*
X100331199Y-82570000D02*
X101072000Y-82570000D01*
D43*
%TO.N,/VBUS*%
X97536000Y-80380786D02*
X97536000Y-77851000D01*
X98728214Y-81573000D02*
X97536000Y-80380786D01*
%TO.N,GND*%
X107061000Y-86360000D02*
X105791000Y-86360000D01*
%TO.N,5V_FILT*%
X108504000Y-88010000D02*
X108593000Y-87921000D01*
X107061000Y-88010000D02*
X108504000Y-88010000D01*
X107085000Y-88034000D02*
X107061000Y-88010000D01*
X107085000Y-89915000D02*
X107085000Y-88034000D01*
X107084000Y-89916000D02*
X107085000Y-89915000D01*
X105410000Y-89916000D02*
X107084000Y-89916000D01*
X102108000Y-89942000D02*
X103759000Y-89942000D01*
X102082000Y-89916000D02*
X102108000Y-89942000D01*
X100423000Y-89916000D02*
X102082000Y-89916000D01*
%TO.N,GND*%
X103759000Y-88392000D02*
X104775000Y-88392000D01*
%TO.N,5V_FILT*%
X105384000Y-89942000D02*
X105410000Y-89916000D01*
X103759000Y-89942000D02*
X105384000Y-89942000D01*
%TO.N,GND*%
X102108000Y-88392000D02*
X103759000Y-88392000D01*
%TO.N,/VBUS*%
X97967800Y-84643014D02*
X97967800Y-83820000D01*
X99544786Y-86220000D02*
X97967800Y-84643014D01*
X100331199Y-86220000D02*
X99544786Y-86220000D01*
X99544786Y-81420000D02*
X97967800Y-82996986D01*
X97967800Y-82996986D02*
X97967800Y-83820000D01*
X100331199Y-81420000D02*
X99544786Y-81420000D01*
X102890000Y-83820000D02*
X104089200Y-83820000D01*
%TO.N,GND*%
X95097000Y-90652000D02*
X95808800Y-91363800D01*
X95097000Y-89916000D02*
X95097000Y-90652000D01*
%TO.N,/VBUS*%
X97790000Y-88773000D02*
X96647000Y-89916000D01*
X97840800Y-88773000D02*
X97790000Y-88773000D01*
X98298000Y-89230200D02*
X98298000Y-89916000D01*
X97840800Y-88773000D02*
X98298000Y-89230200D01*
X98221800Y-89916000D02*
X98298000Y-89916000D01*
X97840800Y-86954414D02*
X97840800Y-88773000D01*
X98506307Y-86288907D02*
X97840800Y-86954414D01*
X98890000Y-81734786D02*
X98728214Y-81573000D01*
X98890000Y-82448400D02*
X98890000Y-81734786D01*
X98890000Y-82448400D02*
X98890000Y-82074786D01*
X98890000Y-85905214D02*
X98890000Y-85565214D01*
X98506307Y-86288907D02*
X98890000Y-85905214D01*
X98728214Y-86067000D02*
X98506307Y-86288907D01*
X99391786Y-86067000D02*
X98728214Y-86067000D01*
X99544786Y-86220000D02*
X99391786Y-86067000D01*
%TO.N,GND*%
X99211999Y-87019999D02*
X99060000Y-86868000D01*
X100331199Y-87019999D02*
X99211999Y-87019999D01*
X103695000Y-86487000D02*
X104775000Y-86487000D01*
D46*
%TO.N,/DN-*%
X101174395Y-83070060D02*
X101203699Y-83040756D01*
X100331199Y-83070060D02*
X101174395Y-83070060D01*
X101203699Y-83040756D02*
X101374455Y-82870000D01*
X101203699Y-83423699D02*
X101203699Y-83040756D01*
X101346000Y-83566000D02*
X101203699Y-83423699D01*
X101854000Y-83566000D02*
X101346000Y-83566000D01*
X101981000Y-83693000D02*
X101854000Y-83566000D01*
X101981000Y-83947000D02*
X101981000Y-83693000D01*
X101854000Y-84074000D02*
X101981000Y-83947000D01*
X101850000Y-84070000D02*
X101854000Y-84074000D01*
X100331199Y-84070000D02*
X101850000Y-84070000D01*
%TO.N,/DP+*%
X99505358Y-84570059D02*
X100331199Y-84570059D01*
X99441000Y-84505701D02*
X99505358Y-84570059D01*
X99441000Y-83634299D02*
X99441000Y-84505701D01*
X100331199Y-83570000D02*
X99505299Y-83570000D01*
X99505299Y-83570000D02*
X99441000Y-83634299D01*
%TO.N,/DN-*%
X101374455Y-82870000D02*
X102890000Y-82870000D01*
D45*
%TO.N,/CC2*%
X100331199Y-85570060D02*
X101128060Y-85570060D01*
X101128060Y-85570060D02*
X102045000Y-86487000D01*
D46*
%TO.N,/DP+*%
X101686400Y-84770000D02*
X102890000Y-84770000D01*
X100331199Y-84570059D02*
X101486459Y-84570059D01*
X101486459Y-84570059D02*
X101686400Y-84770000D01*
D43*
%TO.N,GND*%
X105390000Y-83820000D02*
X106299000Y-83820000D01*
%TO.N,/VBUS*%
X99544786Y-86220000D02*
X98890000Y-85565214D01*
X98890000Y-85565214D02*
X98890000Y-82448400D01*
X98890000Y-82074786D02*
X99544786Y-81420000D01*
X99544786Y-81420000D02*
X99391786Y-81573000D01*
X99391786Y-81573000D02*
X98728214Y-81573000D01*
%TO.N,GND*%
X99212001Y-80619999D02*
X99060000Y-80772000D01*
X100331199Y-80619999D02*
X99212001Y-80619999D01*
D46*
X119888000Y-78346000D02*
X119888000Y-77343000D01*
%TO.N,PA14{slash}SWCLK*%
X108060124Y-85111575D02*
X107971575Y-85111575D01*
X109285849Y-83885850D02*
X108060124Y-85111575D01*
%TO.N,PA13{slash}SWDIO*%
X110862000Y-82313000D02*
X110291599Y-82313000D01*
X110291599Y-82313000D02*
X108898688Y-83705911D01*
X108898688Y-83705911D02*
X108458000Y-83705911D01*
X108458000Y-83705911D02*
X107073911Y-85090000D01*
X107073911Y-85090000D02*
X106934000Y-85090000D01*
%TO.N,PA2*%
X117043200Y-78536800D02*
X117043200Y-77333000D01*
%TD*%
%TA.AperFunction,Conductor*%
%TO.N,/VBUS*%
G36*
X98734117Y-82453087D02*
G01*
X98786674Y-82499125D01*
X98806000Y-82565603D01*
X98806000Y-85171638D01*
X98786315Y-85238677D01*
X98733511Y-85284432D01*
X98664353Y-85294376D01*
X98600797Y-85265351D01*
X98594319Y-85259319D01*
X97953319Y-84618319D01*
X97919834Y-84556996D01*
X97917000Y-84530638D01*
X97917000Y-83115032D01*
X97936685Y-83047993D01*
X97960302Y-83020884D01*
X98491463Y-82565603D01*
X98601303Y-82471454D01*
X98665013Y-82442772D01*
X98734117Y-82453087D01*
G37*
%TD.AperFunction*%
%TD*%
M02*
