%TF.GenerationSoftware,KiCad,Pcbnew,9.0.7*%
%TF.CreationDate,2026-07-04T14:57:21-07:00*%
%TF.ProjectId,STM32_Microcontrollerx32,53544d33-325f-44d6-9963-726f636f6e74,rev?*%
%TF.SameCoordinates,Original*%
%TF.FileFunction,Legend,Bot*%
%TF.FilePolarity,Positive*%
%FSLAX46Y46*%
G04 Gerber Fmt 4.6, Leading zero omitted, Abs format (unit mm)*
G04 Created by KiCad (PCBNEW 9.0.7) date 2026-07-04 14:57:21*
%MOMM*%
%LPD*%
G01*
G04 APERTURE LIST*
%ADD10C,0.150000*%
%ADD11C,0.120000*%
G04 APERTURE END LIST*
D10*
X143332200Y-75105714D02*
X143379819Y-75248571D01*
X143379819Y-75248571D02*
X143379819Y-75486666D01*
X143379819Y-75486666D02*
X143332200Y-75581904D01*
X143332200Y-75581904D02*
X143284580Y-75629523D01*
X143284580Y-75629523D02*
X143189342Y-75677142D01*
X143189342Y-75677142D02*
X143094104Y-75677142D01*
X143094104Y-75677142D02*
X142998866Y-75629523D01*
X142998866Y-75629523D02*
X142951247Y-75581904D01*
X142951247Y-75581904D02*
X142903628Y-75486666D01*
X142903628Y-75486666D02*
X142856009Y-75296190D01*
X142856009Y-75296190D02*
X142808390Y-75200952D01*
X142808390Y-75200952D02*
X142760771Y-75153333D01*
X142760771Y-75153333D02*
X142665533Y-75105714D01*
X142665533Y-75105714D02*
X142570295Y-75105714D01*
X142570295Y-75105714D02*
X142475057Y-75153333D01*
X142475057Y-75153333D02*
X142427438Y-75200952D01*
X142427438Y-75200952D02*
X142379819Y-75296190D01*
X142379819Y-75296190D02*
X142379819Y-75534285D01*
X142379819Y-75534285D02*
X142427438Y-75677142D01*
X142379819Y-75962857D02*
X142379819Y-76534285D01*
X143379819Y-76248571D02*
X142379819Y-76248571D01*
X143379819Y-76867619D02*
X142379819Y-76867619D01*
X142379819Y-76867619D02*
X143094104Y-77200952D01*
X143094104Y-77200952D02*
X142379819Y-77534285D01*
X142379819Y-77534285D02*
X143379819Y-77534285D01*
X142379819Y-77915238D02*
X142379819Y-78534285D01*
X142379819Y-78534285D02*
X142760771Y-78200952D01*
X142760771Y-78200952D02*
X142760771Y-78343809D01*
X142760771Y-78343809D02*
X142808390Y-78439047D01*
X142808390Y-78439047D02*
X142856009Y-78486666D01*
X142856009Y-78486666D02*
X142951247Y-78534285D01*
X142951247Y-78534285D02*
X143189342Y-78534285D01*
X143189342Y-78534285D02*
X143284580Y-78486666D01*
X143284580Y-78486666D02*
X143332200Y-78439047D01*
X143332200Y-78439047D02*
X143379819Y-78343809D01*
X143379819Y-78343809D02*
X143379819Y-78058095D01*
X143379819Y-78058095D02*
X143332200Y-77962857D01*
X143332200Y-77962857D02*
X143284580Y-77915238D01*
X142475057Y-78915238D02*
X142427438Y-78962857D01*
X142427438Y-78962857D02*
X142379819Y-79058095D01*
X142379819Y-79058095D02*
X142379819Y-79296190D01*
X142379819Y-79296190D02*
X142427438Y-79391428D01*
X142427438Y-79391428D02*
X142475057Y-79439047D01*
X142475057Y-79439047D02*
X142570295Y-79486666D01*
X142570295Y-79486666D02*
X142665533Y-79486666D01*
X142665533Y-79486666D02*
X142808390Y-79439047D01*
X142808390Y-79439047D02*
X143379819Y-78867619D01*
X143379819Y-78867619D02*
X143379819Y-79486666D01*
X142379819Y-79915238D02*
X143189342Y-79915238D01*
X143189342Y-79915238D02*
X143284580Y-79962857D01*
X143284580Y-79962857D02*
X143332200Y-80010476D01*
X143332200Y-80010476D02*
X143379819Y-80105714D01*
X143379819Y-80105714D02*
X143379819Y-80296190D01*
X143379819Y-80296190D02*
X143332200Y-80391428D01*
X143332200Y-80391428D02*
X143284580Y-80439047D01*
X143284580Y-80439047D02*
X143189342Y-80486666D01*
X143189342Y-80486666D02*
X142379819Y-80486666D01*
X142379819Y-81153333D02*
X142379819Y-81248571D01*
X142379819Y-81248571D02*
X142427438Y-81343809D01*
X142427438Y-81343809D02*
X142475057Y-81391428D01*
X142475057Y-81391428D02*
X142570295Y-81439047D01*
X142570295Y-81439047D02*
X142760771Y-81486666D01*
X142760771Y-81486666D02*
X142998866Y-81486666D01*
X142998866Y-81486666D02*
X143189342Y-81439047D01*
X143189342Y-81439047D02*
X143284580Y-81391428D01*
X143284580Y-81391428D02*
X143332200Y-81343809D01*
X143332200Y-81343809D02*
X143379819Y-81248571D01*
X143379819Y-81248571D02*
X143379819Y-81153333D01*
X143379819Y-81153333D02*
X143332200Y-81058095D01*
X143332200Y-81058095D02*
X143284580Y-81010476D01*
X143284580Y-81010476D02*
X143189342Y-80962857D01*
X143189342Y-80962857D02*
X142998866Y-80915238D01*
X142998866Y-80915238D02*
X142760771Y-80915238D01*
X142760771Y-80915238D02*
X142570295Y-80962857D01*
X142570295Y-80962857D02*
X142475057Y-81010476D01*
X142475057Y-81010476D02*
X142427438Y-81058095D01*
X142427438Y-81058095D02*
X142379819Y-81153333D01*
X142379819Y-81820000D02*
X142379819Y-82486666D01*
X142379819Y-82486666D02*
X143379819Y-82058095D01*
X142379819Y-82772381D02*
X142379819Y-83391428D01*
X142379819Y-83391428D02*
X142760771Y-83058095D01*
X142760771Y-83058095D02*
X142760771Y-83200952D01*
X142760771Y-83200952D02*
X142808390Y-83296190D01*
X142808390Y-83296190D02*
X142856009Y-83343809D01*
X142856009Y-83343809D02*
X142951247Y-83391428D01*
X142951247Y-83391428D02*
X143189342Y-83391428D01*
X143189342Y-83391428D02*
X143284580Y-83343809D01*
X143284580Y-83343809D02*
X143332200Y-83296190D01*
X143332200Y-83296190D02*
X143379819Y-83200952D01*
X143379819Y-83200952D02*
X143379819Y-82915238D01*
X143379819Y-82915238D02*
X143332200Y-82820000D01*
X143332200Y-82820000D02*
X143284580Y-82772381D01*
X143379819Y-83820000D02*
X142379819Y-83820000D01*
X143379819Y-84391428D02*
X142808390Y-83962857D01*
X142379819Y-84391428D02*
X142951247Y-83820000D01*
X143284580Y-85391428D02*
X143332200Y-85343809D01*
X143332200Y-85343809D02*
X143379819Y-85200952D01*
X143379819Y-85200952D02*
X143379819Y-85105714D01*
X143379819Y-85105714D02*
X143332200Y-84962857D01*
X143332200Y-84962857D02*
X143236961Y-84867619D01*
X143236961Y-84867619D02*
X143141723Y-84820000D01*
X143141723Y-84820000D02*
X142951247Y-84772381D01*
X142951247Y-84772381D02*
X142808390Y-84772381D01*
X142808390Y-84772381D02*
X142617914Y-84820000D01*
X142617914Y-84820000D02*
X142522676Y-84867619D01*
X142522676Y-84867619D02*
X142427438Y-84962857D01*
X142427438Y-84962857D02*
X142379819Y-85105714D01*
X142379819Y-85105714D02*
X142379819Y-85200952D01*
X142379819Y-85200952D02*
X142427438Y-85343809D01*
X142427438Y-85343809D02*
X142475057Y-85391428D01*
X142379819Y-85820000D02*
X143189342Y-85820000D01*
X143189342Y-85820000D02*
X143284580Y-85867619D01*
X143284580Y-85867619D02*
X143332200Y-85915238D01*
X143332200Y-85915238D02*
X143379819Y-86010476D01*
X143379819Y-86010476D02*
X143379819Y-86200952D01*
X143379819Y-86200952D02*
X143332200Y-86296190D01*
X143332200Y-86296190D02*
X143284580Y-86343809D01*
X143284580Y-86343809D02*
X143189342Y-86391428D01*
X143189342Y-86391428D02*
X142379819Y-86391428D01*
X142379819Y-87296190D02*
X142379819Y-87105714D01*
X142379819Y-87105714D02*
X142427438Y-87010476D01*
X142427438Y-87010476D02*
X142475057Y-86962857D01*
X142475057Y-86962857D02*
X142617914Y-86867619D01*
X142617914Y-86867619D02*
X142808390Y-86820000D01*
X142808390Y-86820000D02*
X143189342Y-86820000D01*
X143189342Y-86820000D02*
X143284580Y-86867619D01*
X143284580Y-86867619D02*
X143332200Y-86915238D01*
X143332200Y-86915238D02*
X143379819Y-87010476D01*
X143379819Y-87010476D02*
X143379819Y-87200952D01*
X143379819Y-87200952D02*
X143332200Y-87296190D01*
X143332200Y-87296190D02*
X143284580Y-87343809D01*
X143284580Y-87343809D02*
X143189342Y-87391428D01*
X143189342Y-87391428D02*
X142951247Y-87391428D01*
X142951247Y-87391428D02*
X142856009Y-87343809D01*
X142856009Y-87343809D02*
X142808390Y-87296190D01*
X142808390Y-87296190D02*
X142760771Y-87200952D01*
X142760771Y-87200952D02*
X142760771Y-87010476D01*
X142760771Y-87010476D02*
X142808390Y-86915238D01*
X142808390Y-86915238D02*
X142856009Y-86867619D01*
X142856009Y-86867619D02*
X142951247Y-86820000D01*
X143379819Y-89153333D02*
X142903628Y-88820000D01*
X143379819Y-88581905D02*
X142379819Y-88581905D01*
X142379819Y-88581905D02*
X142379819Y-88962857D01*
X142379819Y-88962857D02*
X142427438Y-89058095D01*
X142427438Y-89058095D02*
X142475057Y-89105714D01*
X142475057Y-89105714D02*
X142570295Y-89153333D01*
X142570295Y-89153333D02*
X142713152Y-89153333D01*
X142713152Y-89153333D02*
X142808390Y-89105714D01*
X142808390Y-89105714D02*
X142856009Y-89058095D01*
X142856009Y-89058095D02*
X142903628Y-88962857D01*
X142903628Y-88962857D02*
X142903628Y-88581905D01*
X143332200Y-89962857D02*
X143379819Y-89867619D01*
X143379819Y-89867619D02*
X143379819Y-89677143D01*
X143379819Y-89677143D02*
X143332200Y-89581905D01*
X143332200Y-89581905D02*
X143236961Y-89534286D01*
X143236961Y-89534286D02*
X142856009Y-89534286D01*
X142856009Y-89534286D02*
X142760771Y-89581905D01*
X142760771Y-89581905D02*
X142713152Y-89677143D01*
X142713152Y-89677143D02*
X142713152Y-89867619D01*
X142713152Y-89867619D02*
X142760771Y-89962857D01*
X142760771Y-89962857D02*
X142856009Y-90010476D01*
X142856009Y-90010476D02*
X142951247Y-90010476D01*
X142951247Y-90010476D02*
X143046485Y-89534286D01*
X142713152Y-90343810D02*
X143379819Y-90581905D01*
X143379819Y-90581905D02*
X142713152Y-90820000D01*
X143284580Y-92534286D02*
X143332200Y-92486667D01*
X143332200Y-92486667D02*
X143379819Y-92343810D01*
X143379819Y-92343810D02*
X143379819Y-92248572D01*
X143379819Y-92248572D02*
X143332200Y-92105715D01*
X143332200Y-92105715D02*
X143236961Y-92010477D01*
X143236961Y-92010477D02*
X143141723Y-91962858D01*
X143141723Y-91962858D02*
X142951247Y-91915239D01*
X142951247Y-91915239D02*
X142808390Y-91915239D01*
X142808390Y-91915239D02*
X142617914Y-91962858D01*
X142617914Y-91962858D02*
X142522676Y-92010477D01*
X142522676Y-92010477D02*
X142427438Y-92105715D01*
X142427438Y-92105715D02*
X142379819Y-92248572D01*
X142379819Y-92248572D02*
X142379819Y-92343810D01*
X142379819Y-92343810D02*
X142427438Y-92486667D01*
X142427438Y-92486667D02*
X142475057Y-92534286D01*
X109405854Y-76628714D02*
X109405854Y-77104904D01*
X109691569Y-76533476D02*
X108691569Y-76866809D01*
X108691569Y-76866809D02*
X109691569Y-77200142D01*
X109120140Y-77676333D02*
X109072521Y-77581095D01*
X109072521Y-77581095D02*
X109024902Y-77533476D01*
X109024902Y-77533476D02*
X108929664Y-77485857D01*
X108929664Y-77485857D02*
X108882045Y-77485857D01*
X108882045Y-77485857D02*
X108786807Y-77533476D01*
X108786807Y-77533476D02*
X108739188Y-77581095D01*
X108739188Y-77581095D02*
X108691569Y-77676333D01*
X108691569Y-77676333D02*
X108691569Y-77866809D01*
X108691569Y-77866809D02*
X108739188Y-77962047D01*
X108739188Y-77962047D02*
X108786807Y-78009666D01*
X108786807Y-78009666D02*
X108882045Y-78057285D01*
X108882045Y-78057285D02*
X108929664Y-78057285D01*
X108929664Y-78057285D02*
X109024902Y-78009666D01*
X109024902Y-78009666D02*
X109072521Y-77962047D01*
X109072521Y-77962047D02*
X109120140Y-77866809D01*
X109120140Y-77866809D02*
X109120140Y-77676333D01*
X109120140Y-77676333D02*
X109167759Y-77581095D01*
X109167759Y-77581095D02*
X109215378Y-77533476D01*
X109215378Y-77533476D02*
X109310616Y-77485857D01*
X109310616Y-77485857D02*
X109501092Y-77485857D01*
X109501092Y-77485857D02*
X109596330Y-77533476D01*
X109596330Y-77533476D02*
X109643950Y-77581095D01*
X109643950Y-77581095D02*
X109691569Y-77676333D01*
X109691569Y-77676333D02*
X109691569Y-77866809D01*
X109691569Y-77866809D02*
X109643950Y-77962047D01*
X109643950Y-77962047D02*
X109596330Y-78009666D01*
X109596330Y-78009666D02*
X109501092Y-78057285D01*
X109501092Y-78057285D02*
X109310616Y-78057285D01*
X109310616Y-78057285D02*
X109215378Y-78009666D01*
X109215378Y-78009666D02*
X109167759Y-77962047D01*
X109167759Y-77962047D02*
X109120140Y-77866809D01*
X114247759Y-77827238D02*
X114295378Y-77970095D01*
X114295378Y-77970095D02*
X114342997Y-78017714D01*
X114342997Y-78017714D02*
X114438235Y-78065333D01*
X114438235Y-78065333D02*
X114581092Y-78065333D01*
X114581092Y-78065333D02*
X114676330Y-78017714D01*
X114676330Y-78017714D02*
X114723950Y-77970095D01*
X114723950Y-77970095D02*
X114771569Y-77874857D01*
X114771569Y-77874857D02*
X114771569Y-77493905D01*
X114771569Y-77493905D02*
X113771569Y-77493905D01*
X113771569Y-77493905D02*
X113771569Y-77827238D01*
X113771569Y-77827238D02*
X113819188Y-77922476D01*
X113819188Y-77922476D02*
X113866807Y-77970095D01*
X113866807Y-77970095D02*
X113962045Y-78017714D01*
X113962045Y-78017714D02*
X114057283Y-78017714D01*
X114057283Y-78017714D02*
X114152521Y-77970095D01*
X114152521Y-77970095D02*
X114200140Y-77922476D01*
X114200140Y-77922476D02*
X114247759Y-77827238D01*
X114247759Y-77827238D02*
X114247759Y-77493905D01*
X113771569Y-78684381D02*
X113771569Y-78779619D01*
X113771569Y-78779619D02*
X113819188Y-78874857D01*
X113819188Y-78874857D02*
X113866807Y-78922476D01*
X113866807Y-78922476D02*
X113962045Y-78970095D01*
X113962045Y-78970095D02*
X114152521Y-79017714D01*
X114152521Y-79017714D02*
X114390616Y-79017714D01*
X114390616Y-79017714D02*
X114581092Y-78970095D01*
X114581092Y-78970095D02*
X114676330Y-78922476D01*
X114676330Y-78922476D02*
X114723950Y-78874857D01*
X114723950Y-78874857D02*
X114771569Y-78779619D01*
X114771569Y-78779619D02*
X114771569Y-78684381D01*
X114771569Y-78684381D02*
X114723950Y-78589143D01*
X114723950Y-78589143D02*
X114676330Y-78541524D01*
X114676330Y-78541524D02*
X114581092Y-78493905D01*
X114581092Y-78493905D02*
X114390616Y-78446286D01*
X114390616Y-78446286D02*
X114152521Y-78446286D01*
X114152521Y-78446286D02*
X113962045Y-78493905D01*
X113962045Y-78493905D02*
X113866807Y-78541524D01*
X113866807Y-78541524D02*
X113819188Y-78589143D01*
X113819188Y-78589143D02*
X113771569Y-78684381D01*
X117025854Y-77898714D02*
X117025854Y-78374904D01*
X117311569Y-77803476D02*
X116311569Y-78136809D01*
X116311569Y-78136809D02*
X117311569Y-78470142D01*
X116311569Y-78708238D02*
X116311569Y-79374904D01*
X116311569Y-79374904D02*
X117311569Y-78946333D01*
X136712438Y-77089095D02*
X136664819Y-76993857D01*
X136664819Y-76993857D02*
X136664819Y-76851000D01*
X136664819Y-76851000D02*
X136712438Y-76708143D01*
X136712438Y-76708143D02*
X136807676Y-76612905D01*
X136807676Y-76612905D02*
X136902914Y-76565286D01*
X136902914Y-76565286D02*
X137093390Y-76517667D01*
X137093390Y-76517667D02*
X137236247Y-76517667D01*
X137236247Y-76517667D02*
X137426723Y-76565286D01*
X137426723Y-76565286D02*
X137521961Y-76612905D01*
X137521961Y-76612905D02*
X137617200Y-76708143D01*
X137617200Y-76708143D02*
X137664819Y-76851000D01*
X137664819Y-76851000D02*
X137664819Y-76946238D01*
X137664819Y-76946238D02*
X137617200Y-77089095D01*
X137617200Y-77089095D02*
X137569580Y-77136714D01*
X137569580Y-77136714D02*
X137236247Y-77136714D01*
X137236247Y-77136714D02*
X137236247Y-76946238D01*
X137664819Y-77565286D02*
X136664819Y-77565286D01*
X136664819Y-77565286D02*
X137664819Y-78136714D01*
X137664819Y-78136714D02*
X136664819Y-78136714D01*
X137664819Y-78612905D02*
X136664819Y-78612905D01*
X136664819Y-78612905D02*
X136664819Y-78851000D01*
X136664819Y-78851000D02*
X136712438Y-78993857D01*
X136712438Y-78993857D02*
X136807676Y-79089095D01*
X136807676Y-79089095D02*
X136902914Y-79136714D01*
X136902914Y-79136714D02*
X137093390Y-79184333D01*
X137093390Y-79184333D02*
X137236247Y-79184333D01*
X137236247Y-79184333D02*
X137426723Y-79136714D01*
X137426723Y-79136714D02*
X137521961Y-79089095D01*
X137521961Y-79089095D02*
X137617200Y-78993857D01*
X137617200Y-78993857D02*
X137664819Y-78851000D01*
X137664819Y-78851000D02*
X137664819Y-78612905D01*
X136712438Y-89027095D02*
X136664819Y-88931857D01*
X136664819Y-88931857D02*
X136664819Y-88789000D01*
X136664819Y-88789000D02*
X136712438Y-88646143D01*
X136712438Y-88646143D02*
X136807676Y-88550905D01*
X136807676Y-88550905D02*
X136902914Y-88503286D01*
X136902914Y-88503286D02*
X137093390Y-88455667D01*
X137093390Y-88455667D02*
X137236247Y-88455667D01*
X137236247Y-88455667D02*
X137426723Y-88503286D01*
X137426723Y-88503286D02*
X137521961Y-88550905D01*
X137521961Y-88550905D02*
X137617200Y-88646143D01*
X137617200Y-88646143D02*
X137664819Y-88789000D01*
X137664819Y-88789000D02*
X137664819Y-88884238D01*
X137664819Y-88884238D02*
X137617200Y-89027095D01*
X137617200Y-89027095D02*
X137569580Y-89074714D01*
X137569580Y-89074714D02*
X137236247Y-89074714D01*
X137236247Y-89074714D02*
X137236247Y-88884238D01*
X137664819Y-89503286D02*
X136664819Y-89503286D01*
X136664819Y-89503286D02*
X137664819Y-90074714D01*
X137664819Y-90074714D02*
X136664819Y-90074714D01*
X137664819Y-90550905D02*
X136664819Y-90550905D01*
X136664819Y-90550905D02*
X136664819Y-90789000D01*
X136664819Y-90789000D02*
X136712438Y-90931857D01*
X136712438Y-90931857D02*
X136807676Y-91027095D01*
X136807676Y-91027095D02*
X136902914Y-91074714D01*
X136902914Y-91074714D02*
X137093390Y-91122333D01*
X137093390Y-91122333D02*
X137236247Y-91122333D01*
X137236247Y-91122333D02*
X137426723Y-91074714D01*
X137426723Y-91074714D02*
X137521961Y-91027095D01*
X137521961Y-91027095D02*
X137617200Y-90931857D01*
X137617200Y-90931857D02*
X137664819Y-90789000D01*
X137664819Y-90789000D02*
X137664819Y-90550905D01*
X101104819Y-88677905D02*
X101104819Y-89296952D01*
X101104819Y-89296952D02*
X101485771Y-88963619D01*
X101485771Y-88963619D02*
X101485771Y-89106476D01*
X101485771Y-89106476D02*
X101533390Y-89201714D01*
X101533390Y-89201714D02*
X101581009Y-89249333D01*
X101581009Y-89249333D02*
X101676247Y-89296952D01*
X101676247Y-89296952D02*
X101914342Y-89296952D01*
X101914342Y-89296952D02*
X102009580Y-89249333D01*
X102009580Y-89249333D02*
X102057200Y-89201714D01*
X102057200Y-89201714D02*
X102104819Y-89106476D01*
X102104819Y-89106476D02*
X102104819Y-88820762D01*
X102104819Y-88820762D02*
X102057200Y-88725524D01*
X102057200Y-88725524D02*
X102009580Y-88677905D01*
X101104819Y-89582667D02*
X102104819Y-89916000D01*
X102104819Y-89916000D02*
X101104819Y-90249333D01*
X101104819Y-90487429D02*
X101104819Y-91106476D01*
X101104819Y-91106476D02*
X101485771Y-90773143D01*
X101485771Y-90773143D02*
X101485771Y-90916000D01*
X101485771Y-90916000D02*
X101533390Y-91011238D01*
X101533390Y-91011238D02*
X101581009Y-91058857D01*
X101581009Y-91058857D02*
X101676247Y-91106476D01*
X101676247Y-91106476D02*
X101914342Y-91106476D01*
X101914342Y-91106476D02*
X102009580Y-91058857D01*
X102009580Y-91058857D02*
X102057200Y-91011238D01*
X102057200Y-91011238D02*
X102104819Y-90916000D01*
X102104819Y-90916000D02*
X102104819Y-90630286D01*
X102104819Y-90630286D02*
X102057200Y-90535048D01*
X102057200Y-90535048D02*
X102009580Y-90487429D01*
X101071569Y-76485905D02*
X101071569Y-77104952D01*
X101071569Y-77104952D02*
X101452521Y-76771619D01*
X101452521Y-76771619D02*
X101452521Y-76914476D01*
X101452521Y-76914476D02*
X101500140Y-77009714D01*
X101500140Y-77009714D02*
X101547759Y-77057333D01*
X101547759Y-77057333D02*
X101642997Y-77104952D01*
X101642997Y-77104952D02*
X101881092Y-77104952D01*
X101881092Y-77104952D02*
X101976330Y-77057333D01*
X101976330Y-77057333D02*
X102023950Y-77009714D01*
X102023950Y-77009714D02*
X102071569Y-76914476D01*
X102071569Y-76914476D02*
X102071569Y-76628762D01*
X102071569Y-76628762D02*
X102023950Y-76533524D01*
X102023950Y-76533524D02*
X101976330Y-76485905D01*
X101071569Y-77390667D02*
X102071569Y-77724000D01*
X102071569Y-77724000D02*
X101071569Y-78057333D01*
X101071569Y-78295429D02*
X101071569Y-78914476D01*
X101071569Y-78914476D02*
X101452521Y-78581143D01*
X101452521Y-78581143D02*
X101452521Y-78724000D01*
X101452521Y-78724000D02*
X101500140Y-78819238D01*
X101500140Y-78819238D02*
X101547759Y-78866857D01*
X101547759Y-78866857D02*
X101642997Y-78914476D01*
X101642997Y-78914476D02*
X101881092Y-78914476D01*
X101881092Y-78914476D02*
X101976330Y-78866857D01*
X101976330Y-78866857D02*
X102023950Y-78819238D01*
X102023950Y-78819238D02*
X102071569Y-78724000D01*
X102071569Y-78724000D02*
X102071569Y-78438286D01*
X102071569Y-78438286D02*
X102023950Y-78343048D01*
X102023950Y-78343048D02*
X101976330Y-78295429D01*
X104325854Y-78057524D02*
X104325854Y-78533714D01*
X104611569Y-77962286D02*
X103611569Y-78295619D01*
X103611569Y-78295619D02*
X104611569Y-78628952D01*
X104611569Y-79486095D02*
X104611569Y-78914667D01*
X104611569Y-79200381D02*
X103611569Y-79200381D01*
X103611569Y-79200381D02*
X103754426Y-79105143D01*
X103754426Y-79105143D02*
X103849664Y-79009905D01*
X103849664Y-79009905D02*
X103897283Y-78914667D01*
X103611569Y-80105143D02*
X103611569Y-80200381D01*
X103611569Y-80200381D02*
X103659188Y-80295619D01*
X103659188Y-80295619D02*
X103706807Y-80343238D01*
X103706807Y-80343238D02*
X103802045Y-80390857D01*
X103802045Y-80390857D02*
X103992521Y-80438476D01*
X103992521Y-80438476D02*
X104230616Y-80438476D01*
X104230616Y-80438476D02*
X104421092Y-80390857D01*
X104421092Y-80390857D02*
X104516330Y-80343238D01*
X104516330Y-80343238D02*
X104563950Y-80295619D01*
X104563950Y-80295619D02*
X104611569Y-80200381D01*
X104611569Y-80200381D02*
X104611569Y-80105143D01*
X104611569Y-80105143D02*
X104563950Y-80009905D01*
X104563950Y-80009905D02*
X104516330Y-79962286D01*
X104516330Y-79962286D02*
X104421092Y-79914667D01*
X104421092Y-79914667D02*
X104230616Y-79867048D01*
X104230616Y-79867048D02*
X103992521Y-79867048D01*
X103992521Y-79867048D02*
X103802045Y-79914667D01*
X103802045Y-79914667D02*
X103706807Y-79962286D01*
X103706807Y-79962286D02*
X103659188Y-80009905D01*
X103659188Y-80009905D02*
X103611569Y-80105143D01*
X106865854Y-76628714D02*
X106865854Y-77104904D01*
X107151569Y-76533476D02*
X106151569Y-76866809D01*
X106151569Y-76866809D02*
X107151569Y-77200142D01*
X107151569Y-77581095D02*
X107151569Y-77771571D01*
X107151569Y-77771571D02*
X107103950Y-77866809D01*
X107103950Y-77866809D02*
X107056330Y-77914428D01*
X107056330Y-77914428D02*
X106913473Y-78009666D01*
X106913473Y-78009666D02*
X106722997Y-78057285D01*
X106722997Y-78057285D02*
X106342045Y-78057285D01*
X106342045Y-78057285D02*
X106246807Y-78009666D01*
X106246807Y-78009666D02*
X106199188Y-77962047D01*
X106199188Y-77962047D02*
X106151569Y-77866809D01*
X106151569Y-77866809D02*
X106151569Y-77676333D01*
X106151569Y-77676333D02*
X106199188Y-77581095D01*
X106199188Y-77581095D02*
X106246807Y-77533476D01*
X106246807Y-77533476D02*
X106342045Y-77485857D01*
X106342045Y-77485857D02*
X106580140Y-77485857D01*
X106580140Y-77485857D02*
X106675378Y-77533476D01*
X106675378Y-77533476D02*
X106722997Y-77581095D01*
X106722997Y-77581095D02*
X106770616Y-77676333D01*
X106770616Y-77676333D02*
X106770616Y-77866809D01*
X106770616Y-77866809D02*
X106722997Y-77962047D01*
X106722997Y-77962047D02*
X106675378Y-78009666D01*
X106675378Y-78009666D02*
X106580140Y-78057285D01*
X111707759Y-76811238D02*
X111755378Y-76954095D01*
X111755378Y-76954095D02*
X111802997Y-77001714D01*
X111802997Y-77001714D02*
X111898235Y-77049333D01*
X111898235Y-77049333D02*
X112041092Y-77049333D01*
X112041092Y-77049333D02*
X112136330Y-77001714D01*
X112136330Y-77001714D02*
X112183950Y-76954095D01*
X112183950Y-76954095D02*
X112231569Y-76858857D01*
X112231569Y-76858857D02*
X112231569Y-76477905D01*
X112231569Y-76477905D02*
X111231569Y-76477905D01*
X111231569Y-76477905D02*
X111231569Y-76811238D01*
X111231569Y-76811238D02*
X111279188Y-76906476D01*
X111279188Y-76906476D02*
X111326807Y-76954095D01*
X111326807Y-76954095D02*
X111422045Y-77001714D01*
X111422045Y-77001714D02*
X111517283Y-77001714D01*
X111517283Y-77001714D02*
X111612521Y-76954095D01*
X111612521Y-76954095D02*
X111660140Y-76906476D01*
X111660140Y-76906476D02*
X111707759Y-76811238D01*
X111707759Y-76811238D02*
X111707759Y-76477905D01*
X112231569Y-78001714D02*
X112231569Y-77430286D01*
X112231569Y-77716000D02*
X111231569Y-77716000D01*
X111231569Y-77716000D02*
X111374426Y-77620762D01*
X111374426Y-77620762D02*
X111469664Y-77525524D01*
X111469664Y-77525524D02*
X111517283Y-77430286D01*
X119565854Y-77898714D02*
X119565854Y-78374904D01*
X119851569Y-77803476D02*
X118851569Y-78136809D01*
X118851569Y-78136809D02*
X119851569Y-78470142D01*
X118851569Y-79232047D02*
X118851569Y-79041571D01*
X118851569Y-79041571D02*
X118899188Y-78946333D01*
X118899188Y-78946333D02*
X118946807Y-78898714D01*
X118946807Y-78898714D02*
X119089664Y-78803476D01*
X119089664Y-78803476D02*
X119280140Y-78755857D01*
X119280140Y-78755857D02*
X119661092Y-78755857D01*
X119661092Y-78755857D02*
X119756330Y-78803476D01*
X119756330Y-78803476D02*
X119803950Y-78851095D01*
X119803950Y-78851095D02*
X119851569Y-78946333D01*
X119851569Y-78946333D02*
X119851569Y-79136809D01*
X119851569Y-79136809D02*
X119803950Y-79232047D01*
X119803950Y-79232047D02*
X119756330Y-79279666D01*
X119756330Y-79279666D02*
X119661092Y-79327285D01*
X119661092Y-79327285D02*
X119422997Y-79327285D01*
X119422997Y-79327285D02*
X119327759Y-79279666D01*
X119327759Y-79279666D02*
X119280140Y-79232047D01*
X119280140Y-79232047D02*
X119232521Y-79136809D01*
X119232521Y-79136809D02*
X119232521Y-78946333D01*
X119232521Y-78946333D02*
X119280140Y-78851095D01*
X119280140Y-78851095D02*
X119327759Y-78803476D01*
X119327759Y-78803476D02*
X119422997Y-78755857D01*
X122105854Y-76628714D02*
X122105854Y-77104904D01*
X122391569Y-76533476D02*
X121391569Y-76866809D01*
X121391569Y-76866809D02*
X122391569Y-77200142D01*
X121391569Y-78009666D02*
X121391569Y-77533476D01*
X121391569Y-77533476D02*
X121867759Y-77485857D01*
X121867759Y-77485857D02*
X121820140Y-77533476D01*
X121820140Y-77533476D02*
X121772521Y-77628714D01*
X121772521Y-77628714D02*
X121772521Y-77866809D01*
X121772521Y-77866809D02*
X121820140Y-77962047D01*
X121820140Y-77962047D02*
X121867759Y-78009666D01*
X121867759Y-78009666D02*
X121962997Y-78057285D01*
X121962997Y-78057285D02*
X122201092Y-78057285D01*
X122201092Y-78057285D02*
X122296330Y-78009666D01*
X122296330Y-78009666D02*
X122343950Y-77962047D01*
X122343950Y-77962047D02*
X122391569Y-77866809D01*
X122391569Y-77866809D02*
X122391569Y-77628714D01*
X122391569Y-77628714D02*
X122343950Y-77533476D01*
X122343950Y-77533476D02*
X122296330Y-77485857D01*
X124645854Y-76628714D02*
X124645854Y-77104904D01*
X124931569Y-76533476D02*
X123931569Y-76866809D01*
X123931569Y-76866809D02*
X124931569Y-77200142D01*
X124264902Y-77962047D02*
X124931569Y-77962047D01*
X123883950Y-77723952D02*
X124598235Y-77485857D01*
X124598235Y-77485857D02*
X124598235Y-78104904D01*
X127185854Y-76628714D02*
X127185854Y-77104904D01*
X127471569Y-76533476D02*
X126471569Y-76866809D01*
X126471569Y-76866809D02*
X127471569Y-77200142D01*
X126471569Y-77438238D02*
X126471569Y-78057285D01*
X126471569Y-78057285D02*
X126852521Y-77723952D01*
X126852521Y-77723952D02*
X126852521Y-77866809D01*
X126852521Y-77866809D02*
X126900140Y-77962047D01*
X126900140Y-77962047D02*
X126947759Y-78009666D01*
X126947759Y-78009666D02*
X127042997Y-78057285D01*
X127042997Y-78057285D02*
X127281092Y-78057285D01*
X127281092Y-78057285D02*
X127376330Y-78009666D01*
X127376330Y-78009666D02*
X127423950Y-77962047D01*
X127423950Y-77962047D02*
X127471569Y-77866809D01*
X127471569Y-77866809D02*
X127471569Y-77581095D01*
X127471569Y-77581095D02*
X127423950Y-77485857D01*
X127423950Y-77485857D02*
X127376330Y-77438238D01*
X129725854Y-76628714D02*
X129725854Y-77104904D01*
X130011569Y-76533476D02*
X129011569Y-76866809D01*
X129011569Y-76866809D02*
X130011569Y-77200142D01*
X129106807Y-77485857D02*
X129059188Y-77533476D01*
X129059188Y-77533476D02*
X129011569Y-77628714D01*
X129011569Y-77628714D02*
X129011569Y-77866809D01*
X129011569Y-77866809D02*
X129059188Y-77962047D01*
X129059188Y-77962047D02*
X129106807Y-78009666D01*
X129106807Y-78009666D02*
X129202045Y-78057285D01*
X129202045Y-78057285D02*
X129297283Y-78057285D01*
X129297283Y-78057285D02*
X129440140Y-78009666D01*
X129440140Y-78009666D02*
X130011569Y-77438238D01*
X130011569Y-77438238D02*
X130011569Y-78057285D01*
X134805854Y-76628714D02*
X134805854Y-77104904D01*
X135091569Y-76533476D02*
X134091569Y-76866809D01*
X134091569Y-76866809D02*
X135091569Y-77200142D01*
X134091569Y-77723952D02*
X134091569Y-77819190D01*
X134091569Y-77819190D02*
X134139188Y-77914428D01*
X134139188Y-77914428D02*
X134186807Y-77962047D01*
X134186807Y-77962047D02*
X134282045Y-78009666D01*
X134282045Y-78009666D02*
X134472521Y-78057285D01*
X134472521Y-78057285D02*
X134710616Y-78057285D01*
X134710616Y-78057285D02*
X134901092Y-78009666D01*
X134901092Y-78009666D02*
X134996330Y-77962047D01*
X134996330Y-77962047D02*
X135043950Y-77914428D01*
X135043950Y-77914428D02*
X135091569Y-77819190D01*
X135091569Y-77819190D02*
X135091569Y-77723952D01*
X135091569Y-77723952D02*
X135043950Y-77628714D01*
X135043950Y-77628714D02*
X134996330Y-77581095D01*
X134996330Y-77581095D02*
X134901092Y-77533476D01*
X134901092Y-77533476D02*
X134710616Y-77485857D01*
X134710616Y-77485857D02*
X134472521Y-77485857D01*
X134472521Y-77485857D02*
X134282045Y-77533476D01*
X134282045Y-77533476D02*
X134186807Y-77581095D01*
X134186807Y-77581095D02*
X134139188Y-77628714D01*
X134139188Y-77628714D02*
X134091569Y-77723952D01*
X132265854Y-76628714D02*
X132265854Y-77104904D01*
X132551569Y-76533476D02*
X131551569Y-76866809D01*
X131551569Y-76866809D02*
X132551569Y-77200142D01*
X132551569Y-78057285D02*
X132551569Y-77485857D01*
X132551569Y-77771571D02*
X131551569Y-77771571D01*
X131551569Y-77771571D02*
X131694426Y-77676333D01*
X131694426Y-77676333D02*
X131789664Y-77581095D01*
X131789664Y-77581095D02*
X131837283Y-77485857D01*
X132489580Y-89222342D02*
X132537200Y-89174723D01*
X132537200Y-89174723D02*
X132584819Y-89031866D01*
X132584819Y-89031866D02*
X132584819Y-88936628D01*
X132584819Y-88936628D02*
X132537200Y-88793771D01*
X132537200Y-88793771D02*
X132441961Y-88698533D01*
X132441961Y-88698533D02*
X132346723Y-88650914D01*
X132346723Y-88650914D02*
X132156247Y-88603295D01*
X132156247Y-88603295D02*
X132013390Y-88603295D01*
X132013390Y-88603295D02*
X131822914Y-88650914D01*
X131822914Y-88650914D02*
X131727676Y-88698533D01*
X131727676Y-88698533D02*
X131632438Y-88793771D01*
X131632438Y-88793771D02*
X131584819Y-88936628D01*
X131584819Y-88936628D02*
X131584819Y-89031866D01*
X131584819Y-89031866D02*
X131632438Y-89174723D01*
X131632438Y-89174723D02*
X131680057Y-89222342D01*
X132584819Y-90174723D02*
X132584819Y-89603295D01*
X132584819Y-89889009D02*
X131584819Y-89889009D01*
X131584819Y-89889009D02*
X131727676Y-89793771D01*
X131727676Y-89793771D02*
X131822914Y-89698533D01*
X131822914Y-89698533D02*
X131870533Y-89603295D01*
X131918152Y-91031866D02*
X132584819Y-91031866D01*
X131537200Y-90793771D02*
X132251485Y-90555676D01*
X132251485Y-90555676D02*
X132251485Y-91174723D01*
X129949580Y-89222342D02*
X129997200Y-89174723D01*
X129997200Y-89174723D02*
X130044819Y-89031866D01*
X130044819Y-89031866D02*
X130044819Y-88936628D01*
X130044819Y-88936628D02*
X129997200Y-88793771D01*
X129997200Y-88793771D02*
X129901961Y-88698533D01*
X129901961Y-88698533D02*
X129806723Y-88650914D01*
X129806723Y-88650914D02*
X129616247Y-88603295D01*
X129616247Y-88603295D02*
X129473390Y-88603295D01*
X129473390Y-88603295D02*
X129282914Y-88650914D01*
X129282914Y-88650914D02*
X129187676Y-88698533D01*
X129187676Y-88698533D02*
X129092438Y-88793771D01*
X129092438Y-88793771D02*
X129044819Y-88936628D01*
X129044819Y-88936628D02*
X129044819Y-89031866D01*
X129044819Y-89031866D02*
X129092438Y-89174723D01*
X129092438Y-89174723D02*
X129140057Y-89222342D01*
X130044819Y-90174723D02*
X130044819Y-89603295D01*
X130044819Y-89889009D02*
X129044819Y-89889009D01*
X129044819Y-89889009D02*
X129187676Y-89793771D01*
X129187676Y-89793771D02*
X129282914Y-89698533D01*
X129282914Y-89698533D02*
X129330533Y-89603295D01*
X129044819Y-91079485D02*
X129044819Y-90603295D01*
X129044819Y-90603295D02*
X129521009Y-90555676D01*
X129521009Y-90555676D02*
X129473390Y-90603295D01*
X129473390Y-90603295D02*
X129425771Y-90698533D01*
X129425771Y-90698533D02*
X129425771Y-90936628D01*
X129425771Y-90936628D02*
X129473390Y-91031866D01*
X129473390Y-91031866D02*
X129521009Y-91079485D01*
X129521009Y-91079485D02*
X129616247Y-91127104D01*
X129616247Y-91127104D02*
X129854342Y-91127104D01*
X129854342Y-91127104D02*
X129949580Y-91079485D01*
X129949580Y-91079485D02*
X129997200Y-91031866D01*
X129997200Y-91031866D02*
X130044819Y-90936628D01*
X130044819Y-90936628D02*
X130044819Y-90698533D01*
X130044819Y-90698533D02*
X129997200Y-90603295D01*
X129997200Y-90603295D02*
X129949580Y-90555676D01*
X126981009Y-87923857D02*
X127028628Y-88066714D01*
X127028628Y-88066714D02*
X127076247Y-88114333D01*
X127076247Y-88114333D02*
X127171485Y-88161952D01*
X127171485Y-88161952D02*
X127314342Y-88161952D01*
X127314342Y-88161952D02*
X127409580Y-88114333D01*
X127409580Y-88114333D02*
X127457200Y-88066714D01*
X127457200Y-88066714D02*
X127504819Y-87971476D01*
X127504819Y-87971476D02*
X127504819Y-87590524D01*
X127504819Y-87590524D02*
X126504819Y-87590524D01*
X126504819Y-87590524D02*
X126504819Y-87923857D01*
X126504819Y-87923857D02*
X126552438Y-88019095D01*
X126552438Y-88019095D02*
X126600057Y-88066714D01*
X126600057Y-88066714D02*
X126695295Y-88114333D01*
X126695295Y-88114333D02*
X126790533Y-88114333D01*
X126790533Y-88114333D02*
X126885771Y-88066714D01*
X126885771Y-88066714D02*
X126933390Y-88019095D01*
X126933390Y-88019095D02*
X126981009Y-87923857D01*
X126981009Y-87923857D02*
X126981009Y-87590524D01*
X126504819Y-88781000D02*
X126504819Y-88971476D01*
X126504819Y-88971476D02*
X126552438Y-89066714D01*
X126552438Y-89066714D02*
X126647676Y-89161952D01*
X126647676Y-89161952D02*
X126838152Y-89209571D01*
X126838152Y-89209571D02*
X127171485Y-89209571D01*
X127171485Y-89209571D02*
X127361961Y-89161952D01*
X127361961Y-89161952D02*
X127457200Y-89066714D01*
X127457200Y-89066714D02*
X127504819Y-88971476D01*
X127504819Y-88971476D02*
X127504819Y-88781000D01*
X127504819Y-88781000D02*
X127457200Y-88685762D01*
X127457200Y-88685762D02*
X127361961Y-88590524D01*
X127361961Y-88590524D02*
X127171485Y-88542905D01*
X127171485Y-88542905D02*
X126838152Y-88542905D01*
X126838152Y-88542905D02*
X126647676Y-88590524D01*
X126647676Y-88590524D02*
X126552438Y-88685762D01*
X126552438Y-88685762D02*
X126504819Y-88781000D01*
X126504819Y-89828619D02*
X126504819Y-90019095D01*
X126504819Y-90019095D02*
X126552438Y-90114333D01*
X126552438Y-90114333D02*
X126647676Y-90209571D01*
X126647676Y-90209571D02*
X126838152Y-90257190D01*
X126838152Y-90257190D02*
X127171485Y-90257190D01*
X127171485Y-90257190D02*
X127361961Y-90209571D01*
X127361961Y-90209571D02*
X127457200Y-90114333D01*
X127457200Y-90114333D02*
X127504819Y-90019095D01*
X127504819Y-90019095D02*
X127504819Y-89828619D01*
X127504819Y-89828619D02*
X127457200Y-89733381D01*
X127457200Y-89733381D02*
X127361961Y-89638143D01*
X127361961Y-89638143D02*
X127171485Y-89590524D01*
X127171485Y-89590524D02*
X126838152Y-89590524D01*
X126838152Y-89590524D02*
X126647676Y-89638143D01*
X126647676Y-89638143D02*
X126552438Y-89733381D01*
X126552438Y-89733381D02*
X126504819Y-89828619D01*
X126504819Y-90542905D02*
X126504819Y-91114333D01*
X127504819Y-90828619D02*
X126504819Y-90828619D01*
X124441009Y-89951112D02*
X124488628Y-90093969D01*
X124488628Y-90093969D02*
X124536247Y-90141588D01*
X124536247Y-90141588D02*
X124631485Y-90189207D01*
X124631485Y-90189207D02*
X124774342Y-90189207D01*
X124774342Y-90189207D02*
X124869580Y-90141588D01*
X124869580Y-90141588D02*
X124917200Y-90093969D01*
X124917200Y-90093969D02*
X124964819Y-89998731D01*
X124964819Y-89998731D02*
X124964819Y-89617779D01*
X124964819Y-89617779D02*
X123964819Y-89617779D01*
X123964819Y-89617779D02*
X123964819Y-89951112D01*
X123964819Y-89951112D02*
X124012438Y-90046350D01*
X124012438Y-90046350D02*
X124060057Y-90093969D01*
X124060057Y-90093969D02*
X124155295Y-90141588D01*
X124155295Y-90141588D02*
X124250533Y-90141588D01*
X124250533Y-90141588D02*
X124345771Y-90093969D01*
X124345771Y-90093969D02*
X124393390Y-90046350D01*
X124393390Y-90046350D02*
X124441009Y-89951112D01*
X124441009Y-89951112D02*
X124441009Y-89617779D01*
X123964819Y-90522541D02*
X123964819Y-91189207D01*
X123964819Y-91189207D02*
X124964819Y-90760636D01*
X121901009Y-89951112D02*
X121948628Y-90093969D01*
X121948628Y-90093969D02*
X121996247Y-90141588D01*
X121996247Y-90141588D02*
X122091485Y-90189207D01*
X122091485Y-90189207D02*
X122234342Y-90189207D01*
X122234342Y-90189207D02*
X122329580Y-90141588D01*
X122329580Y-90141588D02*
X122377200Y-90093969D01*
X122377200Y-90093969D02*
X122424819Y-89998731D01*
X122424819Y-89998731D02*
X122424819Y-89617779D01*
X122424819Y-89617779D02*
X121424819Y-89617779D01*
X121424819Y-89617779D02*
X121424819Y-89951112D01*
X121424819Y-89951112D02*
X121472438Y-90046350D01*
X121472438Y-90046350D02*
X121520057Y-90093969D01*
X121520057Y-90093969D02*
X121615295Y-90141588D01*
X121615295Y-90141588D02*
X121710533Y-90141588D01*
X121710533Y-90141588D02*
X121805771Y-90093969D01*
X121805771Y-90093969D02*
X121853390Y-90046350D01*
X121853390Y-90046350D02*
X121901009Y-89951112D01*
X121901009Y-89951112D02*
X121901009Y-89617779D01*
X121424819Y-91046350D02*
X121424819Y-90855874D01*
X121424819Y-90855874D02*
X121472438Y-90760636D01*
X121472438Y-90760636D02*
X121520057Y-90713017D01*
X121520057Y-90713017D02*
X121662914Y-90617779D01*
X121662914Y-90617779D02*
X121853390Y-90570160D01*
X121853390Y-90570160D02*
X122234342Y-90570160D01*
X122234342Y-90570160D02*
X122329580Y-90617779D01*
X122329580Y-90617779D02*
X122377200Y-90665398D01*
X122377200Y-90665398D02*
X122424819Y-90760636D01*
X122424819Y-90760636D02*
X122424819Y-90951112D01*
X122424819Y-90951112D02*
X122377200Y-91046350D01*
X122377200Y-91046350D02*
X122329580Y-91093969D01*
X122329580Y-91093969D02*
X122234342Y-91141588D01*
X122234342Y-91141588D02*
X121996247Y-91141588D01*
X121996247Y-91141588D02*
X121901009Y-91093969D01*
X121901009Y-91093969D02*
X121853390Y-91046350D01*
X121853390Y-91046350D02*
X121805771Y-90951112D01*
X121805771Y-90951112D02*
X121805771Y-90760636D01*
X121805771Y-90760636D02*
X121853390Y-90665398D01*
X121853390Y-90665398D02*
X121901009Y-90617779D01*
X121901009Y-90617779D02*
X121996247Y-90570160D01*
X119361009Y-89951112D02*
X119408628Y-90093969D01*
X119408628Y-90093969D02*
X119456247Y-90141588D01*
X119456247Y-90141588D02*
X119551485Y-90189207D01*
X119551485Y-90189207D02*
X119694342Y-90189207D01*
X119694342Y-90189207D02*
X119789580Y-90141588D01*
X119789580Y-90141588D02*
X119837200Y-90093969D01*
X119837200Y-90093969D02*
X119884819Y-89998731D01*
X119884819Y-89998731D02*
X119884819Y-89617779D01*
X119884819Y-89617779D02*
X118884819Y-89617779D01*
X118884819Y-89617779D02*
X118884819Y-89951112D01*
X118884819Y-89951112D02*
X118932438Y-90046350D01*
X118932438Y-90046350D02*
X118980057Y-90093969D01*
X118980057Y-90093969D02*
X119075295Y-90141588D01*
X119075295Y-90141588D02*
X119170533Y-90141588D01*
X119170533Y-90141588D02*
X119265771Y-90093969D01*
X119265771Y-90093969D02*
X119313390Y-90046350D01*
X119313390Y-90046350D02*
X119361009Y-89951112D01*
X119361009Y-89951112D02*
X119361009Y-89617779D01*
X118884819Y-91093969D02*
X118884819Y-90617779D01*
X118884819Y-90617779D02*
X119361009Y-90570160D01*
X119361009Y-90570160D02*
X119313390Y-90617779D01*
X119313390Y-90617779D02*
X119265771Y-90713017D01*
X119265771Y-90713017D02*
X119265771Y-90951112D01*
X119265771Y-90951112D02*
X119313390Y-91046350D01*
X119313390Y-91046350D02*
X119361009Y-91093969D01*
X119361009Y-91093969D02*
X119456247Y-91141588D01*
X119456247Y-91141588D02*
X119694342Y-91141588D01*
X119694342Y-91141588D02*
X119789580Y-91093969D01*
X119789580Y-91093969D02*
X119837200Y-91046350D01*
X119837200Y-91046350D02*
X119884819Y-90951112D01*
X119884819Y-90951112D02*
X119884819Y-90713017D01*
X119884819Y-90713017D02*
X119837200Y-90617779D01*
X119837200Y-90617779D02*
X119789580Y-90570160D01*
X117059104Y-88725524D02*
X117059104Y-89201714D01*
X117344819Y-88630286D02*
X116344819Y-88963619D01*
X116344819Y-88963619D02*
X117344819Y-89296952D01*
X117344819Y-90154095D02*
X117344819Y-89582667D01*
X117344819Y-89868381D02*
X116344819Y-89868381D01*
X116344819Y-89868381D02*
X116487676Y-89773143D01*
X116487676Y-89773143D02*
X116582914Y-89677905D01*
X116582914Y-89677905D02*
X116630533Y-89582667D01*
X116344819Y-91058857D02*
X116344819Y-90582667D01*
X116344819Y-90582667D02*
X116821009Y-90535048D01*
X116821009Y-90535048D02*
X116773390Y-90582667D01*
X116773390Y-90582667D02*
X116725771Y-90677905D01*
X116725771Y-90677905D02*
X116725771Y-90916000D01*
X116725771Y-90916000D02*
X116773390Y-91011238D01*
X116773390Y-91011238D02*
X116821009Y-91058857D01*
X116821009Y-91058857D02*
X116916247Y-91106476D01*
X116916247Y-91106476D02*
X117154342Y-91106476D01*
X117154342Y-91106476D02*
X117249580Y-91058857D01*
X117249580Y-91058857D02*
X117297200Y-91011238D01*
X117297200Y-91011238D02*
X117344819Y-90916000D01*
X117344819Y-90916000D02*
X117344819Y-90677905D01*
X117344819Y-90677905D02*
X117297200Y-90582667D01*
X117297200Y-90582667D02*
X117249580Y-90535048D01*
X114281009Y-89951112D02*
X114328628Y-90093969D01*
X114328628Y-90093969D02*
X114376247Y-90141588D01*
X114376247Y-90141588D02*
X114471485Y-90189207D01*
X114471485Y-90189207D02*
X114614342Y-90189207D01*
X114614342Y-90189207D02*
X114709580Y-90141588D01*
X114709580Y-90141588D02*
X114757200Y-90093969D01*
X114757200Y-90093969D02*
X114804819Y-89998731D01*
X114804819Y-89998731D02*
X114804819Y-89617779D01*
X114804819Y-89617779D02*
X113804819Y-89617779D01*
X113804819Y-89617779D02*
X113804819Y-89951112D01*
X113804819Y-89951112D02*
X113852438Y-90046350D01*
X113852438Y-90046350D02*
X113900057Y-90093969D01*
X113900057Y-90093969D02*
X113995295Y-90141588D01*
X113995295Y-90141588D02*
X114090533Y-90141588D01*
X114090533Y-90141588D02*
X114185771Y-90093969D01*
X114185771Y-90093969D02*
X114233390Y-90046350D01*
X114233390Y-90046350D02*
X114281009Y-89951112D01*
X114281009Y-89951112D02*
X114281009Y-89617779D01*
X113804819Y-90522541D02*
X113804819Y-91141588D01*
X113804819Y-91141588D02*
X114185771Y-90808255D01*
X114185771Y-90808255D02*
X114185771Y-90951112D01*
X114185771Y-90951112D02*
X114233390Y-91046350D01*
X114233390Y-91046350D02*
X114281009Y-91093969D01*
X114281009Y-91093969D02*
X114376247Y-91141588D01*
X114376247Y-91141588D02*
X114614342Y-91141588D01*
X114614342Y-91141588D02*
X114709580Y-91093969D01*
X114709580Y-91093969D02*
X114757200Y-91046350D01*
X114757200Y-91046350D02*
X114804819Y-90951112D01*
X114804819Y-90951112D02*
X114804819Y-90665398D01*
X114804819Y-90665398D02*
X114757200Y-90570160D01*
X114757200Y-90570160D02*
X114709580Y-90522541D01*
X111741009Y-89951112D02*
X111788628Y-90093969D01*
X111788628Y-90093969D02*
X111836247Y-90141588D01*
X111836247Y-90141588D02*
X111931485Y-90189207D01*
X111931485Y-90189207D02*
X112074342Y-90189207D01*
X112074342Y-90189207D02*
X112169580Y-90141588D01*
X112169580Y-90141588D02*
X112217200Y-90093969D01*
X112217200Y-90093969D02*
X112264819Y-89998731D01*
X112264819Y-89998731D02*
X112264819Y-89617779D01*
X112264819Y-89617779D02*
X111264819Y-89617779D01*
X111264819Y-89617779D02*
X111264819Y-89951112D01*
X111264819Y-89951112D02*
X111312438Y-90046350D01*
X111312438Y-90046350D02*
X111360057Y-90093969D01*
X111360057Y-90093969D02*
X111455295Y-90141588D01*
X111455295Y-90141588D02*
X111550533Y-90141588D01*
X111550533Y-90141588D02*
X111645771Y-90093969D01*
X111645771Y-90093969D02*
X111693390Y-90046350D01*
X111693390Y-90046350D02*
X111741009Y-89951112D01*
X111741009Y-89951112D02*
X111741009Y-89617779D01*
X111598152Y-91046350D02*
X112264819Y-91046350D01*
X111217200Y-90808255D02*
X111931485Y-90570160D01*
X111931485Y-90570160D02*
X111931485Y-91189207D01*
X108772438Y-89027095D02*
X108724819Y-88931857D01*
X108724819Y-88931857D02*
X108724819Y-88789000D01*
X108724819Y-88789000D02*
X108772438Y-88646143D01*
X108772438Y-88646143D02*
X108867676Y-88550905D01*
X108867676Y-88550905D02*
X108962914Y-88503286D01*
X108962914Y-88503286D02*
X109153390Y-88455667D01*
X109153390Y-88455667D02*
X109296247Y-88455667D01*
X109296247Y-88455667D02*
X109486723Y-88503286D01*
X109486723Y-88503286D02*
X109581961Y-88550905D01*
X109581961Y-88550905D02*
X109677200Y-88646143D01*
X109677200Y-88646143D02*
X109724819Y-88789000D01*
X109724819Y-88789000D02*
X109724819Y-88884238D01*
X109724819Y-88884238D02*
X109677200Y-89027095D01*
X109677200Y-89027095D02*
X109629580Y-89074714D01*
X109629580Y-89074714D02*
X109296247Y-89074714D01*
X109296247Y-89074714D02*
X109296247Y-88884238D01*
X109724819Y-89503286D02*
X108724819Y-89503286D01*
X108724819Y-89503286D02*
X109724819Y-90074714D01*
X109724819Y-90074714D02*
X108724819Y-90074714D01*
X109724819Y-90550905D02*
X108724819Y-90550905D01*
X108724819Y-90550905D02*
X108724819Y-90789000D01*
X108724819Y-90789000D02*
X108772438Y-90931857D01*
X108772438Y-90931857D02*
X108867676Y-91027095D01*
X108867676Y-91027095D02*
X108962914Y-91074714D01*
X108962914Y-91074714D02*
X109153390Y-91122333D01*
X109153390Y-91122333D02*
X109296247Y-91122333D01*
X109296247Y-91122333D02*
X109486723Y-91074714D01*
X109486723Y-91074714D02*
X109581961Y-91027095D01*
X109581961Y-91027095D02*
X109677200Y-90931857D01*
X109677200Y-90931857D02*
X109724819Y-90789000D01*
X109724819Y-90789000D02*
X109724819Y-90550905D01*
X106899104Y-88725524D02*
X106899104Y-89201714D01*
X107184819Y-88630286D02*
X106184819Y-88963619D01*
X106184819Y-88963619D02*
X107184819Y-89296952D01*
X107184819Y-90154095D02*
X107184819Y-89582667D01*
X107184819Y-89868381D02*
X106184819Y-89868381D01*
X106184819Y-89868381D02*
X106327676Y-89773143D01*
X106327676Y-89773143D02*
X106422914Y-89677905D01*
X106422914Y-89677905D02*
X106470533Y-89582667D01*
X106518152Y-91011238D02*
X107184819Y-91011238D01*
X106137200Y-90773143D02*
X106851485Y-90535048D01*
X106851485Y-90535048D02*
X106851485Y-91154095D01*
X135091569Y-87649207D02*
X134615378Y-87315874D01*
X135091569Y-87077779D02*
X134091569Y-87077779D01*
X134091569Y-87077779D02*
X134091569Y-87458731D01*
X134091569Y-87458731D02*
X134139188Y-87553969D01*
X134139188Y-87553969D02*
X134186807Y-87601588D01*
X134186807Y-87601588D02*
X134282045Y-87649207D01*
X134282045Y-87649207D02*
X134424902Y-87649207D01*
X134424902Y-87649207D02*
X134520140Y-87601588D01*
X134520140Y-87601588D02*
X134567759Y-87553969D01*
X134567759Y-87553969D02*
X134615378Y-87458731D01*
X134615378Y-87458731D02*
X134615378Y-87077779D01*
X135043950Y-88030160D02*
X135091569Y-88173017D01*
X135091569Y-88173017D02*
X135091569Y-88411112D01*
X135091569Y-88411112D02*
X135043950Y-88506350D01*
X135043950Y-88506350D02*
X134996330Y-88553969D01*
X134996330Y-88553969D02*
X134901092Y-88601588D01*
X134901092Y-88601588D02*
X134805854Y-88601588D01*
X134805854Y-88601588D02*
X134710616Y-88553969D01*
X134710616Y-88553969D02*
X134662997Y-88506350D01*
X134662997Y-88506350D02*
X134615378Y-88411112D01*
X134615378Y-88411112D02*
X134567759Y-88220636D01*
X134567759Y-88220636D02*
X134520140Y-88125398D01*
X134520140Y-88125398D02*
X134472521Y-88077779D01*
X134472521Y-88077779D02*
X134377283Y-88030160D01*
X134377283Y-88030160D02*
X134282045Y-88030160D01*
X134282045Y-88030160D02*
X134186807Y-88077779D01*
X134186807Y-88077779D02*
X134139188Y-88125398D01*
X134139188Y-88125398D02*
X134091569Y-88220636D01*
X134091569Y-88220636D02*
X134091569Y-88458731D01*
X134091569Y-88458731D02*
X134139188Y-88601588D01*
X134091569Y-88887303D02*
X134091569Y-89458731D01*
X135091569Y-89173017D02*
X134091569Y-89173017D01*
X104314104Y-88725524D02*
X104314104Y-89201714D01*
X104599819Y-88630286D02*
X103599819Y-88963619D01*
X103599819Y-88963619D02*
X104599819Y-89296952D01*
X104599819Y-90154095D02*
X104599819Y-89582667D01*
X104599819Y-89868381D02*
X103599819Y-89868381D01*
X103599819Y-89868381D02*
X103742676Y-89773143D01*
X103742676Y-89773143D02*
X103837914Y-89677905D01*
X103837914Y-89677905D02*
X103885533Y-89582667D01*
X103599819Y-90487429D02*
X103599819Y-91106476D01*
X103599819Y-91106476D02*
X103980771Y-90773143D01*
X103980771Y-90773143D02*
X103980771Y-90916000D01*
X103980771Y-90916000D02*
X104028390Y-91011238D01*
X104028390Y-91011238D02*
X104076009Y-91058857D01*
X104076009Y-91058857D02*
X104171247Y-91106476D01*
X104171247Y-91106476D02*
X104409342Y-91106476D01*
X104409342Y-91106476D02*
X104504580Y-91058857D01*
X104504580Y-91058857D02*
X104552200Y-91011238D01*
X104552200Y-91011238D02*
X104599819Y-90916000D01*
X104599819Y-90916000D02*
X104599819Y-90630286D01*
X104599819Y-90630286D02*
X104552200Y-90535048D01*
X104552200Y-90535048D02*
X104504580Y-90487429D01*
X138994819Y-74596666D02*
X139709104Y-74596666D01*
X139709104Y-74596666D02*
X139851961Y-74549047D01*
X139851961Y-74549047D02*
X139947200Y-74453809D01*
X139947200Y-74453809D02*
X139994819Y-74310952D01*
X139994819Y-74310952D02*
X139994819Y-74215714D01*
X139994819Y-75596666D02*
X139994819Y-75025238D01*
X139994819Y-75310952D02*
X138994819Y-75310952D01*
X138994819Y-75310952D02*
X139137676Y-75215714D01*
X139137676Y-75215714D02*
X139232914Y-75120476D01*
X139232914Y-75120476D02*
X139280533Y-75025238D01*
X138994819Y-92376666D02*
X139709104Y-92376666D01*
X139709104Y-92376666D02*
X139851961Y-92329047D01*
X139851961Y-92329047D02*
X139947200Y-92233809D01*
X139947200Y-92233809D02*
X139994819Y-92090952D01*
X139994819Y-92090952D02*
X139994819Y-91995714D01*
X139090057Y-92805238D02*
X139042438Y-92852857D01*
X139042438Y-92852857D02*
X138994819Y-92948095D01*
X138994819Y-92948095D02*
X138994819Y-93186190D01*
X138994819Y-93186190D02*
X139042438Y-93281428D01*
X139042438Y-93281428D02*
X139090057Y-93329047D01*
X139090057Y-93329047D02*
X139185295Y-93376666D01*
X139185295Y-93376666D02*
X139280533Y-93376666D01*
X139280533Y-93376666D02*
X139423390Y-93329047D01*
X139423390Y-93329047D02*
X139994819Y-92757619D01*
X139994819Y-92757619D02*
X139994819Y-93376666D01*
D11*
%TO.C,J1*%
X135890000Y-73550000D02*
X100220000Y-73550000D01*
X100220000Y-76310000D02*
X100220000Y-73550000D01*
X135890000Y-76310000D02*
X135890000Y-73550000D01*
X135890000Y-76310000D02*
X100220000Y-76310000D01*
X137160000Y-76310000D02*
X138540000Y-76310000D01*
X138540000Y-76310000D02*
X138540000Y-74930000D01*
%TO.C,J2*%
X135890000Y-91330000D02*
X100220000Y-91330000D01*
X100220000Y-94090000D02*
X100220000Y-91330000D01*
X135890000Y-94090000D02*
X135890000Y-91330000D01*
X135890000Y-94090000D02*
X100220000Y-94090000D01*
X137160000Y-94090000D02*
X138540000Y-94090000D01*
X138540000Y-94090000D02*
X138540000Y-92710000D01*
%TD*%
M02*
