%TF.GenerationSoftware,KiCad,Pcbnew,9.0.7*%
%TF.CreationDate,2026-09-18T16:32:36-07:00*%
%TF.ProjectId,PulseOximeter,50756c73-654f-4786-996d-657465722e6b,rev?*%
%TF.SameCoordinates,Original*%
%TF.FileFunction,Legend,Top*%
%TF.FilePolarity,Positive*%
%FSLAX46Y46*%
G04 Gerber Fmt 4.6, Leading zero omitted, Abs format (unit mm)*
G04 Created by KiCad (PCBNEW 9.0.7) date 2026-09-18 16:32:36*
%MOMM*%
%LPD*%
G01*
G04 APERTURE LIST*
%ADD10C,0.200000*%
%ADD11C,0.150000*%
%ADD12C,0.120000*%
%ADD13C,0.100000*%
%ADD14C,0.152400*%
%ADD15C,0.127000*%
%ADD16C,0.250000*%
G04 APERTURE END LIST*
D10*
X98300000Y-85900000D02*
X106600000Y-85900000D01*
X106600000Y-91400000D01*
X98300000Y-91400000D01*
X98300000Y-85900000D01*
D11*
X100881009Y-105009524D02*
X100928628Y-104866667D01*
X100928628Y-104866667D02*
X100976247Y-104819048D01*
X100976247Y-104819048D02*
X101071485Y-104771429D01*
X101071485Y-104771429D02*
X101214342Y-104771429D01*
X101214342Y-104771429D02*
X101309580Y-104819048D01*
X101309580Y-104819048D02*
X101357200Y-104866667D01*
X101357200Y-104866667D02*
X101404819Y-104961905D01*
X101404819Y-104961905D02*
X101404819Y-105342857D01*
X101404819Y-105342857D02*
X100404819Y-105342857D01*
X100404819Y-105342857D02*
X100404819Y-105009524D01*
X100404819Y-105009524D02*
X100452438Y-104914286D01*
X100452438Y-104914286D02*
X100500057Y-104866667D01*
X100500057Y-104866667D02*
X100595295Y-104819048D01*
X100595295Y-104819048D02*
X100690533Y-104819048D01*
X100690533Y-104819048D02*
X100785771Y-104866667D01*
X100785771Y-104866667D02*
X100833390Y-104914286D01*
X100833390Y-104914286D02*
X100881009Y-105009524D01*
X100881009Y-105009524D02*
X100881009Y-105342857D01*
X100404819Y-104485714D02*
X100404819Y-103914286D01*
X101404819Y-104200000D02*
X100404819Y-104200000D01*
D10*
X121783958Y-103721287D02*
X121664911Y-103661763D01*
X121664911Y-103661763D02*
X121486339Y-103661763D01*
X121486339Y-103661763D02*
X121307768Y-103721287D01*
X121307768Y-103721287D02*
X121188720Y-103840335D01*
X121188720Y-103840335D02*
X121129197Y-103959382D01*
X121129197Y-103959382D02*
X121069673Y-104197478D01*
X121069673Y-104197478D02*
X121069673Y-104376049D01*
X121069673Y-104376049D02*
X121129197Y-104614144D01*
X121129197Y-104614144D02*
X121188720Y-104733192D01*
X121188720Y-104733192D02*
X121307768Y-104852240D01*
X121307768Y-104852240D02*
X121486339Y-104911763D01*
X121486339Y-104911763D02*
X121605387Y-104911763D01*
X121605387Y-104911763D02*
X121783958Y-104852240D01*
X121783958Y-104852240D02*
X121843482Y-104792716D01*
X121843482Y-104792716D02*
X121843482Y-104376049D01*
X121843482Y-104376049D02*
X121605387Y-104376049D01*
X123093482Y-104792716D02*
X123033958Y-104852240D01*
X123033958Y-104852240D02*
X122855387Y-104911763D01*
X122855387Y-104911763D02*
X122736339Y-104911763D01*
X122736339Y-104911763D02*
X122557768Y-104852240D01*
X122557768Y-104852240D02*
X122438720Y-104733192D01*
X122438720Y-104733192D02*
X122379197Y-104614144D01*
X122379197Y-104614144D02*
X122319673Y-104376049D01*
X122319673Y-104376049D02*
X122319673Y-104197478D01*
X122319673Y-104197478D02*
X122379197Y-103959382D01*
X122379197Y-103959382D02*
X122438720Y-103840335D01*
X122438720Y-103840335D02*
X122557768Y-103721287D01*
X122557768Y-103721287D02*
X122736339Y-103661763D01*
X122736339Y-103661763D02*
X122855387Y-103661763D01*
X122855387Y-103661763D02*
X123033958Y-103721287D01*
X123033958Y-103721287D02*
X123093482Y-103780811D01*
X121129197Y-106924193D02*
X121129197Y-105674193D01*
X121129197Y-105674193D02*
X121605387Y-105674193D01*
X121605387Y-105674193D02*
X121724435Y-105733717D01*
X121724435Y-105733717D02*
X121783958Y-105793241D01*
X121783958Y-105793241D02*
X121843482Y-105912289D01*
X121843482Y-105912289D02*
X121843482Y-106090860D01*
X121843482Y-106090860D02*
X121783958Y-106209908D01*
X121783958Y-106209908D02*
X121724435Y-106269431D01*
X121724435Y-106269431D02*
X121605387Y-106328955D01*
X121605387Y-106328955D02*
X121129197Y-106328955D01*
X122914911Y-106090860D02*
X122914911Y-106924193D01*
X122379197Y-106090860D02*
X122379197Y-106745622D01*
X122379197Y-106745622D02*
X122438720Y-106864670D01*
X122438720Y-106864670D02*
X122557768Y-106924193D01*
X122557768Y-106924193D02*
X122736339Y-106924193D01*
X122736339Y-106924193D02*
X122855387Y-106864670D01*
X122855387Y-106864670D02*
X122914911Y-106805146D01*
X123688720Y-106924193D02*
X123569672Y-106864670D01*
X123569672Y-106864670D02*
X123510149Y-106745622D01*
X123510149Y-106745622D02*
X123510149Y-105674193D01*
X124105387Y-106864670D02*
X124224434Y-106924193D01*
X124224434Y-106924193D02*
X124462530Y-106924193D01*
X124462530Y-106924193D02*
X124581577Y-106864670D01*
X124581577Y-106864670D02*
X124641101Y-106745622D01*
X124641101Y-106745622D02*
X124641101Y-106686098D01*
X124641101Y-106686098D02*
X124581577Y-106567050D01*
X124581577Y-106567050D02*
X124462530Y-106507527D01*
X124462530Y-106507527D02*
X124283958Y-106507527D01*
X124283958Y-106507527D02*
X124164911Y-106448003D01*
X124164911Y-106448003D02*
X124105387Y-106328955D01*
X124105387Y-106328955D02*
X124105387Y-106269431D01*
X124105387Y-106269431D02*
X124164911Y-106150384D01*
X124164911Y-106150384D02*
X124283958Y-106090860D01*
X124283958Y-106090860D02*
X124462530Y-106090860D01*
X124462530Y-106090860D02*
X124581577Y-106150384D01*
X125653006Y-106864670D02*
X125533958Y-106924193D01*
X125533958Y-106924193D02*
X125295863Y-106924193D01*
X125295863Y-106924193D02*
X125176816Y-106864670D01*
X125176816Y-106864670D02*
X125117292Y-106745622D01*
X125117292Y-106745622D02*
X125117292Y-106269431D01*
X125117292Y-106269431D02*
X125176816Y-106150384D01*
X125176816Y-106150384D02*
X125295863Y-106090860D01*
X125295863Y-106090860D02*
X125533958Y-106090860D01*
X125533958Y-106090860D02*
X125653006Y-106150384D01*
X125653006Y-106150384D02*
X125712530Y-106269431D01*
X125712530Y-106269431D02*
X125712530Y-106388479D01*
X125712530Y-106388479D02*
X125117292Y-106507527D01*
X121367292Y-107686623D02*
X121605387Y-107686623D01*
X121605387Y-107686623D02*
X121724435Y-107746147D01*
X121724435Y-107746147D02*
X121843482Y-107865195D01*
X121843482Y-107865195D02*
X121903006Y-108103290D01*
X121903006Y-108103290D02*
X121903006Y-108519957D01*
X121903006Y-108519957D02*
X121843482Y-108758052D01*
X121843482Y-108758052D02*
X121724435Y-108877100D01*
X121724435Y-108877100D02*
X121605387Y-108936623D01*
X121605387Y-108936623D02*
X121367292Y-108936623D01*
X121367292Y-108936623D02*
X121248244Y-108877100D01*
X121248244Y-108877100D02*
X121129197Y-108758052D01*
X121129197Y-108758052D02*
X121069673Y-108519957D01*
X121069673Y-108519957D02*
X121069673Y-108103290D01*
X121069673Y-108103290D02*
X121129197Y-107865195D01*
X121129197Y-107865195D02*
X121248244Y-107746147D01*
X121248244Y-107746147D02*
X121367292Y-107686623D01*
X122319673Y-108936623D02*
X122974435Y-108103290D01*
X122319673Y-108103290D02*
X122974435Y-108936623D01*
X123450626Y-108936623D02*
X123450626Y-108103290D01*
X123450626Y-107686623D02*
X123391102Y-107746147D01*
X123391102Y-107746147D02*
X123450626Y-107805671D01*
X123450626Y-107805671D02*
X123510149Y-107746147D01*
X123510149Y-107746147D02*
X123450626Y-107686623D01*
X123450626Y-107686623D02*
X123450626Y-107805671D01*
X124045864Y-108936623D02*
X124045864Y-108103290D01*
X124045864Y-108222338D02*
X124105387Y-108162814D01*
X124105387Y-108162814D02*
X124224435Y-108103290D01*
X124224435Y-108103290D02*
X124403006Y-108103290D01*
X124403006Y-108103290D02*
X124522054Y-108162814D01*
X124522054Y-108162814D02*
X124581578Y-108281861D01*
X124581578Y-108281861D02*
X124581578Y-108936623D01*
X124581578Y-108281861D02*
X124641102Y-108162814D01*
X124641102Y-108162814D02*
X124760149Y-108103290D01*
X124760149Y-108103290D02*
X124938721Y-108103290D01*
X124938721Y-108103290D02*
X125057768Y-108162814D01*
X125057768Y-108162814D02*
X125117292Y-108281861D01*
X125117292Y-108281861D02*
X125117292Y-108936623D01*
X126188721Y-108877100D02*
X126069673Y-108936623D01*
X126069673Y-108936623D02*
X125831578Y-108936623D01*
X125831578Y-108936623D02*
X125712531Y-108877100D01*
X125712531Y-108877100D02*
X125653007Y-108758052D01*
X125653007Y-108758052D02*
X125653007Y-108281861D01*
X125653007Y-108281861D02*
X125712531Y-108162814D01*
X125712531Y-108162814D02*
X125831578Y-108103290D01*
X125831578Y-108103290D02*
X126069673Y-108103290D01*
X126069673Y-108103290D02*
X126188721Y-108162814D01*
X126188721Y-108162814D02*
X126248245Y-108281861D01*
X126248245Y-108281861D02*
X126248245Y-108400909D01*
X126248245Y-108400909D02*
X125653007Y-108519957D01*
X126605388Y-108103290D02*
X127081579Y-108103290D01*
X126783960Y-107686623D02*
X126783960Y-108758052D01*
X126783960Y-108758052D02*
X126843483Y-108877100D01*
X126843483Y-108877100D02*
X126962531Y-108936623D01*
X126962531Y-108936623D02*
X127081579Y-108936623D01*
X127974436Y-108877100D02*
X127855388Y-108936623D01*
X127855388Y-108936623D02*
X127617293Y-108936623D01*
X127617293Y-108936623D02*
X127498246Y-108877100D01*
X127498246Y-108877100D02*
X127438722Y-108758052D01*
X127438722Y-108758052D02*
X127438722Y-108281861D01*
X127438722Y-108281861D02*
X127498246Y-108162814D01*
X127498246Y-108162814D02*
X127617293Y-108103290D01*
X127617293Y-108103290D02*
X127855388Y-108103290D01*
X127855388Y-108103290D02*
X127974436Y-108162814D01*
X127974436Y-108162814D02*
X128033960Y-108281861D01*
X128033960Y-108281861D02*
X128033960Y-108400909D01*
X128033960Y-108400909D02*
X127438722Y-108519957D01*
X128569675Y-108936623D02*
X128569675Y-108103290D01*
X128569675Y-108341385D02*
X128629198Y-108222338D01*
X128629198Y-108222338D02*
X128688722Y-108162814D01*
X128688722Y-108162814D02*
X128807770Y-108103290D01*
X128807770Y-108103290D02*
X128926817Y-108103290D01*
D11*
X95881905Y-106254819D02*
X96500952Y-106254819D01*
X96500952Y-106254819D02*
X96167619Y-106635771D01*
X96167619Y-106635771D02*
X96310476Y-106635771D01*
X96310476Y-106635771D02*
X96405714Y-106683390D01*
X96405714Y-106683390D02*
X96453333Y-106731009D01*
X96453333Y-106731009D02*
X96500952Y-106826247D01*
X96500952Y-106826247D02*
X96500952Y-107064342D01*
X96500952Y-107064342D02*
X96453333Y-107159580D01*
X96453333Y-107159580D02*
X96405714Y-107207200D01*
X96405714Y-107207200D02*
X96310476Y-107254819D01*
X96310476Y-107254819D02*
X96024762Y-107254819D01*
X96024762Y-107254819D02*
X95929524Y-107207200D01*
X95929524Y-107207200D02*
X95881905Y-107159580D01*
X96786667Y-106254819D02*
X97120000Y-107254819D01*
X97120000Y-107254819D02*
X97453333Y-106254819D01*
X97691429Y-106254819D02*
X98310476Y-106254819D01*
X98310476Y-106254819D02*
X97977143Y-106635771D01*
X97977143Y-106635771D02*
X98120000Y-106635771D01*
X98120000Y-106635771D02*
X98215238Y-106683390D01*
X98215238Y-106683390D02*
X98262857Y-106731009D01*
X98262857Y-106731009D02*
X98310476Y-106826247D01*
X98310476Y-106826247D02*
X98310476Y-107064342D01*
X98310476Y-107064342D02*
X98262857Y-107159580D01*
X98262857Y-107159580D02*
X98215238Y-107207200D01*
X98215238Y-107207200D02*
X98120000Y-107254819D01*
X98120000Y-107254819D02*
X97834286Y-107254819D01*
X97834286Y-107254819D02*
X97739048Y-107207200D01*
X97739048Y-107207200D02*
X97691429Y-107159580D01*
X101604761Y-107109580D02*
X101557142Y-107157200D01*
X101557142Y-107157200D02*
X101414285Y-107204819D01*
X101414285Y-107204819D02*
X101319047Y-107204819D01*
X101319047Y-107204819D02*
X101176190Y-107157200D01*
X101176190Y-107157200D02*
X101080952Y-107061961D01*
X101080952Y-107061961D02*
X101033333Y-106966723D01*
X101033333Y-106966723D02*
X100985714Y-106776247D01*
X100985714Y-106776247D02*
X100985714Y-106633390D01*
X100985714Y-106633390D02*
X101033333Y-106442914D01*
X101033333Y-106442914D02*
X101080952Y-106347676D01*
X101080952Y-106347676D02*
X101176190Y-106252438D01*
X101176190Y-106252438D02*
X101319047Y-106204819D01*
X101319047Y-106204819D02*
X101414285Y-106204819D01*
X101414285Y-106204819D02*
X101557142Y-106252438D01*
X101557142Y-106252438D02*
X101604761Y-106300057D01*
X102509523Y-107204819D02*
X102033333Y-107204819D01*
X102033333Y-107204819D02*
X102033333Y-106204819D01*
X102842857Y-107204819D02*
X102842857Y-106204819D01*
X103414285Y-107204819D02*
X102985714Y-106633390D01*
X103414285Y-106204819D02*
X102842857Y-106776247D01*
X108842800Y-107142857D02*
X108795180Y-107285714D01*
X108795180Y-107285714D02*
X108795180Y-107523809D01*
X108795180Y-107523809D02*
X108842800Y-107619047D01*
X108842800Y-107619047D02*
X108890419Y-107666666D01*
X108890419Y-107666666D02*
X108985657Y-107714285D01*
X108985657Y-107714285D02*
X109080895Y-107714285D01*
X109080895Y-107714285D02*
X109176133Y-107666666D01*
X109176133Y-107666666D02*
X109223752Y-107619047D01*
X109223752Y-107619047D02*
X109271371Y-107523809D01*
X109271371Y-107523809D02*
X109318990Y-107333333D01*
X109318990Y-107333333D02*
X109366609Y-107238095D01*
X109366609Y-107238095D02*
X109414228Y-107190476D01*
X109414228Y-107190476D02*
X109509466Y-107142857D01*
X109509466Y-107142857D02*
X109604704Y-107142857D01*
X109604704Y-107142857D02*
X109699942Y-107190476D01*
X109699942Y-107190476D02*
X109747561Y-107238095D01*
X109747561Y-107238095D02*
X109795180Y-107333333D01*
X109795180Y-107333333D02*
X109795180Y-107571428D01*
X109795180Y-107571428D02*
X109747561Y-107714285D01*
X109795180Y-108047619D02*
X108795180Y-108285714D01*
X108795180Y-108285714D02*
X109509466Y-108476190D01*
X109509466Y-108476190D02*
X108795180Y-108666666D01*
X108795180Y-108666666D02*
X109795180Y-108904762D01*
X108795180Y-109285714D02*
X109795180Y-109285714D01*
X109795180Y-109285714D02*
X109795180Y-109523809D01*
X109795180Y-109523809D02*
X109747561Y-109666666D01*
X109747561Y-109666666D02*
X109652323Y-109761904D01*
X109652323Y-109761904D02*
X109557085Y-109809523D01*
X109557085Y-109809523D02*
X109366609Y-109857142D01*
X109366609Y-109857142D02*
X109223752Y-109857142D01*
X109223752Y-109857142D02*
X109033276Y-109809523D01*
X109033276Y-109809523D02*
X108938038Y-109761904D01*
X108938038Y-109761904D02*
X108842800Y-109666666D01*
X108842800Y-109666666D02*
X108795180Y-109523809D01*
X108795180Y-109523809D02*
X108795180Y-109285714D01*
X98854819Y-105297619D02*
X98378628Y-105630952D01*
X98854819Y-105869047D02*
X97854819Y-105869047D01*
X97854819Y-105869047D02*
X97854819Y-105488095D01*
X97854819Y-105488095D02*
X97902438Y-105392857D01*
X97902438Y-105392857D02*
X97950057Y-105345238D01*
X97950057Y-105345238D02*
X98045295Y-105297619D01*
X98045295Y-105297619D02*
X98188152Y-105297619D01*
X98188152Y-105297619D02*
X98283390Y-105345238D01*
X98283390Y-105345238D02*
X98331009Y-105392857D01*
X98331009Y-105392857D02*
X98378628Y-105488095D01*
X98378628Y-105488095D02*
X98378628Y-105869047D01*
X98807200Y-104916666D02*
X98854819Y-104773809D01*
X98854819Y-104773809D02*
X98854819Y-104535714D01*
X98854819Y-104535714D02*
X98807200Y-104440476D01*
X98807200Y-104440476D02*
X98759580Y-104392857D01*
X98759580Y-104392857D02*
X98664342Y-104345238D01*
X98664342Y-104345238D02*
X98569104Y-104345238D01*
X98569104Y-104345238D02*
X98473866Y-104392857D01*
X98473866Y-104392857D02*
X98426247Y-104440476D01*
X98426247Y-104440476D02*
X98378628Y-104535714D01*
X98378628Y-104535714D02*
X98331009Y-104726190D01*
X98331009Y-104726190D02*
X98283390Y-104821428D01*
X98283390Y-104821428D02*
X98235771Y-104869047D01*
X98235771Y-104869047D02*
X98140533Y-104916666D01*
X98140533Y-104916666D02*
X98045295Y-104916666D01*
X98045295Y-104916666D02*
X97950057Y-104869047D01*
X97950057Y-104869047D02*
X97902438Y-104821428D01*
X97902438Y-104821428D02*
X97854819Y-104726190D01*
X97854819Y-104726190D02*
X97854819Y-104488095D01*
X97854819Y-104488095D02*
X97902438Y-104345238D01*
X97854819Y-104059523D02*
X97854819Y-103488095D01*
X98854819Y-103773809D02*
X97854819Y-103773809D01*
X104501904Y-106302438D02*
X104406666Y-106254819D01*
X104406666Y-106254819D02*
X104263809Y-106254819D01*
X104263809Y-106254819D02*
X104120952Y-106302438D01*
X104120952Y-106302438D02*
X104025714Y-106397676D01*
X104025714Y-106397676D02*
X103978095Y-106492914D01*
X103978095Y-106492914D02*
X103930476Y-106683390D01*
X103930476Y-106683390D02*
X103930476Y-106826247D01*
X103930476Y-106826247D02*
X103978095Y-107016723D01*
X103978095Y-107016723D02*
X104025714Y-107111961D01*
X104025714Y-107111961D02*
X104120952Y-107207200D01*
X104120952Y-107207200D02*
X104263809Y-107254819D01*
X104263809Y-107254819D02*
X104359047Y-107254819D01*
X104359047Y-107254819D02*
X104501904Y-107207200D01*
X104501904Y-107207200D02*
X104549523Y-107159580D01*
X104549523Y-107159580D02*
X104549523Y-106826247D01*
X104549523Y-106826247D02*
X104359047Y-106826247D01*
X104978095Y-107254819D02*
X104978095Y-106254819D01*
X104978095Y-106254819D02*
X105216190Y-106254819D01*
X105216190Y-106254819D02*
X105359047Y-106302438D01*
X105359047Y-106302438D02*
X105454285Y-106397676D01*
X105454285Y-106397676D02*
X105501904Y-106492914D01*
X105501904Y-106492914D02*
X105549523Y-106683390D01*
X105549523Y-106683390D02*
X105549523Y-106826247D01*
X105549523Y-106826247D02*
X105501904Y-107016723D01*
X105501904Y-107016723D02*
X105454285Y-107111961D01*
X105454285Y-107111961D02*
X105359047Y-107207200D01*
X105359047Y-107207200D02*
X105216190Y-107254819D01*
X105216190Y-107254819D02*
X104978095Y-107254819D01*
X99176191Y-107254819D02*
X99176191Y-106254819D01*
X99842857Y-106254819D02*
X100033333Y-106254819D01*
X100033333Y-106254819D02*
X100128571Y-106302438D01*
X100128571Y-106302438D02*
X100223809Y-106397676D01*
X100223809Y-106397676D02*
X100271428Y-106588152D01*
X100271428Y-106588152D02*
X100271428Y-106921485D01*
X100271428Y-106921485D02*
X100223809Y-107111961D01*
X100223809Y-107111961D02*
X100128571Y-107207200D01*
X100128571Y-107207200D02*
X100033333Y-107254819D01*
X100033333Y-107254819D02*
X99842857Y-107254819D01*
X99842857Y-107254819D02*
X99747619Y-107207200D01*
X99747619Y-107207200D02*
X99652381Y-107111961D01*
X99652381Y-107111961D02*
X99604762Y-106921485D01*
X99604762Y-106921485D02*
X99604762Y-106588152D01*
X99604762Y-106588152D02*
X99652381Y-106397676D01*
X99652381Y-106397676D02*
X99747619Y-106302438D01*
X99747619Y-106302438D02*
X99842857Y-106254819D01*
X106732380Y-107254819D02*
X106399047Y-106778628D01*
X106160952Y-107254819D02*
X106160952Y-106254819D01*
X106160952Y-106254819D02*
X106541904Y-106254819D01*
X106541904Y-106254819D02*
X106637142Y-106302438D01*
X106637142Y-106302438D02*
X106684761Y-106350057D01*
X106684761Y-106350057D02*
X106732380Y-106445295D01*
X106732380Y-106445295D02*
X106732380Y-106588152D01*
X106732380Y-106588152D02*
X106684761Y-106683390D01*
X106684761Y-106683390D02*
X106637142Y-106731009D01*
X106637142Y-106731009D02*
X106541904Y-106778628D01*
X106541904Y-106778628D02*
X106160952Y-106778628D01*
X107113333Y-107207200D02*
X107256190Y-107254819D01*
X107256190Y-107254819D02*
X107494285Y-107254819D01*
X107494285Y-107254819D02*
X107589523Y-107207200D01*
X107589523Y-107207200D02*
X107637142Y-107159580D01*
X107637142Y-107159580D02*
X107684761Y-107064342D01*
X107684761Y-107064342D02*
X107684761Y-106969104D01*
X107684761Y-106969104D02*
X107637142Y-106873866D01*
X107637142Y-106873866D02*
X107589523Y-106826247D01*
X107589523Y-106826247D02*
X107494285Y-106778628D01*
X107494285Y-106778628D02*
X107303809Y-106731009D01*
X107303809Y-106731009D02*
X107208571Y-106683390D01*
X107208571Y-106683390D02*
X107160952Y-106635771D01*
X107160952Y-106635771D02*
X107113333Y-106540533D01*
X107113333Y-106540533D02*
X107113333Y-106445295D01*
X107113333Y-106445295D02*
X107160952Y-106350057D01*
X107160952Y-106350057D02*
X107208571Y-106302438D01*
X107208571Y-106302438D02*
X107303809Y-106254819D01*
X107303809Y-106254819D02*
X107541904Y-106254819D01*
X107541904Y-106254819D02*
X107684761Y-106302438D01*
X107970476Y-106254819D02*
X108541904Y-106254819D01*
X108256190Y-107254819D02*
X108256190Y-106254819D01*
X99949999Y-87776037D02*
X100092856Y-87823656D01*
X100092856Y-87823656D02*
X100140475Y-87871275D01*
X100140475Y-87871275D02*
X100188094Y-87966513D01*
X100188094Y-87966513D02*
X100188094Y-88109370D01*
X100188094Y-88109370D02*
X100140475Y-88204608D01*
X100140475Y-88204608D02*
X100092856Y-88252228D01*
X100092856Y-88252228D02*
X99997618Y-88299847D01*
X99997618Y-88299847D02*
X99616666Y-88299847D01*
X99616666Y-88299847D02*
X99616666Y-87299847D01*
X99616666Y-87299847D02*
X99949999Y-87299847D01*
X99949999Y-87299847D02*
X100045237Y-87347466D01*
X100045237Y-87347466D02*
X100092856Y-87395085D01*
X100092856Y-87395085D02*
X100140475Y-87490323D01*
X100140475Y-87490323D02*
X100140475Y-87585561D01*
X100140475Y-87585561D02*
X100092856Y-87680799D01*
X100092856Y-87680799D02*
X100045237Y-87728418D01*
X100045237Y-87728418D02*
X99949999Y-87776037D01*
X99949999Y-87776037D02*
X99616666Y-87776037D01*
X100569047Y-88014132D02*
X101045237Y-88014132D01*
X100473809Y-88299847D02*
X100807142Y-87299847D01*
X100807142Y-87299847D02*
X101140475Y-88299847D01*
X101330952Y-87299847D02*
X101902380Y-87299847D01*
X101616666Y-88299847D02*
X101616666Y-87299847D01*
X102092857Y-87299847D02*
X102664285Y-87299847D01*
X102378571Y-88299847D02*
X102378571Y-87299847D01*
X102997619Y-87776037D02*
X103330952Y-87776037D01*
X103473809Y-88299847D02*
X102997619Y-88299847D01*
X102997619Y-88299847D02*
X102997619Y-87299847D01*
X102997619Y-87299847D02*
X103473809Y-87299847D01*
X104473809Y-88299847D02*
X104140476Y-87823656D01*
X103902381Y-88299847D02*
X103902381Y-87299847D01*
X103902381Y-87299847D02*
X104283333Y-87299847D01*
X104283333Y-87299847D02*
X104378571Y-87347466D01*
X104378571Y-87347466D02*
X104426190Y-87395085D01*
X104426190Y-87395085D02*
X104473809Y-87490323D01*
X104473809Y-87490323D02*
X104473809Y-87633180D01*
X104473809Y-87633180D02*
X104426190Y-87728418D01*
X104426190Y-87728418D02*
X104378571Y-87776037D01*
X104378571Y-87776037D02*
X104283333Y-87823656D01*
X104283333Y-87823656D02*
X103902381Y-87823656D01*
X105092857Y-87823656D02*
X105092857Y-88299847D01*
X104759524Y-87299847D02*
X105092857Y-87823656D01*
X105092857Y-87823656D02*
X105426190Y-87299847D01*
X100116667Y-89909791D02*
X100116667Y-88909791D01*
X100592857Y-89909791D02*
X100592857Y-88909791D01*
X100592857Y-88909791D02*
X101164285Y-89909791D01*
X101164285Y-89909791D02*
X101164285Y-88909791D01*
X101592857Y-89862172D02*
X101735714Y-89909791D01*
X101735714Y-89909791D02*
X101973809Y-89909791D01*
X101973809Y-89909791D02*
X102069047Y-89862172D01*
X102069047Y-89862172D02*
X102116666Y-89814552D01*
X102116666Y-89814552D02*
X102164285Y-89719314D01*
X102164285Y-89719314D02*
X102164285Y-89624076D01*
X102164285Y-89624076D02*
X102116666Y-89528838D01*
X102116666Y-89528838D02*
X102069047Y-89481219D01*
X102069047Y-89481219D02*
X101973809Y-89433600D01*
X101973809Y-89433600D02*
X101783333Y-89385981D01*
X101783333Y-89385981D02*
X101688095Y-89338362D01*
X101688095Y-89338362D02*
X101640476Y-89290743D01*
X101640476Y-89290743D02*
X101592857Y-89195505D01*
X101592857Y-89195505D02*
X101592857Y-89100267D01*
X101592857Y-89100267D02*
X101640476Y-89005029D01*
X101640476Y-89005029D02*
X101688095Y-88957410D01*
X101688095Y-88957410D02*
X101783333Y-88909791D01*
X101783333Y-88909791D02*
X102021428Y-88909791D01*
X102021428Y-88909791D02*
X102164285Y-88957410D01*
X102592857Y-89385981D02*
X102926190Y-89385981D01*
X103069047Y-89909791D02*
X102592857Y-89909791D01*
X102592857Y-89909791D02*
X102592857Y-88909791D01*
X102592857Y-88909791D02*
X103069047Y-88909791D01*
X104069047Y-89909791D02*
X103735714Y-89433600D01*
X103497619Y-89909791D02*
X103497619Y-88909791D01*
X103497619Y-88909791D02*
X103878571Y-88909791D01*
X103878571Y-88909791D02*
X103973809Y-88957410D01*
X103973809Y-88957410D02*
X104021428Y-89005029D01*
X104021428Y-89005029D02*
X104069047Y-89100267D01*
X104069047Y-89100267D02*
X104069047Y-89243124D01*
X104069047Y-89243124D02*
X104021428Y-89338362D01*
X104021428Y-89338362D02*
X103973809Y-89385981D01*
X103973809Y-89385981D02*
X103878571Y-89433600D01*
X103878571Y-89433600D02*
X103497619Y-89433600D01*
X104354762Y-88909791D02*
X104926190Y-88909791D01*
X104640476Y-89909791D02*
X104640476Y-88909791D01*
X95105461Y-89389117D02*
X94104075Y-89389117D01*
X94104075Y-89389117D02*
X94104075Y-89007637D01*
X94104075Y-89007637D02*
X94151760Y-88912267D01*
X94151760Y-88912267D02*
X94199445Y-88864582D01*
X94199445Y-88864582D02*
X94294815Y-88816897D01*
X94294815Y-88816897D02*
X94437870Y-88816897D01*
X94437870Y-88816897D02*
X94533240Y-88864582D01*
X94533240Y-88864582D02*
X94580925Y-88912267D01*
X94580925Y-88912267D02*
X94628610Y-89007637D01*
X94628610Y-89007637D02*
X94628610Y-89389117D01*
X95105461Y-87863196D02*
X95105461Y-88435416D01*
X95105461Y-88149306D02*
X94104075Y-88149306D01*
X94104075Y-88149306D02*
X94247130Y-88244676D01*
X94247130Y-88244676D02*
X94342500Y-88340046D01*
X94342500Y-88340046D02*
X94390185Y-88435416D01*
X118020180Y-92600195D02*
X118020180Y-92124005D01*
X118020180Y-92124005D02*
X117543990Y-92076386D01*
X117543990Y-92076386D02*
X117591609Y-92124005D01*
X117591609Y-92124005D02*
X117639228Y-92219243D01*
X117639228Y-92219243D02*
X117639228Y-92457338D01*
X117639228Y-92457338D02*
X117591609Y-92552576D01*
X117591609Y-92552576D02*
X117543990Y-92600195D01*
X117543990Y-92600195D02*
X117448752Y-92647814D01*
X117448752Y-92647814D02*
X117210657Y-92647814D01*
X117210657Y-92647814D02*
X117115419Y-92600195D01*
X117115419Y-92600195D02*
X117067800Y-92552576D01*
X117067800Y-92552576D02*
X117020180Y-92457338D01*
X117020180Y-92457338D02*
X117020180Y-92219243D01*
X117020180Y-92219243D02*
X117067800Y-92124005D01*
X117067800Y-92124005D02*
X117115419Y-92076386D01*
X120176794Y-91230895D02*
X119700604Y-91230895D01*
X120272032Y-90945180D02*
X119938699Y-91945180D01*
X119938699Y-91945180D02*
X119605366Y-90945180D01*
X120200604Y-89745180D02*
X120200604Y-90745180D01*
X120200604Y-90745180D02*
X119962509Y-90745180D01*
X119962509Y-90745180D02*
X119819652Y-90697561D01*
X119819652Y-90697561D02*
X119724414Y-90602323D01*
X119724414Y-90602323D02*
X119676795Y-90507085D01*
X119676795Y-90507085D02*
X119629176Y-90316609D01*
X119629176Y-90316609D02*
X119629176Y-90173752D01*
X119629176Y-90173752D02*
X119676795Y-89983276D01*
X119676795Y-89983276D02*
X119724414Y-89888038D01*
X119724414Y-89888038D02*
X119819652Y-89792800D01*
X119819652Y-89792800D02*
X119962509Y-89745180D01*
X119962509Y-89745180D02*
X120200604Y-89745180D01*
X118620180Y-92647814D02*
X118620180Y-92076386D01*
X118620180Y-92362100D02*
X119620180Y-92362100D01*
X119620180Y-92362100D02*
X119477323Y-92266862D01*
X119477323Y-92266862D02*
X119382085Y-92171624D01*
X119382085Y-92171624D02*
X119334466Y-92076386D01*
X85843200Y-89454819D02*
X85843200Y-89692914D01*
X85605105Y-89597676D02*
X85843200Y-89692914D01*
X85843200Y-89692914D02*
X86081295Y-89597676D01*
X85700343Y-89883390D02*
X85843200Y-89692914D01*
X85843200Y-89692914D02*
X85986057Y-89883390D01*
X85843199Y-90595180D02*
X85843199Y-90357085D01*
X86081294Y-90452323D02*
X85843199Y-90357085D01*
X85843199Y-90357085D02*
X85605104Y-90452323D01*
X85986056Y-90166609D02*
X85843199Y-90357085D01*
X85843199Y-90357085D02*
X85700342Y-90166609D01*
X82395180Y-96666666D02*
X81680895Y-96666666D01*
X81680895Y-96666666D02*
X81538038Y-96619047D01*
X81538038Y-96619047D02*
X81442800Y-96523809D01*
X81442800Y-96523809D02*
X81395180Y-96380952D01*
X81395180Y-96380952D02*
X81395180Y-96285714D01*
X82299942Y-97095238D02*
X82347561Y-97142857D01*
X82347561Y-97142857D02*
X82395180Y-97238095D01*
X82395180Y-97238095D02*
X82395180Y-97476190D01*
X82395180Y-97476190D02*
X82347561Y-97571428D01*
X82347561Y-97571428D02*
X82299942Y-97619047D01*
X82299942Y-97619047D02*
X82204704Y-97666666D01*
X82204704Y-97666666D02*
X82109466Y-97666666D01*
X82109466Y-97666666D02*
X81966609Y-97619047D01*
X81966609Y-97619047D02*
X81395180Y-97047619D01*
X81395180Y-97047619D02*
X81395180Y-97666666D01*
X85758019Y-91259998D02*
X85996114Y-91259998D01*
X85900876Y-91498093D02*
X85996114Y-91259998D01*
X85996114Y-91259998D02*
X85900876Y-91021903D01*
X86186590Y-91402855D02*
X85996114Y-91259998D01*
X85996114Y-91259998D02*
X86186590Y-91117141D01*
X86848380Y-91259999D02*
X86610285Y-91259999D01*
X86705523Y-91021904D02*
X86610285Y-91259999D01*
X86610285Y-91259999D02*
X86705523Y-91498094D01*
X86419809Y-91117142D02*
X86610285Y-91259999D01*
X86610285Y-91259999D02*
X86419809Y-91402856D01*
D12*
%TO.C,C16*%
X82890000Y-105771920D02*
X82890000Y-106053080D01*
X83910000Y-105771920D02*
X83910000Y-106053080D01*
%TO.C,C6*%
X119615580Y-85690000D02*
X119334420Y-85690000D01*
X119615580Y-86710000D02*
X119334420Y-86710000D01*
%TO.C,C1*%
X103140000Y-102915580D02*
X103140000Y-102634420D01*
X104160000Y-102915580D02*
X104160000Y-102634420D01*
D13*
%TO.C,U3*%
X108700000Y-88100000D02*
X108700000Y-90200000D01*
X108700000Y-90200000D02*
X108800000Y-90200000D01*
X108850000Y-88100000D02*
X108700000Y-88100000D01*
X111700000Y-88100000D02*
X111800000Y-88100000D01*
X111800000Y-88100000D02*
X111800000Y-90200000D01*
X111800000Y-90200000D02*
X111700000Y-90200000D01*
X111300000Y-87477000D02*
G75*
G02*
X111200000Y-87477000I-50000J0D01*
G01*
X111200000Y-87477000D02*
G75*
G02*
X111300000Y-87477000I50000J0D01*
G01*
D12*
%TO.C,C2*%
X104840000Y-102915580D02*
X104840000Y-102634420D01*
X105860000Y-102915580D02*
X105860000Y-102634420D01*
%TO.C,C10*%
X92640580Y-102690000D02*
X92359420Y-102690000D01*
X92640580Y-103710000D02*
X92359420Y-103710000D01*
%TO.C,C13*%
X80790000Y-87565580D02*
X80790000Y-87284420D01*
X81810000Y-87565580D02*
X81810000Y-87284420D01*
%TO.C,C21*%
X110109420Y-91990000D02*
X110390580Y-91990000D01*
X110109420Y-93010000D02*
X110390580Y-93010000D01*
%TO.C,R_Prog1*%
X82287258Y-89927500D02*
X81812742Y-89927500D01*
X82287258Y-90972500D02*
X81812742Y-90972500D01*
D14*
%TO.C,U2*%
X89400600Y-104265000D02*
X89400600Y-104569800D01*
X89400600Y-107059000D02*
X89400600Y-107363800D01*
X89400600Y-107363800D02*
X92499400Y-107363800D01*
X91991400Y-107363800D02*
X92296200Y-107059000D01*
X92499400Y-104265000D02*
X89400600Y-104265000D01*
X92499400Y-104569800D02*
X92499400Y-104265000D01*
X92499400Y-107363800D02*
X92499400Y-107059000D01*
D13*
X93134399Y-106500200D02*
G75*
G02*
X93134400Y-106627200I15833J-63500D01*
G01*
%TO.C,J3*%
X95850000Y-107435000D02*
X96950000Y-107435000D01*
X97350000Y-107435000D02*
X98450000Y-107435000D01*
X98850000Y-107435000D02*
X99950000Y-107435000D01*
X100350000Y-107435000D02*
X101450000Y-107435000D01*
X101850000Y-107435000D02*
X102950000Y-107435000D01*
X103350000Y-107435000D02*
X104450000Y-107435000D01*
X104850000Y-107435000D02*
X105950000Y-107435000D01*
X106350000Y-107435000D02*
X107450000Y-107435000D01*
X107850000Y-107435000D02*
X108550000Y-107435000D01*
X108550000Y-107435000D02*
X108550000Y-108535000D01*
X108550000Y-108935000D02*
X108550000Y-109975000D01*
X108550000Y-109975000D02*
X107450000Y-109975000D01*
X107050000Y-109975000D02*
X105950000Y-109975000D01*
X105550000Y-109975000D02*
X104450000Y-109975000D01*
X104050000Y-109975000D02*
X102950000Y-109975000D01*
X102550000Y-109975000D02*
X101450000Y-109975000D01*
X101050000Y-109975000D02*
X99950000Y-109975000D01*
X99550000Y-109975000D02*
X98450000Y-109975000D01*
X98050000Y-109975000D02*
X96950000Y-109975000D01*
X96550000Y-109975000D02*
X95850000Y-109975000D01*
X95850000Y-109975000D02*
X95850000Y-108875000D01*
X95850000Y-108475000D02*
X95850000Y-107435000D01*
%TO.C,P1*%
D15*
X89063500Y-90550000D02*
G75*
G02*
X88936500Y-90550000I-63500J0D01*
G01*
X88936500Y-90550000D02*
G75*
G02*
X89063500Y-90550000I63500J0D01*
G01*
D12*
%TO.C,R9*%
X89897157Y-93677500D02*
X89422641Y-93677500D01*
X89897157Y-94722500D02*
X89422641Y-94722500D01*
D15*
%TO.C,R7*%
X106900000Y-89166000D02*
X106900000Y-89006000D01*
X107700000Y-89166000D02*
X107700000Y-89006000D01*
D10*
%TO.C,D3*%
X86375000Y-107120000D02*
X86375000Y-103650000D01*
X88025000Y-106350000D02*
X88025000Y-103650000D01*
D12*
%TO.C,R3*%
X112717258Y-85487500D02*
X112242742Y-85487500D01*
X112717258Y-86532500D02*
X112242742Y-86532500D01*
%TO.C,R5*%
X83212258Y-102977500D02*
X82737742Y-102977500D01*
X83212258Y-104022500D02*
X82737742Y-104022500D01*
%TO.C,C7*%
X94390000Y-96565580D02*
X94390000Y-96284420D01*
X95410000Y-96565580D02*
X95410000Y-96284420D01*
%TO.C,C18*%
X127690000Y-88165580D02*
X127690000Y-87884420D01*
X128710000Y-88165580D02*
X128710000Y-87884420D01*
%TO.C,C20*%
X106490000Y-101284420D02*
X106490000Y-101565580D01*
X107510000Y-101284420D02*
X107510000Y-101565580D01*
%TO.C,R10*%
X89897157Y-99277500D02*
X89422641Y-99277500D01*
X89897157Y-100322500D02*
X89422641Y-100322500D01*
%TO.C,R2*%
X109087742Y-85487500D02*
X109562258Y-85487500D01*
X109087742Y-86532500D02*
X109562258Y-86532500D01*
%TO.C,C9*%
X119590580Y-87390000D02*
X119309420Y-87390000D01*
X119590580Y-88410000D02*
X119309420Y-88410000D01*
%TO.C,R_Filt1*%
X113187742Y-91977500D02*
X113662258Y-91977500D01*
X113187742Y-93022500D02*
X113662258Y-93022500D01*
%TO.C,R11*%
X110102258Y-96777500D02*
X109627742Y-96777500D01*
X110102258Y-97822500D02*
X109627742Y-97822500D01*
%TO.C,R14*%
X104637258Y-104677500D02*
X104162742Y-104677500D01*
X104637258Y-105722500D02*
X104162742Y-105722500D01*
%TO.C,C19*%
X121390000Y-87884420D02*
X121390000Y-88165580D01*
X122410000Y-87884420D02*
X122410000Y-88165580D01*
%TO.C,R6*%
X91462742Y-108077500D02*
X91937258Y-108077500D01*
X91462742Y-109122500D02*
X91937258Y-109122500D01*
%TO.C,FB1*%
X80840000Y-105800378D02*
X80840000Y-106599622D01*
X81960000Y-105800378D02*
X81960000Y-106599622D01*
%TO.C,C12*%
X88540580Y-108090000D02*
X88259420Y-108090000D01*
X88540580Y-109110000D02*
X88259420Y-109110000D01*
D16*
%TO.C,IC1*%
X101850000Y-102750000D02*
G75*
G02*
X101600000Y-102750000I-125000J0D01*
G01*
X101600000Y-102750000D02*
G75*
G02*
X101850000Y-102750000I125000J0D01*
G01*
D12*
%TO.C,C15*%
X84690000Y-105771920D02*
X84690000Y-106053080D01*
X85710000Y-105771920D02*
X85710000Y-106053080D01*
D14*
%TO.C,U4*%
X83315900Y-87311338D02*
X83315900Y-88088660D01*
X83315900Y-89376399D02*
X85373300Y-89376399D01*
X85373300Y-86023599D02*
X83315900Y-86023599D01*
D12*
%TO.C,C11*%
X112720000Y-89089420D02*
X112720000Y-89370580D01*
X113740000Y-89089420D02*
X113740000Y-89370580D01*
%TO.C,R8*%
X106787742Y-91977500D02*
X107262258Y-91977500D01*
X106787742Y-93022500D02*
X107262258Y-93022500D01*
D10*
%TO.C,D4*%
X89979899Y-95538000D02*
X90579899Y-95538000D01*
X89979899Y-98462000D02*
X89979899Y-95538000D01*
X90579899Y-95538000D02*
X90579899Y-98462000D01*
X90579899Y-98462000D02*
X89979899Y-98462000D01*
X92129899Y-98600000D02*
X90929899Y-98600000D01*
D12*
%TO.C,C14*%
X86790000Y-87284420D02*
X86790000Y-87565580D01*
X87810000Y-87284420D02*
X87810000Y-87565580D01*
%TO.C,C4*%
X104840000Y-99365580D02*
X104840000Y-99084420D01*
X105860000Y-99365580D02*
X105860000Y-99084420D01*
D10*
%TO.C,IC2*%
X124750000Y-85800000D02*
X125350000Y-85800000D01*
X124750000Y-88700000D02*
X124750000Y-85800000D01*
X125350000Y-85800000D02*
X125350000Y-88700000D01*
X125350000Y-88700000D02*
X124750000Y-88700000D01*
X126900000Y-88750000D02*
X125700000Y-88750000D01*
D12*
%TO.C,C8*%
X114490000Y-89084420D02*
X114490000Y-89365580D01*
X115510000Y-89084420D02*
X115510000Y-89365580D01*
%TO.C,C17*%
X84009420Y-108090000D02*
X84290580Y-108090000D01*
X84009420Y-109110000D02*
X84290580Y-109110000D01*
%TO.C,C5*%
X103140000Y-99365580D02*
X103140000Y-99084420D01*
X104160000Y-99365580D02*
X104160000Y-99084420D01*
%TO.C,R1*%
X124077500Y-101337742D02*
X124077500Y-101812258D01*
X125122500Y-101337742D02*
X125122500Y-101812258D01*
D13*
%TO.C,S1*%
X110935000Y-108300000D02*
X110935000Y-101800000D01*
X116500000Y-99680000D02*
X113500000Y-99680000D01*
D10*
X118600000Y-98700000D02*
X118600000Y-98700000D01*
X118800000Y-98700000D02*
X118800000Y-98700000D01*
D13*
X119065000Y-108300000D02*
X119065000Y-101800000D01*
D10*
X118600000Y-98700000D02*
G75*
G02*
X118800000Y-98700000I100000J0D01*
G01*
X118800000Y-98700000D02*
G75*
G02*
X118600000Y-98700000I-100000J0D01*
G01*
%TO.C,Q1*%
X88450000Y-100850000D02*
X89350000Y-100850000D01*
D14*
%TO.C,J2*%
X79494800Y-92402600D02*
X79494800Y-101597400D01*
X79494800Y-101597400D02*
X80338407Y-101597400D01*
X80338407Y-92402600D02*
X79494800Y-92402600D01*
X83117991Y-101597400D02*
X84541608Y-101597400D01*
X84541608Y-92402600D02*
X83117991Y-92402600D01*
D12*
%TO.C,C3*%
X122190580Y-92090000D02*
X121909420Y-92090000D01*
X122190580Y-93110000D02*
X121909420Y-93110000D01*
%TD*%
M02*
