%TF.GenerationSoftware,KiCad,Pcbnew,9.0.7*%
%TF.CreationDate,2026-09-18T16:32:36-07:00*%
%TF.ProjectId,PulseOximeter,50756c73-654f-4786-996d-657465722e6b,rev?*%
%TF.SameCoordinates,Original*%
%TF.FileFunction,Legend,Bot*%
%TF.FilePolarity,Positive*%
%FSLAX46Y46*%
G04 Gerber Fmt 4.6, Leading zero omitted, Abs format (unit mm)*
G04 Created by KiCad (PCBNEW 9.0.7) date 2026-09-18 16:32:36*
%MOMM*%
%LPD*%
G01*
G04 APERTURE LIST*
%ADD10C,0.150000*%
%ADD11C,0.100000*%
%ADD12C,0.152400*%
G04 APERTURE END LIST*
D10*
X109000000Y-95000000D02*
X121000000Y-95000000D01*
X121000000Y-99000000D01*
X109000000Y-99000000D01*
X109000000Y-95000000D01*
X99265748Y-90550148D02*
X99164733Y-89977728D01*
X99669809Y-90146087D02*
X98962702Y-89438980D01*
X98962702Y-89438980D02*
X98693328Y-89708354D01*
X98693328Y-89708354D02*
X98659656Y-89809369D01*
X98659656Y-89809369D02*
X98659656Y-89876713D01*
X98659656Y-89876713D02*
X98693328Y-89977728D01*
X98693328Y-89977728D02*
X98794343Y-90078743D01*
X98794343Y-90078743D02*
X98895358Y-90112415D01*
X98895358Y-90112415D02*
X98962702Y-90112415D01*
X98962702Y-90112415D02*
X99063717Y-90078743D01*
X99063717Y-90078743D02*
X99333091Y-89809369D01*
X98356610Y-90718506D02*
X98289267Y-90853193D01*
X98289267Y-90853193D02*
X98289267Y-90920537D01*
X98289267Y-90920537D02*
X98322939Y-91021552D01*
X98322939Y-91021552D02*
X98423954Y-91122567D01*
X98423954Y-91122567D02*
X98524969Y-91156239D01*
X98524969Y-91156239D02*
X98592313Y-91156239D01*
X98592313Y-91156239D02*
X98693328Y-91122567D01*
X98693328Y-91122567D02*
X98962702Y-90853193D01*
X98962702Y-90853193D02*
X98255595Y-90146087D01*
X98255595Y-90146087D02*
X98019893Y-90381789D01*
X98019893Y-90381789D02*
X97986221Y-90482804D01*
X97986221Y-90482804D02*
X97986221Y-90550148D01*
X97986221Y-90550148D02*
X98019893Y-90651163D01*
X98019893Y-90651163D02*
X98087236Y-90718506D01*
X98087236Y-90718506D02*
X98188252Y-90752178D01*
X98188252Y-90752178D02*
X98255595Y-90752178D01*
X98255595Y-90752178D02*
X98356610Y-90718506D01*
X98356610Y-90718506D02*
X98592313Y-90482804D01*
X97851534Y-91964361D02*
X97750519Y-91391941D01*
X98255595Y-91560300D02*
X97548488Y-90853193D01*
X97548488Y-90853193D02*
X97279114Y-91122567D01*
X97279114Y-91122567D02*
X97245443Y-91223583D01*
X97245443Y-91223583D02*
X97245443Y-91290926D01*
X97245443Y-91290926D02*
X97279114Y-91391941D01*
X97279114Y-91391941D02*
X97380130Y-91492957D01*
X97380130Y-91492957D02*
X97481145Y-91526628D01*
X97481145Y-91526628D02*
X97548488Y-91526628D01*
X97548488Y-91526628D02*
X97649504Y-91492957D01*
X97649504Y-91492957D02*
X97918878Y-91223583D01*
X97548488Y-92267407D02*
X96841382Y-91560300D01*
X96841382Y-91560300D02*
X96572008Y-91829674D01*
X96572008Y-91829674D02*
X96538336Y-91930689D01*
X96538336Y-91930689D02*
X96538336Y-91998033D01*
X96538336Y-91998033D02*
X96572008Y-92099048D01*
X96572008Y-92099048D02*
X96673023Y-92200063D01*
X96673023Y-92200063D02*
X96774038Y-92233735D01*
X96774038Y-92233735D02*
X96841382Y-92233735D01*
X96841382Y-92233735D02*
X96942397Y-92200063D01*
X96942397Y-92200063D02*
X97211771Y-91930689D01*
X96369977Y-93311231D02*
X96437321Y-93311231D01*
X96437321Y-93311231D02*
X96572008Y-93243888D01*
X96572008Y-93243888D02*
X96639351Y-93176544D01*
X96639351Y-93176544D02*
X96706695Y-93041857D01*
X96706695Y-93041857D02*
X96706695Y-92907170D01*
X96706695Y-92907170D02*
X96673023Y-92806155D01*
X96673023Y-92806155D02*
X96572008Y-92637796D01*
X96572008Y-92637796D02*
X96470992Y-92536781D01*
X96470992Y-92536781D02*
X96302634Y-92435766D01*
X96302634Y-92435766D02*
X96201618Y-92402094D01*
X96201618Y-92402094D02*
X96066931Y-92402094D01*
X96066931Y-92402094D02*
X95932244Y-92469437D01*
X95932244Y-92469437D02*
X95864901Y-92536781D01*
X95864901Y-92536781D02*
X95797557Y-92671468D01*
X95797557Y-92671468D02*
X95797557Y-92738811D01*
X95528183Y-93546933D02*
X95460840Y-93681620D01*
X95460840Y-93681620D02*
X95460840Y-93748964D01*
X95460840Y-93748964D02*
X95494512Y-93849979D01*
X95494512Y-93849979D02*
X95595527Y-93950994D01*
X95595527Y-93950994D02*
X95696542Y-93984666D01*
X95696542Y-93984666D02*
X95763886Y-93984666D01*
X95763886Y-93984666D02*
X95864901Y-93950994D01*
X95864901Y-93950994D02*
X96134275Y-93681620D01*
X96134275Y-93681620D02*
X95427168Y-92974514D01*
X95427168Y-92974514D02*
X95191466Y-93210216D01*
X95191466Y-93210216D02*
X95157794Y-93311231D01*
X95157794Y-93311231D02*
X95157794Y-93378575D01*
X95157794Y-93378575D02*
X95191466Y-93479590D01*
X95191466Y-93479590D02*
X95258809Y-93546933D01*
X95258809Y-93546933D02*
X95359825Y-93580605D01*
X95359825Y-93580605D02*
X95427168Y-93580605D01*
X95427168Y-93580605D02*
X95528183Y-93546933D01*
X95528183Y-93546933D02*
X95763886Y-93311231D01*
D11*
%TO.C,D1*%
X118200000Y-97200000D02*
X118200000Y-96700000D01*
X119200000Y-95650000D02*
X119200000Y-95650000D01*
X119200000Y-95750000D02*
X119200000Y-95750000D01*
X120200000Y-97200000D02*
X120200000Y-96700000D01*
X119200000Y-95650000D02*
G75*
G02*
X119200000Y-95750000I0J-50000D01*
G01*
X119200000Y-95750000D02*
G75*
G02*
X119200000Y-95650000I0J50000D01*
G01*
%TO.C,D2*%
X109800000Y-97200000D02*
X109800000Y-96700000D01*
X110800000Y-95650000D02*
X110800000Y-95650000D01*
X110800000Y-95750000D02*
X110800000Y-95750000D01*
X111800000Y-97200000D02*
X111800000Y-96700000D01*
X110800000Y-95650000D02*
G75*
G02*
X110800000Y-95750000I0J-50000D01*
G01*
X110800000Y-95750000D02*
G75*
G02*
X110800000Y-95650000I0J50000D01*
G01*
D12*
%TO.C,J1*%
X123555400Y-92986800D02*
X123555400Y-95018800D01*
X123555400Y-92986800D02*
X124749200Y-94002800D01*
X123555400Y-95018800D02*
X124749200Y-94002800D01*
X125485800Y-93520200D02*
X125485800Y-90700800D01*
X125485800Y-103299200D02*
X125485800Y-100479800D01*
X128483000Y-90700800D02*
X130464200Y-90700800D01*
X130464200Y-90700800D02*
X130464200Y-103299200D01*
X130464200Y-103299200D02*
X128483000Y-103299200D01*
D11*
%TO.C,LED1*%
X113200000Y-96100000D02*
X113200000Y-96100000D01*
X113300000Y-96100000D02*
X113300000Y-96100000D01*
X113200000Y-96100000D02*
G75*
G02*
X113300000Y-96100000I50000J0D01*
G01*
X113300000Y-96100000D02*
G75*
G02*
X113200000Y-96100000I-50000J0D01*
G01*
%TD*%
M02*
