%TF.GenerationSoftware,KiCad,Pcbnew,9.0.7*%
%TF.CreationDate,2026-09-18T16:32:36-07:00*%
%TF.ProjectId,PulseOximeter,50756c73-654f-4786-996d-657465722e6b,rev?*%
%TF.SameCoordinates,Original*%
%TF.FileFunction,Copper,L1,Top*%
%TF.FilePolarity,Positive*%
%FSLAX46Y46*%
G04 Gerber Fmt 4.6, Leading zero omitted, Abs format (unit mm)*
G04 Created by KiCad (PCBNEW 9.0.7) date 2026-09-18 16:32:36*
%MOMM*%
%LPD*%
G01*
G04 APERTURE LIST*
G04 Aperture macros list*
%AMRoundRect*
0 Rectangle with rounded corners*
0 $1 Rounding radius*
0 $2 $3 $4 $5 $6 $7 $8 $9 X,Y pos of 4 corners*
0 Add a 4 corners polygon primitive as box body*
4,1,4,$2,$3,$4,$5,$6,$7,$8,$9,$2,$3,0*
0 Add four circle primitives for the rounded corners*
1,1,$1+$1,$2,$3*
1,1,$1+$1,$4,$5*
1,1,$1+$1,$6,$7*
1,1,$1+$1,$8,$9*
0 Add four rect primitives between the rounded corners*
20,1,$1+$1,$2,$3,$4,$5,0*
20,1,$1+$1,$4,$5,$6,$7,0*
20,1,$1+$1,$6,$7,$8,$9,0*
20,1,$1+$1,$8,$9,$2,$3,0*%
G04 Aperture macros list end*
%TA.AperFunction,EtchedComponent*%
%ADD10C,0.200000*%
%TD*%
%TA.AperFunction,SMDPad,CuDef*%
%ADD11RoundRect,0.225000X-0.250000X0.225000X-0.250000X-0.225000X0.250000X-0.225000X0.250000X0.225000X0*%
%TD*%
%TA.AperFunction,SMDPad,CuDef*%
%ADD12RoundRect,0.225000X0.225000X0.250000X-0.225000X0.250000X-0.225000X-0.250000X0.225000X-0.250000X0*%
%TD*%
%TA.AperFunction,SMDPad,CuDef*%
%ADD13RoundRect,0.225000X0.250000X-0.225000X0.250000X0.225000X-0.250000X0.225000X-0.250000X-0.225000X0*%
%TD*%
%TA.AperFunction,SMDPad,CuDef*%
%ADD14RoundRect,0.019500X-0.110500X0.560500X-0.110500X-0.560500X0.110500X-0.560500X0.110500X0.560500X0*%
%TD*%
%TA.AperFunction,SMDPad,CuDef*%
%ADD15RoundRect,0.019500X-0.110500X0.485500X-0.110500X-0.485500X0.110500X-0.485500X0.110500X0.485500X0*%
%TD*%
%TA.AperFunction,SMDPad,CuDef*%
%ADD16C,0.200000*%
%TD*%
%TA.AperFunction,SMDPad,CuDef*%
%ADD17RoundRect,0.225000X-0.225000X-0.250000X0.225000X-0.250000X0.225000X0.250000X-0.225000X0.250000X0*%
%TD*%
%TA.AperFunction,SMDPad,CuDef*%
%ADD18RoundRect,0.200000X0.200000X0.275000X-0.200000X0.275000X-0.200000X-0.275000X0.200000X-0.275000X0*%
%TD*%
%TA.AperFunction,SMDPad,CuDef*%
%ADD19R,0.812800X0.304800*%
%TD*%
%TA.AperFunction,SMDPad,CuDef*%
%ADD20R,1.701800X2.108200*%
%TD*%
%TA.AperFunction,ComponentPad*%
%ADD21RoundRect,0.250000X-0.620000X-0.620000X0.620000X-0.620000X0.620000X0.620000X-0.620000X0.620000X0*%
%TD*%
%TA.AperFunction,ComponentPad*%
%ADD22C,1.740000*%
%TD*%
%TA.AperFunction,SMDPad,CuDef*%
%ADD23C,0.750000*%
%TD*%
%TA.AperFunction,SMDPad,CuDef*%
%ADD24R,3.500000X1.000000*%
%TD*%
%TA.AperFunction,SMDPad,CuDef*%
%ADD25R,3.400000X1.500000*%
%TD*%
%TA.AperFunction,SMDPad,CuDef*%
%ADD26R,0.900000X0.650000*%
%TD*%
%TA.AperFunction,SMDPad,CuDef*%
%ADD27R,1.120000X1.240000*%
%TD*%
%TA.AperFunction,SMDPad,CuDef*%
%ADD28RoundRect,0.200000X-0.200000X-0.275000X0.200000X-0.275000X0.200000X0.275000X-0.200000X0.275000X0*%
%TD*%
%TA.AperFunction,SMDPad,CuDef*%
%ADD29RoundRect,0.218750X-0.381250X0.218750X-0.381250X-0.218750X0.381250X-0.218750X0.381250X0.218750X0*%
%TD*%
%TA.AperFunction,SMDPad,CuDef*%
%ADD30R,0.850000X0.300000*%
%TD*%
%TA.AperFunction,SMDPad,CuDef*%
%ADD31R,0.300000X0.850000*%
%TD*%
%TA.AperFunction,SMDPad,CuDef*%
%ADD32R,3.700000X3.700000*%
%TD*%
%TA.AperFunction,SMDPad,CuDef*%
%ADD33C,0.304800*%
%TD*%
%TA.AperFunction,SMDPad,CuDef*%
%ADD34R,1.016000X0.457200*%
%TD*%
%TA.AperFunction,SMDPad,CuDef*%
%ADD35R,1.200000X0.600000*%
%TD*%
%TA.AperFunction,SMDPad,CuDef*%
%ADD36RoundRect,0.200000X-0.275000X0.200000X-0.275000X-0.200000X0.275000X-0.200000X0.275000X0.200000X0*%
%TD*%
%TA.AperFunction,SMDPad,CuDef*%
%ADD37R,3.810000X2.030000*%
%TD*%
%TA.AperFunction,SMDPad,CuDef*%
%ADD38R,3.630000X1.020000*%
%TD*%
%TA.AperFunction,SMDPad,CuDef*%
%ADD39R,2.030000X2.230000*%
%TD*%
%TA.AperFunction,SMDPad,CuDef*%
%ADD40R,0.900000X0.400000*%
%TD*%
%TA.AperFunction,ComponentPad*%
%ADD41O,2.209800X0.990600*%
%TD*%
%TA.AperFunction,ComponentPad*%
%ADD42O,1.803400X0.990600*%
%TD*%
%TA.AperFunction,SMDPad,CuDef*%
%ADD43R,1.143000X0.609600*%
%TD*%
%TA.AperFunction,SMDPad,CuDef*%
%ADD44R,1.143000X0.304800*%
%TD*%
%TA.AperFunction,SMDPad,CuDef*%
%ADD45R,1.420000X1.200000*%
%TD*%
%TA.AperFunction,ViaPad*%
%ADD46C,0.700000*%
%TD*%
%TA.AperFunction,ViaPad*%
%ADD47C,1.000000*%
%TD*%
%TA.AperFunction,ViaPad*%
%ADD48C,0.600000*%
%TD*%
%TA.AperFunction,Conductor*%
%ADD49C,0.250000*%
%TD*%
%TA.AperFunction,Conductor*%
%ADD50C,0.200000*%
%TD*%
%TA.AperFunction,Conductor*%
%ADD51C,0.400000*%
%TD*%
%TA.AperFunction,Conductor*%
%ADD52C,0.300000*%
%TD*%
%TA.AperFunction,Conductor*%
%ADD53C,0.500000*%
%TD*%
G04 APERTURE END LIST*
D10*
%TO.C,NT1*%
X117017157Y-88538289D02*
X117300000Y-88821132D01*
%TD*%
D11*
%TO.P,C16,1*%
%TO.N,5V_FILT*%
X83400000Y-105137500D03*
%TO.P,C16,2*%
%TO.N,GND*%
X83400000Y-106687500D03*
%TD*%
D12*
%TO.P,C6,1*%
%TO.N,GND*%
X120250000Y-86200000D03*
%TO.P,C6,2*%
%TO.N,+1V8*%
X118700000Y-86200000D03*
%TD*%
D13*
%TO.P,C1,1*%
%TO.N,GND*%
X103650000Y-103550000D03*
%TO.P,C1,2*%
%TO.N,+3V3*%
X103650000Y-102000000D03*
%TD*%
D14*
%TO.P,U3,1,ALM*%
%TO.N,ALM*%
X111250000Y-88365000D03*
D15*
%TO.P,U3,2,SDA*%
%TO.N,SDA*%
X110750000Y-88290000D03*
%TO.P,U3,3,SCL*%
%TO.N,SCL*%
X110250000Y-88290000D03*
%TO.P,U3,4,NC*%
%TO.N,unconnected-(U3-NC-Pad4)*%
X109750000Y-88290000D03*
%TO.P,U3,5,GND*%
%TO.N,GND*%
X109250000Y-88290000D03*
%TO.P,U3,6,CG*%
%TO.N,-BATT*%
X109250000Y-90010000D03*
%TO.P,U3,7,RSTIO*%
%TO.N,NRST*%
X109750000Y-90010000D03*
%TO.P,U3,8,BATD/CD*%
%TO.N,/BatD{slash}CD*%
X110250000Y-90010000D03*
%TO.P,U3,9,VCC*%
%TO.N,+BATT*%
X110750000Y-90010000D03*
%TO.P,U3,10,VIN*%
%TO.N,/Bat Filt*%
X111250000Y-90010000D03*
%TD*%
D13*
%TO.P,C2,1*%
%TO.N,GND*%
X105350000Y-103550000D03*
%TO.P,C2,2*%
%TO.N,+3V3*%
X105350000Y-102000000D03*
%TD*%
D12*
%TO.P,C10,1*%
%TO.N,+3V3*%
X93275000Y-103200000D03*
%TO.P,C10,2*%
%TO.N,GND*%
X91725000Y-103200000D03*
%TD*%
D13*
%TO.P,C13,1*%
%TO.N,GND*%
X81300000Y-88200000D03*
%TO.P,C13,2*%
%TO.N,5V_FILT*%
X81300000Y-86650000D03*
%TD*%
D16*
%TO.P,NT1,1,1*%
%TO.N,PD_GND*%
X117017157Y-88538289D03*
%TO.P,NT1,2,2*%
%TO.N,GND*%
X117300000Y-88821132D03*
%TD*%
D17*
%TO.P,C21,1*%
%TO.N,GND*%
X109475000Y-92500000D03*
%TO.P,C21,2*%
%TO.N,+BATT*%
X111025000Y-92500000D03*
%TD*%
D18*
%TO.P,R_Prog1,1*%
%TO.N,/Prog*%
X82875000Y-90450000D03*
%TO.P,R_Prog1,2*%
%TO.N,GND*%
X81225000Y-90450000D03*
%TD*%
D19*
%TO.P,U2,1,PGND*%
%TO.N,GND*%
X92397800Y-106576400D03*
%TO.P,U2,2,SW*%
%TO.N,/SW*%
X92397800Y-106068400D03*
%TO.P,U2,3,MODE*%
%TO.N,GND*%
X92397800Y-105560400D03*
%TO.P,U2,4,FB*%
%TO.N,+3V3*%
X92397800Y-105052400D03*
%TO.P,U2,5,EN*%
%TO.N,/VIN*%
X89502200Y-105052400D03*
%TO.P,U2,6,NC*%
%TO.N,unconnected-(U2-NC-Pad6)*%
X89502200Y-105560400D03*
%TO.P,U2,7,SGND*%
%TO.N,GND*%
X89502200Y-106068400D03*
%TO.P,U2,8,VIN*%
%TO.N,/VIN*%
X89502200Y-106576400D03*
D20*
%TO.P,U2,9,ANY*%
%TO.N,GND*%
X90950000Y-105814400D03*
%TD*%
D21*
%TO.P,J3,1,Pin_1*%
%TO.N,+3V3*%
X97120000Y-108705000D03*
D22*
%TO.P,J3,2,Pin_2*%
%TO.N,PA13{slash}SWDIO*%
X99660000Y-108705000D03*
%TO.P,J3,3,Pin_3*%
%TO.N,PA14{slash}SWCLK*%
X102200000Y-108705000D03*
%TO.P,J3,4,Pin_4*%
%TO.N,GND*%
X104740000Y-108705000D03*
%TO.P,J3,5,Pin_5*%
%TO.N,NRST*%
X107280000Y-108705000D03*
%TD*%
D23*
%TO.P,REF\u002A\u002A,*%
%TO.N,*%
X100000000Y-92500000D03*
%TD*%
D24*
%TO.P,P1,1,1+*%
%TO.N,+BATT*%
X90600000Y-89650000D03*
%TO.P,P1,2,2-*%
%TO.N,-BATT*%
X90600000Y-87650000D03*
D25*
%TO.P,P1,P1*%
%TO.N,unconnected-(P1-PadP1)*%
X96350000Y-92000000D03*
%TO.P,P1,P2*%
%TO.N,unconnected-(P1-PadP2)*%
X96350000Y-85300000D03*
%TD*%
D18*
%TO.P,R9,1*%
%TO.N,GND*%
X90484899Y-94200000D03*
%TO.P,R9,2*%
%TO.N,/CC1*%
X88834899Y-94200000D03*
%TD*%
D26*
%TO.P,R7,1*%
%TO.N,-BATT*%
X107300000Y-89811000D03*
%TO.P,R7,2*%
%TO.N,GND*%
X107300000Y-88361000D03*
%TD*%
D27*
%TO.P,D3,1,K*%
%TO.N,/VIN*%
X87200000Y-106500000D03*
%TO.P,D3,2,A*%
%TO.N,5V_FILT*%
X87200000Y-103500000D03*
%TD*%
D18*
%TO.P,R3,1*%
%TO.N,+3V3*%
X113305000Y-86010000D03*
%TO.P,R3,2*%
%TO.N,SDA*%
X111655000Y-86010000D03*
%TD*%
%TO.P,R5,1*%
%TO.N,5V_FILT*%
X83800000Y-103500000D03*
%TO.P,R5,2*%
%TO.N,GND*%
X82150000Y-103500000D03*
%TD*%
D13*
%TO.P,C7,1*%
%TO.N,+3V3*%
X94900000Y-97200000D03*
%TO.P,C7,2*%
%TO.N,GND*%
X94900000Y-95650000D03*
%TD*%
D23*
%TO.P,REF\u002A\u002A,*%
%TO.N,*%
X124600000Y-104300000D03*
%TD*%
D13*
%TO.P,C18,1*%
%TO.N,+3V3*%
X128200000Y-88800000D03*
%TO.P,C18,2*%
%TO.N,GND*%
X128200000Y-87250000D03*
%TD*%
D11*
%TO.P,C20,1*%
%TO.N,NRST*%
X107000000Y-100650000D03*
%TO.P,C20,2*%
%TO.N,GND*%
X107000000Y-102200000D03*
%TD*%
D18*
%TO.P,R10,1*%
%TO.N,GND*%
X90484899Y-99800000D03*
%TO.P,R10,2*%
%TO.N,/CC2*%
X88834899Y-99800000D03*
%TD*%
D28*
%TO.P,R2,1*%
%TO.N,+3V3*%
X108500000Y-86010000D03*
%TO.P,R2,2*%
%TO.N,SCL*%
X110150000Y-86010000D03*
%TD*%
D12*
%TO.P,C9,1*%
%TO.N,GND*%
X120225000Y-87900000D03*
%TO.P,C9,2*%
%TO.N,+1V8*%
X118675000Y-87900000D03*
%TD*%
D28*
%TO.P,R_Filt1,1*%
%TO.N,+BATT*%
X112600000Y-92500000D03*
%TO.P,R_Filt1,2*%
%TO.N,/Bat Filt*%
X114250000Y-92500000D03*
%TD*%
D18*
%TO.P,R11,1*%
%TO.N,+3V3*%
X110690000Y-97300000D03*
%TO.P,R11,2*%
%TO.N,PWR_WKP*%
X109040000Y-97300000D03*
%TD*%
%TO.P,R14,1*%
%TO.N,GND*%
X105225000Y-105200000D03*
%TO.P,R14,2*%
%TO.N,BOOT0*%
X103575000Y-105200000D03*
%TD*%
D11*
%TO.P,C19,1*%
%TO.N,GND*%
X121900000Y-87250000D03*
%TO.P,C19,2*%
%TO.N,+1V8*%
X121900000Y-88800000D03*
%TD*%
D28*
%TO.P,R6,1*%
%TO.N,/VIN*%
X90875000Y-108600000D03*
%TO.P,R6,2*%
%TO.N,GND*%
X92525000Y-108600000D03*
%TD*%
D29*
%TO.P,FB1,1*%
%TO.N,5V_FILT*%
X81400000Y-105137500D03*
%TO.P,FB1,2*%
%TO.N,/VBUS*%
X81400000Y-107262500D03*
%TD*%
D12*
%TO.P,C12,1*%
%TO.N,/VIN*%
X89175000Y-108600000D03*
%TO.P,C12,2*%
%TO.N,GND*%
X87625000Y-108600000D03*
%TD*%
D30*
%TO.P,IC1,1,VDD*%
%TO.N,+3V3*%
X101300000Y-102000000D03*
%TO.P,IC1,2,PC14-OSC32_IN*%
%TO.N,unconnected-(IC1-PC14-OSC32_IN-Pad2)*%
X101300000Y-101500000D03*
%TO.P,IC1,3,PC15-OSC32_OUT*%
%TO.N,unconnected-(IC1-PC15-OSC32_OUT-Pad3)*%
X101300000Y-101000000D03*
%TO.P,IC1,4,PF2-NRST*%
%TO.N,NRST*%
X101300000Y-100500000D03*
%TO.P,IC1,5,VDDA/VREF+*%
%TO.N,+3V3*%
X101300000Y-100000000D03*
%TO.P,IC1,6,PA0-CK_IN*%
%TO.N,PWR_WKP*%
X101300000Y-99500000D03*
%TO.P,IC1,7,PA1*%
%TO.N,unconnected-(IC1-PA1-Pad7)*%
X101300000Y-99000000D03*
%TO.P,IC1,8,PA2*%
%TO.N,D_CSB*%
X101300000Y-98500000D03*
D31*
%TO.P,IC1,9,PA3*%
%TO.N,D_RST*%
X100600000Y-97800000D03*
%TO.P,IC1,10,PA4*%
%TO.N,D{slash}C*%
X100100000Y-97800000D03*
%TO.P,IC1,11,PA5*%
%TO.N,SCLK*%
X99600000Y-97800000D03*
%TO.P,IC1,12,PA6*%
%TO.N,SPI_MISO*%
X99100000Y-97800000D03*
%TO.P,IC1,13,PA7*%
%TO.N,SPI_MOSI*%
X98600000Y-97800000D03*
%TO.P,IC1,14,PB0*%
%TO.N,M_CSB*%
X98100000Y-97800000D03*
%TO.P,IC1,15,PB1*%
%TO.N,STAT*%
X97600000Y-97800000D03*
%TO.P,IC1,16,VSS_1*%
%TO.N,GND*%
X97100000Y-97800000D03*
D30*
%TO.P,IC1,17,VDDUSB*%
%TO.N,+3V3*%
X96400000Y-98500000D03*
%TO.P,IC1,18,PA8*%
%TO.N,ALM*%
X96400000Y-99000000D03*
%TO.P,IC1,19,PA9*%
%TO.N,SCL*%
X96400000Y-99500000D03*
%TO.P,IC1,20,PA10*%
%TO.N,SDA*%
X96400000Y-100000000D03*
%TO.P,IC1,21,PA11_[PA9]*%
%TO.N,USB_D-*%
X96400000Y-100500000D03*
%TO.P,IC1,22,PA12_[PA10]*%
%TO.N,USB_D+*%
X96400000Y-101000000D03*
%TO.P,IC1,23,PA13*%
%TO.N,PA13{slash}SWDIO*%
X96400000Y-101500000D03*
%TO.P,IC1,24,PA14*%
%TO.N,PA14{slash}SWCLK*%
X96400000Y-102000000D03*
D31*
%TO.P,IC1,25,PA15*%
%TO.N,unconnected-(IC1-PA15-Pad25)*%
X97100000Y-102700000D03*
%TO.P,IC1,26,PB3*%
%TO.N,SCLK3*%
X97600000Y-102700000D03*
%TO.P,IC1,27,PB4*%
%TO.N,unconnected-(IC1-PB4-Pad27)*%
X98100000Y-102700000D03*
%TO.P,IC1,28,PB5*%
%TO.N,SPI3_MOSI*%
X98600000Y-102700000D03*
%TO.P,IC1,29,PB6*%
%TO.N,unconnected-(IC1-PB6-Pad29)*%
X99100000Y-102700000D03*
%TO.P,IC1,30,PB7*%
%TO.N,unconnected-(IC1-PB7-Pad30)*%
X99600000Y-102700000D03*
%TO.P,IC1,31,PF3-BOOT0*%
%TO.N,BOOT0*%
X100100000Y-102700000D03*
%TO.P,IC1,32,VSS_2*%
%TO.N,GND*%
X100600000Y-102700000D03*
D32*
%TO.P,IC1,33,EP*%
X98850000Y-100250000D03*
%TD*%
D11*
%TO.P,C15,1*%
%TO.N,5V_FILT*%
X85200000Y-105137500D03*
%TO.P,C15,2*%
%TO.N,GND*%
X85200000Y-106687500D03*
%TD*%
D33*
%TO.P,U1,A1,VLED*%
%TO.N,+3V3*%
X119075000Y-91400000D03*
%TO.P,U1,A2,SCLK*%
%TO.N,SCLK*%
X118675000Y-91400000D03*
%TO.P,U1,A3,SDO*%
%TO.N,SPI_MISO*%
X118275000Y-91400000D03*
%TO.P,U1,A4,SDI*%
%TO.N,SPI_MOSI*%
X117875000Y-91400000D03*
%TO.P,U1,A5,CSB*%
%TO.N,M_CSB*%
X117475000Y-91400000D03*
%TO.P,U1,B1,LED3_DRV*%
%TO.N,/K_GRN*%
X119075000Y-91000000D03*
%TO.P,U1,B2,\u002AINT*%
%TO.N,unconnected-(U1-\u002AINT-PadB2)*%
X118675000Y-91000000D03*
%TO.P,U1,B3,GPIO1*%
%TO.N,unconnected-(U1-GPIO1-PadB3)*%
X118275000Y-91000000D03*
%TO.P,U1,B4,GPIO2*%
%TO.N,unconnected-(U1-GPIO2-PadB4)*%
X117875000Y-91000000D03*
%TO.P,U1,B5,VREF*%
%TO.N,/VREF*%
X117475000Y-91000000D03*
%TO.P,U1,C1,LED2_DRV*%
%TO.N,/K_IR*%
X119075000Y-90600000D03*
%TO.P,U1,C2,VDD_DIG*%
%TO.N,+1V8*%
X118675000Y-90600000D03*
%TO.P,U1,C3,GND_DIG*%
%TO.N,GND*%
X118275000Y-90600000D03*
%TO.P,U1,C4,GND_ANA*%
X117875000Y-90600000D03*
%TO.P,U1,C5,PD_GND*%
%TO.N,PD_GND*%
X117475000Y-90600000D03*
%TO.P,U1,D1,LED1_DRV*%
%TO.N,/K_RED*%
X119075000Y-90200000D03*
%TO.P,U1,D2,VDD_ANA*%
%TO.N,+1V8*%
X118675000Y-90200000D03*
%TO.P,U1,D3,PGND*%
%TO.N,GND*%
X118275000Y-90200000D03*
%TO.P,U1,D4,PD2_IN*%
%TO.N,/PD2*%
X117875000Y-90200000D03*
%TO.P,U1,D5,PD1_IN*%
%TO.N,/PD1*%
X117475000Y-90200000D03*
%TD*%
D34*
%TO.P,U4,1,STAT*%
%TO.N,STAT*%
X85589200Y-88650000D03*
%TO.P,U4,2,VSS*%
%TO.N,GND*%
X85589200Y-87699999D03*
%TO.P,U4,3,VBAT*%
%TO.N,+BATT*%
X85589200Y-86749998D03*
%TO.P,U4,4,VDD*%
%TO.N,5V_FILT*%
X83100000Y-86749998D03*
%TO.P,U4,5,PROG*%
%TO.N,/Prog*%
X83100000Y-88650000D03*
%TD*%
D11*
%TO.P,C11,1*%
%TO.N,GND*%
X113230000Y-88455000D03*
%TO.P,C11,2*%
%TO.N,/Bat Filt*%
X113230000Y-90005000D03*
%TD*%
D28*
%TO.P,R8,1*%
%TO.N,GND*%
X106200000Y-92500000D03*
%TO.P,R8,2*%
%TO.N,/BatD{slash}CD*%
X107850000Y-92500000D03*
%TD*%
D35*
%TO.P,D4,1,I/O1_1*%
%TO.N,USB_D+*%
X91529899Y-97950000D03*
%TO.P,D4,2,GND*%
%TO.N,GND*%
X91529899Y-97000000D03*
%TO.P,D4,3,I/O2_1*%
%TO.N,USB_D-*%
X91529899Y-96050000D03*
%TO.P,D4,4,I/O2_2*%
%TO.N,/DN-*%
X89029899Y-96050000D03*
%TO.P,D4,5,VBUS*%
%TO.N,/VBUS*%
X89029899Y-97000000D03*
%TO.P,D4,6,I/O1_2*%
%TO.N,/DP+*%
X89029899Y-97950000D03*
%TD*%
D11*
%TO.P,C14,1*%
%TO.N,+BATT*%
X87300000Y-86650000D03*
%TO.P,C14,2*%
%TO.N,GND*%
X87300000Y-88200000D03*
%TD*%
D13*
%TO.P,C4,1*%
%TO.N,+3V3*%
X105350000Y-100000000D03*
%TO.P,C4,2*%
%TO.N,GND*%
X105350000Y-98450000D03*
%TD*%
D35*
%TO.P,IC2,1,IN*%
%TO.N,+3V3*%
X126300000Y-88200000D03*
%TO.P,IC2,2,GND*%
%TO.N,GND*%
X126300000Y-87250000D03*
%TO.P,IC2,3,EN*%
%TO.N,+3V3*%
X126300000Y-86300000D03*
%TO.P,IC2,4,N/C*%
%TO.N,unconnected-(IC2-N{slash}C-Pad4)*%
X123800000Y-86300000D03*
%TO.P,IC2,5,OUT*%
%TO.N,+1V8*%
X123800000Y-88200000D03*
%TD*%
D23*
%TO.P,REF\u002A\u002A,*%
%TO.N,*%
X124600000Y-92500000D03*
%TD*%
D11*
%TO.P,C8,1*%
%TO.N,GND*%
X115000000Y-88450000D03*
%TO.P,C8,2*%
%TO.N,/VREF*%
X115000000Y-90000000D03*
%TD*%
D17*
%TO.P,C17,1*%
%TO.N,/VBUS*%
X83375000Y-108600000D03*
%TO.P,C17,2*%
%TO.N,GND*%
X84925000Y-108600000D03*
%TD*%
D13*
%TO.P,C5,1*%
%TO.N,+3V3*%
X103650000Y-100000000D03*
%TO.P,C5,2*%
%TO.N,GND*%
X103650000Y-98450000D03*
%TD*%
D36*
%TO.P,R1,1*%
%TO.N,/P12*%
X124600000Y-100750000D03*
%TO.P,R1,2*%
%TO.N,+3V3*%
X124600000Y-102400000D03*
%TD*%
D37*
%TO.P,S1,1*%
%TO.N,GND*%
X118685000Y-100120000D03*
%TO.P,S1,3*%
%TO.N,PWR_WKP*%
X111315000Y-100120000D03*
D38*
%TO.P,S1,4*%
%TO.N,GND*%
X112420000Y-109190000D03*
%TO.P,S1,5*%
X117580000Y-109190000D03*
D39*
%TO.P,S1,6*%
X113220000Y-107565000D03*
%TO.P,S1,7*%
X116780000Y-107565000D03*
%TD*%
D40*
%TO.P,Q1,1,G*%
%TO.N,5V_FILT*%
X88900000Y-101300000D03*
%TO.P,Q1,2,S*%
%TO.N,/VIN*%
X88900000Y-102300000D03*
%TO.P,Q1,3,D*%
%TO.N,+BATT*%
X90500000Y-101800000D03*
%TD*%
D41*
%TO.P,J2,13,Shield_1*%
%TO.N,GND*%
X81728199Y-92680000D03*
%TO.P,J2,14,Shield_2*%
X81728199Y-101320000D03*
D42*
%TO.P,J2,15,Shield_3*%
X85728200Y-92680000D03*
%TO.P,J2,16,Shield_4*%
X85728200Y-101320000D03*
D43*
%TO.P,J2,A1/B12,GND*%
X86303199Y-93799999D03*
%TO.P,J2,A4/B9,VBUS*%
%TO.N,/VBUS*%
X86303199Y-94600000D03*
D44*
%TO.P,J2,A5,CC1*%
%TO.N,/CC1*%
X86303199Y-95750000D03*
%TO.P,J2,A6,DP1*%
%TO.N,/DP+*%
X86303199Y-96750000D03*
%TO.P,J2,A7,DN1*%
%TO.N,/DN-*%
X86303199Y-97250000D03*
%TO.P,J2,A8,SBU1*%
%TO.N,unconnected-(J2-SBU1-PadA8)*%
X86303199Y-98250000D03*
D43*
%TO.P,J2,B1/A12,GND*%
%TO.N,GND*%
X86303199Y-100199999D03*
%TO.P,J2,B4/A9,VBUS*%
%TO.N,/VBUS*%
X86303199Y-99400000D03*
D44*
%TO.P,J2,B5,CC2*%
%TO.N,/CC2*%
X86303199Y-98750060D03*
%TO.P,J2,B6,DP2*%
%TO.N,/DP+*%
X86303199Y-97750059D03*
%TO.P,J2,B7,DN2*%
%TO.N,/DN-*%
X86303199Y-96250060D03*
%TO.P,J2,B8,SBU2*%
%TO.N,unconnected-(J2-SBU2-PadB8)*%
X86303199Y-95250059D03*
%TD*%
D45*
%TO.P,L1,1*%
%TO.N,/SW*%
X94500000Y-107220000D03*
%TO.P,L1,2*%
%TO.N,+3V3*%
X94500000Y-105500000D03*
%TD*%
D12*
%TO.P,C3,1*%
%TO.N,GND*%
X122825000Y-92600000D03*
%TO.P,C3,2*%
%TO.N,+3V3*%
X121275000Y-92600000D03*
%TD*%
D46*
%TO.N,GND*%
X115600000Y-85200000D03*
%TO.N,/K_IR*%
X122400000Y-90000000D03*
%TO.N,GND*%
X123200000Y-91400000D03*
X90950000Y-105200000D03*
D47*
X128200000Y-85800000D03*
D46*
X98850000Y-100250000D03*
X115000000Y-107560000D03*
X97400000Y-101700000D03*
X84350000Y-90400000D03*
X91600000Y-99800000D03*
X100300000Y-98800000D03*
X85000000Y-94200000D03*
X128600000Y-93400000D03*
X97400000Y-98800000D03*
X96300000Y-96675000D03*
D47*
X107300000Y-87250000D03*
D46*
X90950000Y-106400000D03*
X80900000Y-103500000D03*
X121900000Y-86050000D03*
X98850000Y-101700000D03*
X121900000Y-85050000D03*
X106900000Y-104450003D03*
X107850000Y-103550000D03*
X87300000Y-89500000D03*
X86300000Y-109100000D03*
X93550000Y-95650000D03*
X128600000Y-100600000D03*
X86300000Y-107700000D03*
X87600000Y-93200000D03*
X103650000Y-97300000D03*
X93900000Y-109100000D03*
X98850000Y-98800000D03*
X127200000Y-99000010D03*
X118025000Y-88821132D03*
D47*
X99600000Y-105200000D03*
D46*
X100300000Y-101700000D03*
X97200000Y-104800000D03*
X100300000Y-100250000D03*
X93000000Y-97000000D03*
X82000000Y-89400000D03*
X85000000Y-99800000D03*
X90300000Y-103200000D03*
X97400000Y-100250000D03*
X116000000Y-100600000D03*
X104900000Y-92500000D03*
%TO.N,+3V3*%
X114460000Y-86010000D03*
X114000000Y-100600000D03*
X103000000Y-90600000D03*
D47*
X94500000Y-103200000D03*
D46*
X96300000Y-97700000D03*
X108551003Y-100400000D03*
X106900000Y-103550000D03*
D47*
X126400000Y-89600000D03*
D46*
X107300000Y-86000000D03*
D48*
X123200000Y-93800000D03*
D46*
X103000000Y-86600000D03*
D47*
X102200000Y-103900000D03*
X127200000Y-104800000D03*
%TO.N,5V_FILT*%
X85600000Y-103200000D03*
D46*
X82100000Y-85300000D03*
%TO.N,+BATT*%
X105459314Y-90190686D03*
D47*
X91050000Y-91150000D03*
D46*
X112100000Y-90855000D03*
D47*
X91600000Y-101800000D03*
D46*
%TO.N,/VBUS*%
X90279899Y-97000000D03*
D47*
X81800000Y-108600000D03*
X87600077Y-94575000D03*
X87641153Y-99476406D03*
%TO.N,NRST*%
X99600000Y-103900000D03*
D46*
X102400000Y-101000000D03*
X103389673Y-93077000D03*
%TO.N,PD_GND*%
X116500000Y-88099994D03*
%TO.N,/PD1*%
X116500000Y-89900000D03*
%TO.N,/PD2*%
X116500000Y-88999997D03*
%TO.N,SCL*%
X110150000Y-84700000D03*
X93400000Y-98899997D03*
%TO.N,STAT*%
X89050000Y-91650000D03*
X91800000Y-94700000D03*
D47*
%TO.N,BOOT0*%
X102200000Y-105200000D03*
D48*
%TO.N,D_RST*%
X123702072Y-96975975D03*
%TO.N,D_CSB*%
X123702072Y-97775975D03*
D46*
%TO.N,ALM*%
X112480000Y-87170000D03*
X93923117Y-98167636D03*
D48*
%TO.N,D{slash}C*%
X123702072Y-96176270D03*
D46*
%TO.N,SDA*%
X111650000Y-84700000D03*
X93400000Y-99800000D03*
%TO.N,/K_GRN*%
X121000000Y-91400000D03*
%TO.N,/K_RED*%
X121000000Y-89950000D03*
D48*
%TO.N,/P12*%
X124600000Y-99500000D03*
D46*
%TO.N,SPI3_MOSI*%
X97200000Y-105700000D03*
%TO.N,SCLK3*%
X97200000Y-103900000D03*
%TD*%
D49*
%TO.N,GND*%
X114870000Y-87170000D02*
X115000000Y-87300000D01*
X114830000Y-87170000D02*
X114870000Y-87170000D01*
X115000000Y-87300000D02*
X115000000Y-87000000D01*
X114830000Y-87170000D02*
X114670000Y-87170000D01*
X115000000Y-87000000D02*
X114830000Y-87170000D01*
X115600000Y-86400000D02*
X115600000Y-85200000D01*
X115000000Y-87000000D02*
X115600000Y-86400000D01*
X115000000Y-87500000D02*
X115000000Y-87300000D01*
X115000000Y-87500000D02*
X115000000Y-88450000D01*
X113600000Y-87170000D02*
X114670000Y-87170000D01*
D50*
%TO.N,/K_IR*%
X121800000Y-90600000D02*
X122400000Y-90000000D01*
X119075000Y-90600000D02*
X121800000Y-90600000D01*
%TO.N,+3V3*%
X122000000Y-93800000D02*
X123200000Y-93800000D01*
X121275000Y-92600000D02*
X121275000Y-93075000D01*
X121275000Y-93075000D02*
X122000000Y-93800000D01*
%TO.N,GND*%
X122825000Y-91775000D02*
X123200000Y-91400000D01*
X122825000Y-92600000D02*
X122825000Y-91775000D01*
%TO.N,/K_GRN*%
X120600000Y-91000000D02*
X121000000Y-91400000D01*
X119075000Y-91000000D02*
X120600000Y-91000000D01*
%TO.N,/K_RED*%
X120750000Y-90200000D02*
X121000000Y-89950000D01*
X119075000Y-90200000D02*
X120750000Y-90200000D01*
D51*
%TO.N,GND*%
X84344600Y-90394600D02*
X84350000Y-90400000D01*
D50*
X118275000Y-89071132D02*
X118025000Y-88821132D01*
D52*
X89502200Y-106068400D02*
X90696000Y-106068400D01*
X81225000Y-90175000D02*
X82000000Y-89400000D01*
D53*
X113220000Y-107565000D02*
X113220000Y-108390000D01*
D52*
X103650000Y-98450000D02*
X105350000Y-98450000D01*
D51*
X85589200Y-87699999D02*
X84625800Y-87699999D01*
D49*
X108674000Y-93301000D02*
X107001000Y-93301000D01*
D50*
X118275000Y-90600000D02*
X118275000Y-90200000D01*
D52*
X100551000Y-101951000D02*
X100300000Y-101700000D01*
X81300000Y-88700000D02*
X82000000Y-89400000D01*
X92397800Y-106576400D02*
X91712000Y-106576400D01*
D53*
X113220000Y-107565000D02*
X114995000Y-107565000D01*
D49*
X113230000Y-88455000D02*
X113230000Y-87540000D01*
X89484899Y-93200000D02*
X90484899Y-94200000D01*
D52*
X100551000Y-102251000D02*
X100551000Y-101951000D01*
D53*
X85200000Y-106687500D02*
X85487500Y-106687500D01*
D50*
X107850000Y-103050000D02*
X107850000Y-103550000D01*
D49*
X109475000Y-92500000D02*
X108674000Y-93301000D01*
D53*
X86303199Y-93799999D02*
X85400001Y-93799999D01*
D50*
X106150003Y-105200000D02*
X106900000Y-104450003D01*
D52*
X87300000Y-88200000D02*
X87300000Y-89500000D01*
D53*
X115000000Y-107560000D02*
X116775000Y-107560000D01*
D52*
X90696000Y-106068400D02*
X90950000Y-105814400D01*
D53*
X85399999Y-100199999D02*
X85000000Y-99800000D01*
D52*
X128200000Y-87250000D02*
X126300000Y-87250000D01*
D49*
X87600000Y-93200000D02*
X89484899Y-93200000D01*
D53*
X92525000Y-108600000D02*
X92525000Y-108625000D01*
X85400001Y-93799999D02*
X85000000Y-94200000D01*
X83400000Y-106687500D02*
X85200000Y-106687500D01*
D49*
X109250000Y-88290000D02*
X108565000Y-88290000D01*
D50*
X117300000Y-88821132D02*
X118025000Y-88821132D01*
D52*
X81300000Y-88200000D02*
X81300000Y-88700000D01*
X96675000Y-96675000D02*
X97100000Y-97100000D01*
D53*
X93000000Y-109100000D02*
X93900000Y-109100000D01*
X116775000Y-107560000D02*
X116780000Y-107565000D01*
D52*
X100600000Y-102700000D02*
X100600000Y-102300000D01*
X121900000Y-87250000D02*
X121900000Y-86050000D01*
X94900000Y-95650000D02*
X93550000Y-95650000D01*
X120250000Y-85450000D02*
X120650000Y-85050000D01*
D53*
X85487500Y-106687500D02*
X86300000Y-107500000D01*
D52*
X92397800Y-105560400D02*
X91204000Y-105560400D01*
D50*
X118275000Y-90200000D02*
X118275000Y-89071132D01*
D52*
X105350000Y-103550000D02*
X106250003Y-104450003D01*
D49*
X90200000Y-94200000D02*
X90484899Y-94200000D01*
D53*
X85600000Y-108600000D02*
X86300000Y-107900000D01*
X92525000Y-108625000D02*
X93000000Y-109100000D01*
D49*
X113230000Y-87540000D02*
X113600000Y-87170000D01*
D52*
X96300000Y-96675000D02*
X96675000Y-96675000D01*
D53*
X118685000Y-100120000D02*
X116480000Y-100120000D01*
D52*
X128200000Y-87250000D02*
X128200000Y-85800000D01*
D49*
X107001000Y-93301000D02*
X106200000Y-92500000D01*
D53*
X113220000Y-108390000D02*
X112420000Y-109190000D01*
D52*
X103650000Y-98450000D02*
X103650000Y-97300000D01*
D50*
X107000000Y-102200000D02*
X107850000Y-103050000D01*
D52*
X106250003Y-104450003D02*
X106900000Y-104450003D01*
D53*
X86300000Y-107900000D02*
X86300000Y-107500000D01*
D52*
X81225000Y-90450000D02*
X81225000Y-90175000D01*
D49*
X108494000Y-88361000D02*
X107300000Y-88361000D01*
D53*
X86303199Y-100199999D02*
X85399999Y-100199999D01*
D49*
X90484899Y-99800000D02*
X91600000Y-99800000D01*
D52*
X120250000Y-86200000D02*
X120250000Y-85450000D01*
D51*
X84625800Y-87699999D02*
X84344600Y-87981199D01*
D53*
X116780000Y-108390000D02*
X117580000Y-109190000D01*
D52*
X120225000Y-86225000D02*
X120250000Y-86200000D01*
D53*
X82150000Y-103500000D02*
X80900000Y-103500000D01*
D51*
X84344600Y-89200000D02*
X84344600Y-90394600D01*
D52*
X97100000Y-97100000D02*
X97100000Y-97800000D01*
D49*
X108565000Y-88290000D02*
X108494000Y-88361000D01*
D53*
X84925000Y-108600000D02*
X85600000Y-108600000D01*
D50*
X117875000Y-90600000D02*
X118275000Y-90600000D01*
D52*
X120650000Y-85050000D02*
X121900000Y-85050000D01*
X91712000Y-106576400D02*
X90950000Y-105814400D01*
X120225000Y-87900000D02*
X120225000Y-86225000D01*
X100600000Y-102300000D02*
X100551000Y-102251000D01*
D53*
X91529899Y-97000000D02*
X93000000Y-97000000D01*
X87625000Y-108600000D02*
X86800000Y-108600000D01*
D50*
X105225000Y-105200000D02*
X106150003Y-105200000D01*
D52*
X103650000Y-103550000D02*
X105350000Y-103550000D01*
D53*
X116780000Y-107565000D02*
X116780000Y-108390000D01*
D49*
X106200000Y-92500000D02*
X104900000Y-92500000D01*
X106306000Y-92500000D02*
X106200000Y-92500000D01*
D53*
X114995000Y-107565000D02*
X115000000Y-107560000D01*
D52*
X91204000Y-105560400D02*
X90950000Y-105814400D01*
D51*
X84344600Y-87981199D02*
X84344600Y-89200000D01*
D53*
X116480000Y-100120000D02*
X116000000Y-100600000D01*
X91725000Y-103200000D02*
X90300000Y-103200000D01*
X86800000Y-108600000D02*
X86300000Y-109100000D01*
X107300000Y-88361000D02*
X107300000Y-87250000D01*
%TO.N,+3V3*%
X93275000Y-103200000D02*
X94500000Y-103200000D01*
D49*
X108500000Y-86010000D02*
X107310000Y-86010000D01*
D52*
X108551003Y-100400000D02*
X108551003Y-100251003D01*
X95800000Y-97200000D02*
X96300000Y-97700000D01*
X103650000Y-100000000D02*
X105350000Y-100000000D01*
D49*
X113305000Y-86010000D02*
X114460000Y-86010000D01*
D52*
X103650000Y-102000000D02*
X105350000Y-102000000D01*
X128200000Y-88800000D02*
X127400000Y-89600000D01*
X108149000Y-99849000D02*
X105501000Y-99849000D01*
X128200000Y-88800000D02*
X127600000Y-88200000D01*
X108551003Y-100251003D02*
X108149000Y-99849000D01*
X101300000Y-100000000D02*
X103650000Y-100000000D01*
X101300000Y-102000000D02*
X103650000Y-102000000D01*
X125400000Y-86300000D02*
X126300000Y-86300000D01*
X96300000Y-98400000D02*
X96400000Y-98500000D01*
X127400000Y-89600000D02*
X126400000Y-89600000D01*
X127600000Y-88200000D02*
X126300000Y-88200000D01*
D50*
X114000000Y-98977232D02*
X114000000Y-100600000D01*
D52*
X124600000Y-102400000D02*
X126200000Y-102400000D01*
X93052400Y-105052400D02*
X93500000Y-105500000D01*
X92397800Y-105052400D02*
X93052400Y-105052400D01*
X96300000Y-97700000D02*
X96300000Y-98400000D01*
X125000000Y-87800000D02*
X125000000Y-86700000D01*
D49*
X107310000Y-86010000D02*
X107300000Y-86000000D01*
D53*
X94500000Y-103200000D02*
X94500000Y-105500000D01*
D50*
X110690000Y-97300000D02*
X112322768Y-97300000D01*
X119075000Y-91400000D02*
X120275000Y-92600000D01*
X112322768Y-97300000D02*
X114000000Y-98977232D01*
D52*
X127200000Y-103400000D02*
X126200000Y-102400000D01*
X125400000Y-88200000D02*
X125000000Y-87800000D01*
X93500000Y-105500000D02*
X94500000Y-105500000D01*
X125000000Y-86700000D02*
X125400000Y-86300000D01*
X105501000Y-99849000D02*
X105350000Y-100000000D01*
X127200000Y-104800000D02*
X127200000Y-103400000D01*
X105350000Y-102000000D02*
X106900000Y-103550000D01*
D50*
X120275000Y-92600000D02*
X121275000Y-92600000D01*
D52*
X94900000Y-97200000D02*
X95800000Y-97200000D01*
X126300000Y-88200000D02*
X125400000Y-88200000D01*
D50*
%TO.N,+1V8*%
X119450000Y-88800000D02*
X118775000Y-88800000D01*
X119250000Y-88800000D02*
X118875000Y-88800000D01*
X119450000Y-88800000D02*
X119250000Y-88800000D01*
X121900000Y-88800000D02*
X119450000Y-88800000D01*
X118775000Y-88800000D02*
X118675000Y-88900000D01*
X118675000Y-88600000D02*
X118675000Y-87900000D01*
X123200000Y-88800000D02*
X121900000Y-88800000D01*
D52*
X118675000Y-86225000D02*
X118700000Y-86200000D01*
X118675000Y-87900000D02*
X118675000Y-86225000D01*
D50*
X118875000Y-88800000D02*
X118675000Y-88600000D01*
X118675000Y-88900000D02*
X118675000Y-88700000D01*
X118675000Y-90600000D02*
X118675000Y-90200000D01*
X118675000Y-88700000D02*
X118675000Y-88600000D01*
X118675000Y-89000000D02*
X118675000Y-88900000D01*
X118875000Y-88800000D02*
X118675000Y-89000000D01*
X118775000Y-88800000D02*
X118675000Y-88700000D01*
X123800000Y-88200000D02*
X123200000Y-88800000D01*
X118675000Y-90200000D02*
X118675000Y-89000000D01*
%TO.N,/VREF*%
X115200000Y-91000000D02*
X115000000Y-90800000D01*
X115000000Y-90800000D02*
X115000000Y-90000000D01*
X117475000Y-91000000D02*
X115200000Y-91000000D01*
D49*
%TO.N,/Bat Filt*%
X114250000Y-91105000D02*
X114250000Y-92500000D01*
X111250000Y-90010000D02*
X113225000Y-90010000D01*
X113230000Y-90005000D02*
X113230000Y-90085000D01*
X113225000Y-90010000D02*
X113230000Y-90005000D01*
X113230000Y-90085000D02*
X114250000Y-91105000D01*
D52*
%TO.N,/VIN*%
X89502200Y-106576400D02*
X88749400Y-106576400D01*
X90875000Y-108600000D02*
X89175000Y-108600000D01*
X88749400Y-106576400D02*
X88600000Y-106427000D01*
X88600000Y-105201800D02*
X88600000Y-106427000D01*
X87900000Y-106576400D02*
X88450600Y-106576400D01*
X88600000Y-104900000D02*
X88600000Y-105201800D01*
X88900000Y-102300000D02*
X88600000Y-102600000D01*
X88600000Y-102600000D02*
X88600000Y-104900000D01*
X89502200Y-105052400D02*
X89000000Y-105052400D01*
X87276400Y-106576400D02*
X87900000Y-106576400D01*
X89000000Y-105052400D02*
X88749400Y-105052400D01*
X88752400Y-105052400D02*
X88600000Y-104900000D01*
X88476400Y-106576400D02*
X88600000Y-106700000D01*
X88723600Y-106576400D02*
X88600000Y-106700000D01*
X87200000Y-106500000D02*
X87276400Y-106576400D01*
X88600000Y-106700000D02*
X88600000Y-106427000D01*
X88600000Y-108025000D02*
X88600000Y-106700000D01*
X87900000Y-106576400D02*
X88476400Y-106576400D01*
X89175000Y-108600000D02*
X88600000Y-108025000D01*
X87900000Y-106576400D02*
X89502200Y-106576400D01*
X89000000Y-105052400D02*
X88752400Y-105052400D01*
X88749400Y-105052400D02*
X88600000Y-105201800D01*
X88450600Y-106576400D02*
X88600000Y-106427000D01*
X89502200Y-106576400D02*
X88723600Y-106576400D01*
D53*
%TO.N,5V_FILT*%
X85200000Y-103600000D02*
X85600000Y-103200000D01*
X83800000Y-103500000D02*
X84600000Y-103500000D01*
X85562500Y-105137500D02*
X87200000Y-103500000D01*
X85200000Y-105137500D02*
X85562500Y-105137500D01*
X84900000Y-103500000D02*
X85200000Y-103800000D01*
D51*
X87200000Y-102500000D02*
X87200000Y-103500000D01*
D53*
X85200000Y-104600000D02*
X85200000Y-105137500D01*
D51*
X83100000Y-86749998D02*
X81399998Y-86749998D01*
D53*
X84600000Y-103500000D02*
X85300000Y-103500000D01*
X85200000Y-103800000D02*
X85200000Y-104600000D01*
X81400000Y-105137500D02*
X83400000Y-105137500D01*
X85300000Y-103500000D02*
X85600000Y-103200000D01*
D51*
X88900000Y-101300000D02*
X88400000Y-101300000D01*
X88400000Y-101300000D02*
X87200000Y-102500000D01*
X81399998Y-86749998D02*
X81300000Y-86650000D01*
X82000000Y-85300000D02*
X82100000Y-85300000D01*
D53*
X83400000Y-105137500D02*
X85200000Y-105137500D01*
D51*
X81300000Y-86000000D02*
X82000000Y-85300000D01*
X81300000Y-86650000D02*
X81300000Y-86000000D01*
D53*
X85200000Y-104600000D02*
X85200000Y-103600000D01*
X84600000Y-103500000D02*
X84900000Y-103500000D01*
D49*
%TO.N,+BATT*%
X111025000Y-91380000D02*
X110750000Y-91105000D01*
X104840686Y-90190686D02*
X104300000Y-89650000D01*
D51*
X85589200Y-86749998D02*
X87200002Y-86749998D01*
D49*
X110750000Y-91105000D02*
X110750000Y-90010000D01*
X104300000Y-89650000D02*
X90600000Y-89650000D01*
D51*
X87200002Y-86749998D02*
X87300000Y-86650000D01*
D53*
X90600000Y-89650000D02*
X89350000Y-89650000D01*
X90600000Y-89650000D02*
X90600000Y-90700000D01*
D49*
X105459314Y-90190686D02*
X104840686Y-90190686D01*
D53*
X90600000Y-90700000D02*
X91050000Y-91150000D01*
X89350000Y-89650000D02*
X88226000Y-88526000D01*
X88226000Y-88526000D02*
X88226000Y-87576000D01*
D49*
X111025000Y-92500000D02*
X111025000Y-91380000D01*
D51*
X90500000Y-101800000D02*
X91600000Y-101800000D01*
D49*
X112100000Y-90855000D02*
X112200000Y-90855000D01*
X112600000Y-92500000D02*
X111025000Y-92500000D01*
X112600000Y-91255000D02*
X112600000Y-92500000D01*
X112200000Y-90855000D02*
X112600000Y-91255000D01*
D53*
X88226000Y-87576000D02*
X87300000Y-86650000D01*
%TO.N,/VBUS*%
X87575077Y-94600000D02*
X87600077Y-94575000D01*
X89029899Y-97000000D02*
X90279899Y-97000000D01*
X86303199Y-99400000D02*
X87564747Y-99400000D01*
X81800000Y-108600000D02*
X83375000Y-108600000D01*
X81400000Y-107262500D02*
X81400000Y-108200000D01*
X86303199Y-94600000D02*
X87575077Y-94600000D01*
X81400000Y-108200000D02*
X81800000Y-108600000D01*
X87564747Y-99400000D02*
X87641153Y-99476406D01*
D50*
%TO.N,NRST*%
X102400000Y-101000000D02*
X106000000Y-101000000D01*
X105516673Y-90950000D02*
X103389673Y-93077000D01*
X101300000Y-100500000D02*
X101900000Y-100500000D01*
X107650000Y-100650000D02*
X108551003Y-101551003D01*
D49*
X107305000Y-90955000D02*
X107300000Y-90950000D01*
X109390152Y-90955000D02*
X107305000Y-90955000D01*
D50*
X107280000Y-105940654D02*
X107280000Y-108705000D01*
X106000000Y-101000000D02*
X106350000Y-100650000D01*
D49*
X109750000Y-90010000D02*
X109750000Y-90595152D01*
D50*
X107000000Y-100650000D02*
X107650000Y-100650000D01*
X108551003Y-104669651D02*
X107280000Y-105940654D01*
X108551003Y-101551003D02*
X108551003Y-104669651D01*
X101900000Y-100500000D02*
X102400000Y-101000000D01*
X106350000Y-100650000D02*
X107000000Y-100650000D01*
X107300000Y-90950000D02*
X105516673Y-90950000D01*
D49*
X109750000Y-90595152D02*
X109390152Y-90955000D01*
D50*
%TO.N,PD_GND*%
X116200000Y-90600000D02*
X115849000Y-90249000D01*
X115849000Y-90249000D02*
X115849000Y-88730343D01*
X116500000Y-88099994D02*
X116578862Y-88099994D01*
X117475000Y-90600000D02*
X116200000Y-90600000D01*
X115849000Y-88730343D02*
X116479349Y-88099994D01*
X116578862Y-88099994D02*
X117017157Y-88538289D01*
X116479349Y-88099994D02*
X116500000Y-88099994D01*
%TO.N,/PD1*%
X116800000Y-90200000D02*
X116500000Y-89900000D01*
X117475000Y-90200000D02*
X116800000Y-90200000D01*
%TO.N,/PD2*%
X117875000Y-89975000D02*
X116899997Y-88999997D01*
X117875000Y-90200000D02*
X117875000Y-89975000D01*
X116899997Y-88999997D02*
X116500000Y-88999997D01*
%TO.N,USB_D+*%
X95016000Y-101184000D02*
X95016000Y-101437050D01*
X93176000Y-101184000D02*
X93176000Y-101437050D01*
X92992000Y-101621050D02*
X92900000Y-101621050D01*
X92716000Y-101437050D02*
X92716000Y-101184000D01*
X92532000Y-101000000D02*
X92440000Y-101000000D01*
X93452000Y-101000000D02*
X93360000Y-101000000D01*
X93912000Y-101621050D02*
X93820000Y-101621050D01*
X94832000Y-101621050D02*
X94740000Y-101621050D01*
X92440000Y-101000000D02*
X92400000Y-101000000D01*
X96400000Y-101000000D02*
X95200000Y-101000000D01*
X94556000Y-101437050D02*
X94556000Y-101184000D01*
X94096000Y-101184000D02*
X94096000Y-101437050D01*
X93636000Y-101437050D02*
X93636000Y-101184000D01*
X92251000Y-98671101D02*
X91529899Y-97950000D01*
X92251000Y-100851000D02*
X92251000Y-98671101D01*
X92400000Y-101000000D02*
X92251000Y-100851000D01*
X94372000Y-101000000D02*
X94280000Y-101000000D01*
X94740000Y-101621050D02*
G75*
G02*
X94556050Y-101437050I0J183950D01*
G01*
X94096000Y-101437050D02*
G75*
G02*
X93912000Y-101621100I-184000J-50D01*
G01*
X93360000Y-101000000D02*
G75*
G03*
X93176000Y-101184000I0J-184000D01*
G01*
X92716000Y-101184000D02*
G75*
G03*
X92532000Y-101000000I-184000J0D01*
G01*
X95016000Y-101437050D02*
G75*
G02*
X94832000Y-101621100I-184000J-50D01*
G01*
X94280000Y-101000000D02*
G75*
G03*
X94096000Y-101184000I0J-184000D01*
G01*
X92900000Y-101621050D02*
G75*
G02*
X92716050Y-101437050I0J183950D01*
G01*
X95200000Y-101000000D02*
G75*
G03*
X95016000Y-101184000I0J-184000D01*
G01*
X93820000Y-101621050D02*
G75*
G02*
X93636050Y-101437050I0J183950D01*
G01*
X94556000Y-101184000D02*
G75*
G03*
X94372000Y-101000000I-184000J0D01*
G01*
X93176000Y-101437050D02*
G75*
G02*
X92992000Y-101621100I-184000J-50D01*
G01*
X93636000Y-101184000D02*
G75*
G03*
X93452000Y-101000000I-184000J0D01*
G01*
%TO.N,/DP+*%
X86303199Y-97750059D02*
X87300059Y-97750059D01*
X85400000Y-96827299D02*
X85400000Y-97672701D01*
X85477358Y-97750059D02*
X86303199Y-97750059D01*
X86303199Y-96750000D02*
X85477299Y-96750000D01*
X87300059Y-97750059D02*
X87500000Y-97950000D01*
X85477299Y-96750000D02*
X85400000Y-96827299D01*
X85400000Y-97672701D02*
X85477358Y-97750059D01*
X87500000Y-97950000D02*
X89029899Y-97950000D01*
%TO.N,/DN-*%
X87200941Y-97250000D02*
X86303199Y-97250000D01*
X87300000Y-96300000D02*
X87300000Y-96700000D01*
X87300000Y-97349059D02*
X87200941Y-97250000D01*
X88100000Y-96900000D02*
X88100000Y-97200000D01*
X87550000Y-96050000D02*
X87349940Y-96250060D01*
X87550000Y-96050000D02*
X87300000Y-96300000D01*
X87400000Y-96800000D02*
X88000000Y-96800000D01*
X87950941Y-97349059D02*
X87300000Y-97349059D01*
X88000000Y-96800000D02*
X88100000Y-96900000D01*
X87300000Y-96700000D02*
X87400000Y-96800000D01*
X88100000Y-97200000D02*
X87950941Y-97349059D01*
X87349940Y-96250060D02*
X86303199Y-96250060D01*
X89029899Y-96050000D02*
X87550000Y-96050000D01*
%TO.N,USB_D-*%
X92900000Y-100500000D02*
X96400000Y-100500000D01*
X92970654Y-96050000D02*
X93651000Y-96730346D01*
X93651000Y-97269654D02*
X92652000Y-98268654D01*
X93651000Y-96730346D02*
X93651000Y-97269654D01*
X92652000Y-98268654D02*
X92652000Y-100252000D01*
X91529899Y-96050000D02*
X92970654Y-96050000D01*
X92652000Y-100252000D02*
X92900000Y-100500000D01*
%TO.N,SPI_MISO*%
X115638100Y-94529000D02*
X118275000Y-91892100D01*
X99100000Y-96300000D02*
X100871000Y-94529000D01*
X99100000Y-97800000D02*
X99100000Y-96300000D01*
X100871000Y-94529000D02*
X115638100Y-94529000D01*
X118275000Y-91892100D02*
X118275000Y-91400000D01*
%TO.N,PWR_WKP*%
X102647239Y-99225000D02*
X102372239Y-99500000D01*
X107000000Y-98425000D02*
X108125000Y-97300000D01*
X102647239Y-99225000D02*
X106800000Y-99225000D01*
X107000000Y-99025000D02*
X106800000Y-99225000D01*
X108125000Y-97300000D02*
X109040000Y-97300000D01*
X108525000Y-99225000D02*
X109420000Y-100120000D01*
X107000000Y-99025000D02*
X107200000Y-99225000D01*
X106800000Y-99225000D02*
X107200000Y-99225000D01*
X107000000Y-98425000D02*
X107000000Y-99025000D01*
X102372239Y-99500000D02*
X101300000Y-99500000D01*
X109420000Y-100120000D02*
X111315000Y-100120000D01*
X107200000Y-99225000D02*
X108525000Y-99225000D01*
%TO.N,SPI_MOSI*%
X117875000Y-91725000D02*
X117875000Y-91400000D01*
X100672000Y-94128000D02*
X115472000Y-94128000D01*
X98600000Y-97800000D02*
X98600000Y-96200000D01*
X115472000Y-94128000D02*
X117875000Y-91725000D01*
X98600000Y-96200000D02*
X100672000Y-94128000D01*
%TO.N,SCL*%
X110150000Y-87150000D02*
X110150000Y-86010000D01*
X96400000Y-99500000D02*
X94104685Y-99500000D01*
X110250000Y-88290000D02*
X110250000Y-87250000D01*
X110250000Y-87250000D02*
X110150000Y-87150000D01*
X93504682Y-98899997D02*
X93400000Y-98899997D01*
X94104685Y-99500000D02*
X93504682Y-98899997D01*
X110150000Y-86010000D02*
X110150000Y-84700000D01*
%TO.N,STAT*%
X92000000Y-94900000D02*
X91800000Y-94700000D01*
X97600000Y-97800000D02*
X97600000Y-96962190D01*
X86800000Y-91650000D02*
X89050000Y-91650000D01*
X85600000Y-90450000D02*
X86800000Y-91650000D01*
X95537810Y-94900000D02*
X92000000Y-94900000D01*
X97600000Y-96962190D02*
X95537810Y-94900000D01*
X85589200Y-90439200D02*
X85600000Y-90450000D01*
X85589200Y-88650000D02*
X85589200Y-90439200D01*
%TO.N,M_CSB*%
X100473000Y-93727000D02*
X98100000Y-96100000D01*
X98100000Y-96100000D02*
X98100000Y-97800000D01*
X117475000Y-91400000D02*
X115148000Y-93727000D01*
X115148000Y-93727000D02*
X100473000Y-93727000D01*
%TO.N,SCLK*%
X99600000Y-96400000D02*
X101070000Y-94930000D01*
X99600000Y-97800000D02*
X99600000Y-96400000D01*
X118675000Y-92059200D02*
X118675000Y-91400000D01*
X101070000Y-94930000D02*
X115804200Y-94930000D01*
X115804200Y-94930000D02*
X118675000Y-92059200D01*
%TO.N,BOOT0*%
X100832786Y-104000000D02*
X101000000Y-104000000D01*
X101000000Y-104000000D02*
X102200000Y-105200000D01*
X100100000Y-103267214D02*
X100832786Y-104000000D01*
X102200000Y-105200000D02*
X103575000Y-105200000D01*
X100100000Y-102700000D02*
X100100000Y-103267214D01*
%TO.N,D_RST*%
X118732000Y-95732000D02*
X119975975Y-96975975D01*
X101468000Y-95732000D02*
X118732000Y-95732000D01*
X100600000Y-97800000D02*
X100600000Y-96600000D01*
X100600000Y-96600000D02*
X101468000Y-95732000D01*
X119975975Y-96975975D02*
X123702072Y-96975975D01*
%TO.N,PA14{slash}SWCLK*%
X96900000Y-106900000D02*
X101400000Y-106900000D01*
X96400000Y-102000000D02*
X96400000Y-106400000D01*
X96400000Y-106400000D02*
X96900000Y-106900000D01*
X101400000Y-106900000D02*
X102200000Y-107700000D01*
X102200000Y-107700000D02*
X102200000Y-108705000D01*
%TO.N,D_CSB*%
X101300000Y-96517100D02*
X101684100Y-96133000D01*
X120208875Y-97775975D02*
X123702072Y-97775975D01*
X101300000Y-98500000D02*
X101300000Y-96517100D01*
X118565900Y-96133000D02*
X120208875Y-97775975D01*
X101684100Y-96133000D02*
X118565900Y-96133000D01*
D49*
%TO.N,ALM*%
X111250000Y-87450000D02*
X111530000Y-87170000D01*
X111250000Y-88365000D02*
X111250000Y-87450000D01*
D50*
X96400000Y-99000000D02*
X94500000Y-99000000D01*
X94500000Y-99000000D02*
X93923117Y-98423117D01*
D49*
X111530000Y-87170000D02*
X112480000Y-87170000D01*
D50*
X93923117Y-98423117D02*
X93923117Y-98167636D01*
%TO.N,PA13{slash}SWDIO*%
X99200000Y-107300000D02*
X99660000Y-107760000D01*
X96400000Y-101500000D02*
X95723000Y-101500000D01*
X95600000Y-101623000D02*
X95600000Y-106600000D01*
X95600000Y-106600000D02*
X96300000Y-107300000D01*
X96300000Y-107300000D02*
X99200000Y-107300000D01*
X99660000Y-107760000D02*
X99660000Y-108705000D01*
X95723000Y-101500000D02*
X95600000Y-101623000D01*
%TO.N,D{slash}C*%
X100100000Y-97800000D02*
X100100000Y-96500000D01*
X119743370Y-96176270D02*
X123702072Y-96176270D01*
X100100000Y-96500000D02*
X101269000Y-95331000D01*
X118898100Y-95331000D02*
X119743370Y-96176270D01*
X101269000Y-95331000D02*
X118898100Y-95331000D01*
%TO.N,SDA*%
X110750000Y-88290000D02*
X110750000Y-86915000D01*
X111655000Y-86010000D02*
X111655000Y-84705000D01*
X96400000Y-100000000D02*
X93600000Y-100000000D01*
X111655000Y-84705000D02*
X111650000Y-84700000D01*
X110750000Y-86915000D02*
X111655000Y-86010000D01*
X93600000Y-100000000D02*
X93400000Y-99800000D01*
D49*
%TO.N,/CC1*%
X87247545Y-95750000D02*
X87597545Y-95400000D01*
X88000000Y-95400000D02*
X88834899Y-94565101D01*
X86303199Y-95750000D02*
X87247545Y-95750000D01*
X87597545Y-95400000D02*
X88000000Y-95400000D01*
X88834899Y-94565101D02*
X88834899Y-94200000D01*
%TO.N,/CC2*%
X88109899Y-98600000D02*
X88834899Y-99325000D01*
X87400000Y-98600000D02*
X88109899Y-98600000D01*
X86303199Y-98750060D02*
X87249940Y-98750060D01*
X87249940Y-98750060D02*
X87400000Y-98600000D01*
X88834899Y-99325000D02*
X88834899Y-99800000D01*
D52*
%TO.N,/SW*%
X92397800Y-106068400D02*
X93104200Y-106068400D01*
X93104200Y-106068400D02*
X94255800Y-107220000D01*
X94255800Y-107220000D02*
X94500000Y-107220000D01*
D53*
%TO.N,-BATT*%
X90600000Y-87650000D02*
X104050000Y-87650000D01*
X106211000Y-89811000D02*
X107300000Y-89811000D01*
D49*
X109250000Y-90010000D02*
X108455000Y-90010000D01*
X108455000Y-90010000D02*
X108256000Y-89811000D01*
D53*
X104050000Y-87650000D02*
X106211000Y-89811000D01*
D49*
X108256000Y-89811000D02*
X107300000Y-89811000D01*
%TO.N,/BatD{slash}CD*%
X109749000Y-91406000D02*
X110250000Y-90905000D01*
X110250000Y-90905000D02*
X110250000Y-90010000D01*
X107850000Y-92500000D02*
X107850000Y-91850000D01*
X108294000Y-91406000D02*
X109749000Y-91406000D01*
X107850000Y-91850000D02*
X108294000Y-91406000D01*
D52*
%TO.N,/Prog*%
X82875000Y-89525000D02*
X82875000Y-90450000D01*
X83100000Y-89300000D02*
X82875000Y-89525000D01*
X83100000Y-88650000D02*
X83100000Y-89300000D01*
%TO.N,/P12*%
X124600000Y-99500000D02*
X124600000Y-100750000D01*
D50*
%TO.N,SPI3_MOSI*%
X98200000Y-104720654D02*
X97220654Y-105700000D01*
X98600000Y-103500000D02*
X98200000Y-103900000D01*
X98600000Y-102700000D02*
X98600000Y-103500000D01*
X97220654Y-105700000D02*
X97200000Y-105700000D01*
X98200000Y-103900000D02*
X98200000Y-104720654D01*
%TO.N,SCLK3*%
X97600000Y-102700000D02*
X97600000Y-103500000D01*
X97600000Y-103500000D02*
X97200000Y-103900000D01*
%TD*%
M02*
