%TF.GenerationSoftware,KiCad,Pcbnew,9.0.7*%
%TF.CreationDate,2026-09-18T16:32:36-07:00*%
%TF.ProjectId,PulseOximeter,50756c73-654f-4786-996d-657465722e6b,rev?*%
%TF.SameCoordinates,Original*%
%TF.FileFunction,Paste,Top*%
%TF.FilePolarity,Positive*%
%FSLAX46Y46*%
G04 Gerber Fmt 4.6, Leading zero omitted, Abs format (unit mm)*
G04 Created by KiCad (PCBNEW 9.0.7) date 2026-09-18 16:32:36*
%MOMM*%
%LPD*%
G01*
G04 APERTURE LIST*
G04 Aperture macros list*
%AMRoundRect*
0 Rectangle with rounded corners*
0 $1 Rounding radius*
0 $2 $3 $4 $5 $6 $7 $8 $9 X,Y pos of 4 corners*
0 Add a 4 corners polygon primitive as box body*
4,1,4,$2,$3,$4,$5,$6,$7,$8,$9,$2,$3,0*
0 Add four circle primitives for the rounded corners*
1,1,$1+$1,$2,$3*
1,1,$1+$1,$4,$5*
1,1,$1+$1,$6,$7*
1,1,$1+$1,$8,$9*
0 Add four rect primitives between the rounded corners*
20,1,$1+$1,$2,$3,$4,$5,0*
20,1,$1+$1,$4,$5,$6,$7,0*
20,1,$1+$1,$6,$7,$8,$9,0*
20,1,$1+$1,$8,$9,$2,$3,0*%
G04 Aperture macros list end*
%ADD10RoundRect,0.225000X-0.250000X0.225000X-0.250000X-0.225000X0.250000X-0.225000X0.250000X0.225000X0*%
%ADD11RoundRect,0.225000X0.225000X0.250000X-0.225000X0.250000X-0.225000X-0.250000X0.225000X-0.250000X0*%
%ADD12RoundRect,0.225000X0.250000X-0.225000X0.250000X0.225000X-0.250000X0.225000X-0.250000X-0.225000X0*%
%ADD13RoundRect,0.019500X-0.110500X0.560500X-0.110500X-0.560500X0.110500X-0.560500X0.110500X0.560500X0*%
%ADD14RoundRect,0.019500X-0.110500X0.485500X-0.110500X-0.485500X0.110500X-0.485500X0.110500X0.485500X0*%
%ADD15C,0.200000*%
%ADD16RoundRect,0.225000X-0.225000X-0.250000X0.225000X-0.250000X0.225000X0.250000X-0.225000X0.250000X0*%
%ADD17RoundRect,0.200000X0.200000X0.275000X-0.200000X0.275000X-0.200000X-0.275000X0.200000X-0.275000X0*%
%ADD18R,0.812800X0.304800*%
%ADD19R,1.701800X2.108200*%
%ADD20R,3.500000X1.000000*%
%ADD21R,3.400000X1.500000*%
%ADD22R,0.900000X0.650000*%
%ADD23R,1.120000X1.240000*%
%ADD24RoundRect,0.200000X-0.200000X-0.275000X0.200000X-0.275000X0.200000X0.275000X-0.200000X0.275000X0*%
%ADD25RoundRect,0.218750X-0.381250X0.218750X-0.381250X-0.218750X0.381250X-0.218750X0.381250X0.218750X0*%
%ADD26R,0.850000X0.300000*%
%ADD27R,0.300000X0.850000*%
%ADD28R,3.700000X3.700000*%
%ADD29C,0.304800*%
%ADD30R,1.016000X0.457200*%
%ADD31R,1.200000X0.600000*%
%ADD32RoundRect,0.200000X-0.275000X0.200000X-0.275000X-0.200000X0.275000X-0.200000X0.275000X0.200000X0*%
%ADD33R,3.810000X2.030000*%
%ADD34R,3.630000X1.020000*%
%ADD35R,2.030000X2.230000*%
%ADD36R,0.900000X0.400000*%
%ADD37R,1.143000X0.609600*%
%ADD38R,1.143000X0.304800*%
%ADD39R,1.420000X1.200000*%
G04 APERTURE END LIST*
D10*
%TO.C,C16*%
X83400000Y-105137500D03*
X83400000Y-106687500D03*
%TD*%
D11*
%TO.C,C6*%
X120250000Y-86200000D03*
X118700000Y-86200000D03*
%TD*%
D12*
%TO.C,C1*%
X103650000Y-103550000D03*
X103650000Y-102000000D03*
%TD*%
D13*
%TO.C,U3*%
X111250000Y-88365000D03*
D14*
X110750000Y-88290000D03*
X110250000Y-88290000D03*
X109750000Y-88290000D03*
X109250000Y-88290000D03*
X109250000Y-90010000D03*
X109750000Y-90010000D03*
X110250000Y-90010000D03*
X110750000Y-90010000D03*
X111250000Y-90010000D03*
%TD*%
D12*
%TO.C,C2*%
X105350000Y-103550000D03*
X105350000Y-102000000D03*
%TD*%
D11*
%TO.C,C10*%
X93275000Y-103200000D03*
X91725000Y-103200000D03*
%TD*%
D12*
%TO.C,C13*%
X81300000Y-88200000D03*
X81300000Y-86650000D03*
%TD*%
D15*
%TO.C,NT1*%
X117017157Y-88538289D03*
X117300000Y-88821132D03*
%TD*%
D16*
%TO.C,C21*%
X109475000Y-92500000D03*
X111025000Y-92500000D03*
%TD*%
D17*
%TO.C,R_Prog1*%
X82875000Y-90450000D03*
X81225000Y-90450000D03*
%TD*%
D18*
%TO.C,U2*%
X92397800Y-106576400D03*
X92397800Y-106068400D03*
X92397800Y-105560400D03*
X92397800Y-105052400D03*
X89502200Y-105052400D03*
X89502200Y-105560400D03*
X89502200Y-106068400D03*
X89502200Y-106576400D03*
D19*
X90950000Y-105814400D03*
%TD*%
D20*
%TO.C,P1*%
X90600000Y-89650000D03*
X90600000Y-87650000D03*
D21*
X96350000Y-92000000D03*
X96350000Y-85300000D03*
%TD*%
D17*
%TO.C,R9*%
X90484899Y-94200000D03*
X88834899Y-94200000D03*
%TD*%
D22*
%TO.C,R7*%
X107300000Y-89811000D03*
X107300000Y-88361000D03*
%TD*%
D23*
%TO.C,D3*%
X87200000Y-106500000D03*
X87200000Y-103500000D03*
%TD*%
D17*
%TO.C,R3*%
X113305000Y-86010000D03*
X111655000Y-86010000D03*
%TD*%
%TO.C,R5*%
X83800000Y-103500000D03*
X82150000Y-103500000D03*
%TD*%
D12*
%TO.C,C7*%
X94900000Y-97200000D03*
X94900000Y-95650000D03*
%TD*%
%TO.C,C18*%
X128200000Y-88800000D03*
X128200000Y-87250000D03*
%TD*%
D10*
%TO.C,C20*%
X107000000Y-100650000D03*
X107000000Y-102200000D03*
%TD*%
D17*
%TO.C,R10*%
X90484899Y-99800000D03*
X88834899Y-99800000D03*
%TD*%
D24*
%TO.C,R2*%
X108500000Y-86010000D03*
X110150000Y-86010000D03*
%TD*%
D11*
%TO.C,C9*%
X120225000Y-87900000D03*
X118675000Y-87900000D03*
%TD*%
D24*
%TO.C,R_Filt1*%
X112600000Y-92500000D03*
X114250000Y-92500000D03*
%TD*%
D17*
%TO.C,R11*%
X110690000Y-97300000D03*
X109040000Y-97300000D03*
%TD*%
%TO.C,R14*%
X105225000Y-105200000D03*
X103575000Y-105200000D03*
%TD*%
D10*
%TO.C,C19*%
X121900000Y-87250000D03*
X121900000Y-88800000D03*
%TD*%
D24*
%TO.C,R6*%
X90875000Y-108600000D03*
X92525000Y-108600000D03*
%TD*%
D25*
%TO.C,FB1*%
X81400000Y-105137500D03*
X81400000Y-107262500D03*
%TD*%
D11*
%TO.C,C12*%
X89175000Y-108600000D03*
X87625000Y-108600000D03*
%TD*%
D26*
%TO.C,IC1*%
X101300000Y-102000000D03*
X101300000Y-101500000D03*
X101300000Y-101000000D03*
X101300000Y-100500000D03*
X101300000Y-100000000D03*
X101300000Y-99500000D03*
X101300000Y-99000000D03*
X101300000Y-98500000D03*
D27*
X100600000Y-97800000D03*
X100100000Y-97800000D03*
X99600000Y-97800000D03*
X99100000Y-97800000D03*
X98600000Y-97800000D03*
X98100000Y-97800000D03*
X97600000Y-97800000D03*
X97100000Y-97800000D03*
D26*
X96400000Y-98500000D03*
X96400000Y-99000000D03*
X96400000Y-99500000D03*
X96400000Y-100000000D03*
X96400000Y-100500000D03*
X96400000Y-101000000D03*
X96400000Y-101500000D03*
X96400000Y-102000000D03*
D27*
X97100000Y-102700000D03*
X97600000Y-102700000D03*
X98100000Y-102700000D03*
X98600000Y-102700000D03*
X99100000Y-102700000D03*
X99600000Y-102700000D03*
X100100000Y-102700000D03*
X100600000Y-102700000D03*
D28*
X98850000Y-100250000D03*
%TD*%
D10*
%TO.C,C15*%
X85200000Y-105137500D03*
X85200000Y-106687500D03*
%TD*%
D29*
%TO.C,U1*%
X119075000Y-91400000D03*
X118675000Y-91400000D03*
X118275000Y-91400000D03*
X117875000Y-91400000D03*
X117475000Y-91400000D03*
X119075000Y-91000000D03*
X118675000Y-91000000D03*
X118275000Y-91000000D03*
X117875000Y-91000000D03*
X117475000Y-91000000D03*
X119075000Y-90600000D03*
X118675000Y-90600000D03*
X118275000Y-90600000D03*
X117875000Y-90600000D03*
X117475000Y-90600000D03*
X119075000Y-90200000D03*
X118675000Y-90200000D03*
X118275000Y-90200000D03*
X117875000Y-90200000D03*
X117475000Y-90200000D03*
%TD*%
D30*
%TO.C,U4*%
X85589200Y-88650000D03*
X85589200Y-87699999D03*
X85589200Y-86749998D03*
X83100000Y-86749998D03*
X83100000Y-88650000D03*
%TD*%
D10*
%TO.C,C11*%
X113230000Y-88455000D03*
X113230000Y-90005000D03*
%TD*%
D24*
%TO.C,R8*%
X106200000Y-92500000D03*
X107850000Y-92500000D03*
%TD*%
D31*
%TO.C,D4*%
X91529899Y-97950000D03*
X91529899Y-97000000D03*
X91529899Y-96050000D03*
X89029899Y-96050000D03*
X89029899Y-97000000D03*
X89029899Y-97950000D03*
%TD*%
D10*
%TO.C,C14*%
X87300000Y-86650000D03*
X87300000Y-88200000D03*
%TD*%
D12*
%TO.C,C4*%
X105350000Y-100000000D03*
X105350000Y-98450000D03*
%TD*%
D31*
%TO.C,IC2*%
X126300000Y-88200000D03*
X126300000Y-87250000D03*
X126300000Y-86300000D03*
X123800000Y-86300000D03*
X123800000Y-88200000D03*
%TD*%
D10*
%TO.C,C8*%
X115000000Y-88450000D03*
X115000000Y-90000000D03*
%TD*%
D16*
%TO.C,C17*%
X83375000Y-108600000D03*
X84925000Y-108600000D03*
%TD*%
D12*
%TO.C,C5*%
X103650000Y-100000000D03*
X103650000Y-98450000D03*
%TD*%
D32*
%TO.C,R1*%
X124600000Y-100750000D03*
X124600000Y-102400000D03*
%TD*%
D33*
%TO.C,S1*%
X118685000Y-100120000D03*
X111315000Y-100120000D03*
D34*
X112420000Y-109190000D03*
X117580000Y-109190000D03*
D35*
X113220000Y-107565000D03*
X116780000Y-107565000D03*
%TD*%
D36*
%TO.C,Q1*%
X88900000Y-101300000D03*
X88900000Y-102300000D03*
X90500000Y-101800000D03*
%TD*%
D37*
%TO.C,J2*%
X86303199Y-93799999D03*
X86303199Y-94600000D03*
D38*
X86303199Y-95750000D03*
X86303199Y-96750000D03*
X86303199Y-97250000D03*
X86303199Y-98250000D03*
D37*
X86303199Y-100199999D03*
X86303199Y-99400000D03*
D38*
X86303199Y-98750060D03*
X86303199Y-97750059D03*
X86303199Y-96250060D03*
X86303199Y-95250059D03*
%TD*%
D39*
%TO.C,L1*%
X94500000Y-107220000D03*
X94500000Y-105500000D03*
%TD*%
D11*
%TO.C,C3*%
X122825000Y-92600000D03*
X121275000Y-92600000D03*
%TD*%
M02*
