%TF.GenerationSoftware,KiCad,Pcbnew,9.0.7*%
%TF.CreationDate,2026-09-18T16:32:36-07:00*%
%TF.ProjectId,PulseOximeter,50756c73-654f-4786-996d-657465722e6b,rev?*%
%TF.SameCoordinates,Original*%
%TF.FileFunction,Copper,L3,Inr*%
%TF.FilePolarity,Positive*%
%FSLAX46Y46*%
G04 Gerber Fmt 4.6, Leading zero omitted, Abs format (unit mm)*
G04 Created by KiCad (PCBNEW 9.0.7) date 2026-09-18 16:32:36*
%MOMM*%
%LPD*%
G01*
G04 APERTURE LIST*
G04 Aperture macros list*
%AMRoundRect*
0 Rectangle with rounded corners*
0 $1 Rounding radius*
0 $2 $3 $4 $5 $6 $7 $8 $9 X,Y pos of 4 corners*
0 Add a 4 corners polygon primitive as box body*
4,1,4,$2,$3,$4,$5,$6,$7,$8,$9,$2,$3,0*
0 Add four circle primitives for the rounded corners*
1,1,$1+$1,$2,$3*
1,1,$1+$1,$4,$5*
1,1,$1+$1,$6,$7*
1,1,$1+$1,$8,$9*
0 Add four rect primitives between the rounded corners*
20,1,$1+$1,$2,$3,$4,$5,0*
20,1,$1+$1,$4,$5,$6,$7,0*
20,1,$1+$1,$6,$7,$8,$9,0*
20,1,$1+$1,$8,$9,$2,$3,0*%
G04 Aperture macros list end*
%TA.AperFunction,ComponentPad*%
%ADD10RoundRect,0.250000X-0.620000X-0.620000X0.620000X-0.620000X0.620000X0.620000X-0.620000X0.620000X0*%
%TD*%
%TA.AperFunction,ComponentPad*%
%ADD11C,1.740000*%
%TD*%
%TA.AperFunction,ComponentPad*%
%ADD12O,2.209800X0.990600*%
%TD*%
%TA.AperFunction,ComponentPad*%
%ADD13O,1.803400X0.990600*%
%TD*%
%TA.AperFunction,ViaPad*%
%ADD14C,0.700000*%
%TD*%
%TA.AperFunction,ViaPad*%
%ADD15C,1.000000*%
%TD*%
%TA.AperFunction,ViaPad*%
%ADD16C,0.600000*%
%TD*%
%TA.AperFunction,Conductor*%
%ADD17C,0.200000*%
%TD*%
G04 APERTURE END LIST*
D10*
%TO.N,+3V3*%
%TO.C,J3*%
X97120000Y-108705000D03*
D11*
%TO.N,PA13{slash}SWDIO*%
X99660000Y-108705000D03*
%TO.N,PA14{slash}SWCLK*%
X102200000Y-108705000D03*
%TO.N,GND*%
X104740000Y-108705000D03*
%TO.N,NRST*%
X107280000Y-108705000D03*
%TD*%
D12*
%TO.N,GND*%
%TO.C,J2*%
X81728199Y-92680000D03*
X81728199Y-101320000D03*
D13*
X85728200Y-92680000D03*
X85728200Y-101320000D03*
%TD*%
D14*
%TO.N,GND*%
X115600000Y-85200000D03*
%TO.N,/K_IR*%
X122400000Y-90000000D03*
%TO.N,GND*%
X123200000Y-91400000D03*
X90950000Y-105200000D03*
D15*
X128200000Y-85800000D03*
D14*
X98850000Y-100250000D03*
X115000000Y-107560000D03*
X97400000Y-101700000D03*
X84350000Y-90400000D03*
X91600000Y-99800000D03*
X100300000Y-98800000D03*
X85000000Y-94200000D03*
X128600000Y-93400000D03*
X97400000Y-98800000D03*
X96300000Y-96675000D03*
D15*
X107300000Y-87250000D03*
D14*
X90950000Y-106400000D03*
X80900000Y-103500000D03*
X121900000Y-86050000D03*
X98850000Y-101700000D03*
X121900000Y-85050000D03*
X106900000Y-104450003D03*
X107850000Y-103550000D03*
X87300000Y-89500000D03*
X86300000Y-109100000D03*
X93550000Y-95650000D03*
X128600000Y-100600000D03*
X86300000Y-107700000D03*
X87600000Y-93200000D03*
X103650000Y-97300000D03*
X93900000Y-109100000D03*
X98850000Y-98800000D03*
X127200000Y-99000010D03*
X118025000Y-88821132D03*
D15*
X99600000Y-105200000D03*
D14*
X100300000Y-101700000D03*
X97200000Y-104800000D03*
X100300000Y-100250000D03*
X93000000Y-97000000D03*
X82000000Y-89400000D03*
X85000000Y-99800000D03*
X90300000Y-103200000D03*
X97400000Y-100250000D03*
X116000000Y-100600000D03*
X104900000Y-92500000D03*
%TO.N,+3V3*%
X114460000Y-86010000D03*
X114000000Y-100600000D03*
X103000000Y-90600000D03*
D15*
X94500000Y-103200000D03*
D14*
X96300000Y-97700000D03*
X108551003Y-100400000D03*
X106900000Y-103550000D03*
D15*
X126400000Y-89600000D03*
D14*
X107300000Y-86000000D03*
D16*
X123200000Y-93800000D03*
D14*
X103000000Y-86600000D03*
D15*
X102200000Y-103900000D03*
X127200000Y-104800000D03*
%TO.N,5V_FILT*%
X85600000Y-103200000D03*
D14*
X82100000Y-85300000D03*
%TO.N,+BATT*%
X105459314Y-90190686D03*
D15*
X91050000Y-91150000D03*
D14*
X112100000Y-90855000D03*
D15*
X91600000Y-101800000D03*
D14*
%TO.N,/VBUS*%
X90279899Y-97000000D03*
D15*
X81800000Y-108600000D03*
X87600077Y-94575000D03*
X87641153Y-99476406D03*
%TO.N,NRST*%
X99600000Y-103900000D03*
D14*
X102400000Y-101000000D03*
X103389673Y-93077000D03*
%TO.N,PD_GND*%
X116500000Y-88099994D03*
%TO.N,/PD1*%
X116500000Y-89900000D03*
%TO.N,/PD2*%
X116500000Y-88999997D03*
%TO.N,SCL*%
X110150000Y-84700000D03*
X93400000Y-98899997D03*
%TO.N,STAT*%
X89050000Y-91650000D03*
X91800000Y-94700000D03*
D15*
%TO.N,BOOT0*%
X102200000Y-105200000D03*
D16*
%TO.N,D_RST*%
X123702072Y-96975975D03*
%TO.N,D_CSB*%
X123702072Y-97775975D03*
D14*
%TO.N,ALM*%
X112480000Y-87170000D03*
X93923117Y-98167636D03*
D16*
%TO.N,D{slash}C*%
X123702072Y-96176270D03*
D14*
%TO.N,SDA*%
X111650000Y-84700000D03*
X93400000Y-99800000D03*
%TO.N,/K_GRN*%
X121000000Y-91400000D03*
%TO.N,/K_RED*%
X121000000Y-89950000D03*
D16*
%TO.N,/P12*%
X124600000Y-99500000D03*
D14*
%TO.N,SPI3_MOSI*%
X97200000Y-105700000D03*
%TO.N,SCLK3*%
X97200000Y-103900000D03*
%TD*%
D17*
%TO.N,NRST*%
X102400000Y-94066673D02*
X103389673Y-93077000D01*
X102400000Y-101000000D02*
X102400000Y-94066673D01*
X102400000Y-101100000D02*
X99600000Y-103900000D01*
X102400000Y-101000000D02*
X102300000Y-101000000D01*
X102400000Y-101000000D02*
X102400000Y-101100000D01*
%TD*%
%TA.AperFunction,Conductor*%
%TO.N,GND*%
G36*
X109597253Y-84320185D02*
G01*
X109643008Y-84372989D01*
X109652952Y-84442147D01*
X109639885Y-84479900D01*
X109640128Y-84480001D01*
X109638442Y-84484071D01*
X109637603Y-84486496D01*
X109637018Y-84487507D01*
X109637017Y-84487510D01*
X109629724Y-84514729D01*
X109599500Y-84627525D01*
X109599500Y-84772475D01*
X109622817Y-84859493D01*
X109637017Y-84912488D01*
X109709488Y-85038011D01*
X109709490Y-85038013D01*
X109709491Y-85038015D01*
X109811985Y-85140509D01*
X109811986Y-85140510D01*
X109811988Y-85140511D01*
X109937511Y-85212982D01*
X109937512Y-85212982D01*
X109937515Y-85212984D01*
X110077525Y-85250500D01*
X110077528Y-85250500D01*
X110222472Y-85250500D01*
X110222475Y-85250500D01*
X110362485Y-85212984D01*
X110488015Y-85140509D01*
X110590509Y-85038015D01*
X110662984Y-84912485D01*
X110700500Y-84772475D01*
X110700500Y-84627525D01*
X110662984Y-84487515D01*
X110662982Y-84487512D01*
X110662982Y-84487510D01*
X110662981Y-84487507D01*
X110662397Y-84486496D01*
X110662163Y-84485534D01*
X110659872Y-84480001D01*
X110660734Y-84479643D01*
X110645927Y-84418595D01*
X110668781Y-84352569D01*
X110723704Y-84309381D01*
X110769786Y-84300500D01*
X111030214Y-84300500D01*
X111097253Y-84320185D01*
X111143008Y-84372989D01*
X111152952Y-84442147D01*
X111139885Y-84479900D01*
X111140128Y-84480001D01*
X111138442Y-84484071D01*
X111137603Y-84486496D01*
X111137018Y-84487507D01*
X111137017Y-84487510D01*
X111129724Y-84514729D01*
X111099500Y-84627525D01*
X111099500Y-84772475D01*
X111122817Y-84859493D01*
X111137017Y-84912488D01*
X111209488Y-85038011D01*
X111209490Y-85038013D01*
X111209491Y-85038015D01*
X111311985Y-85140509D01*
X111311986Y-85140510D01*
X111311988Y-85140511D01*
X111437511Y-85212982D01*
X111437512Y-85212982D01*
X111437515Y-85212984D01*
X111577525Y-85250500D01*
X111577528Y-85250500D01*
X111722472Y-85250500D01*
X111722475Y-85250500D01*
X111862485Y-85212984D01*
X111988015Y-85140509D01*
X112090509Y-85038015D01*
X112162984Y-84912485D01*
X112200500Y-84772475D01*
X112200500Y-84627525D01*
X112162984Y-84487515D01*
X112162982Y-84487512D01*
X112162982Y-84487510D01*
X112162981Y-84487507D01*
X112162397Y-84486496D01*
X112162163Y-84485534D01*
X112159872Y-84480001D01*
X112160734Y-84479643D01*
X112145927Y-84418595D01*
X112168781Y-84352569D01*
X112223704Y-84309381D01*
X112269786Y-84300500D01*
X126952405Y-84300500D01*
X126996519Y-84300500D01*
X127003472Y-84300695D01*
X127295306Y-84317084D01*
X127309103Y-84318638D01*
X127593827Y-84367015D01*
X127607382Y-84370108D01*
X127746141Y-84410084D01*
X127884899Y-84450060D01*
X127898025Y-84454653D01*
X128164841Y-84565172D01*
X128177355Y-84571198D01*
X128377541Y-84681836D01*
X128430125Y-84710899D01*
X128441899Y-84718297D01*
X128538751Y-84787017D01*
X128640893Y-84859491D01*
X128677430Y-84885415D01*
X128688302Y-84894085D01*
X128903642Y-85086524D01*
X128913473Y-85096355D01*
X128952933Y-85140511D01*
X129105914Y-85311697D01*
X129114584Y-85322569D01*
X129281702Y-85558100D01*
X129289100Y-85569874D01*
X129428797Y-85822637D01*
X129434830Y-85835165D01*
X129545346Y-86101975D01*
X129549939Y-86115100D01*
X129629890Y-86392615D01*
X129632984Y-86406172D01*
X129681359Y-86690885D01*
X129682916Y-86704703D01*
X129699305Y-86996527D01*
X129699500Y-87003480D01*
X129699500Y-106996519D01*
X129699305Y-107003472D01*
X129682916Y-107295296D01*
X129681359Y-107309114D01*
X129632984Y-107593827D01*
X129629890Y-107607384D01*
X129549939Y-107884899D01*
X129545346Y-107898024D01*
X129434830Y-108164834D01*
X129428797Y-108177362D01*
X129289100Y-108430125D01*
X129281702Y-108441899D01*
X129114584Y-108677430D01*
X129105914Y-108688302D01*
X128913475Y-108903642D01*
X128903642Y-108913475D01*
X128688302Y-109105914D01*
X128677430Y-109114584D01*
X128441899Y-109281702D01*
X128430125Y-109289100D01*
X128177362Y-109428797D01*
X128164834Y-109434830D01*
X127898024Y-109545346D01*
X127884899Y-109549939D01*
X127607384Y-109629890D01*
X127593827Y-109632984D01*
X127309114Y-109681359D01*
X127295296Y-109682916D01*
X127003472Y-109699305D01*
X126996519Y-109699500D01*
X108098779Y-109699500D01*
X108031740Y-109679815D01*
X107985985Y-109627011D01*
X107976041Y-109557853D01*
X108005066Y-109494297D01*
X108011098Y-109487819D01*
X108111509Y-109387407D01*
X108111512Y-109387404D01*
X108228665Y-109212072D01*
X108309362Y-109017253D01*
X108350500Y-108810435D01*
X108350500Y-108599565D01*
X108309362Y-108392747D01*
X108228665Y-108197928D01*
X108228664Y-108197927D01*
X108228661Y-108197921D01*
X108111512Y-108022596D01*
X108111509Y-108022592D01*
X107962407Y-107873490D01*
X107962403Y-107873487D01*
X107787078Y-107756338D01*
X107787069Y-107756333D01*
X107592253Y-107675638D01*
X107592245Y-107675636D01*
X107385439Y-107634500D01*
X107385435Y-107634500D01*
X107174565Y-107634500D01*
X107174560Y-107634500D01*
X106967754Y-107675636D01*
X106967746Y-107675638D01*
X106772930Y-107756333D01*
X106772921Y-107756338D01*
X106597596Y-107873487D01*
X106597592Y-107873490D01*
X106448490Y-108022592D01*
X106448487Y-108022596D01*
X106331338Y-108197921D01*
X106331333Y-108197931D01*
X106283103Y-108314368D01*
X106239261Y-108368772D01*
X106172967Y-108390836D01*
X106105268Y-108373556D01*
X106057658Y-108322419D01*
X106050611Y-108305233D01*
X106009627Y-108179100D01*
X105911732Y-107986971D01*
X105911724Y-107986958D01*
X105869589Y-107928964D01*
X105869588Y-107928963D01*
X105259704Y-108538846D01*
X105247859Y-108494638D01*
X105176109Y-108370362D01*
X105074638Y-108268891D01*
X104950362Y-108197141D01*
X104906151Y-108185294D01*
X105516035Y-107575411D01*
X105516034Y-107575410D01*
X105458036Y-107533271D01*
X105265901Y-107435372D01*
X105060809Y-107368734D01*
X104847820Y-107335000D01*
X104632180Y-107335000D01*
X104419190Y-107368734D01*
X104214098Y-107435372D01*
X104021967Y-107533269D01*
X103963964Y-107575410D01*
X104573848Y-108185294D01*
X104529638Y-108197141D01*
X104405362Y-108268891D01*
X104303891Y-108370362D01*
X104232141Y-108494638D01*
X104220294Y-108538848D01*
X103610410Y-107928964D01*
X103568269Y-107986967D01*
X103470372Y-108179098D01*
X103429388Y-108305234D01*
X103389950Y-108362909D01*
X103325591Y-108390107D01*
X103256745Y-108378192D01*
X103205269Y-108330947D01*
X103196896Y-108314368D01*
X103148666Y-108197930D01*
X103148661Y-108197921D01*
X103031512Y-108022596D01*
X103031509Y-108022592D01*
X102882407Y-107873490D01*
X102882403Y-107873487D01*
X102707078Y-107756338D01*
X102707068Y-107756333D01*
X102660949Y-107737230D01*
X102512253Y-107675638D01*
X102512245Y-107675636D01*
X102305439Y-107634500D01*
X102305435Y-107634500D01*
X102094565Y-107634500D01*
X102094560Y-107634500D01*
X101887754Y-107675636D01*
X101887746Y-107675638D01*
X101692930Y-107756333D01*
X101692921Y-107756338D01*
X101517596Y-107873487D01*
X101517592Y-107873490D01*
X101368490Y-108022592D01*
X101368487Y-108022596D01*
X101251338Y-108197921D01*
X101251333Y-108197930D01*
X101170638Y-108392746D01*
X101170636Y-108392754D01*
X101129500Y-108599560D01*
X101129500Y-108810439D01*
X101170636Y-109017245D01*
X101170638Y-109017253D01*
X101251333Y-109212069D01*
X101251338Y-109212078D01*
X101368487Y-109387403D01*
X101368490Y-109387407D01*
X101468902Y-109487819D01*
X101502387Y-109549142D01*
X101497403Y-109618834D01*
X101455531Y-109674767D01*
X101390067Y-109699184D01*
X101381221Y-109699500D01*
X100478779Y-109699500D01*
X100411740Y-109679815D01*
X100365985Y-109627011D01*
X100356041Y-109557853D01*
X100385066Y-109494297D01*
X100391098Y-109487819D01*
X100491509Y-109387407D01*
X100491512Y-109387404D01*
X100608665Y-109212072D01*
X100689362Y-109017253D01*
X100730500Y-108810435D01*
X100730500Y-108599565D01*
X100689362Y-108392747D01*
X100608665Y-108197928D01*
X100608664Y-108197927D01*
X100608661Y-108197921D01*
X100491512Y-108022596D01*
X100491509Y-108022592D01*
X100342407Y-107873490D01*
X100342403Y-107873487D01*
X100167078Y-107756338D01*
X100167069Y-107756333D01*
X99972253Y-107675638D01*
X99972245Y-107675636D01*
X99765439Y-107634500D01*
X99765435Y-107634500D01*
X99554565Y-107634500D01*
X99554560Y-107634500D01*
X99347754Y-107675636D01*
X99347746Y-107675638D01*
X99152930Y-107756333D01*
X99152921Y-107756338D01*
X98977596Y-107873487D01*
X98977592Y-107873490D01*
X98828490Y-108022592D01*
X98828487Y-108022596D01*
X98711338Y-108197921D01*
X98711333Y-108197930D01*
X98630638Y-108392746D01*
X98630636Y-108392754D01*
X98589500Y-108599560D01*
X98589500Y-108810439D01*
X98630636Y-109017245D01*
X98630638Y-109017253D01*
X98711333Y-109212069D01*
X98711338Y-109212078D01*
X98828487Y-109387403D01*
X98828490Y-109387407D01*
X98928902Y-109487819D01*
X98962387Y-109549142D01*
X98957403Y-109618834D01*
X98915531Y-109674767D01*
X98850067Y-109699184D01*
X98841221Y-109699500D01*
X98261002Y-109699500D01*
X98193963Y-109679815D01*
X98148208Y-109627011D01*
X98138264Y-109557853D01*
X98143961Y-109534545D01*
X98187645Y-109409701D01*
X98187646Y-109409699D01*
X98190500Y-109379269D01*
X98190500Y-108030730D01*
X98187646Y-108000300D01*
X98187646Y-108000298D01*
X98142793Y-107872119D01*
X98142792Y-107872117D01*
X98062150Y-107762850D01*
X97952882Y-107682207D01*
X97952880Y-107682206D01*
X97824700Y-107637353D01*
X97794270Y-107634500D01*
X97794266Y-107634500D01*
X96445734Y-107634500D01*
X96445730Y-107634500D01*
X96415300Y-107637353D01*
X96415298Y-107637353D01*
X96287119Y-107682206D01*
X96287117Y-107682207D01*
X96177850Y-107762850D01*
X96097207Y-107872117D01*
X96097206Y-107872119D01*
X96052353Y-108000298D01*
X96052353Y-108000300D01*
X96049500Y-108030730D01*
X96049500Y-109379269D01*
X96052353Y-109409699D01*
X96052354Y-109409701D01*
X96096039Y-109534545D01*
X96099601Y-109604324D01*
X96064873Y-109664951D01*
X96002879Y-109697179D01*
X95978998Y-109699500D01*
X83003481Y-109699500D01*
X82996528Y-109699305D01*
X82704703Y-109682916D01*
X82690885Y-109681359D01*
X82406172Y-109632984D01*
X82392615Y-109629890D01*
X82115100Y-109549939D01*
X82101975Y-109545346D01*
X82001674Y-109503800D01*
X81947271Y-109459959D01*
X81925206Y-109393665D01*
X81942485Y-109325966D01*
X81993622Y-109278355D01*
X82001675Y-109274677D01*
X82004319Y-109273581D01*
X82004328Y-109273580D01*
X82131811Y-109220775D01*
X82246542Y-109144114D01*
X82344114Y-109046542D01*
X82420775Y-108931811D01*
X82473580Y-108804328D01*
X82500500Y-108668993D01*
X82500500Y-108531007D01*
X82500500Y-108531004D01*
X82473581Y-108395677D01*
X82473580Y-108395676D01*
X82473580Y-108395672D01*
X82472371Y-108392754D01*
X82420778Y-108268195D01*
X82420771Y-108268182D01*
X82344114Y-108153458D01*
X82344111Y-108153454D01*
X82246545Y-108055888D01*
X82246541Y-108055885D01*
X82131817Y-107979228D01*
X82131804Y-107979221D01*
X82004332Y-107926421D01*
X82004322Y-107926418D01*
X81868995Y-107899500D01*
X81868993Y-107899500D01*
X81731007Y-107899500D01*
X81731005Y-107899500D01*
X81595677Y-107926418D01*
X81595667Y-107926421D01*
X81468195Y-107979221D01*
X81468182Y-107979228D01*
X81353458Y-108055885D01*
X81353454Y-108055888D01*
X81255888Y-108153454D01*
X81255885Y-108153458D01*
X81179228Y-108268182D01*
X81179221Y-108268195D01*
X81126421Y-108395667D01*
X81126418Y-108395677D01*
X81099500Y-108531004D01*
X81099500Y-108590108D01*
X81079815Y-108657147D01*
X81027011Y-108702902D01*
X80957853Y-108712846D01*
X80894297Y-108683821D01*
X80874370Y-108661863D01*
X80718297Y-108441899D01*
X80710899Y-108430125D01*
X80651372Y-108322419D01*
X80571198Y-108177355D01*
X80565172Y-108164841D01*
X80454653Y-107898024D01*
X80450060Y-107884899D01*
X80370109Y-107607384D01*
X80367015Y-107593827D01*
X80353965Y-107517020D01*
X80318638Y-107309103D01*
X80317084Y-107295306D01*
X80300695Y-107003472D01*
X80300500Y-106996519D01*
X80300500Y-105627525D01*
X96649500Y-105627525D01*
X96649500Y-105772475D01*
X96676592Y-105873581D01*
X96687017Y-105912488D01*
X96759488Y-106038011D01*
X96759490Y-106038013D01*
X96759491Y-106038015D01*
X96861985Y-106140509D01*
X96861986Y-106140510D01*
X96861988Y-106140511D01*
X96987511Y-106212982D01*
X96987512Y-106212982D01*
X96987515Y-106212984D01*
X97127525Y-106250500D01*
X97127528Y-106250500D01*
X97272472Y-106250500D01*
X97272475Y-106250500D01*
X97412485Y-106212984D01*
X97538015Y-106140509D01*
X97640509Y-106038015D01*
X97712984Y-105912485D01*
X97750500Y-105772475D01*
X97750500Y-105627525D01*
X97712984Y-105487515D01*
X97704937Y-105473578D01*
X97640511Y-105361988D01*
X97640506Y-105361982D01*
X97538017Y-105259493D01*
X97538011Y-105259488D01*
X97412488Y-105187017D01*
X97412489Y-105187017D01*
X97401006Y-105183940D01*
X97272475Y-105149500D01*
X97127525Y-105149500D01*
X96998993Y-105183940D01*
X96987511Y-105187017D01*
X96861988Y-105259488D01*
X96861982Y-105259493D01*
X96759493Y-105361982D01*
X96759488Y-105361988D01*
X96687017Y-105487511D01*
X96687016Y-105487515D01*
X96649500Y-105627525D01*
X80300500Y-105627525D01*
X80300500Y-102202389D01*
X80320185Y-102135350D01*
X80372989Y-102089595D01*
X80442147Y-102079651D01*
X80493391Y-102099287D01*
X80647144Y-102202022D01*
X80647147Y-102202023D01*
X80828279Y-102277050D01*
X80828287Y-102277052D01*
X81020567Y-102315300D01*
X81478199Y-102315300D01*
X81478199Y-101624800D01*
X81978199Y-101624800D01*
X81978199Y-102315300D01*
X82435830Y-102315300D01*
X82628110Y-102277052D01*
X82628118Y-102277050D01*
X82809250Y-102202023D01*
X82809253Y-102202022D01*
X82972265Y-102093100D01*
X82972269Y-102093097D01*
X83110896Y-101954470D01*
X83110899Y-101954466D01*
X83219821Y-101791454D01*
X83219822Y-101791451D01*
X83294848Y-101610322D01*
X83294851Y-101610312D01*
X83302870Y-101570000D01*
X82501687Y-101570000D01*
X82512251Y-101563901D01*
X82569000Y-101507152D01*
X82609127Y-101437648D01*
X82629899Y-101360128D01*
X82629899Y-101279872D01*
X82609127Y-101202352D01*
X82569000Y-101132848D01*
X82512251Y-101076099D01*
X82501687Y-101070000D01*
X83302870Y-101070000D01*
X83302870Y-101069999D01*
X84356728Y-101069999D01*
X84356729Y-101070000D01*
X85157912Y-101070000D01*
X85147348Y-101076099D01*
X85090599Y-101132848D01*
X85050472Y-101202352D01*
X85029700Y-101279872D01*
X85029700Y-101360128D01*
X85050472Y-101437648D01*
X85090599Y-101507152D01*
X85147348Y-101563901D01*
X85157912Y-101570000D01*
X84356729Y-101570000D01*
X84364747Y-101610312D01*
X84364750Y-101610322D01*
X84439776Y-101791451D01*
X84439777Y-101791454D01*
X84548699Y-101954466D01*
X84548702Y-101954470D01*
X84687329Y-102093097D01*
X84687333Y-102093100D01*
X84850345Y-102202022D01*
X84850348Y-102202023D01*
X85031480Y-102277050D01*
X85031488Y-102277052D01*
X85223768Y-102315300D01*
X85281970Y-102315300D01*
X85349009Y-102334985D01*
X85394764Y-102387789D01*
X85404708Y-102456947D01*
X85375683Y-102520503D01*
X85329423Y-102553861D01*
X85268191Y-102579223D01*
X85268182Y-102579228D01*
X85153458Y-102655885D01*
X85153454Y-102655888D01*
X85055888Y-102753454D01*
X85055885Y-102753458D01*
X84979228Y-102868182D01*
X84979221Y-102868195D01*
X84926421Y-102995667D01*
X84926418Y-102995677D01*
X84899500Y-103131004D01*
X84899500Y-103131007D01*
X84899500Y-103268993D01*
X84899500Y-103268995D01*
X84899499Y-103268995D01*
X84926418Y-103404322D01*
X84926421Y-103404332D01*
X84979221Y-103531804D01*
X84979228Y-103531817D01*
X85055885Y-103646541D01*
X85055888Y-103646545D01*
X85153454Y-103744111D01*
X85153458Y-103744114D01*
X85268182Y-103820771D01*
X85268195Y-103820778D01*
X85395667Y-103873578D01*
X85395672Y-103873580D01*
X85395676Y-103873580D01*
X85395677Y-103873581D01*
X85531004Y-103900500D01*
X85531007Y-103900500D01*
X85668995Y-103900500D01*
X85760041Y-103882389D01*
X85804328Y-103873580D01*
X85931811Y-103820775D01*
X86046542Y-103744114D01*
X86144114Y-103646542D01*
X86220775Y-103531811D01*
X86273580Y-103404328D01*
X86300500Y-103268995D01*
X93799499Y-103268995D01*
X93826418Y-103404322D01*
X93826421Y-103404332D01*
X93879221Y-103531804D01*
X93879228Y-103531817D01*
X93955885Y-103646541D01*
X93955888Y-103646545D01*
X94053454Y-103744111D01*
X94053458Y-103744114D01*
X94168182Y-103820771D01*
X94168195Y-103820778D01*
X94295667Y-103873578D01*
X94295672Y-103873580D01*
X94295676Y-103873580D01*
X94295677Y-103873581D01*
X94431004Y-103900500D01*
X94431007Y-103900500D01*
X94568995Y-103900500D01*
X94660041Y-103882389D01*
X94704328Y-103873580D01*
X94815515Y-103827525D01*
X96649500Y-103827525D01*
X96649500Y-103972475D01*
X96687016Y-104112485D01*
X96687017Y-104112488D01*
X96759488Y-104238011D01*
X96759490Y-104238013D01*
X96759491Y-104238015D01*
X96861985Y-104340509D01*
X96861986Y-104340510D01*
X96861988Y-104340511D01*
X96987511Y-104412982D01*
X96987512Y-104412982D01*
X96987515Y-104412984D01*
X97127525Y-104450500D01*
X97127528Y-104450500D01*
X97272472Y-104450500D01*
X97272475Y-104450500D01*
X97412485Y-104412984D01*
X97538015Y-104340509D01*
X97640509Y-104238015D01*
X97712984Y-104112485D01*
X97750500Y-103972475D01*
X97750500Y-103968995D01*
X98899499Y-103968995D01*
X98926418Y-104104322D01*
X98926421Y-104104332D01*
X98979221Y-104231804D01*
X98979228Y-104231817D01*
X99055885Y-104346541D01*
X99055888Y-104346545D01*
X99153454Y-104444111D01*
X99153458Y-104444114D01*
X99268182Y-104520771D01*
X99268195Y-104520778D01*
X99391949Y-104572038D01*
X99395672Y-104573580D01*
X99395676Y-104573580D01*
X99395677Y-104573581D01*
X99531004Y-104600500D01*
X99531007Y-104600500D01*
X99668995Y-104600500D01*
X99775949Y-104579225D01*
X99804328Y-104573580D01*
X99931811Y-104520775D01*
X100046542Y-104444114D01*
X100144114Y-104346542D01*
X100220775Y-104231811D01*
X100273580Y-104104328D01*
X100296221Y-103990506D01*
X100300500Y-103968995D01*
X101499499Y-103968995D01*
X101526418Y-104104322D01*
X101526421Y-104104332D01*
X101579221Y-104231804D01*
X101579228Y-104231817D01*
X101655885Y-104346541D01*
X101655888Y-104346545D01*
X101753454Y-104444111D01*
X101753458Y-104444114D01*
X101757624Y-104446898D01*
X101802429Y-104500510D01*
X101811136Y-104569835D01*
X101780981Y-104632863D01*
X101757624Y-104653102D01*
X101753458Y-104655885D01*
X101753454Y-104655888D01*
X101655888Y-104753454D01*
X101655885Y-104753458D01*
X101579228Y-104868182D01*
X101579221Y-104868195D01*
X101526421Y-104995667D01*
X101526418Y-104995677D01*
X101499500Y-105131004D01*
X101499500Y-105131007D01*
X101499500Y-105268993D01*
X101499500Y-105268995D01*
X101499499Y-105268995D01*
X101526418Y-105404322D01*
X101526421Y-105404332D01*
X101579221Y-105531804D01*
X101579228Y-105531817D01*
X101655885Y-105646541D01*
X101655888Y-105646545D01*
X101753454Y-105744111D01*
X101753458Y-105744114D01*
X101868182Y-105820771D01*
X101868195Y-105820778D01*
X101995667Y-105873578D01*
X101995672Y-105873580D01*
X101995676Y-105873580D01*
X101995677Y-105873581D01*
X102131004Y-105900500D01*
X102131007Y-105900500D01*
X102268995Y-105900500D01*
X102360041Y-105882389D01*
X102404328Y-105873580D01*
X102531811Y-105820775D01*
X102646542Y-105744114D01*
X102744114Y-105646542D01*
X102820775Y-105531811D01*
X102873580Y-105404328D01*
X102900500Y-105268993D01*
X102900500Y-105131007D01*
X102900500Y-105131004D01*
X102873581Y-104995677D01*
X102873580Y-104995676D01*
X102873580Y-104995672D01*
X102821109Y-104868995D01*
X126499499Y-104868995D01*
X126526418Y-105004322D01*
X126526421Y-105004332D01*
X126579221Y-105131804D01*
X126579228Y-105131817D01*
X126655885Y-105246541D01*
X126655888Y-105246545D01*
X126753454Y-105344111D01*
X126753458Y-105344114D01*
X126868182Y-105420771D01*
X126868195Y-105420778D01*
X126995667Y-105473578D01*
X126995672Y-105473580D01*
X126995676Y-105473580D01*
X126995677Y-105473581D01*
X127131004Y-105500500D01*
X127131007Y-105500500D01*
X127268995Y-105500500D01*
X127360041Y-105482389D01*
X127404328Y-105473580D01*
X127531811Y-105420775D01*
X127646542Y-105344114D01*
X127744114Y-105246542D01*
X127820775Y-105131811D01*
X127873580Y-105004328D01*
X127900500Y-104868993D01*
X127900500Y-104731007D01*
X127900500Y-104731004D01*
X127873581Y-104595677D01*
X127873580Y-104595676D01*
X127873580Y-104595672D01*
X127869181Y-104585052D01*
X127820778Y-104468195D01*
X127820771Y-104468182D01*
X127744114Y-104353458D01*
X127744111Y-104353454D01*
X127646545Y-104255888D01*
X127646541Y-104255885D01*
X127531817Y-104179228D01*
X127531804Y-104179221D01*
X127404332Y-104126421D01*
X127404322Y-104126418D01*
X127268995Y-104099500D01*
X127268993Y-104099500D01*
X127131007Y-104099500D01*
X127131005Y-104099500D01*
X126995677Y-104126418D01*
X126995667Y-104126421D01*
X126868195Y-104179221D01*
X126868182Y-104179228D01*
X126753458Y-104255885D01*
X126753454Y-104255888D01*
X126655888Y-104353454D01*
X126655885Y-104353458D01*
X126579228Y-104468182D01*
X126579221Y-104468195D01*
X126526421Y-104595667D01*
X126526418Y-104595677D01*
X126499500Y-104731004D01*
X126499500Y-104731007D01*
X126499500Y-104868993D01*
X126499500Y-104868995D01*
X126499499Y-104868995D01*
X102821109Y-104868995D01*
X102820778Y-104868195D01*
X102820771Y-104868182D01*
X102776626Y-104802115D01*
X102776624Y-104802113D01*
X102744114Y-104753458D01*
X102646542Y-104655886D01*
X102630367Y-104645078D01*
X102620526Y-104634512D01*
X102611088Y-104615666D01*
X102597572Y-104599495D01*
X102595757Y-104585052D01*
X102589240Y-104572038D01*
X102591489Y-104551081D01*
X102588862Y-104530171D01*
X102595142Y-104517041D01*
X102596696Y-104502568D01*
X102609918Y-104486154D01*
X102619013Y-104467142D01*
X102639611Y-104449294D01*
X102640528Y-104448156D01*
X102641172Y-104447941D01*
X102642380Y-104446895D01*
X102642577Y-104446762D01*
X102646542Y-104444114D01*
X102744114Y-104346542D01*
X102820775Y-104231811D01*
X102873580Y-104104328D01*
X102896221Y-103990506D01*
X102900500Y-103968995D01*
X102900500Y-103831004D01*
X102873581Y-103695677D01*
X102873580Y-103695676D01*
X102873580Y-103695672D01*
X102873578Y-103695667D01*
X102820778Y-103568195D01*
X102820771Y-103568182D01*
X102800797Y-103538289D01*
X102760195Y-103477525D01*
X106349500Y-103477525D01*
X106349500Y-103622475D01*
X106387016Y-103762485D01*
X106387017Y-103762488D01*
X106459488Y-103888011D01*
X106459490Y-103888013D01*
X106459491Y-103888015D01*
X106561985Y-103990509D01*
X106561986Y-103990510D01*
X106561988Y-103990511D01*
X106687511Y-104062982D01*
X106687512Y-104062982D01*
X106687515Y-104062984D01*
X106827525Y-104100500D01*
X106827528Y-104100500D01*
X106972472Y-104100500D01*
X106972475Y-104100500D01*
X107112485Y-104062984D01*
X107238015Y-103990509D01*
X107340509Y-103888015D01*
X107412984Y-103762485D01*
X107450500Y-103622475D01*
X107450500Y-103477525D01*
X107412984Y-103337515D01*
X107340509Y-103211985D01*
X107238015Y-103109491D01*
X107238013Y-103109490D01*
X107238011Y-103109488D01*
X107112488Y-103037017D01*
X107112489Y-103037017D01*
X107101006Y-103033940D01*
X106972475Y-102999500D01*
X106827525Y-102999500D01*
X106698993Y-103033940D01*
X106687511Y-103037017D01*
X106561988Y-103109488D01*
X106561982Y-103109493D01*
X106459493Y-103211982D01*
X106459488Y-103211988D01*
X106387017Y-103337511D01*
X106387016Y-103337515D01*
X106349500Y-103477525D01*
X102760195Y-103477525D01*
X102744114Y-103453458D01*
X102744111Y-103453454D01*
X102646545Y-103355888D01*
X102646541Y-103355885D01*
X102531817Y-103279228D01*
X102531804Y-103279221D01*
X102404332Y-103226421D01*
X102404322Y-103226418D01*
X102268995Y-103199500D01*
X102268993Y-103199500D01*
X102131007Y-103199500D01*
X102131005Y-103199500D01*
X101995677Y-103226418D01*
X101995667Y-103226421D01*
X101868195Y-103279221D01*
X101868182Y-103279228D01*
X101753458Y-103355885D01*
X101753454Y-103355888D01*
X101655888Y-103453454D01*
X101655885Y-103453458D01*
X101579228Y-103568182D01*
X101579221Y-103568195D01*
X101526421Y-103695667D01*
X101526418Y-103695677D01*
X101499500Y-103831004D01*
X101499500Y-103831007D01*
X101499500Y-103968993D01*
X101499500Y-103968995D01*
X101499499Y-103968995D01*
X100300500Y-103968995D01*
X100300500Y-103836539D01*
X100300500Y-103831007D01*
X100279064Y-103723245D01*
X100278943Y-103722602D01*
X100282326Y-103688399D01*
X100285391Y-103654150D01*
X100285771Y-103653568D01*
X100285821Y-103653072D01*
X100287423Y-103651047D01*
X100313098Y-103611871D01*
X102338152Y-101586819D01*
X102399475Y-101553334D01*
X102425833Y-101550500D01*
X102472472Y-101550500D01*
X102472475Y-101550500D01*
X102612485Y-101512984D01*
X102738015Y-101440509D01*
X102840509Y-101338015D01*
X102912984Y-101212485D01*
X102950500Y-101072475D01*
X102950500Y-100927525D01*
X102912984Y-100787515D01*
X102884406Y-100738017D01*
X102840511Y-100661988D01*
X102840510Y-100661987D01*
X102840509Y-100661985D01*
X102738015Y-100559491D01*
X102738014Y-100559490D01*
X102736818Y-100558294D01*
X102722111Y-100531360D01*
X102705523Y-100505548D01*
X102704631Y-100499347D01*
X102703334Y-100496971D01*
X102700500Y-100470613D01*
X102700500Y-100327525D01*
X108000503Y-100327525D01*
X108000503Y-100472475D01*
X108024382Y-100561590D01*
X108038020Y-100612488D01*
X108110491Y-100738011D01*
X108110493Y-100738013D01*
X108110494Y-100738015D01*
X108212988Y-100840509D01*
X108212989Y-100840510D01*
X108212991Y-100840511D01*
X108338514Y-100912982D01*
X108338515Y-100912982D01*
X108338518Y-100912984D01*
X108478528Y-100950500D01*
X108478531Y-100950500D01*
X108623475Y-100950500D01*
X108623478Y-100950500D01*
X108763488Y-100912984D01*
X108889018Y-100840509D01*
X108991512Y-100738015D01*
X109063987Y-100612485D01*
X109086752Y-100527525D01*
X113449500Y-100527525D01*
X113449500Y-100672475D01*
X113487016Y-100812485D01*
X113487017Y-100812488D01*
X113559488Y-100938011D01*
X113559490Y-100938013D01*
X113559491Y-100938015D01*
X113661985Y-101040509D01*
X113661986Y-101040510D01*
X113661988Y-101040511D01*
X113787511Y-101112982D01*
X113787512Y-101112982D01*
X113787515Y-101112984D01*
X113927525Y-101150500D01*
X113927528Y-101150500D01*
X114072472Y-101150500D01*
X114072475Y-101150500D01*
X114212485Y-101112984D01*
X114338015Y-101040509D01*
X114440509Y-100938015D01*
X114512984Y-100812485D01*
X114550500Y-100672475D01*
X114550500Y-100527525D01*
X114512984Y-100387515D01*
X114491613Y-100350500D01*
X114440511Y-100261988D01*
X114440506Y-100261982D01*
X114338017Y-100159493D01*
X114338011Y-100159488D01*
X114212488Y-100087017D01*
X114212489Y-100087017D01*
X114201006Y-100083940D01*
X114072475Y-100049500D01*
X113927525Y-100049500D01*
X113798993Y-100083940D01*
X113787511Y-100087017D01*
X113661988Y-100159488D01*
X113661982Y-100159493D01*
X113559493Y-100261982D01*
X113559488Y-100261988D01*
X113487017Y-100387511D01*
X113487016Y-100387515D01*
X113449500Y-100527525D01*
X109086752Y-100527525D01*
X109101503Y-100472475D01*
X109101503Y-100327525D01*
X109063987Y-100187515D01*
X109047808Y-100159493D01*
X108991514Y-100061988D01*
X108991509Y-100061982D01*
X108889020Y-99959493D01*
X108889014Y-99959488D01*
X108763491Y-99887017D01*
X108763492Y-99887017D01*
X108752009Y-99883940D01*
X108623478Y-99849500D01*
X108478528Y-99849500D01*
X108349996Y-99883940D01*
X108338514Y-99887017D01*
X108212991Y-99959488D01*
X108212985Y-99959493D01*
X108110496Y-100061982D01*
X108110491Y-100061988D01*
X108038020Y-100187511D01*
X108038019Y-100187515D01*
X108000503Y-100327525D01*
X102700500Y-100327525D01*
X102700500Y-99434108D01*
X124099500Y-99434108D01*
X124099500Y-99565891D01*
X124133608Y-99693187D01*
X124153435Y-99727527D01*
X124199500Y-99807314D01*
X124292686Y-99900500D01*
X124406814Y-99966392D01*
X124534108Y-100000500D01*
X124534110Y-100000500D01*
X124665890Y-100000500D01*
X124665892Y-100000500D01*
X124793186Y-99966392D01*
X124907314Y-99900500D01*
X125000500Y-99807314D01*
X125066392Y-99693186D01*
X125100500Y-99565892D01*
X125100500Y-99434108D01*
X125066392Y-99306814D01*
X125066305Y-99306664D01*
X125046334Y-99272073D01*
X125000500Y-99192686D01*
X124907314Y-99099500D01*
X124850250Y-99066554D01*
X124793187Y-99033608D01*
X124729539Y-99016554D01*
X124665892Y-98999500D01*
X124534108Y-98999500D01*
X124406812Y-99033608D01*
X124292686Y-99099500D01*
X124292683Y-99099502D01*
X124199502Y-99192683D01*
X124199500Y-99192686D01*
X124133608Y-99306812D01*
X124099500Y-99434108D01*
X102700500Y-99434108D01*
X102700500Y-95598995D01*
X109044500Y-95598995D01*
X109044500Y-98401005D01*
X109047029Y-98433138D01*
X109051881Y-98463777D01*
X109052646Y-98468282D01*
X109052647Y-98468285D01*
X109052648Y-98468287D01*
X109088592Y-98552383D01*
X109124062Y-98601203D01*
X109124557Y-98601884D01*
X109148797Y-98629628D01*
X109201985Y-98661407D01*
X109227307Y-98676536D01*
X109285498Y-98695443D01*
X109314268Y-98699999D01*
X109348996Y-98705500D01*
X109349000Y-98705500D01*
X112400994Y-98705500D01*
X112401000Y-98705500D01*
X112433144Y-98702970D01*
X112463737Y-98698125D01*
X112466371Y-98697677D01*
X112468282Y-98697353D01*
X112468282Y-98697352D01*
X112468287Y-98697352D01*
X112552383Y-98661408D01*
X112601883Y-98625444D01*
X112629628Y-98601203D01*
X112676536Y-98522693D01*
X112695443Y-98464502D01*
X112701599Y-98425629D01*
X112705500Y-98401004D01*
X112705500Y-95886482D01*
X112725185Y-95819443D01*
X112741819Y-95798801D01*
X113548801Y-94991819D01*
X113610124Y-94958334D01*
X113636482Y-94955500D01*
X116363518Y-94955500D01*
X116430557Y-94975185D01*
X116451199Y-94991819D01*
X117258181Y-95798801D01*
X117291666Y-95860124D01*
X117294500Y-95886482D01*
X117294500Y-98401005D01*
X117297029Y-98433138D01*
X117301881Y-98463777D01*
X117302646Y-98468282D01*
X117302647Y-98468285D01*
X117302648Y-98468287D01*
X117338592Y-98552383D01*
X117374062Y-98601203D01*
X117374557Y-98601884D01*
X117398797Y-98629628D01*
X117451985Y-98661407D01*
X117477307Y-98676536D01*
X117535498Y-98695443D01*
X117564268Y-98699999D01*
X117598996Y-98705500D01*
X117599000Y-98705500D01*
X120650994Y-98705500D01*
X120651000Y-98705500D01*
X120683144Y-98702970D01*
X120713737Y-98698125D01*
X120716371Y-98697677D01*
X120718282Y-98697353D01*
X120718282Y-98697352D01*
X120718287Y-98697352D01*
X120802383Y-98661408D01*
X120851883Y-98625444D01*
X120879628Y-98601203D01*
X120926536Y-98522693D01*
X120945443Y-98464502D01*
X120951599Y-98425629D01*
X120955500Y-98401004D01*
X120955500Y-96110378D01*
X123201572Y-96110378D01*
X123201572Y-96242161D01*
X123235680Y-96369457D01*
X123268626Y-96426520D01*
X123301572Y-96483584D01*
X123301574Y-96483586D01*
X123306429Y-96488441D01*
X123339914Y-96549764D01*
X123334930Y-96619456D01*
X123306433Y-96663799D01*
X123301575Y-96668657D01*
X123301573Y-96668659D01*
X123301572Y-96668661D01*
X123265684Y-96730819D01*
X123235680Y-96782788D01*
X123201572Y-96910083D01*
X123201572Y-97041866D01*
X123235680Y-97169162D01*
X123245989Y-97187017D01*
X123301572Y-97283289D01*
X123301574Y-97283291D01*
X123306577Y-97288294D01*
X123340062Y-97349617D01*
X123335078Y-97419309D01*
X123306577Y-97463656D01*
X123301574Y-97468658D01*
X123301572Y-97468661D01*
X123235680Y-97582787D01*
X123201572Y-97710083D01*
X123201572Y-97841866D01*
X123235680Y-97969162D01*
X123268626Y-98026225D01*
X123301572Y-98083289D01*
X123394758Y-98176475D01*
X123493593Y-98233538D01*
X123504978Y-98240111D01*
X123508886Y-98242367D01*
X123636180Y-98276475D01*
X123636182Y-98276475D01*
X123767962Y-98276475D01*
X123767964Y-98276475D01*
X123895258Y-98242367D01*
X124009386Y-98176475D01*
X124102572Y-98083289D01*
X124168464Y-97969161D01*
X124202572Y-97841867D01*
X124202572Y-97710083D01*
X124168464Y-97582789D01*
X124102572Y-97468661D01*
X124097567Y-97463656D01*
X124064082Y-97402333D01*
X124069066Y-97332641D01*
X124097567Y-97288294D01*
X124102572Y-97283289D01*
X124168464Y-97169161D01*
X124202572Y-97041867D01*
X124202572Y-96910083D01*
X124168464Y-96782789D01*
X124102572Y-96668661D01*
X124097714Y-96663803D01*
X124064229Y-96602480D01*
X124069213Y-96532788D01*
X124097718Y-96488437D01*
X124102572Y-96483584D01*
X124168464Y-96369456D01*
X124202572Y-96242162D01*
X124202572Y-96110378D01*
X124168464Y-95983084D01*
X124102572Y-95868956D01*
X124009386Y-95775770D01*
X123952322Y-95742824D01*
X123895259Y-95709878D01*
X123831611Y-95692824D01*
X123767964Y-95675770D01*
X123636180Y-95675770D01*
X123508884Y-95709878D01*
X123394758Y-95775770D01*
X123394755Y-95775772D01*
X123301574Y-95868953D01*
X123301572Y-95868956D01*
X123235680Y-95983082D01*
X123201572Y-96110378D01*
X120955500Y-96110378D01*
X120955500Y-95599006D01*
X120955500Y-95599000D01*
X120952970Y-95566856D01*
X120948125Y-95536263D01*
X120947352Y-95531713D01*
X120911408Y-95447617D01*
X120875444Y-95398117D01*
X120851203Y-95370372D01*
X120851202Y-95370371D01*
X120772694Y-95323464D01*
X120714504Y-95304557D01*
X120651004Y-95294500D01*
X120651000Y-95294500D01*
X119386482Y-95294500D01*
X119319443Y-95274815D01*
X119298801Y-95258181D01*
X117774728Y-93734108D01*
X122699500Y-93734108D01*
X122699500Y-93865892D01*
X122703861Y-93882168D01*
X122733608Y-93993187D01*
X122755374Y-94030886D01*
X122799500Y-94107314D01*
X122892686Y-94200500D01*
X123006814Y-94266392D01*
X123134108Y-94300500D01*
X123134110Y-94300500D01*
X123265890Y-94300500D01*
X123265892Y-94300500D01*
X123393186Y-94266392D01*
X123507314Y-94200500D01*
X123600500Y-94107314D01*
X123666392Y-93993186D01*
X123700500Y-93865892D01*
X123700500Y-93734108D01*
X123666392Y-93606814D01*
X123600500Y-93492686D01*
X123507314Y-93399500D01*
X123444992Y-93363518D01*
X123393187Y-93333608D01*
X123321746Y-93314466D01*
X123265892Y-93299500D01*
X123134108Y-93299500D01*
X123006812Y-93333608D01*
X122892686Y-93399500D01*
X122892683Y-93399502D01*
X122799502Y-93492683D01*
X122799500Y-93492686D01*
X122733608Y-93606812D01*
X122715257Y-93675300D01*
X122699500Y-93734108D01*
X117774728Y-93734108D01*
X117491819Y-93451199D01*
X117458334Y-93389876D01*
X117455500Y-93363518D01*
X117455500Y-91327525D01*
X120449500Y-91327525D01*
X120449500Y-91472475D01*
X120477649Y-91577527D01*
X120487017Y-91612488D01*
X120559488Y-91738011D01*
X120559490Y-91738013D01*
X120559491Y-91738015D01*
X120661985Y-91840509D01*
X120661986Y-91840510D01*
X120661988Y-91840511D01*
X120787511Y-91912982D01*
X120787512Y-91912982D01*
X120787515Y-91912984D01*
X120927525Y-91950500D01*
X120927528Y-91950500D01*
X121072472Y-91950500D01*
X121072475Y-91950500D01*
X121212485Y-91912984D01*
X121338015Y-91840509D01*
X121440509Y-91738015D01*
X121512984Y-91612485D01*
X121550500Y-91472475D01*
X121550500Y-91327525D01*
X121512984Y-91187515D01*
X121509974Y-91182302D01*
X121440511Y-91061988D01*
X121440506Y-91061982D01*
X121338017Y-90959493D01*
X121338011Y-90959488D01*
X121212488Y-90887017D01*
X121212489Y-90887017D01*
X121201006Y-90883940D01*
X121072475Y-90849500D01*
X120927525Y-90849500D01*
X120798993Y-90883940D01*
X120787511Y-90887017D01*
X120661988Y-90959488D01*
X120661982Y-90959493D01*
X120559493Y-91061982D01*
X120559488Y-91061988D01*
X120487017Y-91187511D01*
X120487016Y-91187515D01*
X120449500Y-91327525D01*
X117455500Y-91327525D01*
X117455500Y-89877525D01*
X120449500Y-89877525D01*
X120449500Y-90022475D01*
X120486213Y-90159488D01*
X120487017Y-90162488D01*
X120559488Y-90288011D01*
X120559490Y-90288013D01*
X120559491Y-90288015D01*
X120661985Y-90390509D01*
X120661986Y-90390510D01*
X120661988Y-90390511D01*
X120787511Y-90462982D01*
X120787512Y-90462982D01*
X120787515Y-90462984D01*
X120927525Y-90500500D01*
X120927528Y-90500500D01*
X121072472Y-90500500D01*
X121072475Y-90500500D01*
X121212485Y-90462984D01*
X121338015Y-90390509D01*
X121440509Y-90288015D01*
X121512984Y-90162485D01*
X121550500Y-90022475D01*
X121550500Y-89927525D01*
X121849500Y-89927525D01*
X121849500Y-90072475D01*
X121887016Y-90212485D01*
X121887017Y-90212488D01*
X121959488Y-90338011D01*
X121959490Y-90338013D01*
X121959491Y-90338015D01*
X122061985Y-90440509D01*
X122061986Y-90440510D01*
X122061988Y-90440511D01*
X122187511Y-90512982D01*
X122187512Y-90512982D01*
X122187515Y-90512984D01*
X122327525Y-90550500D01*
X122327528Y-90550500D01*
X122472472Y-90550500D01*
X122472475Y-90550500D01*
X122612485Y-90512984D01*
X122738015Y-90440509D01*
X122840509Y-90338015D01*
X122912984Y-90212485D01*
X122950500Y-90072475D01*
X122950500Y-89927525D01*
X122912984Y-89787515D01*
X122884116Y-89737515D01*
X122844556Y-89668995D01*
X125699499Y-89668995D01*
X125726418Y-89804322D01*
X125726421Y-89804332D01*
X125779221Y-89931804D01*
X125779228Y-89931817D01*
X125855885Y-90046541D01*
X125855888Y-90046545D01*
X125953454Y-90144111D01*
X125953458Y-90144114D01*
X126068182Y-90220771D01*
X126068195Y-90220778D01*
X126167679Y-90261985D01*
X126195672Y-90273580D01*
X126195676Y-90273580D01*
X126195677Y-90273581D01*
X126331004Y-90300500D01*
X126331007Y-90300500D01*
X126468995Y-90300500D01*
X126560041Y-90282389D01*
X126604328Y-90273580D01*
X126731811Y-90220775D01*
X126846542Y-90144114D01*
X126944114Y-90046542D01*
X127020775Y-89931811D01*
X127022550Y-89927527D01*
X127043261Y-89877525D01*
X127073580Y-89804328D01*
X127086871Y-89737511D01*
X127100500Y-89668995D01*
X127100500Y-89531004D01*
X127073581Y-89395677D01*
X127073580Y-89395676D01*
X127073580Y-89395672D01*
X127073578Y-89395667D01*
X127020778Y-89268195D01*
X127020771Y-89268182D01*
X126944114Y-89153458D01*
X126944111Y-89153454D01*
X126846545Y-89055888D01*
X126846541Y-89055885D01*
X126731817Y-88979228D01*
X126731804Y-88979221D01*
X126604332Y-88926421D01*
X126604322Y-88926418D01*
X126468995Y-88899500D01*
X126468993Y-88899500D01*
X126331007Y-88899500D01*
X126331005Y-88899500D01*
X126195677Y-88926418D01*
X126195667Y-88926421D01*
X126068195Y-88979221D01*
X126068182Y-88979228D01*
X125953458Y-89055885D01*
X125953454Y-89055888D01*
X125855888Y-89153454D01*
X125855885Y-89153458D01*
X125779228Y-89268182D01*
X125779221Y-89268195D01*
X125726421Y-89395667D01*
X125726418Y-89395677D01*
X125699500Y-89531004D01*
X125699500Y-89531007D01*
X125699500Y-89668993D01*
X125699500Y-89668995D01*
X125699499Y-89668995D01*
X122844556Y-89668995D01*
X122840511Y-89661988D01*
X122840506Y-89661982D01*
X122738017Y-89559493D01*
X122738011Y-89559488D01*
X122612488Y-89487017D01*
X122612489Y-89487017D01*
X122601006Y-89483940D01*
X122472475Y-89449500D01*
X122327525Y-89449500D01*
X122198993Y-89483940D01*
X122187511Y-89487017D01*
X122061988Y-89559488D01*
X122061982Y-89559493D01*
X121959493Y-89661982D01*
X121959488Y-89661988D01*
X121887017Y-89787511D01*
X121887016Y-89787515D01*
X121849500Y-89927525D01*
X121550500Y-89927525D01*
X121550500Y-89877525D01*
X121512984Y-89737515D01*
X121478451Y-89677703D01*
X121440511Y-89611988D01*
X121440506Y-89611982D01*
X121338017Y-89509493D01*
X121338011Y-89509488D01*
X121212488Y-89437017D01*
X121212489Y-89437017D01*
X121201006Y-89433940D01*
X121072475Y-89399500D01*
X120927525Y-89399500D01*
X120798993Y-89433940D01*
X120787511Y-89437017D01*
X120661988Y-89509488D01*
X120661982Y-89509493D01*
X120559493Y-89611982D01*
X120559488Y-89611988D01*
X120487017Y-89737511D01*
X120487016Y-89737515D01*
X120449500Y-89877525D01*
X117455500Y-89877525D01*
X117455500Y-87849006D01*
X117455500Y-87849000D01*
X117452970Y-87816856D01*
X117448125Y-87786263D01*
X117447352Y-87781713D01*
X117411408Y-87697617D01*
X117375444Y-87648117D01*
X117351203Y-87620372D01*
X117351202Y-87620371D01*
X117272694Y-87573464D01*
X117214504Y-87554557D01*
X117151004Y-87544500D01*
X117151000Y-87544500D01*
X115349000Y-87544500D01*
X115348994Y-87544500D01*
X115316861Y-87547029D01*
X115286222Y-87551881D01*
X115281717Y-87552646D01*
X115281714Y-87552647D01*
X115197617Y-87588592D01*
X115148115Y-87624557D01*
X115120371Y-87648797D01*
X115073464Y-87727305D01*
X115054557Y-87785494D01*
X115054557Y-87785497D01*
X115044500Y-87848995D01*
X115044500Y-92920500D01*
X115024815Y-92987539D01*
X114972011Y-93033294D01*
X114920500Y-93044500D01*
X113040998Y-93044500D01*
X113024898Y-93045132D01*
X113009398Y-93046352D01*
X112932224Y-93068117D01*
X112877714Y-93095891D01*
X112877704Y-93095897D01*
X112825694Y-93133685D01*
X112825691Y-93133688D01*
X110701199Y-95258181D01*
X110639876Y-95291666D01*
X110613518Y-95294500D01*
X109348994Y-95294500D01*
X109316861Y-95297029D01*
X109286222Y-95301881D01*
X109281717Y-95302646D01*
X109281714Y-95302647D01*
X109197617Y-95338592D01*
X109148115Y-95374557D01*
X109120371Y-95398797D01*
X109073464Y-95477305D01*
X109054557Y-95535494D01*
X109054557Y-95535497D01*
X109044500Y-95598995D01*
X102700500Y-95598995D01*
X102700500Y-94242505D01*
X102720185Y-94175466D01*
X102736815Y-94154828D01*
X103227824Y-93663818D01*
X103289147Y-93630334D01*
X103315505Y-93627500D01*
X103462145Y-93627500D01*
X103462148Y-93627500D01*
X103602158Y-93589984D01*
X103727688Y-93517509D01*
X103830182Y-93415015D01*
X103902657Y-93289485D01*
X103940173Y-93149475D01*
X103940173Y-93004525D01*
X103902657Y-92864515D01*
X103830182Y-92738985D01*
X103727688Y-92636491D01*
X103727686Y-92636490D01*
X103727684Y-92636488D01*
X103602161Y-92564017D01*
X103602162Y-92564017D01*
X103590679Y-92560940D01*
X103462148Y-92526500D01*
X103317198Y-92526500D01*
X103188666Y-92560940D01*
X103177184Y-92564017D01*
X103051661Y-92636488D01*
X103051655Y-92636493D01*
X102949166Y-92738982D01*
X102949161Y-92738988D01*
X102876690Y-92864511D01*
X102876689Y-92864515D01*
X102839173Y-93004525D01*
X102839173Y-93004527D01*
X102839173Y-93151166D01*
X102819488Y-93218205D01*
X102802854Y-93238847D01*
X102215489Y-93826213D01*
X102159541Y-93882160D01*
X102159535Y-93882168D01*
X102119982Y-93950677D01*
X102119979Y-93950682D01*
X102099500Y-94027112D01*
X102099500Y-100470613D01*
X102079815Y-100537652D01*
X102063182Y-100558294D01*
X101959488Y-100661988D01*
X101887017Y-100787511D01*
X101887016Y-100787515D01*
X101849500Y-100927525D01*
X101849500Y-101072475D01*
X101860354Y-101112984D01*
X101863315Y-101124032D01*
X101861652Y-101193881D01*
X101831221Y-101243806D01*
X99888128Y-103186899D01*
X99826805Y-103220384D01*
X99776256Y-103220835D01*
X99668997Y-103199500D01*
X99668993Y-103199500D01*
X99531007Y-103199500D01*
X99531005Y-103199500D01*
X99395677Y-103226418D01*
X99395667Y-103226421D01*
X99268195Y-103279221D01*
X99268182Y-103279228D01*
X99153458Y-103355885D01*
X99153454Y-103355888D01*
X99055888Y-103453454D01*
X99055885Y-103453458D01*
X98979228Y-103568182D01*
X98979221Y-103568195D01*
X98926421Y-103695667D01*
X98926418Y-103695677D01*
X98899500Y-103831004D01*
X98899500Y-103831007D01*
X98899500Y-103968993D01*
X98899500Y-103968995D01*
X98899499Y-103968995D01*
X97750500Y-103968995D01*
X97750500Y-103827525D01*
X97712984Y-103687515D01*
X97699615Y-103664360D01*
X97640511Y-103561988D01*
X97640506Y-103561982D01*
X97538017Y-103459493D01*
X97538011Y-103459488D01*
X97412488Y-103387017D01*
X97412489Y-103387017D01*
X97401006Y-103383940D01*
X97272475Y-103349500D01*
X97127525Y-103349500D01*
X96998993Y-103383940D01*
X96987511Y-103387017D01*
X96861988Y-103459488D01*
X96861982Y-103459493D01*
X96759493Y-103561982D01*
X96759488Y-103561988D01*
X96687017Y-103687511D01*
X96687016Y-103687515D01*
X96649500Y-103827525D01*
X94815515Y-103827525D01*
X94831811Y-103820775D01*
X94946542Y-103744114D01*
X94946545Y-103744111D01*
X94958940Y-103731717D01*
X95044111Y-103646545D01*
X95044114Y-103646542D01*
X95120775Y-103531811D01*
X95173580Y-103404328D01*
X95200500Y-103268993D01*
X95200500Y-103131007D01*
X95200500Y-103131004D01*
X95173581Y-102995677D01*
X95173580Y-102995676D01*
X95173580Y-102995672D01*
X95173578Y-102995667D01*
X95120778Y-102868195D01*
X95120771Y-102868182D01*
X95044114Y-102753458D01*
X95044111Y-102753454D01*
X94946545Y-102655888D01*
X94946541Y-102655885D01*
X94831817Y-102579228D01*
X94831804Y-102579221D01*
X94704332Y-102526421D01*
X94704322Y-102526418D01*
X94568995Y-102499500D01*
X94568993Y-102499500D01*
X94431007Y-102499500D01*
X94431005Y-102499500D01*
X94295677Y-102526418D01*
X94295667Y-102526421D01*
X94168195Y-102579221D01*
X94168182Y-102579228D01*
X94053458Y-102655885D01*
X94053454Y-102655888D01*
X93955888Y-102753454D01*
X93955885Y-102753458D01*
X93879228Y-102868182D01*
X93879221Y-102868195D01*
X93826421Y-102995667D01*
X93826418Y-102995677D01*
X93799500Y-103131004D01*
X93799500Y-103131007D01*
X93799500Y-103268993D01*
X93799500Y-103268995D01*
X93799499Y-103268995D01*
X86300500Y-103268995D01*
X86300500Y-103268993D01*
X86300500Y-103131007D01*
X86300500Y-103131004D01*
X86273581Y-102995677D01*
X86273580Y-102995676D01*
X86273580Y-102995672D01*
X86273578Y-102995667D01*
X86220778Y-102868195D01*
X86220771Y-102868182D01*
X86144114Y-102753458D01*
X86144111Y-102753454D01*
X86046545Y-102655888D01*
X86046541Y-102655885D01*
X85931817Y-102579228D01*
X85931808Y-102579223D01*
X85870577Y-102553861D01*
X85816174Y-102510020D01*
X85794109Y-102443726D01*
X85811388Y-102376027D01*
X85862525Y-102328416D01*
X85918030Y-102315300D01*
X86232631Y-102315300D01*
X86424911Y-102277052D01*
X86424919Y-102277050D01*
X86606051Y-102202023D01*
X86606054Y-102202022D01*
X86769066Y-102093100D01*
X86769070Y-102093097D01*
X86907697Y-101954470D01*
X86907700Y-101954466D01*
X86964810Y-101868995D01*
X90899499Y-101868995D01*
X90926418Y-102004322D01*
X90926421Y-102004332D01*
X90979221Y-102131804D01*
X90979228Y-102131817D01*
X91055885Y-102246541D01*
X91055888Y-102246545D01*
X91153454Y-102344111D01*
X91153458Y-102344114D01*
X91268182Y-102420771D01*
X91268195Y-102420778D01*
X91355516Y-102456947D01*
X91395672Y-102473580D01*
X91395676Y-102473580D01*
X91395677Y-102473581D01*
X91531004Y-102500500D01*
X91531007Y-102500500D01*
X91668995Y-102500500D01*
X91760041Y-102482389D01*
X91804328Y-102473580D01*
X91931811Y-102420775D01*
X92046542Y-102344114D01*
X92144114Y-102246542D01*
X92220775Y-102131811D01*
X92273580Y-102004328D01*
X92300500Y-101868993D01*
X92300500Y-101731007D01*
X92300500Y-101731004D01*
X92273581Y-101595677D01*
X92273580Y-101595676D01*
X92273580Y-101595672D01*
X92269913Y-101586819D01*
X92220778Y-101468195D01*
X92220771Y-101468182D01*
X92144114Y-101353458D01*
X92144111Y-101353454D01*
X92046545Y-101255888D01*
X92046541Y-101255885D01*
X91931817Y-101179228D01*
X91931804Y-101179221D01*
X91804332Y-101126421D01*
X91804322Y-101126418D01*
X91668995Y-101099500D01*
X91668993Y-101099500D01*
X91531007Y-101099500D01*
X91531005Y-101099500D01*
X91395677Y-101126418D01*
X91395667Y-101126421D01*
X91268195Y-101179221D01*
X91268182Y-101179228D01*
X91153458Y-101255885D01*
X91153454Y-101255888D01*
X91055888Y-101353454D01*
X91055885Y-101353458D01*
X90979228Y-101468182D01*
X90979221Y-101468195D01*
X90926421Y-101595667D01*
X90926418Y-101595677D01*
X90899500Y-101731004D01*
X90899500Y-101731007D01*
X90899500Y-101868993D01*
X90899500Y-101868995D01*
X90899499Y-101868995D01*
X86964810Y-101868995D01*
X87016622Y-101791454D01*
X87016623Y-101791451D01*
X87063839Y-101677463D01*
X87063839Y-101677462D01*
X87091650Y-101610318D01*
X87091652Y-101610312D01*
X87099671Y-101570000D01*
X86298488Y-101570000D01*
X86309052Y-101563901D01*
X86365801Y-101507152D01*
X86405928Y-101437648D01*
X86426700Y-101360128D01*
X86426700Y-101279872D01*
X86405928Y-101202352D01*
X86365801Y-101132848D01*
X86309052Y-101076099D01*
X86298488Y-101070000D01*
X87099671Y-101070000D01*
X87099671Y-101069999D01*
X87091652Y-101029687D01*
X87091649Y-101029677D01*
X87016623Y-100848548D01*
X87016622Y-100848545D01*
X86907700Y-100685533D01*
X86907697Y-100685529D01*
X86769070Y-100546902D01*
X86769066Y-100546899D01*
X86606054Y-100437977D01*
X86606051Y-100437976D01*
X86424919Y-100362949D01*
X86424911Y-100362947D01*
X86232631Y-100324700D01*
X85978200Y-100324700D01*
X85978200Y-101015200D01*
X85478200Y-101015200D01*
X85478200Y-100324700D01*
X85223769Y-100324700D01*
X85031488Y-100362947D01*
X85031480Y-100362949D01*
X84850348Y-100437976D01*
X84850345Y-100437977D01*
X84687333Y-100546899D01*
X84687329Y-100546902D01*
X84548702Y-100685529D01*
X84548699Y-100685533D01*
X84439777Y-100848545D01*
X84439776Y-100848548D01*
X84364750Y-101029677D01*
X84364747Y-101029687D01*
X84356728Y-101069999D01*
X83302870Y-101069999D01*
X83294851Y-101029687D01*
X83294848Y-101029677D01*
X83219822Y-100848548D01*
X83219821Y-100848545D01*
X83110899Y-100685533D01*
X83110896Y-100685529D01*
X82972269Y-100546902D01*
X82972265Y-100546899D01*
X82809253Y-100437977D01*
X82809250Y-100437976D01*
X82628118Y-100362949D01*
X82628110Y-100362947D01*
X82435830Y-100324700D01*
X81978199Y-100324700D01*
X81978199Y-101015200D01*
X81478199Y-101015200D01*
X81478199Y-100324700D01*
X81020568Y-100324700D01*
X80828287Y-100362947D01*
X80828279Y-100362949D01*
X80647147Y-100437976D01*
X80647139Y-100437980D01*
X80493390Y-100540712D01*
X80426713Y-100561590D01*
X80359333Y-100543105D01*
X80312643Y-100491126D01*
X80300500Y-100437610D01*
X80300500Y-99545401D01*
X86940652Y-99545401D01*
X86967571Y-99680728D01*
X86967574Y-99680738D01*
X87020374Y-99808210D01*
X87020381Y-99808223D01*
X87097038Y-99922947D01*
X87097041Y-99922951D01*
X87194607Y-100020517D01*
X87194611Y-100020520D01*
X87309335Y-100097177D01*
X87309348Y-100097184D01*
X87407924Y-100138015D01*
X87436825Y-100149986D01*
X87436829Y-100149986D01*
X87436830Y-100149987D01*
X87572157Y-100176906D01*
X87572160Y-100176906D01*
X87710148Y-100176906D01*
X87801194Y-100158795D01*
X87845481Y-100149986D01*
X87972964Y-100097181D01*
X88087695Y-100020520D01*
X88185267Y-99922948D01*
X88261928Y-99808217D01*
X88262303Y-99807313D01*
X88295351Y-99727527D01*
X88314733Y-99680734D01*
X88333276Y-99587515D01*
X88341653Y-99545401D01*
X88341653Y-99407410D01*
X88314734Y-99272083D01*
X88314733Y-99272082D01*
X88314733Y-99272078D01*
X88300623Y-99238014D01*
X88261931Y-99144601D01*
X88261924Y-99144588D01*
X88185267Y-99029864D01*
X88185264Y-99029860D01*
X88087697Y-98932293D01*
X88073037Y-98922498D01*
X88073036Y-98922497D01*
X87972970Y-98855634D01*
X87972957Y-98855627D01*
X87905105Y-98827522D01*
X92849500Y-98827522D01*
X92849500Y-98972472D01*
X92883538Y-99099502D01*
X92887017Y-99112485D01*
X92959488Y-99238008D01*
X92959493Y-99238014D01*
X92983796Y-99262317D01*
X93017281Y-99323640D01*
X93012297Y-99393332D01*
X92983798Y-99437678D01*
X92959488Y-99461988D01*
X92887017Y-99587511D01*
X92887016Y-99587515D01*
X92849500Y-99727525D01*
X92849500Y-99872475D01*
X92883805Y-100000500D01*
X92887017Y-100012488D01*
X92959488Y-100138011D01*
X92959490Y-100138013D01*
X92959491Y-100138015D01*
X93061985Y-100240509D01*
X93061986Y-100240510D01*
X93061988Y-100240511D01*
X93187511Y-100312982D01*
X93187512Y-100312982D01*
X93187515Y-100312984D01*
X93327525Y-100350500D01*
X93327528Y-100350500D01*
X93472472Y-100350500D01*
X93472475Y-100350500D01*
X93612485Y-100312984D01*
X93738015Y-100240509D01*
X93840509Y-100138015D01*
X93912984Y-100012485D01*
X93950500Y-99872475D01*
X93950500Y-99727525D01*
X93912984Y-99587515D01*
X93900499Y-99565891D01*
X93840511Y-99461988D01*
X93840506Y-99461982D01*
X93816203Y-99437679D01*
X93782718Y-99376356D01*
X93787702Y-99306664D01*
X93816200Y-99262320D01*
X93840509Y-99238012D01*
X93912984Y-99112482D01*
X93950500Y-98972472D01*
X93950500Y-98827522D01*
X93950500Y-98825366D01*
X93970185Y-98758327D01*
X94022989Y-98712572D01*
X94042398Y-98705594D01*
X94135602Y-98680620D01*
X94261132Y-98608145D01*
X94363626Y-98505651D01*
X94436101Y-98380121D01*
X94473617Y-98240111D01*
X94473617Y-98095161D01*
X94436101Y-97955151D01*
X94411469Y-97912488D01*
X94363628Y-97829624D01*
X94363623Y-97829618D01*
X94261134Y-97727129D01*
X94261132Y-97727127D01*
X94260535Y-97726782D01*
X94135605Y-97654653D01*
X94135606Y-97654653D01*
X94124123Y-97651576D01*
X94034364Y-97627525D01*
X95749500Y-97627525D01*
X95749500Y-97772475D01*
X95768094Y-97841867D01*
X95787017Y-97912488D01*
X95859488Y-98038011D01*
X95859490Y-98038013D01*
X95859491Y-98038015D01*
X95961985Y-98140509D01*
X95961986Y-98140510D01*
X95961988Y-98140511D01*
X96087511Y-98212982D01*
X96087512Y-98212982D01*
X96087515Y-98212984D01*
X96227525Y-98250500D01*
X96227528Y-98250500D01*
X96372472Y-98250500D01*
X96372475Y-98250500D01*
X96512485Y-98212984D01*
X96638015Y-98140509D01*
X96740509Y-98038015D01*
X96812984Y-97912485D01*
X96850500Y-97772475D01*
X96850500Y-97627525D01*
X96812984Y-97487515D01*
X96785843Y-97440506D01*
X96740511Y-97361988D01*
X96740506Y-97361982D01*
X96638017Y-97259493D01*
X96638011Y-97259488D01*
X96512488Y-97187017D01*
X96512489Y-97187017D01*
X96501006Y-97183940D01*
X96372475Y-97149500D01*
X96227525Y-97149500D01*
X96098993Y-97183940D01*
X96087511Y-97187017D01*
X95961988Y-97259488D01*
X95961982Y-97259493D01*
X95859493Y-97361982D01*
X95859488Y-97361988D01*
X95787017Y-97487511D01*
X95787016Y-97487515D01*
X95749500Y-97627525D01*
X94034364Y-97627525D01*
X93995592Y-97617136D01*
X93850642Y-97617136D01*
X93722110Y-97651576D01*
X93710628Y-97654653D01*
X93585105Y-97727124D01*
X93585099Y-97727129D01*
X93482610Y-97829618D01*
X93482605Y-97829624D01*
X93410134Y-97955147D01*
X93410133Y-97955151D01*
X93372617Y-98095161D01*
X93372617Y-98095163D01*
X93372617Y-98242266D01*
X93352932Y-98309305D01*
X93300128Y-98355060D01*
X93280711Y-98362041D01*
X93187511Y-98387014D01*
X93061988Y-98459485D01*
X93061982Y-98459490D01*
X92959493Y-98561979D01*
X92959488Y-98561985D01*
X92887017Y-98687508D01*
X92887016Y-98687512D01*
X92849500Y-98827522D01*
X87905105Y-98827522D01*
X87845485Y-98802827D01*
X87845475Y-98802824D01*
X87710148Y-98775906D01*
X87710146Y-98775906D01*
X87572160Y-98775906D01*
X87572158Y-98775906D01*
X87436830Y-98802824D01*
X87436820Y-98802827D01*
X87309348Y-98855627D01*
X87309335Y-98855634D01*
X87194611Y-98932291D01*
X87194607Y-98932294D01*
X87097041Y-99029860D01*
X87097038Y-99029864D01*
X87020381Y-99144588D01*
X87020374Y-99144601D01*
X86967574Y-99272073D01*
X86967571Y-99272083D01*
X86940653Y-99407410D01*
X86940653Y-99407413D01*
X86940653Y-99545399D01*
X86940653Y-99545401D01*
X86940652Y-99545401D01*
X80300500Y-99545401D01*
X80300500Y-96927525D01*
X89729399Y-96927525D01*
X89729399Y-97072475D01*
X89755307Y-97169162D01*
X89766916Y-97212488D01*
X89839387Y-97338011D01*
X89839389Y-97338013D01*
X89839390Y-97338015D01*
X89941884Y-97440509D01*
X89941885Y-97440510D01*
X89941887Y-97440511D01*
X90067410Y-97512982D01*
X90067411Y-97512982D01*
X90067414Y-97512984D01*
X90207424Y-97550500D01*
X90207427Y-97550500D01*
X90352371Y-97550500D01*
X90352374Y-97550500D01*
X90492384Y-97512984D01*
X90617914Y-97440509D01*
X90720408Y-97338015D01*
X90792883Y-97212485D01*
X90830399Y-97072475D01*
X90830399Y-96927525D01*
X90792883Y-96787515D01*
X90790154Y-96782789D01*
X90720410Y-96661988D01*
X90720405Y-96661982D01*
X90617916Y-96559493D01*
X90617910Y-96559488D01*
X90492387Y-96487017D01*
X90492388Y-96487017D01*
X90479568Y-96483582D01*
X90352374Y-96449500D01*
X90207424Y-96449500D01*
X90080230Y-96483582D01*
X90067410Y-96487017D01*
X89941887Y-96559488D01*
X89941881Y-96559493D01*
X89839392Y-96661982D01*
X89839387Y-96661988D01*
X89766916Y-96787511D01*
X89766915Y-96787515D01*
X89729399Y-96927525D01*
X80300500Y-96927525D01*
X80300500Y-94643995D01*
X86899576Y-94643995D01*
X86926495Y-94779322D01*
X86926498Y-94779332D01*
X86979298Y-94906804D01*
X86979305Y-94906817D01*
X87055962Y-95021541D01*
X87055965Y-95021545D01*
X87153531Y-95119111D01*
X87153535Y-95119114D01*
X87268259Y-95195771D01*
X87268272Y-95195778D01*
X87395744Y-95248578D01*
X87395749Y-95248580D01*
X87395753Y-95248580D01*
X87395754Y-95248581D01*
X87531081Y-95275500D01*
X87531084Y-95275500D01*
X87669072Y-95275500D01*
X87760118Y-95257389D01*
X87804405Y-95248580D01*
X87931888Y-95195775D01*
X88046619Y-95119114D01*
X88144191Y-95021542D01*
X88220852Y-94906811D01*
X88273657Y-94779328D01*
X88300577Y-94643993D01*
X88300577Y-94627525D01*
X91249500Y-94627525D01*
X91249500Y-94772475D01*
X91285494Y-94906804D01*
X91287017Y-94912488D01*
X91359488Y-95038011D01*
X91359490Y-95038013D01*
X91359491Y-95038015D01*
X91461985Y-95140509D01*
X91461986Y-95140510D01*
X91461988Y-95140511D01*
X91587511Y-95212982D01*
X91587512Y-95212982D01*
X91587515Y-95212984D01*
X91727525Y-95250500D01*
X91727528Y-95250500D01*
X91872472Y-95250500D01*
X91872475Y-95250500D01*
X92012485Y-95212984D01*
X92138015Y-95140509D01*
X92240509Y-95038015D01*
X92312984Y-94912485D01*
X92350500Y-94772475D01*
X92350500Y-94627525D01*
X92312984Y-94487515D01*
X92245527Y-94370677D01*
X92240511Y-94361988D01*
X92240506Y-94361982D01*
X92138017Y-94259493D01*
X92138011Y-94259488D01*
X92012488Y-94187017D01*
X92012489Y-94187017D01*
X91969380Y-94175466D01*
X91872475Y-94149500D01*
X91727525Y-94149500D01*
X91630620Y-94175466D01*
X91587511Y-94187017D01*
X91461988Y-94259488D01*
X91461982Y-94259493D01*
X91359493Y-94361982D01*
X91359488Y-94361988D01*
X91287017Y-94487511D01*
X91287016Y-94487515D01*
X91249500Y-94627525D01*
X88300577Y-94627525D01*
X88300577Y-94506007D01*
X88300577Y-94506004D01*
X88273658Y-94370677D01*
X88273657Y-94370676D01*
X88273657Y-94370672D01*
X88270059Y-94361985D01*
X88220855Y-94243195D01*
X88220848Y-94243182D01*
X88144191Y-94128458D01*
X88144188Y-94128454D01*
X88046622Y-94030888D01*
X88046618Y-94030885D01*
X87931894Y-93954228D01*
X87931881Y-93954221D01*
X87804409Y-93901421D01*
X87804399Y-93901418D01*
X87669072Y-93874500D01*
X87669070Y-93874500D01*
X87531084Y-93874500D01*
X87531082Y-93874500D01*
X87395754Y-93901418D01*
X87395744Y-93901421D01*
X87268272Y-93954221D01*
X87268259Y-93954228D01*
X87153535Y-94030885D01*
X87153531Y-94030888D01*
X87055965Y-94128454D01*
X87055962Y-94128458D01*
X86979305Y-94243182D01*
X86979298Y-94243195D01*
X86926498Y-94370667D01*
X86926495Y-94370677D01*
X86899577Y-94506004D01*
X86899577Y-94506007D01*
X86899577Y-94643993D01*
X86899577Y-94643995D01*
X86899576Y-94643995D01*
X80300500Y-94643995D01*
X80300500Y-93562389D01*
X80320185Y-93495350D01*
X80372989Y-93449595D01*
X80442147Y-93439651D01*
X80493391Y-93459287D01*
X80647144Y-93562022D01*
X80647147Y-93562023D01*
X80828279Y-93637050D01*
X80828287Y-93637052D01*
X81020567Y-93675300D01*
X81478199Y-93675300D01*
X81478199Y-92984800D01*
X81978199Y-92984800D01*
X81978199Y-93675300D01*
X82435830Y-93675300D01*
X82628110Y-93637052D01*
X82628118Y-93637050D01*
X82809250Y-93562023D01*
X82809253Y-93562022D01*
X82972265Y-93453100D01*
X82972269Y-93453097D01*
X83110896Y-93314470D01*
X83110899Y-93314466D01*
X83219821Y-93151454D01*
X83219822Y-93151451D01*
X83294848Y-92970322D01*
X83294851Y-92970312D01*
X83302870Y-92930000D01*
X82501687Y-92930000D01*
X82512251Y-92923901D01*
X82569000Y-92867152D01*
X82609127Y-92797648D01*
X82629899Y-92720128D01*
X82629899Y-92639872D01*
X82609127Y-92562352D01*
X82569000Y-92492848D01*
X82512251Y-92436099D01*
X82501687Y-92430000D01*
X83302870Y-92430000D01*
X83302870Y-92429999D01*
X84356728Y-92429999D01*
X84356729Y-92430000D01*
X85157912Y-92430000D01*
X85147348Y-92436099D01*
X85090599Y-92492848D01*
X85050472Y-92562352D01*
X85029700Y-92639872D01*
X85029700Y-92720128D01*
X85050472Y-92797648D01*
X85090599Y-92867152D01*
X85147348Y-92923901D01*
X85157912Y-92930000D01*
X84356729Y-92930000D01*
X84364747Y-92970312D01*
X84364750Y-92970322D01*
X84439776Y-93151451D01*
X84439777Y-93151454D01*
X84548699Y-93314466D01*
X84548702Y-93314470D01*
X84687329Y-93453097D01*
X84687333Y-93453100D01*
X84850345Y-93562022D01*
X84850348Y-93562023D01*
X85031480Y-93637050D01*
X85031488Y-93637052D01*
X85223768Y-93675300D01*
X85478200Y-93675300D01*
X85478200Y-92984800D01*
X85978200Y-92984800D01*
X85978200Y-93675300D01*
X86232631Y-93675300D01*
X86424911Y-93637052D01*
X86424919Y-93637050D01*
X86606051Y-93562023D01*
X86606054Y-93562022D01*
X86769066Y-93453100D01*
X86769070Y-93453097D01*
X86907697Y-93314470D01*
X86907700Y-93314466D01*
X87016622Y-93151454D01*
X87016623Y-93151451D01*
X87091649Y-92970322D01*
X87091652Y-92970312D01*
X87099671Y-92930000D01*
X86298488Y-92930000D01*
X86309052Y-92923901D01*
X86365801Y-92867152D01*
X86405928Y-92797648D01*
X86426700Y-92720128D01*
X86426700Y-92639872D01*
X86405928Y-92562352D01*
X86365801Y-92492848D01*
X86309052Y-92436099D01*
X86298488Y-92430000D01*
X87099671Y-92430000D01*
X87099671Y-92429999D01*
X87091652Y-92389687D01*
X87091649Y-92389677D01*
X87016623Y-92208548D01*
X87016622Y-92208545D01*
X86907700Y-92045533D01*
X86907697Y-92045529D01*
X86769070Y-91906902D01*
X86769066Y-91906899D01*
X86606054Y-91797977D01*
X86606051Y-91797976D01*
X86424919Y-91722949D01*
X86424911Y-91722947D01*
X86264379Y-91691015D01*
X86264378Y-91691014D01*
X86232632Y-91684700D01*
X85978200Y-91684700D01*
X85978200Y-92375200D01*
X85478200Y-92375200D01*
X85478200Y-91684700D01*
X85223769Y-91684700D01*
X85031488Y-91722947D01*
X85031480Y-91722949D01*
X84850348Y-91797976D01*
X84850345Y-91797977D01*
X84687333Y-91906899D01*
X84687329Y-91906902D01*
X84548702Y-92045529D01*
X84548699Y-92045533D01*
X84439777Y-92208545D01*
X84439776Y-92208548D01*
X84364750Y-92389677D01*
X84364747Y-92389687D01*
X84356728Y-92429999D01*
X83302870Y-92429999D01*
X83294851Y-92389687D01*
X83294848Y-92389677D01*
X83219822Y-92208548D01*
X83219821Y-92208545D01*
X83110899Y-92045533D01*
X83110896Y-92045529D01*
X82972269Y-91906902D01*
X82972265Y-91906899D01*
X82809253Y-91797977D01*
X82809250Y-91797976D01*
X82628118Y-91722949D01*
X82628110Y-91722947D01*
X82435830Y-91684700D01*
X81978199Y-91684700D01*
X81978199Y-92375200D01*
X81478199Y-92375200D01*
X81478199Y-91684700D01*
X81020568Y-91684700D01*
X80828287Y-91722947D01*
X80828279Y-91722949D01*
X80647147Y-91797976D01*
X80647139Y-91797980D01*
X80493390Y-91900712D01*
X80426713Y-91921590D01*
X80359333Y-91903105D01*
X80312643Y-91851126D01*
X80300500Y-91797610D01*
X80300500Y-91577525D01*
X88499500Y-91577525D01*
X88499500Y-91722475D01*
X88537016Y-91862485D01*
X88537017Y-91862488D01*
X88609488Y-91988011D01*
X88609490Y-91988013D01*
X88609491Y-91988015D01*
X88711985Y-92090509D01*
X88711986Y-92090510D01*
X88711988Y-92090511D01*
X88837511Y-92162982D01*
X88837512Y-92162982D01*
X88837515Y-92162984D01*
X88977525Y-92200500D01*
X88977528Y-92200500D01*
X89122472Y-92200500D01*
X89122475Y-92200500D01*
X89262485Y-92162984D01*
X89388015Y-92090509D01*
X89490509Y-91988015D01*
X89562984Y-91862485D01*
X89600500Y-91722475D01*
X89600500Y-91577525D01*
X89562984Y-91437515D01*
X89514952Y-91354322D01*
X89490511Y-91311988D01*
X89490506Y-91311982D01*
X89397519Y-91218995D01*
X90349499Y-91218995D01*
X90376418Y-91354322D01*
X90376421Y-91354332D01*
X90429221Y-91481804D01*
X90429228Y-91481817D01*
X90505885Y-91596541D01*
X90505888Y-91596545D01*
X90603454Y-91694111D01*
X90603458Y-91694114D01*
X90718182Y-91770771D01*
X90718195Y-91770778D01*
X90845667Y-91823578D01*
X90845672Y-91823580D01*
X90845676Y-91823580D01*
X90845677Y-91823581D01*
X90981004Y-91850500D01*
X90981007Y-91850500D01*
X91118995Y-91850500D01*
X91210041Y-91832389D01*
X91254328Y-91823580D01*
X91381811Y-91770775D01*
X91496542Y-91694114D01*
X91594114Y-91596542D01*
X91670775Y-91481811D01*
X91723580Y-91354328D01*
X91750500Y-91218993D01*
X91750500Y-91081007D01*
X91750500Y-91081004D01*
X91723581Y-90945677D01*
X91723580Y-90945676D01*
X91723580Y-90945672D01*
X91716041Y-90927472D01*
X91670778Y-90818195D01*
X91670771Y-90818182D01*
X91594114Y-90703458D01*
X91594111Y-90703454D01*
X91496545Y-90605888D01*
X91496541Y-90605885D01*
X91381817Y-90529228D01*
X91381804Y-90529221D01*
X91377709Y-90527525D01*
X102449500Y-90527525D01*
X102449500Y-90672475D01*
X102478988Y-90782525D01*
X102487017Y-90812488D01*
X102559488Y-90938011D01*
X102559490Y-90938013D01*
X102559491Y-90938015D01*
X102661985Y-91040509D01*
X102661986Y-91040510D01*
X102661988Y-91040511D01*
X102787511Y-91112982D01*
X102787512Y-91112982D01*
X102787515Y-91112984D01*
X102927525Y-91150500D01*
X102927528Y-91150500D01*
X103072472Y-91150500D01*
X103072475Y-91150500D01*
X103212485Y-91112984D01*
X103338015Y-91040509D01*
X103440509Y-90938015D01*
X103512984Y-90812485D01*
X103521012Y-90782525D01*
X111549500Y-90782525D01*
X111549500Y-90927475D01*
X111585542Y-91061985D01*
X111587017Y-91067488D01*
X111659488Y-91193011D01*
X111659490Y-91193013D01*
X111659491Y-91193015D01*
X111761985Y-91295509D01*
X111761986Y-91295510D01*
X111761988Y-91295511D01*
X111887511Y-91367982D01*
X111887512Y-91367982D01*
X111887515Y-91367984D01*
X112027525Y-91405500D01*
X112027528Y-91405500D01*
X112172472Y-91405500D01*
X112172475Y-91405500D01*
X112312485Y-91367984D01*
X112438015Y-91295509D01*
X112540509Y-91193015D01*
X112612984Y-91067485D01*
X112650500Y-90927475D01*
X112650500Y-90782525D01*
X112612984Y-90642515D01*
X112606448Y-90631195D01*
X112540511Y-90516988D01*
X112540506Y-90516982D01*
X112438017Y-90414493D01*
X112438011Y-90414488D01*
X112312488Y-90342017D01*
X112312489Y-90342017D01*
X112297538Y-90338011D01*
X112172475Y-90304500D01*
X112027525Y-90304500D01*
X111902462Y-90338011D01*
X111887511Y-90342017D01*
X111761988Y-90414488D01*
X111761982Y-90414493D01*
X111659493Y-90516982D01*
X111659488Y-90516988D01*
X111587017Y-90642511D01*
X111587016Y-90642515D01*
X111549500Y-90782525D01*
X103521012Y-90782525D01*
X103550500Y-90672475D01*
X103550500Y-90527525D01*
X103512984Y-90387515D01*
X103484406Y-90338017D01*
X103440511Y-90261988D01*
X103440506Y-90261982D01*
X103338017Y-90159493D01*
X103338011Y-90159488D01*
X103266517Y-90118211D01*
X104908814Y-90118211D01*
X104908814Y-90263161D01*
X104942937Y-90390509D01*
X104946331Y-90403174D01*
X105018802Y-90528697D01*
X105018804Y-90528699D01*
X105018805Y-90528701D01*
X105121299Y-90631195D01*
X105121300Y-90631196D01*
X105121302Y-90631197D01*
X105246825Y-90703668D01*
X105246826Y-90703668D01*
X105246829Y-90703670D01*
X105386839Y-90741186D01*
X105386842Y-90741186D01*
X105531786Y-90741186D01*
X105531789Y-90741186D01*
X105671799Y-90703670D01*
X105797329Y-90631195D01*
X105899823Y-90528701D01*
X105972298Y-90403171D01*
X106009814Y-90263161D01*
X106009814Y-90118211D01*
X105972298Y-89978201D01*
X105943041Y-89927527D01*
X105899825Y-89852674D01*
X105899820Y-89852668D01*
X105797331Y-89750179D01*
X105797325Y-89750174D01*
X105671802Y-89677703D01*
X105671803Y-89677703D01*
X105639304Y-89668995D01*
X105531789Y-89640186D01*
X105386839Y-89640186D01*
X105279324Y-89668995D01*
X105246825Y-89677703D01*
X105121302Y-89750174D01*
X105121296Y-89750179D01*
X105018807Y-89852668D01*
X105018802Y-89852674D01*
X104946331Y-89978197D01*
X104946330Y-89978201D01*
X104908814Y-90118211D01*
X103266517Y-90118211D01*
X103212488Y-90087017D01*
X103212489Y-90087017D01*
X103201006Y-90083940D01*
X103072475Y-90049500D01*
X102927525Y-90049500D01*
X102798993Y-90083940D01*
X102787511Y-90087017D01*
X102661988Y-90159488D01*
X102661982Y-90159493D01*
X102559493Y-90261982D01*
X102559488Y-90261988D01*
X102487017Y-90387511D01*
X102486214Y-90390509D01*
X102449500Y-90527525D01*
X91377709Y-90527525D01*
X91254332Y-90476421D01*
X91254322Y-90476418D01*
X91118995Y-90449500D01*
X91118993Y-90449500D01*
X90981007Y-90449500D01*
X90981005Y-90449500D01*
X90845677Y-90476418D01*
X90845667Y-90476421D01*
X90718195Y-90529221D01*
X90718182Y-90529228D01*
X90603458Y-90605885D01*
X90603454Y-90605888D01*
X90505888Y-90703454D01*
X90505885Y-90703458D01*
X90429228Y-90818182D01*
X90429221Y-90818195D01*
X90376421Y-90945667D01*
X90376418Y-90945677D01*
X90349500Y-91081004D01*
X90349500Y-91081007D01*
X90349500Y-91218993D01*
X90349500Y-91218995D01*
X90349499Y-91218995D01*
X89397519Y-91218995D01*
X89388017Y-91209493D01*
X89388015Y-91209491D01*
X89340921Y-91182301D01*
X89340920Y-91182300D01*
X89262488Y-91137017D01*
X89262489Y-91137017D01*
X89251006Y-91133940D01*
X89122475Y-91099500D01*
X88977525Y-91099500D01*
X88848993Y-91133940D01*
X88837511Y-91137017D01*
X88711988Y-91209488D01*
X88711982Y-91209493D01*
X88609493Y-91311982D01*
X88609488Y-91311988D01*
X88537017Y-91437511D01*
X88537016Y-91437515D01*
X88499500Y-91577525D01*
X80300500Y-91577525D01*
X80300500Y-87003480D01*
X80300695Y-86996527D01*
X80309935Y-86831988D01*
X80317084Y-86704691D01*
X80318638Y-86690898D01*
X80346396Y-86527525D01*
X102449500Y-86527525D01*
X102449500Y-86672475D01*
X102487016Y-86812485D01*
X102487017Y-86812488D01*
X102559488Y-86938011D01*
X102559490Y-86938013D01*
X102559491Y-86938015D01*
X102661985Y-87040509D01*
X102661986Y-87040510D01*
X102661988Y-87040511D01*
X102787511Y-87112982D01*
X102787512Y-87112982D01*
X102787515Y-87112984D01*
X102927525Y-87150500D01*
X102927528Y-87150500D01*
X103072472Y-87150500D01*
X103072475Y-87150500D01*
X103212485Y-87112984D01*
X103239261Y-87097525D01*
X111929500Y-87097525D01*
X111929500Y-87242475D01*
X111967016Y-87382485D01*
X111967017Y-87382488D01*
X112039488Y-87508011D01*
X112039490Y-87508013D01*
X112039491Y-87508015D01*
X112141985Y-87610509D01*
X112141986Y-87610510D01*
X112141988Y-87610511D01*
X112267511Y-87682982D01*
X112267512Y-87682982D01*
X112267515Y-87682984D01*
X112407525Y-87720500D01*
X112407528Y-87720500D01*
X112552472Y-87720500D01*
X112552475Y-87720500D01*
X112692485Y-87682984D01*
X112818015Y-87610509D01*
X112920509Y-87508015D01*
X112992984Y-87382485D01*
X113030500Y-87242475D01*
X113030500Y-87097525D01*
X112992984Y-86957515D01*
X112981723Y-86938011D01*
X112920511Y-86831988D01*
X112920506Y-86831982D01*
X112818017Y-86729493D01*
X112818011Y-86729488D01*
X112692488Y-86657017D01*
X112692489Y-86657017D01*
X112681006Y-86653940D01*
X112552475Y-86619500D01*
X112407525Y-86619500D01*
X112278993Y-86653940D01*
X112267511Y-86657017D01*
X112141988Y-86729488D01*
X112141982Y-86729493D01*
X112039493Y-86831982D01*
X112039488Y-86831988D01*
X111967017Y-86957511D01*
X111967016Y-86957515D01*
X111929500Y-87097525D01*
X103239261Y-87097525D01*
X103338015Y-87040509D01*
X103440509Y-86938015D01*
X103512984Y-86812485D01*
X103550500Y-86672475D01*
X103550500Y-86527525D01*
X103512984Y-86387515D01*
X103490176Y-86348011D01*
X103440511Y-86261988D01*
X103440506Y-86261982D01*
X103338017Y-86159493D01*
X103338011Y-86159488D01*
X103212488Y-86087017D01*
X103212489Y-86087017D01*
X103195527Y-86082472D01*
X103072475Y-86049500D01*
X102927525Y-86049500D01*
X102804473Y-86082472D01*
X102787511Y-86087017D01*
X102661988Y-86159488D01*
X102661982Y-86159493D01*
X102559493Y-86261982D01*
X102559488Y-86261988D01*
X102487017Y-86387511D01*
X102487016Y-86387515D01*
X102449500Y-86527525D01*
X80346396Y-86527525D01*
X80367015Y-86406167D01*
X80370109Y-86392615D01*
X80371579Y-86387515D01*
X80450061Y-86115096D01*
X80454653Y-86101975D01*
X80460849Y-86087017D01*
X80526913Y-85927525D01*
X106749500Y-85927525D01*
X106749500Y-86072475D01*
X106772817Y-86159493D01*
X106787017Y-86212488D01*
X106859488Y-86338011D01*
X106859490Y-86338013D01*
X106859491Y-86338015D01*
X106961985Y-86440509D01*
X106961986Y-86440510D01*
X106961988Y-86440511D01*
X107087511Y-86512982D01*
X107087512Y-86512982D01*
X107087515Y-86512984D01*
X107227525Y-86550500D01*
X107227528Y-86550500D01*
X107372472Y-86550500D01*
X107372475Y-86550500D01*
X107512485Y-86512984D01*
X107638015Y-86440509D01*
X107740509Y-86338015D01*
X107812984Y-86212485D01*
X107850500Y-86072475D01*
X107850500Y-85937525D01*
X113909500Y-85937525D01*
X113909500Y-86082475D01*
X113947016Y-86222485D01*
X113947017Y-86222488D01*
X114019488Y-86348011D01*
X114019490Y-86348013D01*
X114019491Y-86348015D01*
X114121985Y-86450509D01*
X114121986Y-86450510D01*
X114121988Y-86450511D01*
X114247511Y-86522982D01*
X114247512Y-86522982D01*
X114247515Y-86522984D01*
X114387525Y-86560500D01*
X114387528Y-86560500D01*
X114532472Y-86560500D01*
X114532475Y-86560500D01*
X114672485Y-86522984D01*
X114798015Y-86450509D01*
X114900509Y-86348015D01*
X114972984Y-86222485D01*
X115010500Y-86082475D01*
X115010500Y-85937525D01*
X114972984Y-85797515D01*
X114967210Y-85787515D01*
X114900511Y-85671988D01*
X114900506Y-85671982D01*
X114798017Y-85569493D01*
X114798011Y-85569488D01*
X114672488Y-85497017D01*
X114672489Y-85497017D01*
X114661006Y-85493940D01*
X114532475Y-85459500D01*
X114387525Y-85459500D01*
X114258993Y-85493940D01*
X114247511Y-85497017D01*
X114121988Y-85569488D01*
X114121982Y-85569493D01*
X114019493Y-85671982D01*
X114019488Y-85671988D01*
X113947017Y-85797511D01*
X113947016Y-85797515D01*
X113909500Y-85937525D01*
X107850500Y-85937525D01*
X107850500Y-85927525D01*
X107812984Y-85787515D01*
X107785843Y-85740506D01*
X107740511Y-85661988D01*
X107740506Y-85661982D01*
X107638017Y-85559493D01*
X107638011Y-85559488D01*
X107512488Y-85487017D01*
X107512489Y-85487017D01*
X107501006Y-85483940D01*
X107372475Y-85449500D01*
X107227525Y-85449500D01*
X107098993Y-85483940D01*
X107087511Y-85487017D01*
X106961988Y-85559488D01*
X106961982Y-85559493D01*
X106859493Y-85661982D01*
X106859488Y-85661988D01*
X106787017Y-85787511D01*
X106787016Y-85787515D01*
X106749500Y-85927525D01*
X80526913Y-85927525D01*
X80565175Y-85835151D01*
X80571195Y-85822651D01*
X80710902Y-85569868D01*
X80718297Y-85558100D01*
X80885422Y-85322559D01*
X80894077Y-85311705D01*
X81086534Y-85096346D01*
X81096346Y-85086534D01*
X81311705Y-84894077D01*
X81322559Y-84885422D01*
X81547193Y-84726036D01*
X81613256Y-84703298D01*
X81681128Y-84719885D01*
X81729258Y-84770534D01*
X81742364Y-84839164D01*
X81716286Y-84903984D01*
X81706628Y-84914847D01*
X81659494Y-84961981D01*
X81659488Y-84961988D01*
X81587017Y-85087511D01*
X81587016Y-85087515D01*
X81549500Y-85227525D01*
X81549500Y-85372475D01*
X81583550Y-85499548D01*
X81587017Y-85512488D01*
X81659488Y-85638011D01*
X81659490Y-85638013D01*
X81659491Y-85638015D01*
X81761985Y-85740509D01*
X81761986Y-85740510D01*
X81761988Y-85740511D01*
X81887511Y-85812982D01*
X81887512Y-85812982D01*
X81887515Y-85812984D01*
X82027525Y-85850500D01*
X82027528Y-85850500D01*
X82172472Y-85850500D01*
X82172475Y-85850500D01*
X82312485Y-85812984D01*
X82314170Y-85812011D01*
X82314171Y-85812011D01*
X82356605Y-85787511D01*
X82438015Y-85740509D01*
X82540509Y-85638015D01*
X82612984Y-85512485D01*
X82650500Y-85372475D01*
X82650500Y-85227525D01*
X82612984Y-85087515D01*
X82584406Y-85038017D01*
X82540511Y-84961988D01*
X82540506Y-84961982D01*
X82438017Y-84859493D01*
X82438011Y-84859488D01*
X82312488Y-84787017D01*
X82312489Y-84787017D01*
X82301006Y-84783940D01*
X82172475Y-84749500D01*
X82027525Y-84749500D01*
X82027522Y-84749500D01*
X82026998Y-84749569D01*
X82026556Y-84749500D01*
X82019398Y-84749500D01*
X82019398Y-84748383D01*
X82007959Y-84746599D01*
X81988798Y-84748660D01*
X81974148Y-84741327D01*
X81957963Y-84738803D01*
X81943550Y-84726010D01*
X81926318Y-84717385D01*
X81917959Y-84703296D01*
X81905707Y-84692422D01*
X81900498Y-84673867D01*
X81890666Y-84657296D01*
X81891250Y-84640925D01*
X81886823Y-84625153D01*
X81892472Y-84606728D01*
X81893160Y-84587471D01*
X81902502Y-84574014D01*
X81907305Y-84558353D01*
X81922017Y-84545907D01*
X81933008Y-84530079D01*
X81958877Y-84514729D01*
X81960650Y-84513230D01*
X81963342Y-84512077D01*
X82101979Y-84454651D01*
X82115096Y-84450061D01*
X82392621Y-84370107D01*
X82406167Y-84367015D01*
X82690898Y-84318638D01*
X82704691Y-84317084D01*
X82996528Y-84300695D01*
X83003481Y-84300500D01*
X83047595Y-84300500D01*
X109530214Y-84300500D01*
X109597253Y-84320185D01*
G37*
%TD.AperFunction*%
%TD*%
%TA.AperFunction,Conductor*%
%TO.N,PD_GND*%
G36*
X117209191Y-87768907D02*
G01*
X117245155Y-87818407D01*
X117250000Y-87849000D01*
X117250000Y-93500000D01*
X119250000Y-95500000D01*
X120651000Y-95500000D01*
X120709191Y-95518907D01*
X120745155Y-95568407D01*
X120750000Y-95599000D01*
X120750000Y-98401000D01*
X120731093Y-98459191D01*
X120681593Y-98495155D01*
X120651000Y-98500000D01*
X117599000Y-98500000D01*
X117540809Y-98481093D01*
X117504845Y-98431593D01*
X117500000Y-98401000D01*
X117500000Y-95750001D01*
X117500000Y-95750000D01*
X116500000Y-94750000D01*
X116499999Y-94750000D01*
X113500001Y-94750000D01*
X113500000Y-94750000D01*
X112500000Y-95750000D01*
X112500000Y-95750001D01*
X112500000Y-98401000D01*
X112481093Y-98459191D01*
X112431593Y-98495155D01*
X112401000Y-98500000D01*
X109349000Y-98500000D01*
X109290809Y-98481093D01*
X109254845Y-98431593D01*
X109250000Y-98401000D01*
X109250000Y-95599000D01*
X109268907Y-95540809D01*
X109318407Y-95504845D01*
X109349000Y-95500000D01*
X110749999Y-95500000D01*
X110750000Y-95500000D01*
X112971004Y-93278996D01*
X113025521Y-93251219D01*
X113041008Y-93250000D01*
X115249999Y-93250000D01*
X115250000Y-93250000D01*
X115250000Y-88927522D01*
X115949500Y-88927522D01*
X115949500Y-89072471D01*
X115987017Y-89212486D01*
X116059487Y-89338007D01*
X116059489Y-89338009D01*
X116059491Y-89338012D01*
X116101475Y-89379996D01*
X116129251Y-89434511D01*
X116119680Y-89494943D01*
X116101474Y-89520001D01*
X116059491Y-89561983D01*
X116059487Y-89561989D01*
X115987017Y-89687510D01*
X115949500Y-89827525D01*
X115949500Y-89972474D01*
X115987017Y-90112489D01*
X116059487Y-90238010D01*
X116059489Y-90238012D01*
X116059491Y-90238015D01*
X116161985Y-90340509D01*
X116161987Y-90340510D01*
X116161989Y-90340512D01*
X116287511Y-90412982D01*
X116287512Y-90412982D01*
X116287515Y-90412984D01*
X116427525Y-90450500D01*
X116427526Y-90450500D01*
X116572474Y-90450500D01*
X116572475Y-90450500D01*
X116712485Y-90412984D01*
X116712487Y-90412982D01*
X116712489Y-90412982D01*
X116838010Y-90340512D01*
X116838010Y-90340511D01*
X116838015Y-90340509D01*
X116940509Y-90238015D01*
X116940512Y-90238010D01*
X117012982Y-90112489D01*
X117012982Y-90112487D01*
X117012984Y-90112485D01*
X117050500Y-89972475D01*
X117050500Y-89827525D01*
X117012984Y-89687515D01*
X117012982Y-89687512D01*
X117012982Y-89687510D01*
X116940512Y-89561989D01*
X116940510Y-89561987D01*
X116940509Y-89561985D01*
X116898523Y-89519999D01*
X116870748Y-89465485D01*
X116880319Y-89405053D01*
X116898523Y-89379997D01*
X116940509Y-89338012D01*
X117012984Y-89212482D01*
X117050500Y-89072472D01*
X117050500Y-88927522D01*
X117012984Y-88787512D01*
X117012982Y-88787509D01*
X117012982Y-88787507D01*
X116940512Y-88661986D01*
X116940510Y-88661984D01*
X116940509Y-88661982D01*
X116838015Y-88559488D01*
X116838012Y-88559486D01*
X116838010Y-88559484D01*
X116712488Y-88487014D01*
X116712489Y-88487014D01*
X116682896Y-88479084D01*
X116572475Y-88449497D01*
X116427525Y-88449497D01*
X116365790Y-88466038D01*
X116287510Y-88487014D01*
X116161989Y-88559484D01*
X116059487Y-88661986D01*
X115987017Y-88787507D01*
X115949500Y-88927522D01*
X115250000Y-88927522D01*
X115250000Y-87849000D01*
X115268907Y-87790809D01*
X115318407Y-87754845D01*
X115349000Y-87750000D01*
X117151000Y-87750000D01*
X117209191Y-87768907D01*
G37*
%TD.AperFunction*%
%TD*%
M02*
